%TF.GenerationSoftware,KiCad,Pcbnew,8.0.1*%
%TF.CreationDate,2024-04-16T10:16:22-05:00*%
%TF.ProjectId,DAQ-Bicineta,4441512d-4269-4636-996e-6574612e6b69,rev?*%
%TF.SameCoordinates,Original*%
%TF.FileFunction,Copper,L2,Bot*%
%TF.FilePolarity,Positive*%
%FSLAX46Y46*%
G04 Gerber Fmt 4.6, Leading zero omitted, Abs format (unit mm)*
G04 Created by KiCad (PCBNEW 8.0.1) date 2024-04-16 10:16:22*
%MOMM*%
%LPD*%
G01*
G04 APERTURE LIST*
%TA.AperFunction,ComponentPad*%
%ADD10R,1.700000X1.700000*%
%TD*%
%TA.AperFunction,ComponentPad*%
%ADD11O,1.700000X1.700000*%
%TD*%
%TA.AperFunction,ComponentPad*%
%ADD12C,4.800000*%
%TD*%
%TA.AperFunction,ComponentPad*%
%ADD13R,2.000000X2.000000*%
%TD*%
%TA.AperFunction,ComponentPad*%
%ADD14C,2.000000*%
%TD*%
%TA.AperFunction,ViaPad*%
%ADD15C,0.600000*%
%TD*%
%TA.AperFunction,Conductor*%
%ADD16C,1.000000*%
%TD*%
G04 APERTURE END LIST*
D10*
%TO.P,R-150k,1*%
%TO.N,CS_VCC*%
X179710000Y-124500000D03*
D11*
%TO.P,R-150k,2*%
%TO.N,T-D500_OUT*%
X182250000Y-124500000D03*
%TD*%
D10*
%TO.P,T-D500,1,Pin_1*%
%TO.N,T-D500_OUT*%
X182260000Y-131960000D03*
D11*
%TO.P,T-D500,2,Pin_2*%
%TO.N,CS_GND*%
X182260000Y-134500000D03*
%TD*%
D12*
%TO.P,H3,3*%
%TO.N,CS_GND*%
X107500000Y-142500000D03*
%TD*%
%TO.P,H1,1*%
%TO.N,CS_GND*%
X107500000Y-57500000D03*
%TD*%
%TO.P,H4,4*%
%TO.N,CS_GND*%
X192500000Y-142500000D03*
%TD*%
D10*
%TO.P,MicroSD1,1,Pin_1*%
%TO.N,MSD_CS*%
X174230000Y-116055000D03*
D11*
%TO.P,MicroSD1,2,Pin_2*%
%TO.N,MSD_SCK*%
X174230000Y-113515000D03*
%TO.P,MicroSD1,3,Pin_3*%
%TO.N,MSD_MOSI*%
X174230000Y-110975000D03*
%TO.P,MicroSD1,4,Pin_4*%
%TO.N,MSD_MISO*%
X174230000Y-108435000D03*
%TO.P,MicroSD1,5,Pin_5*%
%TO.N,GPS_VCC*%
X174230000Y-105895000D03*
%TO.P,MicroSD1,6,Pin_6*%
%TO.N,CS_GND*%
X174230000Y-103355000D03*
%TD*%
D10*
%TO.P,GPS1,1,Pin_1*%
%TO.N,CS_GND*%
X124775000Y-130780000D03*
D11*
%TO.P,GPS1,2,Pin_2*%
%TO.N,GPS_TX*%
X124775000Y-128240000D03*
%TO.P,GPS1,3,Pin_3*%
%TO.N,GPS_RX*%
X124775000Y-125700000D03*
%TO.P,GPS1,4,Pin_4*%
%TO.N,GPS_VCC*%
X124775000Y-123160000D03*
%TD*%
D10*
%TO.P,ACS712,1,Pin_1*%
%TO.N,CS_VCC*%
X119725000Y-82880000D03*
D11*
%TO.P,ACS712,2,Pin_2*%
%TO.N,CS_OUT*%
X122265000Y-82880000D03*
%TO.P,ACS712,3,Pin_3*%
%TO.N,CS_GND*%
X124805000Y-82880000D03*
%TD*%
D10*
%TO.P,KY-24,1,Pin_1*%
%TO.N,KY_A0*%
X120000000Y-103880000D03*
D11*
%TO.P,KY-24,2,Pin_2*%
%TO.N,CS_GND*%
X120000000Y-106420000D03*
%TO.P,KY-24,3,Pin_3*%
%TO.N,GPS_VCC*%
X120000000Y-108960000D03*
%TO.P,KY-24,4,Pin_4*%
%TO.N,KY_DO*%
X120000000Y-111500000D03*
%TD*%
D10*
%TO.P,PowerModule1,1,Pin_1*%
%TO.N,GPS_VCC*%
X185725000Y-83025000D03*
D11*
%TO.P,PowerModule1,2,Pin_2*%
X183185000Y-83025000D03*
%TO.P,PowerModule1,3,Pin_3*%
%TO.N,PM_I*%
X180645000Y-83025000D03*
%TO.P,PowerModule1,4,Pin_4*%
%TO.N,PM_V*%
X178105000Y-83025000D03*
%TO.P,PowerModule1,5,Pin_5*%
%TO.N,CS_GND*%
X175565000Y-83025000D03*
%TO.P,PowerModule1,6,Pin_6*%
X173025000Y-83025000D03*
%TD*%
D12*
%TO.P,H2,2*%
%TO.N,CS_GND*%
X192500000Y-57500000D03*
%TD*%
D13*
%TO.P,U3,1,3V3*%
%TO.N,CS_VCC*%
X136600000Y-91340000D03*
D14*
%TO.P,U3,2,GND*%
%TO.N,CS_GND*%
X136600000Y-93880000D03*
%TO.P,U3,3,D15*%
%TO.N,unconnected-(U3-D15-Pad3)*%
X136600000Y-96420000D03*
%TO.P,U3,4,D2*%
%TO.N,unconnected-(U3-D2-Pad4)*%
X136600000Y-98960000D03*
%TO.P,U3,5,D4*%
%TO.N,unconnected-(U3-D4-Pad5)*%
X136600000Y-101500000D03*
%TO.P,U3,6,RX2*%
%TO.N,GPS_RX*%
X136600000Y-104040000D03*
%TO.P,U3,7,TX2*%
%TO.N,GPS_TX*%
X136600000Y-106580000D03*
%TO.P,U3,8,D5*%
%TO.N,MSD_CS*%
X136600000Y-109120000D03*
%TO.P,U3,9,D18*%
%TO.N,MSD_SCK*%
X136600000Y-111660000D03*
%TO.P,U3,10,D19*%
%TO.N,MSD_MISO*%
X136600000Y-114200000D03*
%TO.P,U3,11,D21*%
%TO.N,unconnected-(U3-D21-Pad11)*%
X136600000Y-116740000D03*
%TO.P,U3,12,RX0*%
%TO.N,unconnected-(U3-RX0-Pad12)*%
X136600000Y-119280000D03*
%TO.P,U3,13,TX0*%
%TO.N,unconnected-(U3-TX0-Pad13)*%
X136600000Y-121820000D03*
%TO.P,U3,14,D22*%
%TO.N,unconnected-(U3-D22-Pad14)*%
X136600000Y-124360000D03*
%TO.P,U3,15,D23*%
%TO.N,MSD_MOSI*%
X136600000Y-126900000D03*
%TO.P,U3,16,EN*%
%TO.N,unconnected-(U3-EN-Pad16)*%
X162000000Y-126900000D03*
%TO.P,U3,17,VP*%
%TO.N,unconnected-(U3-VP-Pad17)*%
X162000000Y-124360000D03*
%TO.P,U3,18,VN*%
%TO.N,unconnected-(U3-VN-Pad18)*%
X162000000Y-121820000D03*
%TO.P,U3,19,D34*%
%TO.N,T-D500_OUT*%
X162000000Y-119280000D03*
%TO.P,U3,20,D35*%
%TO.N,PM_I*%
X162000000Y-116740000D03*
%TO.P,U3,21,D32*%
%TO.N,CS_OUT*%
X162000000Y-114200000D03*
%TO.P,U3,22,D33*%
%TO.N,PM_V*%
X162000000Y-111660000D03*
%TO.P,U3,23,D25*%
%TO.N,unconnected-(U3-D25-Pad23)*%
X162000000Y-109120000D03*
%TO.P,U3,24,D26*%
%TO.N,KY_DO*%
X162000000Y-106580000D03*
%TO.P,U3,25,D27*%
%TO.N,KY_A0*%
X162000000Y-104040000D03*
%TO.P,U3,26,D14*%
%TO.N,unconnected-(U3-D14-Pad26)*%
X162000000Y-101500000D03*
%TO.P,U3,27,D12*%
%TO.N,unconnected-(U3-D12-Pad27)*%
X162000000Y-98960000D03*
%TO.P,U3,28,D13*%
%TO.N,unconnected-(U3-D13-Pad28)*%
X162000000Y-96420000D03*
%TO.P,U3,29,GND*%
%TO.N,CS_GND*%
X162000000Y-93880000D03*
%TO.P,U3,30,VIN*%
%TO.N,GPS_VCC*%
X162000000Y-91340000D03*
%TD*%
D15*
%TO.N,CS_VCC*%
X176500000Y-124500000D03*
%TO.N,T-D500_OUT*%
X182250000Y-121250000D03*
%TO.N,KY_DO*%
X165000000Y-88500000D03*
X112000000Y-94500000D03*
%TO.N,KY_A0*%
X121500000Y-99500000D03*
%TO.N,GPS_VCC*%
X178300000Y-91355000D03*
X115000000Y-94000000D03*
X178300000Y-92855000D03*
X124800000Y-93355000D03*
%TO.N,MSD_SCK*%
X129300000Y-127855000D03*
%TO.N,MSD_CS*%
X127800000Y-127855000D03*
%TO.N,MSD_MOSI*%
X165800000Y-115855000D03*
X170800000Y-110855000D03*
%TO.N,PM_V*%
X168800000Y-103355000D03*
%TO.N,PM_I*%
X180000000Y-119000000D03*
%TD*%
D16*
%TO.N,CS_VCC*%
X139270000Y-94010000D02*
X136600000Y-91340000D01*
X139270000Y-131917108D02*
X139270000Y-94010000D01*
X140182892Y-132830000D02*
X139270000Y-131917108D01*
X176500000Y-124500000D02*
X168170000Y-132830000D01*
X168170000Y-132830000D02*
X140182892Y-132830000D01*
%TO.N,T-D500_OUT*%
X163970000Y-121250000D02*
X162000000Y-119280000D01*
X182250000Y-121250000D02*
X163970000Y-121250000D01*
%TO.N,KY_DO*%
X112000000Y-94500000D02*
X122070000Y-84430000D01*
X136088019Y-81130000D02*
X155990000Y-81130000D01*
X163360000Y-88500000D02*
X165000000Y-88500000D01*
X132788019Y-84430000D02*
X136088019Y-81130000D01*
X122070000Y-84430000D02*
X132788019Y-84430000D01*
X155990000Y-81130000D02*
X163360000Y-88500000D01*
%TO.N,KY_A0*%
X131360000Y-89640000D02*
X147600000Y-89640000D01*
X121500000Y-99500000D02*
X131360000Y-89640000D01*
X147600000Y-89640000D02*
X162000000Y-104040000D01*
%TO.N,GPS_VCC*%
X177285000Y-91340000D02*
X162000000Y-91340000D01*
X115000000Y-94000000D02*
X123370000Y-85630000D01*
X177300000Y-91355000D02*
X177285000Y-91340000D01*
X178300000Y-92855000D02*
X163515000Y-92855000D01*
X178300000Y-91355000D02*
X177300000Y-91355000D01*
X163515000Y-92855000D02*
X162000000Y-91340000D01*
X123370000Y-85630000D02*
X158630000Y-85630000D01*
X124800000Y-93355000D02*
X130300000Y-87855000D01*
X158515000Y-87855000D02*
X162000000Y-91340000D01*
X130300000Y-87855000D02*
X158515000Y-87855000D01*
X162000000Y-89000000D02*
X162000000Y-91340000D01*
X158630000Y-85630000D02*
X162000000Y-89000000D01*
%TO.N,MSD_SCK*%
X129300000Y-127855000D02*
X129300000Y-116355000D01*
X129300000Y-116355000D02*
X133995000Y-111660000D01*
X133995000Y-111660000D02*
X136600000Y-111660000D01*
%TO.N,MSD_CS*%
X134837944Y-109120000D02*
X136600000Y-109120000D01*
X127800000Y-127855000D02*
X127800000Y-116157944D01*
X127800000Y-116157944D02*
X134837944Y-109120000D01*
%TO.N,MSD_MOSI*%
X170800000Y-110855000D02*
X165800000Y-115855000D01*
%TO.N,PM_V*%
X168800000Y-103355000D02*
X168800000Y-104860000D01*
X168800000Y-104860000D02*
X162000000Y-111660000D01*
%TO.N,PM_I*%
X180000000Y-119000000D02*
X164260000Y-119000000D01*
X164260000Y-119000000D02*
X162000000Y-116740000D01*
%TD*%
%TA.AperFunction,Conductor*%
%TO.N,CS_GND*%
G36*
X192502211Y-50500578D02*
G01*
X192994924Y-50518176D01*
X193003717Y-50518804D01*
X193491755Y-50571274D01*
X193500471Y-50572527D01*
X193983520Y-50659679D01*
X193992128Y-50661552D01*
X194467713Y-50782938D01*
X194476177Y-50785423D01*
X194941866Y-50940419D01*
X194950160Y-50943512D01*
X195403602Y-51131335D01*
X195411653Y-51135012D01*
X195737022Y-51297879D01*
X195850551Y-51354708D01*
X195858287Y-51358931D01*
X196280432Y-51609401D01*
X196287842Y-51614164D01*
X196535063Y-51785813D01*
X196691001Y-51894083D01*
X196698087Y-51899387D01*
X196895443Y-52058426D01*
X197080257Y-52207358D01*
X197086940Y-52213149D01*
X197446152Y-52547588D01*
X197452411Y-52553847D01*
X197786850Y-52913059D01*
X197792647Y-52919749D01*
X198100612Y-53301912D01*
X198105916Y-53308998D01*
X198385827Y-53712145D01*
X198390602Y-53719574D01*
X198641062Y-54141703D01*
X198645294Y-54149453D01*
X198864987Y-54588346D01*
X198868664Y-54596397D01*
X199056487Y-55049839D01*
X199059580Y-55058133D01*
X199214571Y-55523807D01*
X199217065Y-55532300D01*
X199338442Y-56007851D01*
X199340324Y-56016500D01*
X199427468Y-56499505D01*
X199428728Y-56508267D01*
X199481193Y-56996264D01*
X199481824Y-57005093D01*
X199499421Y-57497788D01*
X199499500Y-57502214D01*
X199499500Y-142497785D01*
X199499421Y-142502211D01*
X199481824Y-142994906D01*
X199481193Y-143003735D01*
X199428728Y-143491732D01*
X199427468Y-143500494D01*
X199340324Y-143983499D01*
X199338442Y-143992148D01*
X199217065Y-144467699D01*
X199214571Y-144476192D01*
X199059580Y-144941866D01*
X199056487Y-144950160D01*
X198868664Y-145403602D01*
X198864987Y-145411653D01*
X198645294Y-145850546D01*
X198641056Y-145858308D01*
X198390613Y-146280408D01*
X198385827Y-146287854D01*
X198105916Y-146691001D01*
X198100612Y-146698087D01*
X197792647Y-147080250D01*
X197786850Y-147086940D01*
X197452411Y-147446152D01*
X197446152Y-147452411D01*
X197086940Y-147786850D01*
X197080250Y-147792647D01*
X196698087Y-148100612D01*
X196691001Y-148105916D01*
X196287854Y-148385827D01*
X196280412Y-148390610D01*
X195858308Y-148641056D01*
X195850546Y-148645294D01*
X195411653Y-148864987D01*
X195403602Y-148868664D01*
X194950160Y-149056487D01*
X194941866Y-149059580D01*
X194476192Y-149214571D01*
X194467699Y-149217065D01*
X193992148Y-149338442D01*
X193983499Y-149340324D01*
X193500494Y-149427468D01*
X193491732Y-149428728D01*
X193003735Y-149481193D01*
X192994906Y-149481824D01*
X192502212Y-149499421D01*
X192497786Y-149499500D01*
X107502214Y-149499500D01*
X107497788Y-149499421D01*
X107005093Y-149481824D01*
X106996264Y-149481193D01*
X106508267Y-149428728D01*
X106499505Y-149427468D01*
X106016500Y-149340324D01*
X106007851Y-149338442D01*
X105532300Y-149217065D01*
X105523807Y-149214571D01*
X105058133Y-149059580D01*
X105049839Y-149056487D01*
X104596397Y-148868664D01*
X104588346Y-148864987D01*
X104149453Y-148645294D01*
X104141703Y-148641062D01*
X103719574Y-148390602D01*
X103712145Y-148385827D01*
X103308998Y-148105916D01*
X103301912Y-148100612D01*
X102919749Y-147792647D01*
X102913059Y-147786850D01*
X102553847Y-147452411D01*
X102547588Y-147446152D01*
X102213149Y-147086940D01*
X102207352Y-147080250D01*
X101899387Y-146698087D01*
X101894083Y-146691001D01*
X101785813Y-146535063D01*
X101614164Y-146287842D01*
X101609401Y-146280432D01*
X101358931Y-145858287D01*
X101354705Y-145850546D01*
X101135012Y-145411653D01*
X101131335Y-145403602D01*
X100943512Y-144950160D01*
X100940419Y-144941866D01*
X100933700Y-144921679D01*
X100785423Y-144476177D01*
X100782938Y-144467713D01*
X100661552Y-143992128D01*
X100659679Y-143983520D01*
X100572527Y-143500471D01*
X100571274Y-143491755D01*
X100518804Y-143003717D01*
X100518176Y-142994924D01*
X100500579Y-142502211D01*
X100500500Y-142497785D01*
X100500500Y-128240000D01*
X123419341Y-128240000D01*
X123439936Y-128475403D01*
X123439938Y-128475413D01*
X123501094Y-128703655D01*
X123501096Y-128703659D01*
X123501097Y-128703663D01*
X123560415Y-128830871D01*
X123600965Y-128917830D01*
X123600967Y-128917834D01*
X123709281Y-129072521D01*
X123736505Y-129111401D01*
X123903599Y-129278495D01*
X124000384Y-129346265D01*
X124097165Y-129414032D01*
X124097167Y-129414033D01*
X124097170Y-129414035D01*
X124311337Y-129513903D01*
X124539592Y-129575063D01*
X124727918Y-129591539D01*
X124774999Y-129595659D01*
X124775000Y-129595659D01*
X124775001Y-129595659D01*
X124814234Y-129592226D01*
X125010408Y-129575063D01*
X125238663Y-129513903D01*
X125452830Y-129414035D01*
X125646401Y-129278495D01*
X125813495Y-129111401D01*
X125949035Y-128917830D01*
X126048903Y-128703663D01*
X126110063Y-128475408D01*
X126130659Y-128240000D01*
X126110063Y-128004592D01*
X126048903Y-127776337D01*
X125949035Y-127562171D01*
X125813495Y-127368599D01*
X125813494Y-127368597D01*
X125646402Y-127201506D01*
X125646396Y-127201501D01*
X125460842Y-127071575D01*
X125417217Y-127016998D01*
X125410023Y-126947500D01*
X125441546Y-126885145D01*
X125460842Y-126868425D01*
X125483026Y-126852891D01*
X125646401Y-126738495D01*
X125813495Y-126571401D01*
X125949035Y-126377830D01*
X126048903Y-126163663D01*
X126110063Y-125935408D01*
X126130659Y-125700000D01*
X126110063Y-125464592D01*
X126048903Y-125236337D01*
X125949035Y-125022171D01*
X125915250Y-124973920D01*
X125813494Y-124828597D01*
X125646402Y-124661506D01*
X125646396Y-124661501D01*
X125460842Y-124531575D01*
X125417217Y-124476998D01*
X125410023Y-124407500D01*
X125441546Y-124345145D01*
X125460842Y-124328425D01*
X125551999Y-124264596D01*
X125646401Y-124198495D01*
X125813495Y-124031401D01*
X125949035Y-123837830D01*
X126048903Y-123623663D01*
X126110063Y-123395408D01*
X126130659Y-123160000D01*
X126110063Y-122924592D01*
X126048903Y-122696337D01*
X125949035Y-122482171D01*
X125813495Y-122288599D01*
X125813494Y-122288597D01*
X125646402Y-122121506D01*
X125646395Y-122121501D01*
X125452834Y-121985967D01*
X125452830Y-121985965D01*
X125452828Y-121985964D01*
X125238663Y-121886097D01*
X125238659Y-121886096D01*
X125238655Y-121886094D01*
X125010413Y-121824938D01*
X125010403Y-121824936D01*
X124775001Y-121804341D01*
X124774999Y-121804341D01*
X124539596Y-121824936D01*
X124539586Y-121824938D01*
X124311344Y-121886094D01*
X124311335Y-121886098D01*
X124097171Y-121985964D01*
X124097169Y-121985965D01*
X123903597Y-122121505D01*
X123736505Y-122288597D01*
X123600965Y-122482169D01*
X123600964Y-122482171D01*
X123501098Y-122696335D01*
X123501094Y-122696344D01*
X123439938Y-122924586D01*
X123439938Y-122924587D01*
X123439937Y-122924592D01*
X123422113Y-123128314D01*
X123419341Y-123159999D01*
X123419341Y-123160000D01*
X123439936Y-123395403D01*
X123439938Y-123395413D01*
X123501094Y-123623655D01*
X123501096Y-123623659D01*
X123501097Y-123623663D01*
X123547354Y-123722861D01*
X123600965Y-123837830D01*
X123600967Y-123837834D01*
X123685342Y-123958333D01*
X123732785Y-124026089D01*
X123736501Y-124031395D01*
X123736506Y-124031402D01*
X123903597Y-124198493D01*
X123903603Y-124198498D01*
X124089158Y-124328425D01*
X124132783Y-124383002D01*
X124139977Y-124452500D01*
X124108454Y-124514855D01*
X124089158Y-124531575D01*
X123903597Y-124661505D01*
X123736505Y-124828597D01*
X123600965Y-125022169D01*
X123600964Y-125022171D01*
X123501098Y-125236335D01*
X123501094Y-125236344D01*
X123439938Y-125464586D01*
X123439938Y-125464587D01*
X123439937Y-125464592D01*
X123422113Y-125668314D01*
X123419341Y-125699999D01*
X123419341Y-125700000D01*
X123439936Y-125935403D01*
X123439938Y-125935413D01*
X123501094Y-126163655D01*
X123501096Y-126163659D01*
X123501097Y-126163663D01*
X123600965Y-126377830D01*
X123600967Y-126377834D01*
X123736501Y-126571395D01*
X123736506Y-126571402D01*
X123903597Y-126738493D01*
X123903603Y-126738498D01*
X124089158Y-126868425D01*
X124132783Y-126923002D01*
X124139977Y-126992500D01*
X124108454Y-127054855D01*
X124089158Y-127071575D01*
X123903597Y-127201505D01*
X123736505Y-127368597D01*
X123600965Y-127562169D01*
X123600964Y-127562171D01*
X123501098Y-127776335D01*
X123501094Y-127776344D01*
X123439938Y-128004586D01*
X123439938Y-128004587D01*
X123439937Y-128004592D01*
X123439662Y-128007738D01*
X123419341Y-128239999D01*
X123419341Y-128240000D01*
X100500500Y-128240000D01*
X100500500Y-111500000D01*
X118644341Y-111500000D01*
X118664936Y-111735403D01*
X118664938Y-111735413D01*
X118726094Y-111963655D01*
X118726096Y-111963659D01*
X118726097Y-111963663D01*
X118782148Y-112083864D01*
X118825965Y-112177830D01*
X118825967Y-112177834D01*
X118905906Y-112291998D01*
X118961505Y-112371401D01*
X119128599Y-112538495D01*
X119194704Y-112584782D01*
X119322165Y-112674032D01*
X119322167Y-112674033D01*
X119322170Y-112674035D01*
X119536337Y-112773903D01*
X119764592Y-112835063D01*
X119952918Y-112851539D01*
X119999999Y-112855659D01*
X120000000Y-112855659D01*
X120000001Y-112855659D01*
X120039234Y-112852226D01*
X120235408Y-112835063D01*
X120463663Y-112773903D01*
X120677830Y-112674035D01*
X120871401Y-112538495D01*
X121038495Y-112371401D01*
X121174035Y-112177830D01*
X121273903Y-111963663D01*
X121335063Y-111735408D01*
X121355659Y-111500000D01*
X121335063Y-111264592D01*
X121273903Y-111036337D01*
X121174035Y-110822171D01*
X121128021Y-110756455D01*
X121038494Y-110628597D01*
X120871402Y-110461506D01*
X120871396Y-110461501D01*
X120685842Y-110331575D01*
X120642217Y-110276998D01*
X120635023Y-110207500D01*
X120666546Y-110145145D01*
X120685842Y-110128425D01*
X120758052Y-110077863D01*
X120871401Y-109998495D01*
X121038495Y-109831401D01*
X121174035Y-109637830D01*
X121273903Y-109423663D01*
X121335063Y-109195408D01*
X121355659Y-108960000D01*
X121335063Y-108724592D01*
X121273903Y-108496337D01*
X121174035Y-108282171D01*
X121113150Y-108195217D01*
X121038494Y-108088597D01*
X120871402Y-107921506D01*
X120871395Y-107921501D01*
X120677834Y-107785967D01*
X120677830Y-107785965D01*
X120605305Y-107752146D01*
X120463663Y-107686097D01*
X120463659Y-107686096D01*
X120463655Y-107686094D01*
X120235413Y-107624938D01*
X120235403Y-107624936D01*
X120000001Y-107604341D01*
X119999999Y-107604341D01*
X119764596Y-107624936D01*
X119764586Y-107624938D01*
X119536344Y-107686094D01*
X119536335Y-107686098D01*
X119322171Y-107785964D01*
X119322169Y-107785965D01*
X119128597Y-107921505D01*
X118961505Y-108088597D01*
X118825965Y-108282169D01*
X118825964Y-108282171D01*
X118726098Y-108496335D01*
X118726094Y-108496344D01*
X118664938Y-108724586D01*
X118664936Y-108724596D01*
X118644341Y-108959999D01*
X118644341Y-108960000D01*
X118664936Y-109195403D01*
X118664938Y-109195413D01*
X118726094Y-109423655D01*
X118726096Y-109423659D01*
X118726097Y-109423663D01*
X118782148Y-109543864D01*
X118825965Y-109637830D01*
X118825967Y-109637834D01*
X118905906Y-109751998D01*
X118940193Y-109800965D01*
X118961501Y-109831395D01*
X118961506Y-109831402D01*
X119128597Y-109998493D01*
X119128603Y-109998498D01*
X119314158Y-110128425D01*
X119357783Y-110183002D01*
X119364977Y-110252500D01*
X119333454Y-110314855D01*
X119314158Y-110331575D01*
X119128597Y-110461505D01*
X118961505Y-110628597D01*
X118825965Y-110822169D01*
X118825964Y-110822171D01*
X118726098Y-111036335D01*
X118726094Y-111036344D01*
X118664938Y-111264586D01*
X118664936Y-111264596D01*
X118644341Y-111499999D01*
X118644341Y-111500000D01*
X100500500Y-111500000D01*
X100500500Y-104777870D01*
X118649500Y-104777870D01*
X118649501Y-104777876D01*
X118655908Y-104837483D01*
X118706202Y-104972328D01*
X118706206Y-104972335D01*
X118792452Y-105087544D01*
X118792455Y-105087547D01*
X118907664Y-105173793D01*
X118907671Y-105173797D01*
X119042517Y-105224091D01*
X119042516Y-105224091D01*
X119049444Y-105224835D01*
X119102127Y-105230500D01*
X120897872Y-105230499D01*
X120957483Y-105224091D01*
X121092331Y-105173796D01*
X121207546Y-105087546D01*
X121293796Y-104972331D01*
X121344091Y-104837483D01*
X121350500Y-104777873D01*
X121350499Y-102982128D01*
X121344091Y-102922517D01*
X121328640Y-102881092D01*
X121293797Y-102787671D01*
X121293793Y-102787664D01*
X121207547Y-102672455D01*
X121207544Y-102672452D01*
X121092335Y-102586206D01*
X121092328Y-102586202D01*
X120957482Y-102535908D01*
X120957483Y-102535908D01*
X120897883Y-102529501D01*
X120897881Y-102529500D01*
X120897873Y-102529500D01*
X120897864Y-102529500D01*
X119102129Y-102529500D01*
X119102123Y-102529501D01*
X119042516Y-102535908D01*
X118907671Y-102586202D01*
X118907664Y-102586206D01*
X118792455Y-102672452D01*
X118792452Y-102672455D01*
X118706206Y-102787664D01*
X118706202Y-102787671D01*
X118655908Y-102922517D01*
X118649501Y-102982116D01*
X118649501Y-102982123D01*
X118649500Y-102982135D01*
X118649500Y-104777870D01*
X100500500Y-104777870D01*
X100500500Y-94598544D01*
X110999500Y-94598544D01*
X111037947Y-94791828D01*
X111037949Y-94791836D01*
X111113367Y-94973910D01*
X111113372Y-94973920D01*
X111222860Y-95137780D01*
X111222863Y-95137784D01*
X111362215Y-95277136D01*
X111362219Y-95277139D01*
X111526079Y-95386627D01*
X111526083Y-95386629D01*
X111526086Y-95386631D01*
X111708164Y-95462051D01*
X111874891Y-95495215D01*
X111901455Y-95500499D01*
X111901458Y-95500500D01*
X111901460Y-95500500D01*
X112098542Y-95500500D01*
X112098543Y-95500499D01*
X112291836Y-95462051D01*
X112473914Y-95386631D01*
X112637781Y-95277139D01*
X113805080Y-94109839D01*
X113866401Y-94076356D01*
X113936092Y-94081340D01*
X113992026Y-94123211D01*
X114014376Y-94173330D01*
X114037947Y-94291830D01*
X114037949Y-94291836D01*
X114113367Y-94473910D01*
X114113372Y-94473920D01*
X114222860Y-94637780D01*
X114222863Y-94637784D01*
X114362215Y-94777136D01*
X114362219Y-94777139D01*
X114526079Y-94886627D01*
X114526083Y-94886629D01*
X114526086Y-94886631D01*
X114708164Y-94962051D01*
X114901455Y-95000499D01*
X114901458Y-95000500D01*
X114901460Y-95000500D01*
X115098542Y-95000500D01*
X115098543Y-95000499D01*
X115291836Y-94962051D01*
X115473914Y-94886631D01*
X115637781Y-94777139D01*
X119650420Y-90764500D01*
X123748102Y-86666819D01*
X123809425Y-86633334D01*
X123835783Y-86630500D01*
X130068586Y-86630500D01*
X130135625Y-86650185D01*
X130181380Y-86702989D01*
X130191324Y-86772147D01*
X130162299Y-86835703D01*
X130103521Y-86873477D01*
X130092777Y-86876117D01*
X130008172Y-86892946D01*
X130008164Y-86892948D01*
X129826088Y-86968366D01*
X129826079Y-86968371D01*
X129662219Y-87077859D01*
X129662215Y-87077862D01*
X124022863Y-92717215D01*
X124022860Y-92717219D01*
X123913372Y-92881079D01*
X123913367Y-92881089D01*
X123837949Y-93063163D01*
X123837947Y-93063171D01*
X123799500Y-93256455D01*
X123799500Y-93453544D01*
X123837947Y-93646828D01*
X123837949Y-93646836D01*
X123913367Y-93828910D01*
X123913372Y-93828920D01*
X124022860Y-93992780D01*
X124022863Y-93992784D01*
X124162215Y-94132136D01*
X124162219Y-94132139D01*
X124326079Y-94241627D01*
X124326083Y-94241629D01*
X124326086Y-94241631D01*
X124508164Y-94317051D01*
X124689143Y-94353050D01*
X124701455Y-94355499D01*
X124701458Y-94355500D01*
X124701460Y-94355500D01*
X124898540Y-94355500D01*
X124910856Y-94353050D01*
X124980446Y-94359276D01*
X125035625Y-94402138D01*
X125058871Y-94468027D01*
X125042805Y-94536024D01*
X125022730Y-94562348D01*
X120722863Y-98862215D01*
X120722860Y-98862219D01*
X120613372Y-99026079D01*
X120613367Y-99026089D01*
X120537949Y-99208163D01*
X120537947Y-99208171D01*
X120499500Y-99401455D01*
X120499500Y-99598544D01*
X120537947Y-99791828D01*
X120537949Y-99791836D01*
X120613367Y-99973910D01*
X120613372Y-99973920D01*
X120722860Y-100137780D01*
X120722863Y-100137784D01*
X120862215Y-100277136D01*
X120862219Y-100277139D01*
X121026079Y-100386627D01*
X121026083Y-100386629D01*
X121026086Y-100386631D01*
X121208164Y-100462051D01*
X121401455Y-100500499D01*
X121401458Y-100500500D01*
X121401460Y-100500500D01*
X121598542Y-100500500D01*
X121598543Y-100500499D01*
X121791836Y-100462051D01*
X121973914Y-100386631D01*
X122137781Y-100277139D01*
X126919705Y-95495215D01*
X131738102Y-90676819D01*
X131799425Y-90643334D01*
X131825783Y-90640500D01*
X134975500Y-90640500D01*
X135042539Y-90660185D01*
X135088294Y-90712989D01*
X135099500Y-90764500D01*
X135099500Y-92387870D01*
X135099501Y-92387876D01*
X135105908Y-92447483D01*
X135156202Y-92582328D01*
X135156206Y-92582335D01*
X135242452Y-92697544D01*
X135242455Y-92697547D01*
X135357664Y-92783793D01*
X135357671Y-92783797D01*
X135492517Y-92834091D01*
X135492516Y-92834091D01*
X135499444Y-92834835D01*
X135552127Y-92840500D01*
X136634217Y-92840499D01*
X136701256Y-92860184D01*
X136721898Y-92876818D01*
X138233181Y-94388101D01*
X138266666Y-94449424D01*
X138269500Y-94475782D01*
X138269500Y-95905539D01*
X138249815Y-95972578D01*
X138197011Y-96018333D01*
X138127853Y-96028277D01*
X138064297Y-95999252D01*
X138026523Y-95940474D01*
X138025295Y-95935981D01*
X138024064Y-95931121D01*
X137924173Y-95703393D01*
X137788166Y-95495217D01*
X137688205Y-95386631D01*
X137619744Y-95312262D01*
X137423509Y-95159526D01*
X137423507Y-95159525D01*
X137423506Y-95159524D01*
X137204811Y-95041172D01*
X137204802Y-95041169D01*
X136969616Y-94960429D01*
X136724335Y-94919500D01*
X136475665Y-94919500D01*
X136230383Y-94960429D01*
X135995197Y-95041169D01*
X135995188Y-95041172D01*
X135776493Y-95159524D01*
X135580257Y-95312261D01*
X135411833Y-95495217D01*
X135275826Y-95703393D01*
X135175936Y-95931118D01*
X135114892Y-96172175D01*
X135114890Y-96172187D01*
X135094357Y-96419994D01*
X135094357Y-96420005D01*
X135114890Y-96667812D01*
X135114892Y-96667824D01*
X135175936Y-96908881D01*
X135275826Y-97136606D01*
X135411833Y-97344782D01*
X135411836Y-97344785D01*
X135580256Y-97527738D01*
X135663008Y-97592147D01*
X135703821Y-97648857D01*
X135707496Y-97718630D01*
X135672864Y-97779313D01*
X135663014Y-97787848D01*
X135604400Y-97833469D01*
X135580257Y-97852261D01*
X135411833Y-98035217D01*
X135275826Y-98243393D01*
X135175936Y-98471118D01*
X135114892Y-98712175D01*
X135114890Y-98712187D01*
X135094357Y-98959994D01*
X135094357Y-98960005D01*
X135114890Y-99207812D01*
X135114892Y-99207824D01*
X135175936Y-99448881D01*
X135275826Y-99676606D01*
X135411833Y-99884782D01*
X135411836Y-99884785D01*
X135580256Y-100067738D01*
X135663008Y-100132147D01*
X135703821Y-100188857D01*
X135707496Y-100258630D01*
X135672864Y-100319313D01*
X135663014Y-100327848D01*
X135604400Y-100373469D01*
X135580257Y-100392261D01*
X135411833Y-100575217D01*
X135275826Y-100783393D01*
X135175936Y-101011118D01*
X135114892Y-101252175D01*
X135114890Y-101252187D01*
X135094357Y-101499994D01*
X135094357Y-101500005D01*
X135114890Y-101747812D01*
X135114892Y-101747824D01*
X135175936Y-101988881D01*
X135275826Y-102216606D01*
X135411833Y-102424782D01*
X135411836Y-102424785D01*
X135580256Y-102607738D01*
X135663008Y-102672147D01*
X135703821Y-102728857D01*
X135707496Y-102798630D01*
X135672864Y-102859313D01*
X135663014Y-102867848D01*
X135604400Y-102913469D01*
X135580257Y-102932261D01*
X135411833Y-103115217D01*
X135275826Y-103323393D01*
X135175936Y-103551118D01*
X135114892Y-103792175D01*
X135114890Y-103792187D01*
X135094357Y-104039994D01*
X135094357Y-104040005D01*
X135114890Y-104287812D01*
X135114892Y-104287824D01*
X135175936Y-104528881D01*
X135275826Y-104756606D01*
X135411833Y-104964782D01*
X135418786Y-104972335D01*
X135580256Y-105147738D01*
X135663008Y-105212147D01*
X135703821Y-105268857D01*
X135707496Y-105338630D01*
X135672864Y-105399313D01*
X135663014Y-105407848D01*
X135604400Y-105453469D01*
X135580257Y-105472261D01*
X135411833Y-105655217D01*
X135275826Y-105863393D01*
X135175936Y-106091118D01*
X135114892Y-106332175D01*
X135114890Y-106332187D01*
X135094357Y-106579994D01*
X135094357Y-106580005D01*
X135114890Y-106827812D01*
X135114892Y-106827824D01*
X135175936Y-107068881D01*
X135275826Y-107296606D01*
X135411833Y-107504782D01*
X135411836Y-107504785D01*
X135580256Y-107687738D01*
X135663008Y-107752147D01*
X135703821Y-107808857D01*
X135707496Y-107878630D01*
X135672864Y-107939313D01*
X135663014Y-107947848D01*
X135632839Y-107971335D01*
X135580255Y-108012262D01*
X135580252Y-108012265D01*
X135518374Y-108079483D01*
X135458487Y-108115474D01*
X135427145Y-108119500D01*
X134739399Y-108119500D01*
X134642756Y-108138724D01*
X134546111Y-108157947D01*
X134546105Y-108157949D01*
X134492778Y-108180037D01*
X134492778Y-108180038D01*
X134456138Y-108195215D01*
X134364033Y-108233366D01*
X134364023Y-108233371D01*
X134200163Y-108342859D01*
X134139630Y-108403393D01*
X134060805Y-108482218D01*
X134060802Y-108482221D01*
X127162221Y-115380802D01*
X127162218Y-115380805D01*
X127114166Y-115428857D01*
X127022859Y-115520163D01*
X126913371Y-115684023D01*
X126913364Y-115684036D01*
X126837950Y-115866104D01*
X126837947Y-115866114D01*
X126799500Y-116059400D01*
X126799500Y-116059403D01*
X126799500Y-127953541D01*
X126799500Y-127953543D01*
X126799499Y-127953543D01*
X126837947Y-128146829D01*
X126837950Y-128146839D01*
X126913364Y-128328907D01*
X126913371Y-128328920D01*
X127022860Y-128492781D01*
X127022863Y-128492785D01*
X127162214Y-128632136D01*
X127162218Y-128632139D01*
X127326079Y-128741628D01*
X127326092Y-128741635D01*
X127508160Y-128817049D01*
X127508165Y-128817051D01*
X127508169Y-128817051D01*
X127508170Y-128817052D01*
X127701456Y-128855500D01*
X127701459Y-128855500D01*
X127898543Y-128855500D01*
X128028582Y-128829632D01*
X128091835Y-128817051D01*
X128273914Y-128741632D01*
X128437782Y-128632139D01*
X128462319Y-128607601D01*
X128523640Y-128574117D01*
X128593332Y-128579100D01*
X128637680Y-128607601D01*
X128662215Y-128632136D01*
X128662219Y-128632140D01*
X128826079Y-128741628D01*
X128826092Y-128741635D01*
X129008160Y-128817049D01*
X129008165Y-128817051D01*
X129008169Y-128817051D01*
X129008170Y-128817052D01*
X129201456Y-128855500D01*
X129201459Y-128855500D01*
X129398543Y-128855500D01*
X129528582Y-128829632D01*
X129591835Y-128817051D01*
X129773914Y-128741632D01*
X129937782Y-128632139D01*
X130077139Y-128492782D01*
X130186632Y-128328914D01*
X130262051Y-128146835D01*
X130274632Y-128083582D01*
X130300500Y-127953543D01*
X130300500Y-116820782D01*
X130320185Y-116753743D01*
X130336819Y-116733101D01*
X134373102Y-112696819D01*
X134434425Y-112663334D01*
X134460783Y-112660500D01*
X135427145Y-112660500D01*
X135494184Y-112680185D01*
X135518374Y-112700517D01*
X135580252Y-112767734D01*
X135580256Y-112767738D01*
X135663008Y-112832147D01*
X135703821Y-112888857D01*
X135707496Y-112958630D01*
X135672864Y-113019313D01*
X135663014Y-113027848D01*
X135604400Y-113073469D01*
X135580257Y-113092261D01*
X135411833Y-113275217D01*
X135275826Y-113483393D01*
X135175936Y-113711118D01*
X135114892Y-113952175D01*
X135114890Y-113952187D01*
X135094357Y-114199994D01*
X135094357Y-114200005D01*
X135114890Y-114447812D01*
X135114892Y-114447824D01*
X135175936Y-114688881D01*
X135275826Y-114916606D01*
X135411833Y-115124782D01*
X135411836Y-115124785D01*
X135580256Y-115307738D01*
X135663008Y-115372147D01*
X135703821Y-115428857D01*
X135707496Y-115498630D01*
X135672864Y-115559313D01*
X135663014Y-115567848D01*
X135604400Y-115613469D01*
X135580257Y-115632261D01*
X135411833Y-115815217D01*
X135275826Y-116023393D01*
X135175936Y-116251118D01*
X135114892Y-116492175D01*
X135114890Y-116492187D01*
X135094357Y-116739994D01*
X135094357Y-116740005D01*
X135114890Y-116987812D01*
X135114892Y-116987824D01*
X135175936Y-117228881D01*
X135275826Y-117456606D01*
X135411833Y-117664782D01*
X135411836Y-117664785D01*
X135580256Y-117847738D01*
X135663008Y-117912147D01*
X135703821Y-117968857D01*
X135707496Y-118038630D01*
X135672864Y-118099313D01*
X135663014Y-118107848D01*
X135604400Y-118153469D01*
X135580257Y-118172261D01*
X135411833Y-118355217D01*
X135275826Y-118563393D01*
X135175936Y-118791118D01*
X135114892Y-119032175D01*
X135114890Y-119032187D01*
X135094357Y-119279994D01*
X135094357Y-119280005D01*
X135114890Y-119527812D01*
X135114892Y-119527824D01*
X135175936Y-119768881D01*
X135275826Y-119996606D01*
X135411833Y-120204782D01*
X135411836Y-120204785D01*
X135580256Y-120387738D01*
X135663008Y-120452147D01*
X135703821Y-120508857D01*
X135707496Y-120578630D01*
X135672864Y-120639313D01*
X135663014Y-120647848D01*
X135580256Y-120712262D01*
X135496046Y-120803738D01*
X135411833Y-120895217D01*
X135275826Y-121103393D01*
X135175936Y-121331118D01*
X135114892Y-121572175D01*
X135114890Y-121572187D01*
X135094357Y-121819994D01*
X135094357Y-121820005D01*
X135114890Y-122067812D01*
X135114892Y-122067824D01*
X135175936Y-122308881D01*
X135275826Y-122536606D01*
X135411833Y-122744782D01*
X135411836Y-122744785D01*
X135580256Y-122927738D01*
X135663008Y-122992147D01*
X135703821Y-123048857D01*
X135707496Y-123118630D01*
X135672864Y-123179313D01*
X135663014Y-123187848D01*
X135604400Y-123233469D01*
X135580257Y-123252261D01*
X135411833Y-123435217D01*
X135275826Y-123643393D01*
X135175936Y-123871118D01*
X135114892Y-124112175D01*
X135114890Y-124112187D01*
X135094357Y-124359994D01*
X135094357Y-124360005D01*
X135114890Y-124607812D01*
X135114892Y-124607824D01*
X135175936Y-124848881D01*
X135275826Y-125076606D01*
X135411833Y-125284782D01*
X135411836Y-125284785D01*
X135580256Y-125467738D01*
X135663008Y-125532147D01*
X135703821Y-125588857D01*
X135707496Y-125658630D01*
X135672864Y-125719313D01*
X135663014Y-125727848D01*
X135612056Y-125767511D01*
X135580257Y-125792261D01*
X135411833Y-125975217D01*
X135275826Y-126183393D01*
X135175936Y-126411118D01*
X135114892Y-126652175D01*
X135114890Y-126652187D01*
X135094357Y-126899994D01*
X135094357Y-126900005D01*
X135114890Y-127147812D01*
X135114892Y-127147824D01*
X135175936Y-127388881D01*
X135275826Y-127616606D01*
X135411833Y-127824782D01*
X135411836Y-127824785D01*
X135580256Y-128007738D01*
X135776491Y-128160474D01*
X135995190Y-128278828D01*
X136230386Y-128359571D01*
X136475665Y-128400500D01*
X136515708Y-128400500D01*
X136582747Y-128420185D01*
X136628502Y-128472989D01*
X136638446Y-128542147D01*
X136609421Y-128605703D01*
X136550643Y-128643477D01*
X136547835Y-128644265D01*
X136490418Y-128659649D01*
X136456112Y-128668842D01*
X136244123Y-128756650D01*
X136244109Y-128756657D01*
X136045382Y-128871392D01*
X135863338Y-129011081D01*
X135701081Y-129173338D01*
X135561392Y-129355382D01*
X135446657Y-129554109D01*
X135446650Y-129554123D01*
X135358842Y-129766112D01*
X135299453Y-129987759D01*
X135299451Y-129987770D01*
X135269500Y-130215258D01*
X135269500Y-130444741D01*
X135291192Y-130609500D01*
X135299452Y-130672238D01*
X135299453Y-130672240D01*
X135358842Y-130893887D01*
X135446650Y-131105876D01*
X135446657Y-131105890D01*
X135561392Y-131304617D01*
X135701081Y-131486661D01*
X135701089Y-131486670D01*
X135863330Y-131648911D01*
X135863338Y-131648918D01*
X136045382Y-131788607D01*
X136045385Y-131788608D01*
X136045388Y-131788611D01*
X136244112Y-131903344D01*
X136244117Y-131903346D01*
X136244123Y-131903349D01*
X136335480Y-131941190D01*
X136456113Y-131991158D01*
X136677762Y-132050548D01*
X136905266Y-132080500D01*
X136905273Y-132080500D01*
X137134727Y-132080500D01*
X137134734Y-132080500D01*
X137362238Y-132050548D01*
X137583887Y-131991158D01*
X137795888Y-131903344D01*
X137994612Y-131788611D01*
X138070014Y-131730752D01*
X138135182Y-131705558D01*
X138203627Y-131719596D01*
X138253617Y-131768409D01*
X138269500Y-131829128D01*
X138269500Y-132015649D01*
X138269500Y-132015651D01*
X138269499Y-132015651D01*
X138307947Y-132208937D01*
X138307950Y-132208947D01*
X138383364Y-132391015D01*
X138383371Y-132391028D01*
X138492859Y-132554888D01*
X138492860Y-132554889D01*
X138492861Y-132554890D01*
X138632218Y-132694247D01*
X138632219Y-132694247D01*
X138639286Y-132701314D01*
X138639285Y-132701314D01*
X138639288Y-132701316D01*
X139405752Y-133467781D01*
X139405753Y-133467782D01*
X139545110Y-133607139D01*
X139545111Y-133607140D01*
X139708971Y-133716628D01*
X139708984Y-133716635D01*
X139837725Y-133769961D01*
X139880636Y-133787735D01*
X139891056Y-133792051D01*
X139987704Y-133811275D01*
X140036027Y-133820887D01*
X140084350Y-133830500D01*
X140084351Y-133830500D01*
X168268542Y-133830500D01*
X168287870Y-133826655D01*
X168365188Y-133811275D01*
X168461836Y-133792051D01*
X168515165Y-133769961D01*
X168643914Y-133716632D01*
X168807782Y-133607139D01*
X168947139Y-133467782D01*
X168947140Y-133467779D01*
X168954206Y-133460714D01*
X168954208Y-133460710D01*
X169557048Y-132857870D01*
X180909500Y-132857870D01*
X180909501Y-132857876D01*
X180915908Y-132917483D01*
X180966202Y-133052328D01*
X180966206Y-133052335D01*
X181052452Y-133167544D01*
X181052455Y-133167547D01*
X181167664Y-133253793D01*
X181167671Y-133253797D01*
X181302517Y-133304091D01*
X181302516Y-133304091D01*
X181309444Y-133304835D01*
X181362127Y-133310500D01*
X183157872Y-133310499D01*
X183217483Y-133304091D01*
X183352331Y-133253796D01*
X183467546Y-133167546D01*
X183553796Y-133052331D01*
X183604091Y-132917483D01*
X183610500Y-132857873D01*
X183610499Y-131062128D01*
X183604091Y-131002517D01*
X183553796Y-130867669D01*
X183553795Y-130867668D01*
X183553793Y-130867664D01*
X183467547Y-130752455D01*
X183467544Y-130752452D01*
X183352335Y-130666206D01*
X183352328Y-130666202D01*
X183217482Y-130615908D01*
X183217483Y-130615908D01*
X183157883Y-130609501D01*
X183157881Y-130609500D01*
X183157873Y-130609500D01*
X183157864Y-130609500D01*
X181362129Y-130609500D01*
X181362123Y-130609501D01*
X181302516Y-130615908D01*
X181167671Y-130666202D01*
X181167664Y-130666206D01*
X181052455Y-130752452D01*
X181052452Y-130752455D01*
X180966206Y-130867664D01*
X180966202Y-130867671D01*
X180915908Y-131002517D01*
X180909501Y-131062116D01*
X180909501Y-131062123D01*
X180909500Y-131062135D01*
X180909500Y-132857870D01*
X169557048Y-132857870D01*
X177017050Y-125397870D01*
X178359500Y-125397870D01*
X178359501Y-125397876D01*
X178365908Y-125457483D01*
X178416202Y-125592328D01*
X178416206Y-125592335D01*
X178502452Y-125707544D01*
X178502455Y-125707547D01*
X178617664Y-125793793D01*
X178617671Y-125793797D01*
X178752517Y-125844091D01*
X178752516Y-125844091D01*
X178759444Y-125844835D01*
X178812127Y-125850500D01*
X180607872Y-125850499D01*
X180667483Y-125844091D01*
X180802331Y-125793796D01*
X180917546Y-125707546D01*
X181003796Y-125592331D01*
X181052810Y-125460916D01*
X181094681Y-125404984D01*
X181160145Y-125380566D01*
X181228418Y-125395417D01*
X181256673Y-125416569D01*
X181378599Y-125538495D01*
X181468394Y-125601370D01*
X181572165Y-125674032D01*
X181572167Y-125674033D01*
X181572170Y-125674035D01*
X181786337Y-125773903D01*
X182014592Y-125835063D01*
X182191034Y-125850500D01*
X182249999Y-125855659D01*
X182250000Y-125855659D01*
X182250001Y-125855659D01*
X182308966Y-125850500D01*
X182485408Y-125835063D01*
X182713663Y-125773903D01*
X182927830Y-125674035D01*
X183121401Y-125538495D01*
X183288495Y-125371401D01*
X183424035Y-125177830D01*
X183523903Y-124963663D01*
X183585063Y-124735408D01*
X183605659Y-124500000D01*
X183585063Y-124264592D01*
X183523903Y-124036337D01*
X183424035Y-123822171D01*
X183288495Y-123628599D01*
X183288494Y-123628597D01*
X183121402Y-123461506D01*
X183121395Y-123461501D01*
X182927834Y-123325967D01*
X182927830Y-123325965D01*
X182927828Y-123325964D01*
X182713663Y-123226097D01*
X182713659Y-123226096D01*
X182713655Y-123226094D01*
X182485413Y-123164938D01*
X182485403Y-123164936D01*
X182250001Y-123144341D01*
X182249999Y-123144341D01*
X182014596Y-123164936D01*
X182014586Y-123164938D01*
X181786344Y-123226094D01*
X181786335Y-123226098D01*
X181572171Y-123325964D01*
X181572169Y-123325965D01*
X181378600Y-123461503D01*
X181256673Y-123583430D01*
X181195350Y-123616914D01*
X181125658Y-123611930D01*
X181069725Y-123570058D01*
X181052810Y-123539081D01*
X181003797Y-123407671D01*
X181003793Y-123407664D01*
X180917547Y-123292455D01*
X180917544Y-123292452D01*
X180802335Y-123206206D01*
X180802328Y-123206202D01*
X180667482Y-123155908D01*
X180667483Y-123155908D01*
X180607883Y-123149501D01*
X180607881Y-123149500D01*
X180607873Y-123149500D01*
X180607864Y-123149500D01*
X178812129Y-123149500D01*
X178812123Y-123149501D01*
X178752516Y-123155908D01*
X178617671Y-123206202D01*
X178617664Y-123206206D01*
X178502455Y-123292452D01*
X178502452Y-123292455D01*
X178416206Y-123407664D01*
X178416202Y-123407671D01*
X178365908Y-123542517D01*
X178359501Y-123602116D01*
X178359500Y-123602135D01*
X178359500Y-125397870D01*
X177017050Y-125397870D01*
X177277139Y-125137781D01*
X177386631Y-124973914D01*
X177462051Y-124791836D01*
X177500500Y-124598540D01*
X177500500Y-124401460D01*
X177500500Y-124401457D01*
X177500499Y-124401455D01*
X177462052Y-124208171D01*
X177462051Y-124208164D01*
X177386631Y-124026086D01*
X177386629Y-124026083D01*
X177386627Y-124026079D01*
X177277139Y-123862219D01*
X177277136Y-123862215D01*
X177137784Y-123722863D01*
X177137780Y-123722860D01*
X176973920Y-123613372D01*
X176973910Y-123613367D01*
X176791836Y-123537949D01*
X176791828Y-123537947D01*
X176598543Y-123499500D01*
X176598540Y-123499500D01*
X176401460Y-123499500D01*
X176401457Y-123499500D01*
X176208171Y-123537947D01*
X176208163Y-123537949D01*
X176026089Y-123613367D01*
X176026079Y-123613372D01*
X175862219Y-123722860D01*
X175862215Y-123722863D01*
X167791899Y-131793181D01*
X167730576Y-131826666D01*
X167704218Y-131829500D01*
X162805443Y-131829500D01*
X162738404Y-131809815D01*
X162692649Y-131757011D01*
X162682705Y-131687853D01*
X162711730Y-131624297D01*
X162717762Y-131617819D01*
X162848911Y-131486670D01*
X162848914Y-131486665D01*
X162848919Y-131486661D01*
X162988611Y-131304612D01*
X163103344Y-131105888D01*
X163191158Y-130893887D01*
X163250548Y-130672238D01*
X163280500Y-130444734D01*
X163280500Y-130215266D01*
X163250548Y-129987762D01*
X163191158Y-129766113D01*
X163141190Y-129645480D01*
X163103349Y-129554123D01*
X163103346Y-129554117D01*
X163103344Y-129554112D01*
X162988611Y-129355388D01*
X162988608Y-129355385D01*
X162988607Y-129355382D01*
X162848918Y-129173338D01*
X162848911Y-129173330D01*
X162686670Y-129011089D01*
X162686661Y-129011081D01*
X162504617Y-128871392D01*
X162305890Y-128756657D01*
X162305876Y-128756650D01*
X162093887Y-128668842D01*
X162002197Y-128644274D01*
X161942538Y-128607910D01*
X161912009Y-128545063D01*
X161920304Y-128475688D01*
X161964789Y-128421810D01*
X162031341Y-128400535D01*
X162034292Y-128400500D01*
X162124335Y-128400500D01*
X162369614Y-128359571D01*
X162604810Y-128278828D01*
X162823509Y-128160474D01*
X163019744Y-128007738D01*
X163188164Y-127824785D01*
X163324173Y-127616607D01*
X163424063Y-127388881D01*
X163485108Y-127147821D01*
X163491891Y-127065965D01*
X163505643Y-126900005D01*
X163505643Y-126899994D01*
X163485109Y-126652187D01*
X163485107Y-126652175D01*
X163424063Y-126411118D01*
X163324173Y-126183393D01*
X163188166Y-125975217D01*
X163151514Y-125935403D01*
X163019744Y-125792262D01*
X162936991Y-125727852D01*
X162896179Y-125671143D01*
X162892504Y-125601370D01*
X162927136Y-125540687D01*
X162936985Y-125532151D01*
X163019744Y-125467738D01*
X163188164Y-125284785D01*
X163324173Y-125076607D01*
X163424063Y-124848881D01*
X163485108Y-124607821D01*
X163491891Y-124525965D01*
X163505643Y-124360005D01*
X163505643Y-124359994D01*
X163485109Y-124112187D01*
X163485107Y-124112175D01*
X163424063Y-123871118D01*
X163324173Y-123643393D01*
X163188166Y-123435217D01*
X163087591Y-123325964D01*
X163019744Y-123252262D01*
X162936991Y-123187852D01*
X162896179Y-123131143D01*
X162892504Y-123061370D01*
X162927136Y-123000687D01*
X162936985Y-122992151D01*
X163019744Y-122927738D01*
X163188164Y-122744785D01*
X163324173Y-122536607D01*
X163424063Y-122308881D01*
X163435182Y-122264972D01*
X163470721Y-122204817D01*
X163533141Y-122173424D01*
X163602625Y-122180762D01*
X163602841Y-122180851D01*
X163678165Y-122212052D01*
X163839389Y-122244121D01*
X163871457Y-122250499D01*
X163871458Y-122250500D01*
X163871459Y-122250500D01*
X182348543Y-122250500D01*
X182502828Y-122219810D01*
X182541835Y-122212051D01*
X182723914Y-122136632D01*
X182887782Y-122027139D01*
X183027139Y-121887782D01*
X183136632Y-121723914D01*
X183212051Y-121541835D01*
X183234639Y-121428277D01*
X183250500Y-121348543D01*
X183250500Y-121151456D01*
X183212052Y-120958170D01*
X183212051Y-120958169D01*
X183212051Y-120958165D01*
X183212049Y-120958160D01*
X183136635Y-120776092D01*
X183136628Y-120776079D01*
X183027139Y-120612218D01*
X183027136Y-120612214D01*
X182887785Y-120472863D01*
X182887781Y-120472860D01*
X182723920Y-120363371D01*
X182723907Y-120363364D01*
X182541839Y-120287950D01*
X182541829Y-120287947D01*
X182348543Y-120249500D01*
X182348541Y-120249500D01*
X164435783Y-120249500D01*
X164368744Y-120229815D01*
X164348102Y-120213181D01*
X164347102Y-120212181D01*
X164313617Y-120150858D01*
X164318601Y-120081166D01*
X164360473Y-120025233D01*
X164425937Y-120000816D01*
X164434783Y-120000500D01*
X180098543Y-120000500D01*
X180228582Y-119974632D01*
X180291835Y-119962051D01*
X180473914Y-119886632D01*
X180637782Y-119777139D01*
X180777139Y-119637782D01*
X180886632Y-119473914D01*
X180962051Y-119291835D01*
X181000500Y-119098541D01*
X181000500Y-118901459D01*
X181000500Y-118901456D01*
X180962052Y-118708170D01*
X180962051Y-118708169D01*
X180962051Y-118708165D01*
X180902085Y-118563393D01*
X180886635Y-118526092D01*
X180886628Y-118526079D01*
X180777139Y-118362218D01*
X180777136Y-118362214D01*
X180637785Y-118222863D01*
X180637781Y-118222860D01*
X180473920Y-118113371D01*
X180473907Y-118113364D01*
X180291839Y-118037950D01*
X180291829Y-118037947D01*
X180098543Y-117999500D01*
X180098541Y-117999500D01*
X164725783Y-117999500D01*
X164658744Y-117979815D01*
X164638102Y-117963181D01*
X163539342Y-116864422D01*
X163505857Y-116803099D01*
X163503447Y-116766499D01*
X163505643Y-116740003D01*
X163505643Y-116739995D01*
X163485109Y-116492187D01*
X163485107Y-116492175D01*
X163424063Y-116251118D01*
X163324173Y-116023393D01*
X163278539Y-115953544D01*
X164799500Y-115953544D01*
X164837947Y-116146828D01*
X164837949Y-116146836D01*
X164913367Y-116328910D01*
X164913372Y-116328920D01*
X165022860Y-116492780D01*
X165022863Y-116492784D01*
X165162215Y-116632136D01*
X165162219Y-116632139D01*
X165326079Y-116741627D01*
X165326083Y-116741629D01*
X165326086Y-116741631D01*
X165508164Y-116817051D01*
X165701455Y-116855499D01*
X165701458Y-116855500D01*
X165701460Y-116855500D01*
X165898542Y-116855500D01*
X165898543Y-116855499D01*
X166091836Y-116817051D01*
X166273914Y-116741631D01*
X166437781Y-116632139D01*
X169554920Y-113515000D01*
X172874341Y-113515000D01*
X172894936Y-113750403D01*
X172894938Y-113750413D01*
X172956094Y-113978655D01*
X172956096Y-113978659D01*
X172956097Y-113978663D01*
X173055965Y-114192830D01*
X173055967Y-114192834D01*
X173164281Y-114347521D01*
X173191501Y-114386396D01*
X173191506Y-114386402D01*
X173313430Y-114508326D01*
X173346915Y-114569649D01*
X173341931Y-114639341D01*
X173300059Y-114695274D01*
X173269083Y-114712189D01*
X173137669Y-114761203D01*
X173137664Y-114761206D01*
X173022455Y-114847452D01*
X173022452Y-114847455D01*
X172936206Y-114962664D01*
X172936202Y-114962671D01*
X172885908Y-115097517D01*
X172882977Y-115124785D01*
X172879501Y-115157123D01*
X172879500Y-115157135D01*
X172879500Y-116952870D01*
X172879501Y-116952876D01*
X172885908Y-117012483D01*
X172936202Y-117147328D01*
X172936206Y-117147335D01*
X173022452Y-117262544D01*
X173022455Y-117262547D01*
X173137664Y-117348793D01*
X173137671Y-117348797D01*
X173272517Y-117399091D01*
X173272516Y-117399091D01*
X173279444Y-117399835D01*
X173332127Y-117405500D01*
X175127872Y-117405499D01*
X175187483Y-117399091D01*
X175322331Y-117348796D01*
X175437546Y-117262546D01*
X175523796Y-117147331D01*
X175574091Y-117012483D01*
X175580500Y-116952873D01*
X175580499Y-115157128D01*
X175574091Y-115097517D01*
X175523796Y-114962669D01*
X175523795Y-114962668D01*
X175523793Y-114962664D01*
X175437547Y-114847455D01*
X175437544Y-114847452D01*
X175322335Y-114761206D01*
X175322328Y-114761202D01*
X175190917Y-114712189D01*
X175134983Y-114670318D01*
X175110566Y-114604853D01*
X175125418Y-114536580D01*
X175146563Y-114508332D01*
X175268495Y-114386401D01*
X175404035Y-114192830D01*
X175503903Y-113978663D01*
X175565063Y-113750408D01*
X175585659Y-113515000D01*
X175565063Y-113279592D01*
X175503903Y-113051337D01*
X175404035Y-112837171D01*
X175400517Y-112832146D01*
X175268494Y-112643597D01*
X175101402Y-112476506D01*
X175101396Y-112476501D01*
X174915842Y-112346575D01*
X174872217Y-112291998D01*
X174865023Y-112222500D01*
X174896546Y-112160145D01*
X174915842Y-112143425D01*
X174972792Y-112103548D01*
X175101401Y-112013495D01*
X175268495Y-111846401D01*
X175404035Y-111652830D01*
X175503903Y-111438663D01*
X175565063Y-111210408D01*
X175585659Y-110975000D01*
X175565063Y-110739592D01*
X175517790Y-110563163D01*
X175503905Y-110511344D01*
X175503904Y-110511343D01*
X175503903Y-110511337D01*
X175404035Y-110297171D01*
X175400517Y-110292146D01*
X175268494Y-110103597D01*
X175101402Y-109936506D01*
X175101396Y-109936501D01*
X174915842Y-109806575D01*
X174872217Y-109751998D01*
X174865023Y-109682500D01*
X174896546Y-109620145D01*
X174915842Y-109603425D01*
X174972792Y-109563548D01*
X175101401Y-109473495D01*
X175268495Y-109306401D01*
X175404035Y-109112830D01*
X175503903Y-108898663D01*
X175565063Y-108670408D01*
X175585659Y-108435000D01*
X175565063Y-108199592D01*
X175518626Y-108026285D01*
X175503905Y-107971344D01*
X175503904Y-107971343D01*
X175503903Y-107971337D01*
X175404035Y-107757171D01*
X175400517Y-107752146D01*
X175268494Y-107563597D01*
X175101402Y-107396506D01*
X175101396Y-107396501D01*
X174915842Y-107266575D01*
X174872217Y-107211998D01*
X174865023Y-107142500D01*
X174896546Y-107080145D01*
X174915842Y-107063425D01*
X174972792Y-107023548D01*
X175101401Y-106933495D01*
X175268495Y-106766401D01*
X175404035Y-106572830D01*
X175503903Y-106358663D01*
X175565063Y-106130408D01*
X175585659Y-105895000D01*
X175565063Y-105659592D01*
X175503903Y-105431337D01*
X175404035Y-105217171D01*
X175400517Y-105212146D01*
X175268494Y-105023597D01*
X175101402Y-104856506D01*
X175101395Y-104856501D01*
X174907834Y-104720967D01*
X174907830Y-104720965D01*
X174907828Y-104720964D01*
X174693663Y-104621097D01*
X174693659Y-104621096D01*
X174693655Y-104621094D01*
X174465413Y-104559938D01*
X174465403Y-104559936D01*
X174230001Y-104539341D01*
X174229999Y-104539341D01*
X173994596Y-104559936D01*
X173994586Y-104559938D01*
X173766344Y-104621094D01*
X173766335Y-104621098D01*
X173552171Y-104720964D01*
X173552169Y-104720965D01*
X173358597Y-104856505D01*
X173191505Y-105023597D01*
X173055965Y-105217169D01*
X173055964Y-105217171D01*
X172956098Y-105431335D01*
X172956094Y-105431344D01*
X172894938Y-105659586D01*
X172894936Y-105659596D01*
X172874341Y-105894999D01*
X172874341Y-105895000D01*
X172894936Y-106130403D01*
X172894938Y-106130413D01*
X172956094Y-106358655D01*
X172956096Y-106358659D01*
X172956097Y-106358663D01*
X173055965Y-106572830D01*
X173055967Y-106572834D01*
X173191501Y-106766395D01*
X173191506Y-106766402D01*
X173358597Y-106933493D01*
X173358603Y-106933498D01*
X173544158Y-107063425D01*
X173587783Y-107118002D01*
X173594977Y-107187500D01*
X173563454Y-107249855D01*
X173544158Y-107266575D01*
X173358597Y-107396505D01*
X173191505Y-107563597D01*
X173055965Y-107757169D01*
X173055964Y-107757171D01*
X172956098Y-107971335D01*
X172956094Y-107971344D01*
X172894938Y-108199586D01*
X172894936Y-108199596D01*
X172874341Y-108434999D01*
X172874341Y-108435000D01*
X172894936Y-108670403D01*
X172894938Y-108670413D01*
X172956094Y-108898655D01*
X172956096Y-108898659D01*
X172956097Y-108898663D01*
X172984699Y-108959999D01*
X173055965Y-109112830D01*
X173055967Y-109112834D01*
X173191501Y-109306395D01*
X173191506Y-109306402D01*
X173358597Y-109473493D01*
X173358603Y-109473498D01*
X173544158Y-109603425D01*
X173587783Y-109658002D01*
X173594977Y-109727500D01*
X173563454Y-109789855D01*
X173544158Y-109806575D01*
X173358597Y-109936505D01*
X173191505Y-110103597D01*
X173055965Y-110297169D01*
X173055964Y-110297171D01*
X172956098Y-110511335D01*
X172956094Y-110511344D01*
X172894938Y-110739586D01*
X172894936Y-110739596D01*
X172874341Y-110974999D01*
X172874341Y-110975000D01*
X172894936Y-111210403D01*
X172894938Y-111210413D01*
X172956094Y-111438655D01*
X172956096Y-111438659D01*
X172956097Y-111438663D01*
X173015038Y-111565062D01*
X173055965Y-111652830D01*
X173055967Y-111652834D01*
X173191501Y-111846395D01*
X173191506Y-111846402D01*
X173358597Y-112013493D01*
X173358603Y-112013498D01*
X173544158Y-112143425D01*
X173587783Y-112198002D01*
X173594977Y-112267500D01*
X173563454Y-112329855D01*
X173544158Y-112346575D01*
X173358597Y-112476505D01*
X173191505Y-112643597D01*
X173055965Y-112837169D01*
X173055964Y-112837171D01*
X172956098Y-113051335D01*
X172956094Y-113051344D01*
X172894938Y-113279586D01*
X172894936Y-113279596D01*
X172874341Y-113514999D01*
X172874341Y-113515000D01*
X169554920Y-113515000D01*
X171577139Y-111492781D01*
X171686631Y-111328914D01*
X171762051Y-111146836D01*
X171800500Y-110953540D01*
X171800500Y-110756460D01*
X171800500Y-110756457D01*
X171800499Y-110756455D01*
X171762051Y-110563164D01*
X171686631Y-110381086D01*
X171686629Y-110381083D01*
X171686627Y-110381079D01*
X171577139Y-110217219D01*
X171577136Y-110217215D01*
X171437784Y-110077863D01*
X171437780Y-110077860D01*
X171273920Y-109968372D01*
X171273910Y-109968367D01*
X171091836Y-109892949D01*
X171091828Y-109892947D01*
X170898543Y-109854500D01*
X170898540Y-109854500D01*
X170701460Y-109854500D01*
X170701457Y-109854500D01*
X170508171Y-109892947D01*
X170508163Y-109892949D01*
X170326089Y-109968367D01*
X170326079Y-109968372D01*
X170162219Y-110077860D01*
X170162215Y-110077863D01*
X165022863Y-115217215D01*
X165022860Y-115217219D01*
X164913372Y-115381079D01*
X164913367Y-115381089D01*
X164837949Y-115563163D01*
X164837947Y-115563171D01*
X164799500Y-115756455D01*
X164799500Y-115953544D01*
X163278539Y-115953544D01*
X163188166Y-115815217D01*
X163134076Y-115756460D01*
X163019744Y-115632262D01*
X162936991Y-115567852D01*
X162896179Y-115511143D01*
X162892504Y-115441370D01*
X162927136Y-115380687D01*
X162936985Y-115372151D01*
X163019744Y-115307738D01*
X163188164Y-115124785D01*
X163324173Y-114916607D01*
X163424063Y-114688881D01*
X163485108Y-114447821D01*
X163485109Y-114447812D01*
X163505643Y-114200005D01*
X163505643Y-114199994D01*
X163485109Y-113952187D01*
X163485107Y-113952175D01*
X163424063Y-113711118D01*
X163324173Y-113483393D01*
X163188166Y-113275217D01*
X163166557Y-113251744D01*
X163019744Y-113092262D01*
X162936991Y-113027852D01*
X162896179Y-112971143D01*
X162892504Y-112901370D01*
X162927136Y-112840687D01*
X162936985Y-112832151D01*
X163019744Y-112767738D01*
X163188164Y-112584785D01*
X163324173Y-112376607D01*
X163424063Y-112148881D01*
X163485108Y-111907821D01*
X163485109Y-111907812D01*
X163505643Y-111660004D01*
X163505643Y-111659995D01*
X163503447Y-111633498D01*
X163517527Y-111565062D01*
X163539339Y-111535579D01*
X169437778Y-105637141D01*
X169437782Y-105637139D01*
X169577139Y-105497782D01*
X169686632Y-105333914D01*
X169762051Y-105151835D01*
X169762051Y-105151832D01*
X169762053Y-105151828D01*
X169776440Y-105079501D01*
X169800499Y-104958544D01*
X169800500Y-104958541D01*
X169800500Y-103256456D01*
X169762052Y-103063170D01*
X169762051Y-103063169D01*
X169762051Y-103063165D01*
X169707830Y-102932262D01*
X169686635Y-102881092D01*
X169686628Y-102881079D01*
X169577139Y-102717218D01*
X169577136Y-102717214D01*
X169437785Y-102577863D01*
X169437781Y-102577860D01*
X169273920Y-102468371D01*
X169273907Y-102468364D01*
X169091839Y-102392950D01*
X169091829Y-102392947D01*
X168898543Y-102354500D01*
X168898541Y-102354500D01*
X168701459Y-102354500D01*
X168701457Y-102354500D01*
X168508170Y-102392947D01*
X168508160Y-102392950D01*
X168326092Y-102468364D01*
X168326079Y-102468371D01*
X168162218Y-102577860D01*
X168162214Y-102577863D01*
X168022863Y-102717214D01*
X168022860Y-102717218D01*
X167913371Y-102881079D01*
X167913364Y-102881092D01*
X167837950Y-103063160D01*
X167837947Y-103063170D01*
X167799500Y-103256456D01*
X167799500Y-104394217D01*
X167779815Y-104461256D01*
X167763181Y-104481898D01*
X163610295Y-108634783D01*
X163548972Y-108668268D01*
X163479280Y-108663284D01*
X163423347Y-108621412D01*
X163409058Y-108596912D01*
X163324173Y-108403393D01*
X163188166Y-108195217D01*
X163081625Y-108079483D01*
X163019744Y-108012262D01*
X162936991Y-107947852D01*
X162896179Y-107891143D01*
X162892504Y-107821370D01*
X162927136Y-107760687D01*
X162936985Y-107752151D01*
X163019744Y-107687738D01*
X163188164Y-107504785D01*
X163324173Y-107296607D01*
X163424063Y-107068881D01*
X163485108Y-106827821D01*
X163485109Y-106827812D01*
X163505643Y-106580005D01*
X163505643Y-106579994D01*
X163485109Y-106332187D01*
X163485107Y-106332175D01*
X163424063Y-106091118D01*
X163324173Y-105863393D01*
X163188166Y-105655217D01*
X163166557Y-105631744D01*
X163019744Y-105472262D01*
X162936991Y-105407852D01*
X162896179Y-105351143D01*
X162892504Y-105281370D01*
X162927136Y-105220687D01*
X162936985Y-105212151D01*
X163019744Y-105147738D01*
X163188164Y-104964785D01*
X163324173Y-104756607D01*
X163424063Y-104528881D01*
X163485108Y-104287821D01*
X163505643Y-104040000D01*
X163500414Y-103976901D01*
X163485109Y-103792187D01*
X163485107Y-103792175D01*
X163424063Y-103551118D01*
X163324173Y-103323393D01*
X163188166Y-103115217D01*
X163140253Y-103063170D01*
X163019744Y-102932262D01*
X162936991Y-102867852D01*
X162896179Y-102811143D01*
X162892504Y-102741370D01*
X162927136Y-102680687D01*
X162936985Y-102672151D01*
X163019744Y-102607738D01*
X163188164Y-102424785D01*
X163324173Y-102216607D01*
X163424063Y-101988881D01*
X163485108Y-101747821D01*
X163505643Y-101500000D01*
X163485108Y-101252179D01*
X163434185Y-101051088D01*
X163424063Y-101011118D01*
X163324173Y-100783393D01*
X163188166Y-100575217D01*
X163083988Y-100462050D01*
X163019744Y-100392262D01*
X162936991Y-100327852D01*
X162896179Y-100271143D01*
X162892504Y-100201370D01*
X162927136Y-100140687D01*
X162936985Y-100132151D01*
X163019744Y-100067738D01*
X163188164Y-99884785D01*
X163324173Y-99676607D01*
X163424063Y-99448881D01*
X163485108Y-99207821D01*
X163505643Y-98960000D01*
X163497540Y-98862215D01*
X163485109Y-98712187D01*
X163485107Y-98712175D01*
X163424063Y-98471118D01*
X163324173Y-98243393D01*
X163188166Y-98035217D01*
X163166557Y-98011744D01*
X163019744Y-97852262D01*
X162936991Y-97787852D01*
X162896179Y-97731143D01*
X162892504Y-97661370D01*
X162927136Y-97600687D01*
X162936985Y-97592151D01*
X163019744Y-97527738D01*
X163188164Y-97344785D01*
X163324173Y-97136607D01*
X163424063Y-96908881D01*
X163485108Y-96667821D01*
X163505643Y-96420000D01*
X163485108Y-96172179D01*
X163424063Y-95931119D01*
X163324173Y-95703393D01*
X163188166Y-95495217D01*
X163088205Y-95386631D01*
X163019744Y-95312262D01*
X162823509Y-95159526D01*
X162823507Y-95159525D01*
X162823506Y-95159524D01*
X162604811Y-95041172D01*
X162604802Y-95041169D01*
X162369616Y-94960429D01*
X162124335Y-94919500D01*
X161875665Y-94919500D01*
X161630383Y-94960429D01*
X161395197Y-95041169D01*
X161395188Y-95041172D01*
X161176493Y-95159524D01*
X160980257Y-95312261D01*
X160811833Y-95495217D01*
X160675826Y-95703393D01*
X160575936Y-95931118D01*
X160514892Y-96172175D01*
X160514890Y-96172187D01*
X160494357Y-96419994D01*
X160494357Y-96420005D01*
X160514890Y-96667812D01*
X160514892Y-96667824D01*
X160575936Y-96908881D01*
X160675826Y-97136606D01*
X160811833Y-97344782D01*
X160811836Y-97344785D01*
X160980256Y-97527738D01*
X161063008Y-97592147D01*
X161103821Y-97648857D01*
X161107496Y-97718630D01*
X161072864Y-97779313D01*
X161063014Y-97787848D01*
X161004400Y-97833469D01*
X160980257Y-97852261D01*
X160811833Y-98035217D01*
X160675826Y-98243393D01*
X160575936Y-98471118D01*
X160514892Y-98712175D01*
X160514890Y-98712187D01*
X160494357Y-98959994D01*
X160494357Y-98960005D01*
X160514890Y-99207812D01*
X160514892Y-99207824D01*
X160575936Y-99448881D01*
X160675826Y-99676606D01*
X160811833Y-99884782D01*
X160811836Y-99884785D01*
X160980256Y-100067738D01*
X161063008Y-100132147D01*
X161103821Y-100188857D01*
X161107496Y-100258630D01*
X161072864Y-100319313D01*
X161063014Y-100327848D01*
X161004400Y-100373469D01*
X160980257Y-100392261D01*
X160811833Y-100575217D01*
X160675826Y-100783393D01*
X160590941Y-100976912D01*
X160545985Y-101030398D01*
X160479249Y-101051088D01*
X160411921Y-101032413D01*
X160389704Y-101014783D01*
X148442101Y-89067181D01*
X148408616Y-89005858D01*
X148413600Y-88936166D01*
X148455472Y-88880233D01*
X148520936Y-88855816D01*
X148529782Y-88855500D01*
X158049218Y-88855500D01*
X158116257Y-88875185D01*
X158136899Y-88891819D01*
X160460657Y-91215577D01*
X160494142Y-91276900D01*
X160496553Y-91313495D01*
X160494357Y-91340002D01*
X160494357Y-91340005D01*
X160514890Y-91587812D01*
X160514892Y-91587824D01*
X160575936Y-91828881D01*
X160675826Y-92056606D01*
X160811833Y-92264782D01*
X160811836Y-92264785D01*
X160980256Y-92447738D01*
X161176491Y-92600474D01*
X161395190Y-92718828D01*
X161630386Y-92799571D01*
X161875665Y-92840500D01*
X162034217Y-92840500D01*
X162101256Y-92860185D01*
X162121898Y-92876819D01*
X162877215Y-93632137D01*
X162877219Y-93632140D01*
X163041079Y-93741628D01*
X163041085Y-93741631D01*
X163041086Y-93741632D01*
X163223165Y-93817052D01*
X163416455Y-93855500D01*
X163416458Y-93855501D01*
X163416460Y-93855501D01*
X163619655Y-93855501D01*
X163619675Y-93855500D01*
X178398543Y-93855500D01*
X178532216Y-93828910D01*
X178591835Y-93817051D01*
X178773914Y-93741632D01*
X178937782Y-93632139D01*
X179077139Y-93492782D01*
X179186632Y-93328914D01*
X179262051Y-93146835D01*
X179300500Y-92953541D01*
X179300500Y-92756459D01*
X179300500Y-92756456D01*
X179262052Y-92563170D01*
X179262051Y-92563169D01*
X179262051Y-92563165D01*
X179214240Y-92447738D01*
X179186635Y-92381092D01*
X179186628Y-92381079D01*
X179077140Y-92217219D01*
X179077139Y-92217218D01*
X179052601Y-92192680D01*
X179019117Y-92131360D01*
X179024100Y-92061668D01*
X179052601Y-92017319D01*
X179077139Y-91992782D01*
X179186632Y-91828914D01*
X179262051Y-91646835D01*
X179300500Y-91453541D01*
X179300500Y-91256459D01*
X179300500Y-91256456D01*
X179262052Y-91063170D01*
X179262051Y-91063169D01*
X179262051Y-91063165D01*
X179262049Y-91063160D01*
X179186635Y-90881092D01*
X179186628Y-90881079D01*
X179077139Y-90717218D01*
X179077136Y-90717214D01*
X178937785Y-90577863D01*
X178937781Y-90577860D01*
X178773920Y-90468371D01*
X178773907Y-90468364D01*
X178591839Y-90392950D01*
X178591829Y-90392947D01*
X178398543Y-90354500D01*
X178398541Y-90354500D01*
X177471162Y-90354500D01*
X177446970Y-90352117D01*
X177383543Y-90339500D01*
X177383541Y-90339500D01*
X163172855Y-90339500D01*
X163105816Y-90319815D01*
X163081625Y-90299483D01*
X163033270Y-90246955D01*
X163002348Y-90184300D01*
X163000500Y-90162972D01*
X163000500Y-89599685D01*
X163020185Y-89532646D01*
X163072989Y-89486891D01*
X163142147Y-89476947D01*
X163148658Y-89478061D01*
X163164812Y-89481275D01*
X163213135Y-89490887D01*
X163261458Y-89500500D01*
X163261459Y-89500500D01*
X165098543Y-89500500D01*
X165228582Y-89474632D01*
X165291835Y-89462051D01*
X165473914Y-89386632D01*
X165637782Y-89277139D01*
X165777139Y-89137782D01*
X165886632Y-88973914D01*
X165962051Y-88791835D01*
X166000500Y-88598541D01*
X166000500Y-88401459D01*
X166000500Y-88401456D01*
X165962052Y-88208170D01*
X165962051Y-88208169D01*
X165962051Y-88208165D01*
X165962049Y-88208160D01*
X165886635Y-88026092D01*
X165886628Y-88026079D01*
X165777139Y-87862218D01*
X165777136Y-87862214D01*
X165637785Y-87722863D01*
X165637781Y-87722860D01*
X165473920Y-87613371D01*
X165473907Y-87613364D01*
X165291839Y-87537950D01*
X165291829Y-87537947D01*
X165098543Y-87499500D01*
X165098541Y-87499500D01*
X163825782Y-87499500D01*
X163758743Y-87479815D01*
X163738101Y-87463181D01*
X161611060Y-85336140D01*
X161577575Y-85274817D01*
X161582559Y-85205125D01*
X161624431Y-85149192D01*
X161682554Y-85125520D01*
X161872238Y-85100548D01*
X162093887Y-85041158D01*
X162305888Y-84953344D01*
X162504612Y-84838611D01*
X162686661Y-84698919D01*
X162686665Y-84698914D01*
X162686670Y-84698911D01*
X162848911Y-84536670D01*
X162848914Y-84536665D01*
X162848919Y-84536661D01*
X162988611Y-84354612D01*
X163103344Y-84155888D01*
X163191158Y-83943887D01*
X163250548Y-83722238D01*
X163280500Y-83494734D01*
X163280500Y-83265266D01*
X163250548Y-83037762D01*
X163247128Y-83025000D01*
X176749341Y-83025000D01*
X176769936Y-83260403D01*
X176769938Y-83260413D01*
X176831094Y-83488655D01*
X176831096Y-83488659D01*
X176831097Y-83488663D01*
X176911004Y-83660023D01*
X176930965Y-83702830D01*
X176930967Y-83702834D01*
X177002496Y-83804987D01*
X177066505Y-83896401D01*
X177233599Y-84063495D01*
X177330384Y-84131265D01*
X177427165Y-84199032D01*
X177427167Y-84199033D01*
X177427170Y-84199035D01*
X177641337Y-84298903D01*
X177869592Y-84360063D01*
X178046034Y-84375500D01*
X178104999Y-84380659D01*
X178105000Y-84380659D01*
X178105001Y-84380659D01*
X178163966Y-84375500D01*
X178340408Y-84360063D01*
X178568663Y-84298903D01*
X178782830Y-84199035D01*
X178976401Y-84063495D01*
X179143495Y-83896401D01*
X179273425Y-83710842D01*
X179328002Y-83667217D01*
X179397500Y-83660023D01*
X179459855Y-83691546D01*
X179476575Y-83710842D01*
X179606500Y-83896395D01*
X179606505Y-83896401D01*
X179773599Y-84063495D01*
X179870384Y-84131265D01*
X179967165Y-84199032D01*
X179967167Y-84199033D01*
X179967170Y-84199035D01*
X180181337Y-84298903D01*
X180409592Y-84360063D01*
X180586034Y-84375500D01*
X180644999Y-84380659D01*
X180645000Y-84380659D01*
X180645001Y-84380659D01*
X180703966Y-84375500D01*
X180880408Y-84360063D01*
X181108663Y-84298903D01*
X181322830Y-84199035D01*
X181516401Y-84063495D01*
X181683495Y-83896401D01*
X181813425Y-83710842D01*
X181868002Y-83667217D01*
X181937500Y-83660023D01*
X181999855Y-83691546D01*
X182016575Y-83710842D01*
X182146500Y-83896395D01*
X182146505Y-83896401D01*
X182313599Y-84063495D01*
X182410384Y-84131265D01*
X182507165Y-84199032D01*
X182507167Y-84199033D01*
X182507170Y-84199035D01*
X182721337Y-84298903D01*
X182949592Y-84360063D01*
X183126034Y-84375500D01*
X183184999Y-84380659D01*
X183185000Y-84380659D01*
X183185001Y-84380659D01*
X183243966Y-84375500D01*
X183420408Y-84360063D01*
X183648663Y-84298903D01*
X183862830Y-84199035D01*
X184056401Y-84063495D01*
X184178329Y-83941566D01*
X184239648Y-83908084D01*
X184309340Y-83913068D01*
X184365274Y-83954939D01*
X184382189Y-83985917D01*
X184431202Y-84117328D01*
X184431206Y-84117335D01*
X184517452Y-84232544D01*
X184517455Y-84232547D01*
X184632664Y-84318793D01*
X184632671Y-84318797D01*
X184767517Y-84369091D01*
X184767516Y-84369091D01*
X184774444Y-84369835D01*
X184827127Y-84375500D01*
X186622872Y-84375499D01*
X186682483Y-84369091D01*
X186817331Y-84318796D01*
X186932546Y-84232546D01*
X187018796Y-84117331D01*
X187069091Y-83982483D01*
X187075500Y-83922873D01*
X187075499Y-82127128D01*
X187069091Y-82067517D01*
X187067810Y-82064083D01*
X187018797Y-81932671D01*
X187018793Y-81932664D01*
X186932547Y-81817455D01*
X186932544Y-81817452D01*
X186817335Y-81731206D01*
X186817328Y-81731202D01*
X186682482Y-81680908D01*
X186682483Y-81680908D01*
X186622883Y-81674501D01*
X186622881Y-81674500D01*
X186622873Y-81674500D01*
X186622864Y-81674500D01*
X184827129Y-81674500D01*
X184827123Y-81674501D01*
X184767516Y-81680908D01*
X184632671Y-81731202D01*
X184632664Y-81731206D01*
X184517455Y-81817452D01*
X184517452Y-81817455D01*
X184431206Y-81932664D01*
X184431203Y-81932669D01*
X184382189Y-82064083D01*
X184340317Y-82120016D01*
X184274853Y-82144433D01*
X184206580Y-82129581D01*
X184178326Y-82108430D01*
X184056402Y-81986506D01*
X184056395Y-81986501D01*
X184050148Y-81982127D01*
X183979518Y-81932671D01*
X183862834Y-81850967D01*
X183862830Y-81850965D01*
X183842534Y-81841501D01*
X183648663Y-81751097D01*
X183648659Y-81751096D01*
X183648655Y-81751094D01*
X183420413Y-81689938D01*
X183420403Y-81689936D01*
X183185001Y-81669341D01*
X183184999Y-81669341D01*
X182949596Y-81689936D01*
X182949586Y-81689938D01*
X182721344Y-81751094D01*
X182721335Y-81751098D01*
X182507171Y-81850964D01*
X182507169Y-81850965D01*
X182313597Y-81986505D01*
X182146505Y-82153597D01*
X182016575Y-82339158D01*
X181961998Y-82382783D01*
X181892500Y-82389977D01*
X181830145Y-82358454D01*
X181813425Y-82339158D01*
X181683494Y-82153597D01*
X181516402Y-81986506D01*
X181516395Y-81986501D01*
X181510148Y-81982127D01*
X181439518Y-81932671D01*
X181322834Y-81850967D01*
X181322830Y-81850965D01*
X181302534Y-81841501D01*
X181108663Y-81751097D01*
X181108659Y-81751096D01*
X181108655Y-81751094D01*
X180880413Y-81689938D01*
X180880403Y-81689936D01*
X180645001Y-81669341D01*
X180644999Y-81669341D01*
X180409596Y-81689936D01*
X180409586Y-81689938D01*
X180181344Y-81751094D01*
X180181335Y-81751098D01*
X179967171Y-81850964D01*
X179967169Y-81850965D01*
X179773597Y-81986505D01*
X179606505Y-82153597D01*
X179476575Y-82339158D01*
X179421998Y-82382783D01*
X179352500Y-82389977D01*
X179290145Y-82358454D01*
X179273425Y-82339158D01*
X179143494Y-82153597D01*
X178976402Y-81986506D01*
X178976395Y-81986501D01*
X178970148Y-81982127D01*
X178899518Y-81932671D01*
X178782834Y-81850967D01*
X178782830Y-81850965D01*
X178762534Y-81841501D01*
X178568663Y-81751097D01*
X178568659Y-81751096D01*
X178568655Y-81751094D01*
X178340413Y-81689938D01*
X178340403Y-81689936D01*
X178105001Y-81669341D01*
X178104999Y-81669341D01*
X177869596Y-81689936D01*
X177869586Y-81689938D01*
X177641344Y-81751094D01*
X177641335Y-81751098D01*
X177427171Y-81850964D01*
X177427169Y-81850965D01*
X177233597Y-81986505D01*
X177066505Y-82153597D01*
X176930965Y-82347169D01*
X176930964Y-82347171D01*
X176831098Y-82561335D01*
X176831094Y-82561344D01*
X176769938Y-82789586D01*
X176769936Y-82789596D01*
X176749341Y-83024999D01*
X176749341Y-83025000D01*
X163247128Y-83025000D01*
X163191158Y-82816113D01*
X163120113Y-82644596D01*
X163103349Y-82604123D01*
X163103346Y-82604117D01*
X163103344Y-82604112D01*
X162988611Y-82405388D01*
X162988608Y-82405385D01*
X162988607Y-82405382D01*
X162848918Y-82223338D01*
X162848911Y-82223330D01*
X162686670Y-82061089D01*
X162686661Y-82061081D01*
X162504617Y-81921392D01*
X162305890Y-81806657D01*
X162305876Y-81806650D01*
X162093887Y-81718842D01*
X162045836Y-81705967D01*
X161872238Y-81659452D01*
X161834215Y-81654446D01*
X161644741Y-81629500D01*
X161644734Y-81629500D01*
X161415266Y-81629500D01*
X161415258Y-81629500D01*
X161198715Y-81658009D01*
X161187762Y-81659452D01*
X161094076Y-81684554D01*
X160966112Y-81718842D01*
X160754123Y-81806650D01*
X160754109Y-81806657D01*
X160555382Y-81921392D01*
X160373338Y-82061081D01*
X160211081Y-82223338D01*
X160071392Y-82405382D01*
X159956657Y-82604109D01*
X159956650Y-82604123D01*
X159868842Y-82816112D01*
X159809453Y-83037759D01*
X159809451Y-83037770D01*
X159784479Y-83227444D01*
X159756212Y-83291340D01*
X159697887Y-83329811D01*
X159628023Y-83330642D01*
X159573859Y-83298939D01*
X156771479Y-80496559D01*
X156771459Y-80496537D01*
X156627785Y-80352863D01*
X156627781Y-80352860D01*
X156463920Y-80243371D01*
X156463911Y-80243366D01*
X156391315Y-80213296D01*
X156335165Y-80190038D01*
X156281836Y-80167949D01*
X156281832Y-80167948D01*
X156281828Y-80167946D01*
X156185188Y-80148724D01*
X156088544Y-80129500D01*
X156088541Y-80129500D01*
X135989478Y-80129500D01*
X135989474Y-80129500D01*
X135892831Y-80148724D01*
X135796186Y-80167947D01*
X135796180Y-80167949D01*
X135742853Y-80190037D01*
X135742853Y-80190038D01*
X135699937Y-80207814D01*
X135614103Y-80243368D01*
X135614102Y-80243368D01*
X135491064Y-80325579D01*
X135491065Y-80325580D01*
X135450237Y-80352859D01*
X135450234Y-80352862D01*
X132409918Y-83393181D01*
X132348595Y-83426666D01*
X132322237Y-83429500D01*
X123677503Y-83429500D01*
X123610464Y-83409815D01*
X123564709Y-83357011D01*
X123554765Y-83287853D01*
X123557728Y-83273407D01*
X123570043Y-83227444D01*
X123600063Y-83115408D01*
X123620659Y-82880000D01*
X123600063Y-82644592D01*
X123538903Y-82416337D01*
X123439035Y-82202171D01*
X123434976Y-82196373D01*
X123303494Y-82008597D01*
X123136402Y-81841506D01*
X123136395Y-81841501D01*
X122942834Y-81705967D01*
X122942830Y-81705965D01*
X122875353Y-81674500D01*
X122728663Y-81606097D01*
X122728659Y-81606096D01*
X122728655Y-81606094D01*
X122500413Y-81544938D01*
X122500403Y-81544936D01*
X122265001Y-81524341D01*
X122264999Y-81524341D01*
X122029596Y-81544936D01*
X122029586Y-81544938D01*
X121801344Y-81606094D01*
X121801335Y-81606098D01*
X121587171Y-81705964D01*
X121587169Y-81705965D01*
X121393600Y-81841503D01*
X121271673Y-81963430D01*
X121210350Y-81996914D01*
X121140658Y-81991930D01*
X121084725Y-81950058D01*
X121067810Y-81919081D01*
X121018797Y-81787671D01*
X121018793Y-81787664D01*
X120932547Y-81672455D01*
X120932544Y-81672452D01*
X120817335Y-81586206D01*
X120817328Y-81586202D01*
X120682482Y-81535908D01*
X120682483Y-81535908D01*
X120622883Y-81529501D01*
X120622881Y-81529500D01*
X120622873Y-81529500D01*
X120622864Y-81529500D01*
X118827129Y-81529500D01*
X118827123Y-81529501D01*
X118767516Y-81535908D01*
X118632671Y-81586202D01*
X118632664Y-81586206D01*
X118517455Y-81672452D01*
X118517452Y-81672455D01*
X118431206Y-81787664D01*
X118431202Y-81787671D01*
X118380908Y-81922517D01*
X118374501Y-81982116D01*
X118374500Y-81982135D01*
X118374500Y-83777870D01*
X118374501Y-83777876D01*
X118380908Y-83837483D01*
X118431202Y-83972328D01*
X118431206Y-83972335D01*
X118517452Y-84087544D01*
X118517455Y-84087547D01*
X118632664Y-84173793D01*
X118632671Y-84173797D01*
X118767517Y-84224091D01*
X118767516Y-84224091D01*
X118774444Y-84224835D01*
X118827127Y-84230500D01*
X120555217Y-84230499D01*
X120622256Y-84250184D01*
X120668011Y-84302987D01*
X120677955Y-84372146D01*
X120648930Y-84435702D01*
X120642898Y-84442180D01*
X111222863Y-93862215D01*
X111222860Y-93862219D01*
X111113372Y-94026079D01*
X111113367Y-94026089D01*
X111037949Y-94208163D01*
X111037947Y-94208171D01*
X110999500Y-94401455D01*
X110999500Y-94598544D01*
X100500500Y-94598544D01*
X100500500Y-70621288D01*
X118649500Y-70621288D01*
X118681161Y-70861785D01*
X118743947Y-71096104D01*
X118836773Y-71320205D01*
X118836776Y-71320212D01*
X118958064Y-71530289D01*
X118958066Y-71530292D01*
X118958067Y-71530293D01*
X119105733Y-71722736D01*
X119105739Y-71722743D01*
X119277256Y-71894260D01*
X119277262Y-71894265D01*
X119469711Y-72041936D01*
X119679788Y-72163224D01*
X119903900Y-72256054D01*
X120138211Y-72318838D01*
X120318586Y-72342584D01*
X120378711Y-72350500D01*
X120378712Y-72350500D01*
X120621289Y-72350500D01*
X120669388Y-72344167D01*
X120861789Y-72318838D01*
X121096100Y-72256054D01*
X121320212Y-72163224D01*
X121530289Y-72041936D01*
X121722738Y-71894265D01*
X121894265Y-71722738D01*
X122041936Y-71530289D01*
X122163224Y-71320212D01*
X122256054Y-71096100D01*
X122318838Y-70861789D01*
X122350500Y-70621288D01*
X178149500Y-70621288D01*
X178181161Y-70861785D01*
X178243947Y-71096104D01*
X178336773Y-71320205D01*
X178336776Y-71320212D01*
X178458064Y-71530289D01*
X178458066Y-71530292D01*
X178458067Y-71530293D01*
X178605733Y-71722736D01*
X178605739Y-71722743D01*
X178777256Y-71894260D01*
X178777262Y-71894265D01*
X178969711Y-72041936D01*
X179179788Y-72163224D01*
X179403900Y-72256054D01*
X179638211Y-72318838D01*
X179818586Y-72342584D01*
X179878711Y-72350500D01*
X179878712Y-72350500D01*
X180121289Y-72350500D01*
X180169388Y-72344167D01*
X180361789Y-72318838D01*
X180596100Y-72256054D01*
X180820212Y-72163224D01*
X181030289Y-72041936D01*
X181222738Y-71894265D01*
X181394265Y-71722738D01*
X181541936Y-71530289D01*
X181663224Y-71320212D01*
X181756054Y-71096100D01*
X181818838Y-70861789D01*
X181850500Y-70621288D01*
X181850500Y-70378712D01*
X181818838Y-70138211D01*
X181756054Y-69903900D01*
X181663224Y-69679788D01*
X181541936Y-69469711D01*
X181394265Y-69277262D01*
X181394260Y-69277256D01*
X181222743Y-69105739D01*
X181222736Y-69105733D01*
X181030293Y-68958067D01*
X181030292Y-68958066D01*
X181030289Y-68958064D01*
X180820212Y-68836776D01*
X180820205Y-68836773D01*
X180596104Y-68743947D01*
X180361785Y-68681161D01*
X180121289Y-68649500D01*
X180121288Y-68649500D01*
X179878712Y-68649500D01*
X179878711Y-68649500D01*
X179638214Y-68681161D01*
X179403895Y-68743947D01*
X179179794Y-68836773D01*
X179179785Y-68836777D01*
X178969706Y-68958067D01*
X178777263Y-69105733D01*
X178777256Y-69105739D01*
X178605739Y-69277256D01*
X178605733Y-69277263D01*
X178458067Y-69469706D01*
X178336777Y-69679785D01*
X178336773Y-69679794D01*
X178243947Y-69903895D01*
X178181161Y-70138214D01*
X178149500Y-70378711D01*
X178149500Y-70621288D01*
X122350500Y-70621288D01*
X122350500Y-70378712D01*
X122318838Y-70138211D01*
X122256054Y-69903900D01*
X122163224Y-69679788D01*
X122041936Y-69469711D01*
X121894265Y-69277262D01*
X121894260Y-69277256D01*
X121722743Y-69105739D01*
X121722736Y-69105733D01*
X121530293Y-68958067D01*
X121530292Y-68958066D01*
X121530289Y-68958064D01*
X121320212Y-68836776D01*
X121320205Y-68836773D01*
X121096104Y-68743947D01*
X120861785Y-68681161D01*
X120621289Y-68649500D01*
X120621288Y-68649500D01*
X120378712Y-68649500D01*
X120378711Y-68649500D01*
X120138214Y-68681161D01*
X119903895Y-68743947D01*
X119679794Y-68836773D01*
X119679785Y-68836777D01*
X119469706Y-68958067D01*
X119277263Y-69105733D01*
X119277256Y-69105739D01*
X119105739Y-69277256D01*
X119105733Y-69277263D01*
X118958067Y-69469706D01*
X118836777Y-69679785D01*
X118836773Y-69679794D01*
X118743947Y-69903895D01*
X118681161Y-70138214D01*
X118649500Y-70378711D01*
X118649500Y-70621288D01*
X100500500Y-70621288D01*
X100500500Y-57502214D01*
X100500579Y-57497788D01*
X100510261Y-57226695D01*
X100514026Y-57121288D01*
X118649500Y-57121288D01*
X118681161Y-57361785D01*
X118743947Y-57596104D01*
X118836773Y-57820205D01*
X118836776Y-57820212D01*
X118958064Y-58030289D01*
X118958066Y-58030292D01*
X118958067Y-58030293D01*
X119105733Y-58222736D01*
X119105739Y-58222743D01*
X119277256Y-58394260D01*
X119277262Y-58394265D01*
X119469711Y-58541936D01*
X119679788Y-58663224D01*
X119903900Y-58756054D01*
X120138211Y-58818838D01*
X120318586Y-58842584D01*
X120378711Y-58850500D01*
X120378712Y-58850500D01*
X120621289Y-58850500D01*
X120669388Y-58844167D01*
X120861789Y-58818838D01*
X121096100Y-58756054D01*
X121320212Y-58663224D01*
X121530289Y-58541936D01*
X121722738Y-58394265D01*
X121894265Y-58222738D01*
X122041936Y-58030289D01*
X122163224Y-57820212D01*
X122256054Y-57596100D01*
X122318838Y-57361789D01*
X122350500Y-57121288D01*
X178149500Y-57121288D01*
X178181161Y-57361785D01*
X178243947Y-57596104D01*
X178336773Y-57820205D01*
X178336776Y-57820212D01*
X178458064Y-58030289D01*
X178458066Y-58030292D01*
X178458067Y-58030293D01*
X178605733Y-58222736D01*
X178605739Y-58222743D01*
X178777256Y-58394260D01*
X178777262Y-58394265D01*
X178969711Y-58541936D01*
X179179788Y-58663224D01*
X179403900Y-58756054D01*
X179638211Y-58818838D01*
X179818586Y-58842584D01*
X179878711Y-58850500D01*
X179878712Y-58850500D01*
X180121289Y-58850500D01*
X180169388Y-58844167D01*
X180361789Y-58818838D01*
X180596100Y-58756054D01*
X180820212Y-58663224D01*
X181030289Y-58541936D01*
X181222738Y-58394265D01*
X181394265Y-58222738D01*
X181541936Y-58030289D01*
X181663224Y-57820212D01*
X181756054Y-57596100D01*
X181818838Y-57361789D01*
X181850500Y-57121288D01*
X181850500Y-56878712D01*
X181818838Y-56638211D01*
X181756054Y-56403900D01*
X181663224Y-56179788D01*
X181541936Y-55969711D01*
X181394265Y-55777262D01*
X181394260Y-55777256D01*
X181222743Y-55605739D01*
X181222736Y-55605733D01*
X181030293Y-55458067D01*
X181030292Y-55458066D01*
X181030289Y-55458064D01*
X180820212Y-55336776D01*
X180820205Y-55336773D01*
X180596104Y-55243947D01*
X180361785Y-55181161D01*
X180121289Y-55149500D01*
X180121288Y-55149500D01*
X179878712Y-55149500D01*
X179878711Y-55149500D01*
X179638214Y-55181161D01*
X179403895Y-55243947D01*
X179179794Y-55336773D01*
X179179785Y-55336777D01*
X178969706Y-55458067D01*
X178777263Y-55605733D01*
X178777256Y-55605739D01*
X178605739Y-55777256D01*
X178605733Y-55777263D01*
X178458067Y-55969706D01*
X178336777Y-56179785D01*
X178336773Y-56179794D01*
X178243947Y-56403895D01*
X178181161Y-56638214D01*
X178149500Y-56878711D01*
X178149500Y-57121288D01*
X122350500Y-57121288D01*
X122350500Y-56878712D01*
X122318838Y-56638211D01*
X122256054Y-56403900D01*
X122163224Y-56179788D01*
X122041936Y-55969711D01*
X121894265Y-55777262D01*
X121894260Y-55777256D01*
X121722743Y-55605739D01*
X121722736Y-55605733D01*
X121530293Y-55458067D01*
X121530292Y-55458066D01*
X121530289Y-55458064D01*
X121320212Y-55336776D01*
X121320205Y-55336773D01*
X121096104Y-55243947D01*
X120861785Y-55181161D01*
X120621289Y-55149500D01*
X120621288Y-55149500D01*
X120378712Y-55149500D01*
X120378711Y-55149500D01*
X120138214Y-55181161D01*
X119903895Y-55243947D01*
X119679794Y-55336773D01*
X119679785Y-55336777D01*
X119469706Y-55458067D01*
X119277263Y-55605733D01*
X119277256Y-55605739D01*
X119105739Y-55777256D01*
X119105733Y-55777263D01*
X118958067Y-55969706D01*
X118836777Y-56179785D01*
X118836773Y-56179794D01*
X118743947Y-56403895D01*
X118681161Y-56638214D01*
X118649500Y-56878711D01*
X118649500Y-57121288D01*
X100514026Y-57121288D01*
X100518176Y-57005073D01*
X100518804Y-56996284D01*
X100571274Y-56508240D01*
X100572527Y-56499532D01*
X100659680Y-56016473D01*
X100661551Y-56007877D01*
X100782940Y-55532278D01*
X100785421Y-55523829D01*
X100940423Y-55058121D01*
X100943512Y-55049839D01*
X101131335Y-54596397D01*
X101135012Y-54588346D01*
X101191837Y-54474822D01*
X101354714Y-54149436D01*
X101358924Y-54141724D01*
X101609409Y-53719554D01*
X101614155Y-53712170D01*
X101894087Y-53308992D01*
X101899387Y-53301912D01*
X102054401Y-53109551D01*
X102207369Y-52919728D01*
X102213131Y-52913079D01*
X102547595Y-52553839D01*
X102553839Y-52547595D01*
X102913079Y-52213131D01*
X102919728Y-52207369D01*
X103301918Y-51899382D01*
X103308998Y-51894083D01*
X103387624Y-51839492D01*
X103712170Y-51614155D01*
X103719554Y-51609409D01*
X104141724Y-51358924D01*
X104149436Y-51354714D01*
X104474822Y-51191837D01*
X104588346Y-51135012D01*
X104596397Y-51131335D01*
X104620281Y-51121442D01*
X105049850Y-50943507D01*
X105058121Y-50940423D01*
X105523829Y-50785421D01*
X105532278Y-50782940D01*
X106007877Y-50661551D01*
X106016473Y-50659680D01*
X106499532Y-50572527D01*
X106508240Y-50571274D01*
X106996284Y-50518804D01*
X107005073Y-50518176D01*
X107497788Y-50500578D01*
X107502214Y-50500500D01*
X107565892Y-50500500D01*
X192434108Y-50500500D01*
X192497786Y-50500500D01*
X192502211Y-50500578D01*
G37*
%TD.AperFunction*%
%TD*%
%TA.AperFunction,NonConductor*%
G36*
X155591257Y-82150185D02*
G01*
X155611899Y-82166819D01*
X157862899Y-84417819D01*
X157896384Y-84479142D01*
X157891400Y-84548834D01*
X157849528Y-84604767D01*
X157784064Y-84629184D01*
X157775218Y-84629500D01*
X138519129Y-84629500D01*
X138452090Y-84609815D01*
X138406335Y-84557011D01*
X138396391Y-84487853D01*
X138420753Y-84430013D01*
X138458624Y-84380659D01*
X138478611Y-84354612D01*
X138593344Y-84155888D01*
X138681158Y-83943887D01*
X138740548Y-83722238D01*
X138770500Y-83494734D01*
X138770500Y-83265266D01*
X138740548Y-83037762D01*
X138681158Y-82816113D01*
X138610113Y-82644596D01*
X138593349Y-82604123D01*
X138593346Y-82604117D01*
X138593344Y-82604112D01*
X138478611Y-82405388D01*
X138420752Y-82329985D01*
X138395559Y-82264817D01*
X138409597Y-82196373D01*
X138458411Y-82146383D01*
X138519129Y-82130500D01*
X155524218Y-82130500D01*
X155591257Y-82150185D01*
G37*
%TD.AperFunction*%
%TA.AperFunction,NonConductor*%
G36*
X135207440Y-83528011D02*
G01*
X135263374Y-83569883D01*
X135287046Y-83628007D01*
X135299452Y-83722238D01*
X135346117Y-83896395D01*
X135358842Y-83943887D01*
X135446650Y-84155876D01*
X135446657Y-84155890D01*
X135489733Y-84230500D01*
X135561389Y-84354612D01*
X135577415Y-84375498D01*
X135619247Y-84430013D01*
X135644441Y-84495183D01*
X135630403Y-84563627D01*
X135581589Y-84613617D01*
X135520871Y-84629500D01*
X134302801Y-84629500D01*
X134235762Y-84609815D01*
X134190007Y-84557011D01*
X134180063Y-84487853D01*
X134209088Y-84424297D01*
X134215120Y-84417819D01*
X134569446Y-84063493D01*
X135076428Y-83556510D01*
X135137749Y-83523027D01*
X135207440Y-83528011D01*
G37*
%TD.AperFunction*%
%TA.AperFunction,NonConductor*%
G36*
X138192737Y-96819810D02*
G01*
X138247223Y-96863548D01*
X138269412Y-96929801D01*
X138269500Y-96934460D01*
X138269500Y-98445539D01*
X138249815Y-98512578D01*
X138197011Y-98558333D01*
X138127853Y-98568277D01*
X138064297Y-98539252D01*
X138026523Y-98480474D01*
X138025295Y-98475981D01*
X138024064Y-98471121D01*
X137924173Y-98243393D01*
X137788166Y-98035217D01*
X137766557Y-98011744D01*
X137619744Y-97852262D01*
X137536991Y-97787852D01*
X137496179Y-97731143D01*
X137492504Y-97661370D01*
X137527136Y-97600687D01*
X137536985Y-97592151D01*
X137619744Y-97527738D01*
X137788164Y-97344785D01*
X137924173Y-97136607D01*
X138024063Y-96908881D01*
X138025294Y-96904020D01*
X138060833Y-96843864D01*
X138123254Y-96812472D01*
X138192737Y-96819810D01*
G37*
%TD.AperFunction*%
%TA.AperFunction,NonConductor*%
G36*
X138192737Y-99359810D02*
G01*
X138247223Y-99403548D01*
X138269412Y-99469801D01*
X138269500Y-99474460D01*
X138269500Y-100985539D01*
X138249815Y-101052578D01*
X138197011Y-101098333D01*
X138127853Y-101108277D01*
X138064297Y-101079252D01*
X138026523Y-101020474D01*
X138025295Y-101015981D01*
X138024064Y-101011121D01*
X137924173Y-100783393D01*
X137788166Y-100575217D01*
X137683988Y-100462050D01*
X137619744Y-100392262D01*
X137536991Y-100327852D01*
X137496179Y-100271143D01*
X137492504Y-100201370D01*
X137527136Y-100140687D01*
X137536985Y-100132151D01*
X137619744Y-100067738D01*
X137788164Y-99884785D01*
X137924173Y-99676607D01*
X138024063Y-99448881D01*
X138025294Y-99444020D01*
X138060833Y-99383864D01*
X138123254Y-99352472D01*
X138192737Y-99359810D01*
G37*
%TD.AperFunction*%
%TA.AperFunction,NonConductor*%
G36*
X138192737Y-101899810D02*
G01*
X138247223Y-101943548D01*
X138269412Y-102009801D01*
X138269500Y-102014460D01*
X138269500Y-103525539D01*
X138249815Y-103592578D01*
X138197011Y-103638333D01*
X138127853Y-103648277D01*
X138064297Y-103619252D01*
X138026523Y-103560474D01*
X138025295Y-103555981D01*
X138024064Y-103551121D01*
X137924173Y-103323393D01*
X137788166Y-103115217D01*
X137740253Y-103063170D01*
X137619744Y-102932262D01*
X137536991Y-102867852D01*
X137496179Y-102811143D01*
X137492504Y-102741370D01*
X137527136Y-102680687D01*
X137536985Y-102672151D01*
X137619744Y-102607738D01*
X137788164Y-102424785D01*
X137924173Y-102216607D01*
X138024063Y-101988881D01*
X138025294Y-101984020D01*
X138060833Y-101923864D01*
X138123254Y-101892472D01*
X138192737Y-101899810D01*
G37*
%TD.AperFunction*%
%TA.AperFunction,NonConductor*%
G36*
X138192737Y-104439810D02*
G01*
X138247223Y-104483548D01*
X138269412Y-104549801D01*
X138269500Y-104554460D01*
X138269500Y-106065539D01*
X138249815Y-106132578D01*
X138197011Y-106178333D01*
X138127853Y-106188277D01*
X138064297Y-106159252D01*
X138026523Y-106100474D01*
X138025295Y-106095981D01*
X138024064Y-106091121D01*
X137924173Y-105863393D01*
X137788166Y-105655217D01*
X137766557Y-105631744D01*
X137619744Y-105472262D01*
X137536991Y-105407852D01*
X137496179Y-105351143D01*
X137492504Y-105281370D01*
X137527136Y-105220687D01*
X137536985Y-105212151D01*
X137619744Y-105147738D01*
X137788164Y-104964785D01*
X137924173Y-104756607D01*
X138024063Y-104528881D01*
X138025294Y-104524020D01*
X138060833Y-104463864D01*
X138123254Y-104432472D01*
X138192737Y-104439810D01*
G37*
%TD.AperFunction*%
%TA.AperFunction,NonConductor*%
G36*
X138192737Y-106979810D02*
G01*
X138247223Y-107023548D01*
X138269412Y-107089801D01*
X138269500Y-107094460D01*
X138269500Y-108605539D01*
X138249815Y-108672578D01*
X138197011Y-108718333D01*
X138127853Y-108728277D01*
X138064297Y-108699252D01*
X138026523Y-108640474D01*
X138025295Y-108635981D01*
X138024064Y-108631121D01*
X137924173Y-108403393D01*
X137788166Y-108195217D01*
X137681625Y-108079483D01*
X137619744Y-108012262D01*
X137536991Y-107947852D01*
X137496179Y-107891143D01*
X137492504Y-107821370D01*
X137527136Y-107760687D01*
X137536985Y-107752151D01*
X137619744Y-107687738D01*
X137788164Y-107504785D01*
X137924173Y-107296607D01*
X138024063Y-107068881D01*
X138025294Y-107064020D01*
X138060833Y-107003864D01*
X138123254Y-106972472D01*
X138192737Y-106979810D01*
G37*
%TD.AperFunction*%
%TA.AperFunction,NonConductor*%
G36*
X135494184Y-110140185D02*
G01*
X135518374Y-110160517D01*
X135580252Y-110227734D01*
X135580256Y-110227738D01*
X135663008Y-110292147D01*
X135703821Y-110348857D01*
X135707496Y-110418630D01*
X135672864Y-110479313D01*
X135663014Y-110487848D01*
X135632839Y-110511335D01*
X135580255Y-110552262D01*
X135580252Y-110552265D01*
X135518374Y-110619483D01*
X135458487Y-110655474D01*
X135427145Y-110659500D01*
X135012726Y-110659500D01*
X134945687Y-110639815D01*
X134899932Y-110587011D01*
X134889988Y-110517853D01*
X134919013Y-110454297D01*
X134925045Y-110447819D01*
X135216045Y-110156819D01*
X135277368Y-110123334D01*
X135303726Y-110120500D01*
X135427145Y-110120500D01*
X135494184Y-110140185D01*
G37*
%TD.AperFunction*%
%TA.AperFunction,NonConductor*%
G36*
X138192737Y-109519810D02*
G01*
X138247223Y-109563548D01*
X138269412Y-109629801D01*
X138269500Y-109634460D01*
X138269500Y-111145539D01*
X138249815Y-111212578D01*
X138197011Y-111258333D01*
X138127853Y-111268277D01*
X138064297Y-111239252D01*
X138026523Y-111180474D01*
X138025295Y-111175981D01*
X138024064Y-111171121D01*
X137924173Y-110943393D01*
X137788166Y-110735217D01*
X137681625Y-110619483D01*
X137619744Y-110552262D01*
X137536991Y-110487852D01*
X137496179Y-110431143D01*
X137492504Y-110361370D01*
X137527136Y-110300687D01*
X137536985Y-110292151D01*
X137619744Y-110227738D01*
X137788164Y-110044785D01*
X137924173Y-109836607D01*
X138024063Y-109608881D01*
X138025294Y-109604020D01*
X138060833Y-109543864D01*
X138123254Y-109512472D01*
X138192737Y-109519810D01*
G37*
%TD.AperFunction*%
%TA.AperFunction,NonConductor*%
G36*
X138192737Y-112059810D02*
G01*
X138247223Y-112103548D01*
X138269412Y-112169801D01*
X138269500Y-112174460D01*
X138269500Y-113685539D01*
X138249815Y-113752578D01*
X138197011Y-113798333D01*
X138127853Y-113808277D01*
X138064297Y-113779252D01*
X138026523Y-113720474D01*
X138025295Y-113715981D01*
X138024064Y-113711121D01*
X137924173Y-113483393D01*
X137788166Y-113275217D01*
X137766557Y-113251744D01*
X137619744Y-113092262D01*
X137536991Y-113027852D01*
X137496179Y-112971143D01*
X137492504Y-112901370D01*
X137527136Y-112840687D01*
X137536985Y-112832151D01*
X137619744Y-112767738D01*
X137788164Y-112584785D01*
X137924173Y-112376607D01*
X138024063Y-112148881D01*
X138025294Y-112144020D01*
X138060833Y-112083864D01*
X138123254Y-112052472D01*
X138192737Y-112059810D01*
G37*
%TD.AperFunction*%
%TA.AperFunction,NonConductor*%
G36*
X138192737Y-114599810D02*
G01*
X138247223Y-114643548D01*
X138269412Y-114709801D01*
X138269500Y-114714460D01*
X138269500Y-116225539D01*
X138249815Y-116292578D01*
X138197011Y-116338333D01*
X138127853Y-116348277D01*
X138064297Y-116319252D01*
X138026523Y-116260474D01*
X138025295Y-116255981D01*
X138024064Y-116251121D01*
X137924173Y-116023393D01*
X137788166Y-115815217D01*
X137734076Y-115756460D01*
X137619744Y-115632262D01*
X137536991Y-115567852D01*
X137496179Y-115511143D01*
X137492504Y-115441370D01*
X137527136Y-115380687D01*
X137536985Y-115372151D01*
X137619744Y-115307738D01*
X137788164Y-115124785D01*
X137924173Y-114916607D01*
X138024063Y-114688881D01*
X138025294Y-114684020D01*
X138060833Y-114623864D01*
X138123254Y-114592472D01*
X138192737Y-114599810D01*
G37*
%TD.AperFunction*%
%TA.AperFunction,NonConductor*%
G36*
X138192737Y-117139810D02*
G01*
X138247223Y-117183548D01*
X138269412Y-117249801D01*
X138269500Y-117254460D01*
X138269500Y-118765539D01*
X138249815Y-118832578D01*
X138197011Y-118878333D01*
X138127853Y-118888277D01*
X138064297Y-118859252D01*
X138026523Y-118800474D01*
X138025295Y-118795981D01*
X138024064Y-118791121D01*
X137924173Y-118563393D01*
X137788166Y-118355217D01*
X137666325Y-118222863D01*
X137619744Y-118172262D01*
X137536991Y-118107852D01*
X137496179Y-118051143D01*
X137492504Y-117981370D01*
X137527136Y-117920687D01*
X137536985Y-117912151D01*
X137619744Y-117847738D01*
X137788164Y-117664785D01*
X137924173Y-117456607D01*
X138024063Y-117228881D01*
X138025294Y-117224020D01*
X138060833Y-117163864D01*
X138123254Y-117132472D01*
X138192737Y-117139810D01*
G37*
%TD.AperFunction*%
%TA.AperFunction,NonConductor*%
G36*
X138192737Y-119679810D02*
G01*
X138247223Y-119723548D01*
X138269412Y-119789801D01*
X138269500Y-119794460D01*
X138269500Y-121305539D01*
X138249815Y-121372578D01*
X138197011Y-121418333D01*
X138127853Y-121428277D01*
X138064297Y-121399252D01*
X138026523Y-121340474D01*
X138025295Y-121335981D01*
X138024064Y-121331121D01*
X137924173Y-121103393D01*
X137788166Y-120895217D01*
X137767860Y-120873159D01*
X137619744Y-120712262D01*
X137536991Y-120647852D01*
X137496179Y-120591143D01*
X137492504Y-120521370D01*
X137527136Y-120460687D01*
X137536985Y-120452151D01*
X137619744Y-120387738D01*
X137788164Y-120204785D01*
X137924173Y-119996607D01*
X138024063Y-119768881D01*
X138025294Y-119764020D01*
X138060833Y-119703864D01*
X138123254Y-119672472D01*
X138192737Y-119679810D01*
G37*
%TD.AperFunction*%
%TA.AperFunction,NonConductor*%
G36*
X138192737Y-122219810D02*
G01*
X138247223Y-122263548D01*
X138269412Y-122329801D01*
X138269500Y-122334460D01*
X138269500Y-123845539D01*
X138249815Y-123912578D01*
X138197011Y-123958333D01*
X138127853Y-123968277D01*
X138064297Y-123939252D01*
X138026523Y-123880474D01*
X138025295Y-123875981D01*
X138024064Y-123871121D01*
X137924173Y-123643393D01*
X137788166Y-123435217D01*
X137687591Y-123325964D01*
X137619744Y-123252262D01*
X137536991Y-123187852D01*
X137496179Y-123131143D01*
X137492504Y-123061370D01*
X137527136Y-123000687D01*
X137536985Y-122992151D01*
X137619744Y-122927738D01*
X137788164Y-122744785D01*
X137924173Y-122536607D01*
X138024063Y-122308881D01*
X138025294Y-122304020D01*
X138060833Y-122243864D01*
X138123254Y-122212472D01*
X138192737Y-122219810D01*
G37*
%TD.AperFunction*%
%TA.AperFunction,NonConductor*%
G36*
X138192737Y-124759810D02*
G01*
X138247223Y-124803548D01*
X138269412Y-124869801D01*
X138269500Y-124874460D01*
X138269500Y-126385539D01*
X138249815Y-126452578D01*
X138197011Y-126498333D01*
X138127853Y-126508277D01*
X138064297Y-126479252D01*
X138026523Y-126420474D01*
X138025295Y-126415981D01*
X138024064Y-126411121D01*
X137924173Y-126183393D01*
X137788166Y-125975217D01*
X137751514Y-125935403D01*
X137619744Y-125792262D01*
X137536991Y-125727852D01*
X137496179Y-125671143D01*
X137492504Y-125601370D01*
X137527136Y-125540687D01*
X137536985Y-125532151D01*
X137619744Y-125467738D01*
X137788164Y-125284785D01*
X137924173Y-125076607D01*
X138024063Y-124848881D01*
X138025294Y-124844020D01*
X138060833Y-124783864D01*
X138123254Y-124752472D01*
X138192737Y-124759810D01*
G37*
%TD.AperFunction*%
%TA.AperFunction,NonConductor*%
G36*
X138192737Y-127299810D02*
G01*
X138247223Y-127343548D01*
X138269412Y-127409801D01*
X138269500Y-127414460D01*
X138269500Y-128830871D01*
X138249815Y-128897910D01*
X138197011Y-128943665D01*
X138127853Y-128953609D01*
X138070014Y-128929247D01*
X137994612Y-128871389D01*
X137795888Y-128756656D01*
X137795876Y-128756650D01*
X137583887Y-128668842D01*
X137362238Y-128609452D01*
X137324215Y-128604446D01*
X137134741Y-128579500D01*
X137134734Y-128579500D01*
X137072075Y-128579500D01*
X137005036Y-128559815D01*
X136959281Y-128507011D01*
X136949337Y-128437853D01*
X136978362Y-128374297D01*
X137031812Y-128338219D01*
X137110976Y-128311040D01*
X137204810Y-128278828D01*
X137423509Y-128160474D01*
X137619744Y-128007738D01*
X137788164Y-127824785D01*
X137924173Y-127616607D01*
X138024063Y-127388881D01*
X138025294Y-127384020D01*
X138060833Y-127323864D01*
X138123254Y-127292472D01*
X138192737Y-127299810D01*
G37*
%TD.AperFunction*%
%TA.AperFunction,NonConductor*%
G36*
X147201257Y-90660185D02*
G01*
X147221899Y-90676819D01*
X160460657Y-103915578D01*
X160494142Y-103976901D01*
X160496553Y-104013497D01*
X160494358Y-104039994D01*
X160494357Y-104040004D01*
X160494357Y-104040005D01*
X160514890Y-104287812D01*
X160514892Y-104287824D01*
X160575936Y-104528881D01*
X160675826Y-104756606D01*
X160811833Y-104964782D01*
X160818786Y-104972335D01*
X160980256Y-105147738D01*
X161063008Y-105212147D01*
X161103821Y-105268857D01*
X161107496Y-105338630D01*
X161072864Y-105399313D01*
X161063014Y-105407848D01*
X161004400Y-105453469D01*
X160980257Y-105472261D01*
X160811833Y-105655217D01*
X160675826Y-105863393D01*
X160575936Y-106091118D01*
X160514892Y-106332175D01*
X160514890Y-106332187D01*
X160494357Y-106579994D01*
X160494357Y-106580005D01*
X160514890Y-106827812D01*
X160514892Y-106827824D01*
X160575936Y-107068881D01*
X160675826Y-107296606D01*
X160811833Y-107504782D01*
X160811836Y-107504785D01*
X160980256Y-107687738D01*
X161063008Y-107752147D01*
X161103821Y-107808857D01*
X161107496Y-107878630D01*
X161072864Y-107939313D01*
X161063014Y-107947848D01*
X161004400Y-107993469D01*
X160980257Y-108012261D01*
X160811833Y-108195217D01*
X160675826Y-108403393D01*
X160575936Y-108631118D01*
X160514892Y-108872175D01*
X160514890Y-108872187D01*
X160494357Y-109119994D01*
X160494357Y-109120005D01*
X160514890Y-109367812D01*
X160514892Y-109367824D01*
X160575936Y-109608881D01*
X160675826Y-109836606D01*
X160811833Y-110044782D01*
X160811836Y-110044785D01*
X160980256Y-110227738D01*
X161063008Y-110292147D01*
X161103821Y-110348857D01*
X161107496Y-110418630D01*
X161072864Y-110479313D01*
X161063014Y-110487848D01*
X161024465Y-110517853D01*
X160980257Y-110552261D01*
X160811833Y-110735217D01*
X160675826Y-110943393D01*
X160575936Y-111171118D01*
X160514892Y-111412175D01*
X160514890Y-111412187D01*
X160494357Y-111659994D01*
X160494357Y-111660005D01*
X160514890Y-111907812D01*
X160514892Y-111907824D01*
X160575936Y-112148881D01*
X160675826Y-112376606D01*
X160811833Y-112584782D01*
X160811836Y-112584785D01*
X160980256Y-112767738D01*
X161063008Y-112832147D01*
X161103821Y-112888857D01*
X161107496Y-112958630D01*
X161072864Y-113019313D01*
X161063014Y-113027848D01*
X161004400Y-113073469D01*
X160980257Y-113092261D01*
X160811833Y-113275217D01*
X160675826Y-113483393D01*
X160575936Y-113711118D01*
X160514892Y-113952175D01*
X160514890Y-113952187D01*
X160494357Y-114199994D01*
X160494357Y-114200005D01*
X160514890Y-114447812D01*
X160514892Y-114447824D01*
X160575936Y-114688881D01*
X160675826Y-114916606D01*
X160811833Y-115124782D01*
X160811836Y-115124785D01*
X160980256Y-115307738D01*
X161063008Y-115372147D01*
X161103821Y-115428857D01*
X161107496Y-115498630D01*
X161072864Y-115559313D01*
X161063014Y-115567848D01*
X161004400Y-115613469D01*
X160980257Y-115632261D01*
X160811833Y-115815217D01*
X160675826Y-116023393D01*
X160575936Y-116251118D01*
X160514892Y-116492175D01*
X160514890Y-116492187D01*
X160494357Y-116739994D01*
X160494357Y-116740005D01*
X160514890Y-116987812D01*
X160514892Y-116987824D01*
X160575936Y-117228881D01*
X160675826Y-117456606D01*
X160811833Y-117664782D01*
X160811836Y-117664785D01*
X160980256Y-117847738D01*
X161063008Y-117912147D01*
X161103821Y-117968857D01*
X161107496Y-118038630D01*
X161072864Y-118099313D01*
X161063014Y-118107848D01*
X161004400Y-118153469D01*
X160980257Y-118172261D01*
X160811833Y-118355217D01*
X160675826Y-118563393D01*
X160575936Y-118791118D01*
X160514892Y-119032175D01*
X160514890Y-119032187D01*
X160494357Y-119279994D01*
X160494357Y-119280005D01*
X160514890Y-119527812D01*
X160514892Y-119527824D01*
X160575936Y-119768881D01*
X160675826Y-119996606D01*
X160811833Y-120204782D01*
X160811836Y-120204785D01*
X160980256Y-120387738D01*
X161063008Y-120452147D01*
X161103821Y-120508857D01*
X161107496Y-120578630D01*
X161072864Y-120639313D01*
X161063014Y-120647848D01*
X160980256Y-120712262D01*
X160896046Y-120803738D01*
X160811833Y-120895217D01*
X160675826Y-121103393D01*
X160575936Y-121331118D01*
X160514892Y-121572175D01*
X160514890Y-121572187D01*
X160494357Y-121819994D01*
X160494357Y-121820005D01*
X160514890Y-122067812D01*
X160514892Y-122067824D01*
X160575936Y-122308881D01*
X160675826Y-122536606D01*
X160811833Y-122744782D01*
X160811836Y-122744785D01*
X160980256Y-122927738D01*
X161063008Y-122992147D01*
X161103821Y-123048857D01*
X161107496Y-123118630D01*
X161072864Y-123179313D01*
X161063014Y-123187848D01*
X161004400Y-123233469D01*
X160980257Y-123252261D01*
X160811833Y-123435217D01*
X160675826Y-123643393D01*
X160575936Y-123871118D01*
X160514892Y-124112175D01*
X160514890Y-124112187D01*
X160494357Y-124359994D01*
X160494357Y-124360005D01*
X160514890Y-124607812D01*
X160514892Y-124607824D01*
X160575936Y-124848881D01*
X160675826Y-125076606D01*
X160811833Y-125284782D01*
X160811836Y-125284785D01*
X160980256Y-125467738D01*
X161063008Y-125532147D01*
X161103821Y-125588857D01*
X161107496Y-125658630D01*
X161072864Y-125719313D01*
X161063014Y-125727848D01*
X161012056Y-125767511D01*
X160980257Y-125792261D01*
X160811833Y-125975217D01*
X160675826Y-126183393D01*
X160575936Y-126411118D01*
X160514892Y-126652175D01*
X160514890Y-126652187D01*
X160494357Y-126899994D01*
X160494357Y-126900005D01*
X160514890Y-127147812D01*
X160514892Y-127147824D01*
X160575936Y-127388881D01*
X160675826Y-127616606D01*
X160811833Y-127824782D01*
X160811836Y-127824785D01*
X160980256Y-128007738D01*
X161176491Y-128160474D01*
X161395190Y-128278828D01*
X161462710Y-128302007D01*
X161568188Y-128338219D01*
X161625203Y-128378605D01*
X161651334Y-128443404D01*
X161638282Y-128512044D01*
X161590194Y-128562732D01*
X161527925Y-128579500D01*
X161415258Y-128579500D01*
X161201806Y-128607603D01*
X161187762Y-128609452D01*
X161103103Y-128632136D01*
X160966112Y-128668842D01*
X160754123Y-128756650D01*
X160754109Y-128756657D01*
X160555382Y-128871392D01*
X160373338Y-129011081D01*
X160211081Y-129173338D01*
X160071392Y-129355382D01*
X159956657Y-129554109D01*
X159956650Y-129554123D01*
X159868842Y-129766112D01*
X159809453Y-129987759D01*
X159809451Y-129987770D01*
X159779500Y-130215258D01*
X159779500Y-130444741D01*
X159801192Y-130609500D01*
X159809452Y-130672238D01*
X159809453Y-130672240D01*
X159868842Y-130893887D01*
X159956650Y-131105876D01*
X159956657Y-131105890D01*
X160071392Y-131304617D01*
X160211081Y-131486661D01*
X160211089Y-131486670D01*
X160342238Y-131617819D01*
X160375723Y-131679142D01*
X160370739Y-131748834D01*
X160328867Y-131804767D01*
X160263403Y-131829184D01*
X160254557Y-131829500D01*
X158204000Y-131829500D01*
X158136961Y-131809815D01*
X158091206Y-131757011D01*
X158080000Y-131705500D01*
X158080000Y-125840000D01*
X140394500Y-125840000D01*
X140327461Y-125820315D01*
X140281706Y-125767511D01*
X140270500Y-125716000D01*
X140270500Y-93911456D01*
X140270499Y-93911454D01*
X140232053Y-93718175D01*
X140232052Y-93718174D01*
X140232051Y-93718165D01*
X140227909Y-93708168D01*
X140227909Y-93708165D01*
X140202506Y-93646836D01*
X140156635Y-93536092D01*
X140156628Y-93536079D01*
X140047139Y-93372218D01*
X140047136Y-93372214D01*
X139904686Y-93229764D01*
X139904655Y-93229735D01*
X138136818Y-91461898D01*
X138103333Y-91400575D01*
X138100499Y-91374217D01*
X138100499Y-90764500D01*
X138120184Y-90697461D01*
X138172988Y-90651706D01*
X138224499Y-90640500D01*
X147134218Y-90640500D01*
X147201257Y-90660185D01*
G37*
%TD.AperFunction*%
M02*
