%TF.GenerationSoftware,KiCad,Pcbnew,8.0.4*%
%TF.CreationDate,2024-07-29T13:43:03-05:00*%
%TF.ProjectId,DAQ-Bicineta,4441512d-4269-4636-996e-6574612e6b69,rev?*%
%TF.SameCoordinates,Original*%
%TF.FileFunction,Soldermask,Top*%
%TF.FilePolarity,Negative*%
%FSLAX46Y46*%
G04 Gerber Fmt 4.6, Leading zero omitted, Abs format (unit mm)*
G04 Created by KiCad (PCBNEW 8.0.4) date 2024-07-29 13:43:03*
%MOMM*%
%LPD*%
G01*
G04 APERTURE LIST*
G04 Aperture macros list*
%AMRoundRect*
0 Rectangle with rounded corners*
0 $1 Rounding radius*
0 $2 $3 $4 $5 $6 $7 $8 $9 X,Y pos of 4 corners*
0 Add a 4 corners polygon primitive as box body*
4,1,4,$2,$3,$4,$5,$6,$7,$8,$9,$2,$3,0*
0 Add four circle primitives for the rounded corners*
1,1,$1+$1,$2,$3*
1,1,$1+$1,$4,$5*
1,1,$1+$1,$6,$7*
1,1,$1+$1,$8,$9*
0 Add four rect primitives between the rounded corners*
20,1,$1+$1,$2,$3,$4,$5,0*
20,1,$1+$1,$4,$5,$6,$7,0*
20,1,$1+$1,$6,$7,$8,$9,0*
20,1,$1+$1,$8,$9,$2,$3,0*%
G04 Aperture macros list end*
%ADD10C,0.000000*%
%ADD11C,4.800000*%
%ADD12R,1.700000X1.700000*%
%ADD13O,1.700000X1.700000*%
%ADD14C,3.200000*%
%ADD15C,3.000000*%
%ADD16RoundRect,0.102000X-1.000000X-1.000000X1.000000X-1.000000X1.000000X1.000000X-1.000000X1.000000X0*%
%ADD17C,2.204000*%
G04 APERTURE END LIST*
D10*
%TO.C,G\u002A\u002A\u002A*%
G36*
X131880031Y-56649791D02*
G01*
X131845892Y-56683931D01*
X131811752Y-56649791D01*
X131845892Y-56615651D01*
X131880031Y-56649791D01*
G37*
G36*
X131742195Y-57721225D02*
G01*
X131743472Y-57757460D01*
X131702129Y-57855792D01*
X131602861Y-57990748D01*
X131462249Y-58151941D01*
X131582195Y-57947103D01*
X131679817Y-57782412D01*
X131727059Y-57714281D01*
X131742195Y-57721225D01*
G37*
G36*
X146375487Y-59328382D02*
G01*
X146389440Y-59346834D01*
X146386319Y-59409853D01*
X146363360Y-59415113D01*
X146266834Y-59365286D01*
X146252881Y-59346834D01*
X146256002Y-59283815D01*
X146278961Y-59278554D01*
X146375487Y-59328382D01*
G37*
G36*
X160147773Y-70066726D02*
G01*
X160147773Y-70681242D01*
X159908795Y-70681242D01*
X159669816Y-70681242D01*
X159669816Y-70066726D01*
X159669816Y-69452210D01*
X159908795Y-69452210D01*
X160147773Y-69452210D01*
X160147773Y-70066726D01*
G37*
G36*
X161308526Y-70087472D02*
G01*
X161308526Y-70722734D01*
X161069548Y-70954361D01*
X160830569Y-71185988D01*
X160830569Y-70319099D01*
X160830569Y-69452210D01*
X161069548Y-69452210D01*
X161308526Y-69452210D01*
X161308526Y-70087472D01*
G37*
G36*
X163288634Y-70169146D02*
G01*
X163288634Y-70408124D01*
X162947236Y-70408124D01*
X162605838Y-70408124D01*
X162605838Y-70169146D01*
X162605838Y-69930167D01*
X162947236Y-69930167D01*
X163288634Y-69930167D01*
X163288634Y-70169146D01*
G37*
G36*
X139199150Y-70457929D02*
G01*
X139295376Y-70510559D01*
X139374450Y-70584361D01*
X139339391Y-70609126D01*
X139322505Y-70609746D01*
X139172712Y-70575393D01*
X139127446Y-70552173D01*
X139078554Y-70482476D01*
X139100317Y-70452986D01*
X139199150Y-70457929D01*
G37*
G36*
X159874655Y-70988501D02*
G01*
X159719044Y-71132394D01*
X159576646Y-71203282D01*
X159385342Y-71226166D01*
X159280885Y-71227479D01*
X158918741Y-71227479D01*
X158918741Y-70988501D01*
X158918741Y-70749522D01*
X159512512Y-70749522D01*
X160106282Y-70749522D01*
X159874655Y-70988501D01*
G37*
G36*
X138396936Y-51401755D02*
G01*
X138514375Y-51502941D01*
X138557528Y-51632881D01*
X138536644Y-51700566D01*
X138399976Y-51823035D01*
X138231294Y-51852306D01*
X138130560Y-51812540D01*
X138033976Y-51675646D01*
X138041854Y-51522725D01*
X138141318Y-51404553D01*
X138242509Y-51371102D01*
X138396936Y-51401755D01*
G37*
G36*
X163756172Y-69463075D02*
G01*
X163821912Y-69521943D01*
X163834860Y-69668221D01*
X163834870Y-69677795D01*
X163798828Y-69869500D01*
X163674172Y-70054287D01*
X163595892Y-70135006D01*
X163356913Y-70366633D01*
X163356913Y-69909422D01*
X163356913Y-69452210D01*
X163595892Y-69452210D01*
X163756172Y-69463075D01*
G37*
G36*
X162537558Y-70315074D02*
G01*
X162522726Y-70546021D01*
X162460341Y-70718063D01*
X162323568Y-70900617D01*
X162301422Y-70925915D01*
X162065286Y-71193339D01*
X162062444Y-70814126D01*
X162069561Y-70583118D01*
X162110315Y-70429776D01*
X162207297Y-70295654D01*
X162298580Y-70203285D01*
X162537558Y-69971658D01*
X162537558Y-70315074D01*
G37*
G36*
X163153759Y-68912662D02*
G01*
X163310718Y-68945664D01*
X163436651Y-69024391D01*
X163561752Y-69144952D01*
X163793379Y-69383931D01*
X162913096Y-69383931D01*
X162032813Y-69383931D01*
X162264440Y-69144952D01*
X162406180Y-69010755D01*
X162533183Y-68939140D01*
X162698129Y-68910700D01*
X162913096Y-68905974D01*
X163153759Y-68912662D01*
G37*
G36*
X148122969Y-60956314D02*
G01*
X148099084Y-61017712D01*
X148000890Y-61129839D01*
X147862920Y-61260954D01*
X147719709Y-61379313D01*
X147605788Y-61453172D01*
X147571203Y-61463501D01*
X147559390Y-61411460D01*
X147606178Y-61283450D01*
X147619989Y-61255728D01*
X147731672Y-61110622D01*
X147881351Y-60996015D01*
X148026719Y-60937092D01*
X148122969Y-60956314D01*
G37*
G36*
X128754851Y-61819243D02*
G01*
X128905260Y-61851804D01*
X128957731Y-61895268D01*
X128897476Y-61941278D01*
X128804423Y-61965961D01*
X128629897Y-61995408D01*
X128490194Y-61995954D01*
X128306080Y-61966916D01*
X128277271Y-61961417D01*
X128161769Y-61919922D01*
X128163065Y-61872575D01*
X128262551Y-61831231D01*
X128441620Y-61807746D01*
X128521292Y-61805944D01*
X128754851Y-61819243D01*
G37*
G36*
X128770526Y-60944009D02*
G01*
X128808573Y-60962198D01*
X128933585Y-61052245D01*
X129054030Y-61180799D01*
X129146795Y-61314458D01*
X129188765Y-61419821D01*
X129156829Y-61463486D01*
X129155464Y-61463501D01*
X129071459Y-61420101D01*
X128930898Y-61309688D01*
X128846452Y-61233530D01*
X128679637Y-61058678D01*
X128610540Y-60946145D01*
X128640418Y-60904923D01*
X128770526Y-60944009D01*
G37*
G36*
X131858596Y-58311527D02*
G01*
X131878317Y-58446176D01*
X131869009Y-58603034D01*
X131832158Y-58726828D01*
X131794682Y-58763216D01*
X131678933Y-58785348D01*
X131484991Y-58810535D01*
X131386443Y-58820803D01*
X131063553Y-58851778D01*
X131204057Y-58654459D01*
X131359379Y-58489836D01*
X131556172Y-58348357D01*
X131742648Y-58264312D01*
X131808361Y-58254361D01*
X131858596Y-58311527D01*
G37*
G36*
X148021596Y-64809199D02*
G01*
X148102059Y-65009906D01*
X148130321Y-65184737D01*
X148167175Y-65381338D01*
X148235160Y-65522115D01*
X148327366Y-65717766D01*
X148285910Y-65886266D01*
X148164709Y-65997813D01*
X147994010Y-66109659D01*
X147994010Y-65604524D01*
X147988752Y-65318132D01*
X147974970Y-65053628D01*
X147955736Y-64868944D01*
X147917462Y-64638501D01*
X148021596Y-64809199D01*
G37*
G36*
X128237326Y-62022375D02*
G01*
X128299602Y-62050504D01*
X128259875Y-62103649D01*
X128141637Y-62180027D01*
X127984774Y-62298507D01*
X127887670Y-62417696D01*
X127880988Y-62434188D01*
X127817052Y-62543196D01*
X127738275Y-62516892D01*
X127656791Y-62380158D01*
X127610184Y-62232342D01*
X127614086Y-62143824D01*
X127708147Y-62087889D01*
X127881759Y-62041676D01*
X128077919Y-62016292D01*
X128237326Y-62022375D01*
G37*
G36*
X148371058Y-61812691D02*
G01*
X148521862Y-61837712D01*
X148569248Y-61864865D01*
X148534074Y-61910434D01*
X148416569Y-61959764D01*
X148269414Y-61996100D01*
X148145287Y-62002690D01*
X148139104Y-62001659D01*
X148048044Y-61982572D01*
X147891591Y-61948575D01*
X147763484Y-61912709D01*
X147757871Y-61880088D01*
X147811825Y-61854234D01*
X147965775Y-61820246D01*
X148168941Y-61806634D01*
X148371058Y-61812691D01*
G37*
G36*
X148909448Y-62039148D02*
G01*
X149083086Y-62119795D01*
X149141997Y-62247164D01*
X149077177Y-62412727D01*
X149066507Y-62427195D01*
X149000251Y-62489407D01*
X148926846Y-62468273D01*
X148811177Y-62358916D01*
X148654982Y-62212845D01*
X148510881Y-62102926D01*
X148504654Y-62099102D01*
X148432748Y-62046744D01*
X148461535Y-62022284D01*
X148608065Y-62014122D01*
X148630085Y-62013752D01*
X148909448Y-62039148D01*
G37*
G36*
X145080804Y-58293255D02*
G01*
X145208124Y-58356448D01*
X145353288Y-58463630D01*
X145493598Y-58591141D01*
X145606349Y-58715320D01*
X145668843Y-58812508D01*
X145658376Y-58859044D01*
X145621295Y-58856570D01*
X145527612Y-58844226D01*
X145349282Y-58827116D01*
X145250402Y-58818878D01*
X145052395Y-58794489D01*
X144949297Y-58745320D01*
X144899464Y-58645597D01*
X144886875Y-58593873D01*
X144871267Y-58386836D01*
X144939202Y-58287730D01*
X145080804Y-58293255D01*
G37*
G36*
X147643480Y-63105282D02*
G01*
X147933980Y-63303514D01*
X148150223Y-63520060D01*
X148286190Y-63736723D01*
X148335859Y-63935306D01*
X148293213Y-64097612D01*
X148152231Y-64205443D01*
X148017682Y-64236453D01*
X147893384Y-64238909D01*
X147834316Y-64186640D01*
X147811362Y-64044029D01*
X147807204Y-63978962D01*
X147769717Y-63725380D01*
X147676245Y-63476758D01*
X147508062Y-63185317D01*
X147478239Y-63139518D01*
X147345570Y-62937847D01*
X147643480Y-63105282D01*
G37*
G36*
X131832567Y-55868797D02*
G01*
X131932325Y-56066602D01*
X131989343Y-56269555D01*
X131995204Y-56433702D01*
X131955190Y-56508980D01*
X131898130Y-56487142D01*
X131871214Y-56339990D01*
X131870733Y-56329493D01*
X131861852Y-56195966D01*
X131848227Y-56191748D01*
X131830812Y-56274253D01*
X131781026Y-56449161D01*
X131724075Y-56497532D01*
X131670998Y-56415921D01*
X131650322Y-56330563D01*
X131637158Y-56102510D01*
X131663575Y-55899367D01*
X131718809Y-55695180D01*
X131832567Y-55868797D01*
G37*
G36*
X158782182Y-70053332D02*
G01*
X158780603Y-70424595D01*
X158776239Y-70742797D01*
X158769643Y-70985225D01*
X158761374Y-71129166D01*
X158755115Y-71159199D01*
X158698294Y-71112631D01*
X158584789Y-70994435D01*
X158516137Y-70917845D01*
X158416341Y-70797150D01*
X158354096Y-70687547D01*
X158320557Y-70552554D01*
X158306882Y-70355687D01*
X158304227Y-70060465D01*
X158304225Y-70043605D01*
X158304225Y-69410719D01*
X158543203Y-69179092D01*
X158782182Y-68947465D01*
X158782182Y-70053332D01*
G37*
G36*
X160898849Y-69144952D02*
G01*
X160765936Y-69272656D01*
X160648201Y-69344274D01*
X160498633Y-69375942D01*
X160270227Y-69383796D01*
X160202659Y-69383931D01*
X159970778Y-69377552D01*
X159804269Y-69360801D01*
X159738162Y-69337259D01*
X159738096Y-69336457D01*
X159781126Y-69261081D01*
X159887881Y-69133450D01*
X159921569Y-69097479D01*
X160027946Y-68998471D01*
X160137452Y-68941029D01*
X160290644Y-68913998D01*
X160528079Y-68906220D01*
X160617759Y-68905974D01*
X161130476Y-68905974D01*
X160898849Y-69144952D01*
G37*
G36*
X162059601Y-69144952D02*
G01*
X161926689Y-69272656D01*
X161808953Y-69344274D01*
X161659386Y-69375942D01*
X161430980Y-69383796D01*
X161363411Y-69383931D01*
X161131531Y-69377552D01*
X160965021Y-69360801D01*
X160898914Y-69337259D01*
X160898849Y-69336457D01*
X160941878Y-69261081D01*
X161048633Y-69133450D01*
X161082322Y-69097479D01*
X161188698Y-68998471D01*
X161298204Y-68941029D01*
X161451397Y-68913998D01*
X161688832Y-68906220D01*
X161778512Y-68905974D01*
X162291228Y-68905974D01*
X162059601Y-69144952D01*
G37*
G36*
X128759741Y-64839192D02*
G01*
X128774157Y-64954392D01*
X128779495Y-65173113D01*
X128778835Y-65448897D01*
X128776582Y-65744204D01*
X128774772Y-65980208D01*
X128773619Y-66129237D01*
X128773311Y-66167275D01*
X128729671Y-66120306D01*
X128620836Y-66012000D01*
X128579236Y-65971390D01*
X128457724Y-65843272D01*
X128423716Y-65749147D01*
X128464612Y-65630126D01*
X128493887Y-65572469D01*
X128571137Y-65364915D01*
X128602612Y-65167038D01*
X128634158Y-64976354D01*
X128693486Y-64847582D01*
X128733699Y-64809570D01*
X128759741Y-64839192D01*
G37*
G36*
X139558893Y-69752409D02*
G01*
X139576584Y-69813832D01*
X139498501Y-69879867D01*
X139352084Y-69919212D01*
X139153217Y-69942396D01*
X139374420Y-70035405D01*
X139548692Y-70156717D01*
X139592922Y-70316592D01*
X139532497Y-70470403D01*
X139483197Y-70513801D01*
X139453268Y-70434709D01*
X139448193Y-70402123D01*
X139374458Y-70256843D01*
X139271295Y-70215606D01*
X139153042Y-70151442D01*
X139120924Y-70031745D01*
X139162190Y-69895166D01*
X139264093Y-69780355D01*
X139413883Y-69725964D01*
X139433016Y-69725328D01*
X139558893Y-69752409D01*
G37*
G36*
X145102243Y-55881588D02*
G01*
X145121469Y-56086484D01*
X145104751Y-56303789D01*
X145069208Y-56482052D01*
X145057988Y-56513232D01*
X144999307Y-56649791D01*
X144993462Y-56513232D01*
X144953910Y-56344847D01*
X144917851Y-56274253D01*
X144878271Y-56242720D01*
X144877260Y-56328606D01*
X144892355Y-56427882D01*
X144915279Y-56615631D01*
X144898208Y-56675313D01*
X144842736Y-56605480D01*
X144797662Y-56514041D01*
X144752416Y-56342944D01*
X144758754Y-56223853D01*
X144859286Y-55972805D01*
X144958492Y-55828879D01*
X145043702Y-55796874D01*
X145102243Y-55881588D01*
G37*
G36*
X128380703Y-60658758D02*
G01*
X128457596Y-60779237D01*
X128466053Y-60829740D01*
X128523000Y-61023163D01*
X128674056Y-61235253D01*
X128889544Y-61427010D01*
X128952200Y-61468562D01*
X129136390Y-61598610D01*
X129218866Y-61690148D01*
X129197917Y-61730015D01*
X129071831Y-61705049D01*
X128978150Y-61668210D01*
X128817876Y-61617044D01*
X128609936Y-61571497D01*
X128589391Y-61568039D01*
X128418979Y-61520570D01*
X128318433Y-61427880D01*
X128274086Y-61262168D01*
X128272275Y-60995635D01*
X128275695Y-60929855D01*
X128295169Y-60729385D01*
X128328062Y-60645856D01*
X128380703Y-60658758D01*
G37*
G36*
X148450782Y-60630941D02*
G01*
X148465049Y-60738989D01*
X148469587Y-60960618D01*
X148469795Y-60998584D01*
X148463966Y-61267265D01*
X148427682Y-61431916D01*
X148337473Y-61524889D01*
X148169870Y-61578535D01*
X148030646Y-61603927D01*
X147817735Y-61645873D01*
X147643142Y-61690749D01*
X147618472Y-61698946D01*
X147557321Y-61707917D01*
X147605519Y-61648971D01*
X147676063Y-61588626D01*
X147971416Y-61328818D01*
X148169500Y-61115545D01*
X148261516Y-60958716D01*
X148267128Y-60923093D01*
X148306757Y-60778238D01*
X148367376Y-60674266D01*
X148420364Y-60616143D01*
X148450782Y-60630941D01*
G37*
G36*
X137614904Y-69759091D02*
G01*
X137679618Y-69869841D01*
X137660675Y-70037429D01*
X137565658Y-70217085D01*
X137530166Y-70259446D01*
X137376537Y-70426828D01*
X137567012Y-70392287D01*
X137705888Y-70387571D01*
X137732452Y-70434145D01*
X137654048Y-70492386D01*
X137497151Y-70530952D01*
X137482127Y-70532584D01*
X137256836Y-70554624D01*
X137408676Y-70308942D01*
X137497533Y-70117787D01*
X137516573Y-69966269D01*
X137468008Y-69882949D01*
X137375961Y-69886800D01*
X137288283Y-69890120D01*
X137274117Y-69864346D01*
X137331108Y-69795523D01*
X137456945Y-69749317D01*
X137583927Y-69746637D01*
X137614904Y-69759091D01*
G37*
G36*
X148230039Y-62096433D02*
G01*
X148393789Y-62179589D01*
X148478939Y-62234195D01*
X148730303Y-62471550D01*
X148856055Y-62761885D01*
X148868652Y-63017596D01*
X148846731Y-63168446D01*
X148815772Y-63187036D01*
X148799557Y-63156335D01*
X148715518Y-63051795D01*
X148558131Y-62921570D01*
X148472754Y-62863729D01*
X148308010Y-62736138D01*
X148149718Y-62575914D01*
X148023625Y-62415031D01*
X147955480Y-62285466D01*
X147959483Y-62226343D01*
X148030298Y-62239273D01*
X148175059Y-62305504D01*
X148247143Y-62344711D01*
X148506107Y-62491775D01*
X148283121Y-62284896D01*
X148162219Y-62152320D01*
X148148687Y-62088421D01*
X148230039Y-62096433D01*
G37*
G36*
X130669683Y-56445579D02*
G01*
X130843383Y-56612623D01*
X130963858Y-56856984D01*
X131010947Y-57158977D01*
X131011019Y-57171687D01*
X130973878Y-57407514D01*
X130876863Y-57662358D01*
X130741582Y-57899151D01*
X130589644Y-58080824D01*
X130442657Y-58170309D01*
X130427322Y-58172981D01*
X130279197Y-58155210D01*
X130205332Y-58043693D01*
X130198024Y-57943947D01*
X130253675Y-57832876D01*
X130390182Y-57682495D01*
X130506729Y-57572414D01*
X130732746Y-57334991D01*
X130841688Y-57134084D01*
X130839341Y-56946600D01*
X130731490Y-56749444D01*
X130717481Y-56731293D01*
X130522086Y-56579119D01*
X130324873Y-56532671D01*
X130070623Y-56509942D01*
X130243257Y-56422173D01*
X130462920Y-56375535D01*
X130669683Y-56445579D01*
G37*
G36*
X128700733Y-62092718D02*
G01*
X128657714Y-62143999D01*
X128543702Y-62218510D01*
X128407555Y-62314412D01*
X128347742Y-62383079D01*
X128350009Y-62394410D01*
X128425282Y-62386344D01*
X128558070Y-62317492D01*
X128564679Y-62313202D01*
X128697216Y-62240514D01*
X128772549Y-62225405D01*
X128773827Y-62226472D01*
X128774409Y-62313033D01*
X128700527Y-62455199D01*
X128578756Y-62616702D01*
X128435666Y-62761276D01*
X128324218Y-62840103D01*
X128134708Y-62962197D01*
X127982708Y-63095468D01*
X127971026Y-63108991D01*
X127888221Y-63201846D01*
X127856625Y-63187897D01*
X127851538Y-63052738D01*
X127851537Y-63039302D01*
X127903265Y-62731974D01*
X128042156Y-62453430D01*
X128243768Y-62233575D01*
X128483660Y-62102317D01*
X128636752Y-62078527D01*
X128700733Y-62092718D01*
G37*
G36*
X146473488Y-56406956D02*
G01*
X146502734Y-56422165D01*
X146601594Y-56483648D01*
X146594764Y-56513552D01*
X146468570Y-56531588D01*
X146423854Y-56535880D01*
X146174260Y-56593402D01*
X146015112Y-56725313D01*
X145935426Y-56881448D01*
X145914084Y-57117432D01*
X146021412Y-57352384D01*
X146250181Y-57571866D01*
X146297430Y-57604489D01*
X146468244Y-57734360D01*
X146541724Y-57847876D01*
X146547244Y-57967904D01*
X146482981Y-58126385D01*
X146358957Y-58182539D01*
X146205706Y-58136487D01*
X146053762Y-57988351D01*
X146038476Y-57965887D01*
X145879239Y-57706731D01*
X145788148Y-57507374D01*
X145747939Y-57321068D01*
X145740784Y-57159842D01*
X145784106Y-56865606D01*
X145900058Y-56622848D01*
X146067620Y-56451920D01*
X146265770Y-56373172D01*
X146473488Y-56406956D01*
G37*
G36*
X138192416Y-69756452D02*
G01*
X138289507Y-69864579D01*
X138350115Y-70033908D01*
X138364901Y-70227346D01*
X138324524Y-70407797D01*
X138259294Y-70505666D01*
X138127788Y-70602148D01*
X138023824Y-70579715D01*
X137973630Y-70527613D01*
X137876229Y-70326779D01*
X137864870Y-70187377D01*
X138025396Y-70187377D01*
X138033585Y-70364188D01*
X138059824Y-70482868D01*
X138070712Y-70499164D01*
X138120451Y-70535806D01*
X138147894Y-70504037D01*
X138159502Y-70380432D01*
X138161752Y-70169146D01*
X138150527Y-69963488D01*
X138121572Y-69827084D01*
X138093472Y-69793608D01*
X138056906Y-69853542D01*
X138033692Y-70000980D01*
X138025396Y-70187377D01*
X137864870Y-70187377D01*
X137857888Y-70101687D01*
X137913068Y-69898074D01*
X138036234Y-69761677D01*
X138068181Y-69746625D01*
X138192416Y-69756452D01*
G37*
G36*
X138806932Y-69756452D02*
G01*
X138904023Y-69864579D01*
X138964632Y-70033908D01*
X138979417Y-70227346D01*
X138939040Y-70407797D01*
X138873810Y-70505666D01*
X138742304Y-70602148D01*
X138638341Y-70579715D01*
X138588146Y-70527613D01*
X138490745Y-70326779D01*
X138479386Y-70187377D01*
X138639912Y-70187377D01*
X138648101Y-70364188D01*
X138674340Y-70482868D01*
X138685229Y-70499164D01*
X138734967Y-70535806D01*
X138762410Y-70504037D01*
X138774018Y-70380432D01*
X138776268Y-70169146D01*
X138765043Y-69963488D01*
X138736088Y-69827084D01*
X138707988Y-69793608D01*
X138671422Y-69853542D01*
X138648208Y-70000980D01*
X138639912Y-70187377D01*
X138479386Y-70187377D01*
X138472404Y-70101687D01*
X138527584Y-69898074D01*
X138650750Y-69761677D01*
X138682698Y-69746625D01*
X138806932Y-69756452D01*
G37*
G36*
X130469406Y-62121349D02*
G01*
X130514440Y-62146296D01*
X130547035Y-62189791D01*
X130464129Y-62212386D01*
X130343741Y-62218329D01*
X130130389Y-62236296D01*
X129956139Y-62273035D01*
X129934064Y-62281159D01*
X129911291Y-62309101D01*
X130015713Y-62318014D01*
X130207182Y-62309391D01*
X130430620Y-62294745D01*
X130531196Y-62294933D01*
X130522269Y-62315228D01*
X130417203Y-62360901D01*
X130377881Y-62376741D01*
X130191529Y-62456510D01*
X129939355Y-62570532D01*
X129695085Y-62685055D01*
X129425944Y-62809523D01*
X129248604Y-62873867D01*
X129133491Y-62880541D01*
X129051028Y-62832002D01*
X128981119Y-62744331D01*
X128914290Y-62631173D01*
X128946578Y-62576936D01*
X129043047Y-62546061D01*
X129190511Y-62492560D01*
X129409695Y-62397207D01*
X129635232Y-62289424D01*
X129989016Y-62138638D01*
X130262211Y-62083405D01*
X130469406Y-62121349D01*
G37*
G36*
X147834203Y-65539026D02*
G01*
X147811085Y-65931081D01*
X147765259Y-66215784D01*
X147685190Y-66421885D01*
X147559341Y-66578133D01*
X147376177Y-66713278D01*
X147358714Y-66724032D01*
X147076207Y-66839434D01*
X146817398Y-66835059D01*
X146658539Y-66757339D01*
X146566956Y-66682090D01*
X146586065Y-66657073D01*
X146662558Y-66652748D01*
X146825623Y-66608664D01*
X146932360Y-66547643D01*
X147137140Y-66477579D01*
X147290106Y-66488999D01*
X147480674Y-66486784D01*
X147568020Y-66397777D01*
X147544007Y-66233200D01*
X147516843Y-66176267D01*
X147478459Y-66052049D01*
X147514121Y-65913363D01*
X147577562Y-65795394D01*
X147649226Y-65649728D01*
X147662118Y-65567236D01*
X147650309Y-65560275D01*
X147594488Y-65516140D01*
X147615806Y-65378293D01*
X147715660Y-65138571D01*
X147726257Y-65116458D01*
X147858054Y-64843339D01*
X147834203Y-65539026D01*
G37*
G36*
X139781748Y-59529807D02*
G01*
X139730518Y-59619655D01*
X139702703Y-59642241D01*
X139614925Y-59768103D01*
X139606292Y-59863444D01*
X139650902Y-59949354D01*
X139765006Y-59988156D01*
X139926347Y-59995490D01*
X140158040Y-60020365D01*
X140297719Y-60103271D01*
X140317930Y-60128029D01*
X140406916Y-60342043D01*
X140377039Y-60550162D01*
X140290112Y-60667703D01*
X140149895Y-60760516D01*
X140043084Y-60773088D01*
X140005300Y-60710282D01*
X140059630Y-60626265D01*
X140102440Y-60602584D01*
X140222298Y-60492923D01*
X140249876Y-60325613D01*
X140234831Y-60268608D01*
X140135750Y-60192405D01*
X139913600Y-60166216D01*
X139903936Y-60166189D01*
X139688378Y-60142843D01*
X139545106Y-60082096D01*
X139530770Y-60067898D01*
X139471833Y-59907565D01*
X139489060Y-59714325D01*
X139572436Y-59557058D01*
X139609418Y-59526835D01*
X139731746Y-59486946D01*
X139781748Y-59529807D01*
G37*
G36*
X146600955Y-62101989D02*
G01*
X146889323Y-62194438D01*
X147165075Y-62316995D01*
X147410514Y-62429153D01*
X147615890Y-62513078D01*
X147744714Y-62554127D01*
X147760595Y-62555974D01*
X147848621Y-62590549D01*
X147823743Y-62684415D01*
X147732585Y-62784370D01*
X147640327Y-62857232D01*
X147549621Y-62885347D01*
X147429732Y-62863402D01*
X147249922Y-62786088D01*
X146997064Y-62657274D01*
X146740725Y-62529323D01*
X146502699Y-62420140D01*
X146332504Y-62352382D01*
X146326377Y-62350396D01*
X146232287Y-62315583D01*
X146242497Y-62300062D01*
X146368829Y-62301492D01*
X146525999Y-62310881D01*
X146737023Y-62318739D01*
X146826570Y-62307008D01*
X146799117Y-62281159D01*
X146641667Y-62242258D01*
X146429471Y-62219730D01*
X146389440Y-62218329D01*
X146225528Y-62206410D01*
X146185153Y-62176981D01*
X146218741Y-62146296D01*
X146384265Y-62087175D01*
X146600955Y-62101989D01*
G37*
G36*
X128991211Y-65013975D02*
G01*
X129055179Y-65150038D01*
X129113971Y-65339696D01*
X129126973Y-65495208D01*
X129123740Y-65512356D01*
X129133391Y-65655811D01*
X129201810Y-65828724D01*
X129203183Y-65831130D01*
X129273817Y-65987536D01*
X129262684Y-66113618D01*
X129223884Y-66196307D01*
X129167142Y-66374286D01*
X129223117Y-66476361D01*
X129387434Y-66496900D01*
X129450173Y-66487667D01*
X129690686Y-66493375D01*
X129800821Y-66547643D01*
X129977112Y-66630426D01*
X130104763Y-66652996D01*
X130275462Y-66657587D01*
X130104763Y-66755167D01*
X129824642Y-66847272D01*
X129537258Y-66804536D01*
X129374072Y-66723792D01*
X129193216Y-66574170D01*
X129053979Y-66393946D01*
X129049046Y-66384689D01*
X128989280Y-66208492D01*
X128938174Y-65951589D01*
X128900517Y-65658945D01*
X128881101Y-65375522D01*
X128884715Y-65146283D01*
X128905445Y-65036904D01*
X128944862Y-64974425D01*
X128991211Y-65013975D01*
G37*
G36*
X134242473Y-54797160D02*
G01*
X134508615Y-54926120D01*
X134577074Y-54976941D01*
X134743902Y-55098742D01*
X134873835Y-55174662D01*
X134910791Y-55186579D01*
X134920130Y-55211171D01*
X134850193Y-55250060D01*
X134724070Y-55276249D01*
X134499811Y-55297539D01*
X134215826Y-55310838D01*
X134061314Y-55313540D01*
X133728952Y-55321422D01*
X133488931Y-55344532D01*
X133297228Y-55390747D01*
X133109822Y-55467943D01*
X133058606Y-55492945D01*
X132805571Y-55647575D01*
X132560586Y-55842098D01*
X132464823Y-55936959D01*
X132332019Y-56068428D01*
X132243615Y-56126188D01*
X132221429Y-56111136D01*
X132269801Y-55998583D01*
X132397703Y-55826567D01*
X132579313Y-55622512D01*
X132788807Y-55413842D01*
X133000365Y-55227981D01*
X133170217Y-55103490D01*
X133405157Y-54980424D01*
X133555622Y-54962770D01*
X133572029Y-54969909D01*
X133704244Y-54970925D01*
X133801064Y-54899457D01*
X134000806Y-54787692D01*
X134242473Y-54797160D01*
G37*
G36*
X132865716Y-54630716D02*
G01*
X132963044Y-54808307D01*
X132936166Y-54998149D01*
X132782198Y-55211164D01*
X132688672Y-55301447D01*
X132490122Y-55517826D01*
X132312836Y-55772328D01*
X132253331Y-55883608D01*
X132164397Y-56065200D01*
X132111391Y-56135455D01*
X132077675Y-56109074D01*
X132060139Y-56054307D01*
X132035404Y-55894787D01*
X132021350Y-55687052D01*
X132153509Y-55687052D01*
X132184638Y-55690246D01*
X132260378Y-55599220D01*
X132272998Y-55580388D01*
X132396396Y-55400362D01*
X132541313Y-55199448D01*
X132559186Y-55175452D01*
X132642347Y-55051765D01*
X132657574Y-54999648D01*
X132640025Y-55005569D01*
X132543064Y-55096591D01*
X132415670Y-55252822D01*
X132288111Y-55431865D01*
X132190653Y-55591324D01*
X132153509Y-55687052D01*
X132021350Y-55687052D01*
X132019970Y-55666657D01*
X132017523Y-55547469D01*
X132022762Y-55374478D01*
X132051597Y-55238689D01*
X132122106Y-55112127D01*
X132252368Y-54966818D01*
X132460460Y-54774790D01*
X132591390Y-54659479D01*
X132711940Y-54564828D01*
X132787357Y-54559088D01*
X132865716Y-54630716D01*
G37*
G36*
X160718538Y-64820659D02*
G01*
X160961773Y-64854398D01*
X161098547Y-64931554D01*
X161157456Y-65075351D01*
X161166829Y-65184737D01*
X161159594Y-65262222D01*
X161114965Y-65244712D01*
X161017999Y-65133655D01*
X160801389Y-64952469D01*
X160564083Y-64898844D01*
X160326618Y-64975374D01*
X160244263Y-65035959D01*
X160132611Y-65146115D01*
X160072780Y-65262207D01*
X160049007Y-65431208D01*
X160045354Y-65628675D01*
X160053088Y-65875279D01*
X160084671Y-66028851D01*
X160152675Y-66132451D01*
X160206547Y-66180824D01*
X160437494Y-66290610D01*
X160700837Y-66302764D01*
X160941440Y-66218511D01*
X161013937Y-66162889D01*
X161120164Y-66084303D01*
X161171180Y-66088249D01*
X161171967Y-66095613D01*
X161112926Y-66194320D01*
X160965472Y-66300509D01*
X160774104Y-66390326D01*
X160583324Y-66439916D01*
X160523311Y-66443326D01*
X160316700Y-66419144D01*
X160165275Y-66377661D01*
X159994098Y-66248182D01*
X159847521Y-66033441D01*
X159755266Y-65784641D01*
X159738351Y-65642233D01*
X159795315Y-65310316D01*
X159959125Y-65055836D01*
X160217912Y-64888745D01*
X160559804Y-64818990D01*
X160718538Y-64820659D01*
G37*
G36*
X154548849Y-64838525D02*
G01*
X154548849Y-65062841D01*
X154527445Y-65226573D01*
X154476935Y-65284356D01*
X154417869Y-65224533D01*
X154392721Y-65151419D01*
X154294610Y-65013094D01*
X154121606Y-64929984D01*
X153931168Y-64923673D01*
X153857463Y-64950356D01*
X153752169Y-65058295D01*
X153775498Y-65193306D01*
X153924445Y-65346102D01*
X154003085Y-65400399D01*
X154328093Y-65626154D01*
X154531483Y-65816674D01*
X154619595Y-65984422D01*
X154598767Y-66141862D01*
X154475341Y-66301458D01*
X154465905Y-66310357D01*
X154346350Y-66393938D01*
X154192423Y-66431674D01*
X153956942Y-66434124D01*
X153920084Y-66432506D01*
X153525486Y-66413769D01*
X153525410Y-66174791D01*
X153525333Y-65935812D01*
X153678623Y-66115909D01*
X153885284Y-66287802D01*
X154096443Y-66332762D01*
X154271313Y-66265791D01*
X154389376Y-66144304D01*
X154385305Y-66020655D01*
X154255183Y-65882405D01*
X154122101Y-65791673D01*
X153805160Y-65576009D01*
X153610613Y-65392672D01*
X153531791Y-65229377D01*
X153562022Y-65073838D01*
X153662224Y-64944749D01*
X153779957Y-64860580D01*
X153941046Y-64823916D01*
X154174321Y-64822853D01*
X154548849Y-64838525D01*
G37*
G36*
X129631271Y-62920713D02*
G01*
X129603330Y-63037010D01*
X129554025Y-63145178D01*
X129407872Y-63541416D01*
X129359411Y-63942376D01*
X129406453Y-64318162D01*
X129546811Y-64638877D01*
X129674583Y-64792130D01*
X129909647Y-65014038D01*
X129717017Y-65008648D01*
X129543258Y-64992736D01*
X129437211Y-64968209D01*
X129354100Y-64889407D01*
X129250512Y-64734029D01*
X129215303Y-64669062D01*
X129105064Y-64323138D01*
X129084983Y-63933671D01*
X129154974Y-63559611D01*
X129217128Y-63409468D01*
X129311143Y-63220478D01*
X129346233Y-63129593D01*
X129327520Y-63114308D01*
X129278298Y-63140744D01*
X129182190Y-63254625D01*
X129083055Y-63454712D01*
X128999737Y-63692411D01*
X128951077Y-63919131D01*
X128945509Y-63998976D01*
X128935498Y-64162327D01*
X128884149Y-64227343D01*
X128755405Y-64232146D01*
X128726985Y-64230013D01*
X128530233Y-64166562D01*
X128438830Y-64022037D01*
X128456523Y-63806609D01*
X128516049Y-63657636D01*
X128643834Y-63472460D01*
X128826536Y-63293492D01*
X129027030Y-63148968D01*
X129208190Y-63067129D01*
X129299967Y-63061358D01*
X129439844Y-63037304D01*
X129496096Y-62992742D01*
X129593735Y-62901243D01*
X129631271Y-62920713D01*
G37*
G36*
X168293078Y-64888494D02*
G01*
X168350091Y-64916154D01*
X168535742Y-65076404D01*
X168679062Y-65316671D01*
X168748679Y-65580851D01*
X168750999Y-65633112D01*
X168689662Y-65931861D01*
X168524710Y-66177544D01*
X168284732Y-66351312D01*
X167998314Y-66434314D01*
X167694046Y-66407702D01*
X167616747Y-66380990D01*
X167386919Y-66218113D01*
X167237064Y-65959742D01*
X167180692Y-65629680D01*
X167180569Y-65612518D01*
X167183779Y-65560562D01*
X167453687Y-65560562D01*
X167489471Y-65924111D01*
X167599588Y-66176922D01*
X167788187Y-66325399D01*
X167979046Y-66371709D01*
X168080911Y-66335727D01*
X168225632Y-66237006D01*
X168251027Y-66215821D01*
X168358049Y-66108582D01*
X168415424Y-65991455D01*
X168438146Y-65818207D01*
X168441465Y-65628554D01*
X168434637Y-65384706D01*
X168404157Y-65230908D01*
X168335033Y-65120927D01*
X168251027Y-65041287D01*
X168034147Y-64905174D01*
X167838080Y-64899460D01*
X167642701Y-65024268D01*
X167621283Y-65045074D01*
X167513049Y-65186271D01*
X167463457Y-65360116D01*
X167453687Y-65560562D01*
X167183779Y-65560562D01*
X167194589Y-65385622D01*
X167255174Y-65225627D01*
X167390107Y-65064174D01*
X167412720Y-65041350D01*
X167678983Y-64857036D01*
X167973723Y-64805912D01*
X168293078Y-64888494D01*
G37*
G36*
X164824152Y-64840289D02*
G01*
X165039117Y-64871992D01*
X165151347Y-64912000D01*
X165194042Y-64981638D01*
X165200462Y-65081979D01*
X165200462Y-65276652D01*
X165000875Y-65077065D01*
X164775486Y-64915244D01*
X164553774Y-64889097D01*
X164328522Y-64998702D01*
X164231085Y-65085275D01*
X164110435Y-65219543D01*
X164053679Y-65342875D01*
X164043843Y-65510834D01*
X164054099Y-65664593D01*
X164116491Y-65990089D01*
X164246535Y-66206468D01*
X164454301Y-66328440D01*
X164520741Y-66346165D01*
X164761680Y-66351372D01*
X164923410Y-66251419D01*
X164993637Y-66055097D01*
X164995623Y-66006567D01*
X164965070Y-65814487D01*
X164891265Y-65670596D01*
X164888326Y-65667571D01*
X164837325Y-65603768D01*
X164866392Y-65572295D01*
X164998047Y-65562474D01*
X165110235Y-65562351D01*
X165297570Y-65569376D01*
X165363816Y-65590717D01*
X165324136Y-65631556D01*
X165319951Y-65634023D01*
X165235482Y-65737370D01*
X165201963Y-65934931D01*
X165200462Y-66009175D01*
X165189600Y-66206403D01*
X165142675Y-66313553D01*
X165038178Y-66376325D01*
X165025318Y-66381320D01*
X164706175Y-66443822D01*
X164374920Y-66412679D01*
X164129416Y-66314748D01*
X163907958Y-66135009D01*
X163794783Y-65913478D01*
X163766846Y-65650113D01*
X163822513Y-65312854D01*
X163982236Y-65058491D01*
X164236197Y-64894543D01*
X164574582Y-64828529D01*
X164824152Y-64840289D01*
G37*
G36*
X135293742Y-55249433D02*
G01*
X135294010Y-55253738D01*
X135237475Y-55377664D01*
X135092258Y-55526380D01*
X134894934Y-55670287D01*
X134682084Y-55779788D01*
X134614882Y-55803264D01*
X134430413Y-55847013D01*
X134257387Y-55852102D01*
X134041672Y-55816455D01*
X133869464Y-55774711D01*
X133562619Y-55701738D01*
X133365081Y-55667263D01*
X133283038Y-55671627D01*
X133322678Y-55715172D01*
X133382182Y-55747802D01*
X133529613Y-55867936D01*
X133577970Y-56005971D01*
X133523974Y-56124597D01*
X133419880Y-56177042D01*
X133215010Y-56200347D01*
X133044601Y-56191969D01*
X132887488Y-56193831D01*
X132817377Y-56270894D01*
X132813942Y-56282740D01*
X132734044Y-56386846D01*
X132578318Y-56487193D01*
X132547597Y-56500930D01*
X132275130Y-56675381D01*
X132062616Y-56952684D01*
X131912888Y-57302310D01*
X131831608Y-57524816D01*
X131778553Y-57623476D01*
X131757188Y-57596167D01*
X131770980Y-57440762D01*
X131779969Y-57383796D01*
X131891124Y-56999616D01*
X132085354Y-56596393D01*
X132331944Y-56229540D01*
X132548266Y-55997723D01*
X132828999Y-55765364D01*
X133076958Y-55605843D01*
X133330878Y-55505513D01*
X133629492Y-55450726D01*
X134011535Y-55427837D01*
X134174357Y-55424808D01*
X134540939Y-55415338D01*
X134798800Y-55394901D01*
X134975588Y-55359737D01*
X135098953Y-55306084D01*
X135113201Y-55297102D01*
X135239695Y-55234025D01*
X135293742Y-55249433D01*
G37*
G36*
X131012660Y-62516034D02*
G01*
X131431440Y-62652805D01*
X131841894Y-62914805D01*
X132078732Y-63130096D01*
X132377899Y-63434924D01*
X131849950Y-63272034D01*
X131527586Y-63165991D01*
X131316335Y-63075606D01*
X131194229Y-62985916D01*
X131139299Y-62881955D01*
X131128956Y-62780902D01*
X131105077Y-62654645D01*
X131037480Y-62650847D01*
X130932222Y-62764801D01*
X130795362Y-62991804D01*
X130753418Y-63072576D01*
X130627864Y-63301051D01*
X130524374Y-63430275D01*
X130416555Y-63488669D01*
X130356682Y-63499751D01*
X130136655Y-63481151D01*
X130012691Y-63365779D01*
X129987163Y-63156213D01*
X129993730Y-63105378D01*
X130009621Y-62958967D01*
X129988325Y-62935648D01*
X129964307Y-62965651D01*
X129932801Y-63090973D01*
X129925739Y-63311129D01*
X129938068Y-63519363D01*
X129955806Y-63769446D01*
X129947996Y-63915832D01*
X129910442Y-63989705D01*
X129871750Y-64012247D01*
X129795175Y-64106657D01*
X129764327Y-64281237D01*
X129779350Y-64487431D01*
X129840387Y-64676681D01*
X129869656Y-64725727D01*
X129927539Y-64841834D01*
X129897458Y-64873521D01*
X129802764Y-64815470D01*
X129741817Y-64754834D01*
X129618598Y-64539425D01*
X129538434Y-64238247D01*
X129508884Y-63897399D01*
X129537505Y-63562977D01*
X129542389Y-63538573D01*
X129662812Y-63154918D01*
X129850627Y-62872870D01*
X130124482Y-62666472D01*
X130195076Y-62630113D01*
X130596793Y-62507476D01*
X131012660Y-62516034D01*
G37*
G36*
X171353769Y-64816729D02*
G01*
X171522030Y-64843548D01*
X171640823Y-64903095D01*
X171724264Y-64976795D01*
X171859593Y-65182457D01*
X171872252Y-65381444D01*
X171774996Y-65549503D01*
X171580577Y-65662383D01*
X171345623Y-65696834D01*
X171170826Y-65703673D01*
X171093323Y-65748823D01*
X171073856Y-65869228D01*
X171073550Y-65952882D01*
X171094830Y-66190557D01*
X171166770Y-66330720D01*
X171277343Y-66398141D01*
X171273612Y-66419476D01*
X171159284Y-66434959D01*
X171004225Y-66440442D01*
X170797492Y-66436750D01*
X170712715Y-66418422D01*
X170735733Y-66381792D01*
X170748177Y-66374160D01*
X170804196Y-66321931D01*
X170839812Y-66226244D01*
X170859302Y-66060393D01*
X170866947Y-65797671D01*
X170867666Y-65628554D01*
X170864201Y-65309604D01*
X170863035Y-65291186D01*
X171072505Y-65291186D01*
X171078254Y-65492345D01*
X171107225Y-65592142D01*
X171177006Y-65625659D01*
X171241629Y-65628554D01*
X171420723Y-65566815D01*
X171516562Y-65467072D01*
X171577754Y-65272698D01*
X171537310Y-65080264D01*
X171410304Y-64939951D01*
X171350145Y-64913054D01*
X171202174Y-64893592D01*
X171115538Y-64962943D01*
X171077426Y-65138554D01*
X171072505Y-65291186D01*
X170863035Y-65291186D01*
X170850955Y-65100396D01*
X170823646Y-64974225D01*
X170777995Y-64904384D01*
X170748177Y-64882948D01*
X170716736Y-64845308D01*
X170789621Y-64822761D01*
X170980147Y-64812537D01*
X171092678Y-64811276D01*
X171353769Y-64816729D01*
G37*
G36*
X169367410Y-64820358D02*
G01*
X169452186Y-64838686D01*
X169429169Y-64875316D01*
X169416725Y-64882948D01*
X169353917Y-64944633D01*
X169317143Y-65059171D01*
X169300354Y-65256807D01*
X169297236Y-65480195D01*
X169313575Y-65842980D01*
X169368706Y-66089664D01*
X169471793Y-66237452D01*
X169632005Y-66303550D01*
X169740048Y-66311350D01*
X169930723Y-66292216D01*
X170059185Y-66220868D01*
X170136790Y-66076388D01*
X170174898Y-65837857D01*
X170184870Y-65492125D01*
X170181315Y-65197284D01*
X170167296Y-65012131D01*
X170137783Y-64909903D01*
X170087749Y-64863836D01*
X170065381Y-64856266D01*
X170053041Y-64837200D01*
X170154004Y-64823173D01*
X170253150Y-64819196D01*
X170430646Y-64821785D01*
X170486960Y-64842141D01*
X170440918Y-64882948D01*
X170380837Y-64940663D01*
X170344438Y-65047222D01*
X170326408Y-65231518D01*
X170321432Y-65522442D01*
X170321429Y-65532631D01*
X170317685Y-65822958D01*
X170301076Y-66012788D01*
X170263537Y-66138099D01*
X170197005Y-66234868D01*
X170153834Y-66280314D01*
X169930298Y-66415051D01*
X169660758Y-66449084D01*
X169392964Y-66381002D01*
X169272304Y-66306394D01*
X169182898Y-66226061D01*
X169129210Y-66135077D01*
X169102120Y-65998165D01*
X169092506Y-65780048D01*
X169091351Y-65606529D01*
X169085448Y-65290624D01*
X169064162Y-65083559D01*
X169019999Y-64957840D01*
X168945465Y-64885976D01*
X168887558Y-64858968D01*
X168891289Y-64837632D01*
X169005618Y-64822150D01*
X169160677Y-64816666D01*
X169367410Y-64820358D01*
G37*
G36*
X156045609Y-64996968D02*
G01*
X156031309Y-65102031D01*
X156002801Y-65086309D01*
X156001231Y-65082318D01*
X155916121Y-64955860D01*
X155762380Y-64893281D01*
X155555972Y-64878525D01*
X155299924Y-64877479D01*
X155299924Y-65184737D01*
X155299924Y-65491995D01*
X155567352Y-65491995D01*
X155749687Y-65471911D01*
X155859505Y-65421350D01*
X155869220Y-65406646D01*
X155890899Y-65411585D01*
X155904837Y-65524660D01*
X155906973Y-65594415D01*
X155902718Y-65756588D01*
X155880060Y-65797899D01*
X155840691Y-65748044D01*
X155708389Y-65652207D01*
X155535510Y-65628554D01*
X155299924Y-65628554D01*
X155299924Y-66004092D01*
X155299924Y-66379630D01*
X155576302Y-66379630D01*
X155806622Y-66349577D01*
X155978966Y-66240748D01*
X156020120Y-66198960D01*
X156138621Y-66080539D01*
X156181038Y-66072307D01*
X156154994Y-66179843D01*
X156120969Y-66272765D01*
X156083975Y-66354703D01*
X156029713Y-66405609D01*
X155929502Y-66432336D01*
X155754659Y-66441738D01*
X155476503Y-66440666D01*
X155421103Y-66439989D01*
X155162553Y-66433612D01*
X154980755Y-66422882D01*
X154898607Y-66409542D01*
X154907316Y-66400842D01*
X154960544Y-66371588D01*
X154995356Y-66300951D01*
X155015501Y-66164693D01*
X155024731Y-65938575D01*
X155026806Y-65628554D01*
X155024331Y-65297793D01*
X155014409Y-65079301D01*
X154993287Y-64948841D01*
X154957217Y-64882173D01*
X154907316Y-64856266D01*
X154917122Y-64842173D01*
X155040577Y-64829628D01*
X155254770Y-64820382D01*
X155419413Y-64817120D01*
X156050999Y-64809199D01*
X156045609Y-64996968D01*
G37*
G36*
X157195570Y-64939227D02*
G01*
X157282719Y-65117988D01*
X157397707Y-65367285D01*
X157511831Y-65623745D01*
X157643873Y-65913219D01*
X157764622Y-66156372D01*
X157859671Y-66325474D01*
X157910355Y-66390844D01*
X157903306Y-66422686D01*
X157781311Y-66442074D01*
X157655569Y-66445818D01*
X157457532Y-66437354D01*
X157389572Y-66411004D01*
X157414115Y-66382604D01*
X157477402Y-66301923D01*
X157458695Y-66162852D01*
X157446960Y-66127601D01*
X157386374Y-66005896D01*
X157286435Y-65944483D01*
X157101533Y-65917748D01*
X157069261Y-65915509D01*
X156871664Y-65911855D01*
X156762024Y-65947122D01*
X156693219Y-66040196D01*
X156677948Y-66072351D01*
X156609398Y-66251245D01*
X156617081Y-66348318D01*
X156705022Y-66397653D01*
X156716725Y-66400842D01*
X156730148Y-66420552D01*
X156630069Y-66435612D01*
X156538462Y-66439989D01*
X156358021Y-66441607D01*
X156293882Y-66424190D01*
X156325887Y-66373910D01*
X156375832Y-66328420D01*
X156456802Y-66218043D01*
X156570866Y-66012253D01*
X156670470Y-65806710D01*
X156802074Y-65806710D01*
X156862779Y-65823327D01*
X157014653Y-65832657D01*
X157079222Y-65833393D01*
X157243455Y-65822436D01*
X157324458Y-65794948D01*
X157325547Y-65782183D01*
X157282095Y-65691774D01*
X157210111Y-65526510D01*
X157181478Y-65458258D01*
X157068233Y-65185542D01*
X156935154Y-65482784D01*
X156857122Y-65662177D01*
X156809238Y-65782093D01*
X156802074Y-65806710D01*
X156670470Y-65806710D01*
X156701425Y-65742831D01*
X156804796Y-65507131D01*
X156925912Y-65232318D01*
X157032184Y-65017751D01*
X157111373Y-64886472D01*
X157149278Y-64858476D01*
X157195570Y-64939227D01*
G37*
G36*
X161876565Y-64819102D02*
G01*
X161947739Y-64839461D01*
X161912457Y-64879091D01*
X161905972Y-64882948D01*
X161821198Y-64987027D01*
X161787850Y-65185952D01*
X161786483Y-65256409D01*
X161786483Y-65560275D01*
X162162021Y-65560275D01*
X162537558Y-65560275D01*
X162537558Y-65223883D01*
X162526122Y-65008956D01*
X162484671Y-64896252D01*
X162418069Y-64856266D01*
X162412422Y-64839660D01*
X162519332Y-64828335D01*
X162674117Y-64825041D01*
X162856764Y-64829664D01*
X162947835Y-64841657D01*
X162937173Y-64854917D01*
X162845110Y-64915870D01*
X162785550Y-65053468D01*
X162753575Y-65287435D01*
X162744262Y-65628554D01*
X162754009Y-65975892D01*
X162786529Y-66207565D01*
X162846740Y-66343297D01*
X162937173Y-66402192D01*
X162938977Y-66419013D01*
X162829009Y-66432197D01*
X162674117Y-66437912D01*
X162467405Y-66435613D01*
X162382779Y-66417922D01*
X162406288Y-66381364D01*
X162418069Y-66374160D01*
X162497381Y-66282528D01*
X162533071Y-66107476D01*
X162537558Y-65966559D01*
X162537558Y-65628554D01*
X162162021Y-65628554D01*
X161786483Y-65628554D01*
X161786483Y-65966559D01*
X161802546Y-66200267D01*
X161857080Y-66332991D01*
X161905972Y-66374160D01*
X161944587Y-66413989D01*
X161877625Y-66434940D01*
X161690923Y-66440682D01*
X161649924Y-66440442D01*
X161465313Y-66432607D01*
X161370374Y-66415677D01*
X161376806Y-66398141D01*
X161467542Y-66347734D01*
X161526802Y-66261867D01*
X161561077Y-66114506D01*
X161576858Y-65879616D01*
X161580599Y-65580737D01*
X161577144Y-65274082D01*
X161562403Y-65076051D01*
X161531662Y-64958869D01*
X161480206Y-64894759D01*
X161462155Y-64882948D01*
X161419530Y-64841693D01*
X161482253Y-64820058D01*
X161665193Y-64813380D01*
X161684064Y-64813352D01*
X161876565Y-64819102D01*
G37*
G36*
X158837800Y-64817238D02*
G01*
X159016959Y-64843316D01*
X159135403Y-64897528D01*
X159191859Y-64945759D01*
X159309130Y-65139892D01*
X159299213Y-65339771D01*
X159167878Y-65519975D01*
X159042673Y-65603224D01*
X158987150Y-65649050D01*
X158991283Y-65720697D01*
X159064480Y-65847893D01*
X159165252Y-65990593D01*
X159320412Y-66180182D01*
X159470755Y-66324897D01*
X159553417Y-66378645D01*
X159634378Y-66418349D01*
X159604321Y-66437053D01*
X159459257Y-66443581D01*
X159318967Y-66434814D01*
X159210369Y-66385491D01*
X159098708Y-66269983D01*
X158955915Y-66072372D01*
X158774343Y-65832405D01*
X158643342Y-65716841D01*
X158558685Y-65725003D01*
X158516144Y-65856212D01*
X158509064Y-66000699D01*
X158530575Y-66228811D01*
X158601160Y-66354728D01*
X158628553Y-66374160D01*
X158667302Y-66414068D01*
X158600680Y-66435308D01*
X158414440Y-66441628D01*
X158372505Y-66441505D01*
X158170383Y-66435844D01*
X158091759Y-66419600D01*
X158123745Y-66389055D01*
X158150596Y-66377502D01*
X158220670Y-66340783D01*
X158265429Y-66280456D01*
X158290511Y-66169234D01*
X158301556Y-65979828D01*
X158304203Y-65684953D01*
X158304220Y-65645295D01*
X158501347Y-65645295D01*
X158692974Y-65599048D01*
X158865040Y-65526756D01*
X158969951Y-65441068D01*
X159048502Y-65274953D01*
X159004614Y-65117225D01*
X158914543Y-65009840D01*
X158752453Y-64891225D01*
X158632863Y-64902229D01*
X158555622Y-65042957D01*
X158522275Y-65279097D01*
X158501347Y-65645295D01*
X158304220Y-65645295D01*
X158304225Y-65634147D01*
X158300815Y-65313795D01*
X158287764Y-65103304D01*
X158260844Y-64976085D01*
X158215824Y-64905546D01*
X158184736Y-64882948D01*
X158155652Y-64846083D01*
X158230993Y-64823550D01*
X158423635Y-64812891D01*
X158560273Y-64811276D01*
X158837800Y-64817238D01*
G37*
G36*
X166163168Y-64823443D02*
G01*
X166381787Y-64847728D01*
X166506114Y-64881943D01*
X166659036Y-65029147D01*
X166714246Y-65224196D01*
X166673188Y-65421980D01*
X166537307Y-65577392D01*
X166482887Y-65606983D01*
X166411180Y-65648456D01*
X166400133Y-65705224D01*
X166458032Y-65808704D01*
X166579150Y-65971950D01*
X166740738Y-66159803D01*
X166901171Y-66308702D01*
X166978854Y-66361094D01*
X167079943Y-66416594D01*
X167074768Y-66440566D01*
X166949971Y-66446592D01*
X166894476Y-66446903D01*
X166750342Y-66436531D01*
X166639718Y-66386801D01*
X166527178Y-66271860D01*
X166382379Y-66073180D01*
X166204181Y-65836324D01*
X166078940Y-65721589D01*
X165999792Y-65728338D01*
X165959869Y-65855934D01*
X165951537Y-66033225D01*
X165962973Y-66248153D01*
X166004424Y-66360856D01*
X166071026Y-66400842D01*
X166076673Y-66417448D01*
X165969764Y-66428774D01*
X165814978Y-66432068D01*
X165633685Y-66427254D01*
X165545289Y-66414761D01*
X165558929Y-66400842D01*
X165612157Y-66371588D01*
X165646969Y-66300951D01*
X165667114Y-66164693D01*
X165676344Y-65938575D01*
X165678418Y-65628554D01*
X165675944Y-65297793D01*
X165675573Y-65289615D01*
X165951537Y-65289615D01*
X165955854Y-65492650D01*
X165978896Y-65588831D01*
X166035797Y-65607815D01*
X166105166Y-65590659D01*
X166265193Y-65524077D01*
X166344144Y-65475278D01*
X166421711Y-65337424D01*
X166421824Y-65156502D01*
X166351322Y-64996885D01*
X166287599Y-64942903D01*
X166119678Y-64887805D01*
X166013039Y-64942711D01*
X165960342Y-65115189D01*
X165951537Y-65289615D01*
X165675573Y-65289615D01*
X165666022Y-65079301D01*
X165644900Y-64948841D01*
X165608830Y-64882173D01*
X165558929Y-64856266D01*
X165560000Y-64840061D01*
X165673683Y-64826294D01*
X165876034Y-64817674D01*
X165904816Y-64817120D01*
X166163168Y-64823443D01*
G37*
G36*
X146537441Y-62611747D02*
G01*
X146837664Y-62811465D01*
X147068804Y-63109823D01*
X147144945Y-63275006D01*
X147220738Y-63592957D01*
X147235339Y-63950723D01*
X147192462Y-64299626D01*
X147095823Y-64590989D01*
X147037057Y-64688648D01*
X146961553Y-64811010D01*
X146958284Y-64866032D01*
X146974437Y-64864559D01*
X147135693Y-64744629D01*
X147265062Y-64520358D01*
X147347106Y-64222969D01*
X147364297Y-64076112D01*
X147369545Y-63833721D01*
X147341497Y-63607499D01*
X147270700Y-63352469D01*
X147147705Y-63023656D01*
X147138134Y-62999791D01*
X147083220Y-62863232D01*
X147238622Y-62999791D01*
X147448603Y-63248112D01*
X147589452Y-63545795D01*
X147663441Y-63868593D01*
X147672842Y-64192261D01*
X147619927Y-64492551D01*
X147506967Y-64745220D01*
X147336236Y-64926020D01*
X147110003Y-65010705D01*
X147049890Y-65014038D01*
X146922800Y-64973040D01*
X146881019Y-64922497D01*
X146882980Y-64788543D01*
X146906808Y-64734728D01*
X146943570Y-64611687D01*
X146965840Y-64412373D01*
X146968771Y-64314173D01*
X146958258Y-64108072D01*
X146919025Y-64009607D01*
X146863263Y-63989845D01*
X146808316Y-63970911D01*
X146783268Y-63895561D01*
X146784548Y-63735967D01*
X146802993Y-63520137D01*
X146818244Y-63252182D01*
X146809484Y-63039539D01*
X146783680Y-62933217D01*
X146743158Y-62890178D01*
X146725356Y-62960186D01*
X146724461Y-63103765D01*
X146694928Y-63350957D01*
X146591918Y-63483394D01*
X146414085Y-63502275D01*
X146309230Y-63474022D01*
X146141719Y-63359191D01*
X146018445Y-63136026D01*
X146015439Y-63128027D01*
X145927651Y-62924943D01*
X145836957Y-62762837D01*
X145814697Y-62732817D01*
X145743365Y-62665791D01*
X145691014Y-62696558D01*
X145632485Y-62820009D01*
X145544955Y-62972368D01*
X145411626Y-63087027D01*
X145202850Y-63182009D01*
X144888979Y-63275332D01*
X144879102Y-63277911D01*
X144629286Y-63341412D01*
X144498731Y-63362780D01*
X144474343Y-63333520D01*
X144543033Y-63245136D01*
X144651987Y-63130539D01*
X145018238Y-62820865D01*
X145408535Y-62615228D01*
X145804251Y-62512549D01*
X146186762Y-62511749D01*
X146537441Y-62611747D01*
G37*
G36*
X162508713Y-63716832D02*
G01*
X163817370Y-63717187D01*
X165001569Y-63717848D01*
X166067361Y-63718873D01*
X167020796Y-63720317D01*
X167867925Y-63722239D01*
X168614799Y-63724694D01*
X169267467Y-63727740D01*
X169831982Y-63731434D01*
X170314393Y-63735832D01*
X170720751Y-63740991D01*
X171057106Y-63746969D01*
X171329509Y-63753823D01*
X171544011Y-63761608D01*
X171706662Y-63770383D01*
X171823514Y-63780203D01*
X171900615Y-63791126D01*
X171944018Y-63803210D01*
X171959772Y-63816509D01*
X171960139Y-63819146D01*
X171948899Y-63832680D01*
X171911147Y-63844987D01*
X171840831Y-63856124D01*
X171731902Y-63866147D01*
X171578307Y-63875114D01*
X171373998Y-63883080D01*
X171112923Y-63890104D01*
X170789031Y-63896242D01*
X170396273Y-63901551D01*
X169928596Y-63906088D01*
X169379952Y-63909909D01*
X168744289Y-63913073D01*
X168015557Y-63915634D01*
X167187705Y-63917652D01*
X166254683Y-63919181D01*
X165210439Y-63920280D01*
X164048924Y-63921005D01*
X162764086Y-63921413D01*
X161349876Y-63921562D01*
X161069548Y-63921565D01*
X159630382Y-63921459D01*
X158321725Y-63921104D01*
X157137526Y-63920443D01*
X156071734Y-63919419D01*
X155118299Y-63917974D01*
X154271170Y-63916053D01*
X153524296Y-63913598D01*
X152871628Y-63910552D01*
X152307113Y-63906858D01*
X151824702Y-63902460D01*
X151418344Y-63897300D01*
X151081989Y-63891322D01*
X150809586Y-63884469D01*
X150595084Y-63876683D01*
X150432433Y-63867909D01*
X150315582Y-63858088D01*
X150238480Y-63847165D01*
X150195077Y-63835082D01*
X150179323Y-63821782D01*
X150178956Y-63819146D01*
X150190196Y-63805611D01*
X150227948Y-63793304D01*
X150298264Y-63782167D01*
X150407193Y-63772144D01*
X150560788Y-63763178D01*
X150765097Y-63755211D01*
X151026172Y-63748187D01*
X151350064Y-63742049D01*
X151742823Y-63736740D01*
X152210499Y-63732204D01*
X152759143Y-63728382D01*
X153394806Y-63725219D01*
X154123538Y-63722657D01*
X154951390Y-63720640D01*
X155884412Y-63719110D01*
X156928656Y-63718011D01*
X158090171Y-63717286D01*
X159375009Y-63716878D01*
X160789219Y-63716730D01*
X161069548Y-63716726D01*
X162508713Y-63716832D01*
G37*
G36*
X138561422Y-54178941D02*
G01*
X139143213Y-54230618D01*
X139666088Y-54331610D01*
X139956838Y-54423987D01*
X140084953Y-54490274D01*
X140103380Y-54568837D01*
X140076318Y-54630428D01*
X140043627Y-54832563D01*
X140070843Y-54935604D01*
X140107784Y-55054122D01*
X140068364Y-55077113D01*
X139952955Y-55038299D01*
X139421662Y-54887156D01*
X138818416Y-54799934D01*
X138185143Y-54776924D01*
X137563768Y-54818419D01*
X136996217Y-54924710D01*
X136709429Y-55015705D01*
X136507293Y-55088234D01*
X136413395Y-55106586D01*
X136410508Y-55070499D01*
X136454141Y-55011830D01*
X136506464Y-54855946D01*
X136495697Y-54681889D01*
X136495479Y-54680725D01*
X136690430Y-54680725D01*
X136741807Y-54757170D01*
X136796160Y-54772103D01*
X136885193Y-54722944D01*
X136895664Y-54708541D01*
X136893535Y-54669683D01*
X139663902Y-54669683D01*
X139718558Y-54760206D01*
X139766322Y-54772103D01*
X139856845Y-54717447D01*
X139868741Y-54669683D01*
X139814086Y-54579160D01*
X139766322Y-54567264D01*
X139675799Y-54621920D01*
X139663902Y-54669683D01*
X136893535Y-54669683D01*
X136891229Y-54627599D01*
X136809143Y-54584356D01*
X136726767Y-54602092D01*
X136690430Y-54680725D01*
X136495479Y-54680725D01*
X136455311Y-54466615D01*
X137298184Y-54466615D01*
X137304580Y-54561315D01*
X137398278Y-54628989D01*
X137500838Y-54617658D01*
X137547236Y-54537154D01*
X137519596Y-54464980D01*
X138104277Y-54464980D01*
X138150429Y-54577026D01*
X138257763Y-54625228D01*
X138280251Y-54622736D01*
X138392422Y-54545230D01*
X139006348Y-54545230D01*
X139095141Y-54625281D01*
X139155835Y-54635544D01*
X139235600Y-54578693D01*
X139254225Y-54498984D01*
X139205635Y-54389139D01*
X139102148Y-54365147D01*
X139015246Y-54430705D01*
X139006348Y-54545230D01*
X138392422Y-54545230D01*
X138394204Y-54543999D01*
X138422062Y-54480924D01*
X138390827Y-54365981D01*
X138285499Y-54307277D01*
X138165760Y-54333600D01*
X138148096Y-54348769D01*
X138104277Y-54464980D01*
X137519596Y-54464980D01*
X137501743Y-54418364D01*
X137473007Y-54392888D01*
X137370749Y-54389806D01*
X137298184Y-54466615D01*
X136455311Y-54466615D01*
X136452873Y-54453619D01*
X136880565Y-54332258D01*
X137388296Y-54228514D01*
X137962515Y-54177824D01*
X138561422Y-54178941D01*
G37*
G36*
X144030887Y-54542951D02*
G01*
X144031523Y-54549338D01*
X144086269Y-54632675D01*
X144222731Y-54748692D01*
X144312131Y-54809537D01*
X144583035Y-55049345D01*
X144730787Y-55348020D01*
X144754451Y-55703495D01*
X144746628Y-55765711D01*
X144692253Y-56013765D01*
X144614309Y-56130226D01*
X144498674Y-56119730D01*
X144331229Y-55986916D01*
X144267867Y-55922959D01*
X143942230Y-55639012D01*
X143588660Y-55450960D01*
X143174702Y-55346142D01*
X142702343Y-55312200D01*
X142461190Y-55303714D01*
X142223069Y-55286258D01*
X142012022Y-55263273D01*
X141852090Y-55238204D01*
X141767314Y-55214491D01*
X141781735Y-55195577D01*
X141839023Y-55188586D01*
X141944368Y-55144537D01*
X142105657Y-55040659D01*
X142190246Y-54976941D01*
X142454098Y-54816662D01*
X142690399Y-54783796D01*
X142916602Y-54876824D01*
X142961481Y-54909864D01*
X143100894Y-54991515D01*
X143179403Y-54978394D01*
X143267812Y-54951245D01*
X143425383Y-55006612D01*
X143628251Y-55127037D01*
X143852555Y-55295060D01*
X144074431Y-55493224D01*
X144270015Y-55704070D01*
X144385638Y-55860874D01*
X144509863Y-56043462D01*
X144569637Y-56106435D01*
X144562586Y-56051813D01*
X144486333Y-55881616D01*
X144448950Y-55807034D01*
X144420885Y-55762156D01*
X144580031Y-55762156D01*
X144614171Y-55796296D01*
X144648311Y-55762156D01*
X144614171Y-55728017D01*
X144580031Y-55762156D01*
X144420885Y-55762156D01*
X144337373Y-55628617D01*
X144186901Y-55437089D01*
X144027817Y-55265632D01*
X143890404Y-55147427D01*
X143815994Y-55113501D01*
X143806527Y-55103629D01*
X144167080Y-55103629D01*
X144213347Y-55189009D01*
X144310721Y-55327903D01*
X144448264Y-55501454D01*
X144541688Y-55599004D01*
X144578527Y-55614148D01*
X144546311Y-55540484D01*
X144454108Y-55401556D01*
X144322417Y-55236622D01*
X144198196Y-55110538D01*
X144194419Y-55107436D01*
X144167080Y-55103629D01*
X143806527Y-55103629D01*
X143764563Y-55059872D01*
X143765416Y-54942802D01*
X144033795Y-54942802D01*
X144067935Y-54976941D01*
X144102074Y-54942802D01*
X144067935Y-54908662D01*
X144033795Y-54942802D01*
X143765416Y-54942802D01*
X143765510Y-54929918D01*
X143811320Y-54770037D01*
X143894474Y-54626627D01*
X143894964Y-54626038D01*
X143986679Y-54539235D01*
X144030887Y-54542951D01*
G37*
G36*
X162495913Y-67608678D02*
G01*
X163791961Y-67608781D01*
X164963936Y-67609047D01*
X166018080Y-67609555D01*
X166960635Y-67610383D01*
X167797844Y-67611610D01*
X168535950Y-67613314D01*
X169181195Y-67615572D01*
X169739822Y-67618465D01*
X170218074Y-67622069D01*
X170622193Y-67626463D01*
X170958422Y-67631725D01*
X171233003Y-67637934D01*
X171452180Y-67645168D01*
X171622194Y-67653505D01*
X171749289Y-67663023D01*
X171839707Y-67673801D01*
X171899691Y-67685917D01*
X171935483Y-67699449D01*
X171953326Y-67714475D01*
X171959463Y-67731075D01*
X171960139Y-67745221D01*
X171958811Y-67763106D01*
X171950664Y-67779358D01*
X171929457Y-67794053D01*
X171888946Y-67807272D01*
X171822889Y-67819090D01*
X171725043Y-67829588D01*
X171589166Y-67838844D01*
X171409015Y-67846934D01*
X171178347Y-67853939D01*
X170890919Y-67859936D01*
X170540490Y-67865003D01*
X170120816Y-67869219D01*
X169625655Y-67872662D01*
X169048764Y-67875411D01*
X168383900Y-67877543D01*
X167624821Y-67879136D01*
X166765285Y-67880270D01*
X165799047Y-67881022D01*
X164719867Y-67881471D01*
X163521501Y-67881695D01*
X162197707Y-67881772D01*
X161069548Y-67881780D01*
X159643182Y-67881763D01*
X158347134Y-67881661D01*
X157175159Y-67881395D01*
X156121015Y-67880887D01*
X155178460Y-67880059D01*
X154341251Y-67878832D01*
X153603145Y-67877128D01*
X152957900Y-67874869D01*
X152399273Y-67871977D01*
X151921021Y-67868373D01*
X151516902Y-67863979D01*
X151180673Y-67858717D01*
X150906092Y-67852508D01*
X150686915Y-67845274D01*
X150516901Y-67836937D01*
X150389806Y-67827419D01*
X150299388Y-67816641D01*
X150239404Y-67804525D01*
X150203612Y-67790993D01*
X150185769Y-67775966D01*
X150179632Y-67759367D01*
X150178956Y-67745221D01*
X150180284Y-67727336D01*
X150188431Y-67711084D01*
X150209638Y-67696389D01*
X150250149Y-67683170D01*
X150316206Y-67671352D01*
X150414052Y-67660854D01*
X150549929Y-67651598D01*
X150730080Y-67643508D01*
X150960748Y-67636503D01*
X151248176Y-67630506D01*
X151598605Y-67625439D01*
X152018279Y-67621223D01*
X152513440Y-67617780D01*
X153090331Y-67615031D01*
X153755195Y-67612899D01*
X154514274Y-67611306D01*
X155373810Y-67610172D01*
X156340048Y-67609420D01*
X157419228Y-67608971D01*
X158617594Y-67608747D01*
X159941388Y-67608670D01*
X161069548Y-67608662D01*
X162495913Y-67608678D01*
G37*
G36*
X136171358Y-59425468D02*
G01*
X136490816Y-59460602D01*
X136717405Y-59526623D01*
X136872328Y-59629637D01*
X136974490Y-59771268D01*
X137041767Y-60019245D01*
X136997569Y-60242586D01*
X136866863Y-60422332D01*
X136674616Y-60539526D01*
X136445795Y-60575209D01*
X136205366Y-60510423D01*
X136094733Y-60439307D01*
X135857707Y-60320287D01*
X135609690Y-60333832D01*
X135396429Y-60439307D01*
X135131735Y-60555327D01*
X134877711Y-60560543D01*
X134666827Y-60455681D01*
X134633291Y-60422237D01*
X134481822Y-60208172D01*
X134458666Y-60082276D01*
X134763584Y-60082276D01*
X134850193Y-60097909D01*
X134940716Y-60152565D01*
X134952612Y-60200328D01*
X134989481Y-60291193D01*
X135020892Y-60302748D01*
X135081468Y-60247444D01*
X135083589Y-60234468D01*
X136386483Y-60234468D01*
X136435489Y-60300793D01*
X136450733Y-60302748D01*
X136543206Y-60253116D01*
X136557182Y-60234468D01*
X136541703Y-60176014D01*
X136492932Y-60166189D01*
X136399511Y-60201837D01*
X136386483Y-60234468D01*
X135083589Y-60234468D01*
X135089171Y-60200328D01*
X135143827Y-60109806D01*
X135191591Y-60097909D01*
X135282455Y-60061040D01*
X135294010Y-60029630D01*
X136181644Y-60029630D01*
X136230650Y-60095955D01*
X136245894Y-60097909D01*
X136338368Y-60048277D01*
X136352343Y-60029630D01*
X136591322Y-60029630D01*
X136640328Y-60095955D01*
X136655572Y-60097909D01*
X136748045Y-60048277D01*
X136762021Y-60029630D01*
X136746542Y-59971175D01*
X136697771Y-59961350D01*
X136604350Y-59996999D01*
X136591322Y-60029630D01*
X136352343Y-60029630D01*
X136336864Y-59971175D01*
X136288093Y-59961350D01*
X136194672Y-59996999D01*
X136181644Y-60029630D01*
X135294010Y-60029630D01*
X135238706Y-59969053D01*
X135191591Y-59961350D01*
X135101068Y-59906694D01*
X135089171Y-59858931D01*
X135082460Y-59824791D01*
X136386483Y-59824791D01*
X136435489Y-59891116D01*
X136450733Y-59893070D01*
X136543206Y-59843438D01*
X136557182Y-59824791D01*
X136541703Y-59766337D01*
X136492932Y-59756511D01*
X136399511Y-59792160D01*
X136386483Y-59824791D01*
X135082460Y-59824791D01*
X135071759Y-59770353D01*
X135007023Y-59783408D01*
X134884332Y-59893070D01*
X134771655Y-60020258D01*
X134763584Y-60082276D01*
X134458666Y-60082276D01*
X134444720Y-60006452D01*
X134502128Y-59796074D01*
X134592929Y-59644557D01*
X134732352Y-59537133D01*
X134941164Y-59467402D01*
X135240133Y-59428960D01*
X135650025Y-59415404D01*
X135737827Y-59415113D01*
X136171358Y-59425468D01*
G37*
G36*
X138417119Y-53301675D02*
G01*
X138601256Y-53479359D01*
X138664438Y-53556967D01*
X138779297Y-53692156D01*
X138856091Y-53731150D01*
X138935506Y-53689318D01*
X138959907Y-53668584D01*
X138971200Y-53660287D01*
X139124589Y-53660287D01*
X139193006Y-53645961D01*
X139205960Y-53641100D01*
X139289571Y-53587009D01*
X139290172Y-53556257D01*
X139217941Y-53563916D01*
X139167737Y-53602877D01*
X139124589Y-53660287D01*
X138971200Y-53660287D01*
X139125175Y-53547163D01*
X139234894Y-53482373D01*
X139340854Y-53442890D01*
X139399671Y-53488353D01*
X139444095Y-53627228D01*
X139489534Y-53763214D01*
X139561653Y-53829113D01*
X139703900Y-53850958D01*
X139821893Y-53853568D01*
X140009492Y-53845057D01*
X140124624Y-53819774D01*
X140141859Y-53802359D01*
X140194205Y-53749416D01*
X140210139Y-53747909D01*
X140271912Y-53780588D01*
X140231271Y-53883585D01*
X140106925Y-54040320D01*
X139939747Y-54230311D01*
X139511637Y-54113813D01*
X139153933Y-54046351D01*
X138709123Y-54006662D01*
X138222994Y-53994785D01*
X137741333Y-54010762D01*
X137309926Y-54054634D01*
X137025283Y-54111590D01*
X136771396Y-54179835D01*
X136621804Y-54213298D01*
X136548927Y-54212660D01*
X136525187Y-54178605D01*
X136523042Y-54124025D01*
X136470317Y-54010850D01*
X136386483Y-53936902D01*
X136270275Y-53837976D01*
X136267008Y-53768666D01*
X136352343Y-53747909D01*
X136443329Y-53775677D01*
X136454763Y-53799119D01*
X136513817Y-53837700D01*
X136642531Y-53854721D01*
X136820697Y-53868571D01*
X136930083Y-53888861D01*
X137016241Y-53856081D01*
X137086810Y-53695621D01*
X137095754Y-53662560D01*
X137126373Y-53570773D01*
X137226093Y-53570773D01*
X137274117Y-53611350D01*
X137383066Y-53672761D01*
X137397581Y-53649632D01*
X137376537Y-53611350D01*
X137276820Y-53546432D01*
X137253018Y-53544116D01*
X137226093Y-53570773D01*
X137126373Y-53570773D01*
X137150223Y-53499280D01*
X137203790Y-53411390D01*
X137215504Y-53406511D01*
X137294962Y-53447981D01*
X137433609Y-53552818D01*
X137505427Y-53613776D01*
X137741488Y-53821040D01*
X137861465Y-53617936D01*
X137963622Y-53480509D01*
X138078259Y-53441085D01*
X138191086Y-53454419D01*
X138375404Y-53506559D01*
X138503150Y-53568571D01*
X138537780Y-53578585D01*
X138487031Y-53504476D01*
X138474624Y-53489719D01*
X138329734Y-53378875D01*
X138202041Y-53381255D01*
X138105359Y-53402723D01*
X138121150Y-53354416D01*
X138152387Y-53315376D01*
X138269876Y-53248136D01*
X138417119Y-53301675D01*
G37*
G36*
X147012436Y-58289818D02*
G01*
X147095431Y-58350744D01*
X147167592Y-58447370D01*
X147132522Y-58510727D01*
X147117938Y-58520312D01*
X147090643Y-58568745D01*
X147191160Y-58608881D01*
X147222170Y-58615503D01*
X147457432Y-58703830D01*
X147652607Y-58849945D01*
X147770603Y-59021315D01*
X147789171Y-59112811D01*
X147749558Y-59245649D01*
X147631595Y-59267679D01*
X147436595Y-59179007D01*
X147281981Y-59071816D01*
X147106581Y-58952760D01*
X146964235Y-58879750D01*
X146919484Y-58868877D01*
X146852666Y-58894680D01*
X146900866Y-58965745D01*
X147054013Y-59072555D01*
X147246687Y-59178036D01*
X147520873Y-59357267D01*
X147699756Y-59580380D01*
X147719811Y-59617835D01*
X147823707Y-59907917D01*
X147857253Y-60204967D01*
X147820408Y-60466899D01*
X147720892Y-60644146D01*
X147567904Y-60765723D01*
X147472719Y-60764265D01*
X147432998Y-60638491D01*
X147435931Y-60487984D01*
X147435193Y-60237122D01*
X147403447Y-59995432D01*
X147394473Y-59958817D01*
X147362367Y-59857699D01*
X147343632Y-59852723D01*
X147335576Y-59956599D01*
X147335510Y-60182035D01*
X147336113Y-60234468D01*
X147332557Y-60516934D01*
X147317157Y-60772350D01*
X147293202Y-60947039D01*
X147292158Y-60951404D01*
X147241824Y-61156242D01*
X147339231Y-60985611D01*
X147436637Y-60814980D01*
X147481193Y-60992505D01*
X147481475Y-61168989D01*
X147385728Y-61374776D01*
X147355143Y-61421432D01*
X147246164Y-61588412D01*
X147174214Y-61710499D01*
X147162526Y-61735659D01*
X147087640Y-61783360D01*
X146924414Y-61830399D01*
X146838588Y-61846434D01*
X146536661Y-61894386D01*
X146750530Y-61627733D01*
X146913346Y-61361081D01*
X147106375Y-61361081D01*
X147140515Y-61395221D01*
X147174655Y-61361081D01*
X147140515Y-61326941D01*
X147106375Y-61361081D01*
X146913346Y-61361081D01*
X146996729Y-61224522D01*
X147174655Y-61224522D01*
X147208795Y-61258662D01*
X147242935Y-61224522D01*
X147208795Y-61190382D01*
X147174655Y-61224522D01*
X146996729Y-61224522D01*
X147005429Y-61210273D01*
X147144194Y-60733084D01*
X147174655Y-60330689D01*
X147136678Y-59878855D01*
X147072003Y-59654092D01*
X147242935Y-59654092D01*
X147277074Y-59688232D01*
X147311214Y-59654092D01*
X147277074Y-59619952D01*
X147242935Y-59654092D01*
X147072003Y-59654092D01*
X147013961Y-59452378D01*
X146793325Y-59012103D01*
X146659615Y-58800597D01*
X146454933Y-58493339D01*
X146901537Y-58493339D01*
X146935677Y-58527479D01*
X146969816Y-58493339D01*
X146935677Y-58459199D01*
X146901537Y-58493339D01*
X146454933Y-58493339D01*
X146363963Y-58356780D01*
X146673015Y-58297065D01*
X146882760Y-58268489D01*
X147012436Y-58289818D01*
G37*
G36*
X163990617Y-55265805D02*
G01*
X164035561Y-55474195D01*
X164062859Y-55745087D01*
X164104054Y-56305725D01*
X164134677Y-56744779D01*
X164155127Y-57076782D01*
X164165807Y-57316268D01*
X164167118Y-57477769D01*
X164159462Y-57575818D01*
X164143239Y-57624949D01*
X164118852Y-57639695D01*
X164115200Y-57639845D01*
X164029076Y-57583938D01*
X163995536Y-57520355D01*
X163861879Y-57184552D01*
X163686690Y-56832794D01*
X163496868Y-56514593D01*
X163324298Y-56284932D01*
X163115099Y-56094766D01*
X162850968Y-55908598D01*
X162685079Y-55815400D01*
X162480358Y-55723011D01*
X162296026Y-55666288D01*
X162086456Y-55636863D01*
X161806026Y-55626371D01*
X161649924Y-55625597D01*
X161324300Y-55630451D01*
X161089435Y-55650590D01*
X160899706Y-55694379D01*
X160709487Y-55770184D01*
X160614768Y-55815400D01*
X160172714Y-56101019D01*
X159811383Y-56485896D01*
X159528925Y-56973685D01*
X159323488Y-57568038D01*
X159193219Y-58272610D01*
X159153609Y-58698178D01*
X159154156Y-59405106D01*
X159248442Y-60059806D01*
X159431725Y-60646037D01*
X159699266Y-61147557D01*
X159962142Y-61468235D01*
X160379650Y-61795188D01*
X160870164Y-62025386D01*
X161406133Y-62154473D01*
X161960009Y-62178090D01*
X162504243Y-62091881D01*
X162923201Y-61936566D01*
X163094040Y-61826214D01*
X163320240Y-61642194D01*
X163567439Y-61413787D01*
X163725402Y-61252949D01*
X163973484Y-61002511D01*
X164154673Y-60847669D01*
X164264109Y-60790498D01*
X164296928Y-60833075D01*
X164248269Y-60977475D01*
X164215713Y-61043564D01*
X164082691Y-61245185D01*
X163877663Y-61494945D01*
X163635379Y-61755826D01*
X163390590Y-61990815D01*
X163178047Y-62162892D01*
X163143104Y-62186099D01*
X162667291Y-62423603D01*
X162133462Y-62566050D01*
X161518306Y-62619229D01*
X161396029Y-62619760D01*
X161055667Y-62607032D01*
X160718956Y-62576894D01*
X160441164Y-62534884D01*
X160358261Y-62515817D01*
X159792455Y-62294864D01*
X159277004Y-61957289D01*
X158825854Y-61518084D01*
X158452952Y-60992244D01*
X158172245Y-60394761D01*
X158064502Y-60049895D01*
X158003778Y-59705272D01*
X157971359Y-59279648D01*
X157967971Y-58825768D01*
X157994339Y-58396377D01*
X158037728Y-58104093D01*
X158196683Y-57587808D01*
X158451660Y-57059490D01*
X158776552Y-56568204D01*
X158987694Y-56318540D01*
X159499642Y-55866566D01*
X160072940Y-55529968D01*
X160691081Y-55311929D01*
X161337557Y-55215636D01*
X161995859Y-55244276D01*
X162649478Y-55401032D01*
X163002575Y-55543752D01*
X163285703Y-55652541D01*
X163489854Y-55667332D01*
X163638965Y-55583888D01*
X163750698Y-55411330D01*
X163851089Y-55237477D01*
X163930094Y-55187934D01*
X163990617Y-55265805D01*
G37*
G36*
X130049423Y-58287744D02*
G01*
X130087556Y-58292663D01*
X130441404Y-58339602D01*
X130206657Y-58626080D01*
X130045229Y-58852557D01*
X129878654Y-59131716D01*
X129783877Y-59317464D01*
X129688018Y-59545076D01*
X129630801Y-59752238D01*
X129602741Y-59989943D01*
X129594353Y-60309183D01*
X129594254Y-60336888D01*
X129611709Y-60749205D01*
X129677321Y-61075830D01*
X129807314Y-61363839D01*
X130017908Y-61660311D01*
X130073429Y-61727501D01*
X130179486Y-61858176D01*
X130230406Y-61930311D01*
X130230321Y-61935589D01*
X130155723Y-61913778D01*
X130007583Y-61869225D01*
X130002343Y-61867637D01*
X129832315Y-61832556D01*
X129715650Y-61835882D01*
X129632735Y-61806085D01*
X129591443Y-61732766D01*
X129520015Y-61592758D01*
X129399631Y-61422351D01*
X129377904Y-61395881D01*
X129262079Y-61209886D01*
X129234551Y-61050336D01*
X129299185Y-60949114D01*
X129322540Y-60938994D01*
X129388615Y-60980698D01*
X129464125Y-61113814D01*
X129482437Y-61160357D01*
X129545279Y-61309358D01*
X129592201Y-61377434D01*
X129599830Y-61376677D01*
X129594458Y-61301859D01*
X129545560Y-61151186D01*
X129525283Y-61100640D01*
X129469640Y-60894912D01*
X129430286Y-60606844D01*
X129415108Y-60322011D01*
X129410434Y-60064838D01*
X129402421Y-59931603D01*
X129387564Y-59909684D01*
X129362359Y-59986459D01*
X129343387Y-60063769D01*
X129310610Y-60302007D01*
X129314801Y-60530314D01*
X129319200Y-60558796D01*
X129320861Y-60726278D01*
X129255066Y-60783366D01*
X129137687Y-60727852D01*
X129017245Y-60600798D01*
X128894043Y-60342146D01*
X128880918Y-60047004D01*
X128968175Y-59744485D01*
X129003825Y-59688232D01*
X129421967Y-59688232D01*
X129446949Y-59744434D01*
X129467487Y-59733751D01*
X129475658Y-59652720D01*
X129467487Y-59642712D01*
X129426894Y-59652085D01*
X129421967Y-59688232D01*
X129003825Y-59688232D01*
X129146121Y-59463698D01*
X129405061Y-59233756D01*
X129489280Y-59183251D01*
X129724836Y-59043946D01*
X129856118Y-58941224D01*
X129875599Y-58882229D01*
X129818604Y-58870776D01*
X129714947Y-58910677D01*
X129552543Y-59009906D01*
X129461013Y-59075615D01*
X129221349Y-59229158D01*
X129053416Y-59274699D01*
X128961298Y-59211942D01*
X128944010Y-59112811D01*
X129006331Y-58936087D01*
X129171051Y-58773670D01*
X129404801Y-58654573D01*
X129502544Y-58627197D01*
X129627263Y-58583237D01*
X129642320Y-58537737D01*
X129635901Y-58533101D01*
X129614431Y-58493339D01*
X129763365Y-58493339D01*
X129797505Y-58527479D01*
X129831644Y-58493339D01*
X129797505Y-58459199D01*
X129763365Y-58493339D01*
X129614431Y-58493339D01*
X129596738Y-58460573D01*
X129646122Y-58365505D01*
X129723267Y-58295866D01*
X129843748Y-58272248D01*
X130049423Y-58287744D01*
G37*
G36*
X153177867Y-64996968D02*
G01*
X153163567Y-65102031D01*
X153135059Y-65086309D01*
X153133489Y-65082318D01*
X153048380Y-64955860D01*
X152894638Y-64893281D01*
X152688230Y-64878525D01*
X152432182Y-64877479D01*
X152432182Y-65184737D01*
X152432182Y-65491995D01*
X152699610Y-65491995D01*
X152881946Y-65471911D01*
X152991763Y-65421350D01*
X153001478Y-65406646D01*
X153023157Y-65411585D01*
X153037095Y-65524660D01*
X153039231Y-65594415D01*
X153034976Y-65756588D01*
X153012318Y-65797899D01*
X152972949Y-65748044D01*
X152840647Y-65652207D01*
X152667768Y-65628554D01*
X152432182Y-65628554D01*
X152432182Y-66004092D01*
X152432182Y-66379630D01*
X152708560Y-66379630D01*
X152938880Y-66349577D01*
X153111224Y-66240748D01*
X153152378Y-66198960D01*
X153270879Y-66080539D01*
X153313296Y-66072307D01*
X153287252Y-66179843D01*
X153253227Y-66272765D01*
X153221861Y-66345405D01*
X153177048Y-66394537D01*
X153094707Y-66424758D01*
X152950759Y-66440663D01*
X152721124Y-66446847D01*
X152381722Y-66447908D01*
X152335548Y-66447909D01*
X151484459Y-66447909D01*
X151224315Y-66073180D01*
X151046116Y-65836324D01*
X150920876Y-65721589D01*
X150841727Y-65728338D01*
X150801805Y-65855934D01*
X150793472Y-66033225D01*
X150804908Y-66248153D01*
X150846359Y-66360856D01*
X150912962Y-66400842D01*
X150918608Y-66417448D01*
X150811699Y-66428774D01*
X150656913Y-66432068D01*
X150475621Y-66427254D01*
X150387224Y-66414761D01*
X150400865Y-66400842D01*
X150454093Y-66371588D01*
X150488904Y-66300951D01*
X150509050Y-66164693D01*
X150518279Y-65938575D01*
X150520354Y-65628554D01*
X150517880Y-65297793D01*
X150517509Y-65289615D01*
X150793472Y-65289615D01*
X150797790Y-65492650D01*
X150820831Y-65588831D01*
X150877732Y-65607815D01*
X150947101Y-65590659D01*
X151107129Y-65524077D01*
X151186080Y-65475278D01*
X151263646Y-65337424D01*
X151263760Y-65156502D01*
X151193258Y-64996885D01*
X151129535Y-64942903D01*
X150961614Y-64887805D01*
X150854974Y-64942711D01*
X150802278Y-65115189D01*
X150793472Y-65289615D01*
X150517509Y-65289615D01*
X150507957Y-65079301D01*
X150486836Y-64948841D01*
X150450765Y-64882173D01*
X150400865Y-64856266D01*
X150401935Y-64840061D01*
X150515619Y-64826294D01*
X150717969Y-64817674D01*
X150746751Y-64817120D01*
X151005104Y-64823443D01*
X151223723Y-64847728D01*
X151348049Y-64881943D01*
X151493907Y-65022049D01*
X151553335Y-65209859D01*
X151527740Y-65400931D01*
X151418531Y-65550821D01*
X151325342Y-65598974D01*
X151241088Y-65636718D01*
X151239461Y-65699746D01*
X151310403Y-65822195D01*
X151540976Y-66129506D01*
X151765034Y-66317903D01*
X151966999Y-66379630D01*
X152159064Y-66379630D01*
X152159064Y-65633561D01*
X152156618Y-65301536D01*
X152146806Y-65081863D01*
X152125914Y-64950384D01*
X152090229Y-64882941D01*
X152039574Y-64856266D01*
X152049380Y-64842173D01*
X152172835Y-64829628D01*
X152387028Y-64820382D01*
X152551671Y-64817120D01*
X153183257Y-64809199D01*
X153177867Y-64996968D01*
G37*
G36*
X156373287Y-55211410D02*
G01*
X156396083Y-55301269D01*
X156402900Y-55409404D01*
X156419158Y-55626040D01*
X156442703Y-55923612D01*
X156471378Y-56274556D01*
X156484153Y-56427882D01*
X156516885Y-56871006D01*
X156528084Y-57183621D01*
X156515432Y-57370419D01*
X156476613Y-57436089D01*
X156409307Y-57385325D01*
X156311200Y-57222816D01*
X156201627Y-56999834D01*
X155908683Y-56491416D01*
X155557851Y-56104127D01*
X155139209Y-55831238D01*
X154642834Y-55666018D01*
X154144691Y-55604840D01*
X153797524Y-55598054D01*
X153528821Y-55620135D01*
X153282335Y-55677548D01*
X153159654Y-55718051D01*
X152661760Y-55964380D01*
X152235962Y-56325654D01*
X151884425Y-56799524D01*
X151609316Y-57383640D01*
X151599224Y-57411217D01*
X151508721Y-57758895D01*
X151446930Y-58196214D01*
X151415552Y-58678951D01*
X151416284Y-59162888D01*
X151450824Y-59603804D01*
X151503805Y-59895304D01*
X151716723Y-60525994D01*
X152013723Y-61081444D01*
X152383794Y-61546663D01*
X152815927Y-61906657D01*
X153096548Y-62064102D01*
X153307488Y-62154475D01*
X153498634Y-62209517D01*
X153716439Y-62237334D01*
X154007357Y-62246032D01*
X154139171Y-62246043D01*
X154507936Y-62235616D01*
X154790418Y-62202845D01*
X155036087Y-62140197D01*
X155180435Y-62087508D01*
X155573042Y-61931646D01*
X155573042Y-60643685D01*
X155569525Y-60226016D01*
X155559748Y-59845247D01*
X155544874Y-59526490D01*
X155526064Y-59294858D01*
X155505197Y-59177277D01*
X155382377Y-59018737D01*
X155170518Y-58888426D01*
X154917106Y-58811354D01*
X154790020Y-58800597D01*
X154651090Y-58765366D01*
X154617128Y-58698178D01*
X154633631Y-58663232D01*
X154694117Y-58637072D01*
X154815054Y-58618493D01*
X155012907Y-58606290D01*
X155304145Y-58599259D01*
X155705233Y-58596195D01*
X156016859Y-58595759D01*
X156494458Y-58596966D01*
X156851979Y-58601392D01*
X157105890Y-58610241D01*
X157272656Y-58624718D01*
X157368747Y-58646028D01*
X157410627Y-58675376D01*
X157416591Y-58698178D01*
X157355706Y-58779599D01*
X157215559Y-58800597D01*
X157016749Y-58848127D01*
X156822952Y-58965297D01*
X156631375Y-59129997D01*
X156608473Y-60601293D01*
X156585570Y-62072589D01*
X156040483Y-62282797D01*
X155736082Y-62391808D01*
X155430043Y-62487679D01*
X155181258Y-62552183D01*
X155149362Y-62558629D01*
X154846299Y-62595709D01*
X154456903Y-62614431D01*
X154024885Y-62615596D01*
X153593957Y-62600005D01*
X153207830Y-62568458D01*
X152910216Y-62521755D01*
X152891082Y-62517277D01*
X152240371Y-62291050D01*
X151650474Y-61942604D01*
X151307919Y-61658143D01*
X150839022Y-61135020D01*
X150496372Y-60560506D01*
X150278577Y-59931369D01*
X150184245Y-59244381D01*
X150179767Y-59041054D01*
X150243992Y-58345376D01*
X150427224Y-57681980D01*
X150718435Y-57066314D01*
X151106598Y-56513822D01*
X151580685Y-56039951D01*
X152129667Y-55660147D01*
X152742517Y-55389856D01*
X152799524Y-55371708D01*
X153483387Y-55231647D01*
X154192859Y-55224163D01*
X154921611Y-55349059D01*
X155251050Y-55447353D01*
X155540175Y-55538054D01*
X155787642Y-55603236D01*
X155961140Y-55635077D01*
X156020580Y-55633618D01*
X156105075Y-55544259D01*
X156163338Y-55388230D01*
X156221885Y-55247314D01*
X156303719Y-55183946D01*
X156373287Y-55211410D01*
G37*
G36*
X168618827Y-55242996D02*
G01*
X168708416Y-55418726D01*
X168839126Y-55697097D01*
X169005661Y-56066234D01*
X169202725Y-56514262D01*
X169425023Y-57029307D01*
X169667260Y-57599495D01*
X169877417Y-58100732D01*
X170133873Y-58714052D01*
X170381848Y-59303524D01*
X170614873Y-59854023D01*
X170826482Y-60350425D01*
X171010208Y-60777607D01*
X171159582Y-61120443D01*
X171268139Y-61363809D01*
X171319634Y-61473482D01*
X171525076Y-61829362D01*
X171736720Y-62068284D01*
X171974386Y-62209168D01*
X172137765Y-62254520D01*
X172296913Y-62309178D01*
X172369102Y-62384937D01*
X172369816Y-62392874D01*
X172348131Y-62425593D01*
X172272632Y-62450124D01*
X172127659Y-62467528D01*
X171897549Y-62478866D01*
X171566640Y-62485199D01*
X171119270Y-62487588D01*
X170970085Y-62487694D01*
X170485795Y-62486170D01*
X170122580Y-62480911D01*
X169864981Y-62470884D01*
X169697541Y-62455056D01*
X169604803Y-62432396D01*
X169571308Y-62401870D01*
X169570354Y-62394209D01*
X169632091Y-62319993D01*
X169791157Y-62265278D01*
X169815425Y-62260954D01*
X170007215Y-62212695D01*
X170147905Y-62148069D01*
X170156823Y-62141240D01*
X170236142Y-61996164D01*
X170236767Y-61754711D01*
X170158027Y-61412645D01*
X169999250Y-60965733D01*
X169951885Y-60848984D01*
X169655388Y-60132049D01*
X168269035Y-60132049D01*
X166882682Y-60132049D01*
X166589755Y-60803888D01*
X166405745Y-61248958D01*
X166292154Y-61590788D01*
X166250550Y-61844072D01*
X166282504Y-62023501D01*
X166389586Y-62143770D01*
X166573364Y-62219570D01*
X166744615Y-62253464D01*
X166949340Y-62304700D01*
X167040931Y-62376030D01*
X167044010Y-62393027D01*
X167020600Y-62429018D01*
X166938927Y-62454979D01*
X166781829Y-62472354D01*
X166532143Y-62482584D01*
X166172704Y-62487112D01*
X165917397Y-62487694D01*
X165491003Y-62485841D01*
X165183587Y-62479274D01*
X164977603Y-62466484D01*
X164855509Y-62445960D01*
X164799758Y-62416191D01*
X164790784Y-62390700D01*
X164849852Y-62309302D01*
X164991924Y-62249528D01*
X164992416Y-62249420D01*
X165100518Y-62223557D01*
X165197780Y-62190362D01*
X165289266Y-62140509D01*
X165380038Y-62064675D01*
X165475161Y-61953535D01*
X165579698Y-61797764D01*
X165698712Y-61588040D01*
X165837266Y-61315037D01*
X166000424Y-60969431D01*
X166193248Y-60541897D01*
X166420804Y-60023112D01*
X166588452Y-59634727D01*
X167112289Y-59634727D01*
X167176871Y-59652285D01*
X167355834Y-59667422D01*
X167627012Y-59679117D01*
X167968233Y-59686348D01*
X168273042Y-59688232D01*
X168654031Y-59685382D01*
X168982579Y-59677485D01*
X169236493Y-59665520D01*
X169393585Y-59650464D01*
X169434636Y-59637022D01*
X169409798Y-59546613D01*
X169340423Y-59360006D01*
X169235950Y-59098961D01*
X169105815Y-58785237D01*
X168959458Y-58440595D01*
X168806316Y-58086794D01*
X168655828Y-57745593D01*
X168517430Y-57438752D01*
X168400562Y-57188030D01*
X168314661Y-57015188D01*
X168269166Y-56941984D01*
X168265466Y-56941464D01*
X168225147Y-57017678D01*
X168142491Y-57196388D01*
X168027309Y-57454679D01*
X167889415Y-57769633D01*
X167738621Y-58118333D01*
X167584738Y-58477863D01*
X167437581Y-58825304D01*
X167306960Y-59137740D01*
X167202688Y-59392255D01*
X167134578Y-59565930D01*
X167112289Y-59634727D01*
X166588452Y-59634727D01*
X166688153Y-59403752D01*
X167000359Y-58674491D01*
X167245273Y-58100732D01*
X167502026Y-57503128D01*
X167744085Y-56947723D01*
X167965905Y-56446681D01*
X168161943Y-56012166D01*
X168326654Y-55656342D01*
X168454495Y-55391372D01*
X168539922Y-55229421D01*
X168575654Y-55181780D01*
X168618827Y-55242996D01*
G37*
G36*
X140757928Y-58299391D02*
G01*
X140892935Y-58390920D01*
X140940831Y-58447530D01*
X140976041Y-58521031D01*
X141000499Y-58631581D01*
X141016139Y-58799337D01*
X141024895Y-59044458D01*
X141028701Y-59387101D01*
X141029494Y-59814208D01*
X141028259Y-60270178D01*
X141023444Y-60609043D01*
X141013382Y-60850242D01*
X140996408Y-61013216D01*
X140970855Y-61117404D01*
X140935059Y-61182248D01*
X140910005Y-61208542D01*
X140746163Y-61283296D01*
X140503450Y-61313110D01*
X140232286Y-61297007D01*
X139983090Y-61234009D01*
X139965453Y-61226847D01*
X139796095Y-61128751D01*
X139590103Y-60973298D01*
X139466728Y-60864113D01*
X139302703Y-60698123D01*
X139218659Y-60568317D01*
X139190817Y-60422093D01*
X139193002Y-60258593D01*
X139191959Y-60028430D01*
X139176061Y-59869792D01*
X139341517Y-59869792D01*
X139345088Y-60012870D01*
X139378709Y-60394137D01*
X139445284Y-60644821D01*
X139545527Y-60767039D01*
X139603983Y-60780705D01*
X139652690Y-60723445D01*
X139663902Y-60644146D01*
X139692496Y-60533194D01*
X139732182Y-60507587D01*
X139782274Y-60566357D01*
X139800462Y-60689979D01*
X139842455Y-60878000D01*
X139913463Y-60997237D01*
X140068384Y-61089313D01*
X140270905Y-61119509D01*
X140319735Y-61110644D01*
X140696059Y-61110644D01*
X140706084Y-61170354D01*
X140756375Y-61156242D01*
X140815786Y-61058800D01*
X140823610Y-60998584D01*
X140812560Y-60922170D01*
X140765357Y-60971803D01*
X140756375Y-60985544D01*
X140696059Y-61110644D01*
X140319735Y-61110644D01*
X140459355Y-61085296D01*
X140548541Y-61023294D01*
X140597185Y-60876407D01*
X140591086Y-60613909D01*
X140584026Y-60552164D01*
X140581639Y-60528556D01*
X140720074Y-60528556D01*
X140736508Y-60695260D01*
X140768507Y-60818098D01*
X140798114Y-60848984D01*
X140813662Y-60787742D01*
X140823215Y-60632119D01*
X140824655Y-60528070D01*
X140814951Y-60334038D01*
X140783747Y-60264668D01*
X140751613Y-60280198D01*
X140723633Y-60372148D01*
X140720074Y-60528556D01*
X140581639Y-60528556D01*
X140562165Y-60335923D01*
X140571654Y-60217103D01*
X140621143Y-60158466D01*
X140681082Y-60134275D01*
X140775643Y-60076531D01*
X140816454Y-59956437D01*
X140822484Y-59803120D01*
X140817168Y-59630019D01*
X140796198Y-59574072D01*
X140746603Y-59615897D01*
X140720064Y-59650072D01*
X140640137Y-59804926D01*
X140619816Y-59906121D01*
X140588543Y-60009782D01*
X140551537Y-60029630D01*
X140495820Y-59973952D01*
X140488544Y-59838892D01*
X140528832Y-59672410D01*
X140559298Y-59605451D01*
X140598743Y-59483570D01*
X140536521Y-59408294D01*
X140525158Y-59401708D01*
X140430873Y-59300235D01*
X140414978Y-59239448D01*
X140432153Y-59180057D01*
X140505305Y-59201060D01*
X140587807Y-59252090D01*
X140731833Y-59320670D01*
X140806821Y-59313858D01*
X140789389Y-59248461D01*
X140701046Y-59170693D01*
X140598605Y-59059905D01*
X140555997Y-58889063D01*
X140551537Y-58766615D01*
X140549413Y-58739338D01*
X140711987Y-58739338D01*
X140719442Y-58907588D01*
X140750617Y-58999587D01*
X140763197Y-59005436D01*
X140804101Y-58945464D01*
X140824223Y-58798318D01*
X140824655Y-58770487D01*
X140808781Y-58581218D01*
X140772932Y-58509851D01*
X140734768Y-58561268D01*
X140711987Y-58739338D01*
X140549413Y-58739338D01*
X140536571Y-58574382D01*
X140498941Y-58445255D01*
X140480255Y-58423204D01*
X140373033Y-58424972D01*
X140233676Y-58496662D01*
X140116134Y-58602188D01*
X140073580Y-58695217D01*
X140014359Y-58773452D01*
X139891077Y-58813132D01*
X139746306Y-58856796D01*
X139681387Y-58917568D01*
X139713632Y-58991664D01*
X139827545Y-59042413D01*
X139968642Y-59057014D01*
X140082440Y-59022667D01*
X140092235Y-59014093D01*
X140191307Y-58945283D01*
X140223795Y-58937156D01*
X140274674Y-58985924D01*
X140260788Y-59094084D01*
X140195039Y-59198063D01*
X140124946Y-59332220D01*
X140109690Y-59427638D01*
X140069561Y-59558512D01*
X140013835Y-59605428D01*
X139947815Y-59591685D01*
X139953399Y-59543138D01*
X139949020Y-59382623D01*
X139847213Y-59254940D01*
X139706222Y-59210275D01*
X139533119Y-59243299D01*
X139419551Y-59353298D01*
X139358142Y-59556665D01*
X139341517Y-59869792D01*
X139176061Y-59869792D01*
X139172479Y-59834054D01*
X139159549Y-59778593D01*
X139154071Y-59640286D01*
X139191456Y-59459239D01*
X139255240Y-59284716D01*
X139328954Y-59165984D01*
X139372331Y-59141995D01*
X139433050Y-59085087D01*
X139502599Y-58947181D01*
X139506194Y-58937816D01*
X139610222Y-58771539D01*
X139743072Y-58668684D01*
X139902698Y-58571851D01*
X140062956Y-58429828D01*
X140063677Y-58429046D01*
X140269042Y-58293095D01*
X140517526Y-58249092D01*
X140757928Y-58299391D01*
G37*
G36*
X131261937Y-55989135D02*
G01*
X131473756Y-56265654D01*
X131581464Y-56560017D01*
X131599986Y-56917293D01*
X131594803Y-56994193D01*
X131551707Y-57181558D01*
X131476954Y-57264469D01*
X131394457Y-57233906D01*
X131331209Y-57093608D01*
X131302506Y-57008205D01*
X131277277Y-57027915D01*
X131246184Y-57165949D01*
X131234707Y-57230167D01*
X131169270Y-57504201D01*
X131062824Y-57762875D01*
X130895376Y-58048054D01*
X130729266Y-58288501D01*
X130622480Y-58447081D01*
X130578717Y-58534315D01*
X130607303Y-58531406D01*
X130783203Y-58346116D01*
X130967328Y-58081784D01*
X131128009Y-57789968D01*
X131233575Y-57522228D01*
X131238638Y-57503597D01*
X131288250Y-57322783D01*
X131319299Y-57261513D01*
X131346345Y-57306849D01*
X131368824Y-57387920D01*
X131397683Y-57719391D01*
X131327123Y-58046246D01*
X131169234Y-58315788D01*
X131151501Y-58335072D01*
X131032502Y-58494790D01*
X130978823Y-58639045D01*
X130979374Y-58667406D01*
X130943800Y-58786885D01*
X130794880Y-58934792D01*
X130677737Y-59021060D01*
X130461399Y-59177615D01*
X130263163Y-59332286D01*
X130178663Y-59404304D01*
X130002343Y-59564194D01*
X130028505Y-59546843D01*
X130261143Y-59546843D01*
X130279216Y-59551673D01*
X130379827Y-59515544D01*
X130516181Y-59433521D01*
X130679720Y-59351664D01*
X130913219Y-59271720D01*
X131060540Y-59234405D01*
X131254343Y-59189414D01*
X131322286Y-59163046D01*
X131273017Y-59150357D01*
X131212113Y-59147718D01*
X130990626Y-59171554D01*
X130760564Y-59237124D01*
X130749854Y-59241504D01*
X130564465Y-59328820D01*
X130401678Y-59421693D01*
X130290800Y-59500807D01*
X130261143Y-59546843D01*
X130028505Y-59546843D01*
X130218189Y-59421042D01*
X130593288Y-59203111D01*
X130959382Y-59046487D01*
X131291685Y-58958090D01*
X131565410Y-58944840D01*
X131733701Y-58997952D01*
X131793509Y-59106674D01*
X131778630Y-59272670D01*
X131702407Y-59448820D01*
X131578189Y-59588003D01*
X131563745Y-59598007D01*
X131423660Y-59665503D01*
X131273160Y-59665020D01*
X131135009Y-59629833D01*
X130821011Y-59560480D01*
X130583931Y-59573977D01*
X130388511Y-59675295D01*
X130309370Y-59746238D01*
X130123341Y-60020400D01*
X130059495Y-60332564D01*
X130122658Y-60648787D01*
X130219367Y-60883124D01*
X130187995Y-60493474D01*
X130176111Y-60263985D01*
X130197312Y-60117045D01*
X130267215Y-59999764D01*
X130364419Y-59896028D01*
X130562519Y-59732396D01*
X130713250Y-59693986D01*
X130828022Y-59782758D01*
X130915333Y-59990699D01*
X130967265Y-60219116D01*
X130956365Y-60399105D01*
X130869537Y-60575279D01*
X130693690Y-60792257D01*
X130673469Y-60814845D01*
X130427854Y-61087963D01*
X130467924Y-60777618D01*
X130500949Y-60557106D01*
X130535746Y-60376029D01*
X130546387Y-60333801D01*
X130547522Y-60296163D01*
X130502400Y-60369413D01*
X130484410Y-60405167D01*
X130417967Y-60635334D01*
X130388789Y-60943353D01*
X130397259Y-61275590D01*
X130443760Y-61578413D01*
X130475251Y-61685409D01*
X130527179Y-61845711D01*
X130545820Y-61934907D01*
X130542810Y-61941458D01*
X130485373Y-61897473D01*
X130364027Y-61784764D01*
X130269047Y-61691513D01*
X129976387Y-61322166D01*
X129801702Y-60908079D01*
X129735867Y-60426114D01*
X129734839Y-60336888D01*
X129761601Y-59885619D01*
X129849622Y-59507959D01*
X130016614Y-59148087D01*
X130204830Y-58855574D01*
X130315166Y-58698178D01*
X130446160Y-58698178D01*
X130480300Y-58732318D01*
X130514440Y-58698178D01*
X130480300Y-58664038D01*
X130446160Y-58698178D01*
X130315166Y-58698178D01*
X130394626Y-58584828D01*
X130593506Y-58301298D01*
X130746270Y-58083662D01*
X130956788Y-57715884D01*
X131078413Y-57353767D01*
X131114136Y-57015772D01*
X131076580Y-56780660D01*
X131202626Y-56780660D01*
X131215180Y-56869220D01*
X131238488Y-56870277D01*
X131254787Y-56778892D01*
X131243878Y-56739408D01*
X131213560Y-56713545D01*
X131202626Y-56780660D01*
X131076580Y-56780660D01*
X131066948Y-56720362D01*
X130991642Y-56581511D01*
X131128956Y-56581511D01*
X131163096Y-56615651D01*
X131197236Y-56581511D01*
X131163096Y-56547372D01*
X131128956Y-56581511D01*
X130991642Y-56581511D01*
X130939841Y-56486000D01*
X130735805Y-56331147D01*
X130457831Y-56274266D01*
X130453136Y-56274253D01*
X130237700Y-56300038D01*
X130102017Y-56390532D01*
X130074495Y-56426005D01*
X129977398Y-56674978D01*
X130000495Y-56940453D01*
X130038063Y-57028281D01*
X130074341Y-57121943D01*
X130024124Y-57126471D01*
X130013172Y-57122455D01*
X129898869Y-57016617D01*
X129808954Y-56823636D01*
X129764817Y-56592894D01*
X129763365Y-56545733D01*
X129803549Y-56373398D01*
X129935589Y-56238697D01*
X130176721Y-56128256D01*
X130377881Y-56068867D01*
X130602698Y-55988026D01*
X130794064Y-55882319D01*
X130838372Y-55846941D01*
X130991605Y-55704957D01*
X131261937Y-55989135D01*
G37*
G36*
X145890491Y-55844877D02*
G01*
X145905532Y-55858986D01*
X146056723Y-55953324D01*
X146276793Y-56039207D01*
X146388365Y-56069174D01*
X146691346Y-56164082D01*
X146876308Y-56294137D01*
X146960325Y-56474529D01*
X146969816Y-56586509D01*
X146944444Y-56852196D01*
X146859809Y-57020539D01*
X146760139Y-57096197D01*
X146681414Y-57130132D01*
X146669550Y-57092789D01*
X146718962Y-56958515D01*
X146726276Y-56940672D01*
X146774700Y-56682651D01*
X146709820Y-56465341D01*
X146548666Y-56315274D01*
X146308267Y-56258985D01*
X146288926Y-56259242D01*
X146033405Y-56305469D01*
X145851182Y-56441697D01*
X145713945Y-56689970D01*
X145704438Y-56714346D01*
X145633756Y-57002264D01*
X145645573Y-57300948D01*
X145745749Y-57626719D01*
X145940142Y-57995899D01*
X146234611Y-58424807D01*
X146392068Y-58629898D01*
X146723555Y-59138645D01*
X146939021Y-59667273D01*
X147034522Y-60198555D01*
X147006108Y-60715265D01*
X146933771Y-60994274D01*
X146808730Y-61265566D01*
X146631025Y-61535502D01*
X146434148Y-61758967D01*
X146277527Y-61878259D01*
X146192626Y-61918393D01*
X146178478Y-61892798D01*
X146231967Y-61777253D01*
X146258026Y-61726669D01*
X146324424Y-61524932D01*
X146366308Y-61253438D01*
X146381574Y-60960539D01*
X146368113Y-60694588D01*
X146323818Y-60503936D01*
X146312305Y-60481170D01*
X146271609Y-60433510D01*
X146257208Y-60487504D01*
X146266601Y-60658001D01*
X146272227Y-60719040D01*
X146307462Y-61085747D01*
X146024123Y-60758374D01*
X145845100Y-60530748D01*
X145761031Y-60349564D01*
X145762491Y-60234468D01*
X146150462Y-60234468D01*
X146175444Y-60290670D01*
X146195981Y-60279988D01*
X146204153Y-60198956D01*
X146195981Y-60188949D01*
X146155389Y-60198321D01*
X146150462Y-60234468D01*
X145762491Y-60234468D01*
X145763280Y-60172282D01*
X145843210Y-59956363D01*
X145855850Y-59929527D01*
X145959362Y-59756456D01*
X146067668Y-59700569D01*
X146210769Y-59757811D01*
X146347740Y-59863047D01*
X146535611Y-60101852D01*
X146609484Y-60386809D01*
X146564875Y-60665828D01*
X146531257Y-60789622D01*
X146554962Y-60817934D01*
X146557701Y-60816352D01*
X146620833Y-60714859D01*
X146666763Y-60531833D01*
X146686418Y-60322055D01*
X146670723Y-60140310D01*
X146670093Y-60137760D01*
X146598505Y-59975940D01*
X146476084Y-59791868D01*
X146451670Y-59761774D01*
X146247824Y-59599547D01*
X145993705Y-59548967D01*
X145672819Y-59607423D01*
X145609091Y-59628487D01*
X145351848Y-59665387D01*
X145151465Y-59578292D01*
X145010335Y-59368433D01*
X144988537Y-59309144D01*
X144947857Y-59111062D01*
X144998587Y-58996036D01*
X145156489Y-58945407D01*
X145301874Y-58938202D01*
X145494301Y-58959670D01*
X145726501Y-59015674D01*
X145952409Y-59091267D01*
X146125963Y-59171501D01*
X146195723Y-59228269D01*
X146190575Y-59271714D01*
X146113540Y-59252795D01*
X145967977Y-59215890D01*
X145755795Y-59181989D01*
X145675592Y-59172874D01*
X145365246Y-59141920D01*
X145706644Y-59232134D01*
X145960246Y-59311389D01*
X146200263Y-59405673D01*
X146277466Y-59442650D01*
X146410583Y-59501457D01*
X146465551Y-59502789D01*
X146461205Y-59489033D01*
X146444220Y-59422087D01*
X146510317Y-59433355D01*
X146634889Y-59517079D01*
X146656005Y-59534603D01*
X146751634Y-59613343D01*
X146755650Y-59602816D01*
X146704287Y-59534670D01*
X146605461Y-59438401D01*
X146429328Y-59293769D01*
X146211244Y-59129579D01*
X146176297Y-59104473D01*
X145933646Y-58924007D01*
X145795238Y-58798594D01*
X145748652Y-58712311D01*
X145781467Y-58649237D01*
X145807034Y-58631152D01*
X145803558Y-58566057D01*
X145715496Y-58451886D01*
X145666851Y-58405214D01*
X145479297Y-58152873D01*
X145375602Y-57829899D01*
X145369872Y-57483058D01*
X145376409Y-57442205D01*
X145393344Y-57290669D01*
X145363920Y-57249796D01*
X145332923Y-57263184D01*
X145232990Y-57272875D01*
X145165856Y-57177641D01*
X145149998Y-57093608D01*
X145479577Y-57093608D01*
X145526790Y-57522749D01*
X145693978Y-57942817D01*
X145986881Y-58369927D01*
X146153137Y-58563591D01*
X146242882Y-58649482D01*
X146252358Y-58629094D01*
X146177809Y-58503928D01*
X146062692Y-58339710D01*
X145827547Y-57993705D01*
X145672438Y-57701132D01*
X145579193Y-57420539D01*
X145531406Y-57127748D01*
X145488489Y-56718070D01*
X145479577Y-57093608D01*
X145149998Y-57093608D01*
X145133383Y-57005569D01*
X145137434Y-56784743D01*
X145167148Y-56615651D01*
X145535945Y-56615651D01*
X145560928Y-56671853D01*
X145581465Y-56661171D01*
X145589637Y-56580139D01*
X145581465Y-56570131D01*
X145540873Y-56579504D01*
X145535945Y-56615651D01*
X145167148Y-56615651D01*
X145179871Y-56543248D01*
X145262558Y-56309169D01*
X145268789Y-56296077D01*
X145394505Y-56084660D01*
X145539277Y-55906673D01*
X145587139Y-55863360D01*
X145712371Y-55773322D01*
X145792800Y-55767446D01*
X145890491Y-55844877D01*
G37*
G36*
X138434870Y-59166518D02*
G01*
X138434870Y-62417772D01*
X141012424Y-62435663D01*
X143589978Y-62453554D01*
X143568796Y-62829092D01*
X143534231Y-63211456D01*
X143472771Y-63670947D01*
X143392033Y-64164350D01*
X143299632Y-64648449D01*
X143203186Y-65080031D01*
X143116087Y-65397813D01*
X142885084Y-65973137D01*
X142567965Y-66494542D01*
X142154364Y-66972481D01*
X141633918Y-67417406D01*
X140996263Y-67839771D01*
X140343245Y-68194431D01*
X140056519Y-68330325D01*
X139728525Y-68473396D01*
X139388305Y-68612414D01*
X139064905Y-68736145D01*
X138787368Y-68833359D01*
X138584739Y-68892824D01*
X138503278Y-68905974D01*
X138485460Y-68838065D01*
X138470248Y-68635776D01*
X138457688Y-68301260D01*
X138447824Y-67836673D01*
X138440704Y-67244168D01*
X138436371Y-66525900D01*
X138434871Y-65684023D01*
X138434870Y-65662694D01*
X138434870Y-64641409D01*
X140348382Y-64641409D01*
X140407122Y-64699436D01*
X140558007Y-64765509D01*
X140653956Y-64794776D01*
X140812662Y-64840759D01*
X140906045Y-64894345D01*
X140942717Y-64984846D01*
X140931288Y-65141570D01*
X140880369Y-65393828D01*
X140858795Y-65491995D01*
X140807807Y-65741415D01*
X140771607Y-65951930D01*
X140758774Y-66067360D01*
X140790235Y-66051861D01*
X140877241Y-65939184D01*
X141006542Y-65750111D01*
X141164883Y-65505428D01*
X141339013Y-65225917D01*
X141515680Y-64932364D01*
X141681631Y-64645551D01*
X141787674Y-64453714D01*
X141806142Y-64372693D01*
X141738025Y-64312503D01*
X141576537Y-64255137D01*
X141407253Y-64191560D01*
X141310994Y-64130484D01*
X141302612Y-64113326D01*
X141331399Y-64023418D01*
X141405477Y-63855539D01*
X141473311Y-63716726D01*
X141567442Y-63524392D01*
X141629439Y-63385106D01*
X141644010Y-63340467D01*
X141581515Y-63323843D01*
X141416699Y-63316559D01*
X141183565Y-63319957D01*
X141153073Y-63321128D01*
X140662137Y-63341189D01*
X140506102Y-63955705D01*
X140437416Y-64232807D01*
X140383757Y-64461813D01*
X140352867Y-64609058D01*
X140348382Y-64641409D01*
X138434870Y-64641409D01*
X138434870Y-62419415D01*
X135847552Y-62419415D01*
X135182901Y-62419050D01*
X134641869Y-62417566D01*
X134211515Y-62414376D01*
X133878900Y-62408892D01*
X133631084Y-62400528D01*
X133455127Y-62388697D01*
X133338089Y-62372812D01*
X133267030Y-62352286D01*
X133229011Y-62326532D01*
X133212941Y-62299925D01*
X133199309Y-62202543D01*
X133184450Y-61987315D01*
X133169147Y-61672940D01*
X133154189Y-61278116D01*
X133140360Y-60821541D01*
X133128449Y-60321914D01*
X133127207Y-60261041D01*
X133122542Y-60028109D01*
X133972650Y-60028109D01*
X134044862Y-60236289D01*
X134163669Y-60367934D01*
X134241618Y-60513006D01*
X134269795Y-60766969D01*
X134269816Y-60775409D01*
X134286390Y-60984008D01*
X134328239Y-61139729D01*
X134351752Y-61176726D01*
X134435384Y-61208777D01*
X134619707Y-61232420D01*
X134914183Y-61248217D01*
X135328273Y-61256725D01*
X135737827Y-61258662D01*
X136251204Y-61255421D01*
X136637628Y-61245326D01*
X136906561Y-61227817D01*
X137067465Y-61202336D01*
X137123902Y-61176726D01*
X137174333Y-61061712D01*
X137203197Y-60870757D01*
X137205838Y-60791948D01*
X137228472Y-60560524D01*
X137311538Y-60398926D01*
X137376537Y-60330908D01*
X137494840Y-60181092D01*
X137547103Y-60035405D01*
X137547236Y-60029630D01*
X137499305Y-59886047D01*
X137383281Y-59734713D01*
X137376537Y-59728351D01*
X137257571Y-59570781D01*
X137205904Y-59408587D01*
X137205838Y-59403870D01*
X137178466Y-59242095D01*
X137081887Y-59140632D01*
X136894407Y-59087682D01*
X136594736Y-59071444D01*
X136311881Y-59058129D01*
X136122489Y-59015387D01*
X135984940Y-58933791D01*
X135984164Y-58933146D01*
X135896168Y-58847336D01*
X135852312Y-58750492D01*
X135843798Y-58601187D01*
X135861830Y-58357994D01*
X135861890Y-58357350D01*
X135877363Y-58083530D01*
X135856115Y-57925404D01*
X135791205Y-57865391D01*
X135675709Y-57885907D01*
X135588121Y-57978242D01*
X135571573Y-58114063D01*
X135634921Y-58219919D01*
X135635408Y-58220221D01*
X135678445Y-58306267D01*
X135699769Y-58464201D01*
X135699758Y-58643871D01*
X135678787Y-58795125D01*
X135637236Y-58867813D01*
X135630531Y-58868877D01*
X135526647Y-58912799D01*
X135454955Y-58971296D01*
X135321141Y-59037105D01*
X135076825Y-59069328D01*
X134893111Y-59073716D01*
X134592115Y-59087150D01*
X134403119Y-59135982D01*
X134303450Y-59233005D01*
X134270432Y-59391011D01*
X134269816Y-59425377D01*
X134239071Y-59583073D01*
X134177365Y-59667769D01*
X134017030Y-59827707D01*
X133972650Y-60028109D01*
X133122542Y-60028109D01*
X133088766Y-58341646D01*
X133351192Y-58292415D01*
X133798442Y-58146359D01*
X134233664Y-57891618D01*
X134623787Y-57554433D01*
X134935742Y-57161046D01*
X135058666Y-56937474D01*
X135149367Y-56730553D01*
X135209845Y-56569402D01*
X135225063Y-56506108D01*
X135290298Y-56433297D01*
X135471310Y-56352802D01*
X135747853Y-56269017D01*
X136099679Y-56186332D01*
X136506542Y-56109141D01*
X136948195Y-56041834D01*
X137404390Y-55988806D01*
X137735005Y-55961631D01*
X138434870Y-55915264D01*
X138434870Y-59166518D01*
G37*
G36*
X136244244Y-63167450D02*
G01*
X136355671Y-63261937D01*
X136386483Y-63335231D01*
X136442445Y-63475869D01*
X136574920Y-63543870D01*
X136714922Y-63518823D01*
X136840957Y-63488788D01*
X136957138Y-63569543D01*
X136964954Y-63578062D01*
X137037301Y-63702156D01*
X137035400Y-63784584D01*
X137014252Y-63904942D01*
X137030012Y-64027865D01*
X137109954Y-64163088D01*
X137233315Y-64194683D01*
X137374944Y-64248701D01*
X137443246Y-64378473D01*
X137421713Y-64535577D01*
X137373950Y-64607219D01*
X137283264Y-64783499D01*
X137306739Y-64955552D01*
X137384905Y-65045853D01*
X137456852Y-65165065D01*
X137438654Y-65304311D01*
X137347701Y-65405426D01*
X137271919Y-65423716D01*
X137132736Y-65478468D01*
X137047274Y-65606112D01*
X137044053Y-65751733D01*
X137073964Y-65804899D01*
X137107037Y-65927205D01*
X137045711Y-66044022D01*
X136927890Y-66116039D01*
X136791479Y-66103947D01*
X136787566Y-66101912D01*
X136629516Y-66070325D01*
X136490951Y-66122028D01*
X136416572Y-66231235D01*
X136421221Y-66313234D01*
X136403100Y-66424147D01*
X136300280Y-66493041D01*
X136161528Y-66506803D01*
X136035609Y-66452322D01*
X136009864Y-66423838D01*
X135886231Y-66338027D01*
X135726047Y-66315149D01*
X135589066Y-66356491D01*
X135542436Y-66413769D01*
X135451498Y-66491714D01*
X135330293Y-66516189D01*
X135198403Y-66487937D01*
X135157952Y-66380069D01*
X135157451Y-66356450D01*
X135099866Y-66201262D01*
X134961872Y-66107078D01*
X134795613Y-66102063D01*
X134736427Y-66129042D01*
X134593397Y-66160750D01*
X134483309Y-66085222D01*
X134433832Y-65931681D01*
X134443519Y-65819717D01*
X134441559Y-65611254D01*
X134346349Y-65469447D01*
X134197778Y-65423716D01*
X134072465Y-65371573D01*
X134019001Y-65249634D01*
X134046951Y-65109630D01*
X134124194Y-65025792D01*
X134250656Y-64889342D01*
X134243968Y-64781678D01*
X134612991Y-64781678D01*
X134646775Y-65130132D01*
X134786954Y-65452222D01*
X135034983Y-65720307D01*
X135037162Y-65721973D01*
X135235613Y-65856504D01*
X135356759Y-65888822D01*
X135416404Y-65816607D01*
X135430569Y-65664268D01*
X135396737Y-65461911D01*
X135276850Y-65326520D01*
X135259870Y-65315017D01*
X135117538Y-65155602D01*
X135089171Y-65006185D01*
X135067316Y-64865814D01*
X135016356Y-64809199D01*
X134970520Y-64751180D01*
X134965854Y-64638501D01*
X135089171Y-64638501D01*
X135126040Y-64729365D01*
X135157451Y-64740920D01*
X135218027Y-64685616D01*
X135225730Y-64638501D01*
X135188861Y-64547636D01*
X135157451Y-64536081D01*
X135096875Y-64591385D01*
X135089171Y-64638501D01*
X134965854Y-64638501D01*
X134965147Y-64621431D01*
X135008624Y-64480783D01*
X135119428Y-64434910D01*
X135157451Y-64433662D01*
X135288767Y-64463685D01*
X135343826Y-64579763D01*
X135349755Y-64621431D01*
X135342837Y-64756845D01*
X135298545Y-64809199D01*
X135223832Y-64855117D01*
X135223751Y-64965940D01*
X135285984Y-65101273D01*
X135398214Y-65220723D01*
X135430569Y-65242155D01*
X135635408Y-65363157D01*
X135635408Y-64851229D01*
X135626898Y-64599230D01*
X135604417Y-64403795D01*
X135572541Y-64302053D01*
X135567128Y-64297103D01*
X135500915Y-64194443D01*
X135508169Y-64172499D01*
X135664350Y-64172499D01*
X135718995Y-64246663D01*
X135775997Y-64262963D01*
X135839013Y-64217151D01*
X135840246Y-64206063D01*
X135795705Y-64107112D01*
X135703246Y-64093371D01*
X135693050Y-64098838D01*
X135664350Y-64172499D01*
X135508169Y-64172499D01*
X135542143Y-64069725D01*
X135643374Y-63985581D01*
X135779496Y-63945371D01*
X135892859Y-64013200D01*
X135894461Y-64014797D01*
X135962805Y-64120327D01*
X135940966Y-64250348D01*
X135920635Y-64297793D01*
X135883249Y-64457347D01*
X135859436Y-64728302D01*
X135850990Y-65086009D01*
X135852175Y-65239160D01*
X135858743Y-65511490D01*
X135867915Y-65694082D01*
X135878499Y-65771556D01*
X135889302Y-65728536D01*
X135889768Y-65723594D01*
X135933174Y-65511732D01*
X136030135Y-65386433D01*
X136082677Y-65353588D01*
X136222121Y-65236250D01*
X136234996Y-65088250D01*
X136170868Y-64953877D01*
X136129484Y-64809199D01*
X136249924Y-64809199D01*
X136301883Y-64875495D01*
X136318203Y-64877479D01*
X136384499Y-64825520D01*
X136386483Y-64809199D01*
X136334524Y-64742904D01*
X136318203Y-64740920D01*
X136251908Y-64792879D01*
X136249924Y-64809199D01*
X136129484Y-64809199D01*
X136122641Y-64785277D01*
X136185517Y-64656331D01*
X136341127Y-64604365D01*
X136342895Y-64604361D01*
X136499764Y-64649835D01*
X136551167Y-64766651D01*
X136486384Y-64922052D01*
X136407064Y-65088170D01*
X136388655Y-65193954D01*
X136333377Y-65335046D01*
X136215784Y-65451577D01*
X136100762Y-65571509D01*
X136045548Y-65715115D01*
X136055925Y-65839194D01*
X136137675Y-65900547D01*
X136155537Y-65901673D01*
X136292313Y-65846841D01*
X136461501Y-65705316D01*
X136632496Y-65511555D01*
X136774691Y-65300013D01*
X136855219Y-65113982D01*
X136887330Y-64749578D01*
X136803895Y-64391681D01*
X136620010Y-64075604D01*
X136350769Y-63836657D01*
X136295751Y-63805271D01*
X135983968Y-63705021D01*
X135635657Y-63692855D01*
X135306404Y-63766411D01*
X135135458Y-63854551D01*
X134858787Y-64116247D01*
X134684146Y-64434503D01*
X134612991Y-64781678D01*
X134243968Y-64781678D01*
X134241455Y-64741220D01*
X134133590Y-64615305D01*
X134041828Y-64477779D01*
X134040447Y-64330646D01*
X134119672Y-64222029D01*
X134219043Y-64194683D01*
X134380392Y-64141423D01*
X134476180Y-64012993D01*
X134474612Y-63856414D01*
X134463703Y-63832822D01*
X134440127Y-63680308D01*
X134521191Y-63569242D01*
X134675132Y-63534546D01*
X134727038Y-63543291D01*
X134919926Y-63544894D01*
X135078086Y-63468253D01*
X135155597Y-63337979D01*
X135157451Y-63312610D01*
X135211251Y-63199951D01*
X135332337Y-63140897D01*
X135460235Y-63153180D01*
X135517885Y-63206931D01*
X135633879Y-63292434D01*
X135802705Y-63292981D01*
X135970991Y-63209462D01*
X135982819Y-63199187D01*
X136109349Y-63128745D01*
X136244244Y-63167450D01*
G37*
G36*
X141757042Y-58208717D02*
G01*
X141942762Y-58275142D01*
X142154659Y-58403088D01*
X142357635Y-58563910D01*
X142516592Y-58728961D01*
X142596434Y-58869594D01*
X142599924Y-58896670D01*
X142645150Y-59033335D01*
X142756379Y-59194216D01*
X142780256Y-59220330D01*
X142873293Y-59331549D01*
X142928427Y-59449608D01*
X142949654Y-59605957D01*
X142940973Y-59832044D01*
X142906381Y-60159318D01*
X142903097Y-60186792D01*
X142857355Y-60446023D01*
X142776865Y-60632583D01*
X142632643Y-60810238D01*
X142608246Y-60835448D01*
X142361408Y-61034821D01*
X142075753Y-61185481D01*
X141790694Y-61272668D01*
X141545643Y-61281623D01*
X141470940Y-61261335D01*
X141359684Y-61209200D01*
X141276912Y-61141691D01*
X141218602Y-61039656D01*
X141195004Y-60942625D01*
X141302612Y-60942625D01*
X141362092Y-61078752D01*
X141515095Y-61166457D01*
X141723465Y-61193499D01*
X141945684Y-61148937D01*
X142031377Y-61053664D01*
X142048747Y-60900513D01*
X141993941Y-60751991D01*
X141971752Y-60726081D01*
X141818856Y-60651800D01*
X141629573Y-60657089D01*
X141450676Y-60726812D01*
X141328937Y-60845835D01*
X141302612Y-60942625D01*
X141195004Y-60942625D01*
X141180732Y-60883942D01*
X141159279Y-60655397D01*
X141150920Y-60359647D01*
X141234332Y-60359647D01*
X141262518Y-60561852D01*
X141343427Y-60640883D01*
X141448303Y-60602211D01*
X141985408Y-60602211D01*
X142042652Y-60699994D01*
X142182904Y-60795403D01*
X142207316Y-60806455D01*
X142366556Y-60861944D01*
X142472054Y-60844853D01*
X142581200Y-60755442D01*
X142707661Y-60578243D01*
X142775206Y-60399587D01*
X142784652Y-60244864D01*
X142724788Y-60111663D01*
X142600424Y-59972355D01*
X142459695Y-59848990D01*
X142355184Y-59788356D01*
X142330226Y-59788537D01*
X142298779Y-59877743D01*
X142317927Y-60034241D01*
X142375886Y-60203841D01*
X142444829Y-60315515D01*
X142512973Y-60446484D01*
X142462394Y-60528110D01*
X142305860Y-60547912D01*
X142219062Y-60536223D01*
X142058393Y-60518709D01*
X141993026Y-60554959D01*
X141985408Y-60602211D01*
X141448303Y-60602211D01*
X141471588Y-60593625D01*
X141539952Y-60533611D01*
X141612493Y-60440565D01*
X141587695Y-60357766D01*
X141534246Y-60294633D01*
X141389856Y-60180972D01*
X141285249Y-60189209D01*
X141236132Y-60315940D01*
X141234332Y-60359647D01*
X141150920Y-60359647D01*
X141150220Y-60334869D01*
X141149709Y-60014555D01*
X141408727Y-60014555D01*
X141411865Y-60089918D01*
X141496036Y-60190132D01*
X141619500Y-60280257D01*
X141740514Y-60325355D01*
X141777597Y-60323309D01*
X141902967Y-60330142D01*
X141947592Y-60365079D01*
X142031701Y-60425399D01*
X142135350Y-60435811D01*
X142190020Y-60390477D01*
X142190246Y-60385749D01*
X142133022Y-60304880D01*
X141989586Y-60205882D01*
X141802292Y-60108873D01*
X141613496Y-60033969D01*
X141465552Y-60001287D01*
X141408727Y-60014555D01*
X141149709Y-60014555D01*
X141149650Y-59977202D01*
X141780676Y-59977202D01*
X142000426Y-60145085D01*
X142166848Y-60259310D01*
X142254895Y-60302718D01*
X142255909Y-60302748D01*
X142280171Y-60244271D01*
X142273793Y-60102872D01*
X142272813Y-60096015D01*
X142200945Y-59900963D01*
X142073228Y-59807303D01*
X141915586Y-59830696D01*
X141875458Y-59855994D01*
X141788955Y-59937910D01*
X141780676Y-59977202D01*
X141149650Y-59977202D01*
X141149532Y-59903205D01*
X141150442Y-59735428D01*
X141150997Y-59646742D01*
X141234332Y-59646742D01*
X141259529Y-59861412D01*
X141329866Y-59957091D01*
X141437462Y-59927802D01*
X141510030Y-59855823D01*
X141621967Y-59784153D01*
X141689089Y-59785401D01*
X141833836Y-59794160D01*
X141951653Y-59732588D01*
X141985408Y-59656063D01*
X141926773Y-59583960D01*
X141782563Y-59500651D01*
X141697331Y-59465460D01*
X142379234Y-59465460D01*
X142403428Y-59645385D01*
X142538278Y-59808264D01*
X142586628Y-59841103D01*
X142749219Y-59916280D01*
X142838115Y-59884979D01*
X142871271Y-59735887D01*
X142873042Y-59660645D01*
X142823101Y-59433191D01*
X142736483Y-59312694D01*
X142627903Y-59230450D01*
X142545738Y-59243992D01*
X142473161Y-59303828D01*
X142379234Y-59465460D01*
X141697331Y-59465460D01*
X141600318Y-59425405D01*
X141427576Y-59377490D01*
X141311879Y-59376174D01*
X141304230Y-59379974D01*
X141255975Y-59471995D01*
X141234411Y-59636089D01*
X141234332Y-59646742D01*
X141150997Y-59646742D01*
X141155898Y-58863292D01*
X141234332Y-58863292D01*
X141270038Y-59076659D01*
X141393997Y-59233308D01*
X141603168Y-59354170D01*
X141855249Y-59431003D01*
X142094841Y-59439472D01*
X142279534Y-59381469D01*
X142342830Y-59321186D01*
X142387849Y-59213484D01*
X142340900Y-59131295D01*
X142183295Y-59046785D01*
X142148727Y-59032092D01*
X141954488Y-58966280D01*
X141868661Y-58980010D01*
X141886374Y-59076573D01*
X141942019Y-59171602D01*
X142021803Y-59310271D01*
X142052537Y-59395641D01*
X142020292Y-59379991D01*
X141941141Y-59275695D01*
X141909273Y-59227345D01*
X141795120Y-59083870D01*
X141691846Y-59008689D01*
X141673847Y-59005436D01*
X141570709Y-58951401D01*
X141507451Y-58868877D01*
X141461195Y-58817900D01*
X141814709Y-58817900D01*
X142019548Y-58908588D01*
X142272242Y-58991479D01*
X142442264Y-58982683D01*
X142499353Y-58934165D01*
X142499211Y-58828894D01*
X142421961Y-58729091D01*
X142316053Y-58693919D01*
X142304744Y-58696534D01*
X142183642Y-58729062D01*
X142019548Y-58769406D01*
X141814709Y-58817900D01*
X141461195Y-58817900D01*
X141407130Y-58758318D01*
X141303186Y-58741045D01*
X141239231Y-58817949D01*
X141234332Y-58863292D01*
X141155898Y-58863292D01*
X141157704Y-58574720D01*
X141320380Y-58574720D01*
X141403471Y-58645417D01*
X141551133Y-58684417D01*
X141761785Y-58696425D01*
X141968790Y-58681691D01*
X142101915Y-58642812D01*
X142159746Y-58552093D01*
X142102888Y-58445991D01*
X141947660Y-58347669D01*
X141874355Y-58319791D01*
X141688026Y-58277343D01*
X141546765Y-58308050D01*
X141470715Y-58352202D01*
X141330090Y-58474002D01*
X141320380Y-58574720D01*
X141157704Y-58574720D01*
X141158213Y-58493339D01*
X141344773Y-58332714D01*
X141526337Y-58218295D01*
X141721740Y-58203664D01*
X141757042Y-58208717D01*
G37*
G36*
X141488121Y-55222809D02*
G01*
X141607243Y-55288851D01*
X141619980Y-55297102D01*
X141738707Y-55353701D01*
X141907760Y-55391365D01*
X142154695Y-55413871D01*
X142507069Y-55424996D01*
X142558824Y-55425760D01*
X142979371Y-55439597D01*
X143299604Y-55476208D01*
X143555351Y-55547695D01*
X143782441Y-55666165D01*
X144016702Y-55843720D01*
X144155038Y-55965035D01*
X144515121Y-56344032D01*
X144764507Y-56743549D01*
X144927612Y-57203934D01*
X144943004Y-57267144D01*
X145015647Y-57535035D01*
X145100600Y-57787287D01*
X145154122Y-57914876D01*
X145216761Y-58051726D01*
X145215332Y-58078010D01*
X145165102Y-58021301D01*
X145078912Y-57878258D01*
X144983462Y-57670175D01*
X144947720Y-57577484D01*
X144809259Y-57212482D01*
X144690291Y-56953141D01*
X144573634Y-56773580D01*
X144442103Y-56647920D01*
X144278516Y-56550278D01*
X144259527Y-56540959D01*
X144073710Y-56433340D01*
X143947442Y-56327183D01*
X143918679Y-56280597D01*
X143863722Y-56210569D01*
X143727911Y-56188662D01*
X143599619Y-56194520D01*
X143368204Y-56176328D01*
X143214060Y-56096424D01*
X143149961Y-55980232D01*
X143188685Y-55853177D01*
X143343005Y-55740685D01*
X143366556Y-55730704D01*
X143461151Y-55682893D01*
X143444509Y-55664631D01*
X143338270Y-55673985D01*
X143164078Y-55709024D01*
X142943575Y-55767814D01*
X142940403Y-55768755D01*
X142632000Y-55833252D01*
X142358865Y-55842038D01*
X142317587Y-55836882D01*
X142061872Y-55795991D01*
X142170446Y-56120472D01*
X142350282Y-56527300D01*
X142599228Y-56912958D01*
X142884922Y-57231039D01*
X143024677Y-57345423D01*
X143317010Y-57520376D01*
X143645352Y-57663257D01*
X143957935Y-57754209D01*
X144148161Y-57776404D01*
X144326034Y-57776404D01*
X144280114Y-59329764D01*
X144259393Y-59947003D01*
X144234035Y-60567044D01*
X144205254Y-61168773D01*
X144174263Y-61731074D01*
X144142278Y-62232833D01*
X144110511Y-62652934D01*
X144080176Y-62970263D01*
X144063219Y-63102210D01*
X144027030Y-63341189D01*
X144177576Y-63043988D01*
X144328395Y-62801999D01*
X144522267Y-62565841D01*
X144725145Y-62371724D01*
X144902978Y-62255858D01*
X144927073Y-62246924D01*
X145075293Y-62248461D01*
X145238017Y-62304541D01*
X145423799Y-62401882D01*
X144959783Y-62694935D01*
X144643355Y-62918864D01*
X144398477Y-63156874D01*
X144209514Y-63435483D01*
X144060832Y-63781208D01*
X143936797Y-64220567D01*
X143865564Y-64550880D01*
X143786739Y-64925881D01*
X143700663Y-65301349D01*
X143618543Y-65630072D01*
X143559959Y-65838318D01*
X143302973Y-66441607D01*
X142913895Y-67019437D01*
X142395245Y-67569340D01*
X141749539Y-68088851D01*
X140979297Y-68575502D01*
X140511634Y-68824182D01*
X140191243Y-68974164D01*
X139827265Y-69127444D01*
X139448468Y-69273761D01*
X139083618Y-69402858D01*
X138761484Y-69504476D01*
X138510833Y-69568358D01*
X138377052Y-69585360D01*
X138234449Y-69560678D01*
X138003958Y-69497400D01*
X137724798Y-69406848D01*
X137581375Y-69355674D01*
X136615228Y-68958853D01*
X135750343Y-68518651D01*
X134998266Y-68041517D01*
X134451570Y-67607508D01*
X133962608Y-67080998D01*
X133561050Y-66451033D01*
X133248099Y-65720074D01*
X133024958Y-64890580D01*
X132967635Y-64573277D01*
X132845319Y-64059720D01*
X132648422Y-63617363D01*
X132457741Y-63300817D01*
X132279414Y-63069114D01*
X132073891Y-62880791D01*
X131801620Y-62694380D01*
X131720341Y-62644341D01*
X131321342Y-62401963D01*
X131525642Y-62303017D01*
X131685681Y-62242521D01*
X131818598Y-62256920D01*
X131938016Y-62311672D01*
X132202007Y-62516739D01*
X132450049Y-62845481D01*
X132672546Y-63285161D01*
X132674003Y-63288627D01*
X132760110Y-63486626D01*
X132804566Y-63565405D01*
X132814370Y-63533341D01*
X132803496Y-63443608D01*
X132753388Y-63031930D01*
X132707261Y-62497980D01*
X132665944Y-61856008D01*
X132630264Y-61120265D01*
X132601050Y-60305001D01*
X132584356Y-59671162D01*
X132550992Y-58194039D01*
X132882886Y-58194039D01*
X132929140Y-59848942D01*
X132972360Y-61025627D01*
X133033296Y-62074486D01*
X133113098Y-63003244D01*
X133212918Y-63819625D01*
X133333908Y-64531355D01*
X133477220Y-65146158D01*
X133644003Y-65671759D01*
X133835411Y-66115883D01*
X133874523Y-66191443D01*
X134180347Y-66648420D01*
X134605602Y-67106968D01*
X135134031Y-67553253D01*
X135749378Y-67973440D01*
X136386483Y-68329209D01*
X136606329Y-68432423D01*
X136893080Y-68556212D01*
X137217941Y-68689408D01*
X137552119Y-68820843D01*
X137866820Y-68939350D01*
X138133249Y-69033761D01*
X138322612Y-69092909D01*
X138392626Y-69107286D01*
X138479643Y-69088008D01*
X138664124Y-69033319D01*
X138914608Y-68952822D01*
X139075422Y-68898880D01*
X139913904Y-68573522D01*
X140690124Y-68192821D01*
X141389792Y-67766683D01*
X141998619Y-67305015D01*
X142502315Y-66817721D01*
X142886590Y-66314708D01*
X142946550Y-66215360D01*
X143163173Y-65754991D01*
X143350976Y-65173749D01*
X143510277Y-64469542D01*
X143641394Y-63640274D01*
X143744645Y-62683854D01*
X143820347Y-61598187D01*
X143868819Y-60381180D01*
X143875877Y-60094846D01*
X143917469Y-58214096D01*
X143512526Y-58101511D01*
X143064544Y-57914264D01*
X142657673Y-57625592D01*
X142318334Y-57261648D01*
X142072947Y-56848587D01*
X141981160Y-56585551D01*
X141930242Y-56391781D01*
X141890438Y-56249924D01*
X141883243Y-56226907D01*
X141801126Y-56160214D01*
X141607635Y-56077195D01*
X141325936Y-55984937D01*
X140979191Y-55890530D01*
X140590564Y-55801061D01*
X140313291Y-55746494D01*
X139980976Y-55697717D01*
X139590861Y-55664315D01*
X139118969Y-55644957D01*
X138541327Y-55638315D01*
X138366591Y-55638520D01*
X137757828Y-55646266D01*
X137250665Y-55667946D01*
X136810478Y-55707963D01*
X136402640Y-55770723D01*
X135992525Y-55860630D01*
X135545508Y-55982088D01*
X135453710Y-56009047D01*
X135202813Y-56086960D01*
X135052954Y-56150802D01*
X134973536Y-56222837D01*
X134933959Y-56325327D01*
X134918954Y-56398116D01*
X134764249Y-56865904D01*
X134493836Y-57290537D01*
X134126150Y-57654429D01*
X133679629Y-57939991D01*
X133172708Y-58129636D01*
X133081324Y-58151185D01*
X132882886Y-58194039D01*
X132550992Y-58194039D01*
X132541559Y-57776404D01*
X132720331Y-57776404D01*
X132989049Y-57732970D01*
X133310261Y-57616666D01*
X133637277Y-57448493D01*
X133923408Y-57249448D01*
X133958386Y-57219575D01*
X134304987Y-56833430D01*
X134557004Y-56362669D01*
X134646913Y-56104086D01*
X134692995Y-55968206D01*
X134752885Y-55877047D01*
X134857274Y-55809426D01*
X135036857Y-55744159D01*
X135267250Y-55675950D01*
X135829799Y-55534286D01*
X136414455Y-55431136D01*
X137050713Y-55363156D01*
X137768070Y-55327001D01*
X138417351Y-55318742D01*
X139278783Y-55335426D01*
X140036387Y-55387370D01*
X140719199Y-55478287D01*
X141356252Y-55611886D01*
X141882988Y-55761626D01*
X141936267Y-55768096D01*
X141870896Y-55718671D01*
X141841561Y-55701168D01*
X141700197Y-55589586D01*
X141560973Y-55437080D01*
X141462741Y-55290419D01*
X141439171Y-55216748D01*
X141488121Y-55222809D01*
G37*
G36*
X137783485Y-51860178D02*
G01*
X137938331Y-51920579D01*
X137956913Y-51938501D01*
X138096580Y-52016352D01*
X138296346Y-52037118D01*
X138492252Y-52000798D01*
X138595815Y-51938501D01*
X139322505Y-51938501D01*
X139356644Y-51972640D01*
X139390784Y-51938501D01*
X139356644Y-51904361D01*
X139322505Y-51938501D01*
X138595815Y-51938501D01*
X138744088Y-51868680D01*
X138982202Y-51839174D01*
X139269301Y-51850718D01*
X139564530Y-51904046D01*
X139621841Y-51920054D01*
X139946523Y-52081135D01*
X140240348Y-52344768D01*
X140471664Y-52676950D01*
X140586888Y-52956758D01*
X140697371Y-53336804D01*
X140504965Y-53506059D01*
X140351684Y-53631518D01*
X140252388Y-53662995D01*
X140160988Y-53599424D01*
X140075724Y-53496148D01*
X139985791Y-53366858D01*
X139982497Y-53295842D01*
X139990353Y-53289737D01*
X140232483Y-53289737D01*
X140282285Y-53384912D01*
X140346698Y-53406511D01*
X140434269Y-53356774D01*
X140452794Y-53332282D01*
X140460771Y-53228151D01*
X140388529Y-53158288D01*
X140289442Y-53166724D01*
X140270712Y-53182067D01*
X140232483Y-53289737D01*
X139990353Y-53289737D01*
X140036629Y-53253777D01*
X140125712Y-53133482D01*
X140140376Y-52943487D01*
X140101756Y-52791995D01*
X140278418Y-52791995D01*
X140330378Y-52858291D01*
X140346698Y-52860275D01*
X140412994Y-52808316D01*
X140414978Y-52791995D01*
X140363019Y-52725700D01*
X140346698Y-52723716D01*
X140280403Y-52775675D01*
X140278418Y-52791995D01*
X140101756Y-52791995D01*
X140084861Y-52725720D01*
X139963403Y-52522112D01*
X139962571Y-52521122D01*
X139912260Y-52473357D01*
X140096340Y-52473357D01*
X140105712Y-52513949D01*
X140141859Y-52518877D01*
X140198061Y-52493894D01*
X140187379Y-52473357D01*
X140106347Y-52465185D01*
X140096340Y-52473357D01*
X139912260Y-52473357D01*
X139817326Y-52383227D01*
X139630863Y-52245759D01*
X139868741Y-52245759D01*
X139893724Y-52301960D01*
X139914261Y-52291278D01*
X139922433Y-52210246D01*
X139914261Y-52200239D01*
X139873669Y-52209612D01*
X139868741Y-52245759D01*
X139630863Y-52245759D01*
X139622254Y-52239412D01*
X139421753Y-52118223D01*
X139322172Y-52075060D01*
X139595623Y-52075060D01*
X139629763Y-52109199D01*
X139663902Y-52075060D01*
X139629763Y-52040920D01*
X139595623Y-52075060D01*
X139322172Y-52075060D01*
X139260220Y-52048207D01*
X139215732Y-52040920D01*
X139229690Y-52086039D01*
X139314605Y-52200776D01*
X139380838Y-52279002D01*
X139525057Y-52487572D01*
X139639477Y-52732902D01*
X139707433Y-52969131D01*
X139712262Y-53150393D01*
X139705525Y-53172655D01*
X139601245Y-53278520D01*
X139432147Y-53316548D01*
X139255401Y-53280280D01*
X139181581Y-53231862D01*
X139093544Y-53112600D01*
X139116052Y-53039415D01*
X139126165Y-53016619D01*
X139344849Y-53016619D01*
X139394650Y-53111794D01*
X139459064Y-53133393D01*
X139546635Y-53083656D01*
X139565160Y-53059164D01*
X139573136Y-52955033D01*
X139500895Y-52885170D01*
X139401807Y-52893606D01*
X139383078Y-52908949D01*
X139344849Y-53016619D01*
X139126165Y-53016619D01*
X139185088Y-52883799D01*
X139165136Y-52680761D01*
X139109957Y-52548987D01*
X139322505Y-52548987D01*
X139345007Y-52647639D01*
X139404129Y-52618066D01*
X139422008Y-52591874D01*
X139413445Y-52504181D01*
X139391898Y-52485425D01*
X139332519Y-52500260D01*
X139322505Y-52548987D01*
X139109957Y-52548987D01*
X139075330Y-52466294D01*
X138934807Y-52276388D01*
X138924336Y-52268518D01*
X139140426Y-52268518D01*
X139149798Y-52309111D01*
X139185945Y-52314038D01*
X139242147Y-52289056D01*
X139231465Y-52268518D01*
X139150433Y-52260347D01*
X139140426Y-52268518D01*
X138924336Y-52268518D01*
X138762701Y-52147035D01*
X138622639Y-52111371D01*
X138537027Y-52169001D01*
X138501435Y-52328501D01*
X138518144Y-52563803D01*
X138565046Y-52769737D01*
X138595522Y-52923335D01*
X138551241Y-53006615D01*
X138435904Y-53064685D01*
X138240927Y-53099626D01*
X138080075Y-53051580D01*
X137989410Y-52939799D01*
X137989261Y-52893256D01*
X138182534Y-52893256D01*
X138236721Y-52964299D01*
X138303029Y-52959778D01*
X138361438Y-52863989D01*
X138366591Y-52822105D01*
X138324748Y-52733664D01*
X138238145Y-52745017D01*
X138195892Y-52791995D01*
X138182534Y-52893256D01*
X137989261Y-52893256D01*
X137989047Y-52826135D01*
X138023072Y-52672111D01*
X138052743Y-52502955D01*
X138190371Y-52502955D01*
X138199496Y-52524709D01*
X138282389Y-52558537D01*
X138304143Y-52549412D01*
X138337972Y-52466519D01*
X138328847Y-52444766D01*
X138245953Y-52410937D01*
X138224200Y-52420062D01*
X138190371Y-52502955D01*
X138052743Y-52502955D01*
X138060511Y-52458668D01*
X138069538Y-52399388D01*
X138090267Y-52218196D01*
X138088701Y-52211619D01*
X138230031Y-52211619D01*
X138264171Y-52245759D01*
X138298311Y-52211619D01*
X138264171Y-52177479D01*
X138230031Y-52211619D01*
X138088701Y-52211619D01*
X138070277Y-52134242D01*
X137992711Y-52110307D01*
X137938124Y-52109199D01*
X137749984Y-52172596D01*
X137587425Y-52319301D01*
X137409636Y-52592568D01*
X137362935Y-52836008D01*
X137411536Y-52998440D01*
X137446966Y-53163156D01*
X137370737Y-53276862D01*
X137204058Y-53320087D01*
X137076827Y-53305750D01*
X136925908Y-53251266D01*
X136869892Y-53148594D01*
X136864440Y-53057495D01*
X136867248Y-53041542D01*
X137026744Y-53041542D01*
X137101495Y-53125167D01*
X137141588Y-53133393D01*
X137193802Y-53076169D01*
X137205838Y-52996834D01*
X137169808Y-52880648D01*
X137089640Y-52871508D01*
X137035139Y-52928554D01*
X137026744Y-53041542D01*
X136867248Y-53041542D01*
X136919245Y-52746113D01*
X137010349Y-52548987D01*
X137137558Y-52548987D01*
X137160060Y-52647639D01*
X137219183Y-52618066D01*
X137237062Y-52591874D01*
X137228499Y-52504181D01*
X137206952Y-52485425D01*
X137147573Y-52500260D01*
X137137558Y-52548987D01*
X137010349Y-52548987D01*
X137065259Y-52430174D01*
X137155356Y-52314038D01*
X137342397Y-52314038D01*
X137367379Y-52370240D01*
X137387917Y-52359558D01*
X137396088Y-52278526D01*
X137387917Y-52268518D01*
X137347325Y-52277891D01*
X137342397Y-52314038D01*
X137155356Y-52314038D01*
X137238414Y-52206975D01*
X137349300Y-52092446D01*
X137356737Y-52075060D01*
X137547236Y-52075060D01*
X137581375Y-52109199D01*
X137615515Y-52075060D01*
X138912827Y-52075060D01*
X138946967Y-52109199D01*
X138981107Y-52075060D01*
X138946967Y-52040920D01*
X138912827Y-52075060D01*
X137615515Y-52075060D01*
X137581375Y-52040920D01*
X137547236Y-52075060D01*
X137356737Y-52075060D01*
X137366307Y-52052686D01*
X137292800Y-52066590D01*
X137259241Y-52076401D01*
X136976937Y-52204893D01*
X136716657Y-52400334D01*
X136528660Y-52623006D01*
X136499574Y-52676732D01*
X136410849Y-52893161D01*
X136396861Y-53040489D01*
X136457262Y-53163681D01*
X136495452Y-53208909D01*
X136563365Y-53304731D01*
X136549322Y-53395084D01*
X136478382Y-53502328D01*
X136380876Y-53622939D01*
X136319243Y-53675566D01*
X136318203Y-53675647D01*
X136250005Y-53635448D01*
X136120300Y-53534404D01*
X136067643Y-53490024D01*
X135851223Y-53304092D01*
X135855947Y-53289737D01*
X136067430Y-53289737D01*
X136117231Y-53384912D01*
X136181644Y-53406511D01*
X136269216Y-53356774D01*
X136287741Y-53332282D01*
X136295717Y-53228151D01*
X136223476Y-53158288D01*
X136124388Y-53166724D01*
X136105658Y-53182067D01*
X136067430Y-53289737D01*
X135855947Y-53289737D01*
X135963133Y-52963997D01*
X136020772Y-52844353D01*
X136141984Y-52844353D01*
X136151109Y-52866107D01*
X136234002Y-52899935D01*
X136255756Y-52890810D01*
X136289584Y-52807917D01*
X136280459Y-52786163D01*
X136197566Y-52752335D01*
X136175813Y-52761460D01*
X136141984Y-52844353D01*
X136020772Y-52844353D01*
X136113671Y-52651518D01*
X136248827Y-52473357D01*
X136340963Y-52473357D01*
X136350336Y-52513949D01*
X136386483Y-52518877D01*
X136442685Y-52493894D01*
X136432003Y-52473357D01*
X136350971Y-52465185D01*
X136340963Y-52473357D01*
X136248827Y-52473357D01*
X136340262Y-52352828D01*
X136455660Y-52245759D01*
X136591322Y-52245759D01*
X136616304Y-52301960D01*
X136636841Y-52291278D01*
X136645013Y-52210246D01*
X136636841Y-52200239D01*
X136596249Y-52209612D01*
X136591322Y-52245759D01*
X136455660Y-52245759D01*
X136608914Y-52103566D01*
X136656956Y-52075060D01*
X136864440Y-52075060D01*
X136898580Y-52109199D01*
X136932720Y-52075060D01*
X136898580Y-52040920D01*
X136864440Y-52075060D01*
X136656956Y-52075060D01*
X136885637Y-51939372D01*
X136888181Y-51938501D01*
X137205838Y-51938501D01*
X137239978Y-51972640D01*
X137274117Y-51938501D01*
X137239978Y-51904361D01*
X137205838Y-51938501D01*
X136888181Y-51938501D01*
X136966859Y-51911560D01*
X137259059Y-51854615D01*
X137544164Y-51837839D01*
X137783485Y-51860178D01*
G37*
G36*
X145278229Y-63837371D02*
G01*
X145208713Y-63972682D01*
X145129212Y-64109334D01*
X145009061Y-64322880D01*
X144916495Y-64514190D01*
X144886067Y-64594806D01*
X144865967Y-64682543D01*
X144889845Y-64726320D01*
X144985706Y-64734679D01*
X145181558Y-64716163D01*
X145255841Y-64707591D01*
X145569954Y-64688260D01*
X145908671Y-64692627D01*
X146072709Y-64705681D01*
X146472914Y-64752129D01*
X146407272Y-65059903D01*
X146373042Y-65486136D01*
X146445854Y-65892529D01*
X146595967Y-66204923D01*
X146761283Y-66448529D01*
X146507082Y-66610748D01*
X146185280Y-66857194D01*
X145953109Y-67144865D01*
X145807895Y-67424703D01*
X145726541Y-67621976D01*
X145698662Y-67763941D01*
X145721553Y-67914989D01*
X145779530Y-68100485D01*
X145906274Y-68367498D01*
X146096111Y-68635303D01*
X146317366Y-68868538D01*
X146538367Y-69031841D01*
X146658423Y-69081736D01*
X146788301Y-69138919D01*
X146833257Y-69199592D01*
X146794828Y-69314311D01*
X146691766Y-69508859D01*
X146542413Y-69754606D01*
X146365110Y-70022919D01*
X146178198Y-70285167D01*
X146000016Y-70512719D01*
X145967759Y-70550716D01*
X145266408Y-71258980D01*
X144464297Y-71876836D01*
X143564369Y-72402724D01*
X142569567Y-72835086D01*
X141482832Y-73172364D01*
X140688096Y-73347493D01*
X140285523Y-73407291D01*
X139792679Y-73456515D01*
X139243441Y-73493982D01*
X138671690Y-73518504D01*
X138111305Y-73528898D01*
X137596166Y-73523978D01*
X137160151Y-73502557D01*
X136932720Y-73478880D01*
X135753857Y-73265057D01*
X134657857Y-72962621D01*
X133649902Y-72574569D01*
X132735171Y-72103900D01*
X132394706Y-71874390D01*
X133040784Y-71874390D01*
X133097595Y-71917971D01*
X133249932Y-72006252D01*
X133470654Y-72123926D01*
X133602187Y-72191019D01*
X134306528Y-72500904D01*
X135105093Y-72775486D01*
X135957635Y-73003259D01*
X136823908Y-73172719D01*
X137239978Y-73230836D01*
X137509627Y-73251065D01*
X137877574Y-73262184D01*
X138305893Y-73264638D01*
X138756657Y-73258870D01*
X139191939Y-73245324D01*
X139573812Y-73224443D01*
X139834601Y-73200472D01*
X140206230Y-73145016D01*
X140627452Y-73066912D01*
X141016695Y-72981506D01*
X141074519Y-72967188D01*
X141381565Y-72880494D01*
X141738296Y-72765660D01*
X142115563Y-72633678D01*
X142484217Y-72495539D01*
X142815106Y-72362236D01*
X143079082Y-72244759D01*
X143246995Y-72154101D01*
X143265232Y-72141123D01*
X143258797Y-72127127D01*
X143147521Y-72161378D01*
X142951457Y-72236901D01*
X142759098Y-72317173D01*
X141908512Y-72646038D01*
X141078489Y-72889437D01*
X140227349Y-73056525D01*
X139313407Y-73156460D01*
X138810408Y-73184489D01*
X137600922Y-73168393D01*
X136409554Y-73024213D01*
X135250680Y-72754990D01*
X134138680Y-72363764D01*
X133961749Y-72282449D01*
X136167172Y-72282449D01*
X136217329Y-72290622D01*
X136238627Y-72251424D01*
X136301236Y-72134691D01*
X136393600Y-72024402D01*
X136481287Y-71954143D01*
X136529865Y-71957499D01*
X136531577Y-71965679D01*
X136590873Y-72234603D01*
X136599407Y-72337022D01*
X136648925Y-72379429D01*
X136718751Y-72388232D01*
X136787990Y-72379807D01*
X136813220Y-72333649D01*
X136796254Y-72218429D01*
X136740684Y-72009209D01*
X136662493Y-71728283D01*
X137067261Y-71728283D01*
X137079628Y-71746661D01*
X137092521Y-71750596D01*
X137168024Y-71795451D01*
X137199395Y-71897480D01*
X137196795Y-72093468D01*
X137194940Y-72121351D01*
X137188982Y-72326466D01*
X137213546Y-72427850D01*
X137276697Y-72456474D01*
X137282216Y-72456554D01*
X137348067Y-72429704D01*
X137365796Y-72373339D01*
X137828968Y-72373339D01*
X137851812Y-72489491D01*
X137907345Y-72524665D01*
X137912538Y-72524791D01*
X137977449Y-72481125D01*
X138017783Y-72336741D01*
X138035943Y-72149160D01*
X138037475Y-72094691D01*
X138246660Y-72094691D01*
X138260626Y-72278308D01*
X138343033Y-72399925D01*
X138470373Y-72476964D01*
X138648764Y-72520301D01*
X138821574Y-72523193D01*
X138932167Y-72478897D01*
X138938148Y-72470781D01*
X138902583Y-72441933D01*
X138771996Y-72440544D01*
X138740424Y-72443751D01*
X138578331Y-72448119D01*
X138499303Y-72391886D01*
X138464732Y-72293075D01*
X138457254Y-72145230D01*
X139435543Y-72145230D01*
X139514794Y-72311377D01*
X139675806Y-72422284D01*
X139851671Y-72447213D01*
X139971009Y-72438197D01*
X139960106Y-72424212D01*
X139882132Y-72407842D01*
X139840867Y-72383786D01*
X140090321Y-72383786D01*
X140099660Y-72388232D01*
X140161971Y-72340164D01*
X140175999Y-72319952D01*
X140185304Y-72285812D01*
X140688096Y-72285812D01*
X140722236Y-72319952D01*
X140756375Y-72285812D01*
X140722236Y-72251673D01*
X140688096Y-72285812D01*
X140185304Y-72285812D01*
X140193398Y-72256118D01*
X140184058Y-72251673D01*
X140121748Y-72299740D01*
X140107720Y-72319952D01*
X140090321Y-72383786D01*
X139840867Y-72383786D01*
X139737331Y-72323428D01*
X139660224Y-72207857D01*
X139605064Y-72032715D01*
X139616200Y-71921560D01*
X139640218Y-71891206D01*
X140278418Y-71891206D01*
X140318067Y-72057420D01*
X140412490Y-72195693D01*
X140522202Y-72251673D01*
X140587784Y-72229431D01*
X140564150Y-72139851D01*
X140547340Y-72107272D01*
X140499117Y-71931168D01*
X140498952Y-71766012D01*
X140512378Y-71633810D01*
X140481049Y-71617715D01*
X140403132Y-71682017D01*
X140305853Y-71806275D01*
X140278418Y-71891206D01*
X139640218Y-71891206D01*
X139699975Y-71815684D01*
X139702919Y-71812732D01*
X139748884Y-71747267D01*
X140028771Y-71747267D01*
X140039440Y-71773716D01*
X140100797Y-71838853D01*
X140111749Y-71841995D01*
X140141077Y-71789168D01*
X140141859Y-71773716D01*
X140089369Y-71708060D01*
X140069550Y-71705436D01*
X140028771Y-71747267D01*
X139748884Y-71747267D01*
X139762387Y-71728036D01*
X139726362Y-71709314D01*
X139621443Y-71761371D01*
X139581428Y-71790785D01*
X139452829Y-71959735D01*
X139435543Y-72145230D01*
X138457254Y-72145230D01*
X138453616Y-72073300D01*
X138527309Y-71917325D01*
X138662728Y-71848481D01*
X138836788Y-71890097D01*
X138853592Y-71900077D01*
X138952990Y-71945075D01*
X138981023Y-71897067D01*
X138981107Y-71890669D01*
X138924632Y-71814355D01*
X138785864Y-71783548D01*
X138610791Y-71796925D01*
X138445399Y-71853166D01*
X138368594Y-71908271D01*
X138246660Y-72094691D01*
X138037475Y-72094691D01*
X138042195Y-71926813D01*
X138021469Y-71811206D01*
X137967802Y-71774149D01*
X137956519Y-71773623D01*
X137891280Y-71812908D01*
X137851882Y-71945889D01*
X137833113Y-72149253D01*
X137828968Y-72373339D01*
X137365796Y-72373339D01*
X137379580Y-72329514D01*
X137385201Y-72126423D01*
X137384635Y-72098044D01*
X137375443Y-71889153D01*
X137355699Y-71815546D01*
X137570707Y-71815546D01*
X137581375Y-71841995D01*
X137642732Y-71907133D01*
X137653685Y-71910275D01*
X137683012Y-71857447D01*
X137683795Y-71841995D01*
X137631305Y-71776339D01*
X137611486Y-71773716D01*
X137570707Y-71815546D01*
X137355699Y-71815546D01*
X137346493Y-71781228D01*
X137277343Y-71738679D01*
X137171698Y-71727331D01*
X137067261Y-71728283D01*
X136662493Y-71728283D01*
X136635189Y-71630186D01*
X136381444Y-71923859D01*
X136250024Y-72093807D01*
X136174330Y-72227533D01*
X136167172Y-72282449D01*
X133961749Y-72282449D01*
X133464487Y-72053914D01*
X133255653Y-71952988D01*
X133155543Y-71910275D01*
X134986752Y-71910275D01*
X134992165Y-71973193D01*
X135016862Y-71978554D01*
X135086392Y-71928989D01*
X135089171Y-71910275D01*
X135065875Y-71843770D01*
X135059061Y-71841995D01*
X135000766Y-71889841D01*
X134986752Y-71910275D01*
X133155543Y-71910275D01*
X133104326Y-71888423D01*
X133041119Y-71873190D01*
X133040784Y-71874390D01*
X132394706Y-71874390D01*
X132070583Y-71655896D01*
X132714076Y-71655896D01*
X132725840Y-71677089D01*
X132797786Y-71735809D01*
X132919592Y-71825350D01*
X132967769Y-71833204D01*
X132972505Y-71810258D01*
X132918878Y-71760226D01*
X132818875Y-71704072D01*
X132714076Y-71655896D01*
X132070583Y-71655896D01*
X131918846Y-71553609D01*
X131880828Y-71520169D01*
X132505554Y-71520169D01*
X132522167Y-71558327D01*
X132590917Y-71631628D01*
X132630442Y-71616592D01*
X132631107Y-71607046D01*
X132582609Y-71549294D01*
X132552277Y-71528217D01*
X132505554Y-71520169D01*
X131880828Y-71520169D01*
X131725573Y-71383610D01*
X132300715Y-71383610D01*
X132317328Y-71421768D01*
X132386079Y-71495069D01*
X132425603Y-71480033D01*
X132426268Y-71470487D01*
X132377770Y-71412735D01*
X132347439Y-71391658D01*
X132316414Y-71386314D01*
X134133257Y-71386314D01*
X134175099Y-71533202D01*
X134273296Y-71678259D01*
X134386857Y-71766458D01*
X134421835Y-71773716D01*
X134428590Y-71748037D01*
X134571487Y-71748037D01*
X134611380Y-71772471D01*
X134660961Y-71773716D01*
X134813591Y-71732160D01*
X134851371Y-71705436D01*
X135089171Y-71705436D01*
X135114154Y-71761638D01*
X135134691Y-71750956D01*
X135142863Y-71669924D01*
X135134691Y-71659916D01*
X135094099Y-71669289D01*
X135089171Y-71705436D01*
X134851371Y-71705436D01*
X134870677Y-71691780D01*
X134942421Y-71537236D01*
X134942376Y-71534737D01*
X135159542Y-71534737D01*
X135186737Y-71549449D01*
X135217991Y-71510782D01*
X135263132Y-71502069D01*
X135304748Y-71626540D01*
X135324771Y-71740845D01*
X135373102Y-72063142D01*
X135606674Y-71836755D01*
X135741891Y-71711444D01*
X135826217Y-71644353D01*
X135840246Y-71641283D01*
X135823214Y-71721160D01*
X135781365Y-71877258D01*
X135772839Y-71907235D01*
X135738813Y-72087232D01*
X135772400Y-72181966D01*
X135789909Y-72195328D01*
X135856580Y-72182013D01*
X135927504Y-72050996D01*
X135980903Y-71891561D01*
X136037930Y-71682195D01*
X136049453Y-71569102D01*
X136016348Y-71520113D01*
X135991222Y-71511361D01*
X135884460Y-71540135D01*
X135738069Y-71640647D01*
X135696936Y-71677764D01*
X135498849Y-71867544D01*
X135498849Y-71658291D01*
X135472921Y-71509224D01*
X140711671Y-71509224D01*
X140739549Y-71580094D01*
X140771857Y-71620087D01*
X140896279Y-71819195D01*
X140936214Y-72014700D01*
X140890215Y-72152530D01*
X140850765Y-72233692D01*
X140876214Y-72251673D01*
X140974477Y-72203869D01*
X141010534Y-72166323D01*
X141075188Y-72046834D01*
X141370892Y-72046834D01*
X141395874Y-72103036D01*
X141416411Y-72092354D01*
X141424445Y-72012694D01*
X143419279Y-72012694D01*
X143453418Y-72046834D01*
X143487558Y-72012694D01*
X143453418Y-71978554D01*
X143419279Y-72012694D01*
X141424445Y-72012694D01*
X141424583Y-72011322D01*
X141416411Y-72001314D01*
X141375819Y-72010687D01*
X141370892Y-72046834D01*
X141075188Y-72046834D01*
X141116943Y-71969664D01*
X141114429Y-71947921D01*
X143555838Y-71947921D01*
X143608365Y-71943526D01*
X143737163Y-71888069D01*
X143760677Y-71876135D01*
X143898928Y-71795638D01*
X143964648Y-71739660D01*
X143965515Y-71736069D01*
X143912988Y-71740465D01*
X143784190Y-71795921D01*
X143760677Y-71807855D01*
X143622425Y-71888352D01*
X143556705Y-71944330D01*
X143555838Y-71947921D01*
X141114429Y-71947921D01*
X141097106Y-71798118D01*
X141078547Y-71773716D01*
X141302612Y-71773716D01*
X141327594Y-71829917D01*
X141348132Y-71819235D01*
X141356303Y-71738203D01*
X141348132Y-71728196D01*
X141307540Y-71737569D01*
X141302612Y-71773716D01*
X141078547Y-71773716D01*
X140997770Y-71667505D01*
X140867560Y-71558550D01*
X140763268Y-71503917D01*
X140711671Y-71509224D01*
X135472921Y-71509224D01*
X135468144Y-71481759D01*
X135452724Y-71456167D01*
X141196644Y-71456167D01*
X141208498Y-71531760D01*
X141269610Y-71605163D01*
X141303031Y-71602758D01*
X141388858Y-71614260D01*
X141547269Y-71680936D01*
X141651934Y-71736429D01*
X141824751Y-71828605D01*
X141941024Y-71879364D01*
X141967394Y-71882769D01*
X141960941Y-71811792D01*
X141922923Y-71698279D01*
X141874033Y-71597695D01*
X141853177Y-71592691D01*
X141799115Y-71597524D01*
X141668023Y-71541655D01*
X141600003Y-71503823D01*
X141444019Y-71432318D01*
X141780569Y-71432318D01*
X141805551Y-71488520D01*
X141826089Y-71477837D01*
X141834260Y-71396806D01*
X141826089Y-71386798D01*
X141785497Y-71396171D01*
X141780569Y-71432318D01*
X141444019Y-71432318D01*
X141401378Y-71412771D01*
X141259377Y-71397425D01*
X141196644Y-71456167D01*
X135452724Y-71456167D01*
X135393446Y-71357786D01*
X135300882Y-71313685D01*
X135221572Y-71368429D01*
X135166535Y-71492286D01*
X135159542Y-71534737D01*
X134942376Y-71534737D01*
X134938925Y-71342268D01*
X134902550Y-71261619D01*
X141712289Y-71261619D01*
X141746429Y-71295759D01*
X141780569Y-71261619D01*
X141746429Y-71227479D01*
X141712289Y-71261619D01*
X134902550Y-71261619D01*
X134864564Y-71177399D01*
X134845979Y-71159199D01*
X141951268Y-71159199D01*
X141954389Y-71222218D01*
X141977348Y-71227479D01*
X142073874Y-71177652D01*
X142087827Y-71159199D01*
X142084759Y-71097242D01*
X142246049Y-71097242D01*
X142263394Y-71254547D01*
X142315041Y-71438009D01*
X142386592Y-71604192D01*
X142463651Y-71709661D01*
X142514135Y-71723746D01*
X142542734Y-71700990D01*
X144050536Y-71700990D01*
X144059875Y-71705436D01*
X144122186Y-71657369D01*
X144136214Y-71637156D01*
X144153613Y-71573322D01*
X144144274Y-71568877D01*
X144081963Y-71616944D01*
X144067935Y-71637156D01*
X144050536Y-71700990D01*
X142542734Y-71700990D01*
X142593491Y-71660603D01*
X142599924Y-71638190D01*
X142580402Y-71564431D01*
X144255374Y-71564431D01*
X144264714Y-71568877D01*
X144327025Y-71520809D01*
X144341053Y-71500597D01*
X144358452Y-71436763D01*
X144349112Y-71432318D01*
X144286801Y-71480385D01*
X144272773Y-71500597D01*
X144255374Y-71564431D01*
X142580402Y-71564431D01*
X142575645Y-71546458D01*
X142515332Y-71384068D01*
X142495332Y-71335231D01*
X142437967Y-71160533D01*
X142425238Y-71037100D01*
X142431082Y-71019635D01*
X142433070Y-70961826D01*
X142350844Y-70971373D01*
X142277402Y-71009530D01*
X142246049Y-71097242D01*
X142084759Y-71097242D01*
X142084706Y-71096180D01*
X142061747Y-71090920D01*
X141965221Y-71140747D01*
X141951268Y-71159199D01*
X134845979Y-71159199D01*
X134837086Y-71150490D01*
X134759505Y-71096277D01*
X134769232Y-71135832D01*
X134775234Y-71146010D01*
X134801581Y-71301961D01*
X134751738Y-71495820D01*
X134641932Y-71664956D01*
X134640374Y-71666522D01*
X134571487Y-71748037D01*
X134428590Y-71748037D01*
X134431961Y-71735223D01*
X134381007Y-71670314D01*
X134323287Y-71527794D01*
X134350613Y-71347110D01*
X134445992Y-71180853D01*
X134568553Y-71089885D01*
X134666186Y-71045971D01*
X134636983Y-71030473D01*
X134548311Y-71026968D01*
X134351710Y-71075890D01*
X134198068Y-71206743D01*
X134133347Y-71379734D01*
X134133257Y-71386314D01*
X132316414Y-71386314D01*
X132300715Y-71383610D01*
X131725573Y-71383610D01*
X131570319Y-71247051D01*
X132095877Y-71247051D01*
X132112490Y-71285209D01*
X132181240Y-71358510D01*
X132220765Y-71343473D01*
X132221429Y-71333928D01*
X132207954Y-71317882D01*
X133553681Y-71317882D01*
X133597978Y-71371112D01*
X133691237Y-71381543D01*
X133715988Y-71344780D01*
X133762225Y-71233051D01*
X133843303Y-71061074D01*
X133864912Y-71017513D01*
X133939941Y-70867851D01*
X134097832Y-70867851D01*
X134108566Y-70920221D01*
X134157029Y-71010061D01*
X134174702Y-71022640D01*
X134198571Y-70966884D01*
X134201537Y-70920221D01*
X134165804Y-70829340D01*
X134135400Y-70817802D01*
X134097832Y-70867851D01*
X133939941Y-70867851D01*
X133987288Y-70773407D01*
X133787155Y-70655185D01*
X133654120Y-70594603D01*
X133588657Y-70600684D01*
X133587021Y-70609103D01*
X133642263Y-70673081D01*
X133689440Y-70681242D01*
X133763381Y-70689808D01*
X133782476Y-70734522D01*
X133743475Y-70843909D01*
X133649187Y-71034623D01*
X133566808Y-71216037D01*
X133553681Y-71317882D01*
X132207954Y-71317882D01*
X132172932Y-71276176D01*
X132142600Y-71255099D01*
X132095877Y-71247051D01*
X131570319Y-71247051D01*
X131206107Y-70926696D01*
X131044288Y-70739005D01*
X132657696Y-70739005D01*
X132738736Y-70891838D01*
X132905042Y-70998223D01*
X133074483Y-70975178D01*
X133220961Y-70826668D01*
X133226188Y-70817802D01*
X133291693Y-70702529D01*
X133284712Y-70701470D01*
X133208615Y-70800732D01*
X133069573Y-70918483D01*
X132922560Y-70949990D01*
X132812018Y-70889512D01*
X132793288Y-70854365D01*
X132804860Y-70737340D01*
X132867206Y-70608517D01*
X133330643Y-70608517D01*
X133339983Y-70612963D01*
X133402294Y-70564895D01*
X133416322Y-70544683D01*
X133433721Y-70480849D01*
X133424381Y-70476404D01*
X133362070Y-70524471D01*
X133348042Y-70544683D01*
X133330643Y-70608517D01*
X132867206Y-70608517D01*
X132882543Y-70576827D01*
X132904225Y-70544683D01*
X133000258Y-70360580D01*
X133008801Y-70218425D01*
X133008783Y-70218377D01*
X132967426Y-70151502D01*
X132907509Y-70181266D01*
X132831506Y-70272011D01*
X132680660Y-70526079D01*
X132657696Y-70739005D01*
X131044288Y-70739005D01*
X130602134Y-70226157D01*
X130598992Y-70221325D01*
X132178882Y-70221325D01*
X132191527Y-70449650D01*
X132236056Y-70555163D01*
X132297196Y-70534369D01*
X132359673Y-70383771D01*
X132384915Y-70268496D01*
X132413620Y-70067351D01*
X132419948Y-69927996D01*
X132411758Y-69892897D01*
X132321136Y-69867337D01*
X132240354Y-69951516D01*
X132188218Y-70118908D01*
X132178882Y-70221325D01*
X130598992Y-70221325D01*
X130564766Y-70168697D01*
X131753054Y-70168697D01*
X131781174Y-70177132D01*
X131864026Y-70157508D01*
X132000832Y-70103272D01*
X132055824Y-70058485D01*
X132059870Y-70003242D01*
X131981581Y-70015305D01*
X131853842Y-70088683D01*
X131841872Y-70097470D01*
X131753054Y-70168697D01*
X130564766Y-70168697D01*
X130345318Y-69831255D01*
X133587021Y-69831255D01*
X133643926Y-69872253D01*
X133797124Y-69958977D01*
X134020336Y-70076944D01*
X134184467Y-70160480D01*
X135130098Y-70569476D01*
X136157057Y-70886058D01*
X137274117Y-71113575D01*
X137519385Y-71136744D01*
X137864926Y-71148734D01*
X138274975Y-71150295D01*
X138713771Y-71142174D01*
X139145547Y-71125121D01*
X139534541Y-71099886D01*
X139844989Y-71067218D01*
X139902881Y-71058510D01*
X140251783Y-70992690D01*
X140420001Y-70954361D01*
X142531644Y-70954361D01*
X142556627Y-71010563D01*
X142577164Y-70999880D01*
X142585336Y-70918849D01*
X142577164Y-70908841D01*
X142536572Y-70918214D01*
X142531644Y-70954361D01*
X140420001Y-70954361D01*
X140628245Y-70906912D01*
X140821566Y-70856575D01*
X142782801Y-70856575D01*
X142816106Y-70970142D01*
X142894490Y-71150174D01*
X142999804Y-71345687D01*
X143091730Y-71444487D01*
X143129091Y-71450068D01*
X143164640Y-71427872D01*
X144460213Y-71427872D01*
X144469553Y-71432318D01*
X144531864Y-71384250D01*
X144545892Y-71364038D01*
X144563291Y-71300204D01*
X144553951Y-71295759D01*
X144491640Y-71343826D01*
X144477612Y-71364038D01*
X144460213Y-71427872D01*
X143164640Y-71427872D01*
X143207894Y-71400865D01*
X143214440Y-71386384D01*
X143186020Y-71308215D01*
X143167059Y-71269979D01*
X144648311Y-71269979D01*
X144681524Y-71290417D01*
X144772293Y-71202705D01*
X144793580Y-71176269D01*
X144852631Y-71095393D01*
X144817273Y-71112348D01*
X144767800Y-71150490D01*
X144673236Y-71234719D01*
X144648311Y-71269979D01*
X143167059Y-71269979D01*
X143143758Y-71222990D01*
X143110372Y-71120861D01*
X143169455Y-71094360D01*
X143333166Y-71139723D01*
X143369324Y-71153186D01*
X143534382Y-71180264D01*
X143628173Y-71156693D01*
X143670991Y-71103436D01*
X143594909Y-71051287D01*
X143555751Y-71035971D01*
X143532566Y-71018195D01*
X145006450Y-71018195D01*
X145015789Y-71022640D01*
X145078100Y-70974573D01*
X145092128Y-70954361D01*
X145109527Y-70890527D01*
X145100187Y-70886081D01*
X145037877Y-70934149D01*
X145023849Y-70954361D01*
X145006450Y-71018195D01*
X143532566Y-71018195D01*
X143415894Y-70928742D01*
X143386695Y-70810556D01*
X143343766Y-70673243D01*
X143227650Y-70624778D01*
X143118758Y-70620639D01*
X143119812Y-70677779D01*
X143157660Y-70742563D01*
X143210716Y-70867989D01*
X143166749Y-70960865D01*
X143158677Y-70969156D01*
X143073439Y-71018038D01*
X143007475Y-70953790D01*
X142967356Y-70820164D01*
X142974642Y-70765012D01*
X142972044Y-70712176D01*
X142880439Y-70745576D01*
X142875884Y-70748001D01*
X142803308Y-70795094D01*
X142782801Y-70856575D01*
X140821566Y-70856575D01*
X140999909Y-70810138D01*
X141334419Y-70711331D01*
X141599417Y-70619454D01*
X141762544Y-70543468D01*
X141762697Y-70543369D01*
X141805832Y-70515555D01*
X143574356Y-70515555D01*
X143582439Y-70671530D01*
X143692397Y-70817802D01*
X143813727Y-70922334D01*
X143919352Y-70939125D01*
X144067935Y-70886081D01*
X144160983Y-70840945D01*
X144124841Y-70825683D01*
X144053267Y-70822601D01*
X143897066Y-70757393D01*
X143797191Y-70599258D01*
X143776231Y-70387598D01*
X143782060Y-70349542D01*
X143816439Y-70169704D01*
X143686138Y-70330618D01*
X143574356Y-70515555D01*
X141805832Y-70515555D01*
X141817325Y-70508144D01*
X141837962Y-70489660D01*
X141806175Y-70492513D01*
X141703534Y-70521299D01*
X141511607Y-70580614D01*
X141211961Y-70675052D01*
X141127044Y-70701854D01*
X140142132Y-70942920D01*
X139094961Y-71063964D01*
X138127612Y-71071673D01*
X137246581Y-71009471D01*
X136449290Y-70887466D01*
X135692073Y-70695009D01*
X134931265Y-70421457D01*
X134286886Y-70135261D01*
X134010159Y-70005885D01*
X133785094Y-69905227D01*
X133636052Y-69843871D01*
X133587021Y-69831255D01*
X130345318Y-69831255D01*
X130244755Y-69676621D01*
X133393188Y-69676621D01*
X133409802Y-69714779D01*
X133478552Y-69788080D01*
X133518076Y-69773043D01*
X133518741Y-69763498D01*
X133470244Y-69705746D01*
X133439912Y-69684669D01*
X133393188Y-69676621D01*
X130244755Y-69676621D01*
X130209825Y-69622909D01*
X133245623Y-69622909D01*
X133279763Y-69657049D01*
X133313902Y-69622909D01*
X133279763Y-69588769D01*
X133245623Y-69622909D01*
X130209825Y-69622909D01*
X130174501Y-69568591D01*
X130122366Y-69471782D01*
X133051791Y-69471782D01*
X133068404Y-69509940D01*
X133137154Y-69583241D01*
X133176679Y-69568205D01*
X133177343Y-69558659D01*
X133128846Y-69500907D01*
X133098514Y-69479830D01*
X133051791Y-69471782D01*
X130122366Y-69471782D01*
X130065528Y-69366240D01*
X129994572Y-69217069D01*
X129977001Y-69153628D01*
X130051306Y-69117933D01*
X130200404Y-69055556D01*
X130226595Y-69045063D01*
X130454416Y-68903785D01*
X130691338Y-68676184D01*
X130900471Y-68404520D01*
X131044928Y-68131052D01*
X131059133Y-68091295D01*
X131105772Y-67747660D01*
X131019354Y-67396437D01*
X130829407Y-67072874D01*
X130786739Y-67024183D01*
X131333795Y-67024183D01*
X131381984Y-67145297D01*
X131515337Y-67338551D01*
X131717030Y-67585269D01*
X131970241Y-67866777D01*
X132258147Y-68164401D01*
X132563924Y-68459465D01*
X132870751Y-68733296D01*
X132882214Y-68743040D01*
X133085193Y-68911657D01*
X133247209Y-69039578D01*
X133341560Y-69105962D01*
X133353370Y-69110812D01*
X133417227Y-69063616D01*
X133528597Y-68946525D01*
X133560331Y-68909571D01*
X133738038Y-68748172D01*
X133958754Y-68608595D01*
X133999741Y-68589173D01*
X134163872Y-68508641D01*
X134258511Y-68446461D01*
X134267826Y-68431946D01*
X134210605Y-68362162D01*
X134059939Y-68241953D01*
X133841216Y-68088178D01*
X133579821Y-67917700D01*
X133301143Y-67747378D01*
X133030567Y-67594074D01*
X132915211Y-67533606D01*
X132592488Y-67380615D01*
X132263828Y-67243261D01*
X131952463Y-67129025D01*
X131681623Y-67045392D01*
X131474540Y-66999844D01*
X131354443Y-66999865D01*
X131333795Y-67024183D01*
X130786739Y-67024183D01*
X130674507Y-66896110D01*
X130478938Y-66715732D01*
X130287073Y-66569574D01*
X130156835Y-66499406D01*
X130151347Y-66433789D01*
X130203531Y-66286148D01*
X130275810Y-66138625D01*
X130370915Y-65946623D01*
X130422004Y-65781111D01*
X130438104Y-65590280D01*
X130428242Y-65322321D01*
X130425535Y-65279298D01*
X130398564Y-64860409D01*
X130719535Y-64860409D01*
X130777059Y-64914094D01*
X130922836Y-64992410D01*
X131018335Y-65034373D01*
X131216022Y-65128078D01*
X131480647Y-65269941D01*
X131764445Y-65434012D01*
X131851963Y-65487248D01*
X132387047Y-65817369D01*
X132502159Y-65560259D01*
X132595911Y-65389933D01*
X132687860Y-65281906D01*
X132709538Y-65269251D01*
X132717135Y-65227846D01*
X132620193Y-65161764D01*
X132445930Y-65082225D01*
X132221564Y-65000445D01*
X131974314Y-64927645D01*
X131769313Y-64881724D01*
X131494055Y-64841059D01*
X131219068Y-64817317D01*
X130976872Y-64811157D01*
X130799990Y-64823239D01*
X130720944Y-64854224D01*
X130719535Y-64860409D01*
X130398564Y-64860409D01*
X130392057Y-64759343D01*
X130811716Y-64723088D01*
X131114867Y-64711212D01*
X131431104Y-64720505D01*
X131589843Y-64735775D01*
X131798695Y-64759263D01*
X131905997Y-64751087D01*
X131944539Y-64704103D01*
X131948311Y-64657679D01*
X131916356Y-64514856D01*
X131837582Y-64320289D01*
X131737624Y-64126794D01*
X131642118Y-63987190D01*
X131607889Y-63956308D01*
X131541450Y-63868276D01*
X131538634Y-63848106D01*
X131586859Y-63822838D01*
X131713934Y-63868138D01*
X131893455Y-63967564D01*
X132099019Y-64104675D01*
X132304223Y-64263032D01*
X132482663Y-64426192D01*
X132505665Y-64450253D01*
X132754157Y-64740452D01*
X132921198Y-64988134D01*
X133001841Y-65181225D01*
X132991136Y-65307650D01*
X132884135Y-65355335D01*
X132876638Y-65355436D01*
X132743452Y-65414420D01*
X132626955Y-65557574D01*
X132565261Y-65734197D01*
X132562827Y-65772894D01*
X132602297Y-65898040D01*
X132727408Y-66072772D01*
X132948217Y-66310109D01*
X133070267Y-66430005D01*
X133323648Y-66684657D01*
X133573570Y-66953214D01*
X133780503Y-67192554D01*
X133850469Y-67281095D01*
X134007753Y-67499791D01*
X134176794Y-67750965D01*
X134339626Y-68005753D01*
X134478284Y-68235291D01*
X134574802Y-68410712D01*
X134611213Y-68503153D01*
X134611214Y-68503348D01*
X134550882Y-68543777D01*
X134399381Y-68586734D01*
X134327010Y-68600589D01*
X134038051Y-68704393D01*
X133763704Y-68913734D01*
X133484601Y-69178863D01*
X133655300Y-69314848D01*
X133846695Y-69443530D01*
X134130502Y-69605091D01*
X134472127Y-69782231D01*
X134836976Y-69957652D01*
X135190457Y-70114052D01*
X135482894Y-70228785D01*
X136199571Y-70450732D01*
X136915938Y-70598813D01*
X137675336Y-70679970D01*
X138434870Y-70701523D01*
X139033474Y-70690236D01*
X139545798Y-70653438D01*
X140020920Y-70583676D01*
X140507920Y-70473500D01*
X140547005Y-70462227D01*
X141930755Y-70462227D01*
X141951268Y-70474313D01*
X142063477Y-70440316D01*
X142121967Y-70408124D01*
X142176619Y-70354021D01*
X142159339Y-70343840D01*
X142255006Y-70343840D01*
X142347890Y-70316882D01*
X142524123Y-70239777D01*
X142670473Y-70167995D01*
X142731915Y-70135006D01*
X143889621Y-70135006D01*
X144072662Y-70292451D01*
X144220276Y-70483541D01*
X144255703Y-70635227D01*
X144262464Y-70758862D01*
X144296840Y-70760952D01*
X144347416Y-70699690D01*
X144423325Y-70559535D01*
X144434651Y-70510544D01*
X145535945Y-70510544D01*
X145570085Y-70544683D01*
X145604225Y-70510544D01*
X145570085Y-70476404D01*
X145535945Y-70510544D01*
X144434651Y-70510544D01*
X144441301Y-70481780D01*
X144385683Y-70327951D01*
X144245778Y-70197524D01*
X144072108Y-70135682D01*
X144053545Y-70135006D01*
X143889621Y-70135006D01*
X142731915Y-70135006D01*
X142855985Y-70068391D01*
X142979164Y-69991526D01*
X143009601Y-69962007D01*
X142955590Y-69974380D01*
X142820085Y-70030719D01*
X142642879Y-70112236D01*
X142463765Y-70200143D01*
X142322537Y-70275655D01*
X142264216Y-70313919D01*
X142255006Y-70343840D01*
X142159339Y-70343840D01*
X142156107Y-70341936D01*
X142043898Y-70375933D01*
X141985408Y-70408124D01*
X141930755Y-70462227D01*
X140547005Y-70462227D01*
X141055878Y-70315456D01*
X141129925Y-70292334D01*
X141437773Y-70183561D01*
X141795712Y-70038454D01*
X142117259Y-69896027D01*
X143077881Y-69896027D01*
X143112021Y-69930167D01*
X143146160Y-69896027D01*
X143131486Y-69881353D01*
X144370707Y-69881353D01*
X144426136Y-70015456D01*
X144528368Y-70172076D01*
X144667164Y-70349127D01*
X144763455Y-70418188D01*
X144826542Y-70401873D01*
X144859797Y-70333144D01*
X144818688Y-70220080D01*
X144794506Y-70184384D01*
X145085655Y-70184384D01*
X145123799Y-70179393D01*
X145189503Y-70106945D01*
X145229184Y-70006903D01*
X145205626Y-69971154D01*
X145140777Y-69993539D01*
X145106283Y-70067494D01*
X145085655Y-70184384D01*
X144794506Y-70184384D01*
X144695042Y-70037562D01*
X144541843Y-69857212D01*
X144435641Y-69795510D01*
X144396868Y-69807766D01*
X144370707Y-69881353D01*
X143131486Y-69881353D01*
X143112021Y-69861888D01*
X143077881Y-69896027D01*
X142117259Y-69896027D01*
X142169180Y-69873029D01*
X142201730Y-69857442D01*
X143231181Y-69857442D01*
X143240520Y-69861888D01*
X143302831Y-69813820D01*
X143316859Y-69793608D01*
X143334258Y-69729774D01*
X143324919Y-69725328D01*
X143262608Y-69773396D01*
X143248580Y-69793608D01*
X143231181Y-69857442D01*
X142201730Y-69857442D01*
X142523615Y-69703303D01*
X142546679Y-69691189D01*
X143419279Y-69691189D01*
X143453418Y-69725328D01*
X143487558Y-69691189D01*
X143453418Y-69657049D01*
X143419279Y-69691189D01*
X142546679Y-69691189D01*
X142620144Y-69652603D01*
X143572579Y-69652603D01*
X143581918Y-69657049D01*
X143644229Y-69608981D01*
X143658257Y-69588769D01*
X143675656Y-69524935D01*
X143666317Y-69520490D01*
X143604006Y-69568557D01*
X143589978Y-69588769D01*
X143572579Y-69652603D01*
X142620144Y-69652603D01*
X142824457Y-69545292D01*
X143032151Y-69418070D01*
X143828956Y-69418070D01*
X143863096Y-69452210D01*
X143897236Y-69418070D01*
X143863096Y-69383931D01*
X143828956Y-69418070D01*
X143032151Y-69418070D01*
X143037143Y-69415012D01*
X143061431Y-69397243D01*
X143213677Y-69281511D01*
X144033795Y-69281511D01*
X144067935Y-69315651D01*
X144102074Y-69281511D01*
X144067935Y-69247372D01*
X144033795Y-69281511D01*
X143213677Y-69281511D01*
X143215679Y-69279989D01*
X143009760Y-69030173D01*
X142792804Y-68831227D01*
X142532114Y-68677490D01*
X142497824Y-68663488D01*
X142191809Y-68546620D01*
X142221364Y-68491323D01*
X142531644Y-68491323D01*
X142587559Y-68562686D01*
X142654634Y-68594409D01*
X142769623Y-68663462D01*
X142932510Y-68798733D01*
X143044028Y-68906268D01*
X143198629Y-69056065D01*
X143316865Y-69155160D01*
X143360806Y-69179092D01*
X143432440Y-69138858D01*
X143583867Y-69030697D01*
X143789406Y-68873424D01*
X143924701Y-68765984D01*
X144181854Y-68546123D01*
X144452622Y-68292476D01*
X144722818Y-68021175D01*
X144978257Y-67748352D01*
X145204752Y-67490142D01*
X145388116Y-67262678D01*
X145514164Y-67082092D01*
X145568710Y-66964519D01*
X145542750Y-66925866D01*
X145400895Y-66951732D01*
X145167704Y-67021157D01*
X144876474Y-67121878D01*
X144560498Y-67241635D01*
X144253073Y-67368166D01*
X143987492Y-67489211D01*
X143917694Y-67524310D01*
X143648417Y-67673845D01*
X143363021Y-67848523D01*
X143085837Y-68031366D01*
X142841197Y-68205400D01*
X142653434Y-68353647D01*
X142546881Y-68459133D01*
X142531644Y-68491323D01*
X142221364Y-68491323D01*
X142396853Y-68162990D01*
X142727509Y-67626904D01*
X143146616Y-67076873D01*
X143619348Y-66557697D01*
X143726483Y-66452647D01*
X143941556Y-66242448D01*
X144073490Y-66096454D01*
X144139629Y-65986395D01*
X144157313Y-65883999D01*
X144145313Y-65769851D01*
X144060308Y-65539010D01*
X143936932Y-65389576D01*
X143830566Y-65294061D01*
X143809852Y-65227475D01*
X144052899Y-65227475D01*
X144179906Y-65476592D01*
X144260909Y-65656754D01*
X144304499Y-65795142D01*
X144306913Y-65817720D01*
X144314829Y-65866119D01*
X144353829Y-65871881D01*
X144446794Y-65825121D01*
X144616604Y-65715951D01*
X144750730Y-65625934D01*
X144949991Y-65502592D01*
X145216911Y-65351648D01*
X145495962Y-65204431D01*
X145513795Y-65195436D01*
X145807984Y-65041622D01*
X145979845Y-64933677D01*
X146032811Y-64864255D01*
X145970318Y-64826011D01*
X145795801Y-64811599D01*
X145693604Y-64810869D01*
X145078312Y-64868618D01*
X144484315Y-65043789D01*
X144373835Y-65089412D01*
X144052899Y-65227475D01*
X143809852Y-65227475D01*
X143804449Y-65210106D01*
X143850197Y-65080715D01*
X143881687Y-65014038D01*
X144030421Y-64782456D01*
X144257672Y-64517796D01*
X144525273Y-64257932D01*
X144795061Y-64040735D01*
X144975065Y-63929036D01*
X145149552Y-63843441D01*
X145267670Y-63791848D01*
X145291426Y-63785006D01*
X145278229Y-63837371D01*
G37*
%TD*%
D11*
%TO.C,H3*%
X107500000Y-142500000D03*
%TD*%
%TO.C,H1*%
X107500000Y-57500000D03*
%TD*%
D12*
%TO.C,10kOhm*%
X174530000Y-94850000D03*
D13*
X174530000Y-97390000D03*
%TD*%
D11*
%TO.C,H4*%
X192500000Y-142500000D03*
%TD*%
D12*
%TO.C,ACS712_2*%
X115130000Y-81860000D03*
D13*
X117670000Y-81860000D03*
X120210000Y-81860000D03*
%TD*%
D12*
%TO.C,MicroSD*%
X193300000Y-107750000D03*
D13*
X193300000Y-105210000D03*
X193300000Y-102670000D03*
X193300000Y-100130000D03*
X193300000Y-97590000D03*
X193300000Y-95050000D03*
%TD*%
D12*
%TO.C,GPS*%
X107115000Y-120990000D03*
D13*
X107115000Y-118450000D03*
X107115000Y-115910000D03*
X107115000Y-113370000D03*
%TD*%
D12*
%TO.C,ACS712_4*%
X119610000Y-96060000D03*
D13*
X122150000Y-96060000D03*
X124690000Y-96060000D03*
%TD*%
D12*
%TO.C,300kOhm*%
X174480000Y-120090000D03*
D13*
X174480000Y-117550000D03*
%TD*%
D12*
%TO.C,1kOhm*%
X122435000Y-128780000D03*
D13*
X122435000Y-131320000D03*
%TD*%
D12*
%TO.C,ACS712_1*%
X103900000Y-81860000D03*
D13*
X106440000Y-81860000D03*
X108980000Y-81860000D03*
%TD*%
D14*
%TO.C,REF\u002A\u002A*%
X120500000Y-57000000D03*
%TD*%
%TO.C,REF\u002A\u002A*%
X180000000Y-70500000D03*
%TD*%
D12*
%TO.C,ACS712_3*%
X126200000Y-81860000D03*
D13*
X128740000Y-81860000D03*
X131280000Y-81860000D03*
%TD*%
D12*
%TO.C,KY-24*%
X107165000Y-99950000D03*
D13*
X107165000Y-102490000D03*
X107165000Y-105030000D03*
X107165000Y-107570000D03*
%TD*%
D12*
%TO.C,PowerModule1*%
X190450000Y-83040000D03*
D13*
X187910000Y-83040000D03*
X185370000Y-83040000D03*
X182830000Y-83040000D03*
X180290000Y-83040000D03*
X177750000Y-83040000D03*
%TD*%
D12*
%TO.C,LM324*%
X176340000Y-126590000D03*
D13*
X184380000Y-126590000D03*
X176340000Y-129130000D03*
X184380000Y-129130000D03*
X176340000Y-131670000D03*
X184380000Y-131670000D03*
X176340000Y-134210000D03*
X184380000Y-134210000D03*
X176340000Y-136750000D03*
X184380000Y-136750000D03*
X176340000Y-139290000D03*
X184380000Y-139290000D03*
X176340000Y-141830000D03*
X184380000Y-141830000D03*
%TD*%
D14*
%TO.C,REF\u002A\u002A*%
X120500000Y-70500000D03*
%TD*%
D12*
%TO.C,Accelerator*%
X107600000Y-129930000D03*
D13*
X107600000Y-132470000D03*
%TD*%
D12*
%TO.C,1kOhm*%
X174530000Y-106340000D03*
D13*
X174530000Y-108880000D03*
%TD*%
D11*
%TO.C,H2*%
X192500000Y-57500000D03*
%TD*%
D12*
%TO.C,T-D500*%
X190690000Y-115410000D03*
D13*
X190690000Y-117950000D03*
%TD*%
D15*
%TO.C,U3*%
X137020000Y-83380000D03*
X137020000Y-130330000D03*
X161530000Y-83380000D03*
X161530000Y-130330000D03*
D16*
X136600000Y-91340000D03*
D17*
X136600000Y-93880000D03*
X136600000Y-96420000D03*
X136600000Y-98960000D03*
X136600000Y-101500000D03*
X136600000Y-104040000D03*
X136600000Y-106580000D03*
X136600000Y-109120000D03*
X136600000Y-111660000D03*
X136600000Y-114200000D03*
X136600000Y-116740000D03*
X136600000Y-119280000D03*
X136600000Y-121820000D03*
X136600000Y-124360000D03*
X136600000Y-126900000D03*
X162000000Y-126900000D03*
X162000000Y-124360000D03*
X162000000Y-121820000D03*
X162000000Y-119280000D03*
X162000000Y-116740000D03*
X162000000Y-114200000D03*
X162000000Y-111660000D03*
X162000000Y-109120000D03*
X162000000Y-106580000D03*
X162000000Y-104040000D03*
X162000000Y-101500000D03*
X162000000Y-98960000D03*
X162000000Y-96420000D03*
X162000000Y-93880000D03*
X162000000Y-91340000D03*
%TD*%
D12*
%TO.C,1kOhm*%
X122435000Y-118270000D03*
D13*
X122435000Y-120810000D03*
%TD*%
D14*
%TO.C,REF\u002A\u002A*%
X180000000Y-57000000D03*
%TD*%
D12*
%TO.C,C-68nF1*%
X122340000Y-104860000D03*
D13*
X122340000Y-107400000D03*
%TD*%
M02*
