%TF.GenerationSoftware,KiCad,Pcbnew,8.0.4*%
%TF.CreationDate,2024-07-29T13:43:03-05:00*%
%TF.ProjectId,DAQ-Bicineta,4441512d-4269-4636-996e-6574612e6b69,rev?*%
%TF.SameCoordinates,Original*%
%TF.FileFunction,Copper,L1,Top*%
%TF.FilePolarity,Positive*%
%FSLAX46Y46*%
G04 Gerber Fmt 4.6, Leading zero omitted, Abs format (unit mm)*
G04 Created by KiCad (PCBNEW 8.0.4) date 2024-07-29 13:43:03*
%MOMM*%
%LPD*%
G01*
G04 APERTURE LIST*
%TA.AperFunction,ComponentPad*%
%ADD10C,4.800000*%
%TD*%
%TA.AperFunction,ComponentPad*%
%ADD11R,1.700000X1.700000*%
%TD*%
%TA.AperFunction,ComponentPad*%
%ADD12O,1.700000X1.700000*%
%TD*%
%TA.AperFunction,ComponentPad*%
%ADD13R,2.000000X2.000000*%
%TD*%
%TA.AperFunction,ComponentPad*%
%ADD14C,2.000000*%
%TD*%
%TA.AperFunction,ViaPad*%
%ADD15C,0.600000*%
%TD*%
%TA.AperFunction,Conductor*%
%ADD16C,1.200000*%
%TD*%
%TA.AperFunction,Conductor*%
%ADD17C,1.100000*%
%TD*%
%TA.AperFunction,Conductor*%
%ADD18C,1.500000*%
%TD*%
%TA.AperFunction,Conductor*%
%ADD19C,1.000000*%
%TD*%
G04 APERTURE END LIST*
D10*
%TO.P,H3,3*%
%TO.N,ACCELERATOR_GND*%
X107500000Y-142500000D03*
%TD*%
%TO.P,H1,1*%
%TO.N,ACCELERATOR_GND*%
X107500000Y-57500000D03*
%TD*%
D11*
%TO.P,10kOhm,1*%
%TO.N,T-D500_VCC*%
X174530000Y-94850000D03*
D12*
%TO.P,10kOhm,2*%
%TO.N,Net-(LM324-Pin_5)*%
X174530000Y-97390000D03*
%TD*%
D10*
%TO.P,H4,4*%
%TO.N,ACCELERATOR_GND*%
X192500000Y-142500000D03*
%TD*%
D11*
%TO.P,ACS712_2,1,Pin_1*%
%TO.N,CS_VCC*%
X115130000Y-81860000D03*
D12*
%TO.P,ACS712_2,2,Pin_2*%
%TO.N,CS_OUT_2*%
X117670000Y-81860000D03*
%TO.P,ACS712_2,3,Pin_3*%
%TO.N,ACCELERATOR_GND*%
X120210000Y-81860000D03*
%TD*%
D11*
%TO.P,MicroSD,1,Pin_1*%
%TO.N,MSD_CS*%
X193300000Y-107750000D03*
D12*
%TO.P,MicroSD,2,Pin_2*%
%TO.N,MSD_SCK*%
X193300000Y-105210000D03*
%TO.P,MicroSD,3,Pin_3*%
%TO.N,MSD_MOSI*%
X193300000Y-102670000D03*
%TO.P,MicroSD,4,Pin_4*%
%TO.N,MSD_MISO*%
X193300000Y-100130000D03*
%TO.P,MicroSD,5,Pin_5*%
%TO.N,CS_VCC*%
X193300000Y-97590000D03*
%TO.P,MicroSD,6,Pin_6*%
%TO.N,ACCELERATOR_GND*%
X193300000Y-95050000D03*
%TD*%
D11*
%TO.P,GPS,1,Pin_1*%
%TO.N,ACCELERATOR_GND*%
X107115000Y-120990000D03*
D12*
%TO.P,GPS,2,Pin_2*%
%TO.N,GPS_TX*%
X107115000Y-118450000D03*
%TO.P,GPS,3,Pin_3*%
%TO.N,GPS_RX*%
X107115000Y-115910000D03*
%TO.P,GPS,4,Pin_4*%
%TO.N,CS_VCC*%
X107115000Y-113370000D03*
%TD*%
D11*
%TO.P,ACS712_4,1,Pin_1*%
%TO.N,CS_VCC*%
X119610000Y-96060000D03*
D12*
%TO.P,ACS712_4,2,Pin_2*%
%TO.N,CS_OUT_4*%
X122150000Y-96060000D03*
%TO.P,ACS712_4,3,Pin_3*%
%TO.N,ACCELERATOR_GND*%
X124690000Y-96060000D03*
%TD*%
D11*
%TO.P,300kOhm,1*%
%TO.N,Net-(LM324-Pin_3)*%
X174480000Y-120090000D03*
D12*
%TO.P,300kOhm,2*%
%TO.N,ACCELERATOR_GND*%
X174480000Y-117550000D03*
%TD*%
D11*
%TO.P,1kOhm,1*%
%TO.N,Net-(ACC_VIN_GND1-Pin_1)*%
X122435000Y-128780000D03*
D12*
%TO.P,1kOhm,2*%
%TO.N,ACCELERATOR_Vout*%
X122435000Y-131320000D03*
%TD*%
D11*
%TO.P,ACS712_1,1,Pin_1*%
%TO.N,CS_VCC*%
X103900000Y-81860000D03*
D12*
%TO.P,ACS712_1,2,Pin_2*%
%TO.N,CS_OUT_1*%
X106440000Y-81860000D03*
%TO.P,ACS712_1,3,Pin_3*%
%TO.N,ACCELERATOR_GND*%
X108980000Y-81860000D03*
%TD*%
D11*
%TO.P,ACS712_3,1,Pin_1*%
%TO.N,CS_VCC*%
X126200000Y-81860000D03*
D12*
%TO.P,ACS712_3,2,Pin_2*%
%TO.N,CS_OUT_3*%
X128740000Y-81860000D03*
%TO.P,ACS712_3,3,Pin_3*%
%TO.N,ACCELERATOR_GND*%
X131280000Y-81860000D03*
%TD*%
D11*
%TO.P,KY-24,1,Pin_1*%
%TO.N,KY_A0*%
X107165000Y-99950000D03*
D12*
%TO.P,KY-24,2,Pin_2*%
%TO.N,ACCELERATOR_GND*%
X107165000Y-102490000D03*
%TO.P,KY-24,3,Pin_3*%
%TO.N,CS_VCC*%
X107165000Y-105030000D03*
%TO.P,KY-24,4,Pin_4*%
%TO.N,KY_DO*%
X107165000Y-107570000D03*
%TD*%
D11*
%TO.P,PowerModule1,1,Pin_1*%
%TO.N,CS_VCC*%
X190450000Y-83040000D03*
D12*
%TO.P,PowerModule1,2,Pin_2*%
X187910000Y-83040000D03*
%TO.P,PowerModule1,3,Pin_3*%
%TO.N,PM_I*%
X185370000Y-83040000D03*
%TO.P,PowerModule1,4,Pin_4*%
%TO.N,PM_V*%
X182830000Y-83040000D03*
%TO.P,PowerModule1,5,Pin_5*%
%TO.N,ACCELERATOR_GND*%
X180290000Y-83040000D03*
%TO.P,PowerModule1,6,Pin_6*%
X177750000Y-83040000D03*
%TD*%
D11*
%TO.P,LM324,1,Pin_1*%
%TO.N,T-D500_OUT*%
X176340000Y-126590000D03*
D12*
%TO.P,LM324,2,Pin_2*%
%TO.N,unconnected-(LM324-Pin_2-Pad2)*%
X184380000Y-126590000D03*
%TO.P,LM324,3,Pin_3*%
%TO.N,Net-(LM324-Pin_3)*%
X176340000Y-129130000D03*
%TO.P,LM324,4,Pin_4*%
%TO.N,unconnected-(LM324-Pin_4-Pad4)*%
X184380000Y-129130000D03*
%TO.P,LM324,5,Pin_5*%
%TO.N,Net-(LM324-Pin_5)*%
X176340000Y-131670000D03*
%TO.P,LM324,6,Pin_6*%
%TO.N,unconnected-(LM324-Pin_6-Pad6)*%
X184380000Y-131670000D03*
%TO.P,LM324,7,Pin_7*%
%TO.N,T-D500_VCC*%
X176340000Y-134210000D03*
%TO.P,LM324,8,Pin_8*%
%TO.N,ACCELERATOR_GND*%
X184380000Y-134210000D03*
%TO.P,LM324,9,Pin_9*%
%TO.N,unconnected-(LM324-Pin_9-Pad9)*%
X176340000Y-136750000D03*
%TO.P,LM324,10,Pin_10*%
%TO.N,unconnected-(LM324-Pin_10-Pad10)*%
X184380000Y-136750000D03*
%TO.P,LM324,11,Pin_11*%
%TO.N,unconnected-(LM324-Pin_11-Pad11)*%
X176340000Y-139290000D03*
%TO.P,LM324,12,Pin_12*%
%TO.N,unconnected-(LM324-Pin_12-Pad12)*%
X184380000Y-139290000D03*
%TO.P,LM324,13,Pin_13*%
%TO.N,unconnected-(LM324-Pin_13-Pad13)*%
X176340000Y-141830000D03*
%TO.P,LM324,14,Pin_14*%
%TO.N,unconnected-(LM324-Pin_14-Pad14)*%
X184380000Y-141830000D03*
%TD*%
D11*
%TO.P,Accelerator,1,Pin_1*%
%TO.N,Net-(ACC_VIN_GND1-Pin_1)*%
X107600000Y-129930000D03*
D12*
%TO.P,Accelerator,2,Pin_2*%
%TO.N,ACCELERATOR_GND*%
X107600000Y-132470000D03*
%TD*%
D11*
%TO.P,1kOhm,1*%
%TO.N,Net-(LM324-Pin_5)*%
X174530000Y-106340000D03*
D12*
%TO.P,1kOhm,2*%
%TO.N,ACCELERATOR_GND*%
X174530000Y-108880000D03*
%TD*%
D10*
%TO.P,H2,2*%
%TO.N,ACCELERATOR_GND*%
X192500000Y-57500000D03*
%TD*%
D11*
%TO.P,T-D500,1,Pin_1*%
%TO.N,Net-(LM324-Pin_3)*%
X190690000Y-115410000D03*
D12*
%TO.P,T-D500,2,Pin_2*%
%TO.N,T-D500_OUT*%
X190690000Y-117950000D03*
%TD*%
D13*
%TO.P,U3,1,3V3*%
%TO.N,T-D500_VCC*%
X136600000Y-91340000D03*
D14*
%TO.P,U3,2,GND*%
%TO.N,ACCELERATOR_GND*%
X136600000Y-93880000D03*
%TO.P,U3,3,D15*%
%TO.N,unconnected-(U3-D15-Pad3)*%
X136600000Y-96420000D03*
%TO.P,U3,4,D2*%
%TO.N,unconnected-(U3-D2-Pad4)*%
X136600000Y-98960000D03*
%TO.P,U3,5,D4*%
%TO.N,unconnected-(U3-D4-Pad5)*%
X136600000Y-101500000D03*
%TO.P,U3,6,RX2*%
%TO.N,GPS_RX*%
X136600000Y-104040000D03*
%TO.P,U3,7,TX2*%
%TO.N,GPS_TX*%
X136600000Y-106580000D03*
%TO.P,U3,8,D5*%
%TO.N,MSD_CS*%
X136600000Y-109120000D03*
%TO.P,U3,9,D18*%
%TO.N,MSD_SCK*%
X136600000Y-111660000D03*
%TO.P,U3,10,D19*%
%TO.N,MSD_MISO*%
X136600000Y-114200000D03*
%TO.P,U3,11,D21*%
%TO.N,unconnected-(U3-D21-Pad11)*%
X136600000Y-116740000D03*
%TO.P,U3,12,RX0*%
%TO.N,unconnected-(U3-RX0-Pad12)*%
X136600000Y-119280000D03*
%TO.P,U3,13,TX0*%
%TO.N,unconnected-(U3-TX0-Pad13)*%
X136600000Y-121820000D03*
%TO.P,U3,14,D22*%
%TO.N,unconnected-(U3-D22-Pad14)*%
X136600000Y-124360000D03*
%TO.P,U3,15,D23*%
%TO.N,MSD_MOSI*%
X136600000Y-126900000D03*
%TO.P,U3,16,EN*%
%TO.N,unconnected-(U3-EN-Pad16)*%
X162000000Y-126900000D03*
%TO.P,U3,17,VP*%
%TO.N,unconnected-(U3-VP-Pad17)*%
X162000000Y-124360000D03*
%TO.P,U3,18,VN*%
%TO.N,unconnected-(U3-VN-Pad18)*%
X162000000Y-121820000D03*
%TO.P,U3,19,D34*%
%TO.N,T-D500_OUT*%
X162000000Y-119280000D03*
%TO.P,U3,20,D35*%
%TO.N,PM_I*%
X162000000Y-116740000D03*
%TO.P,U3,21,D32*%
%TO.N,CS_OUT_1*%
X162000000Y-114200000D03*
%TO.P,U3,22,D33*%
%TO.N,PM_V*%
X162000000Y-111660000D03*
%TO.P,U3,23,D25*%
%TO.N,ACCELERATOR_Vout*%
X162000000Y-109120000D03*
%TO.P,U3,24,D26*%
%TO.N,KY_DO*%
X162000000Y-106580000D03*
%TO.P,U3,25,D27*%
%TO.N,KY_A0*%
X162000000Y-104040000D03*
%TO.P,U3,26,D14*%
%TO.N,CS_OUT_4*%
X162000000Y-101500000D03*
%TO.P,U3,27,D12*%
%TO.N,CS_OUT_2*%
X162000000Y-98960000D03*
%TO.P,U3,28,D13*%
%TO.N,CS_OUT_3*%
X162000000Y-96420000D03*
%TO.P,U3,29,GND*%
%TO.N,ACCELERATOR_GND*%
X162000000Y-93880000D03*
%TO.P,U3,30,VIN*%
%TO.N,CS_VCC*%
X162000000Y-91340000D03*
%TD*%
D11*
%TO.P,1kOhm,1*%
%TO.N,ACCELERATOR_Vout*%
X122435000Y-118270000D03*
D12*
%TO.P,1kOhm,2*%
%TO.N,ACCELERATOR_GND*%
X122435000Y-120810000D03*
%TD*%
D11*
%TO.P,C-68nF1,1*%
%TO.N,KY_DO*%
X122340000Y-104860000D03*
D12*
%TO.P,C-68nF1,2*%
%TO.N,ACCELERATOR_GND*%
X122340000Y-107400000D03*
%TD*%
D15*
%TO.N,T-D500_OUT*%
X166430000Y-119280000D03*
%TO.N,CS_VCC*%
X115150000Y-87470000D03*
%TO.N,MSD_SCK*%
X129850000Y-138320000D03*
%TO.N,MSD_CS*%
X190610000Y-107760000D03*
%TO.N,MSD_MOSI*%
X132110000Y-137140000D03*
%TO.N,Net-(LM324-Pin_5)*%
X179720000Y-128310000D03*
%TO.N,Net-(LM324-Pin_3)*%
X187110000Y-115310000D03*
X168350000Y-124830000D03*
X172980000Y-129140000D03*
%TO.N,T-D500_VCC*%
X179340000Y-93870000D03*
X128150000Y-139710000D03*
%TO.N,CS_OUT_1*%
X146210000Y-95730000D03*
X146200000Y-104430000D03*
X155890000Y-114230000D03*
%TO.N,CS_OUT_2*%
X124950000Y-78530000D03*
X153090000Y-89410000D03*
%TO.N,CS_OUT_4*%
X146899949Y-87170051D03*
%TD*%
D16*
%TO.N,MSD_SCK*%
X160509898Y-139340000D02*
X130870000Y-139340000D01*
X188839898Y-111010000D02*
X160509898Y-139340000D01*
X196280000Y-111010000D02*
X188839898Y-111010000D01*
X196280000Y-107430000D02*
X196280000Y-111010000D01*
X194060000Y-105210000D02*
X196280000Y-107430000D01*
X130870000Y-139340000D02*
X129850000Y-138320000D01*
X193300000Y-105210000D02*
X194060000Y-105210000D01*
%TO.N,MSD_MISO*%
X136500000Y-114300000D02*
X136600000Y-114200000D01*
X117730000Y-114300000D02*
X136500000Y-114300000D01*
X102900000Y-129130000D02*
X117730000Y-114300000D01*
X160853402Y-134330000D02*
X103960000Y-134330000D01*
X165640000Y-129543402D02*
X160853402Y-134330000D01*
X103960000Y-134330000D02*
X102900000Y-133270000D01*
X165640000Y-122770000D02*
X165640000Y-129543402D01*
X188280000Y-100130000D02*
X165640000Y-122770000D01*
X193300000Y-100130000D02*
X188280000Y-100130000D01*
X102900000Y-133270000D02*
X102900000Y-129130000D01*
%TO.N,ACCELERATOR_Vout*%
X127230000Y-127530000D02*
X129050000Y-129350000D01*
X127230000Y-123065000D02*
X127230000Y-127530000D01*
D17*
X122435000Y-131320000D02*
X125260000Y-131320000D01*
X125260000Y-131320000D02*
X127230000Y-129350000D01*
D16*
X132630000Y-132930000D02*
X136290000Y-132930000D01*
X129050000Y-129350000D02*
X132630000Y-132930000D01*
X127230000Y-129350000D02*
X129050000Y-129350000D01*
X122435000Y-118270000D02*
X127230000Y-123065000D01*
%TO.N,KY_DO*%
X122340000Y-104860000D02*
X122340000Y-102000000D01*
X107165000Y-107570000D02*
X119630000Y-107570000D01*
X122340000Y-102000000D02*
X135270000Y-89070000D01*
X143030000Y-89070000D02*
X160540000Y-106580000D01*
X119630000Y-107570000D02*
X122340000Y-104860000D01*
X135270000Y-89070000D02*
X143030000Y-89070000D01*
X160540000Y-106580000D02*
X162000000Y-106580000D01*
%TO.N,KY_A0*%
X161120000Y-104040000D02*
X162000000Y-104040000D01*
X120125000Y-86990000D02*
X144070000Y-86990000D01*
X107165000Y-99950000D02*
X120125000Y-86990000D01*
X144070000Y-86990000D02*
X161120000Y-104040000D01*
%TO.N,T-D500_OUT*%
X180847919Y-126590000D02*
X176340000Y-126590000D01*
X162000000Y-119280000D02*
X166430000Y-119280000D01*
X190690000Y-117950000D02*
X189487919Y-117950000D01*
X189487919Y-117950000D02*
X180847919Y-126590000D01*
%TO.N,GPS_RX*%
X129204415Y-111430000D02*
X136594415Y-104040000D01*
X111595000Y-111430000D02*
X129204415Y-111430000D01*
X136594415Y-104040000D02*
X136600000Y-104040000D01*
X107115000Y-115910000D02*
X111595000Y-111430000D01*
%TO.N,GPS_TX*%
X112735000Y-112830000D02*
X129784313Y-112830000D01*
X136034313Y-106580000D02*
X136600000Y-106580000D01*
X107115000Y-118450000D02*
X112735000Y-112830000D01*
X129784313Y-112830000D02*
X136034313Y-106580000D01*
D18*
%TO.N,CS_VCC*%
X105962919Y-105030000D02*
X107165000Y-105030000D01*
D16*
X126200000Y-81860000D02*
X126200000Y-80780000D01*
D18*
X130260000Y-76720000D02*
X118490000Y-76720000D01*
X167080000Y-76720000D02*
X130260000Y-76720000D01*
X185280000Y-77980000D02*
X185390000Y-77980000D01*
X187910000Y-80610000D02*
X187910000Y-83040000D01*
D19*
X166870000Y-91340000D02*
X162000000Y-91340000D01*
D18*
X103900000Y-102967081D02*
X105962919Y-105030000D01*
X180470000Y-77680000D02*
X168040000Y-77680000D01*
D19*
X190450000Y-83040000D02*
X190425000Y-83065000D01*
D16*
X185280000Y-77980000D02*
X187910000Y-80610000D01*
D19*
X194400000Y-83040000D02*
X197610000Y-86250000D01*
D18*
X185390000Y-77980000D02*
X190450000Y-83040000D01*
D19*
X197610000Y-93280000D02*
X193300000Y-97590000D01*
D18*
X115130000Y-80080000D02*
X118490000Y-76720000D01*
X184980000Y-77680000D02*
X180470000Y-77680000D01*
X118490000Y-76720000D02*
X105540000Y-76720000D01*
X103870000Y-81830000D02*
X103900000Y-81860000D01*
X103870000Y-78390000D02*
X103870000Y-81830000D01*
X115130000Y-87450000D02*
X115150000Y-87470000D01*
X168040000Y-77680000D02*
X167080000Y-76720000D01*
X103900000Y-81860000D02*
X103900000Y-102967081D01*
X103900000Y-102967081D02*
X103900000Y-110155000D01*
X115130000Y-81860000D02*
X115130000Y-87450000D01*
X105540000Y-76720000D02*
X103870000Y-78390000D01*
D19*
X190450000Y-83040000D02*
X194400000Y-83040000D01*
D18*
X115130000Y-81860000D02*
X115130000Y-80080000D01*
D19*
X180470000Y-77680000D02*
X180470000Y-77740000D01*
D18*
X185280000Y-77980000D02*
X184980000Y-77680000D01*
X103900000Y-110155000D02*
X107115000Y-113370000D01*
D19*
X180470000Y-77740000D02*
X166870000Y-91340000D01*
D16*
X126200000Y-80780000D02*
X130260000Y-76720000D01*
D19*
X197610000Y-86250000D02*
X197610000Y-93280000D01*
D16*
%TO.N,MSD_CS*%
X190620000Y-107750000D02*
X190610000Y-107760000D01*
X193300000Y-107750000D02*
X190620000Y-107750000D01*
%TO.N,MSD_MOSI*%
X176130000Y-119840000D02*
X176130000Y-121740000D01*
X176130000Y-121740000D02*
X160730000Y-137140000D01*
X193300000Y-102670000D02*
X176130000Y-119840000D01*
X160730000Y-137140000D02*
X132110000Y-137140000D01*
%TO.N,PM_V*%
X165690000Y-108620000D02*
X162650000Y-111660000D01*
X165690000Y-98410101D02*
X165690000Y-108620000D01*
X162650000Y-111660000D02*
X162000000Y-111660000D01*
X182830000Y-83040000D02*
X174070000Y-91800000D01*
X174070000Y-91800000D02*
X172300101Y-91800000D01*
X172300101Y-91800000D02*
X165690000Y-98410101D01*
%TO.N,PM_I*%
X172880000Y-93200000D02*
X168180000Y-97900000D01*
X168180000Y-97900000D02*
X168180000Y-111010000D01*
X168180000Y-111010000D02*
X162450000Y-116740000D01*
X185370000Y-83040000D02*
X175210000Y-93200000D01*
X162450000Y-116740000D02*
X162000000Y-116740000D01*
X175210000Y-93200000D02*
X172880000Y-93200000D01*
%TO.N,Net-(LM324-Pin_5)*%
X176360000Y-131670000D02*
X179720000Y-128310000D01*
X176340000Y-131670000D02*
X176360000Y-131670000D01*
X174530000Y-106340000D02*
X174530000Y-97390000D01*
%TO.N,Net-(ACC_VIN_GND1-Pin_1)*%
X122435000Y-128780000D02*
X108750000Y-128780000D01*
X108750000Y-128780000D02*
X107600000Y-129930000D01*
%TO.N,ACCELERATOR_Vout*%
X139790000Y-125480000D02*
X156150000Y-109120000D01*
X156150000Y-109120000D02*
X162000000Y-109120000D01*
X138970000Y-132930000D02*
X139790000Y-132110000D01*
X136290000Y-132930000D02*
X138970000Y-132930000D01*
X139790000Y-132110000D02*
X139790000Y-125480000D01*
%TO.N,Net-(LM324-Pin_3)*%
X168350000Y-124830000D02*
X168350000Y-122535483D01*
X168350000Y-122535483D02*
X170795483Y-120090000D01*
X190690000Y-115410000D02*
X187210000Y-115410000D01*
X172990000Y-129130000D02*
X172980000Y-129140000D01*
X187210000Y-115410000D02*
X187110000Y-115310000D01*
X176340000Y-129130000D02*
X172990000Y-129130000D01*
X170795483Y-120090000D02*
X174480000Y-120090000D01*
%TO.N,T-D500_VCC*%
X129490000Y-141050000D02*
X128150000Y-139710000D01*
X176340000Y-134210000D02*
X169500000Y-141050000D01*
X169500000Y-141050000D02*
X129490000Y-141050000D01*
X174530000Y-94850000D02*
X178360000Y-94850000D01*
X178360000Y-94850000D02*
X179340000Y-93870000D01*
%TO.N,CS_OUT_1*%
X155920000Y-114200000D02*
X155890000Y-114230000D01*
X146200000Y-104430000D02*
X146200000Y-95740000D01*
X146200000Y-95740000D02*
X146210000Y-95730000D01*
X162000000Y-114200000D02*
X155920000Y-114200000D01*
%TO.N,CS_OUT_2*%
X121000000Y-78530000D02*
X124950000Y-78530000D01*
X153100000Y-89410000D02*
X156580000Y-92890000D01*
X117670000Y-81860000D02*
X121000000Y-78530000D01*
X156580000Y-93545585D02*
X161994415Y-98960000D01*
X161994415Y-98960000D02*
X162000000Y-98960000D01*
X156580000Y-92890000D02*
X156580000Y-93545585D01*
X153090000Y-89410000D02*
X153100000Y-89410000D01*
%TO.N,CS_OUT_3*%
X161994415Y-96420000D02*
X162000000Y-96420000D01*
X128740000Y-81860000D02*
X130390000Y-80210000D01*
X130390000Y-80210000D02*
X149990000Y-80210000D01*
X149990000Y-80210000D02*
X160200000Y-90420000D01*
X160200000Y-94625585D02*
X161994415Y-96420000D01*
X160200000Y-90420000D02*
X160200000Y-94625585D01*
%TO.N,CS_OUT_4*%
X161994415Y-101500000D02*
X160200000Y-99705585D01*
X147680051Y-87170051D02*
X146899949Y-87170051D01*
X160200000Y-99705585D02*
X160200000Y-99690000D01*
X162000000Y-101500000D02*
X161994415Y-101500000D01*
X160200000Y-99690000D02*
X147680051Y-87170051D01*
%TD*%
%TA.AperFunction,Conductor*%
%TO.N,ACCELERATOR_GND*%
G36*
X135583863Y-115420185D02*
G01*
X135629618Y-115472989D01*
X135639562Y-115542147D01*
X135610537Y-115605703D01*
X135592987Y-115622353D01*
X135580258Y-115632260D01*
X135411833Y-115815217D01*
X135275826Y-116023393D01*
X135175936Y-116251118D01*
X135114892Y-116492175D01*
X135114890Y-116492187D01*
X135094357Y-116739994D01*
X135094357Y-116740005D01*
X135114890Y-116987812D01*
X135114892Y-116987824D01*
X135175936Y-117228881D01*
X135275826Y-117456606D01*
X135411833Y-117664782D01*
X135411836Y-117664785D01*
X135580256Y-117847738D01*
X135663008Y-117912147D01*
X135703821Y-117968857D01*
X135707496Y-118038630D01*
X135672864Y-118099313D01*
X135663014Y-118107848D01*
X135604549Y-118153354D01*
X135580257Y-118172261D01*
X135411833Y-118355217D01*
X135275826Y-118563393D01*
X135175936Y-118791118D01*
X135114892Y-119032175D01*
X135114890Y-119032187D01*
X135094357Y-119279994D01*
X135094357Y-119280005D01*
X135114890Y-119527812D01*
X135114892Y-119527824D01*
X135175936Y-119768881D01*
X135275826Y-119996606D01*
X135411833Y-120204782D01*
X135411836Y-120204785D01*
X135580256Y-120387738D01*
X135663008Y-120452147D01*
X135703821Y-120508857D01*
X135707496Y-120578630D01*
X135672864Y-120639313D01*
X135663014Y-120647848D01*
X135604400Y-120693469D01*
X135580257Y-120712261D01*
X135411833Y-120895217D01*
X135275826Y-121103393D01*
X135175936Y-121331118D01*
X135114892Y-121572175D01*
X135114890Y-121572187D01*
X135094357Y-121819994D01*
X135094357Y-121820005D01*
X135114890Y-122067812D01*
X135114892Y-122067824D01*
X135175936Y-122308881D01*
X135275826Y-122536606D01*
X135411833Y-122744782D01*
X135411836Y-122744785D01*
X135580256Y-122927738D01*
X135663008Y-122992147D01*
X135703821Y-123048857D01*
X135707496Y-123118630D01*
X135672864Y-123179313D01*
X135663014Y-123187848D01*
X135614200Y-123225842D01*
X135580257Y-123252261D01*
X135411833Y-123435217D01*
X135275826Y-123643393D01*
X135175936Y-123871118D01*
X135114892Y-124112175D01*
X135114890Y-124112187D01*
X135094357Y-124359994D01*
X135094357Y-124360005D01*
X135114890Y-124607812D01*
X135114892Y-124607824D01*
X135175936Y-124848881D01*
X135275826Y-125076606D01*
X135411833Y-125284782D01*
X135411836Y-125284785D01*
X135580256Y-125467738D01*
X135663008Y-125532147D01*
X135703821Y-125588857D01*
X135707496Y-125658630D01*
X135672864Y-125719313D01*
X135663014Y-125727848D01*
X135612056Y-125767511D01*
X135580257Y-125792261D01*
X135411833Y-125975217D01*
X135275826Y-126183393D01*
X135175936Y-126411118D01*
X135114892Y-126652175D01*
X135114890Y-126652187D01*
X135094357Y-126899994D01*
X135094357Y-126900005D01*
X135114890Y-127147812D01*
X135114892Y-127147824D01*
X135175936Y-127388881D01*
X135275826Y-127616606D01*
X135411833Y-127824782D01*
X135411836Y-127824785D01*
X135580256Y-128007738D01*
X135776491Y-128160474D01*
X135995190Y-128278828D01*
X136230386Y-128359571D01*
X136475665Y-128400500D01*
X136515708Y-128400500D01*
X136582747Y-128420185D01*
X136628502Y-128472989D01*
X136638446Y-128542147D01*
X136609421Y-128605703D01*
X136550643Y-128643477D01*
X136547835Y-128644265D01*
X136490418Y-128659649D01*
X136456112Y-128668842D01*
X136244123Y-128756650D01*
X136244109Y-128756657D01*
X136045382Y-128871392D01*
X135863338Y-129011081D01*
X135701081Y-129173338D01*
X135561392Y-129355382D01*
X135446657Y-129554109D01*
X135446650Y-129554123D01*
X135358842Y-129766112D01*
X135358842Y-129766113D01*
X135299510Y-129987548D01*
X135299453Y-129987759D01*
X135299451Y-129987770D01*
X135269500Y-130215258D01*
X135269500Y-130444741D01*
X135276983Y-130501575D01*
X135299452Y-130672238D01*
X135350500Y-130862753D01*
X135358842Y-130893887D01*
X135446650Y-131105876D01*
X135446657Y-131105890D01*
X135561392Y-131304617D01*
X135701081Y-131486661D01*
X135701089Y-131486670D01*
X135832238Y-131617819D01*
X135865723Y-131679142D01*
X135860739Y-131748834D01*
X135818867Y-131804767D01*
X135753403Y-131829184D01*
X135744557Y-131829500D01*
X133137204Y-131829500D01*
X133070165Y-131809815D01*
X133049523Y-131793181D01*
X128366819Y-127110477D01*
X128333334Y-127049154D01*
X128330500Y-127022796D01*
X128330500Y-122978389D01*
X128303402Y-122807302D01*
X128303402Y-122807299D01*
X128249873Y-122642555D01*
X128171232Y-122488212D01*
X128069414Y-122348072D01*
X127946928Y-122225586D01*
X123821818Y-118100476D01*
X123788333Y-118039153D01*
X123785499Y-118012795D01*
X123785499Y-117372129D01*
X123785498Y-117372123D01*
X123785497Y-117372116D01*
X123779091Y-117312517D01*
X123767550Y-117281575D01*
X123728797Y-117177671D01*
X123728793Y-117177664D01*
X123642547Y-117062455D01*
X123642544Y-117062452D01*
X123527335Y-116976206D01*
X123527328Y-116976202D01*
X123392482Y-116925908D01*
X123392483Y-116925908D01*
X123332883Y-116919501D01*
X123332881Y-116919500D01*
X123332873Y-116919500D01*
X123332864Y-116919500D01*
X121537129Y-116919500D01*
X121537123Y-116919501D01*
X121477516Y-116925908D01*
X121342671Y-116976202D01*
X121342664Y-116976206D01*
X121227455Y-117062452D01*
X121227452Y-117062455D01*
X121141206Y-117177664D01*
X121141202Y-117177671D01*
X121090908Y-117312517D01*
X121084501Y-117372116D01*
X121084501Y-117372123D01*
X121084500Y-117372135D01*
X121084500Y-119167870D01*
X121084501Y-119167876D01*
X121090908Y-119227483D01*
X121141202Y-119362328D01*
X121141206Y-119362335D01*
X121227452Y-119477544D01*
X121227455Y-119477547D01*
X121342664Y-119563793D01*
X121342671Y-119563797D01*
X121387618Y-119580561D01*
X121477517Y-119614091D01*
X121537127Y-119620500D01*
X122177795Y-119620499D01*
X122244834Y-119640183D01*
X122265476Y-119656818D01*
X126093181Y-123484523D01*
X126126666Y-123545846D01*
X126129500Y-123572204D01*
X126129500Y-127616610D01*
X126152849Y-127764035D01*
X126156598Y-127787701D01*
X126209243Y-127949725D01*
X126210128Y-127952447D01*
X126288768Y-128106788D01*
X126390586Y-128246928D01*
X126390588Y-128246930D01*
X126495977Y-128352319D01*
X126529462Y-128413642D01*
X126524478Y-128483334D01*
X126495977Y-128527681D01*
X126390588Y-128633069D01*
X126390588Y-128633070D01*
X126390586Y-128633072D01*
X126361560Y-128673023D01*
X126288768Y-128773211D01*
X126264039Y-128821745D01*
X126241235Y-128853131D01*
X124861188Y-130233181D01*
X124799865Y-130266666D01*
X124773507Y-130269500D01*
X123638461Y-130269500D01*
X123571422Y-130249815D01*
X123525667Y-130197011D01*
X123515723Y-130127853D01*
X123544748Y-130064297D01*
X123564150Y-130046234D01*
X123624046Y-130001395D01*
X123642546Y-129987546D01*
X123728796Y-129872331D01*
X123779091Y-129737483D01*
X123785500Y-129677873D01*
X123785499Y-127882128D01*
X123779335Y-127824785D01*
X123779091Y-127822516D01*
X123728797Y-127687671D01*
X123728793Y-127687664D01*
X123642547Y-127572455D01*
X123642544Y-127572452D01*
X123527335Y-127486206D01*
X123527328Y-127486202D01*
X123392482Y-127435908D01*
X123392483Y-127435908D01*
X123332883Y-127429501D01*
X123332881Y-127429500D01*
X123332873Y-127429500D01*
X123332864Y-127429500D01*
X121537129Y-127429500D01*
X121537123Y-127429501D01*
X121477516Y-127435908D01*
X121342671Y-127486202D01*
X121342664Y-127486206D01*
X121227457Y-127572451D01*
X121227451Y-127572457D01*
X121184515Y-127629812D01*
X121128581Y-127671682D01*
X121085249Y-127679500D01*
X108663389Y-127679500D01*
X108645514Y-127682331D01*
X108492304Y-127706595D01*
X108327550Y-127760128D01*
X108173211Y-127838768D01*
X108149361Y-127856097D01*
X108149360Y-127856097D01*
X108033075Y-127940581D01*
X108033070Y-127940586D01*
X107430474Y-128543181D01*
X107369151Y-128576666D01*
X107342793Y-128579500D01*
X106702129Y-128579500D01*
X106702123Y-128579501D01*
X106642516Y-128585908D01*
X106507671Y-128636202D01*
X106507664Y-128636206D01*
X106392455Y-128722452D01*
X106392452Y-128722455D01*
X106306206Y-128837664D01*
X106306202Y-128837671D01*
X106255908Y-128972517D01*
X106249501Y-129032116D01*
X106249500Y-129032135D01*
X106249500Y-130827870D01*
X106249501Y-130827876D01*
X106255908Y-130887483D01*
X106306202Y-131022328D01*
X106306206Y-131022335D01*
X106392452Y-131137544D01*
X106392455Y-131137547D01*
X106507664Y-131223793D01*
X106507671Y-131223797D01*
X106642517Y-131274091D01*
X106642516Y-131274091D01*
X106649444Y-131274835D01*
X106702127Y-131280500D01*
X108497872Y-131280499D01*
X108557483Y-131274091D01*
X108692331Y-131223796D01*
X108807546Y-131137546D01*
X108893796Y-131022331D01*
X108944091Y-130887483D01*
X108950500Y-130827873D01*
X108950499Y-130187204D01*
X108970183Y-130120166D01*
X108986818Y-130099523D01*
X109022045Y-130064297D01*
X109169525Y-129916818D01*
X109230849Y-129883334D01*
X109257206Y-129880500D01*
X121085249Y-129880500D01*
X121152288Y-129900185D01*
X121184515Y-129930188D01*
X121221364Y-129979411D01*
X121227454Y-129987546D01*
X121227756Y-129987772D01*
X121342664Y-130073793D01*
X121342671Y-130073797D01*
X121474081Y-130122810D01*
X121530015Y-130164681D01*
X121554432Y-130230145D01*
X121539580Y-130298418D01*
X121518430Y-130326673D01*
X121396503Y-130448600D01*
X121260965Y-130642169D01*
X121260964Y-130642171D01*
X121161098Y-130856335D01*
X121161094Y-130856344D01*
X121099938Y-131084586D01*
X121099936Y-131084596D01*
X121079341Y-131319999D01*
X121079341Y-131320000D01*
X121099936Y-131555403D01*
X121099938Y-131555413D01*
X121161094Y-131783655D01*
X121161096Y-131783659D01*
X121161097Y-131783663D01*
X121217868Y-131905408D01*
X121260965Y-131997830D01*
X121260967Y-131997834D01*
X121356069Y-132133653D01*
X121396505Y-132191401D01*
X121563599Y-132358495D01*
X121580744Y-132370500D01*
X121757165Y-132494032D01*
X121757167Y-132494033D01*
X121757170Y-132494035D01*
X121971337Y-132593903D01*
X122199592Y-132655063D01*
X122387918Y-132671539D01*
X122434999Y-132675659D01*
X122435000Y-132675659D01*
X122435001Y-132675659D01*
X122474234Y-132672226D01*
X122670408Y-132655063D01*
X122898663Y-132593903D01*
X123112830Y-132494035D01*
X123141051Y-132474274D01*
X123257231Y-132392925D01*
X123323437Y-132370598D01*
X123328354Y-132370500D01*
X125363466Y-132370500D01*
X125363467Y-132370499D01*
X125566420Y-132330130D01*
X125757598Y-132250941D01*
X125763813Y-132246788D01*
X125929655Y-132135977D01*
X126075977Y-131989655D01*
X126075977Y-131989653D01*
X126086185Y-131979446D01*
X126086186Y-131979443D01*
X127578813Y-130486819D01*
X127640136Y-130453334D01*
X127666494Y-130450500D01*
X128542796Y-130450500D01*
X128609835Y-130470185D01*
X128630477Y-130486819D01*
X131161477Y-133017819D01*
X131194962Y-133079142D01*
X131189978Y-133148834D01*
X131148106Y-133204767D01*
X131082642Y-133229184D01*
X131073796Y-133229500D01*
X104467204Y-133229500D01*
X104400165Y-133209815D01*
X104379523Y-133193181D01*
X104036819Y-132850477D01*
X104003334Y-132789154D01*
X104000500Y-132762796D01*
X104000500Y-129637204D01*
X104020185Y-129570165D01*
X104036819Y-129549523D01*
X118149523Y-115436819D01*
X118210846Y-115403334D01*
X118237204Y-115400500D01*
X135516824Y-115400500D01*
X135583863Y-115420185D01*
G37*
%TD.AperFunction*%
%TA.AperFunction,Conductor*%
G36*
X142589835Y-90190185D02*
G01*
X142610477Y-90206819D01*
X159823072Y-107419414D01*
X159963212Y-107521232D01*
X160038912Y-107559802D01*
X160117553Y-107599873D01*
X160117559Y-107599875D01*
X160177959Y-107619500D01*
X160177960Y-107619500D01*
X160282299Y-107653402D01*
X160453389Y-107680500D01*
X160928387Y-107680500D01*
X160995426Y-107700185D01*
X161004548Y-107706645D01*
X161063008Y-107752147D01*
X161103821Y-107808856D01*
X161107496Y-107878629D01*
X161072865Y-107939313D01*
X161063014Y-107947848D01*
X161004549Y-107993354D01*
X160939555Y-108018996D01*
X160928387Y-108019500D01*
X156236611Y-108019500D01*
X156063389Y-108019500D01*
X156023728Y-108025781D01*
X155892302Y-108046597D01*
X155727552Y-108100128D01*
X155573211Y-108178768D01*
X155493256Y-108236859D01*
X155433072Y-108280586D01*
X155433070Y-108280588D01*
X155433069Y-108280588D01*
X138950588Y-124763069D01*
X138950588Y-124763070D01*
X138950586Y-124763072D01*
X138906859Y-124823256D01*
X138848768Y-124903211D01*
X138770128Y-125057552D01*
X138716597Y-125222302D01*
X138689500Y-125393389D01*
X138689500Y-129264931D01*
X138669815Y-129331970D01*
X138617011Y-129377725D01*
X138547853Y-129387669D01*
X138484297Y-129358644D01*
X138467125Y-129340418D01*
X138338918Y-129173338D01*
X138338911Y-129173330D01*
X138176670Y-129011089D01*
X138176661Y-129011081D01*
X137994617Y-128871392D01*
X137936210Y-128837671D01*
X137795888Y-128756656D01*
X137795876Y-128756650D01*
X137583887Y-128668842D01*
X137549589Y-128659652D01*
X137362238Y-128609452D01*
X137324215Y-128604446D01*
X137134741Y-128579500D01*
X137134734Y-128579500D01*
X137072075Y-128579500D01*
X137005036Y-128559815D01*
X136959281Y-128507011D01*
X136949337Y-128437853D01*
X136978362Y-128374297D01*
X137031812Y-128338219D01*
X137110976Y-128311040D01*
X137204810Y-128278828D01*
X137423509Y-128160474D01*
X137619744Y-128007738D01*
X137788164Y-127824785D01*
X137924173Y-127616607D01*
X138024063Y-127388881D01*
X138085108Y-127147821D01*
X138085109Y-127147812D01*
X138105643Y-126900005D01*
X138105643Y-126899994D01*
X138085109Y-126652187D01*
X138085107Y-126652175D01*
X138024063Y-126411118D01*
X137924173Y-126183393D01*
X137788166Y-125975217D01*
X137730126Y-125912169D01*
X137619744Y-125792262D01*
X137536991Y-125727852D01*
X137496179Y-125671143D01*
X137492504Y-125601370D01*
X137527136Y-125540687D01*
X137536985Y-125532151D01*
X137619744Y-125467738D01*
X137788164Y-125284785D01*
X137924173Y-125076607D01*
X138024063Y-124848881D01*
X138085108Y-124607821D01*
X138105643Y-124360000D01*
X138085108Y-124112179D01*
X138024063Y-123871119D01*
X137924173Y-123643393D01*
X137844107Y-123520842D01*
X137788166Y-123435217D01*
X137766557Y-123411744D01*
X137619744Y-123252262D01*
X137536991Y-123187852D01*
X137496179Y-123131143D01*
X137492504Y-123061370D01*
X137527136Y-123000687D01*
X137536985Y-122992151D01*
X137619744Y-122927738D01*
X137788164Y-122744785D01*
X137924173Y-122536607D01*
X138024063Y-122308881D01*
X138085108Y-122067821D01*
X138086330Y-122053072D01*
X138105643Y-121820005D01*
X138105643Y-121819994D01*
X138085109Y-121572187D01*
X138085107Y-121572175D01*
X138024063Y-121331118D01*
X137924173Y-121103393D01*
X137788166Y-120895217D01*
X137747806Y-120851375D01*
X137619744Y-120712262D01*
X137536991Y-120647852D01*
X137496179Y-120591143D01*
X137492504Y-120521370D01*
X137527136Y-120460687D01*
X137536985Y-120452151D01*
X137619744Y-120387738D01*
X137788164Y-120204785D01*
X137924173Y-119996607D01*
X138024063Y-119768881D01*
X138085108Y-119527821D01*
X138085109Y-119527812D01*
X138105643Y-119280005D01*
X138105643Y-119279994D01*
X138085109Y-119032187D01*
X138085107Y-119032175D01*
X138024063Y-118791118D01*
X137924173Y-118563393D01*
X137788166Y-118355217D01*
X137700629Y-118260127D01*
X137619744Y-118172262D01*
X137536991Y-118107852D01*
X137496179Y-118051143D01*
X137492504Y-117981370D01*
X137527136Y-117920687D01*
X137536985Y-117912151D01*
X137619744Y-117847738D01*
X137788164Y-117664785D01*
X137924173Y-117456607D01*
X138024063Y-117228881D01*
X138085108Y-116987821D01*
X138085109Y-116987812D01*
X138105643Y-116740005D01*
X138105643Y-116739994D01*
X138085109Y-116492187D01*
X138085107Y-116492175D01*
X138024063Y-116251118D01*
X137924173Y-116023393D01*
X137788166Y-115815217D01*
X137766557Y-115791744D01*
X137619744Y-115632262D01*
X137536991Y-115567852D01*
X137496179Y-115511143D01*
X137492504Y-115441370D01*
X137527136Y-115380687D01*
X137536985Y-115372151D01*
X137619744Y-115307738D01*
X137788164Y-115124785D01*
X137924173Y-114916607D01*
X138024063Y-114688881D01*
X138085108Y-114447821D01*
X138085109Y-114447812D01*
X138105643Y-114200005D01*
X138105643Y-114199994D01*
X138085109Y-113952187D01*
X138085107Y-113952175D01*
X138024063Y-113711118D01*
X137924173Y-113483393D01*
X137788166Y-113275217D01*
X137681625Y-113159483D01*
X137619744Y-113092262D01*
X137536991Y-113027852D01*
X137496179Y-112971143D01*
X137492504Y-112901370D01*
X137527136Y-112840687D01*
X137536985Y-112832151D01*
X137619744Y-112767738D01*
X137788164Y-112584785D01*
X137924173Y-112376607D01*
X138024063Y-112148881D01*
X138085108Y-111907821D01*
X138100097Y-111726929D01*
X138105643Y-111660005D01*
X138105643Y-111659994D01*
X138085109Y-111412187D01*
X138085107Y-111412175D01*
X138024063Y-111171118D01*
X137924173Y-110943393D01*
X137788166Y-110735217D01*
X137695937Y-110635030D01*
X137619744Y-110552262D01*
X137536991Y-110487852D01*
X137496179Y-110431143D01*
X137492504Y-110361370D01*
X137527136Y-110300687D01*
X137536985Y-110292151D01*
X137619744Y-110227738D01*
X137788164Y-110044785D01*
X137924173Y-109836607D01*
X138024063Y-109608881D01*
X138085108Y-109367821D01*
X138094077Y-109259580D01*
X138105643Y-109120005D01*
X138105643Y-109119994D01*
X138085109Y-108872187D01*
X138085107Y-108872175D01*
X138024063Y-108631118D01*
X137924173Y-108403393D01*
X137788166Y-108195217D01*
X137651352Y-108046598D01*
X137619744Y-108012262D01*
X137536991Y-107947852D01*
X137496179Y-107891143D01*
X137492504Y-107821370D01*
X137527136Y-107760687D01*
X137536985Y-107752151D01*
X137619744Y-107687738D01*
X137788164Y-107504785D01*
X137924173Y-107296607D01*
X138024063Y-107068881D01*
X138085108Y-106827821D01*
X138085109Y-106827812D01*
X138105643Y-106580005D01*
X138105643Y-106579994D01*
X138085109Y-106332187D01*
X138085107Y-106332175D01*
X138024063Y-106091118D01*
X137924173Y-105863393D01*
X137788166Y-105655217D01*
X137766557Y-105631744D01*
X137619744Y-105472262D01*
X137536991Y-105407852D01*
X137496179Y-105351143D01*
X137492504Y-105281370D01*
X137527136Y-105220687D01*
X137536985Y-105212151D01*
X137619744Y-105147738D01*
X137788164Y-104964785D01*
X137924173Y-104756607D01*
X138024063Y-104528881D01*
X138085108Y-104287821D01*
X138099884Y-104109500D01*
X138105643Y-104040005D01*
X138105643Y-104039994D01*
X138085109Y-103792187D01*
X138085107Y-103792175D01*
X138024063Y-103551118D01*
X137924173Y-103323393D01*
X137788166Y-103115217D01*
X137766557Y-103091744D01*
X137619744Y-102932262D01*
X137536991Y-102867852D01*
X137496179Y-102811143D01*
X137492504Y-102741370D01*
X137527136Y-102680687D01*
X137536985Y-102672151D01*
X137619744Y-102607738D01*
X137788164Y-102424785D01*
X137924173Y-102216607D01*
X138024063Y-101988881D01*
X138085108Y-101747821D01*
X138085109Y-101747812D01*
X138105643Y-101500005D01*
X138105643Y-101499994D01*
X138085109Y-101252187D01*
X138085107Y-101252175D01*
X138024063Y-101011118D01*
X137924173Y-100783393D01*
X137788166Y-100575217D01*
X137766557Y-100551744D01*
X137619744Y-100392262D01*
X137536991Y-100327852D01*
X137496179Y-100271143D01*
X137492504Y-100201370D01*
X137527136Y-100140687D01*
X137536985Y-100132151D01*
X137619744Y-100067738D01*
X137788164Y-99884785D01*
X137924173Y-99676607D01*
X138024063Y-99448881D01*
X138085108Y-99207821D01*
X138094746Y-99091506D01*
X138105643Y-98960005D01*
X138105643Y-98959994D01*
X138085109Y-98712187D01*
X138085107Y-98712175D01*
X138024063Y-98471118D01*
X137924173Y-98243393D01*
X137788166Y-98035217D01*
X137744380Y-97987653D01*
X137619744Y-97852262D01*
X137536991Y-97787852D01*
X137496179Y-97731143D01*
X137492504Y-97661370D01*
X137527136Y-97600687D01*
X137536985Y-97592151D01*
X137619744Y-97527738D01*
X137788164Y-97344785D01*
X137924173Y-97136607D01*
X138024063Y-96908881D01*
X138085108Y-96667821D01*
X138085109Y-96667812D01*
X138105643Y-96420005D01*
X138105643Y-96419994D01*
X138085109Y-96172187D01*
X138085107Y-96172175D01*
X138024063Y-95931118D01*
X137924173Y-95703393D01*
X137891504Y-95653389D01*
X145099500Y-95653389D01*
X145099500Y-104516611D01*
X145126598Y-104687701D01*
X145180127Y-104852445D01*
X145258768Y-105006788D01*
X145360586Y-105146928D01*
X145483072Y-105269414D01*
X145623212Y-105371232D01*
X145777555Y-105449873D01*
X145942299Y-105503402D01*
X146113389Y-105530500D01*
X146113390Y-105530500D01*
X146286610Y-105530500D01*
X146286611Y-105530500D01*
X146457701Y-105503402D01*
X146622445Y-105449873D01*
X146776788Y-105371232D01*
X146916928Y-105269414D01*
X147039414Y-105146928D01*
X147141232Y-105006788D01*
X147219873Y-104852445D01*
X147273402Y-104687701D01*
X147300500Y-104516611D01*
X147300500Y-95889504D01*
X147302027Y-95870106D01*
X147310500Y-95816610D01*
X147310500Y-95643389D01*
X147303047Y-95596335D01*
X147283402Y-95472299D01*
X147229873Y-95307555D01*
X147151232Y-95153212D01*
X147049414Y-95013072D01*
X146926928Y-94890586D01*
X146786788Y-94788768D01*
X146705512Y-94747356D01*
X146632447Y-94710128D01*
X146632446Y-94710127D01*
X146632445Y-94710127D01*
X146467701Y-94656598D01*
X146467699Y-94656597D01*
X146467698Y-94656597D01*
X146331564Y-94635036D01*
X146296611Y-94629500D01*
X146123389Y-94629500D01*
X146088436Y-94635036D01*
X145952302Y-94656597D01*
X145787552Y-94710128D01*
X145633211Y-94788768D01*
X145553256Y-94846859D01*
X145493072Y-94890586D01*
X145493070Y-94890588D01*
X145493069Y-94890588D01*
X145360588Y-95023069D01*
X145360588Y-95023070D01*
X145360586Y-95023072D01*
X145347438Y-95041169D01*
X145258768Y-95163211D01*
X145180128Y-95317552D01*
X145126597Y-95482302D01*
X145124552Y-95495215D01*
X145099500Y-95653389D01*
X137891504Y-95653389D01*
X137788166Y-95495217D01*
X137714631Y-95415337D01*
X137619744Y-95312262D01*
X137423509Y-95159526D01*
X137423507Y-95159525D01*
X137423506Y-95159524D01*
X137204811Y-95041172D01*
X137204802Y-95041169D01*
X136969616Y-94960429D01*
X136724335Y-94919500D01*
X136475665Y-94919500D01*
X136230383Y-94960429D01*
X135995197Y-95041169D01*
X135995188Y-95041172D01*
X135776493Y-95159524D01*
X135580257Y-95312261D01*
X135411833Y-95495217D01*
X135275826Y-95703393D01*
X135175936Y-95931118D01*
X135114892Y-96172175D01*
X135114890Y-96172187D01*
X135094357Y-96419994D01*
X135094357Y-96420005D01*
X135114890Y-96667812D01*
X135114892Y-96667824D01*
X135175936Y-96908881D01*
X135275826Y-97136606D01*
X135411833Y-97344782D01*
X135444245Y-97379991D01*
X135580256Y-97527738D01*
X135663008Y-97592147D01*
X135703821Y-97648857D01*
X135707496Y-97718630D01*
X135672864Y-97779313D01*
X135663014Y-97787848D01*
X135614758Y-97825408D01*
X135580257Y-97852261D01*
X135411833Y-98035217D01*
X135275826Y-98243393D01*
X135175936Y-98471118D01*
X135114892Y-98712175D01*
X135114890Y-98712187D01*
X135094357Y-98959994D01*
X135094357Y-98960005D01*
X135114890Y-99207812D01*
X135114892Y-99207824D01*
X135175936Y-99448881D01*
X135275826Y-99676606D01*
X135411833Y-99884782D01*
X135444245Y-99919991D01*
X135580256Y-100067738D01*
X135663008Y-100132147D01*
X135703821Y-100188857D01*
X135707496Y-100258630D01*
X135672864Y-100319313D01*
X135663014Y-100327848D01*
X135614758Y-100365408D01*
X135580257Y-100392261D01*
X135411833Y-100575217D01*
X135275826Y-100783393D01*
X135175936Y-101011118D01*
X135114892Y-101252175D01*
X135114890Y-101252187D01*
X135094357Y-101499994D01*
X135094357Y-101500005D01*
X135114890Y-101747812D01*
X135114892Y-101747824D01*
X135175936Y-101988881D01*
X135275826Y-102216606D01*
X135411833Y-102424782D01*
X135425993Y-102440164D01*
X135580256Y-102607738D01*
X135663008Y-102672147D01*
X135703821Y-102728857D01*
X135707496Y-102798630D01*
X135672864Y-102859313D01*
X135663014Y-102867848D01*
X135614758Y-102905408D01*
X135580257Y-102932261D01*
X135411833Y-103115217D01*
X135275826Y-103323393D01*
X135175936Y-103551118D01*
X135114892Y-103792175D01*
X135114890Y-103792187D01*
X135103195Y-103933330D01*
X135078042Y-103998515D01*
X135067300Y-104010771D01*
X128784892Y-110293181D01*
X128723569Y-110326666D01*
X128697211Y-110329500D01*
X111681611Y-110329500D01*
X111508389Y-110329500D01*
X111468728Y-110335781D01*
X111337302Y-110356597D01*
X111172552Y-110410128D01*
X111018211Y-110488768D01*
X110938256Y-110546859D01*
X110878072Y-110590586D01*
X110878070Y-110590588D01*
X110878069Y-110590588D01*
X108569273Y-112899383D01*
X108507950Y-112932868D01*
X108438258Y-112927884D01*
X108382325Y-112886012D01*
X108369213Y-112864112D01*
X108289035Y-112692171D01*
X108272962Y-112669215D01*
X108153494Y-112498597D01*
X107986402Y-112331506D01*
X107986395Y-112331501D01*
X107792831Y-112195965D01*
X107792829Y-112195964D01*
X107656390Y-112132341D01*
X107621114Y-112107640D01*
X105186819Y-109673345D01*
X105153334Y-109612022D01*
X105150500Y-109585664D01*
X105150500Y-106221871D01*
X105170185Y-106154832D01*
X105222989Y-106109077D01*
X105292147Y-106099133D01*
X105330795Y-106111386D01*
X105482888Y-106188882D01*
X105482890Y-106188882D01*
X105482893Y-106188884D01*
X105563716Y-106215145D01*
X105670092Y-106249709D01*
X105864497Y-106280500D01*
X105864502Y-106280500D01*
X106061336Y-106280500D01*
X106258793Y-106280500D01*
X106325832Y-106300185D01*
X106371587Y-106352989D01*
X106381531Y-106422147D01*
X106352506Y-106485703D01*
X106329917Y-106506075D01*
X106293594Y-106531508D01*
X106126505Y-106698597D01*
X105990965Y-106892169D01*
X105990964Y-106892171D01*
X105891098Y-107106335D01*
X105891094Y-107106344D01*
X105829938Y-107334586D01*
X105829936Y-107334596D01*
X105809341Y-107569999D01*
X105809341Y-107570000D01*
X105829936Y-107805403D01*
X105829938Y-107805413D01*
X105891094Y-108033655D01*
X105891096Y-108033659D01*
X105891097Y-108033663D01*
X105990965Y-108247830D01*
X105990967Y-108247834D01*
X106013902Y-108280588D01*
X106126505Y-108441401D01*
X106293599Y-108608495D01*
X106349824Y-108647864D01*
X106487165Y-108744032D01*
X106487167Y-108744033D01*
X106487170Y-108744035D01*
X106701337Y-108843903D01*
X106701343Y-108843904D01*
X106701344Y-108843905D01*
X106756285Y-108858626D01*
X106929592Y-108905063D01*
X107117918Y-108921539D01*
X107164999Y-108925659D01*
X107165000Y-108925659D01*
X107165001Y-108925659D01*
X107204234Y-108922226D01*
X107400408Y-108905063D01*
X107628663Y-108843903D01*
X107842830Y-108744035D01*
X107915823Y-108692924D01*
X107982029Y-108670598D01*
X107986946Y-108670500D01*
X119716610Y-108670500D01*
X119716611Y-108670500D01*
X119887701Y-108643402D01*
X120052445Y-108589873D01*
X120206788Y-108511232D01*
X120346928Y-108409414D01*
X122509523Y-106246817D01*
X122570846Y-106213333D01*
X122597204Y-106210499D01*
X123237871Y-106210499D01*
X123237872Y-106210499D01*
X123297483Y-106204091D01*
X123432331Y-106153796D01*
X123547546Y-106067546D01*
X123633796Y-105952331D01*
X123684091Y-105817483D01*
X123690500Y-105757873D01*
X123690499Y-103962128D01*
X123684091Y-103902517D01*
X123666728Y-103855965D01*
X123633797Y-103767671D01*
X123633793Y-103767664D01*
X123547548Y-103652457D01*
X123547546Y-103652454D01*
X123547542Y-103652451D01*
X123490188Y-103609515D01*
X123448318Y-103553581D01*
X123440500Y-103510249D01*
X123440500Y-102507203D01*
X123460185Y-102440164D01*
X123476814Y-102419527D01*
X134887821Y-91008519D01*
X134949142Y-90975036D01*
X135018834Y-90980020D01*
X135074767Y-91021892D01*
X135099184Y-91087356D01*
X135099500Y-91096202D01*
X135099500Y-92387870D01*
X135099501Y-92387876D01*
X135105908Y-92447483D01*
X135156202Y-92582328D01*
X135156206Y-92582335D01*
X135242452Y-92697544D01*
X135242455Y-92697547D01*
X135357664Y-92783793D01*
X135357671Y-92783797D01*
X135492517Y-92834091D01*
X135492516Y-92834091D01*
X135499444Y-92834835D01*
X135552127Y-92840500D01*
X137647872Y-92840499D01*
X137707483Y-92834091D01*
X137842331Y-92783796D01*
X137957546Y-92697546D01*
X138043796Y-92582331D01*
X138094091Y-92447483D01*
X138100500Y-92387873D01*
X138100499Y-90294499D01*
X138120184Y-90227461D01*
X138172987Y-90181706D01*
X138224499Y-90170500D01*
X142522796Y-90170500D01*
X142589835Y-90190185D01*
G37*
%TD.AperFunction*%
%TA.AperFunction,Conductor*%
G36*
X186724855Y-83706546D02*
G01*
X186741575Y-83725842D01*
X186871505Y-83911401D01*
X187038599Y-84078495D01*
X187135384Y-84146265D01*
X187232165Y-84214032D01*
X187232167Y-84214033D01*
X187232170Y-84214035D01*
X187446337Y-84313903D01*
X187674592Y-84375063D01*
X187851034Y-84390500D01*
X187909999Y-84395659D01*
X187910000Y-84395659D01*
X187910001Y-84395659D01*
X187968966Y-84390500D01*
X188145408Y-84375063D01*
X188373663Y-84313903D01*
X188587830Y-84214035D01*
X188781401Y-84078495D01*
X188903329Y-83956566D01*
X188964648Y-83923084D01*
X189034340Y-83928068D01*
X189090274Y-83969939D01*
X189107189Y-84000917D01*
X189156202Y-84132328D01*
X189156206Y-84132335D01*
X189242452Y-84247544D01*
X189242455Y-84247547D01*
X189357664Y-84333793D01*
X189357671Y-84333797D01*
X189492517Y-84384091D01*
X189492516Y-84384091D01*
X189499444Y-84384835D01*
X189552127Y-84390500D01*
X191347872Y-84390499D01*
X191407483Y-84384091D01*
X191542331Y-84333796D01*
X191657546Y-84247546D01*
X191743796Y-84132331D01*
X191747960Y-84121165D01*
X191789829Y-84065234D01*
X191855293Y-84040816D01*
X191864141Y-84040500D01*
X193934218Y-84040500D01*
X194001257Y-84060185D01*
X194021899Y-84076819D01*
X196573181Y-86628101D01*
X196606666Y-86689424D01*
X196609500Y-86715782D01*
X196609500Y-92814216D01*
X196589815Y-92881255D01*
X196573181Y-92901897D01*
X193266969Y-96208108D01*
X193205646Y-96241593D01*
X193190097Y-96243955D01*
X193064596Y-96254936D01*
X193064586Y-96254938D01*
X192836344Y-96316094D01*
X192836335Y-96316098D01*
X192622171Y-96415964D01*
X192622169Y-96415965D01*
X192428597Y-96551505D01*
X192261505Y-96718597D01*
X192125965Y-96912169D01*
X192125964Y-96912171D01*
X192026098Y-97126335D01*
X192026094Y-97126344D01*
X191964938Y-97354586D01*
X191964936Y-97354596D01*
X191944341Y-97589999D01*
X191944341Y-97590000D01*
X191964936Y-97825403D01*
X191964938Y-97825413D01*
X192026094Y-98053655D01*
X192026096Y-98053659D01*
X192026097Y-98053663D01*
X192081674Y-98172848D01*
X192125965Y-98267830D01*
X192125967Y-98267834D01*
X192261501Y-98461395D01*
X192261506Y-98461402D01*
X192428597Y-98628493D01*
X192428603Y-98628498D01*
X192614158Y-98758425D01*
X192657783Y-98813002D01*
X192664977Y-98882500D01*
X192633454Y-98944855D01*
X192614159Y-98961574D01*
X192549179Y-99007074D01*
X192482973Y-99029402D01*
X192478055Y-99029500D01*
X188366611Y-99029500D01*
X188193389Y-99029500D01*
X188153728Y-99035781D01*
X188022302Y-99056597D01*
X187857552Y-99110128D01*
X187703211Y-99188768D01*
X187623256Y-99246859D01*
X187563072Y-99290586D01*
X187563070Y-99290588D01*
X187563069Y-99290588D01*
X167720326Y-119133331D01*
X167659003Y-119166816D01*
X167589311Y-119161832D01*
X167533378Y-119119960D01*
X167510173Y-119065051D01*
X167503402Y-119022299D01*
X167449873Y-118857555D01*
X167371232Y-118703212D01*
X167269414Y-118563072D01*
X167146928Y-118440586D01*
X167006788Y-118338768D01*
X166852445Y-118260127D01*
X166687701Y-118206598D01*
X166687699Y-118206597D01*
X166687698Y-118206597D01*
X166553881Y-118185403D01*
X166516611Y-118179500D01*
X166516610Y-118179500D01*
X163071613Y-118179500D01*
X163004574Y-118159815D01*
X162995451Y-118153354D01*
X162936991Y-118107852D01*
X162896179Y-118051144D01*
X162892504Y-117981371D01*
X162927135Y-117920687D01*
X162936985Y-117912151D01*
X163019744Y-117847738D01*
X163188164Y-117664785D01*
X163324173Y-117456607D01*
X163341709Y-117416625D01*
X163367580Y-117378760D01*
X169019414Y-111726928D01*
X169121232Y-111586788D01*
X169199873Y-111432445D01*
X169253402Y-111267701D01*
X169268699Y-111171118D01*
X169280500Y-111096615D01*
X169280500Y-98407203D01*
X169300185Y-98340164D01*
X169316814Y-98319527D01*
X172967821Y-94668519D01*
X173029142Y-94635036D01*
X173098834Y-94640020D01*
X173154767Y-94681892D01*
X173179184Y-94747356D01*
X173179500Y-94756202D01*
X173179500Y-95747870D01*
X173179501Y-95747876D01*
X173185908Y-95807483D01*
X173236202Y-95942328D01*
X173236206Y-95942335D01*
X173322452Y-96057544D01*
X173322455Y-96057547D01*
X173437664Y-96143793D01*
X173437671Y-96143797D01*
X173569081Y-96192810D01*
X173625015Y-96234681D01*
X173649432Y-96300145D01*
X173634580Y-96368418D01*
X173613430Y-96396673D01*
X173491503Y-96518600D01*
X173355965Y-96712169D01*
X173355964Y-96712171D01*
X173256098Y-96926335D01*
X173256094Y-96926344D01*
X173194938Y-97154586D01*
X173194936Y-97154596D01*
X173174341Y-97389999D01*
X173174341Y-97390000D01*
X173194936Y-97625403D01*
X173194938Y-97625413D01*
X173256094Y-97853655D01*
X173256096Y-97853659D01*
X173256097Y-97853663D01*
X173306031Y-97960746D01*
X173355964Y-98067829D01*
X173355966Y-98067833D01*
X173407074Y-98140821D01*
X173429402Y-98207027D01*
X173429500Y-98211945D01*
X173429500Y-104990249D01*
X173409815Y-105057288D01*
X173379812Y-105089515D01*
X173322457Y-105132451D01*
X173322451Y-105132457D01*
X173236206Y-105247664D01*
X173236202Y-105247671D01*
X173185908Y-105382517D01*
X173179501Y-105442116D01*
X173179501Y-105442123D01*
X173179500Y-105442135D01*
X173179500Y-107237870D01*
X173179501Y-107237876D01*
X173185908Y-107297483D01*
X173236202Y-107432328D01*
X173236206Y-107432335D01*
X173322452Y-107547544D01*
X173322455Y-107547547D01*
X173437664Y-107633793D01*
X173437671Y-107633797D01*
X173572517Y-107684091D01*
X173572516Y-107684091D01*
X173579444Y-107684835D01*
X173632127Y-107690500D01*
X175427872Y-107690499D01*
X175487483Y-107684091D01*
X175622331Y-107633796D01*
X175737546Y-107547546D01*
X175823796Y-107432331D01*
X175874091Y-107297483D01*
X175880500Y-107237873D01*
X175880499Y-105442128D01*
X175874091Y-105382517D01*
X175862389Y-105351143D01*
X175823797Y-105247671D01*
X175823793Y-105247664D01*
X175758987Y-105161095D01*
X175737546Y-105132454D01*
X175712096Y-105113402D01*
X175680188Y-105089515D01*
X175638318Y-105033581D01*
X175630500Y-104990249D01*
X175630500Y-98211945D01*
X175650185Y-98144906D01*
X175652926Y-98140821D01*
X175704033Y-98067833D01*
X175704035Y-98067829D01*
X175803903Y-97853663D01*
X175865063Y-97625408D01*
X175885659Y-97390000D01*
X175882561Y-97354596D01*
X175880751Y-97333901D01*
X175865063Y-97154592D01*
X175803903Y-96926337D01*
X175704035Y-96712171D01*
X175572035Y-96523655D01*
X175568496Y-96518600D01*
X175568495Y-96518599D01*
X175446567Y-96396671D01*
X175413084Y-96335351D01*
X175418068Y-96265659D01*
X175459939Y-96209725D01*
X175490915Y-96192810D01*
X175622331Y-96143796D01*
X175737546Y-96057546D01*
X175764227Y-96021903D01*
X175780485Y-96000188D01*
X175836419Y-95958318D01*
X175879751Y-95950500D01*
X178446610Y-95950500D01*
X178446611Y-95950500D01*
X178617701Y-95923402D01*
X178782445Y-95869873D01*
X178936788Y-95791232D01*
X179076928Y-95689414D01*
X180179414Y-94586928D01*
X180281232Y-94446788D01*
X180359873Y-94292446D01*
X180413402Y-94127701D01*
X180440500Y-93956611D01*
X180440500Y-93783390D01*
X180440500Y-93783384D01*
X180413402Y-93612302D01*
X180413402Y-93612299D01*
X180359873Y-93447555D01*
X180281232Y-93293212D01*
X180179414Y-93153072D01*
X180056928Y-93030586D01*
X179916788Y-92928768D01*
X179762445Y-92850127D01*
X179597701Y-92796598D01*
X179597699Y-92796597D01*
X179597697Y-92796597D01*
X179426615Y-92769500D01*
X179426610Y-92769500D01*
X179253389Y-92769500D01*
X179167844Y-92783049D01*
X179082298Y-92796598D01*
X178917549Y-92850128D01*
X178763211Y-92928768D01*
X178683256Y-92986859D01*
X178623072Y-93030586D01*
X178623070Y-93030588D01*
X178623069Y-93030588D01*
X177940477Y-93713181D01*
X177879154Y-93746666D01*
X177852796Y-93749500D01*
X176516204Y-93749500D01*
X176449165Y-93729815D01*
X176403410Y-93677011D01*
X176393466Y-93607853D01*
X176422491Y-93544297D01*
X176428523Y-93537819D01*
X177998775Y-91967567D01*
X185562613Y-84403727D01*
X185618196Y-84371636D01*
X185833663Y-84313903D01*
X186047830Y-84214035D01*
X186241401Y-84078495D01*
X186408495Y-83911401D01*
X186538425Y-83725842D01*
X186593002Y-83682217D01*
X186662500Y-83675023D01*
X186724855Y-83706546D01*
G37*
%TD.AperFunction*%
%TA.AperFunction,Conductor*%
G36*
X192545093Y-101250185D02*
G01*
X192549177Y-101252925D01*
X192614158Y-101298425D01*
X192657783Y-101353002D01*
X192664977Y-101422500D01*
X192633454Y-101484855D01*
X192614158Y-101501575D01*
X192428597Y-101631505D01*
X192261505Y-101798597D01*
X192125965Y-101992169D01*
X192125964Y-101992171D01*
X192026098Y-102206335D01*
X192026095Y-102206341D01*
X191968364Y-102421799D01*
X191936270Y-102477386D01*
X175661544Y-118752112D01*
X175600221Y-118785597D01*
X175530530Y-118780613D01*
X175437482Y-118745908D01*
X175437483Y-118745908D01*
X175377883Y-118739501D01*
X175377881Y-118739500D01*
X175377873Y-118739500D01*
X175377864Y-118739500D01*
X173582129Y-118739500D01*
X173582123Y-118739501D01*
X173522516Y-118745908D01*
X173387671Y-118796202D01*
X173387664Y-118796206D01*
X173272457Y-118882451D01*
X173272451Y-118882457D01*
X173229515Y-118939812D01*
X173173581Y-118981682D01*
X173130249Y-118989500D01*
X171276204Y-118989500D01*
X171209165Y-118969815D01*
X171163410Y-118917011D01*
X171153466Y-118847853D01*
X171182491Y-118784297D01*
X171188523Y-118777819D01*
X188699523Y-101266819D01*
X188760846Y-101233334D01*
X188787204Y-101230500D01*
X192478054Y-101230500D01*
X192545093Y-101250185D01*
G37*
%TD.AperFunction*%
%TA.AperFunction,Conductor*%
G36*
X184487522Y-78950185D02*
G01*
X184493364Y-78954178D01*
X184624595Y-79049524D01*
X184742589Y-79109645D01*
X184773974Y-79132448D01*
X186623181Y-80981655D01*
X186656666Y-81042978D01*
X186659500Y-81069336D01*
X186659500Y-82133793D01*
X186639815Y-82200832D01*
X186587011Y-82246587D01*
X186517853Y-82256531D01*
X186454297Y-82227506D01*
X186433925Y-82204917D01*
X186408491Y-82168594D01*
X186241402Y-82001506D01*
X186241395Y-82001501D01*
X186047834Y-81865967D01*
X186047830Y-81865965D01*
X186035036Y-81859999D01*
X185833663Y-81766097D01*
X185833659Y-81766096D01*
X185833655Y-81766094D01*
X185605413Y-81704938D01*
X185605403Y-81704936D01*
X185370001Y-81684341D01*
X185369999Y-81684341D01*
X185134596Y-81704936D01*
X185134586Y-81704938D01*
X184906344Y-81766094D01*
X184906335Y-81766098D01*
X184692171Y-81865964D01*
X184692169Y-81865965D01*
X184498597Y-82001505D01*
X184331505Y-82168597D01*
X184201575Y-82354158D01*
X184146998Y-82397783D01*
X184077500Y-82404977D01*
X184015145Y-82373454D01*
X183998425Y-82354158D01*
X183868494Y-82168597D01*
X183701402Y-82001506D01*
X183701395Y-82001501D01*
X183507834Y-81865967D01*
X183507830Y-81865965D01*
X183495036Y-81859999D01*
X183293663Y-81766097D01*
X183293659Y-81766096D01*
X183293655Y-81766094D01*
X183065413Y-81704938D01*
X183065403Y-81704936D01*
X182830001Y-81684341D01*
X182829999Y-81684341D01*
X182594596Y-81704936D01*
X182594586Y-81704938D01*
X182366344Y-81766094D01*
X182366335Y-81766098D01*
X182152171Y-81865964D01*
X182152169Y-81865965D01*
X181958597Y-82001505D01*
X181791505Y-82168597D01*
X181655965Y-82362169D01*
X181655964Y-82362171D01*
X181556098Y-82576335D01*
X181556095Y-82576341D01*
X181498364Y-82791799D01*
X181466270Y-82847386D01*
X173650477Y-90663181D01*
X173589154Y-90696666D01*
X173562796Y-90699500D01*
X172213490Y-90699500D01*
X172173829Y-90705781D01*
X172042403Y-90726597D01*
X171877653Y-90780128D01*
X171815379Y-90811858D01*
X171755349Y-90842445D01*
X171723314Y-90858766D01*
X171629119Y-90927204D01*
X171583173Y-90960586D01*
X171583171Y-90960588D01*
X171583170Y-90960588D01*
X164850588Y-97693170D01*
X164850588Y-97693171D01*
X164850586Y-97693173D01*
X164822999Y-97731143D01*
X164748768Y-97833312D01*
X164670128Y-97987653D01*
X164616597Y-98152403D01*
X164589500Y-98323490D01*
X164589500Y-108112795D01*
X164569815Y-108179834D01*
X164553181Y-108200476D01*
X163704604Y-109049052D01*
X163643281Y-109082537D01*
X163573589Y-109077553D01*
X163517656Y-109035681D01*
X163493347Y-108971613D01*
X163485108Y-108872179D01*
X163461732Y-108779871D01*
X163424063Y-108631118D01*
X163324173Y-108403393D01*
X163188166Y-108195217D01*
X163051352Y-108046598D01*
X163019744Y-108012262D01*
X162936991Y-107947852D01*
X162896179Y-107891143D01*
X162892504Y-107821370D01*
X162927136Y-107760687D01*
X162936985Y-107752151D01*
X163019744Y-107687738D01*
X163188164Y-107504785D01*
X163324173Y-107296607D01*
X163424063Y-107068881D01*
X163485108Y-106827821D01*
X163485109Y-106827812D01*
X163505643Y-106580005D01*
X163505643Y-106579994D01*
X163485109Y-106332187D01*
X163485107Y-106332175D01*
X163424063Y-106091118D01*
X163324173Y-105863393D01*
X163188166Y-105655217D01*
X163166557Y-105631744D01*
X163019744Y-105472262D01*
X162936991Y-105407852D01*
X162896179Y-105351143D01*
X162892504Y-105281370D01*
X162927136Y-105220687D01*
X162936985Y-105212151D01*
X163019744Y-105147738D01*
X163188164Y-104964785D01*
X163324173Y-104756607D01*
X163424063Y-104528881D01*
X163485108Y-104287821D01*
X163499884Y-104109500D01*
X163505643Y-104040005D01*
X163505643Y-104039994D01*
X163485109Y-103792187D01*
X163485107Y-103792175D01*
X163424063Y-103551118D01*
X163324173Y-103323393D01*
X163188166Y-103115217D01*
X163166557Y-103091744D01*
X163019744Y-102932262D01*
X162936991Y-102867852D01*
X162896179Y-102811143D01*
X162892504Y-102741370D01*
X162927136Y-102680687D01*
X162936985Y-102672151D01*
X163019744Y-102607738D01*
X163188164Y-102424785D01*
X163324173Y-102216607D01*
X163424063Y-101988881D01*
X163485108Y-101747821D01*
X163485109Y-101747812D01*
X163505643Y-101500005D01*
X163505643Y-101499994D01*
X163485109Y-101252187D01*
X163485107Y-101252175D01*
X163424063Y-101011118D01*
X163324173Y-100783393D01*
X163188166Y-100575217D01*
X163166557Y-100551744D01*
X163019744Y-100392262D01*
X162936991Y-100327852D01*
X162896179Y-100271143D01*
X162892504Y-100201370D01*
X162927136Y-100140687D01*
X162936985Y-100132151D01*
X163019744Y-100067738D01*
X163188164Y-99884785D01*
X163324173Y-99676607D01*
X163424063Y-99448881D01*
X163485108Y-99207821D01*
X163494746Y-99091506D01*
X163505643Y-98960005D01*
X163505643Y-98959994D01*
X163485109Y-98712187D01*
X163485107Y-98712175D01*
X163424063Y-98471118D01*
X163324173Y-98243393D01*
X163188166Y-98035217D01*
X163144380Y-97987653D01*
X163019744Y-97852262D01*
X162936991Y-97787852D01*
X162896179Y-97731143D01*
X162892504Y-97661370D01*
X162927136Y-97600687D01*
X162936985Y-97592151D01*
X163019744Y-97527738D01*
X163188164Y-97344785D01*
X163324173Y-97136607D01*
X163424063Y-96908881D01*
X163485108Y-96667821D01*
X163485109Y-96667812D01*
X163505643Y-96420005D01*
X163505643Y-96419994D01*
X163485109Y-96172187D01*
X163485107Y-96172175D01*
X163424063Y-95931118D01*
X163324173Y-95703393D01*
X163188166Y-95495217D01*
X163114631Y-95415337D01*
X163019744Y-95312262D01*
X162823509Y-95159526D01*
X162823507Y-95159525D01*
X162823506Y-95159524D01*
X162604811Y-95041172D01*
X162604802Y-95041169D01*
X162369616Y-94960429D01*
X162124335Y-94919500D01*
X162101619Y-94919500D01*
X162034580Y-94899815D01*
X162013938Y-94883181D01*
X161336819Y-94206062D01*
X161303334Y-94144739D01*
X161300500Y-94118381D01*
X161300500Y-92859993D01*
X161320185Y-92792954D01*
X161372989Y-92747199D01*
X161442147Y-92737255D01*
X161464758Y-92742710D01*
X161630386Y-92799571D01*
X161875665Y-92840500D01*
X162124335Y-92840500D01*
X162369614Y-92799571D01*
X162604810Y-92718828D01*
X162823509Y-92600474D01*
X163019744Y-92447738D01*
X163044194Y-92421177D01*
X163081626Y-92380517D01*
X163141513Y-92344526D01*
X163172855Y-92340500D01*
X166968543Y-92340500D01*
X167000932Y-92334056D01*
X167081911Y-92317949D01*
X167161836Y-92302051D01*
X167216278Y-92279500D01*
X167343914Y-92226632D01*
X167507782Y-92117139D01*
X167647139Y-91977782D01*
X167647139Y-91977780D01*
X167657347Y-91967573D01*
X167657348Y-91967570D01*
X180658102Y-78966819D01*
X180719425Y-78933334D01*
X180745783Y-78930500D01*
X184420483Y-78930500D01*
X184487522Y-78950185D01*
G37*
%TD.AperFunction*%
%TA.AperFunction,Conductor*%
G36*
X115238703Y-77990185D02*
G01*
X115284458Y-78042989D01*
X115294402Y-78112147D01*
X115265377Y-78175703D01*
X115259345Y-78182181D01*
X114176174Y-79265351D01*
X114176174Y-79265352D01*
X114176172Y-79265354D01*
X114173692Y-79268768D01*
X114060476Y-79424594D01*
X113971115Y-79599973D01*
X113971114Y-79599976D01*
X113936472Y-79706598D01*
X113910290Y-79787176D01*
X113910290Y-79787177D01*
X113879500Y-79981577D01*
X113879500Y-80668561D01*
X113859815Y-80735600D01*
X113854767Y-80742872D01*
X113836204Y-80767668D01*
X113836202Y-80767671D01*
X113785908Y-80902517D01*
X113779501Y-80962116D01*
X113779500Y-80962135D01*
X113779500Y-82757870D01*
X113779501Y-82757876D01*
X113785908Y-82817483D01*
X113836203Y-82952329D01*
X113854766Y-82977126D01*
X113879184Y-83042590D01*
X113879500Y-83051438D01*
X113879500Y-87548422D01*
X113910290Y-87742826D01*
X113971117Y-87930030D01*
X114060476Y-88105405D01*
X114176172Y-88264646D01*
X114335354Y-88423828D01*
X114425251Y-88489142D01*
X114494590Y-88539521D01*
X114494591Y-88539521D01*
X114494595Y-88539524D01*
X114607141Y-88596868D01*
X114669969Y-88628881D01*
X114669971Y-88628881D01*
X114669974Y-88628883D01*
X114857173Y-88689709D01*
X114954378Y-88705104D01*
X115051578Y-88720500D01*
X115051583Y-88720500D01*
X115248421Y-88720500D01*
X115336784Y-88706504D01*
X115442826Y-88689709D01*
X115630026Y-88628883D01*
X115805405Y-88539524D01*
X115964646Y-88423828D01*
X116103828Y-88284646D01*
X116219524Y-88125405D01*
X116308883Y-87950026D01*
X116369709Y-87762826D01*
X116386504Y-87656784D01*
X116400500Y-87568421D01*
X116400500Y-87371577D01*
X116382027Y-87254946D01*
X116380500Y-87235548D01*
X116380500Y-83265258D01*
X135269500Y-83265258D01*
X135269500Y-83494741D01*
X135271777Y-83512032D01*
X135299452Y-83722238D01*
X135299453Y-83722240D01*
X135358842Y-83943887D01*
X135446650Y-84155876D01*
X135446657Y-84155890D01*
X135480227Y-84214035D01*
X135549371Y-84333797D01*
X135561392Y-84354617D01*
X135701081Y-84536661D01*
X135701089Y-84536670D01*
X135863330Y-84698911D01*
X135863338Y-84698918D01*
X136045382Y-84838607D01*
X136045385Y-84838608D01*
X136045388Y-84838611D01*
X136244112Y-84953344D01*
X136244117Y-84953346D01*
X136244123Y-84953349D01*
X136335480Y-84991190D01*
X136456113Y-85041158D01*
X136677762Y-85100548D01*
X136905266Y-85130500D01*
X136905273Y-85130500D01*
X137134727Y-85130500D01*
X137134734Y-85130500D01*
X137362238Y-85100548D01*
X137583887Y-85041158D01*
X137795888Y-84953344D01*
X137994612Y-84838611D01*
X138176661Y-84698919D01*
X138176665Y-84698914D01*
X138176670Y-84698911D01*
X138338911Y-84536670D01*
X138338914Y-84536665D01*
X138338919Y-84536661D01*
X138478611Y-84354612D01*
X138593344Y-84155888D01*
X138681158Y-83943887D01*
X138740548Y-83722238D01*
X138770500Y-83494734D01*
X138770500Y-83265266D01*
X138740548Y-83037762D01*
X138681158Y-82816113D01*
X138593344Y-82604112D01*
X138478611Y-82405388D01*
X138478608Y-82405385D01*
X138478607Y-82405382D01*
X138338918Y-82223338D01*
X138338911Y-82223330D01*
X138176670Y-82061089D01*
X138176661Y-82061081D01*
X137994617Y-81921392D01*
X137795890Y-81806657D01*
X137795876Y-81806650D01*
X137583887Y-81718842D01*
X137531992Y-81704937D01*
X137362238Y-81659452D01*
X137314606Y-81653181D01*
X137134741Y-81629500D01*
X137134734Y-81629500D01*
X136905266Y-81629500D01*
X136905258Y-81629500D01*
X136688715Y-81658009D01*
X136677762Y-81659452D01*
X136584874Y-81684341D01*
X136456112Y-81718842D01*
X136244123Y-81806650D01*
X136244109Y-81806657D01*
X136045382Y-81921392D01*
X135863338Y-82061081D01*
X135701081Y-82223338D01*
X135561392Y-82405382D01*
X135446657Y-82604109D01*
X135446650Y-82604123D01*
X135358842Y-82816112D01*
X135336768Y-82898495D01*
X135300452Y-83034032D01*
X135299453Y-83037759D01*
X135299451Y-83037770D01*
X135269500Y-83265258D01*
X116380500Y-83265258D01*
X116380500Y-83051438D01*
X116400185Y-82984399D01*
X116405234Y-82977126D01*
X116423796Y-82952331D01*
X116472810Y-82820916D01*
X116514681Y-82764984D01*
X116580145Y-82740566D01*
X116648418Y-82755417D01*
X116676673Y-82776569D01*
X116798599Y-82898495D01*
X116895384Y-82966265D01*
X116992165Y-83034032D01*
X116992167Y-83034033D01*
X116992170Y-83034035D01*
X117206337Y-83133903D01*
X117434592Y-83195063D01*
X117611034Y-83210500D01*
X117669999Y-83215659D01*
X117670000Y-83215659D01*
X117670001Y-83215659D01*
X117728966Y-83210500D01*
X117905408Y-83195063D01*
X118133663Y-83133903D01*
X118347830Y-83034035D01*
X118541401Y-82898495D01*
X118708495Y-82731401D01*
X118844035Y-82537830D01*
X118943903Y-82323663D01*
X119001636Y-82108196D01*
X119033727Y-82052613D01*
X121419523Y-79666819D01*
X121480846Y-79633334D01*
X121507204Y-79630500D01*
X125036610Y-79630500D01*
X125036611Y-79630500D01*
X125207701Y-79603402D01*
X125372445Y-79549873D01*
X125526788Y-79471232D01*
X125666928Y-79369414D01*
X125789414Y-79246928D01*
X125891232Y-79106788D01*
X125969873Y-78952445D01*
X126023402Y-78787701D01*
X126050500Y-78616611D01*
X126050500Y-78443389D01*
X126023402Y-78272299D01*
X125978080Y-78132816D01*
X125976086Y-78062977D01*
X126012166Y-78003144D01*
X126074867Y-77972316D01*
X126096012Y-77970500D01*
X127153796Y-77970500D01*
X127220835Y-77990185D01*
X127266590Y-78042989D01*
X127276534Y-78112147D01*
X127247509Y-78175703D01*
X127241477Y-78182181D01*
X125360588Y-80063069D01*
X125360588Y-80063070D01*
X125360586Y-80063072D01*
X125316859Y-80123256D01*
X125258768Y-80203211D01*
X125180128Y-80357550D01*
X125125979Y-80524202D01*
X125086541Y-80581877D01*
X125082360Y-80585149D01*
X124992452Y-80652455D01*
X124906206Y-80767664D01*
X124906202Y-80767671D01*
X124855908Y-80902517D01*
X124849501Y-80962116D01*
X124849500Y-80962135D01*
X124849500Y-82757870D01*
X124849501Y-82757876D01*
X124855908Y-82817483D01*
X124906202Y-82952328D01*
X124906206Y-82952335D01*
X124992452Y-83067544D01*
X124992455Y-83067547D01*
X125107664Y-83153793D01*
X125107671Y-83153797D01*
X125242517Y-83204091D01*
X125242516Y-83204091D01*
X125249444Y-83204835D01*
X125302127Y-83210500D01*
X127097872Y-83210499D01*
X127157483Y-83204091D01*
X127292331Y-83153796D01*
X127407546Y-83067546D01*
X127493796Y-82952331D01*
X127542810Y-82820916D01*
X127584681Y-82764984D01*
X127650145Y-82740566D01*
X127718418Y-82755417D01*
X127746673Y-82776569D01*
X127868599Y-82898495D01*
X127965384Y-82966265D01*
X128062165Y-83034032D01*
X128062167Y-83034033D01*
X128062170Y-83034035D01*
X128276337Y-83133903D01*
X128504592Y-83195063D01*
X128681034Y-83210500D01*
X128739999Y-83215659D01*
X128740000Y-83215659D01*
X128740001Y-83215659D01*
X128798966Y-83210500D01*
X128975408Y-83195063D01*
X129203663Y-83133903D01*
X129417830Y-83034035D01*
X129611401Y-82898495D01*
X129778495Y-82731401D01*
X129914035Y-82537830D01*
X130013903Y-82323663D01*
X130071636Y-82108196D01*
X130103727Y-82052613D01*
X130809523Y-81346819D01*
X130870846Y-81313334D01*
X130897204Y-81310500D01*
X149482796Y-81310500D01*
X149549835Y-81330185D01*
X149570477Y-81346819D01*
X159063181Y-90839523D01*
X159096666Y-90900846D01*
X159099500Y-90927204D01*
X159099500Y-94209381D01*
X159079815Y-94276420D01*
X159027011Y-94322175D01*
X158957853Y-94332119D01*
X158894297Y-94303094D01*
X158887819Y-94297062D01*
X157716819Y-93126062D01*
X157683334Y-93064739D01*
X157680500Y-93038381D01*
X157680500Y-92803389D01*
X157677396Y-92783793D01*
X157653402Y-92632299D01*
X157618770Y-92525712D01*
X157599873Y-92467554D01*
X157599871Y-92467551D01*
X157599871Y-92467549D01*
X157558386Y-92386131D01*
X157521232Y-92313212D01*
X157419414Y-92173072D01*
X153816928Y-88570586D01*
X153676788Y-88468768D01*
X153522445Y-88390127D01*
X153357701Y-88336598D01*
X153357699Y-88336597D01*
X153357698Y-88336597D01*
X153226271Y-88315781D01*
X153186611Y-88309500D01*
X153003389Y-88309500D01*
X152963728Y-88315781D01*
X152832302Y-88336597D01*
X152667552Y-88390128D01*
X152513211Y-88468768D01*
X152433256Y-88526859D01*
X152373072Y-88570586D01*
X152373070Y-88570588D01*
X152373069Y-88570588D01*
X152250588Y-88693069D01*
X152250588Y-88693070D01*
X152250586Y-88693072D01*
X152206859Y-88753256D01*
X152148768Y-88833211D01*
X152070128Y-88987552D01*
X152016597Y-89152302D01*
X151989500Y-89323389D01*
X151989500Y-89496611D01*
X151989499Y-89496611D01*
X152010071Y-89626497D01*
X152001116Y-89695790D01*
X151956120Y-89749242D01*
X151889368Y-89769881D01*
X151822054Y-89751156D01*
X151799917Y-89733575D01*
X148396981Y-86330639D01*
X148396979Y-86330637D01*
X148256839Y-86228819D01*
X148102496Y-86150178D01*
X147937752Y-86096649D01*
X147937750Y-86096648D01*
X147937749Y-86096648D01*
X147806322Y-86075832D01*
X147766662Y-86069551D01*
X146813338Y-86069551D01*
X146773677Y-86075832D01*
X146642251Y-86096648D01*
X146477501Y-86150179D01*
X146323160Y-86228819D01*
X146243205Y-86286910D01*
X146183021Y-86330637D01*
X146183019Y-86330639D01*
X146183018Y-86330639D01*
X146060537Y-86453120D01*
X146060537Y-86453121D01*
X146060535Y-86453123D01*
X146016808Y-86513307D01*
X145958717Y-86593262D01*
X145880077Y-86747603D01*
X145826546Y-86912353D01*
X145825409Y-86917090D01*
X145824273Y-86916817D01*
X145796687Y-86974993D01*
X145737371Y-87011917D01*
X145667509Y-87010911D01*
X145616472Y-86980130D01*
X144786930Y-86150588D01*
X144786928Y-86150586D01*
X144646788Y-86048768D01*
X144492445Y-85970127D01*
X144327701Y-85916598D01*
X144327699Y-85916597D01*
X144327698Y-85916597D01*
X144196271Y-85895781D01*
X144156611Y-85889500D01*
X120211611Y-85889500D01*
X120038389Y-85889500D01*
X119998728Y-85895781D01*
X119867302Y-85916597D01*
X119702552Y-85970128D01*
X119548211Y-86048768D01*
X119468256Y-86106859D01*
X119408072Y-86150586D01*
X119408070Y-86150588D01*
X119408069Y-86150588D01*
X106995475Y-98563181D01*
X106934152Y-98596666D01*
X106907794Y-98599500D01*
X106267129Y-98599500D01*
X106267123Y-98599501D01*
X106207516Y-98605908D01*
X106072671Y-98656202D01*
X106072664Y-98656206D01*
X105957455Y-98742452D01*
X105957452Y-98742455D01*
X105871206Y-98857664D01*
X105871202Y-98857671D01*
X105820908Y-98992517D01*
X105814501Y-99052116D01*
X105814500Y-99052135D01*
X105814500Y-100847870D01*
X105814501Y-100847876D01*
X105820908Y-100907483D01*
X105871202Y-101042328D01*
X105871206Y-101042335D01*
X105957452Y-101157544D01*
X105957455Y-101157547D01*
X106072664Y-101243793D01*
X106072671Y-101243797D01*
X106207517Y-101294091D01*
X106207516Y-101294091D01*
X106214444Y-101294835D01*
X106267127Y-101300500D01*
X108062872Y-101300499D01*
X108122483Y-101294091D01*
X108257331Y-101243796D01*
X108372546Y-101157546D01*
X108458796Y-101042331D01*
X108509091Y-100907483D01*
X108515500Y-100847873D01*
X108515499Y-100207202D01*
X108535183Y-100140164D01*
X108551813Y-100119527D01*
X113509206Y-95162135D01*
X118259500Y-95162135D01*
X118259500Y-96957870D01*
X118259501Y-96957876D01*
X118265908Y-97017483D01*
X118316202Y-97152328D01*
X118316206Y-97152335D01*
X118402452Y-97267544D01*
X118402455Y-97267547D01*
X118517664Y-97353793D01*
X118517671Y-97353797D01*
X118652517Y-97404091D01*
X118652516Y-97404091D01*
X118659444Y-97404835D01*
X118712127Y-97410500D01*
X120507872Y-97410499D01*
X120567483Y-97404091D01*
X120702331Y-97353796D01*
X120817546Y-97267546D01*
X120903796Y-97152331D01*
X120952810Y-97020916D01*
X120994681Y-96964984D01*
X121060145Y-96940566D01*
X121128418Y-96955417D01*
X121156673Y-96976569D01*
X121278599Y-97098495D01*
X121375384Y-97166265D01*
X121472165Y-97234032D01*
X121472167Y-97234033D01*
X121472170Y-97234035D01*
X121686337Y-97333903D01*
X121914592Y-97395063D01*
X122091034Y-97410500D01*
X122149999Y-97415659D01*
X122150000Y-97415659D01*
X122150001Y-97415659D01*
X122208966Y-97410500D01*
X122385408Y-97395063D01*
X122613663Y-97333903D01*
X122827830Y-97234035D01*
X123021401Y-97098495D01*
X123188495Y-96931401D01*
X123324035Y-96737830D01*
X123423903Y-96523663D01*
X123485063Y-96295408D01*
X123505659Y-96060000D01*
X123505444Y-96057548D01*
X123490742Y-95889504D01*
X123485063Y-95824592D01*
X123423903Y-95596337D01*
X123324035Y-95382171D01*
X123278789Y-95317552D01*
X123188494Y-95188597D01*
X123021402Y-95021506D01*
X123021395Y-95021501D01*
X123009354Y-95013070D01*
X122944518Y-94967671D01*
X122827834Y-94885967D01*
X122827830Y-94885965D01*
X122821860Y-94883181D01*
X122613663Y-94786097D01*
X122613659Y-94786096D01*
X122613655Y-94786094D01*
X122385413Y-94724938D01*
X122385403Y-94724936D01*
X122150001Y-94704341D01*
X122149999Y-94704341D01*
X121914596Y-94724936D01*
X121914586Y-94724938D01*
X121686344Y-94786094D01*
X121686335Y-94786098D01*
X121472171Y-94885964D01*
X121472169Y-94885965D01*
X121278600Y-95021503D01*
X121156673Y-95143430D01*
X121095350Y-95176914D01*
X121025658Y-95171930D01*
X120969725Y-95130058D01*
X120952810Y-95099081D01*
X120903797Y-94967671D01*
X120903793Y-94967664D01*
X120817547Y-94852455D01*
X120817544Y-94852452D01*
X120702335Y-94766206D01*
X120702328Y-94766202D01*
X120567482Y-94715908D01*
X120567483Y-94715908D01*
X120507883Y-94709501D01*
X120507881Y-94709500D01*
X120507873Y-94709500D01*
X120507864Y-94709500D01*
X118712129Y-94709500D01*
X118712123Y-94709501D01*
X118652516Y-94715908D01*
X118517671Y-94766202D01*
X118517664Y-94766206D01*
X118402455Y-94852452D01*
X118402452Y-94852455D01*
X118316206Y-94967664D01*
X118316202Y-94967671D01*
X118265908Y-95102517D01*
X118259501Y-95162116D01*
X118259500Y-95162135D01*
X113509206Y-95162135D01*
X120544523Y-88126819D01*
X120605846Y-88093334D01*
X120632204Y-88090500D01*
X134393796Y-88090500D01*
X134460835Y-88110185D01*
X134506590Y-88162989D01*
X134516534Y-88232147D01*
X134487509Y-88295703D01*
X134481477Y-88302181D01*
X121500588Y-101283069D01*
X121500588Y-101283070D01*
X121500586Y-101283072D01*
X121477284Y-101315145D01*
X121398768Y-101423211D01*
X121320128Y-101577552D01*
X121266597Y-101742302D01*
X121239500Y-101913389D01*
X121239500Y-103510249D01*
X121219815Y-103577288D01*
X121189812Y-103609515D01*
X121132457Y-103652451D01*
X121132451Y-103652457D01*
X121046206Y-103767664D01*
X121046202Y-103767671D01*
X120995908Y-103902517D01*
X120992596Y-103933330D01*
X120989501Y-103962123D01*
X120989500Y-103962135D01*
X120989500Y-104602795D01*
X120969815Y-104669834D01*
X120953181Y-104690476D01*
X119210477Y-106433181D01*
X119149154Y-106466666D01*
X119122796Y-106469500D01*
X107986946Y-106469500D01*
X107919907Y-106449815D01*
X107915823Y-106447075D01*
X107850842Y-106401575D01*
X107807217Y-106346998D01*
X107800023Y-106277500D01*
X107831546Y-106215145D01*
X107850842Y-106198425D01*
X107914577Y-106153797D01*
X108036401Y-106068495D01*
X108203495Y-105901401D01*
X108339035Y-105707830D01*
X108438903Y-105493663D01*
X108500063Y-105265408D01*
X108520659Y-105030000D01*
X108500063Y-104794592D01*
X108438903Y-104566337D01*
X108339035Y-104352171D01*
X108203495Y-104158599D01*
X108203494Y-104158597D01*
X108036402Y-103991506D01*
X108036395Y-103991501D01*
X108018013Y-103978630D01*
X107994429Y-103962116D01*
X107842834Y-103855967D01*
X107842830Y-103855965D01*
X107628663Y-103756097D01*
X107628659Y-103756096D01*
X107628655Y-103756094D01*
X107400413Y-103694938D01*
X107400403Y-103694936D01*
X107165001Y-103674341D01*
X107164999Y-103674341D01*
X106929596Y-103694936D01*
X106929586Y-103694938D01*
X106701344Y-103756094D01*
X106701330Y-103756099D01*
X106676063Y-103767882D01*
X106623659Y-103779500D01*
X106532255Y-103779500D01*
X106465216Y-103759815D01*
X106444574Y-103743181D01*
X105186819Y-102485426D01*
X105153334Y-102424103D01*
X105150500Y-102397745D01*
X105150500Y-83051438D01*
X105170185Y-82984399D01*
X105175234Y-82977126D01*
X105193796Y-82952331D01*
X105242810Y-82820916D01*
X105284681Y-82764984D01*
X105350145Y-82740566D01*
X105418418Y-82755417D01*
X105446673Y-82776569D01*
X105568599Y-82898495D01*
X105665384Y-82966265D01*
X105762165Y-83034032D01*
X105762167Y-83034033D01*
X105762170Y-83034035D01*
X105976337Y-83133903D01*
X106204592Y-83195063D01*
X106381034Y-83210500D01*
X106439999Y-83215659D01*
X106440000Y-83215659D01*
X106440001Y-83215659D01*
X106498966Y-83210500D01*
X106675408Y-83195063D01*
X106903663Y-83133903D01*
X107117830Y-83034035D01*
X107311401Y-82898495D01*
X107478495Y-82731401D01*
X107614035Y-82537830D01*
X107713903Y-82323663D01*
X107775063Y-82095408D01*
X107795659Y-81860000D01*
X107775063Y-81624592D01*
X107713903Y-81396337D01*
X107614035Y-81182171D01*
X107535028Y-81069336D01*
X107478494Y-80988597D01*
X107311402Y-80821506D01*
X107311395Y-80821501D01*
X107117834Y-80685967D01*
X107117830Y-80685965D01*
X107117828Y-80685964D01*
X106903663Y-80586097D01*
X106903659Y-80586096D01*
X106903655Y-80586094D01*
X106675413Y-80524938D01*
X106675403Y-80524936D01*
X106440001Y-80504341D01*
X106439999Y-80504341D01*
X106204596Y-80524936D01*
X106204586Y-80524938D01*
X105976344Y-80586094D01*
X105976335Y-80586098D01*
X105762171Y-80685964D01*
X105762169Y-80685965D01*
X105568600Y-80821503D01*
X105446673Y-80943430D01*
X105385350Y-80976914D01*
X105315658Y-80971930D01*
X105259725Y-80930058D01*
X105242810Y-80899081D01*
X105193797Y-80767671D01*
X105193795Y-80767668D01*
X105145233Y-80702797D01*
X105120816Y-80637333D01*
X105120500Y-80628486D01*
X105120500Y-78959336D01*
X105140185Y-78892297D01*
X105156819Y-78871655D01*
X106021655Y-78006819D01*
X106082978Y-77973334D01*
X106109336Y-77970500D01*
X115171664Y-77970500D01*
X115238703Y-77990185D01*
G37*
%TD.AperFunction*%
%TA.AperFunction,Conductor*%
G36*
X192502211Y-50500578D02*
G01*
X192994924Y-50518176D01*
X193003717Y-50518804D01*
X193491755Y-50571274D01*
X193500471Y-50572527D01*
X193983520Y-50659679D01*
X193992128Y-50661552D01*
X194467713Y-50782938D01*
X194476177Y-50785423D01*
X194941866Y-50940419D01*
X194950160Y-50943512D01*
X195403602Y-51131335D01*
X195411653Y-51135012D01*
X195737022Y-51297879D01*
X195850551Y-51354708D01*
X195858287Y-51358931D01*
X196280432Y-51609401D01*
X196287842Y-51614164D01*
X196535063Y-51785813D01*
X196691001Y-51894083D01*
X196698087Y-51899387D01*
X196895443Y-52058426D01*
X197080257Y-52207358D01*
X197086940Y-52213149D01*
X197446152Y-52547588D01*
X197452411Y-52553847D01*
X197786850Y-52913059D01*
X197792647Y-52919749D01*
X198100612Y-53301912D01*
X198105916Y-53308998D01*
X198385827Y-53712145D01*
X198390602Y-53719574D01*
X198641062Y-54141703D01*
X198645294Y-54149453D01*
X198864987Y-54588346D01*
X198868664Y-54596397D01*
X199056487Y-55049839D01*
X199059580Y-55058133D01*
X199214571Y-55523807D01*
X199217065Y-55532300D01*
X199338442Y-56007851D01*
X199340324Y-56016500D01*
X199427468Y-56499505D01*
X199428728Y-56508267D01*
X199481193Y-56996264D01*
X199481824Y-57005093D01*
X199499421Y-57497788D01*
X199499500Y-57502214D01*
X199499500Y-142497785D01*
X199499421Y-142502211D01*
X199481824Y-142994906D01*
X199481193Y-143003735D01*
X199428728Y-143491732D01*
X199427468Y-143500494D01*
X199340324Y-143983499D01*
X199338442Y-143992148D01*
X199217065Y-144467699D01*
X199214571Y-144476192D01*
X199059580Y-144941866D01*
X199056487Y-144950160D01*
X198868664Y-145403602D01*
X198864987Y-145411653D01*
X198645294Y-145850546D01*
X198641056Y-145858308D01*
X198390613Y-146280408D01*
X198385827Y-146287854D01*
X198105916Y-146691001D01*
X198100612Y-146698087D01*
X197792647Y-147080250D01*
X197786850Y-147086940D01*
X197452411Y-147446152D01*
X197446152Y-147452411D01*
X197086940Y-147786850D01*
X197080250Y-147792647D01*
X196698087Y-148100612D01*
X196691001Y-148105916D01*
X196287854Y-148385827D01*
X196280412Y-148390610D01*
X195858308Y-148641056D01*
X195850546Y-148645294D01*
X195411653Y-148864987D01*
X195403602Y-148868664D01*
X194950160Y-149056487D01*
X194941866Y-149059580D01*
X194476192Y-149214571D01*
X194467699Y-149217065D01*
X193992148Y-149338442D01*
X193983499Y-149340324D01*
X193500494Y-149427468D01*
X193491732Y-149428728D01*
X193003735Y-149481193D01*
X192994906Y-149481824D01*
X192502212Y-149499421D01*
X192497786Y-149499500D01*
X107502214Y-149499500D01*
X107497788Y-149499421D01*
X107005093Y-149481824D01*
X106996264Y-149481193D01*
X106508267Y-149428728D01*
X106499505Y-149427468D01*
X106016500Y-149340324D01*
X106007851Y-149338442D01*
X105532300Y-149217065D01*
X105523807Y-149214571D01*
X105058133Y-149059580D01*
X105049839Y-149056487D01*
X104596397Y-148868664D01*
X104588346Y-148864987D01*
X104149453Y-148645294D01*
X104141703Y-148641062D01*
X103719574Y-148390602D01*
X103712145Y-148385827D01*
X103308998Y-148105916D01*
X103301912Y-148100612D01*
X102919749Y-147792647D01*
X102913059Y-147786850D01*
X102553847Y-147452411D01*
X102547588Y-147446152D01*
X102213149Y-147086940D01*
X102207352Y-147080250D01*
X101899387Y-146698087D01*
X101894083Y-146691001D01*
X101785813Y-146535063D01*
X101614164Y-146287842D01*
X101609401Y-146280432D01*
X101358931Y-145858287D01*
X101354705Y-145850546D01*
X101135012Y-145411653D01*
X101131335Y-145403602D01*
X100943512Y-144950160D01*
X100940419Y-144941866D01*
X100933700Y-144921679D01*
X100785423Y-144476177D01*
X100782938Y-144467713D01*
X100661552Y-143992128D01*
X100659679Y-143983520D01*
X100572527Y-143500471D01*
X100571274Y-143491755D01*
X100518804Y-143003717D01*
X100518176Y-142994924D01*
X100500579Y-142502211D01*
X100500500Y-142497785D01*
X100500500Y-129043389D01*
X101799500Y-129043389D01*
X101799500Y-133183389D01*
X101799500Y-133356611D01*
X101826598Y-133527701D01*
X101880127Y-133692445D01*
X101958768Y-133846788D01*
X102060586Y-133986928D01*
X103243072Y-135169414D01*
X103383212Y-135271232D01*
X103456131Y-135308386D01*
X103537549Y-135349871D01*
X103537551Y-135349871D01*
X103537554Y-135349873D01*
X103702299Y-135403402D01*
X103873389Y-135430500D01*
X104046610Y-135430500D01*
X160583796Y-135430500D01*
X160650835Y-135450185D01*
X160696590Y-135502989D01*
X160706534Y-135572147D01*
X160677509Y-135635703D01*
X160671477Y-135642181D01*
X160310477Y-136003181D01*
X160249154Y-136036666D01*
X160222796Y-136039500D01*
X132023389Y-136039500D01*
X131983728Y-136045781D01*
X131852302Y-136066597D01*
X131687552Y-136120128D01*
X131533211Y-136198768D01*
X131453256Y-136256859D01*
X131393072Y-136300586D01*
X131393070Y-136300588D01*
X131393069Y-136300588D01*
X131270588Y-136423069D01*
X131270588Y-136423070D01*
X131270586Y-136423072D01*
X131226859Y-136483256D01*
X131168768Y-136563211D01*
X131090128Y-136717552D01*
X131036597Y-136882302D01*
X131020268Y-136985403D01*
X131009500Y-137053389D01*
X131009500Y-137226611D01*
X131036598Y-137397701D01*
X131090127Y-137562445D01*
X131168768Y-137716788D01*
X131187965Y-137743211D01*
X131214127Y-137779219D01*
X131237607Y-137845026D01*
X131221782Y-137913080D01*
X131171676Y-137961775D01*
X131103198Y-137975650D01*
X131038089Y-137950301D01*
X131026128Y-137939786D01*
X130566930Y-137480588D01*
X130566928Y-137480586D01*
X130426788Y-137378768D01*
X130272445Y-137300127D01*
X130107701Y-137246598D01*
X130107699Y-137246597D01*
X130107698Y-137246597D01*
X129976271Y-137225781D01*
X129936611Y-137219500D01*
X129763389Y-137219500D01*
X129723728Y-137225781D01*
X129592302Y-137246597D01*
X129427552Y-137300128D01*
X129273211Y-137378768D01*
X129205684Y-137427830D01*
X129133072Y-137480586D01*
X129133070Y-137480588D01*
X129133069Y-137480588D01*
X129010588Y-137603069D01*
X129010588Y-137603070D01*
X129010586Y-137603072D01*
X128966859Y-137663256D01*
X128908768Y-137743211D01*
X128830128Y-137897552D01*
X128776597Y-138062302D01*
X128749500Y-138233389D01*
X128749500Y-138406611D01*
X128749499Y-138406611D01*
X128775818Y-138572781D01*
X128766863Y-138642074D01*
X128721867Y-138695526D01*
X128655115Y-138716165D01*
X128597052Y-138702664D01*
X128572448Y-138690128D01*
X128572445Y-138690127D01*
X128407701Y-138636598D01*
X128407699Y-138636597D01*
X128407698Y-138636597D01*
X128276271Y-138615781D01*
X128236611Y-138609500D01*
X128063389Y-138609500D01*
X128023728Y-138615781D01*
X127892302Y-138636597D01*
X127727552Y-138690128D01*
X127573211Y-138768768D01*
X127493978Y-138826335D01*
X127433072Y-138870586D01*
X127433070Y-138870588D01*
X127433069Y-138870588D01*
X127310588Y-138993069D01*
X127310588Y-138993070D01*
X127310586Y-138993072D01*
X127266859Y-139053256D01*
X127208768Y-139133211D01*
X127130128Y-139287552D01*
X127076597Y-139452302D01*
X127065018Y-139525413D01*
X127049500Y-139623389D01*
X127049500Y-139796611D01*
X127076598Y-139967701D01*
X127130127Y-140132445D01*
X127208768Y-140286788D01*
X127310586Y-140426928D01*
X128773072Y-141889414D01*
X128913212Y-141991232D01*
X129067554Y-142069873D01*
X129227476Y-142121835D01*
X129232299Y-142123402D01*
X129403389Y-142150500D01*
X129403390Y-142150500D01*
X169586610Y-142150500D01*
X169586611Y-142150500D01*
X169757701Y-142123402D01*
X169922445Y-142069873D01*
X170076788Y-141991232D01*
X170216928Y-141889414D01*
X174885727Y-137220613D01*
X174947048Y-137187130D01*
X175016740Y-137192114D01*
X175072673Y-137233986D01*
X175085788Y-137255891D01*
X175165965Y-137427830D01*
X175165967Y-137427834D01*
X175260225Y-137562447D01*
X175288669Y-137603070D01*
X175301501Y-137621395D01*
X175301506Y-137621402D01*
X175468597Y-137788493D01*
X175468603Y-137788498D01*
X175654158Y-137918425D01*
X175697783Y-137973002D01*
X175704977Y-138042500D01*
X175673454Y-138104855D01*
X175654158Y-138121575D01*
X175468597Y-138251505D01*
X175301505Y-138418597D01*
X175165965Y-138612169D01*
X175165964Y-138612171D01*
X175066098Y-138826335D01*
X175066094Y-138826344D01*
X175004938Y-139054586D01*
X175004936Y-139054596D01*
X174984341Y-139289999D01*
X174984341Y-139290000D01*
X175004936Y-139525403D01*
X175004938Y-139525413D01*
X175066094Y-139753655D01*
X175066096Y-139753659D01*
X175066097Y-139753663D01*
X175140482Y-139913181D01*
X175165965Y-139967830D01*
X175165967Y-139967834D01*
X175301501Y-140161395D01*
X175301506Y-140161402D01*
X175468597Y-140328493D01*
X175468603Y-140328498D01*
X175654158Y-140458425D01*
X175697783Y-140513002D01*
X175704977Y-140582500D01*
X175673454Y-140644855D01*
X175654158Y-140661575D01*
X175468597Y-140791505D01*
X175301505Y-140958597D01*
X175165965Y-141152169D01*
X175165964Y-141152171D01*
X175066098Y-141366335D01*
X175066094Y-141366344D01*
X175004938Y-141594586D01*
X175004936Y-141594596D01*
X174984341Y-141829999D01*
X174984341Y-141830000D01*
X175004936Y-142065403D01*
X175004938Y-142065413D01*
X175066094Y-142293655D01*
X175066096Y-142293659D01*
X175066097Y-142293663D01*
X175131588Y-142434108D01*
X175165965Y-142507830D01*
X175165967Y-142507834D01*
X175274281Y-142662521D01*
X175301505Y-142701401D01*
X175468599Y-142868495D01*
X175565384Y-142936265D01*
X175662165Y-143004032D01*
X175662167Y-143004033D01*
X175662170Y-143004035D01*
X175876337Y-143103903D01*
X176104592Y-143165063D01*
X176292918Y-143181539D01*
X176339999Y-143185659D01*
X176340000Y-143185659D01*
X176340001Y-143185659D01*
X176379234Y-143182226D01*
X176575408Y-143165063D01*
X176803663Y-143103903D01*
X177017830Y-143004035D01*
X177211401Y-142868495D01*
X177378495Y-142701401D01*
X177514035Y-142507830D01*
X177613903Y-142293663D01*
X177675063Y-142065408D01*
X177695659Y-141830000D01*
X177675063Y-141594592D01*
X177613903Y-141366337D01*
X177514035Y-141152171D01*
X177378495Y-140958599D01*
X177378494Y-140958597D01*
X177211402Y-140791506D01*
X177211396Y-140791501D01*
X177025842Y-140661575D01*
X176982217Y-140606998D01*
X176975023Y-140537500D01*
X177006546Y-140475145D01*
X177025842Y-140458425D01*
X177070824Y-140426928D01*
X177211401Y-140328495D01*
X177378495Y-140161401D01*
X177514035Y-139967830D01*
X177613903Y-139753663D01*
X177675063Y-139525408D01*
X177695659Y-139290000D01*
X177675063Y-139054592D01*
X177613903Y-138826337D01*
X177514035Y-138612171D01*
X177378495Y-138418599D01*
X177378494Y-138418597D01*
X177211402Y-138251506D01*
X177211396Y-138251501D01*
X177025842Y-138121575D01*
X176982217Y-138066998D01*
X176975023Y-137997500D01*
X177006546Y-137935145D01*
X177025842Y-137918425D01*
X177055652Y-137897552D01*
X177211401Y-137788495D01*
X177378495Y-137621401D01*
X177514035Y-137427830D01*
X177613903Y-137213663D01*
X177675063Y-136985408D01*
X177695659Y-136750000D01*
X177695659Y-136749999D01*
X183024341Y-136749999D01*
X183024341Y-136750000D01*
X183044936Y-136985403D01*
X183044938Y-136985413D01*
X183106094Y-137213655D01*
X183106096Y-137213659D01*
X183106097Y-137213663D01*
X183183087Y-137378768D01*
X183205965Y-137427830D01*
X183205967Y-137427834D01*
X183300225Y-137562447D01*
X183328669Y-137603070D01*
X183341501Y-137621395D01*
X183341506Y-137621402D01*
X183508597Y-137788493D01*
X183508603Y-137788498D01*
X183694158Y-137918425D01*
X183737783Y-137973002D01*
X183744977Y-138042500D01*
X183713454Y-138104855D01*
X183694158Y-138121575D01*
X183508597Y-138251505D01*
X183341505Y-138418597D01*
X183205965Y-138612169D01*
X183205964Y-138612171D01*
X183106098Y-138826335D01*
X183106094Y-138826344D01*
X183044938Y-139054586D01*
X183044936Y-139054596D01*
X183024341Y-139289999D01*
X183024341Y-139290000D01*
X183044936Y-139525403D01*
X183044938Y-139525413D01*
X183106094Y-139753655D01*
X183106096Y-139753659D01*
X183106097Y-139753663D01*
X183180482Y-139913181D01*
X183205965Y-139967830D01*
X183205967Y-139967834D01*
X183341501Y-140161395D01*
X183341506Y-140161402D01*
X183508597Y-140328493D01*
X183508603Y-140328498D01*
X183694158Y-140458425D01*
X183737783Y-140513002D01*
X183744977Y-140582500D01*
X183713454Y-140644855D01*
X183694158Y-140661575D01*
X183508597Y-140791505D01*
X183341505Y-140958597D01*
X183205965Y-141152169D01*
X183205964Y-141152171D01*
X183106098Y-141366335D01*
X183106094Y-141366344D01*
X183044938Y-141594586D01*
X183044936Y-141594596D01*
X183024341Y-141829999D01*
X183024341Y-141830000D01*
X183044936Y-142065403D01*
X183044938Y-142065413D01*
X183106094Y-142293655D01*
X183106096Y-142293659D01*
X183106097Y-142293663D01*
X183171588Y-142434108D01*
X183205965Y-142507830D01*
X183205967Y-142507834D01*
X183314281Y-142662521D01*
X183341505Y-142701401D01*
X183508599Y-142868495D01*
X183605384Y-142936265D01*
X183702165Y-143004032D01*
X183702167Y-143004033D01*
X183702170Y-143004035D01*
X183916337Y-143103903D01*
X184144592Y-143165063D01*
X184332918Y-143181539D01*
X184379999Y-143185659D01*
X184380000Y-143185659D01*
X184380001Y-143185659D01*
X184419234Y-143182226D01*
X184615408Y-143165063D01*
X184843663Y-143103903D01*
X185057830Y-143004035D01*
X185251401Y-142868495D01*
X185418495Y-142701401D01*
X185554035Y-142507830D01*
X185653903Y-142293663D01*
X185715063Y-142065408D01*
X185735659Y-141830000D01*
X185715063Y-141594592D01*
X185653903Y-141366337D01*
X185554035Y-141152171D01*
X185418495Y-140958599D01*
X185418494Y-140958597D01*
X185251402Y-140791506D01*
X185251396Y-140791501D01*
X185065842Y-140661575D01*
X185022217Y-140606998D01*
X185015023Y-140537500D01*
X185046546Y-140475145D01*
X185065842Y-140458425D01*
X185110824Y-140426928D01*
X185251401Y-140328495D01*
X185418495Y-140161401D01*
X185554035Y-139967830D01*
X185653903Y-139753663D01*
X185715063Y-139525408D01*
X185735659Y-139290000D01*
X185715063Y-139054592D01*
X185653903Y-138826337D01*
X185554035Y-138612171D01*
X185418495Y-138418599D01*
X185418494Y-138418597D01*
X185251402Y-138251506D01*
X185251396Y-138251501D01*
X185065842Y-138121575D01*
X185022217Y-138066998D01*
X185015023Y-137997500D01*
X185046546Y-137935145D01*
X185065842Y-137918425D01*
X185095652Y-137897552D01*
X185251401Y-137788495D01*
X185418495Y-137621401D01*
X185554035Y-137427830D01*
X185653903Y-137213663D01*
X185715063Y-136985408D01*
X185735659Y-136750000D01*
X185715063Y-136514592D01*
X185668626Y-136341285D01*
X185653905Y-136286344D01*
X185653904Y-136286343D01*
X185653903Y-136286337D01*
X185554035Y-136072171D01*
X185529175Y-136036666D01*
X185418494Y-135878597D01*
X185251402Y-135711506D01*
X185251395Y-135711501D01*
X185057834Y-135575967D01*
X185057830Y-135575965D01*
X184952820Y-135526998D01*
X184843663Y-135476097D01*
X184843659Y-135476096D01*
X184843655Y-135476094D01*
X184615413Y-135414938D01*
X184615403Y-135414936D01*
X184380001Y-135394341D01*
X184379999Y-135394341D01*
X184144596Y-135414936D01*
X184144586Y-135414938D01*
X183916344Y-135476094D01*
X183916335Y-135476098D01*
X183702171Y-135575964D01*
X183702169Y-135575965D01*
X183508597Y-135711505D01*
X183341505Y-135878597D01*
X183205965Y-136072169D01*
X183205964Y-136072171D01*
X183106098Y-136286335D01*
X183106094Y-136286344D01*
X183044938Y-136514586D01*
X183044936Y-136514596D01*
X183024341Y-136749999D01*
X177695659Y-136749999D01*
X177675063Y-136514592D01*
X177628626Y-136341285D01*
X177613905Y-136286344D01*
X177613904Y-136286343D01*
X177613903Y-136286337D01*
X177514035Y-136072171D01*
X177489175Y-136036666D01*
X177378494Y-135878597D01*
X177211402Y-135711506D01*
X177211396Y-135711501D01*
X177025842Y-135581575D01*
X176982217Y-135526998D01*
X176975023Y-135457500D01*
X177006546Y-135395145D01*
X177025842Y-135378425D01*
X177178929Y-135271232D01*
X177211401Y-135248495D01*
X177378495Y-135081401D01*
X177514035Y-134887830D01*
X177613903Y-134673663D01*
X177675063Y-134445408D01*
X177695659Y-134210000D01*
X177675063Y-133974592D01*
X177613903Y-133746337D01*
X177514035Y-133532171D01*
X177510903Y-133527697D01*
X177378494Y-133338597D01*
X177211402Y-133171506D01*
X177211396Y-133171501D01*
X177025842Y-133041575D01*
X176982217Y-132986998D01*
X176975023Y-132917500D01*
X177006546Y-132855145D01*
X177025842Y-132838425D01*
X177133851Y-132762796D01*
X177211401Y-132708495D01*
X177378495Y-132541401D01*
X177514035Y-132347830D01*
X177613903Y-132133663D01*
X177664315Y-131945519D01*
X177696406Y-131889934D01*
X180559415Y-129026927D01*
X180559417Y-129026923D01*
X180559420Y-129026921D01*
X180661229Y-128886791D01*
X180661228Y-128886791D01*
X180661232Y-128886787D01*
X180739873Y-128732445D01*
X180793403Y-128567701D01*
X180807976Y-128475688D01*
X180820500Y-128396615D01*
X180820500Y-128223384D01*
X180802033Y-128106788D01*
X180793403Y-128052299D01*
X180739873Y-127887554D01*
X180739871Y-127887551D01*
X180739871Y-127887549D01*
X180731334Y-127870795D01*
X180718438Y-127802126D01*
X180744714Y-127737385D01*
X180801821Y-127697128D01*
X180841819Y-127690500D01*
X180934529Y-127690500D01*
X180934530Y-127690500D01*
X181105620Y-127663402D01*
X181270364Y-127609873D01*
X181424707Y-127531232D01*
X181564847Y-127429414D01*
X182866045Y-126128214D01*
X182927367Y-126094731D01*
X182997059Y-126099715D01*
X183052992Y-126141587D01*
X183077409Y-126207051D01*
X183073500Y-126247990D01*
X183044938Y-126354586D01*
X183044936Y-126354596D01*
X183024341Y-126589999D01*
X183024341Y-126590000D01*
X183044936Y-126825403D01*
X183044938Y-126825413D01*
X183106094Y-127053655D01*
X183106096Y-127053659D01*
X183106097Y-127053663D01*
X183115654Y-127074158D01*
X183205965Y-127267830D01*
X183205967Y-127267834D01*
X183341501Y-127461395D01*
X183341506Y-127461402D01*
X183508597Y-127628493D01*
X183508603Y-127628498D01*
X183694158Y-127758425D01*
X183737783Y-127813002D01*
X183744977Y-127882500D01*
X183713454Y-127944855D01*
X183694158Y-127961575D01*
X183508597Y-128091505D01*
X183341505Y-128258597D01*
X183205965Y-128452169D01*
X183205964Y-128452171D01*
X183106098Y-128666335D01*
X183106094Y-128666344D01*
X183044938Y-128894586D01*
X183044936Y-128894596D01*
X183024341Y-129129999D01*
X183024341Y-129130000D01*
X183044936Y-129365403D01*
X183044938Y-129365413D01*
X183106094Y-129593655D01*
X183106096Y-129593659D01*
X183106097Y-129593663D01*
X183173161Y-129737482D01*
X183205965Y-129807830D01*
X183205967Y-129807834D01*
X183282279Y-129916818D01*
X183331960Y-129987770D01*
X183341501Y-130001395D01*
X183341506Y-130001402D01*
X183508597Y-130168493D01*
X183508603Y-130168498D01*
X183694158Y-130298425D01*
X183737783Y-130353002D01*
X183744977Y-130422500D01*
X183713454Y-130484855D01*
X183694158Y-130501575D01*
X183508597Y-130631505D01*
X183341505Y-130798597D01*
X183205965Y-130992169D01*
X183205964Y-130992171D01*
X183106098Y-131206335D01*
X183106094Y-131206344D01*
X183044938Y-131434586D01*
X183044936Y-131434596D01*
X183024341Y-131669999D01*
X183024341Y-131670000D01*
X183044936Y-131905403D01*
X183044938Y-131905413D01*
X183106094Y-132133655D01*
X183106096Y-132133659D01*
X183106097Y-132133663D01*
X183205965Y-132347830D01*
X183205967Y-132347834D01*
X183308337Y-132494032D01*
X183341505Y-132541401D01*
X183508599Y-132708495D01*
X183586149Y-132762796D01*
X183702165Y-132844032D01*
X183702167Y-132844033D01*
X183702170Y-132844035D01*
X183916337Y-132943903D01*
X184144592Y-133005063D01*
X184332918Y-133021539D01*
X184379999Y-133025659D01*
X184380000Y-133025659D01*
X184380001Y-133025659D01*
X184419234Y-133022226D01*
X184615408Y-133005063D01*
X184843663Y-132943903D01*
X185057830Y-132844035D01*
X185251401Y-132708495D01*
X185418495Y-132541401D01*
X185554035Y-132347830D01*
X185653903Y-132133663D01*
X185715063Y-131905408D01*
X185735659Y-131670000D01*
X185715063Y-131434592D01*
X185653903Y-131206337D01*
X185554035Y-130992171D01*
X185458929Y-130856344D01*
X185418494Y-130798597D01*
X185251402Y-130631506D01*
X185251396Y-130631501D01*
X185065842Y-130501575D01*
X185022217Y-130446998D01*
X185015023Y-130377500D01*
X185046546Y-130315145D01*
X185065842Y-130298425D01*
X185111198Y-130266666D01*
X185251401Y-130168495D01*
X185418495Y-130001401D01*
X185554035Y-129807830D01*
X185653903Y-129593663D01*
X185715063Y-129365408D01*
X185735659Y-129130000D01*
X185735123Y-129123879D01*
X185726641Y-129026925D01*
X185715063Y-128894592D01*
X185663331Y-128701524D01*
X185653905Y-128666344D01*
X185653904Y-128666343D01*
X185653903Y-128666337D01*
X185554035Y-128452171D01*
X185553341Y-128451179D01*
X185418494Y-128258597D01*
X185251402Y-128091506D01*
X185251396Y-128091501D01*
X185065842Y-127961575D01*
X185022217Y-127906998D01*
X185015023Y-127837500D01*
X185046546Y-127775145D01*
X185065842Y-127758425D01*
X185101850Y-127733212D01*
X185251401Y-127628495D01*
X185418495Y-127461401D01*
X185554035Y-127267830D01*
X185653903Y-127053663D01*
X185715063Y-126825408D01*
X185735659Y-126590000D01*
X185715063Y-126354592D01*
X185657989Y-126141587D01*
X185653905Y-126126344D01*
X185653904Y-126126343D01*
X185653903Y-126126337D01*
X185554035Y-125912171D01*
X185510413Y-125849871D01*
X185418494Y-125718597D01*
X185251402Y-125551506D01*
X185251395Y-125551501D01*
X185223753Y-125532146D01*
X185162849Y-125489500D01*
X185057834Y-125415967D01*
X185057830Y-125415965D01*
X185038150Y-125406788D01*
X184843663Y-125316097D01*
X184843659Y-125316096D01*
X184843655Y-125316094D01*
X184615413Y-125254938D01*
X184615403Y-125254936D01*
X184380001Y-125234341D01*
X184379999Y-125234341D01*
X184144596Y-125254936D01*
X184144586Y-125254938D01*
X184037990Y-125283500D01*
X183968140Y-125281837D01*
X183910277Y-125242674D01*
X183882774Y-125178445D01*
X183894361Y-125109543D01*
X183918214Y-125076046D01*
X189855111Y-119139148D01*
X189916432Y-119105665D01*
X189986124Y-119110649D01*
X190007235Y-119121745D01*
X190007478Y-119121326D01*
X190012166Y-119124032D01*
X190012170Y-119124035D01*
X190226337Y-119223903D01*
X190454592Y-119285063D01*
X190642918Y-119301539D01*
X190689999Y-119305659D01*
X190690000Y-119305659D01*
X190690001Y-119305659D01*
X190729234Y-119302226D01*
X190925408Y-119285063D01*
X191153663Y-119223903D01*
X191367830Y-119124035D01*
X191561401Y-118988495D01*
X191728495Y-118821401D01*
X191864035Y-118627830D01*
X191963903Y-118413663D01*
X192025063Y-118185408D01*
X192045659Y-117950000D01*
X192025063Y-117714592D01*
X191963903Y-117486337D01*
X191864035Y-117272171D01*
X191858912Y-117264855D01*
X191728496Y-117078600D01*
X191712348Y-117062452D01*
X191606567Y-116956671D01*
X191573084Y-116895351D01*
X191578068Y-116825659D01*
X191619939Y-116769725D01*
X191650915Y-116752810D01*
X191782331Y-116703796D01*
X191897546Y-116617546D01*
X191983796Y-116502331D01*
X192034091Y-116367483D01*
X192040500Y-116307873D01*
X192040499Y-114512128D01*
X192034091Y-114452517D01*
X192032336Y-114447812D01*
X191983797Y-114317671D01*
X191983793Y-114317664D01*
X191897547Y-114202455D01*
X191897544Y-114202452D01*
X191782335Y-114116206D01*
X191782328Y-114116202D01*
X191647482Y-114065908D01*
X191647483Y-114065908D01*
X191587883Y-114059501D01*
X191587881Y-114059500D01*
X191587873Y-114059500D01*
X191587864Y-114059500D01*
X189792129Y-114059500D01*
X189792123Y-114059501D01*
X189732516Y-114065908D01*
X189597671Y-114116202D01*
X189597664Y-114116206D01*
X189482457Y-114202451D01*
X189482451Y-114202457D01*
X189439515Y-114259812D01*
X189383581Y-114301682D01*
X189340249Y-114309500D01*
X187600237Y-114309500D01*
X187543941Y-114295984D01*
X187532449Y-114290128D01*
X187472837Y-114270759D01*
X187410657Y-114250555D01*
X187352982Y-114211118D01*
X187325784Y-114146760D01*
X187337699Y-114077913D01*
X187361295Y-114044944D01*
X188246757Y-113159483D01*
X189259421Y-112146819D01*
X189320744Y-112113334D01*
X189347102Y-112110500D01*
X196366610Y-112110500D01*
X196366611Y-112110500D01*
X196537701Y-112083402D01*
X196702445Y-112029873D01*
X196856788Y-111951232D01*
X196996928Y-111849414D01*
X197119414Y-111726928D01*
X197221232Y-111586788D01*
X197299873Y-111432445D01*
X197353402Y-111267701D01*
X197380500Y-111096611D01*
X197380500Y-107343389D01*
X197353402Y-107172299D01*
X197299873Y-107007555D01*
X197221232Y-106853212D01*
X197119414Y-106713072D01*
X196996928Y-106590586D01*
X194776928Y-104370586D01*
X194636788Y-104268768D01*
X194482445Y-104190127D01*
X194317701Y-104136598D01*
X194317699Y-104136597D01*
X194317698Y-104136597D01*
X194186271Y-104115781D01*
X194146611Y-104109500D01*
X194146610Y-104109500D01*
X194121946Y-104109500D01*
X194054907Y-104089815D01*
X194050823Y-104087075D01*
X193985842Y-104041575D01*
X193942217Y-103986998D01*
X193935023Y-103917500D01*
X193966546Y-103855145D01*
X193985842Y-103838425D01*
X194008026Y-103822891D01*
X194171401Y-103708495D01*
X194338495Y-103541401D01*
X194474035Y-103347830D01*
X194573903Y-103133663D01*
X194635063Y-102905408D01*
X194655659Y-102670000D01*
X194635063Y-102434592D01*
X194573903Y-102206337D01*
X194474035Y-101992171D01*
X194471732Y-101988881D01*
X194338494Y-101798597D01*
X194171402Y-101631506D01*
X194171396Y-101631501D01*
X193985842Y-101501575D01*
X193942217Y-101446998D01*
X193935023Y-101377500D01*
X193966546Y-101315145D01*
X193985842Y-101298425D01*
X194030980Y-101266819D01*
X194171401Y-101168495D01*
X194338495Y-101001401D01*
X194474035Y-100807830D01*
X194573903Y-100593663D01*
X194635063Y-100365408D01*
X194655659Y-100130000D01*
X194635063Y-99894592D01*
X194573903Y-99666337D01*
X194474035Y-99452171D01*
X194471732Y-99448881D01*
X194338494Y-99258597D01*
X194171402Y-99091506D01*
X194171396Y-99091501D01*
X193985842Y-98961575D01*
X193942217Y-98906998D01*
X193935023Y-98837500D01*
X193966546Y-98775145D01*
X193985842Y-98758425D01*
X194008654Y-98742452D01*
X194171401Y-98628495D01*
X194338495Y-98461401D01*
X194474035Y-98267830D01*
X194573903Y-98053663D01*
X194635063Y-97825408D01*
X194646043Y-97699901D01*
X194671495Y-97634834D01*
X194681882Y-97623037D01*
X198387139Y-93917782D01*
X198390143Y-93913285D01*
X198393226Y-93908673D01*
X198393228Y-93908668D01*
X198393236Y-93908657D01*
X198496632Y-93753914D01*
X198551088Y-93622445D01*
X198572051Y-93571836D01*
X198610500Y-93378541D01*
X198610500Y-93181460D01*
X198610500Y-86354675D01*
X198610501Y-86354654D01*
X198610501Y-86151457D01*
X198610500Y-86151455D01*
X198590074Y-86048768D01*
X198572052Y-85958165D01*
X198496632Y-85776086D01*
X198496631Y-85776085D01*
X198496628Y-85776079D01*
X198387140Y-85612219D01*
X198387137Y-85612215D01*
X195184209Y-82409289D01*
X195184206Y-82409285D01*
X195184206Y-82409286D01*
X195177139Y-82402219D01*
X195177139Y-82402218D01*
X195037782Y-82262861D01*
X195037781Y-82262860D01*
X195037780Y-82262859D01*
X194873920Y-82153371D01*
X194873907Y-82153364D01*
X194733985Y-82095408D01*
X194691834Y-82077948D01*
X194691829Y-82077946D01*
X194595188Y-82058724D01*
X194498544Y-82039500D01*
X194498541Y-82039500D01*
X191864141Y-82039500D01*
X191797102Y-82019815D01*
X191751347Y-81967011D01*
X191747969Y-81958859D01*
X191743796Y-81947669D01*
X191743793Y-81947665D01*
X191743793Y-81947664D01*
X191657547Y-81832455D01*
X191657544Y-81832452D01*
X191542335Y-81746206D01*
X191542328Y-81746202D01*
X191407482Y-81695908D01*
X191407483Y-81695908D01*
X191347883Y-81689501D01*
X191347881Y-81689500D01*
X191347873Y-81689500D01*
X191347865Y-81689500D01*
X190919336Y-81689500D01*
X190852297Y-81669815D01*
X190831655Y-81653181D01*
X186204648Y-77026174D01*
X186204646Y-77026172D01*
X186045405Y-76910476D01*
X185927410Y-76850354D01*
X185896024Y-76827550D01*
X185794648Y-76726174D01*
X185794646Y-76726172D01*
X185635405Y-76610476D01*
X185460030Y-76521117D01*
X185272826Y-76460290D01*
X185078422Y-76429500D01*
X185078417Y-76429500D01*
X180568417Y-76429500D01*
X168609336Y-76429500D01*
X168542297Y-76409815D01*
X168521655Y-76393181D01*
X167894648Y-75766174D01*
X167894647Y-75766173D01*
X167894646Y-75766172D01*
X167735405Y-75650476D01*
X167560030Y-75561117D01*
X167372826Y-75500290D01*
X167178422Y-75469500D01*
X167178417Y-75469500D01*
X130358417Y-75469500D01*
X118588417Y-75469500D01*
X105441583Y-75469500D01*
X105441578Y-75469500D01*
X105247173Y-75500290D01*
X105059969Y-75561117D01*
X104884594Y-75650476D01*
X104793742Y-75716484D01*
X104725355Y-75766171D01*
X104725353Y-75766173D01*
X104725352Y-75766173D01*
X102916174Y-77575351D01*
X102916174Y-77575352D01*
X102916172Y-77575354D01*
X102866485Y-77643741D01*
X102800476Y-77734594D01*
X102711117Y-77909972D01*
X102711116Y-77909974D01*
X102701455Y-77939709D01*
X102650290Y-78097177D01*
X102619500Y-78291577D01*
X102619500Y-80711670D01*
X102607499Y-80758687D01*
X102609303Y-80759360D01*
X102555908Y-80902517D01*
X102549501Y-80962116D01*
X102549500Y-80962135D01*
X102549500Y-82757870D01*
X102549501Y-82757876D01*
X102555908Y-82817483D01*
X102606203Y-82952329D01*
X102624766Y-82977126D01*
X102649184Y-83042590D01*
X102649500Y-83051438D01*
X102649500Y-110253422D01*
X102680290Y-110447826D01*
X102741117Y-110635030D01*
X102830476Y-110810405D01*
X102946172Y-110969646D01*
X102946174Y-110969648D01*
X105852640Y-113876114D01*
X105877341Y-113911390D01*
X105940964Y-114047829D01*
X105940965Y-114047831D01*
X106076501Y-114241395D01*
X106076506Y-114241402D01*
X106243597Y-114408493D01*
X106243603Y-114408498D01*
X106429158Y-114538425D01*
X106472783Y-114593002D01*
X106479977Y-114662500D01*
X106448454Y-114724855D01*
X106429158Y-114741575D01*
X106243597Y-114871505D01*
X106076505Y-115038597D01*
X105940965Y-115232169D01*
X105940964Y-115232171D01*
X105841098Y-115446335D01*
X105841094Y-115446344D01*
X105779938Y-115674586D01*
X105779936Y-115674596D01*
X105759341Y-115909999D01*
X105759341Y-115910000D01*
X105779936Y-116145403D01*
X105779938Y-116145413D01*
X105841094Y-116373655D01*
X105841096Y-116373659D01*
X105841097Y-116373663D01*
X105914085Y-116530185D01*
X105940965Y-116587830D01*
X105940967Y-116587834D01*
X106007021Y-116682168D01*
X106068329Y-116769725D01*
X106076501Y-116781395D01*
X106076506Y-116781402D01*
X106243597Y-116948493D01*
X106243603Y-116948498D01*
X106429158Y-117078425D01*
X106472783Y-117133002D01*
X106479977Y-117202500D01*
X106448454Y-117264855D01*
X106429158Y-117281575D01*
X106243597Y-117411505D01*
X106076505Y-117578597D01*
X105940965Y-117772169D01*
X105940964Y-117772171D01*
X105841098Y-117986335D01*
X105841094Y-117986344D01*
X105779938Y-118214586D01*
X105779936Y-118214596D01*
X105759341Y-118449999D01*
X105759341Y-118450000D01*
X105779936Y-118685403D01*
X105779938Y-118685413D01*
X105841094Y-118913655D01*
X105841096Y-118913659D01*
X105841097Y-118913663D01*
X105891754Y-119022297D01*
X105940965Y-119127830D01*
X105940967Y-119127834D01*
X106010743Y-119227483D01*
X106076505Y-119321401D01*
X106243599Y-119488495D01*
X106299767Y-119527824D01*
X106437165Y-119624032D01*
X106437167Y-119624033D01*
X106437170Y-119624035D01*
X106651337Y-119723903D01*
X106879592Y-119785063D01*
X107067918Y-119801539D01*
X107114999Y-119805659D01*
X107115000Y-119805659D01*
X107115001Y-119805659D01*
X107154234Y-119802226D01*
X107350408Y-119785063D01*
X107578663Y-119723903D01*
X107792830Y-119624035D01*
X107986401Y-119488495D01*
X108153495Y-119321401D01*
X108289035Y-119127830D01*
X108388903Y-118913663D01*
X108446636Y-118698196D01*
X108478727Y-118642613D01*
X113154523Y-113966819D01*
X113215846Y-113933334D01*
X113242204Y-113930500D01*
X116243796Y-113930500D01*
X116310835Y-113950185D01*
X116356590Y-114002989D01*
X116366534Y-114072147D01*
X116337509Y-114135703D01*
X116331477Y-114142181D01*
X102060588Y-128413069D01*
X102060588Y-128413070D01*
X102060586Y-128413072D01*
X102032900Y-128451179D01*
X101958768Y-128553211D01*
X101880128Y-128707552D01*
X101826597Y-128872302D01*
X101810725Y-128972517D01*
X101799500Y-129043389D01*
X100500500Y-129043389D01*
X100500500Y-70378711D01*
X118649500Y-70378711D01*
X118649500Y-70621288D01*
X118681161Y-70861785D01*
X118743947Y-71096104D01*
X118836773Y-71320205D01*
X118836776Y-71320212D01*
X118958064Y-71530289D01*
X118958066Y-71530292D01*
X118958067Y-71530293D01*
X119105733Y-71722736D01*
X119105739Y-71722743D01*
X119277256Y-71894260D01*
X119277262Y-71894265D01*
X119469711Y-72041936D01*
X119679788Y-72163224D01*
X119903900Y-72256054D01*
X120138211Y-72318838D01*
X120318586Y-72342584D01*
X120378711Y-72350500D01*
X120378712Y-72350500D01*
X120621289Y-72350500D01*
X120669388Y-72344167D01*
X120861789Y-72318838D01*
X121096100Y-72256054D01*
X121320212Y-72163224D01*
X121530289Y-72041936D01*
X121722738Y-71894265D01*
X121894265Y-71722738D01*
X122041936Y-71530289D01*
X122163224Y-71320212D01*
X122256054Y-71096100D01*
X122318838Y-70861789D01*
X122350500Y-70621288D01*
X122350500Y-70378712D01*
X122350500Y-70378711D01*
X178149500Y-70378711D01*
X178149500Y-70621288D01*
X178181161Y-70861785D01*
X178243947Y-71096104D01*
X178336773Y-71320205D01*
X178336776Y-71320212D01*
X178458064Y-71530289D01*
X178458066Y-71530292D01*
X178458067Y-71530293D01*
X178605733Y-71722736D01*
X178605739Y-71722743D01*
X178777256Y-71894260D01*
X178777262Y-71894265D01*
X178969711Y-72041936D01*
X179179788Y-72163224D01*
X179403900Y-72256054D01*
X179638211Y-72318838D01*
X179818586Y-72342584D01*
X179878711Y-72350500D01*
X179878712Y-72350500D01*
X180121289Y-72350500D01*
X180169388Y-72344167D01*
X180361789Y-72318838D01*
X180596100Y-72256054D01*
X180820212Y-72163224D01*
X181030289Y-72041936D01*
X181222738Y-71894265D01*
X181394265Y-71722738D01*
X181541936Y-71530289D01*
X181663224Y-71320212D01*
X181756054Y-71096100D01*
X181818838Y-70861789D01*
X181850500Y-70621288D01*
X181850500Y-70378712D01*
X181818838Y-70138211D01*
X181756054Y-69903900D01*
X181663224Y-69679788D01*
X181541936Y-69469711D01*
X181394265Y-69277262D01*
X181394260Y-69277256D01*
X181222743Y-69105739D01*
X181222736Y-69105733D01*
X181030293Y-68958067D01*
X181030292Y-68958066D01*
X181030289Y-68958064D01*
X180820212Y-68836776D01*
X180820205Y-68836773D01*
X180596104Y-68743947D01*
X180361785Y-68681161D01*
X180121289Y-68649500D01*
X180121288Y-68649500D01*
X179878712Y-68649500D01*
X179878711Y-68649500D01*
X179638214Y-68681161D01*
X179403895Y-68743947D01*
X179179794Y-68836773D01*
X179179785Y-68836777D01*
X178969706Y-68958067D01*
X178777263Y-69105733D01*
X178777256Y-69105739D01*
X178605739Y-69277256D01*
X178605733Y-69277263D01*
X178458067Y-69469706D01*
X178336777Y-69679785D01*
X178336773Y-69679794D01*
X178243947Y-69903895D01*
X178181161Y-70138214D01*
X178149500Y-70378711D01*
X122350500Y-70378711D01*
X122318838Y-70138211D01*
X122256054Y-69903900D01*
X122163224Y-69679788D01*
X122041936Y-69469711D01*
X121894265Y-69277262D01*
X121894260Y-69277256D01*
X121722743Y-69105739D01*
X121722736Y-69105733D01*
X121530293Y-68958067D01*
X121530292Y-68958066D01*
X121530289Y-68958064D01*
X121320212Y-68836776D01*
X121320205Y-68836773D01*
X121096104Y-68743947D01*
X120861785Y-68681161D01*
X120621289Y-68649500D01*
X120621288Y-68649500D01*
X120378712Y-68649500D01*
X120378711Y-68649500D01*
X120138214Y-68681161D01*
X119903895Y-68743947D01*
X119679794Y-68836773D01*
X119679785Y-68836777D01*
X119469706Y-68958067D01*
X119277263Y-69105733D01*
X119277256Y-69105739D01*
X119105739Y-69277256D01*
X119105733Y-69277263D01*
X118958067Y-69469706D01*
X118836777Y-69679785D01*
X118836773Y-69679794D01*
X118743947Y-69903895D01*
X118681161Y-70138214D01*
X118649500Y-70378711D01*
X100500500Y-70378711D01*
X100500500Y-57502214D01*
X100500579Y-57497788D01*
X100510261Y-57226695D01*
X100518176Y-57005073D01*
X100518804Y-56996284D01*
X100531444Y-56878711D01*
X118649500Y-56878711D01*
X118649500Y-57121288D01*
X118681161Y-57361785D01*
X118743947Y-57596104D01*
X118836773Y-57820205D01*
X118836776Y-57820212D01*
X118958064Y-58030289D01*
X118958066Y-58030292D01*
X118958067Y-58030293D01*
X119105733Y-58222736D01*
X119105739Y-58222743D01*
X119277256Y-58394260D01*
X119277262Y-58394265D01*
X119469711Y-58541936D01*
X119679788Y-58663224D01*
X119903900Y-58756054D01*
X120138211Y-58818838D01*
X120318586Y-58842584D01*
X120378711Y-58850500D01*
X120378712Y-58850500D01*
X120621289Y-58850500D01*
X120669388Y-58844167D01*
X120861789Y-58818838D01*
X121096100Y-58756054D01*
X121320212Y-58663224D01*
X121530289Y-58541936D01*
X121722738Y-58394265D01*
X121894265Y-58222738D01*
X122041936Y-58030289D01*
X122163224Y-57820212D01*
X122256054Y-57596100D01*
X122318838Y-57361789D01*
X122350500Y-57121288D01*
X122350500Y-56878712D01*
X122350500Y-56878711D01*
X178149500Y-56878711D01*
X178149500Y-57121288D01*
X178181161Y-57361785D01*
X178243947Y-57596104D01*
X178336773Y-57820205D01*
X178336776Y-57820212D01*
X178458064Y-58030289D01*
X178458066Y-58030292D01*
X178458067Y-58030293D01*
X178605733Y-58222736D01*
X178605739Y-58222743D01*
X178777256Y-58394260D01*
X178777262Y-58394265D01*
X178969711Y-58541936D01*
X179179788Y-58663224D01*
X179403900Y-58756054D01*
X179638211Y-58818838D01*
X179818586Y-58842584D01*
X179878711Y-58850500D01*
X179878712Y-58850500D01*
X180121289Y-58850500D01*
X180169388Y-58844167D01*
X180361789Y-58818838D01*
X180596100Y-58756054D01*
X180820212Y-58663224D01*
X181030289Y-58541936D01*
X181222738Y-58394265D01*
X181394265Y-58222738D01*
X181541936Y-58030289D01*
X181663224Y-57820212D01*
X181756054Y-57596100D01*
X181818838Y-57361789D01*
X181850500Y-57121288D01*
X181850500Y-56878712D01*
X181818838Y-56638211D01*
X181756054Y-56403900D01*
X181663224Y-56179788D01*
X181541936Y-55969711D01*
X181394265Y-55777262D01*
X181394260Y-55777256D01*
X181222743Y-55605739D01*
X181222736Y-55605733D01*
X181030293Y-55458067D01*
X181030292Y-55458066D01*
X181030289Y-55458064D01*
X180820212Y-55336776D01*
X180820205Y-55336773D01*
X180596104Y-55243947D01*
X180361785Y-55181161D01*
X180121289Y-55149500D01*
X180121288Y-55149500D01*
X179878712Y-55149500D01*
X179878711Y-55149500D01*
X179638214Y-55181161D01*
X179403895Y-55243947D01*
X179179794Y-55336773D01*
X179179785Y-55336777D01*
X178969706Y-55458067D01*
X178777263Y-55605733D01*
X178777256Y-55605739D01*
X178605739Y-55777256D01*
X178605733Y-55777263D01*
X178458067Y-55969706D01*
X178336777Y-56179785D01*
X178336773Y-56179794D01*
X178243947Y-56403895D01*
X178181161Y-56638214D01*
X178149500Y-56878711D01*
X122350500Y-56878711D01*
X122318838Y-56638211D01*
X122256054Y-56403900D01*
X122163224Y-56179788D01*
X122041936Y-55969711D01*
X121894265Y-55777262D01*
X121894260Y-55777256D01*
X121722743Y-55605739D01*
X121722736Y-55605733D01*
X121530293Y-55458067D01*
X121530292Y-55458066D01*
X121530289Y-55458064D01*
X121320212Y-55336776D01*
X121320205Y-55336773D01*
X121096104Y-55243947D01*
X120861785Y-55181161D01*
X120621289Y-55149500D01*
X120621288Y-55149500D01*
X120378712Y-55149500D01*
X120378711Y-55149500D01*
X120138214Y-55181161D01*
X119903895Y-55243947D01*
X119679794Y-55336773D01*
X119679785Y-55336777D01*
X119469706Y-55458067D01*
X119277263Y-55605733D01*
X119277256Y-55605739D01*
X119105739Y-55777256D01*
X119105733Y-55777263D01*
X118958067Y-55969706D01*
X118836777Y-56179785D01*
X118836773Y-56179794D01*
X118743947Y-56403895D01*
X118681161Y-56638214D01*
X118649500Y-56878711D01*
X100531444Y-56878711D01*
X100571274Y-56508240D01*
X100572527Y-56499532D01*
X100659680Y-56016473D01*
X100661551Y-56007877D01*
X100782940Y-55532278D01*
X100785421Y-55523829D01*
X100940423Y-55058121D01*
X100943512Y-55049839D01*
X101131335Y-54596397D01*
X101135012Y-54588346D01*
X101191837Y-54474822D01*
X101354714Y-54149436D01*
X101358924Y-54141724D01*
X101609409Y-53719554D01*
X101614155Y-53712170D01*
X101894087Y-53308992D01*
X101899387Y-53301912D01*
X102054401Y-53109551D01*
X102207369Y-52919728D01*
X102213131Y-52913079D01*
X102547595Y-52553839D01*
X102553839Y-52547595D01*
X102913079Y-52213131D01*
X102919728Y-52207369D01*
X103301918Y-51899382D01*
X103308998Y-51894083D01*
X103387624Y-51839492D01*
X103712170Y-51614155D01*
X103719554Y-51609409D01*
X104141724Y-51358924D01*
X104149436Y-51354714D01*
X104474822Y-51191837D01*
X104588346Y-51135012D01*
X104596397Y-51131335D01*
X104620281Y-51121442D01*
X105049850Y-50943507D01*
X105058121Y-50940423D01*
X105523829Y-50785421D01*
X105532278Y-50782940D01*
X106007877Y-50661551D01*
X106016473Y-50659680D01*
X106499532Y-50572527D01*
X106508240Y-50571274D01*
X106996284Y-50518804D01*
X107005073Y-50518176D01*
X107497788Y-50500578D01*
X107502214Y-50500500D01*
X107565892Y-50500500D01*
X192434108Y-50500500D01*
X192497786Y-50500500D01*
X192502211Y-50500578D01*
G37*
%TD.AperFunction*%
%TD*%
%TA.AperFunction,NonConductor*%
G36*
X119770835Y-77990185D02*
G01*
X119816590Y-78042989D01*
X119826534Y-78112147D01*
X119797509Y-78175703D01*
X119791477Y-78182181D01*
X117477386Y-80496270D01*
X117421799Y-80528364D01*
X117206341Y-80586095D01*
X117206335Y-80586098D01*
X116992171Y-80685964D01*
X116992169Y-80685965D01*
X116798600Y-80821503D01*
X116676673Y-80943430D01*
X116615350Y-80976914D01*
X116545658Y-80971930D01*
X116489725Y-80930058D01*
X116472810Y-80899081D01*
X116423797Y-80767671D01*
X116423795Y-80767668D01*
X116405233Y-80742872D01*
X116380816Y-80677408D01*
X116380500Y-80668561D01*
X116380500Y-80649336D01*
X116400185Y-80582297D01*
X116416819Y-80561655D01*
X118971655Y-78006819D01*
X119032978Y-77973334D01*
X119059336Y-77970500D01*
X119703796Y-77970500D01*
X119770835Y-77990185D01*
G37*
%TD.AperFunction*%
%TA.AperFunction,NonConductor*%
G36*
X166577703Y-77990185D02*
G01*
X166598345Y-78006819D01*
X167225354Y-78633828D01*
X167384595Y-78749524D01*
X167459514Y-78787697D01*
X167559969Y-78838882D01*
X167559971Y-78838882D01*
X167559974Y-78838884D01*
X167660318Y-78871487D01*
X167747173Y-78899709D01*
X167941578Y-78930500D01*
X167941583Y-78930500D01*
X168138417Y-78930500D01*
X177565217Y-78930500D01*
X177632256Y-78950185D01*
X177678011Y-79002989D01*
X177687955Y-79072147D01*
X177658930Y-79135703D01*
X177652898Y-79142181D01*
X166491899Y-90303181D01*
X166430576Y-90336666D01*
X166404218Y-90339500D01*
X163172855Y-90339500D01*
X163105816Y-90319815D01*
X163081626Y-90299483D01*
X163019747Y-90232265D01*
X163019744Y-90232262D01*
X162987055Y-90206819D01*
X162823509Y-90079526D01*
X162823507Y-90079525D01*
X162823506Y-90079524D01*
X162604811Y-89961172D01*
X162604802Y-89961169D01*
X162369616Y-89880429D01*
X162124335Y-89839500D01*
X161875665Y-89839500D01*
X161630383Y-89880429D01*
X161395194Y-89961170D01*
X161395181Y-89961176D01*
X161355026Y-89982906D01*
X161286697Y-89997500D01*
X161221326Y-89972836D01*
X161185526Y-89930144D01*
X161141233Y-89843213D01*
X161125937Y-89822160D01*
X161039414Y-89703072D01*
X154601600Y-83265258D01*
X159779500Y-83265258D01*
X159779500Y-83494741D01*
X159781777Y-83512032D01*
X159809452Y-83722238D01*
X159809453Y-83722240D01*
X159868842Y-83943887D01*
X159956650Y-84155876D01*
X159956657Y-84155890D01*
X159990227Y-84214035D01*
X160059371Y-84333797D01*
X160071392Y-84354617D01*
X160211081Y-84536661D01*
X160211089Y-84536670D01*
X160373330Y-84698911D01*
X160373338Y-84698918D01*
X160555382Y-84838607D01*
X160555385Y-84838608D01*
X160555388Y-84838611D01*
X160754112Y-84953344D01*
X160754117Y-84953346D01*
X160754123Y-84953349D01*
X160845480Y-84991190D01*
X160966113Y-85041158D01*
X161187762Y-85100548D01*
X161415266Y-85130500D01*
X161415273Y-85130500D01*
X161644727Y-85130500D01*
X161644734Y-85130500D01*
X161872238Y-85100548D01*
X162093887Y-85041158D01*
X162305888Y-84953344D01*
X162504612Y-84838611D01*
X162686661Y-84698919D01*
X162686665Y-84698914D01*
X162686670Y-84698911D01*
X162848911Y-84536670D01*
X162848914Y-84536665D01*
X162848919Y-84536661D01*
X162988611Y-84354612D01*
X163103344Y-84155888D01*
X163191158Y-83943887D01*
X163250548Y-83722238D01*
X163280500Y-83494734D01*
X163280500Y-83265266D01*
X163250548Y-83037762D01*
X163191158Y-82816113D01*
X163103344Y-82604112D01*
X162988611Y-82405388D01*
X162988608Y-82405385D01*
X162988607Y-82405382D01*
X162848918Y-82223338D01*
X162848911Y-82223330D01*
X162686670Y-82061089D01*
X162686661Y-82061081D01*
X162504617Y-81921392D01*
X162305890Y-81806657D01*
X162305876Y-81806650D01*
X162093887Y-81718842D01*
X162041992Y-81704937D01*
X161872238Y-81659452D01*
X161824606Y-81653181D01*
X161644741Y-81629500D01*
X161644734Y-81629500D01*
X161415266Y-81629500D01*
X161415258Y-81629500D01*
X161198715Y-81658009D01*
X161187762Y-81659452D01*
X161094874Y-81684341D01*
X160966112Y-81718842D01*
X160754123Y-81806650D01*
X160754109Y-81806657D01*
X160555382Y-81921392D01*
X160373338Y-82061081D01*
X160211081Y-82223338D01*
X160071392Y-82405382D01*
X159956657Y-82604109D01*
X159956650Y-82604123D01*
X159868842Y-82816112D01*
X159846768Y-82898495D01*
X159810452Y-83034032D01*
X159809453Y-83037759D01*
X159809451Y-83037770D01*
X159779500Y-83265258D01*
X154601600Y-83265258D01*
X150706928Y-79370586D01*
X150566788Y-79268768D01*
X150412445Y-79190127D01*
X150247701Y-79136598D01*
X150247699Y-79136597D01*
X150247698Y-79136597D01*
X150116271Y-79115781D01*
X150076611Y-79109500D01*
X130476610Y-79109500D01*
X130303389Y-79109500D01*
X130217844Y-79123049D01*
X130132298Y-79136598D01*
X129967549Y-79190128D01*
X129813211Y-79268768D01*
X129733256Y-79326859D01*
X129673072Y-79370586D01*
X129673070Y-79370588D01*
X129673069Y-79370588D01*
X128547386Y-80496270D01*
X128491798Y-80528364D01*
X128277890Y-80585680D01*
X128208040Y-80584017D01*
X128150178Y-80544854D01*
X128122674Y-80480626D01*
X128134261Y-80411724D01*
X128158113Y-80378228D01*
X130529523Y-78006819D01*
X130590846Y-77973334D01*
X130617204Y-77970500D01*
X166510664Y-77970500D01*
X166577703Y-77990185D01*
G37*
%TD.AperFunction*%
%TA.AperFunction,NonConductor*%
G36*
X191976739Y-105652114D02*
G01*
X192032673Y-105693985D01*
X192045788Y-105715891D01*
X192125965Y-105887830D01*
X192125967Y-105887834D01*
X192261501Y-106081395D01*
X192261506Y-106081402D01*
X192383430Y-106203326D01*
X192416915Y-106264649D01*
X192411931Y-106334341D01*
X192370059Y-106390274D01*
X192339083Y-106407189D01*
X192207669Y-106456203D01*
X192207664Y-106456206D01*
X192092457Y-106542451D01*
X192092451Y-106542457D01*
X192049515Y-106599812D01*
X191993581Y-106641682D01*
X191950249Y-106649500D01*
X191176204Y-106649500D01*
X191109165Y-106629815D01*
X191063410Y-106577011D01*
X191053466Y-106507853D01*
X191082491Y-106444297D01*
X191088523Y-106437819D01*
X191276633Y-106249709D01*
X191845727Y-105680613D01*
X191907048Y-105647130D01*
X191976739Y-105652114D01*
G37*
%TD.AperFunction*%
%TA.AperFunction,NonConductor*%
G36*
X135032861Y-109240306D02*
G01*
X135088794Y-109282178D01*
X135113103Y-109346244D01*
X135114891Y-109367814D01*
X135114892Y-109367824D01*
X135175936Y-109608881D01*
X135275826Y-109836606D01*
X135411833Y-110044782D01*
X135411836Y-110044785D01*
X135580256Y-110227738D01*
X135663008Y-110292147D01*
X135703821Y-110348857D01*
X135707496Y-110418630D01*
X135672864Y-110479313D01*
X135663014Y-110487848D01*
X135604400Y-110533469D01*
X135580257Y-110552261D01*
X135411833Y-110735217D01*
X135275826Y-110943393D01*
X135175936Y-111171118D01*
X135114892Y-111412175D01*
X135114890Y-111412187D01*
X135094357Y-111659994D01*
X135094357Y-111660005D01*
X135114890Y-111907812D01*
X135114892Y-111907824D01*
X135175936Y-112148881D01*
X135275826Y-112376606D01*
X135411833Y-112584782D01*
X135444245Y-112619991D01*
X135580256Y-112767738D01*
X135663008Y-112832147D01*
X135703821Y-112888857D01*
X135707496Y-112958630D01*
X135672864Y-113019313D01*
X135663014Y-113027848D01*
X135629182Y-113054180D01*
X135580255Y-113092262D01*
X135580252Y-113092265D01*
X135518374Y-113159483D01*
X135458487Y-113195474D01*
X135427145Y-113199500D01*
X131270517Y-113199500D01*
X131203478Y-113179815D01*
X131157723Y-113127011D01*
X131147779Y-113057853D01*
X131176804Y-112994297D01*
X131182836Y-112987819D01*
X132087253Y-112083402D01*
X134901848Y-109268805D01*
X134963169Y-109235322D01*
X135032861Y-109240306D01*
G37*
%TD.AperFunction*%
%TA.AperFunction,NonConductor*%
G36*
X166998834Y-98760123D02*
G01*
X167054767Y-98801995D01*
X167079184Y-98867459D01*
X167079500Y-98876305D01*
X167079500Y-110502795D01*
X167059815Y-110569834D01*
X167043181Y-110590476D01*
X163679101Y-113954555D01*
X163617778Y-113988040D01*
X163548086Y-113983056D01*
X163492153Y-113941184D01*
X163471214Y-113897314D01*
X163469761Y-113891576D01*
X163424063Y-113711119D01*
X163324173Y-113483393D01*
X163243941Y-113360588D01*
X163188166Y-113275217D01*
X163081625Y-113159483D01*
X163019744Y-113092262D01*
X162936991Y-113027852D01*
X162896179Y-112971143D01*
X162892504Y-112901370D01*
X162927136Y-112840687D01*
X162936985Y-112832151D01*
X163019744Y-112767738D01*
X163110442Y-112669212D01*
X163145372Y-112642714D01*
X163226788Y-112601232D01*
X163366928Y-112499414D01*
X166529414Y-109336928D01*
X166631232Y-109196788D01*
X166709873Y-109042446D01*
X166763402Y-108877701D01*
X166790500Y-108706611D01*
X166790500Y-108533389D01*
X166790500Y-98917305D01*
X166810185Y-98850266D01*
X166826819Y-98829624D01*
X166867819Y-98788624D01*
X166929142Y-98755139D01*
X166998834Y-98760123D01*
G37*
%TD.AperFunction*%
%TA.AperFunction,NonConductor*%
G36*
X194855702Y-107562490D02*
G01*
X194862180Y-107568522D01*
X195143181Y-107849523D01*
X195176666Y-107910846D01*
X195179500Y-107937204D01*
X195179500Y-109785500D01*
X195159815Y-109852539D01*
X195107011Y-109898294D01*
X195055500Y-109909500D01*
X188926509Y-109909500D01*
X188753287Y-109909500D01*
X188667742Y-109923049D01*
X188582196Y-109936598D01*
X188417447Y-109990128D01*
X188263109Y-110068768D01*
X188183154Y-110126859D01*
X188122970Y-110170586D01*
X188122968Y-110170588D01*
X188122967Y-110170588D01*
X177442181Y-120851375D01*
X177380858Y-120884860D01*
X177311166Y-120879876D01*
X177255233Y-120838004D01*
X177230816Y-120772540D01*
X177230500Y-120763694D01*
X177230500Y-120347203D01*
X177250185Y-120280164D01*
X177266814Y-120259527D01*
X189386785Y-108139555D01*
X189448106Y-108106072D01*
X189517798Y-108111056D01*
X189573731Y-108152928D01*
X189589026Y-108179788D01*
X189590125Y-108182441D01*
X189590126Y-108182444D01*
X189590127Y-108182445D01*
X189668768Y-108336788D01*
X189770586Y-108476928D01*
X189893072Y-108599414D01*
X190033212Y-108701232D01*
X190187555Y-108779873D01*
X190352299Y-108833402D01*
X190523389Y-108860500D01*
X190523390Y-108860500D01*
X190696615Y-108860500D01*
X190750108Y-108852027D01*
X190769507Y-108850500D01*
X191950249Y-108850500D01*
X192017288Y-108870185D01*
X192049515Y-108900188D01*
X192068583Y-108925659D01*
X192092454Y-108957546D01*
X192092457Y-108957548D01*
X192207664Y-109043793D01*
X192207671Y-109043797D01*
X192342517Y-109094091D01*
X192342516Y-109094091D01*
X192349444Y-109094835D01*
X192402127Y-109100500D01*
X194197872Y-109100499D01*
X194257483Y-109094091D01*
X194392331Y-109043796D01*
X194507546Y-108957546D01*
X194593796Y-108842331D01*
X194644091Y-108707483D01*
X194650500Y-108647873D01*
X194650499Y-107656202D01*
X194670183Y-107589164D01*
X194722987Y-107543409D01*
X194792146Y-107533465D01*
X194855702Y-107562490D01*
G37*
%TD.AperFunction*%
%TA.AperFunction,NonConductor*%
G36*
X185975959Y-115532793D02*
G01*
X186031892Y-115574665D01*
X186050554Y-115610653D01*
X186090127Y-115732445D01*
X186168768Y-115886788D01*
X186270586Y-116026928D01*
X186493072Y-116249414D01*
X186633212Y-116351232D01*
X186706131Y-116388386D01*
X186787549Y-116429871D01*
X186787551Y-116429871D01*
X186787554Y-116429873D01*
X186952299Y-116483402D01*
X187123389Y-116510500D01*
X187296610Y-116510500D01*
X189340249Y-116510500D01*
X189407288Y-116530185D01*
X189439515Y-116560188D01*
X189482451Y-116617542D01*
X189482454Y-116617546D01*
X189494060Y-116626234D01*
X189535930Y-116682168D01*
X189540914Y-116751860D01*
X189507428Y-116813182D01*
X189446105Y-116846667D01*
X189419748Y-116849500D01*
X189401308Y-116849500D01*
X189315763Y-116863049D01*
X189230217Y-116876598D01*
X189065468Y-116930128D01*
X188911130Y-117008768D01*
X188837239Y-117062454D01*
X188770991Y-117110586D01*
X188770989Y-117110588D01*
X188770988Y-117110588D01*
X180428396Y-125453181D01*
X180367073Y-125486666D01*
X180340715Y-125489500D01*
X177689751Y-125489500D01*
X177622712Y-125469815D01*
X177590485Y-125439812D01*
X177547548Y-125382457D01*
X177547546Y-125382454D01*
X177547542Y-125382451D01*
X177432335Y-125296206D01*
X177432328Y-125296202D01*
X177297482Y-125245908D01*
X177297483Y-125245908D01*
X177237883Y-125239501D01*
X177237881Y-125239500D01*
X177237873Y-125239500D01*
X177237865Y-125239500D01*
X176466101Y-125239500D01*
X176399062Y-125219815D01*
X176353307Y-125167011D01*
X176343363Y-125097853D01*
X176372388Y-125034297D01*
X176378420Y-125027819D01*
X181110397Y-120295842D01*
X185844946Y-115561292D01*
X185906267Y-115527809D01*
X185975959Y-115532793D01*
G37*
%TD.AperFunction*%
%TA.AperFunction,NonConductor*%
G36*
X174908833Y-126599918D02*
G01*
X174964767Y-126641789D01*
X174989184Y-126707254D01*
X174989500Y-126716100D01*
X174989500Y-127487870D01*
X174989501Y-127487876D01*
X174995908Y-127547483D01*
X175046202Y-127682328D01*
X175046206Y-127682335D01*
X175132452Y-127797544D01*
X175132453Y-127797544D01*
X175132454Y-127797546D01*
X175144060Y-127806234D01*
X175185930Y-127862168D01*
X175190914Y-127931860D01*
X175157428Y-127993182D01*
X175096105Y-128026667D01*
X175069748Y-128029500D01*
X173676102Y-128029500D01*
X173609063Y-128009815D01*
X173563308Y-127957011D01*
X173553364Y-127887853D01*
X173582389Y-127824297D01*
X173588421Y-127817819D01*
X173875009Y-127531231D01*
X174777821Y-126628417D01*
X174839142Y-126594934D01*
X174908833Y-126599918D01*
G37*
%TD.AperFunction*%
%TA.AperFunction,NonConductor*%
G36*
X178550835Y-127710185D02*
G01*
X178596590Y-127762989D01*
X178606534Y-127832147D01*
X178577509Y-127895703D01*
X178571479Y-127902178D01*
X178183071Y-128290586D01*
X177800634Y-128673023D01*
X177739311Y-128706508D01*
X177669619Y-128701524D01*
X177613686Y-128659652D01*
X177600571Y-128637747D01*
X177599852Y-128636206D01*
X177514035Y-128452171D01*
X177513340Y-128451179D01*
X177378496Y-128258600D01*
X177343280Y-128223384D01*
X177256567Y-128136671D01*
X177223084Y-128075351D01*
X177228068Y-128005659D01*
X177269939Y-127949725D01*
X177300915Y-127932810D01*
X177432331Y-127883796D01*
X177547546Y-127797546D01*
X177576832Y-127758425D01*
X177590485Y-127740188D01*
X177646419Y-127698318D01*
X177689751Y-127690500D01*
X178483796Y-127690500D01*
X178550835Y-127710185D01*
G37*
%TD.AperFunction*%
%TA.AperFunction,NonConductor*%
G36*
X173197288Y-121210185D02*
G01*
X173229515Y-121240188D01*
X173272451Y-121297542D01*
X173272454Y-121297546D01*
X173272457Y-121297548D01*
X173387664Y-121383793D01*
X173387671Y-121383797D01*
X173522517Y-121434091D01*
X173522516Y-121434091D01*
X173529444Y-121434835D01*
X173582127Y-121440500D01*
X174573795Y-121440499D01*
X174640834Y-121460183D01*
X174686589Y-121512987D01*
X174696533Y-121582146D01*
X174667508Y-121645702D01*
X174661476Y-121652180D01*
X166952181Y-129361476D01*
X166890858Y-129394961D01*
X166821166Y-129389977D01*
X166765233Y-129348105D01*
X166740816Y-129282641D01*
X166740500Y-129273795D01*
X166740500Y-123277204D01*
X166760185Y-123210165D01*
X166776819Y-123189523D01*
X167037819Y-122928523D01*
X167099142Y-122895038D01*
X167168834Y-122900022D01*
X167224767Y-122941894D01*
X167249184Y-123007358D01*
X167249500Y-123016204D01*
X167249500Y-124916610D01*
X167274840Y-125076606D01*
X167276598Y-125087701D01*
X167328003Y-125245909D01*
X167330128Y-125252447D01*
X167362559Y-125316097D01*
X167408768Y-125406788D01*
X167510586Y-125546928D01*
X167633072Y-125669414D01*
X167773212Y-125771232D01*
X167927555Y-125849873D01*
X168092299Y-125903402D01*
X168263389Y-125930500D01*
X168263390Y-125930500D01*
X168436610Y-125930500D01*
X168436611Y-125930500D01*
X168607701Y-125903402D01*
X168772445Y-125849873D01*
X168926788Y-125771232D01*
X169066928Y-125669414D01*
X169189414Y-125546928D01*
X169291232Y-125406788D01*
X169369873Y-125252445D01*
X169423402Y-125087701D01*
X169450500Y-124916611D01*
X169450500Y-123042687D01*
X169470185Y-122975648D01*
X169486819Y-122955006D01*
X171215006Y-121226819D01*
X171276329Y-121193334D01*
X171302687Y-121190500D01*
X173130249Y-121190500D01*
X173197288Y-121210185D01*
G37*
%TD.AperFunction*%
%TA.AperFunction,NonConductor*%
G36*
X166240835Y-120400185D02*
G01*
X166286590Y-120452989D01*
X166296534Y-120522147D01*
X166267509Y-120585703D01*
X166261477Y-120592181D01*
X164800588Y-122053069D01*
X164800588Y-122053070D01*
X164800586Y-122053072D01*
X164789868Y-122067824D01*
X164698768Y-122193211D01*
X164620128Y-122347552D01*
X164566597Y-122512302D01*
X164539500Y-122683389D01*
X164539500Y-129036198D01*
X164519815Y-129103237D01*
X164503181Y-129123879D01*
X163473573Y-130153486D01*
X163412250Y-130186971D01*
X163342558Y-130181987D01*
X163286625Y-130140115D01*
X163262953Y-130081992D01*
X163250548Y-129987762D01*
X163191158Y-129766113D01*
X163130401Y-129619433D01*
X163103349Y-129554123D01*
X163103346Y-129554117D01*
X163103344Y-129554112D01*
X162988611Y-129355388D01*
X162988608Y-129355385D01*
X162988607Y-129355382D01*
X162848918Y-129173338D01*
X162848911Y-129173330D01*
X162686670Y-129011089D01*
X162686661Y-129011081D01*
X162504617Y-128871392D01*
X162446210Y-128837671D01*
X162305888Y-128756656D01*
X162305876Y-128756650D01*
X162093887Y-128668842D01*
X162084538Y-128666337D01*
X162002197Y-128644274D01*
X161942538Y-128607910D01*
X161912009Y-128545063D01*
X161920304Y-128475688D01*
X161964789Y-128421810D01*
X162031341Y-128400535D01*
X162034292Y-128400500D01*
X162124335Y-128400500D01*
X162369614Y-128359571D01*
X162604810Y-128278828D01*
X162823509Y-128160474D01*
X163019744Y-128007738D01*
X163188164Y-127824785D01*
X163324173Y-127616607D01*
X163424063Y-127388881D01*
X163485108Y-127147821D01*
X163485109Y-127147812D01*
X163505643Y-126900005D01*
X163505643Y-126899994D01*
X163485109Y-126652187D01*
X163485107Y-126652175D01*
X163424063Y-126411118D01*
X163324173Y-126183393D01*
X163188166Y-125975217D01*
X163130126Y-125912169D01*
X163019744Y-125792262D01*
X162936991Y-125727852D01*
X162896179Y-125671143D01*
X162892504Y-125601370D01*
X162927136Y-125540687D01*
X162936985Y-125532151D01*
X163019744Y-125467738D01*
X163188164Y-125284785D01*
X163324173Y-125076607D01*
X163424063Y-124848881D01*
X163485108Y-124607821D01*
X163505643Y-124360000D01*
X163485108Y-124112179D01*
X163424063Y-123871119D01*
X163324173Y-123643393D01*
X163244107Y-123520842D01*
X163188166Y-123435217D01*
X163166557Y-123411744D01*
X163019744Y-123252262D01*
X162936991Y-123187852D01*
X162896179Y-123131143D01*
X162892504Y-123061370D01*
X162927136Y-123000687D01*
X162936985Y-122992151D01*
X163019744Y-122927738D01*
X163188164Y-122744785D01*
X163324173Y-122536607D01*
X163424063Y-122308881D01*
X163485108Y-122067821D01*
X163486330Y-122053072D01*
X163505643Y-121820005D01*
X163505643Y-121819994D01*
X163485109Y-121572187D01*
X163485107Y-121572175D01*
X163424063Y-121331118D01*
X163324173Y-121103393D01*
X163188166Y-120895217D01*
X163147806Y-120851375D01*
X163019744Y-120712262D01*
X162936991Y-120647852D01*
X162896179Y-120591143D01*
X162892504Y-120521370D01*
X162927136Y-120460687D01*
X162936985Y-120452151D01*
X162995451Y-120406645D01*
X163060445Y-120381004D01*
X163071613Y-120380500D01*
X166173796Y-120380500D01*
X166240835Y-120400185D01*
G37*
%TD.AperFunction*%
%TA.AperFunction,NonConductor*%
G36*
X138654219Y-131308437D02*
G01*
X138686971Y-131370154D01*
X138689500Y-131395068D01*
X138689500Y-131602796D01*
X138669815Y-131669835D01*
X138653181Y-131690477D01*
X138550477Y-131793181D01*
X138489154Y-131826666D01*
X138462796Y-131829500D01*
X138295443Y-131829500D01*
X138228404Y-131809815D01*
X138182649Y-131757011D01*
X138172705Y-131687853D01*
X138201730Y-131624297D01*
X138207762Y-131617819D01*
X138338911Y-131486670D01*
X138338914Y-131486665D01*
X138338919Y-131486661D01*
X138467125Y-131319581D01*
X138523553Y-131278379D01*
X138593299Y-131274224D01*
X138654219Y-131308437D01*
G37*
%TD.AperFunction*%
%TA.AperFunction,NonConductor*%
G36*
X160995426Y-110240185D02*
G01*
X161004548Y-110246645D01*
X161063008Y-110292147D01*
X161103821Y-110348856D01*
X161107496Y-110418629D01*
X161072865Y-110479313D01*
X161063014Y-110487848D01*
X161004400Y-110533469D01*
X160980257Y-110552261D01*
X160811833Y-110735217D01*
X160675826Y-110943393D01*
X160575936Y-111171118D01*
X160514892Y-111412175D01*
X160514890Y-111412187D01*
X160494357Y-111659994D01*
X160494357Y-111660005D01*
X160514890Y-111907812D01*
X160514892Y-111907824D01*
X160575936Y-112148881D01*
X160675826Y-112376606D01*
X160811833Y-112584782D01*
X160844245Y-112619991D01*
X160980256Y-112767738D01*
X161063008Y-112832147D01*
X161103821Y-112888857D01*
X161107496Y-112958630D01*
X161072864Y-113019313D01*
X161063014Y-113027848D01*
X161024465Y-113057853D01*
X161004549Y-113073354D01*
X160939555Y-113098996D01*
X160928387Y-113099500D01*
X156006610Y-113099500D01*
X155833389Y-113099500D01*
X155747844Y-113113049D01*
X155662298Y-113126598D01*
X155497549Y-113180128D01*
X155343211Y-113258768D01*
X155263256Y-113316859D01*
X155203072Y-113360586D01*
X155203070Y-113360588D01*
X155203069Y-113360588D01*
X155050588Y-113513069D01*
X155050588Y-113513070D01*
X155050586Y-113513072D01*
X155006859Y-113573256D01*
X154948768Y-113653211D01*
X154870128Y-113807552D01*
X154816597Y-113972302D01*
X154789500Y-114143389D01*
X154789500Y-114316610D01*
X154810281Y-114447821D01*
X154816598Y-114487701D01*
X154870127Y-114652445D01*
X154948768Y-114806788D01*
X155050586Y-114946928D01*
X155173072Y-115069414D01*
X155313212Y-115171232D01*
X155467555Y-115249873D01*
X155632299Y-115303402D01*
X155803389Y-115330500D01*
X155803390Y-115330500D01*
X155976610Y-115330500D01*
X155976611Y-115330500D01*
X156120325Y-115307738D01*
X156152513Y-115302640D01*
X156152584Y-115303089D01*
X156174464Y-115300500D01*
X160928387Y-115300500D01*
X160995426Y-115320185D01*
X161004548Y-115326645D01*
X161063008Y-115372147D01*
X161103821Y-115428856D01*
X161107496Y-115498629D01*
X161072865Y-115559313D01*
X161063014Y-115567848D01*
X161054257Y-115574665D01*
X160980257Y-115632261D01*
X160811833Y-115815217D01*
X160675826Y-116023393D01*
X160575936Y-116251118D01*
X160514892Y-116492175D01*
X160514890Y-116492187D01*
X160494357Y-116739994D01*
X160494357Y-116740005D01*
X160514890Y-116987812D01*
X160514892Y-116987824D01*
X160575936Y-117228881D01*
X160675826Y-117456606D01*
X160811833Y-117664782D01*
X160811836Y-117664785D01*
X160980256Y-117847738D01*
X161063008Y-117912147D01*
X161103821Y-117968857D01*
X161107496Y-118038630D01*
X161072864Y-118099313D01*
X161063014Y-118107848D01*
X161004549Y-118153354D01*
X160980257Y-118172261D01*
X160811833Y-118355217D01*
X160675826Y-118563393D01*
X160575936Y-118791118D01*
X160514892Y-119032175D01*
X160514890Y-119032187D01*
X160494357Y-119279994D01*
X160494357Y-119280005D01*
X160514890Y-119527812D01*
X160514892Y-119527824D01*
X160575936Y-119768881D01*
X160675826Y-119996606D01*
X160811833Y-120204782D01*
X160811836Y-120204785D01*
X160980256Y-120387738D01*
X161063008Y-120452147D01*
X161103821Y-120508857D01*
X161107496Y-120578630D01*
X161072864Y-120639313D01*
X161063014Y-120647848D01*
X161004400Y-120693469D01*
X160980257Y-120712261D01*
X160811833Y-120895217D01*
X160675826Y-121103393D01*
X160575936Y-121331118D01*
X160514892Y-121572175D01*
X160514890Y-121572187D01*
X160494357Y-121819994D01*
X160494357Y-121820005D01*
X160514890Y-122067812D01*
X160514892Y-122067824D01*
X160575936Y-122308881D01*
X160675826Y-122536606D01*
X160811833Y-122744782D01*
X160811836Y-122744785D01*
X160980256Y-122927738D01*
X161063008Y-122992147D01*
X161103821Y-123048857D01*
X161107496Y-123118630D01*
X161072864Y-123179313D01*
X161063014Y-123187848D01*
X161014200Y-123225842D01*
X160980257Y-123252261D01*
X160811833Y-123435217D01*
X160675826Y-123643393D01*
X160575936Y-123871118D01*
X160514892Y-124112175D01*
X160514890Y-124112187D01*
X160494357Y-124359994D01*
X160494357Y-124360005D01*
X160514890Y-124607812D01*
X160514892Y-124607824D01*
X160575936Y-124848881D01*
X160675826Y-125076606D01*
X160811833Y-125284782D01*
X160811836Y-125284785D01*
X160980256Y-125467738D01*
X161063008Y-125532147D01*
X161103821Y-125588857D01*
X161107496Y-125658630D01*
X161072864Y-125719313D01*
X161063014Y-125727848D01*
X161012056Y-125767511D01*
X160980257Y-125792261D01*
X160811833Y-125975217D01*
X160675826Y-126183393D01*
X160575936Y-126411118D01*
X160514892Y-126652175D01*
X160514890Y-126652187D01*
X160494357Y-126899994D01*
X160494357Y-126900005D01*
X160514890Y-127147812D01*
X160514892Y-127147824D01*
X160575936Y-127388881D01*
X160675826Y-127616606D01*
X160811833Y-127824782D01*
X160811836Y-127824785D01*
X160980256Y-128007738D01*
X161176491Y-128160474D01*
X161395190Y-128278828D01*
X161429440Y-128290586D01*
X161568188Y-128338219D01*
X161625203Y-128378605D01*
X161651334Y-128443404D01*
X161638282Y-128512044D01*
X161590194Y-128562732D01*
X161527925Y-128579500D01*
X161415258Y-128579500D01*
X161199474Y-128607910D01*
X161187762Y-128609452D01*
X161099621Y-128633069D01*
X160966112Y-128668842D01*
X160754123Y-128756650D01*
X160754109Y-128756657D01*
X160555382Y-128871392D01*
X160373338Y-129011081D01*
X160211081Y-129173338D01*
X160071392Y-129355382D01*
X159956657Y-129554109D01*
X159956650Y-129554123D01*
X159868842Y-129766112D01*
X159868842Y-129766113D01*
X159809510Y-129987548D01*
X159809453Y-129987759D01*
X159809451Y-129987770D01*
X159779500Y-130215258D01*
X159779500Y-130444741D01*
X159786983Y-130501575D01*
X159809452Y-130672238D01*
X159860500Y-130862753D01*
X159868842Y-130893887D01*
X159956650Y-131105876D01*
X159956657Y-131105890D01*
X160071392Y-131304617D01*
X160211081Y-131486661D01*
X160211089Y-131486670D01*
X160373330Y-131648911D01*
X160373338Y-131648918D01*
X160555382Y-131788607D01*
X160555385Y-131788608D01*
X160555388Y-131788611D01*
X160754112Y-131903344D01*
X160754117Y-131903346D01*
X160754123Y-131903349D01*
X160778454Y-131913427D01*
X160966113Y-131991158D01*
X161187762Y-132050548D01*
X161281991Y-132062953D01*
X161345887Y-132091219D01*
X161384358Y-132149544D01*
X161385190Y-132219408D01*
X161353486Y-132273573D01*
X160433879Y-133193181D01*
X160372556Y-133226666D01*
X160346198Y-133229500D01*
X140526204Y-133229500D01*
X140459165Y-133209815D01*
X140413410Y-133157011D01*
X140403466Y-133087853D01*
X140432491Y-133024297D01*
X140438523Y-133017819D01*
X140516342Y-132940000D01*
X140629414Y-132826928D01*
X140731232Y-132686788D01*
X140809873Y-132532445D01*
X140847812Y-132415680D01*
X140887250Y-132358006D01*
X140951609Y-132330808D01*
X140965743Y-132330000D01*
X158080000Y-132330000D01*
X158080000Y-125840000D01*
X141285704Y-125840000D01*
X141218665Y-125820315D01*
X141172910Y-125767511D01*
X141162966Y-125698353D01*
X141191991Y-125634797D01*
X141198023Y-125628319D01*
X156569523Y-110256819D01*
X156630846Y-110223334D01*
X156657204Y-110220500D01*
X160928387Y-110220500D01*
X160995426Y-110240185D01*
G37*
%TD.AperFunction*%
%TA.AperFunction,NonConductor*%
G36*
X171931191Y-129577561D02*
G01*
X171987124Y-129619433D01*
X171998342Y-129637448D01*
X172018935Y-129677864D01*
X172038768Y-129716788D01*
X172140586Y-129856928D01*
X172263072Y-129979414D01*
X172403212Y-130081232D01*
X172557555Y-130159873D01*
X172722299Y-130213402D01*
X172893389Y-130240500D01*
X172893390Y-130240500D01*
X173066615Y-130240500D01*
X173120108Y-130232027D01*
X173139507Y-130230500D01*
X175518054Y-130230500D01*
X175585093Y-130250185D01*
X175589177Y-130252925D01*
X175654158Y-130298425D01*
X175697783Y-130353002D01*
X175704977Y-130422500D01*
X175673454Y-130484855D01*
X175654158Y-130501575D01*
X175468597Y-130631505D01*
X175301505Y-130798597D01*
X175165965Y-130992169D01*
X175165964Y-130992171D01*
X175066098Y-131206335D01*
X175066094Y-131206344D01*
X175004938Y-131434586D01*
X175004936Y-131434596D01*
X174984341Y-131669999D01*
X174984341Y-131670000D01*
X175004936Y-131905403D01*
X175004938Y-131905413D01*
X175066094Y-132133655D01*
X175066096Y-132133659D01*
X175066097Y-132133663D01*
X175165965Y-132347830D01*
X175165967Y-132347834D01*
X175301501Y-132541395D01*
X175301506Y-132541402D01*
X175468597Y-132708493D01*
X175468603Y-132708498D01*
X175654158Y-132838425D01*
X175697783Y-132893002D01*
X175704977Y-132962500D01*
X175673454Y-133024855D01*
X175654158Y-133041575D01*
X175468597Y-133171505D01*
X175301505Y-133338597D01*
X175165965Y-133532169D01*
X175165964Y-133532171D01*
X175066098Y-133746335D01*
X175066095Y-133746341D01*
X175008364Y-133961799D01*
X174976270Y-134017386D01*
X169080477Y-139913181D01*
X169019154Y-139946666D01*
X168992796Y-139949500D01*
X161756102Y-139949500D01*
X161689063Y-139929815D01*
X161643308Y-139877011D01*
X161633364Y-139807853D01*
X161662389Y-139744297D01*
X161668421Y-139737819D01*
X164192585Y-137213655D01*
X171800178Y-129606060D01*
X171861499Y-129572577D01*
X171931191Y-129577561D01*
G37*
%TD.AperFunction*%
M02*
