M48
; DRILL file {KiCad 8.0.4} date 2024-07-29T13:43:12-0500
; FORMAT={-:-/ absolute / inch / decimal}
; #@! TF.CreationDate,2024-07-29T13:43:12-05:00
; #@! TF.GenerationSoftware,Kicad,Pcbnew,8.0.4
; #@! TF.FileFunction,Plated,1,2,PTH
FMAT,2
INCH
; #@! TA.AperFunction,Plated,PTH,ViaDrill
T1C0.0118
; #@! TA.AperFunction,Plated,PTH,ComponentDrill
T2C0.0394
; #@! TA.AperFunction,Plated,PTH,ComponentDrill
T3C0.0402
; #@! TA.AperFunction,Plated,PTH,ComponentDrill
T4C0.1260
%
G90
G05
T1
X4.5335Y-3.4437
X4.9193Y-3.0917
X5.0453Y-5.5004
X5.1122Y-5.4457
X5.2012Y-5.3992
X5.7559Y-4.1114
X5.7563Y-3.7689
X5.7835Y-3.4319
X6.0272Y-3.5201
X6.1374Y-4.4972
X6.5524Y-4.6961
X6.628Y-4.9146
X6.8102Y-5.0843
X7.0606Y-3.6957
X7.0756Y-5.0516
X7.3665Y-4.5398
X7.5043Y-4.2425
T2
X4.0906Y-3.2228
X4.1906Y-3.2228
X4.2171Y-4.4634
X4.2171Y-4.5634
X4.2171Y-4.6634
X4.2171Y-4.7634
X4.2191Y-3.935
X4.2191Y-4.035
X4.2191Y-4.135
X4.2191Y-4.235
X4.2362Y-5.1154
X4.2362Y-5.2154
X4.2906Y-3.2228
X4.5327Y-3.2228
X4.6327Y-3.2228
X4.7091Y-3.7819
X4.7327Y-3.2228
X4.8091Y-3.7819
X4.8165Y-4.1283
X4.8165Y-4.2283
X4.8203Y-4.6563
X4.8203Y-4.7563
X4.8203Y-5.0701
X4.8203Y-5.1701
X4.9091Y-3.7819
X4.9685Y-3.2228
X5.0685Y-3.2228
X5.1685Y-3.2228
X6.8693Y-4.628
X6.8693Y-4.728
X6.8713Y-3.7343
X6.8713Y-3.8343
X6.8713Y-4.1866
X6.8713Y-4.2866
X6.9425Y-4.9839
X6.9425Y-5.0839
X6.9425Y-5.1839
X6.9425Y-5.2839
X6.9425Y-5.3839
X6.9425Y-5.4839
X6.9425Y-5.5839
X6.998Y-3.2693
X7.098Y-3.2693
X7.198Y-3.2693
X7.2591Y-4.9839
X7.2591Y-5.0839
X7.2591Y-5.1839
X7.2591Y-5.2839
X7.2591Y-5.3839
X7.2591Y-5.4839
X7.2591Y-5.5839
X7.298Y-3.2693
X7.398Y-3.2693
X7.498Y-3.2693
X7.5075Y-4.5437
X7.5075Y-4.6437
X7.6102Y-3.7421
X7.6102Y-3.8421
X7.6102Y-3.9421
X7.6102Y-4.0421
X7.6102Y-4.1421
X7.6102Y-4.2421
T3
X5.378Y-3.5961
X5.378Y-3.6961
X5.378Y-3.7961
X5.378Y-3.8961
X5.378Y-3.9961
X5.378Y-4.0961
X5.378Y-4.1961
X5.378Y-4.2961
X5.378Y-4.3961
X5.378Y-4.4961
X5.378Y-4.5961
X5.378Y-4.6961
X5.378Y-4.7961
X5.378Y-4.8961
X5.378Y-4.9961
X6.378Y-3.5961
X6.378Y-3.6961
X6.378Y-3.7961
X6.378Y-3.8961
X6.378Y-3.9961
X6.378Y-4.0961
X6.378Y-4.1961
X6.378Y-4.2961
X6.378Y-4.3961
X6.378Y-4.4961
X6.378Y-4.5961
X6.378Y-4.6961
X6.378Y-4.7961
X6.378Y-4.8961
X6.378Y-4.9961
T4
X4.2323Y-2.2638
X4.2323Y-5.6102
X7.5787Y-2.2638
X7.5787Y-5.6102
M30
