%TF.GenerationSoftware,KiCad,Pcbnew,8.0.4*%
%TF.CreationDate,2024-07-29T13:43:04-05:00*%
%TF.ProjectId,DAQ-Bicineta,4441512d-4269-4636-996e-6574612e6b69,rev?*%
%TF.SameCoordinates,Original*%
%TF.FileFunction,Soldermask,Bot*%
%TF.FilePolarity,Negative*%
%FSLAX46Y46*%
G04 Gerber Fmt 4.6, Leading zero omitted, Abs format (unit mm)*
G04 Created by KiCad (PCBNEW 8.0.4) date 2024-07-29 13:43:04*
%MOMM*%
%LPD*%
G01*
G04 APERTURE LIST*
G04 Aperture macros list*
%AMRoundRect*
0 Rectangle with rounded corners*
0 $1 Rounding radius*
0 $2 $3 $4 $5 $6 $7 $8 $9 X,Y pos of 4 corners*
0 Add a 4 corners polygon primitive as box body*
4,1,4,$2,$3,$4,$5,$6,$7,$8,$9,$2,$3,0*
0 Add four circle primitives for the rounded corners*
1,1,$1+$1,$2,$3*
1,1,$1+$1,$4,$5*
1,1,$1+$1,$6,$7*
1,1,$1+$1,$8,$9*
0 Add four rect primitives between the rounded corners*
20,1,$1+$1,$2,$3,$4,$5,0*
20,1,$1+$1,$4,$5,$6,$7,0*
20,1,$1+$1,$6,$7,$8,$9,0*
20,1,$1+$1,$8,$9,$2,$3,0*%
G04 Aperture macros list end*
%ADD10C,0.000000*%
%ADD11C,4.800000*%
%ADD12R,1.700000X1.700000*%
%ADD13O,1.700000X1.700000*%
%ADD14C,3.200000*%
%ADD15C,3.000000*%
%ADD16RoundRect,0.102000X-1.000000X-1.000000X1.000000X-1.000000X1.000000X1.000000X-1.000000X1.000000X0*%
%ADD17C,2.204000*%
G04 APERTURE END LIST*
D10*
%TO.C,G\u002A\u002A\u002A*%
G36*
X147482740Y-130020041D02*
G01*
X148176839Y-130697606D01*
X145671217Y-130699465D01*
X143165595Y-130701323D01*
X143838979Y-130021899D01*
X144512364Y-129342476D01*
X145650503Y-129342476D01*
X146788641Y-129342476D01*
X147482740Y-130020041D01*
G37*
G36*
X146556675Y-133053175D02*
G01*
X146556675Y-133732599D01*
X145615934Y-133732599D01*
X144675193Y-133732599D01*
X144675193Y-133053175D01*
X144675193Y-132373751D01*
X145615934Y-132373751D01*
X146556675Y-132373751D01*
X146556675Y-133053175D01*
G37*
G36*
X147447011Y-133120114D02*
G01*
X148124576Y-133814213D01*
X148124576Y-134841786D01*
X148124576Y-135869358D01*
X147445152Y-135195974D01*
X146765728Y-134522589D01*
X146767587Y-133474302D01*
X146769446Y-132426015D01*
X147447011Y-133120114D01*
G37*
G36*
X150794850Y-130016929D02*
G01*
X151521695Y-130691382D01*
X150107565Y-130696353D01*
X148693434Y-130701323D01*
X148020049Y-130021899D01*
X147346665Y-129342476D01*
X148707334Y-129342476D01*
X150068004Y-129342476D01*
X150794850Y-130016929D01*
G37*
G36*
X151573959Y-133442131D02*
G01*
X151573959Y-135869358D01*
X150894535Y-135195974D01*
X150215111Y-134522589D01*
X150215111Y-132768746D01*
X150215111Y-131014904D01*
X150894535Y-131014904D01*
X151573959Y-131014904D01*
X151573959Y-133442131D01*
G37*
G36*
X154918815Y-132687332D02*
G01*
X154918815Y-134359760D01*
X154239391Y-134359760D01*
X153559967Y-134359760D01*
X153559967Y-132687332D01*
X153559967Y-131014904D01*
X154239391Y-131014904D01*
X154918815Y-131014904D01*
X154918815Y-132687332D01*
G37*
G36*
X157009350Y-135352764D02*
G01*
X157009350Y-136032188D01*
X156039458Y-136032188D01*
X155069566Y-136032188D01*
X154396181Y-135352764D01*
X153722796Y-134673340D01*
X155366073Y-134673340D01*
X157009350Y-134673340D01*
X157009350Y-135352764D01*
G37*
G36*
X156395711Y-122539272D02*
G01*
X156456954Y-122618622D01*
X156532756Y-122778898D01*
X156465108Y-122877383D01*
X156383938Y-122916310D01*
X156145013Y-122964743D01*
X156086666Y-122961132D01*
X156004294Y-122888048D01*
X156029059Y-122678895D01*
X156060200Y-122556001D01*
X156136496Y-122369056D01*
X156235373Y-122368415D01*
X156395711Y-122539272D01*
G37*
G36*
X168644822Y-117022478D02*
G01*
X168723625Y-117063651D01*
X168886001Y-117169052D01*
X168876451Y-117263592D01*
X168705329Y-117414328D01*
X168664032Y-117446262D01*
X168460486Y-117534020D01*
X168340583Y-117432607D01*
X168299839Y-117138978D01*
X168299771Y-117117243D01*
X168321387Y-116947225D01*
X168419520Y-116921338D01*
X168644822Y-117022478D01*
G37*
G36*
X137610036Y-118997592D02*
G01*
X137792117Y-119067978D01*
X137821817Y-119248201D01*
X137706537Y-119562046D01*
X137611461Y-119758536D01*
X137517233Y-119898335D01*
X137415462Y-119909735D01*
X137246922Y-119826864D01*
X137123321Y-119727661D01*
X137036931Y-119502523D01*
X137090343Y-119262724D01*
X137261875Y-119072059D01*
X137529848Y-118994327D01*
X137610036Y-118997592D01*
G37*
G36*
X154082601Y-130021899D02*
G01*
X154755985Y-130701323D01*
X153350925Y-130701323D01*
X151945864Y-130701323D01*
X151341805Y-130103567D01*
X151255984Y-130017814D01*
X150991860Y-129742071D01*
X150807220Y-129530804D01*
X150737745Y-129424143D01*
X150740190Y-129419192D01*
X150866838Y-129389218D01*
X151157364Y-129364846D01*
X151572626Y-129348467D01*
X152073480Y-129342476D01*
X153409216Y-129342476D01*
X154082601Y-130021899D01*
G37*
G36*
X179495211Y-93711349D02*
G01*
X179853041Y-93855644D01*
X180162025Y-94064698D01*
X179587128Y-94131640D01*
X179397080Y-94149390D01*
X178918517Y-94169148D01*
X178489597Y-94158681D01*
X178349580Y-94148705D01*
X177920205Y-94124222D01*
X177548856Y-94110486D01*
X177130749Y-94102194D01*
X177601119Y-93881681D01*
X177952255Y-93756331D01*
X178476122Y-93662486D01*
X179013339Y-93647227D01*
X179495211Y-93711349D01*
G37*
G36*
X161723143Y-120112893D02*
G01*
X161999729Y-120321633D01*
X162242278Y-120701321D01*
X162303587Y-120842301D01*
X162421575Y-121219737D01*
X162410487Y-121499021D01*
X162271750Y-121729924D01*
X162073659Y-121881538D01*
X161790861Y-121917708D01*
X161513468Y-121778132D01*
X161269566Y-121479229D01*
X161087243Y-121037420D01*
X161035827Y-120766438D01*
X161068860Y-120401874D01*
X161219737Y-120164063D01*
X161450489Y-120064053D01*
X161723143Y-120112893D01*
G37*
G36*
X123534293Y-93713294D02*
G01*
X124031160Y-93855644D01*
X124553794Y-94064698D01*
X123926634Y-94127901D01*
X123695632Y-94143264D01*
X123304133Y-94152166D01*
X122858916Y-94149884D01*
X122412531Y-94137954D01*
X122017525Y-94117912D01*
X121726447Y-94091296D01*
X121591844Y-94059640D01*
X121589781Y-94055631D01*
X121661443Y-93974460D01*
X121848214Y-93838094D01*
X122034547Y-93749514D01*
X122469070Y-93659691D01*
X122991291Y-93647797D01*
X123534293Y-93713294D01*
G37*
G36*
X123123586Y-91079601D02*
G01*
X123347803Y-91167109D01*
X123662228Y-91309511D01*
X124011600Y-91496550D01*
X124298689Y-91730043D01*
X124512927Y-92042088D01*
X124710315Y-92496087D01*
X124764414Y-92674884D01*
X124758653Y-92758113D01*
X124655761Y-92706734D01*
X124428330Y-92568113D01*
X124127095Y-92372834D01*
X123903384Y-92203201D01*
X123588644Y-91904718D01*
X123311171Y-91581648D01*
X123113499Y-91285036D01*
X123038156Y-91065925D01*
X123123586Y-91079601D01*
G37*
G36*
X144558222Y-121496309D02*
G01*
X144668819Y-121587420D01*
X144802056Y-121866031D01*
X144841479Y-122231784D01*
X144791389Y-122621874D01*
X144656090Y-122973492D01*
X144439884Y-123223834D01*
X144205487Y-123353235D01*
X143970911Y-123349735D01*
X143722935Y-123163880D01*
X143619802Y-123043019D01*
X143546703Y-122834430D01*
X143569135Y-122525747D01*
X143607967Y-122324763D01*
X143767416Y-121862615D01*
X143989506Y-121559494D01*
X144258390Y-121431895D01*
X144558222Y-121496309D01*
G37*
G36*
X151584937Y-64099217D02*
G01*
X151784887Y-64384031D01*
X151786595Y-64388534D01*
X151876357Y-64721046D01*
X151829759Y-64969563D01*
X151630973Y-65220066D01*
X151611784Y-65238843D01*
X151394359Y-65407400D01*
X151219671Y-65476632D01*
X150967298Y-65441117D01*
X150649008Y-65272375D01*
X150438536Y-65006985D01*
X150368003Y-64692122D01*
X150469531Y-64374958D01*
X150649996Y-64166673D01*
X150965560Y-63990179D01*
X151294518Y-63967813D01*
X151584937Y-64099217D01*
G37*
G36*
X158002354Y-130178690D02*
G01*
X158681778Y-130852074D01*
X158681778Y-132681500D01*
X158681778Y-134510925D01*
X158031505Y-135167030D01*
X157895875Y-135303234D01*
X157626327Y-135569612D01*
X157433436Y-135754140D01*
X157352081Y-135823134D01*
X157349199Y-135807695D01*
X157342151Y-135633270D01*
X157335858Y-135285108D01*
X157330554Y-134788666D01*
X157326475Y-134169400D01*
X157323855Y-133452766D01*
X157322930Y-132664219D01*
X157322930Y-129505305D01*
X158002354Y-130178690D01*
G37*
G36*
X121888362Y-94344995D02*
G01*
X122463259Y-94378278D01*
X122045152Y-94566497D01*
X121945212Y-94614691D01*
X121478010Y-94922859D01*
X121084607Y-95310479D01*
X120830282Y-95715795D01*
X120698948Y-96032862D01*
X120588100Y-95728204D01*
X120460257Y-95443811D01*
X120280553Y-95133419D01*
X120279593Y-95132003D01*
X120154717Y-94925221D01*
X120151231Y-94792847D01*
X120266459Y-94641516D01*
X120357850Y-94563427D01*
X120713171Y-94417468D01*
X121231748Y-94343121D01*
X121888362Y-94344995D01*
G37*
G36*
X144361613Y-132269225D02*
G01*
X144361608Y-132282165D01*
X144353985Y-132764685D01*
X144333897Y-133159348D01*
X144304350Y-133425765D01*
X144268345Y-133523546D01*
X144247347Y-133516185D01*
X144102490Y-133403293D01*
X143869913Y-133182498D01*
X143588921Y-132890427D01*
X143334338Y-132611142D01*
X143145817Y-132373958D01*
X143047029Y-132173722D01*
X143009003Y-131948437D01*
X143002765Y-131636106D01*
X143002765Y-131014904D01*
X143682189Y-131014904D01*
X144361613Y-131014904D01*
X144361613Y-132269225D01*
G37*
G36*
X178609598Y-91207581D02*
G01*
X178447732Y-91478915D01*
X178194520Y-91795512D01*
X177892373Y-92106097D01*
X177583699Y-92359388D01*
X177350235Y-92519829D01*
X177086610Y-92685146D01*
X176951771Y-92732773D01*
X176922162Y-92667992D01*
X176974229Y-92496087D01*
X177144869Y-92094402D01*
X177353495Y-91766679D01*
X177627310Y-91526182D01*
X178022315Y-91309511D01*
X178022776Y-91309292D01*
X178336837Y-91168297D01*
X178560673Y-91084167D01*
X178645851Y-91075109D01*
X178609598Y-91207581D01*
G37*
G36*
X180673205Y-94363349D02*
G01*
X181135061Y-94468546D01*
X181422411Y-94646297D01*
X181446281Y-94672852D01*
X181545429Y-94813766D01*
X181527638Y-94945101D01*
X181386808Y-95153845D01*
X181384002Y-95157655D01*
X181207253Y-95453208D01*
X181092210Y-95741969D01*
X181020144Y-96029101D01*
X180866114Y-95726323D01*
X180744150Y-95514848D01*
X180284989Y-94987600D01*
X179691654Y-94599875D01*
X179221284Y-94378278D01*
X179796181Y-94344995D01*
X180059929Y-94334984D01*
X180673205Y-94363349D01*
G37*
G36*
X132274281Y-83672988D02*
G01*
X132396319Y-83731156D01*
X132442104Y-83880512D01*
X132418500Y-84157830D01*
X132332375Y-84599882D01*
X132219187Y-85127661D01*
X131574557Y-85140028D01*
X131281591Y-85152213D01*
X130894165Y-85186443D01*
X130616346Y-85232188D01*
X130314648Y-85303459D01*
X130134481Y-85319981D01*
X130091115Y-85261038D01*
X130150925Y-85118413D01*
X130369924Y-84783432D01*
X130770858Y-84353787D01*
X131237285Y-83999295D01*
X131717080Y-83757658D01*
X132158115Y-83666582D01*
X132274281Y-83672988D01*
G37*
G36*
X135332327Y-117622055D02*
G01*
X135416657Y-117663104D01*
X135538639Y-117765307D01*
X135575547Y-117933065D01*
X135552572Y-118236678D01*
X135512637Y-118477778D01*
X135382643Y-118782239D01*
X135122830Y-119069132D01*
X134847419Y-119302544D01*
X134652011Y-119390908D01*
X134477729Y-119337953D01*
X134263539Y-119149377D01*
X134120219Y-118971741D01*
X134060523Y-118742652D01*
X134139964Y-118462796D01*
X134363057Y-118083818D01*
X134387496Y-118047778D01*
X134694038Y-117704661D01*
X135005167Y-117564571D01*
X135332327Y-117622055D01*
G37*
G36*
X169834516Y-83713967D02*
G01*
X170310960Y-83917182D01*
X170788420Y-84246365D01*
X171215750Y-84664284D01*
X171541803Y-85133706D01*
X171602165Y-85255379D01*
X171591061Y-85330247D01*
X171419772Y-85294370D01*
X171386883Y-85285854D01*
X171130804Y-85242579D01*
X170750699Y-85197870D01*
X170315955Y-85160164D01*
X169459185Y-85098889D01*
X169349082Y-84585496D01*
X169293727Y-84315570D01*
X169243717Y-83974937D01*
X169261079Y-83777852D01*
X169352940Y-83687378D01*
X169526428Y-83666582D01*
X169834516Y-83713967D01*
G37*
G36*
X123635032Y-101905585D02*
G01*
X123634704Y-102084109D01*
X123610396Y-102400473D01*
X123565627Y-102803486D01*
X123523479Y-103189603D01*
X123470436Y-104087858D01*
X123479864Y-104933016D01*
X123552112Y-105651986D01*
X123635498Y-106159438D01*
X123381515Y-105834908D01*
X123332580Y-105775276D01*
X123139418Y-105586475D01*
X122994517Y-105510377D01*
X122862796Y-105460600D01*
X122676124Y-105305535D01*
X122655838Y-105281780D01*
X122547539Y-104987585D01*
X122629739Y-104615014D01*
X122901470Y-104168947D01*
X123037271Y-103969254D01*
X123120127Y-103716445D01*
X123098433Y-103394135D01*
X123078831Y-103091022D01*
X123141428Y-102787644D01*
X123306406Y-102403309D01*
X123438484Y-102149180D01*
X123563046Y-101945531D01*
X123628775Y-101885084D01*
X123635032Y-101905585D01*
G37*
G36*
X125203282Y-97127779D02*
G01*
X125110450Y-97294334D01*
X124935179Y-97533284D01*
X124501804Y-98197021D01*
X124157978Y-99049920D01*
X124000036Y-99944377D01*
X123999105Y-99958818D01*
X123967717Y-100347631D01*
X123928798Y-100565287D01*
X123870722Y-100648554D01*
X123781859Y-100634196D01*
X123764868Y-100626990D01*
X123532965Y-100579112D01*
X123229228Y-100565227D01*
X123000546Y-100556544D01*
X122831738Y-100470655D01*
X122711352Y-100252113D01*
X122685320Y-100185465D01*
X122586923Y-99632896D01*
X122691912Y-99082853D01*
X122995562Y-98548680D01*
X123493150Y-98043721D01*
X123523399Y-98019326D01*
X123812075Y-97810359D01*
X124159416Y-97588214D01*
X124518977Y-97378834D01*
X124844311Y-97208159D01*
X125088975Y-97102134D01*
X125206523Y-97086699D01*
X125203282Y-97127779D01*
G37*
G36*
X176620687Y-97111164D02*
G01*
X176878231Y-97226884D01*
X177210518Y-97403942D01*
X177571104Y-97616396D01*
X177913544Y-97838303D01*
X178191393Y-98043721D01*
X178261702Y-98102753D01*
X178738552Y-98614233D01*
X179017430Y-99152652D01*
X179094659Y-99707461D01*
X178966564Y-100268112D01*
X178870521Y-100464745D01*
X178741816Y-100561750D01*
X178531076Y-100542988D01*
X178287493Y-100527633D01*
X178049351Y-100587013D01*
X177931506Y-100649440D01*
X177797787Y-100698968D01*
X177792829Y-100697087D01*
X177754715Y-100577182D01*
X177715923Y-100307219D01*
X177684137Y-99938610D01*
X177555287Y-99153754D01*
X177234153Y-98297816D01*
X176749365Y-97533284D01*
X176642219Y-97392687D01*
X176509362Y-97187797D01*
X176478021Y-97086699D01*
X176484332Y-97082725D01*
X176620687Y-97111164D01*
G37*
G36*
X169921402Y-76523728D02*
G01*
X169954360Y-76757032D01*
X169968083Y-77102220D01*
X169963329Y-77507657D01*
X169940859Y-77921708D01*
X169901432Y-78292740D01*
X169845809Y-78569117D01*
X169764751Y-78806624D01*
X169702564Y-78878816D01*
X169644102Y-78790297D01*
X169607048Y-78622862D01*
X169572095Y-78300790D01*
X169553281Y-77915315D01*
X169544132Y-77616183D01*
X169524639Y-77418706D01*
X169489565Y-77387001D01*
X169431990Y-77497208D01*
X169386570Y-77709702D01*
X169363533Y-78065836D01*
X169372945Y-78471757D01*
X169421219Y-79184989D01*
X169173309Y-78748536D01*
X169046818Y-78512140D01*
X168948374Y-78231183D01*
X168948630Y-77950571D01*
X169036211Y-77572746D01*
X169128983Y-77343202D01*
X169307275Y-77038326D01*
X169519725Y-76750357D01*
X169723801Y-76535995D01*
X169876968Y-76451941D01*
X169921402Y-76523728D01*
G37*
G36*
X178110745Y-101931386D02*
G01*
X178230512Y-102122265D01*
X178384162Y-102415625D01*
X178397690Y-102443412D01*
X178556953Y-102818284D01*
X178616851Y-103112212D01*
X178595615Y-103411013D01*
X178569629Y-103639069D01*
X178614558Y-103898818D01*
X178786552Y-104173509D01*
X178819002Y-104216907D01*
X179071282Y-104654249D01*
X179134821Y-105019166D01*
X179008419Y-105305535D01*
X178854445Y-105438862D01*
X178685579Y-105510377D01*
X178663515Y-105513604D01*
X178502517Y-105618047D01*
X178316279Y-105823957D01*
X178276217Y-105877821D01*
X178134005Y-106062820D01*
X178068404Y-106137537D01*
X178067827Y-106108037D01*
X178089709Y-105928841D01*
X178134093Y-105641035D01*
X178176235Y-105317946D01*
X178217034Y-104546877D01*
X178197797Y-103684427D01*
X178118917Y-102803486D01*
X178101025Y-102654778D01*
X178063065Y-102276460D01*
X178046806Y-102002832D01*
X178055768Y-101885084D01*
X178110745Y-101931386D01*
G37*
G36*
X179602414Y-90274476D02*
G01*
X179575836Y-90313013D01*
X179517613Y-90490490D01*
X179508970Y-90774503D01*
X179547022Y-91213990D01*
X179585767Y-91594391D01*
X179606168Y-92024158D01*
X179575558Y-92327064D01*
X179487419Y-92550083D01*
X179335232Y-92740186D01*
X179182908Y-92860967D01*
X178877493Y-92984871D01*
X178420420Y-93067310D01*
X178102838Y-93119829D01*
X177647091Y-93230379D01*
X177281206Y-93357342D01*
X177122157Y-93425987D01*
X176891597Y-93515974D01*
X176788577Y-93541682D01*
X176768156Y-93472066D01*
X176888319Y-93297070D01*
X177178427Y-93044346D01*
X177628503Y-92723611D01*
X177994251Y-92470292D01*
X178363659Y-92169085D01*
X178625024Y-91869053D01*
X178823241Y-91515686D01*
X179003204Y-91054474D01*
X179056934Y-90910122D01*
X179263424Y-90499506D01*
X179482601Y-90261826D01*
X179641498Y-90163937D01*
X179685938Y-90159081D01*
X179602414Y-90274476D01*
G37*
G36*
X122174729Y-90235457D02*
G01*
X122220956Y-90263535D01*
X122460991Y-90508764D01*
X122648741Y-90842523D01*
X122724576Y-91164098D01*
X122727477Y-91215625D01*
X122850066Y-91552356D01*
X123135392Y-91939860D01*
X123559036Y-92349836D01*
X124096576Y-92753985D01*
X124298484Y-92893170D01*
X124617705Y-93133894D01*
X124837689Y-93328090D01*
X124919638Y-93443267D01*
X124883167Y-93504217D01*
X124732041Y-93485595D01*
X124432800Y-93367221D01*
X124174768Y-93271989D01*
X123720666Y-93149570D01*
X123267454Y-93067723D01*
X122919626Y-93011736D01*
X122580187Y-92903296D01*
X122351211Y-92740186D01*
X122237094Y-92606316D01*
X122135034Y-92403325D01*
X122089470Y-92134741D01*
X122094008Y-91753863D01*
X122142256Y-91213990D01*
X122155599Y-91082507D01*
X122179153Y-90686787D01*
X122155685Y-90435870D01*
X122082129Y-90282268D01*
X122017055Y-90199633D01*
X122016752Y-90159420D01*
X122174729Y-90235457D01*
G37*
G36*
X126070105Y-96733845D02*
G01*
X126044688Y-96851245D01*
X125944801Y-97100241D01*
X125788140Y-97435685D01*
X125450300Y-98291362D01*
X125273584Y-99208410D01*
X125264139Y-100208560D01*
X125343216Y-100838032D01*
X125537123Y-101459209D01*
X125852320Y-101949623D01*
X126303798Y-102340005D01*
X126507808Y-102488945D01*
X126665162Y-102643646D01*
X126669641Y-102723728D01*
X126630567Y-102735378D01*
X126403897Y-102767515D01*
X126095865Y-102784429D01*
X126089073Y-102784548D01*
X125782742Y-102760908D01*
X125529631Y-102652001D01*
X125237990Y-102418714D01*
X124902470Y-102029909D01*
X124592232Y-101421312D01*
X124409920Y-100718258D01*
X124361614Y-99964561D01*
X124453397Y-99204034D01*
X124691350Y-98480490D01*
X124719513Y-98420879D01*
X124911051Y-98080606D01*
X125159922Y-97707295D01*
X125432921Y-97343269D01*
X125696844Y-97030851D01*
X125918484Y-96812364D01*
X126064637Y-96730130D01*
X126070105Y-96733845D01*
G37*
G36*
X147932178Y-116297301D02*
G01*
X148471467Y-116328895D01*
X148654164Y-116867848D01*
X148836862Y-117406800D01*
X148454587Y-117477721D01*
X148080993Y-117596416D01*
X147803011Y-117821145D01*
X147706469Y-118125331D01*
X147707724Y-118166879D01*
X147791783Y-118380561D01*
X148001257Y-118431919D01*
X148327265Y-118318195D01*
X148573292Y-118221945D01*
X148781119Y-118230054D01*
X148856263Y-118376704D01*
X148801884Y-118463954D01*
X148621078Y-118575214D01*
X148395924Y-118629221D01*
X147997633Y-118571686D01*
X147628074Y-118341198D01*
X147458095Y-118106751D01*
X147399895Y-117774166D01*
X147500776Y-117449429D01*
X147742327Y-117183185D01*
X148106139Y-117026079D01*
X148377990Y-116940707D01*
X148454673Y-116846657D01*
X148334203Y-116764578D01*
X148021766Y-116713668D01*
X147743113Y-116674849D01*
X147481715Y-116553618D01*
X147394489Y-116349565D01*
X147434504Y-116320100D01*
X147629434Y-116294137D01*
X147932178Y-116297301D01*
G37*
G36*
X153576374Y-116313995D02*
G01*
X153873547Y-116485685D01*
X154001631Y-116633475D01*
X154076913Y-116786606D01*
X154028123Y-116840012D01*
X153857387Y-116757901D01*
X153667028Y-116665053D01*
X153439280Y-116703388D01*
X153294669Y-116843350D01*
X153255311Y-117125065D01*
X153381203Y-117509264D01*
X153670247Y-117984307D01*
X154094106Y-118576220D01*
X153408930Y-118576220D01*
X153308951Y-118575733D01*
X152960366Y-118558796D01*
X152777037Y-118512084D01*
X152723753Y-118427979D01*
X152714671Y-118328312D01*
X152656106Y-118088267D01*
X152645569Y-118057696D01*
X152631295Y-117957629D01*
X152729274Y-118027455D01*
X152733895Y-118031580D01*
X152937268Y-118121087D01*
X153222027Y-118158113D01*
X153573963Y-118158113D01*
X153209552Y-117713397D01*
X153044947Y-117499198D01*
X152810584Y-117084565D01*
X152758036Y-116749045D01*
X152884355Y-116481474D01*
X152936838Y-116430874D01*
X153236525Y-116295607D01*
X153576374Y-116313995D01*
G37*
G36*
X178552573Y-94465741D02*
G01*
X179116963Y-94633034D01*
X179716518Y-94946475D01*
X180130640Y-95279785D01*
X180428766Y-95705323D01*
X180615979Y-96251907D01*
X180710683Y-96956754D01*
X180717413Y-97061796D01*
X180732487Y-97425080D01*
X180729974Y-97679528D01*
X180709919Y-97775397D01*
X180692696Y-97766934D01*
X180586919Y-97641668D01*
X180439951Y-97414231D01*
X180438514Y-97411804D01*
X180125665Y-97065433D01*
X179619544Y-96745284D01*
X179201912Y-96511676D01*
X178844202Y-96231445D01*
X178560005Y-95878571D01*
X178285722Y-95388354D01*
X178006523Y-94830529D01*
X178248060Y-94905094D01*
X178273162Y-94912975D01*
X178874136Y-95184960D01*
X179356777Y-95564315D01*
X179620338Y-95841653D01*
X179420811Y-95490879D01*
X179214593Y-95222471D01*
X178878931Y-94914149D01*
X178506696Y-94655408D01*
X178175490Y-94507526D01*
X178099648Y-94486822D01*
X178064750Y-94457868D01*
X178228280Y-94443250D01*
X178552573Y-94465741D01*
G37*
G36*
X131933082Y-76513382D02*
G01*
X132132151Y-76711562D01*
X132346071Y-76991984D01*
X132532309Y-77297945D01*
X132648332Y-77572746D01*
X132718017Y-77847485D01*
X132746620Y-78131368D01*
X132685678Y-78390627D01*
X132524429Y-78725397D01*
X132444633Y-78874689D01*
X132328006Y-79086465D01*
X132276778Y-79169636D01*
X132276630Y-79169583D01*
X132277200Y-79070183D01*
X132289936Y-78817130D01*
X132312148Y-78464081D01*
X132321874Y-78099149D01*
X132301262Y-77735885D01*
X132252553Y-77497208D01*
X132203835Y-77397553D01*
X132165076Y-77400879D01*
X132143193Y-77565512D01*
X132131262Y-77915315D01*
X132116084Y-78251095D01*
X132082824Y-78586194D01*
X132040441Y-78790297D01*
X131984883Y-78877998D01*
X131923382Y-78814562D01*
X131838735Y-78569117D01*
X131789838Y-78337653D01*
X131748132Y-77976607D01*
X131723277Y-77565419D01*
X131716035Y-77155724D01*
X131727163Y-76799156D01*
X131757424Y-76547350D01*
X131807575Y-76451941D01*
X131933082Y-76513382D01*
G37*
G36*
X175611383Y-96731116D02*
G01*
X175776265Y-96830187D01*
X176011829Y-97062160D01*
X176284689Y-97385106D01*
X176561460Y-97757096D01*
X176808757Y-98136200D01*
X176993193Y-98480490D01*
X177195159Y-99053872D01*
X177315902Y-99810472D01*
X177295332Y-100569069D01*
X177139529Y-101285851D01*
X176854576Y-101917003D01*
X176446553Y-102418714D01*
X176207098Y-102614779D01*
X175930747Y-102754754D01*
X175623359Y-102792681D01*
X175422560Y-102789674D01*
X175122113Y-102757122D01*
X175019617Y-102679078D01*
X175108717Y-102543529D01*
X175383057Y-102338461D01*
X175764491Y-102021438D01*
X176137745Y-101486097D01*
X176244017Y-101256420D01*
X176325103Y-101009839D01*
X176371882Y-100725141D01*
X176393210Y-100345395D01*
X176397945Y-99813669D01*
X176397913Y-99794342D01*
X176362626Y-98965891D01*
X176252375Y-98281052D01*
X176054002Y-97684799D01*
X175754349Y-97122105D01*
X175684031Y-97003367D01*
X175593690Y-96807493D01*
X175599496Y-96730130D01*
X175611383Y-96731116D01*
G37*
G36*
X150547951Y-117846717D02*
G01*
X150413582Y-118247353D01*
X150188855Y-118520130D01*
X149973781Y-118643756D01*
X149745715Y-118655107D01*
X149489845Y-118497825D01*
X149303054Y-118262751D01*
X149162139Y-117859837D01*
X149121595Y-117426426D01*
X149590805Y-117426426D01*
X149595050Y-117649150D01*
X149617869Y-117998842D01*
X149653832Y-118236509D01*
X149722487Y-118383533D01*
X149849267Y-118471694D01*
X149891963Y-118464244D01*
X150012543Y-118314856D01*
X150084111Y-117970352D01*
X150107730Y-117426426D01*
X150105888Y-117253756D01*
X150068949Y-116766109D01*
X149983764Y-116476679D01*
X149849267Y-116381159D01*
X149806572Y-116388609D01*
X149685991Y-116537996D01*
X149614424Y-116882500D01*
X149590805Y-117426426D01*
X149121595Y-117426426D01*
X149118115Y-117389228D01*
X149175991Y-116917648D01*
X149340776Y-116511817D01*
X149534748Y-116331568D01*
X149849267Y-116276632D01*
X150159028Y-116329366D01*
X150357759Y-116511817D01*
X150524387Y-116914310D01*
X150586655Y-117381332D01*
X150582905Y-117426426D01*
X150547951Y-117846717D01*
G37*
G36*
X123553641Y-94448767D02*
G01*
X123628216Y-94468123D01*
X123509053Y-94507526D01*
X123215168Y-94634018D01*
X122843575Y-94884173D01*
X122500562Y-95190219D01*
X122263732Y-95490879D01*
X122064205Y-95841653D01*
X122327766Y-95564315D01*
X122343859Y-95547598D01*
X122832619Y-95171753D01*
X123436157Y-94905197D01*
X123496671Y-94886994D01*
X123590358Y-94874978D01*
X123603299Y-94938678D01*
X123530818Y-95114968D01*
X123368239Y-95440721D01*
X123135805Y-95856851D01*
X122855088Y-96216617D01*
X122502339Y-96501620D01*
X122012510Y-96775923D01*
X122005032Y-96779679D01*
X121543643Y-97077706D01*
X121244366Y-97414614D01*
X121197424Y-97491931D01*
X121058324Y-97694267D01*
X120974624Y-97775397D01*
X120973892Y-97775385D01*
X120930815Y-97679953D01*
X120926962Y-97432265D01*
X120955445Y-97083381D01*
X121009377Y-96684357D01*
X121081871Y-96286253D01*
X121166037Y-95940128D01*
X121254990Y-95697039D01*
X121442720Y-95417523D01*
X121857402Y-95029770D01*
X122374006Y-94713770D01*
X122928353Y-94506078D01*
X123456263Y-94443250D01*
X123553641Y-94448767D01*
G37*
G36*
X152256809Y-117942299D02*
G01*
X152106306Y-118331019D01*
X151849483Y-118558494D01*
X151753560Y-118603875D01*
X151569953Y-118660169D01*
X151415379Y-118610299D01*
X151197881Y-118437141D01*
X151024824Y-118249395D01*
X150922624Y-118002219D01*
X150872683Y-117627059D01*
X150875589Y-117426426D01*
X151417169Y-117426426D01*
X151418475Y-117712705D01*
X151430087Y-118079777D01*
X151459565Y-118299180D01*
X151513901Y-118410118D01*
X151600090Y-118451795D01*
X151679096Y-118450261D01*
X151734082Y-118383253D01*
X151765498Y-118214003D01*
X151779692Y-117906923D01*
X151783012Y-117426426D01*
X151780124Y-116968905D01*
X151766740Y-116652665D01*
X151736506Y-116476336D01*
X151683072Y-116404329D01*
X151600090Y-116401058D01*
X151547249Y-116418305D01*
X151479848Y-116494141D01*
X151440364Y-116661305D01*
X151421802Y-116958998D01*
X151417169Y-117426426D01*
X150875589Y-117426426D01*
X150879442Y-117160396D01*
X150995662Y-116719713D01*
X151218307Y-116424147D01*
X151535740Y-116297042D01*
X151803759Y-116323094D01*
X152075583Y-116515471D01*
X152246380Y-116873826D01*
X152305646Y-117383341D01*
X152301882Y-117426426D01*
X152256809Y-117942299D01*
G37*
G36*
X173759350Y-78314366D02*
G01*
X174118734Y-78491200D01*
X174358190Y-78746671D01*
X174417282Y-78873926D01*
X174371459Y-78891767D01*
X174178367Y-78798496D01*
X173753426Y-78662396D01*
X173303348Y-78692322D01*
X172898543Y-78886013D01*
X172570460Y-79220106D01*
X172350548Y-79671236D01*
X172270255Y-80216042D01*
X172270522Y-80295516D01*
X172287061Y-80574187D01*
X172354794Y-80778834D01*
X172508952Y-80980185D01*
X172784767Y-81248972D01*
X173038835Y-81482442D01*
X173409634Y-81812392D01*
X173725508Y-82082377D01*
X173860844Y-82203491D01*
X174104952Y-82537707D01*
X174146399Y-82871985D01*
X173989019Y-83222921D01*
X173840964Y-83366385D01*
X173512757Y-83455233D01*
X173456208Y-83452460D01*
X173156627Y-83342780D01*
X172848111Y-83064469D01*
X172519782Y-82605444D01*
X172160760Y-81953623D01*
X171957749Y-81527787D01*
X171826958Y-81175201D01*
X171764348Y-80854536D01*
X171748642Y-80490248D01*
X171807669Y-79894801D01*
X172006150Y-79290648D01*
X172325313Y-78797686D01*
X172745259Y-78445506D01*
X173246087Y-78263697D01*
X173364949Y-78253043D01*
X173759350Y-78314366D01*
G37*
G36*
X128879937Y-78412455D02*
G01*
X129311223Y-78744701D01*
X129644245Y-79221476D01*
X129859105Y-79813188D01*
X129935901Y-80490248D01*
X129922385Y-80833270D01*
X129863424Y-81154466D01*
X129737649Y-81502735D01*
X129523784Y-81953623D01*
X129468007Y-82062277D01*
X129230705Y-82485697D01*
X128992677Y-82860292D01*
X128797989Y-83115521D01*
X128593109Y-83297879D01*
X128257476Y-83449050D01*
X127945188Y-83425340D01*
X127695524Y-83222921D01*
X127617481Y-83096055D01*
X127529873Y-82752896D01*
X127642446Y-82420536D01*
X127959035Y-82082377D01*
X128184350Y-81891161D01*
X128550153Y-81568552D01*
X128899776Y-81248972D01*
X128973705Y-81179490D01*
X129219307Y-80931889D01*
X129351117Y-80735935D01*
X129404367Y-80520896D01*
X129414288Y-80216042D01*
X129346622Y-79713981D01*
X129137292Y-79254030D01*
X128817135Y-78909143D01*
X128417597Y-78702682D01*
X127970128Y-78658012D01*
X127506176Y-78798496D01*
X127320204Y-78889184D01*
X127266509Y-78878344D01*
X127326353Y-78746671D01*
X127384248Y-78659254D01*
X127670994Y-78424761D01*
X128050701Y-78280617D01*
X128438456Y-78263697D01*
X128879937Y-78412455D01*
G37*
G36*
X163138233Y-73727109D02*
G01*
X163567964Y-73894878D01*
X163937357Y-74165513D01*
X163991430Y-74219100D01*
X164174629Y-74376398D01*
X164297755Y-74401415D01*
X164425573Y-74313827D01*
X164553780Y-74216248D01*
X164700296Y-74154467D01*
X164740296Y-74166629D01*
X164934271Y-74262195D01*
X165238421Y-74431979D01*
X165607068Y-74650969D01*
X166242991Y-75082792D01*
X166960240Y-75684272D01*
X167580557Y-76333216D01*
X168069723Y-76993075D01*
X168393518Y-77627296D01*
X168405042Y-77663785D01*
X168377368Y-77705916D01*
X168238408Y-77613428D01*
X167978975Y-77379099D01*
X167589879Y-76995710D01*
X167012124Y-76448951D01*
X166449317Y-76008852D01*
X165881600Y-75680892D01*
X165268806Y-75450064D01*
X164570772Y-75301358D01*
X163747332Y-75219765D01*
X162758321Y-75190277D01*
X162707160Y-75189835D01*
X162130730Y-75179275D01*
X161585243Y-75160172D01*
X161130068Y-75135094D01*
X160824576Y-75106612D01*
X160301942Y-75033919D01*
X160703811Y-74895344D01*
X160958515Y-74776257D01*
X161318492Y-74555589D01*
X161673871Y-74293972D01*
X161985287Y-74055218D01*
X162292563Y-73846952D01*
X162510378Y-73729160D01*
X162722301Y-73684876D01*
X163138233Y-73727109D01*
G37*
G36*
X124109893Y-102504587D02*
G01*
X124149063Y-102696499D01*
X124282158Y-103128130D01*
X124454302Y-103534304D01*
X124489813Y-103606912D01*
X124616254Y-103933877D01*
X124662047Y-104185203D01*
X124624838Y-104322849D01*
X124502269Y-104308775D01*
X124426874Y-104283441D01*
X124404666Y-104375341D01*
X124488934Y-104605592D01*
X124673951Y-104952721D01*
X124891208Y-105446657D01*
X124920673Y-105883626D01*
X124761378Y-106281900D01*
X124651276Y-106566043D01*
X124704668Y-106864123D01*
X124939086Y-107088686D01*
X125030072Y-107127274D01*
X125247033Y-107132792D01*
X125553359Y-107023056D01*
X125953289Y-106842713D01*
X126549919Y-107179430D01*
X126906040Y-107362061D01*
X127207514Y-107458253D01*
X127456950Y-107454067D01*
X127633892Y-107424425D01*
X127701260Y-107449603D01*
X127623988Y-107564729D01*
X127435257Y-107723722D01*
X127167003Y-107874154D01*
X126866329Y-107970800D01*
X126288977Y-108003770D01*
X125699811Y-107872312D01*
X125142745Y-107594796D01*
X124661695Y-107189592D01*
X124300574Y-106675072D01*
X124166028Y-106331371D01*
X124027002Y-105734844D01*
X123933620Y-105015170D01*
X123889701Y-104218985D01*
X123899064Y-103392925D01*
X123965528Y-102583628D01*
X124036012Y-102008731D01*
X124109893Y-102504587D01*
G37*
G36*
X147331332Y-87157345D02*
G01*
X147576870Y-87355111D01*
X147738836Y-87664589D01*
X147802482Y-88032876D01*
X147753057Y-88407068D01*
X147575811Y-88734260D01*
X147554819Y-88757878D01*
X147271244Y-88956167D01*
X146890417Y-89018017D01*
X146376667Y-88949839D01*
X146228364Y-88924960D01*
X146001419Y-88960661D01*
X145775638Y-89139524D01*
X145709363Y-89212619D01*
X145541171Y-89537758D01*
X145536217Y-89860927D01*
X145685251Y-90129713D01*
X145979021Y-90291703D01*
X146138306Y-90362125D01*
X146243679Y-90524988D01*
X146167847Y-90707984D01*
X146077256Y-90749648D01*
X145843904Y-90722238D01*
X145570513Y-90595689D01*
X145328486Y-90396497D01*
X145300481Y-90363888D01*
X145140692Y-90064902D01*
X145093300Y-89658293D01*
X145118725Y-89331729D01*
X145225214Y-89085179D01*
X145457217Y-88819382D01*
X145539290Y-88737833D01*
X145722355Y-88577965D01*
X145893484Y-88503367D01*
X146125904Y-88493393D01*
X146492843Y-88527399D01*
X146512803Y-88529530D01*
X146872737Y-88561262D01*
X147084332Y-88552610D01*
X147203863Y-88492385D01*
X147287608Y-88369399D01*
X147362627Y-88059477D01*
X147287414Y-87749243D01*
X147078074Y-87531115D01*
X147002456Y-87483350D01*
X146878515Y-87317821D01*
X146921216Y-87174670D01*
X147123985Y-87113669D01*
X147331332Y-87157345D01*
G37*
G36*
X139174165Y-73729160D02*
G01*
X139377663Y-73838078D01*
X139681937Y-74042731D01*
X140010672Y-74293972D01*
X140323765Y-74526881D01*
X140687493Y-74754862D01*
X140980732Y-74895344D01*
X141382601Y-75033919D01*
X140859967Y-75106612D01*
X140840233Y-75109237D01*
X140518902Y-75137519D01*
X140053210Y-75162166D01*
X139502527Y-75180608D01*
X138926222Y-75190277D01*
X137967936Y-75218021D01*
X137136917Y-75297780D01*
X136434192Y-75444003D01*
X135820347Y-75671429D01*
X135255974Y-75994796D01*
X134701659Y-76428841D01*
X134117992Y-76988301D01*
X134101229Y-77005488D01*
X133760118Y-77353941D01*
X133477931Y-77639829D01*
X133283579Y-77834020D01*
X133205970Y-77907381D01*
X133198490Y-77883763D01*
X133249344Y-77729433D01*
X133357237Y-77480265D01*
X133497162Y-77192483D01*
X133644111Y-76922311D01*
X133660471Y-76894914D01*
X133977327Y-76465820D01*
X134425269Y-75982249D01*
X134956483Y-75488831D01*
X135523156Y-75030194D01*
X136077475Y-74650969D01*
X136254914Y-74544073D01*
X136599099Y-74344970D01*
X136857435Y-74206765D01*
X136984247Y-74154467D01*
X137079575Y-74186555D01*
X137258970Y-74313827D01*
X137290410Y-74341436D01*
X137411702Y-74406234D01*
X137542372Y-74354151D01*
X137747186Y-74165513D01*
X137957225Y-73992198D01*
X138371689Y-73780506D01*
X138802049Y-73685270D01*
X139174165Y-73729160D01*
G37*
G36*
X177663217Y-102249649D02*
G01*
X177710455Y-102531364D01*
X177733424Y-102693233D01*
X177792202Y-103404420D01*
X177798797Y-104164794D01*
X177757241Y-104923200D01*
X177671564Y-105628485D01*
X177545796Y-106229494D01*
X177383969Y-106675072D01*
X177358511Y-106722444D01*
X177093415Y-107084057D01*
X176731488Y-107441505D01*
X176339723Y-107735755D01*
X175985110Y-107907771D01*
X175934138Y-107921944D01*
X175384092Y-108001762D01*
X174849952Y-107961996D01*
X174389521Y-107812944D01*
X174060596Y-107564904D01*
X173988535Y-107465555D01*
X174022950Y-107423302D01*
X174227593Y-107454067D01*
X174446523Y-107462581D01*
X174738994Y-107378933D01*
X175134624Y-107179430D01*
X175731254Y-106842713D01*
X176131184Y-107023056D01*
X176287320Y-107088047D01*
X176542983Y-107144061D01*
X176745457Y-107088686D01*
X176960364Y-106897021D01*
X177036839Y-106605509D01*
X176923165Y-106281900D01*
X176764382Y-105886842D01*
X176792375Y-105450260D01*
X177010592Y-104952721D01*
X177143310Y-104712379D01*
X177262721Y-104439689D01*
X177277617Y-104297997D01*
X177182274Y-104308775D01*
X177137630Y-104331266D01*
X177041029Y-104299673D01*
X177035185Y-104117419D01*
X177116975Y-103812258D01*
X177283271Y-103411946D01*
X177439170Y-103039913D01*
X177562528Y-102657904D01*
X177615003Y-102374574D01*
X177620597Y-102257848D01*
X177635806Y-102162652D01*
X177663217Y-102249649D01*
G37*
G36*
X135512583Y-73913064D02*
G01*
X135571056Y-74185753D01*
X135581366Y-74233833D01*
X135538201Y-74355847D01*
X135339750Y-74595801D01*
X135004814Y-74885316D01*
X134691978Y-75150136D01*
X134102871Y-75782769D01*
X133609688Y-76491984D01*
X133264305Y-77208537D01*
X133030637Y-77849393D01*
X132887916Y-77333588D01*
X132816378Y-76983826D01*
X132771850Y-76628358D01*
X133092033Y-76628358D01*
X133101262Y-76657621D01*
X133161797Y-76638904D01*
X133253251Y-76441069D01*
X133308280Y-76302159D01*
X133437605Y-76048079D01*
X133628922Y-75753249D01*
X133908077Y-75379357D01*
X134300914Y-74888095D01*
X134518846Y-74600196D01*
X134682559Y-74342652D01*
X134745152Y-74185753D01*
X134699456Y-74170797D01*
X134558730Y-74286328D01*
X134350117Y-74507805D01*
X134101336Y-74801162D01*
X133840110Y-75132333D01*
X133594159Y-75467252D01*
X133391207Y-75771853D01*
X133258973Y-76012069D01*
X133203332Y-76147013D01*
X133112738Y-76436436D01*
X133092033Y-76628358D01*
X132771850Y-76628358D01*
X132756920Y-76509173D01*
X132727561Y-76033834D01*
X132729074Y-75771709D01*
X132826290Y-75104413D01*
X133075439Y-74562838D01*
X133493981Y-74117792D01*
X133857428Y-73891035D01*
X134745152Y-73891035D01*
X134797416Y-73943299D01*
X134849679Y-73891035D01*
X134797416Y-73838772D01*
X134745152Y-73891035D01*
X133857428Y-73891035D01*
X134099374Y-73740083D01*
X134452961Y-73504994D01*
X134660627Y-73199164D01*
X134770127Y-72885053D01*
X135013067Y-73113283D01*
X135098974Y-73202630D01*
X135336601Y-73539390D01*
X135502208Y-73891035D01*
X135512583Y-73913064D01*
G37*
G36*
X167927274Y-73935762D02*
G01*
X168434069Y-74366818D01*
X168773109Y-74894086D01*
X168948880Y-75529963D01*
X168965866Y-76286849D01*
X168916221Y-76608731D01*
X168828552Y-77177141D01*
X168826458Y-77186585D01*
X168745083Y-77531196D01*
X168687151Y-77696909D01*
X168637267Y-77709625D01*
X168580035Y-77595248D01*
X168333333Y-77019707D01*
X167836324Y-76138645D01*
X167229957Y-75385614D01*
X166480112Y-74713794D01*
X166347304Y-74608022D01*
X166172177Y-74432067D01*
X166116108Y-74263929D01*
X166125340Y-74181043D01*
X166939391Y-74181043D01*
X166955797Y-74266097D01*
X167083599Y-74506596D01*
X167346312Y-74859838D01*
X167753772Y-75339822D01*
X167876102Y-75491066D01*
X168142022Y-75883634D01*
X168359638Y-76280563D01*
X168474877Y-76505012D01*
X168571875Y-76638834D01*
X168608502Y-76608731D01*
X168603411Y-76551672D01*
X168536173Y-76290101D01*
X168416081Y-75981570D01*
X168309778Y-75788546D01*
X168115573Y-75496617D01*
X167873799Y-75168087D01*
X167612687Y-74837373D01*
X167360461Y-74538894D01*
X167145352Y-74307067D01*
X166995586Y-74176310D01*
X166939391Y-74181043D01*
X166125340Y-74181043D01*
X166142277Y-74028969D01*
X166176352Y-73907386D01*
X166184185Y-73891035D01*
X166834864Y-73891035D01*
X166887128Y-73943299D01*
X166939391Y-73891035D01*
X166887128Y-73838772D01*
X166834864Y-73891035D01*
X166184185Y-73891035D01*
X166335343Y-73575511D01*
X166558210Y-73259072D01*
X166904964Y-72857938D01*
X167019190Y-73185607D01*
X167020434Y-73189149D01*
X167215786Y-73490504D01*
X167585169Y-73740083D01*
X167849078Y-73891035D01*
X167927274Y-73935762D01*
G37*
G36*
X127950659Y-95359599D02*
G01*
X127371481Y-95581814D01*
X126792066Y-95899725D01*
X126760532Y-95919544D01*
X126400659Y-96115950D01*
X125943846Y-96330012D01*
X125481020Y-96518795D01*
X125345151Y-96569009D01*
X124981784Y-96700405D01*
X124713577Y-96793104D01*
X124590754Y-96829574D01*
X124588284Y-96829671D01*
X124461838Y-96751804D01*
X124278282Y-96559087D01*
X124086591Y-96313978D01*
X123935740Y-96078934D01*
X123874703Y-95916410D01*
X123898892Y-95823326D01*
X124032213Y-95754780D01*
X124324782Y-95734962D01*
X124389412Y-95733299D01*
X124705453Y-95681019D01*
X125064837Y-95539286D01*
X125466419Y-95319019D01*
X126278486Y-95319019D01*
X126330749Y-95371282D01*
X126383012Y-95319019D01*
X126330749Y-95266755D01*
X126278486Y-95319019D01*
X125466419Y-95319019D01*
X125526377Y-95286132D01*
X125773361Y-95142425D01*
X126341350Y-94847033D01*
X126827691Y-94661436D01*
X127288810Y-94567099D01*
X127781134Y-94545487D01*
X128108499Y-94555624D01*
X128482812Y-94585428D01*
X128691016Y-94627513D01*
X128722438Y-94676281D01*
X128566401Y-94726138D01*
X128212230Y-94771485D01*
X128212162Y-94771492D01*
X127856671Y-94818618D01*
X127465254Y-94893523D01*
X127086299Y-94983541D01*
X126768192Y-95076004D01*
X126559320Y-95158246D01*
X126508069Y-95217601D01*
X126516128Y-95220367D01*
X126664194Y-95215565D01*
X126955224Y-95185249D01*
X127336731Y-95134670D01*
X127747280Y-95085999D01*
X128171314Y-95076568D01*
X128486462Y-95132646D01*
X128839391Y-95245414D01*
X128512821Y-95256085D01*
X128460943Y-95258762D01*
X128156013Y-95319019D01*
X127950659Y-95359599D01*
G37*
G36*
X176263747Y-95348048D02*
G01*
X176699606Y-95576624D01*
X177045340Y-95698273D01*
X177359761Y-95734962D01*
X177422773Y-95736163D01*
X177706004Y-95785424D01*
X177809534Y-95915356D01*
X177735432Y-96137945D01*
X177485764Y-96465176D01*
X177380644Y-96582621D01*
X177208084Y-96763427D01*
X177122930Y-96834657D01*
X176998689Y-96808546D01*
X176712238Y-96711642D01*
X176330363Y-96563734D01*
X175905239Y-96386693D01*
X175489039Y-96202390D01*
X175133936Y-96032697D01*
X174892103Y-95899485D01*
X174810185Y-95848114D01*
X174229389Y-95543780D01*
X173660978Y-95339514D01*
X173534664Y-95319019D01*
X175301531Y-95319019D01*
X175353794Y-95371282D01*
X175406058Y-95319019D01*
X175353794Y-95266755D01*
X175301531Y-95319019D01*
X173534664Y-95319019D01*
X173171722Y-95260130D01*
X173155777Y-95259805D01*
X172949066Y-95250845D01*
X172937144Y-95220799D01*
X173106469Y-95145976D01*
X173290765Y-95107060D01*
X173652975Y-95090168D01*
X174100887Y-95105531D01*
X174568035Y-95150454D01*
X174987951Y-95222244D01*
X175128072Y-95251728D01*
X175174450Y-95241277D01*
X175040278Y-95149638D01*
X174935339Y-95094888D01*
X174582003Y-94970252D01*
X174127287Y-94857560D01*
X173645511Y-94773643D01*
X173210996Y-94735335D01*
X173181170Y-94734463D01*
X172949519Y-94713821D01*
X172895576Y-94678720D01*
X172991666Y-94636749D01*
X173210117Y-94595495D01*
X173523256Y-94562545D01*
X173903410Y-94545487D01*
X174096305Y-94546273D01*
X174570235Y-94593131D01*
X175034238Y-94719704D01*
X175544740Y-94944526D01*
X176158166Y-95286132D01*
X176214246Y-95319019D01*
X176263747Y-95348048D01*
G37*
G36*
X166406065Y-76370730D02*
G01*
X166963026Y-76818602D01*
X167568979Y-77392681D01*
X168029305Y-77876039D01*
X168585972Y-78570627D01*
X169003572Y-79271833D01*
X169313208Y-80035087D01*
X169545982Y-80915813D01*
X169599673Y-81160284D01*
X169754671Y-81771744D01*
X169917963Y-82247727D01*
X170110520Y-82642655D01*
X170353314Y-83010953D01*
X170642135Y-83402969D01*
X170348318Y-83141653D01*
X170256696Y-83053015D01*
X170015344Y-82741580D01*
X169775450Y-82306525D01*
X169523275Y-81720643D01*
X169245082Y-80956728D01*
X169131636Y-80638458D01*
X168840277Y-79949241D01*
X168530734Y-79426164D01*
X168177655Y-79038796D01*
X167755688Y-78756707D01*
X167239479Y-78549468D01*
X167150364Y-78518838D01*
X166790874Y-78323658D01*
X166581595Y-78076864D01*
X166551795Y-77809931D01*
X166568263Y-77738096D01*
X166545017Y-77640253D01*
X166381963Y-77675836D01*
X166223589Y-77711106D01*
X165896614Y-77745303D01*
X165512967Y-77758525D01*
X165151988Y-77744702D01*
X164853945Y-77683191D01*
X164650622Y-77559403D01*
X164558229Y-77460877D01*
X164436094Y-77168293D01*
X164499322Y-76871501D01*
X164734652Y-76602809D01*
X165128822Y-76394520D01*
X165528280Y-76252063D01*
X165154725Y-76247475D01*
X165090581Y-76249695D01*
X164772103Y-76295259D01*
X164350899Y-76387713D01*
X163900404Y-76511592D01*
X163779265Y-76547060D01*
X162887537Y-76715586D01*
X162044910Y-76715969D01*
X161273782Y-76555188D01*
X160596550Y-76240222D01*
X160536353Y-76190624D01*
X165685070Y-76190624D01*
X165737333Y-76242887D01*
X165789597Y-76190624D01*
X165737333Y-76138360D01*
X165685070Y-76190624D01*
X160536353Y-76190624D01*
X160035610Y-75778050D01*
X159613359Y-75175652D01*
X159466561Y-74870710D01*
X159427759Y-74724660D01*
X159505038Y-74740690D01*
X159700914Y-74911202D01*
X159775994Y-74981429D01*
X160045264Y-75196683D01*
X160332798Y-75351110D01*
X160676611Y-75453406D01*
X161114715Y-75512266D01*
X161685123Y-75536383D01*
X162425851Y-75534453D01*
X162991333Y-75531346D01*
X163888252Y-75559522D01*
X164639191Y-75643459D01*
X165283142Y-75797247D01*
X165859102Y-76034974D01*
X166112663Y-76190624D01*
X166406065Y-76370730D01*
G37*
G36*
X141004111Y-76290767D02*
G01*
X140313095Y-76585623D01*
X139531163Y-76725365D01*
X138680712Y-76703014D01*
X137784139Y-76511592D01*
X137651224Y-76472317D01*
X137201775Y-76356183D01*
X136803495Y-76276082D01*
X136529818Y-76247475D01*
X136156263Y-76252063D01*
X136555721Y-76394520D01*
X136715788Y-76460847D01*
X137054038Y-76694712D01*
X137228651Y-76977297D01*
X137226366Y-77276296D01*
X137033921Y-77559403D01*
X136871008Y-77666551D01*
X136593785Y-77737873D01*
X136171576Y-77758525D01*
X135875764Y-77750577D01*
X135527808Y-77720551D01*
X135302580Y-77675836D01*
X135227183Y-77650530D01*
X135117863Y-77657357D01*
X135132748Y-77809931D01*
X135142535Y-77863296D01*
X135074454Y-78128852D01*
X134832325Y-78368549D01*
X134445064Y-78551218D01*
X134310392Y-78596793D01*
X133808902Y-78829967D01*
X133396465Y-79151675D01*
X133047977Y-79591969D01*
X132738332Y-80180903D01*
X132442425Y-80948528D01*
X132305570Y-81338797D01*
X132067912Y-81959739D01*
X131852686Y-82430646D01*
X131642885Y-82786744D01*
X131421504Y-83063257D01*
X131217433Y-83268639D01*
X131117018Y-83339270D01*
X131149447Y-83252459D01*
X131320134Y-83010994D01*
X131470906Y-82803469D01*
X131677058Y-82462554D01*
X131838404Y-82088618D01*
X131978178Y-81623479D01*
X132119615Y-81008957D01*
X132197788Y-80665045D01*
X132475663Y-79755612D01*
X132847951Y-78965787D01*
X133348266Y-78233091D01*
X134010224Y-77495045D01*
X134020439Y-77484731D01*
X134603828Y-76914508D01*
X135115766Y-76470010D01*
X135517091Y-76190624D01*
X135894946Y-76190624D01*
X135947210Y-76242887D01*
X135999473Y-76190624D01*
X135947210Y-76138360D01*
X135894946Y-76190624D01*
X135517091Y-76190624D01*
X135596241Y-76135523D01*
X136085240Y-75895336D01*
X136622750Y-75733735D01*
X137248759Y-75635008D01*
X138003254Y-75583441D01*
X138926222Y-75563322D01*
X138962190Y-75562975D01*
X139751927Y-75549218D01*
X140367156Y-75520771D01*
X140840962Y-75470578D01*
X141206429Y-75391580D01*
X141496640Y-75276723D01*
X141744679Y-75118949D01*
X141983630Y-74911202D01*
X142175796Y-74743292D01*
X142256235Y-74723002D01*
X142220526Y-74864588D01*
X142071184Y-75175652D01*
X142023809Y-75263633D01*
X141581815Y-75847777D01*
X141134708Y-76190624D01*
X141004111Y-76290767D01*
G37*
G36*
X172960368Y-95724956D02*
G01*
X173408251Y-95775656D01*
X173756171Y-95860797D01*
X174069946Y-95993169D01*
X174283418Y-96105946D01*
X174850591Y-96489456D01*
X175282808Y-96949560D01*
X175636525Y-97542077D01*
X175645700Y-97560734D01*
X175784092Y-97851669D01*
X175877972Y-98093533D01*
X175935970Y-98337950D01*
X175966714Y-98636544D01*
X175978833Y-99040939D01*
X175980955Y-99602759D01*
X175979630Y-100025422D01*
X175969727Y-100477232D01*
X175943876Y-100804812D01*
X175894824Y-101057780D01*
X175815323Y-101285757D01*
X175698121Y-101538360D01*
X175554866Y-101792311D01*
X175329233Y-102100740D01*
X175123223Y-102293398D01*
X175070197Y-102325155D01*
X174828775Y-102441967D01*
X174682041Y-102470968D01*
X174662564Y-102414171D01*
X174802915Y-102273590D01*
X174956235Y-102132021D01*
X175164695Y-101797688D01*
X175268678Y-101349346D01*
X175280587Y-100747360D01*
X175276680Y-100660452D01*
X175251675Y-100307727D01*
X175204550Y-100098228D01*
X175114775Y-99976567D01*
X174961819Y-99887353D01*
X174825292Y-99805899D01*
X174713990Y-99660429D01*
X174682273Y-99437238D01*
X174726456Y-99096402D01*
X174842856Y-98597991D01*
X174871717Y-98482266D01*
X174946620Y-98087865D01*
X174950849Y-97758848D01*
X174888342Y-97390701D01*
X174835180Y-97190950D01*
X174705762Y-96843576D01*
X174568778Y-96602681D01*
X174491530Y-96509979D01*
X174420218Y-96443001D01*
X174431473Y-96525922D01*
X174518705Y-96782393D01*
X174532227Y-96822090D01*
X174640047Y-97280419D01*
X174668487Y-97722506D01*
X174618603Y-98088876D01*
X174491449Y-98320055D01*
X174329844Y-98432858D01*
X173927453Y-98551676D01*
X173501174Y-98505606D01*
X173105641Y-98306101D01*
X172795487Y-97964609D01*
X172716576Y-97818760D01*
X172556335Y-97450787D01*
X172421290Y-97059027D01*
X172418238Y-97048663D01*
X172265992Y-96666335D01*
X172064580Y-96329570D01*
X171850840Y-96089796D01*
X171661609Y-95998443D01*
X171634170Y-96014366D01*
X171562841Y-96171629D01*
X171506521Y-96442681D01*
X171459052Y-96657353D01*
X171225206Y-97068133D01*
X170810193Y-97387381D01*
X170208251Y-97620324D01*
X170201081Y-97622295D01*
X169786417Y-97739168D01*
X169281771Y-97885371D01*
X168794741Y-98029739D01*
X168670149Y-98066323D01*
X168320451Y-98158098D01*
X168076389Y-98205344D01*
X167984658Y-98198344D01*
X167987670Y-98185342D01*
X168089123Y-98048034D01*
X168308088Y-97816962D01*
X168608428Y-97525559D01*
X168954011Y-97207261D01*
X169308700Y-96895502D01*
X169636360Y-96623717D01*
X169900858Y-96425340D01*
X170445141Y-96097629D01*
X171083041Y-95842699D01*
X171773572Y-95717628D01*
X172583835Y-95704386D01*
X172960368Y-95724956D01*
G37*
G36*
X129791158Y-95708465D02*
G01*
X130496332Y-95814438D01*
X131138142Y-96047386D01*
X131783685Y-96425340D01*
X131828605Y-96456688D01*
X132108258Y-96672006D01*
X132444027Y-96954212D01*
X132799776Y-97269871D01*
X133139371Y-97585548D01*
X133426678Y-97867809D01*
X133625561Y-98083219D01*
X133699885Y-98198344D01*
X133690251Y-98206991D01*
X133545489Y-98195852D01*
X133263108Y-98133529D01*
X132889802Y-98029739D01*
X132880210Y-98026854D01*
X132391661Y-97882118D01*
X131887822Y-97736219D01*
X131476292Y-97620324D01*
X131183663Y-97526498D01*
X130666018Y-97255610D01*
X130332725Y-96896080D01*
X130178022Y-96442681D01*
X130158816Y-96324994D01*
X130093669Y-96091331D01*
X130022934Y-95998443D01*
X130018512Y-95998514D01*
X129828147Y-96094501D01*
X129614257Y-96337535D01*
X129413680Y-96676187D01*
X129263253Y-97059027D01*
X129197455Y-97263381D01*
X129042975Y-97657058D01*
X128889057Y-97964609D01*
X128760874Y-98138147D01*
X128404774Y-98415932D01*
X127988355Y-98546478D01*
X127566251Y-98518336D01*
X127193095Y-98320055D01*
X127177173Y-98304940D01*
X127058432Y-98059380D01*
X127015181Y-97686304D01*
X127048751Y-97247541D01*
X127160473Y-96804920D01*
X127166029Y-96789315D01*
X127241891Y-96555303D01*
X127238385Y-96480288D01*
X127154830Y-96531146D01*
X127083284Y-96625864D01*
X126959325Y-96885452D01*
X126842702Y-97221772D01*
X126834383Y-97250514D01*
X126754746Y-97566019D01*
X126729716Y-97827091D01*
X126759364Y-98119123D01*
X126843757Y-98527504D01*
X126856951Y-98586188D01*
X126959358Y-99083192D01*
X127000647Y-99422407D01*
X126977309Y-99643235D01*
X126885837Y-99785082D01*
X126722724Y-99887353D01*
X126688167Y-99904219D01*
X126548668Y-99995308D01*
X126468488Y-100129268D01*
X126427094Y-100361489D01*
X126403956Y-100747360D01*
X126399402Y-101081118D01*
X126457504Y-101598491D01*
X126614111Y-101982770D01*
X126881628Y-102273590D01*
X126902800Y-102290520D01*
X127032891Y-102425919D01*
X127003119Y-102473586D01*
X126841829Y-102431340D01*
X126577366Y-102297001D01*
X126465164Y-102212151D01*
X126215439Y-101923245D01*
X125986342Y-101539182D01*
X125899302Y-101355611D01*
X125809512Y-101125182D01*
X125752295Y-100884332D01*
X125720403Y-100583413D01*
X125706584Y-100172772D01*
X125703588Y-99602759D01*
X125703591Y-99566505D01*
X125706042Y-99014794D01*
X125718970Y-98617638D01*
X125751003Y-98323412D01*
X125810770Y-98080493D01*
X125906899Y-97837256D01*
X126048018Y-97542077D01*
X126153356Y-97339640D01*
X126525504Y-96794425D01*
X126993766Y-96364207D01*
X127614597Y-95993169D01*
X127818339Y-95900979D01*
X128146865Y-95800807D01*
X128552381Y-95739539D01*
X129100708Y-95704386D01*
X129791158Y-95708465D01*
G37*
G36*
X150737745Y-104726426D02*
G01*
X150737495Y-106003646D01*
X150736695Y-107317770D01*
X150735385Y-108556719D01*
X150733609Y-109705618D01*
X150731406Y-110749592D01*
X150728821Y-111673765D01*
X150725894Y-112463262D01*
X150722668Y-113103207D01*
X150719184Y-113578725D01*
X150715485Y-113874941D01*
X150711613Y-113976978D01*
X150634348Y-113954827D01*
X150394052Y-113879726D01*
X150031481Y-113764048D01*
X149587951Y-113620886D01*
X149347651Y-113541932D01*
X147534933Y-112879343D01*
X145818574Y-112133268D01*
X144217241Y-111314782D01*
X142749600Y-110434959D01*
X141434318Y-109504875D01*
X140290061Y-108535603D01*
X139335496Y-107538218D01*
X139148088Y-107311249D01*
X138645430Y-106632321D01*
X138202602Y-105911496D01*
X137812796Y-105127888D01*
X137469204Y-104260611D01*
X137165016Y-103288778D01*
X136893425Y-102191504D01*
X136648551Y-100952597D01*
X141016757Y-100952597D01*
X141021108Y-100967969D01*
X141101323Y-101129003D01*
X141272442Y-101439063D01*
X141521088Y-101874878D01*
X141833884Y-102413178D01*
X142197454Y-103030693D01*
X142598422Y-103704153D01*
X142723157Y-103912421D01*
X143114331Y-104563901D01*
X143465688Y-105146600D01*
X143763770Y-105638370D01*
X143995121Y-106017059D01*
X144146283Y-106260516D01*
X144203798Y-106346591D01*
X144204179Y-106346242D01*
X144189792Y-106238064D01*
X144139981Y-105958376D01*
X144060691Y-105538674D01*
X143957865Y-105010456D01*
X143837447Y-104405219D01*
X143447384Y-102463847D01*
X143693177Y-102370397D01*
X143873479Y-102310364D01*
X144209048Y-102211677D01*
X144594530Y-102107395D01*
X144916476Y-102021390D01*
X145171324Y-101947670D01*
X145280097Y-101908438D01*
X145280743Y-101906880D01*
X145261835Y-101785404D01*
X145199293Y-101495594D01*
X145100417Y-101069009D01*
X144972507Y-100537206D01*
X144822861Y-99931742D01*
X144335619Y-97984451D01*
X142937505Y-97984451D01*
X142803343Y-97984812D01*
X142307891Y-97992908D01*
X141906862Y-98010043D01*
X141638461Y-98034070D01*
X141540893Y-98062846D01*
X141577535Y-98166497D01*
X141688909Y-98422911D01*
X141857004Y-98789285D01*
X142063527Y-99224946D01*
X142256395Y-99627557D01*
X142426779Y-99986472D01*
X142542192Y-100233397D01*
X142584658Y-100330206D01*
X142578310Y-100334937D01*
X142443099Y-100386918D01*
X142167981Y-100479909D01*
X141800708Y-100597620D01*
X141704959Y-100628463D01*
X141354782Y-100756973D01*
X141109303Y-100872298D01*
X141016757Y-100952597D01*
X136648551Y-100952597D01*
X136647623Y-100947903D01*
X136420802Y-99537090D01*
X136206153Y-97938178D01*
X136166985Y-97615153D01*
X136100685Y-97031709D01*
X136047561Y-96515983D01*
X136012271Y-96114498D01*
X135999473Y-95873774D01*
X135999473Y-95475809D01*
X143368609Y-95475809D01*
X150737745Y-95475809D01*
X150737745Y-101906880D01*
X150737745Y-104726426D01*
G37*
G36*
X126971864Y-83655428D02*
G01*
X127030755Y-83670618D01*
X127430860Y-83739806D01*
X127833651Y-83768230D01*
X128291286Y-83768813D01*
X128012349Y-84108525D01*
X127929239Y-84214414D01*
X127704945Y-84519418D01*
X127429580Y-84910132D01*
X127144786Y-85328021D01*
X126572350Y-86314023D01*
X126124947Y-87408128D01*
X125858824Y-88508202D01*
X125773761Y-89595521D01*
X125869539Y-90651361D01*
X126145939Y-91656998D01*
X126602743Y-92593706D01*
X127239730Y-93442762D01*
X127321031Y-93533503D01*
X127532317Y-93790161D01*
X127625142Y-93942447D01*
X127585070Y-93968391D01*
X127403473Y-93922465D01*
X127072180Y-93871013D01*
X126680321Y-93830718D01*
X125984625Y-93776702D01*
X125791843Y-93348407D01*
X125704670Y-93178911D01*
X125471196Y-92810829D01*
X125207086Y-92466912D01*
X125167091Y-92420443D01*
X124936830Y-92124830D01*
X124838506Y-91892125D01*
X124857300Y-91647846D01*
X124978394Y-91317513D01*
X125141676Y-90928895D01*
X125612631Y-91906112D01*
X125763820Y-92212215D01*
X125940337Y-92547796D01*
X126069853Y-92767769D01*
X126131726Y-92835189D01*
X126129286Y-92772030D01*
X126057147Y-92565766D01*
X125924304Y-92276079D01*
X125755192Y-91892325D01*
X125490491Y-90985572D01*
X125353575Y-89989223D01*
X125350076Y-88958814D01*
X125485625Y-87949883D01*
X125564750Y-87540846D01*
X125594243Y-87305460D01*
X125574195Y-87259590D01*
X125506979Y-87408299D01*
X125394971Y-87756651D01*
X125210876Y-88487577D01*
X125085303Y-89420003D01*
X125111473Y-90239416D01*
X125121366Y-90312108D01*
X125159082Y-90630131D01*
X125154720Y-90791441D01*
X125098579Y-90838834D01*
X124980955Y-90815108D01*
X124958581Y-90808284D01*
X124458822Y-90545345D01*
X124072049Y-90113134D01*
X123975175Y-89932774D01*
X123910749Y-89704499D01*
X123889375Y-89395721D01*
X123901808Y-88942887D01*
X123916943Y-88709377D01*
X124030660Y-88000856D01*
X124257837Y-87416978D01*
X124622234Y-86922765D01*
X125147609Y-86483241D01*
X125857721Y-86063428D01*
X126346955Y-85788874D01*
X126648904Y-85569300D01*
X126763046Y-85402626D01*
X126695097Y-85283527D01*
X126625238Y-85268419D01*
X126375388Y-85347695D01*
X125986896Y-85573861D01*
X125464174Y-85944548D01*
X125122964Y-86188014D01*
X124682184Y-86448076D01*
X124362426Y-86557258D01*
X124171683Y-86512051D01*
X124158563Y-86496149D01*
X124090323Y-86301842D01*
X124062518Y-86018322D01*
X124106388Y-85725258D01*
X124312075Y-85368087D01*
X124695395Y-85051636D01*
X125266583Y-84768078D01*
X126035876Y-84509588D01*
X126263086Y-84444470D01*
X126521221Y-84365336D01*
X126603396Y-84323153D01*
X126525799Y-84305229D01*
X126304617Y-84298871D01*
X126053766Y-84292032D01*
X125900809Y-84255842D01*
X125889585Y-84148820D01*
X125982825Y-83928015D01*
X125984537Y-83924284D01*
X126191734Y-83675702D01*
X126516826Y-83587191D01*
X126971864Y-83655428D01*
G37*
G36*
X175495783Y-83677608D02*
G01*
X175701718Y-83928015D01*
X175783714Y-84115777D01*
X175795952Y-84241761D01*
X175673779Y-84288475D01*
X175379926Y-84298871D01*
X175239442Y-84301754D01*
X175096599Y-84313019D01*
X175106396Y-84342951D01*
X175285023Y-84404243D01*
X175648667Y-84509588D01*
X176233864Y-84697477D01*
X176856539Y-84973632D01*
X177288633Y-85280607D01*
X177540383Y-85626228D01*
X177622025Y-86018322D01*
X177621235Y-86065330D01*
X177585449Y-86341513D01*
X177512861Y-86512051D01*
X177406326Y-86558923D01*
X177132252Y-86505109D01*
X176734269Y-86299147D01*
X176220370Y-85944548D01*
X175950726Y-85747123D01*
X175492462Y-85446133D01*
X175170564Y-85290811D01*
X174989446Y-85283527D01*
X174921275Y-85401135D01*
X175033472Y-85567282D01*
X175333416Y-85786271D01*
X175826823Y-86063428D01*
X176052924Y-86185061D01*
X176707077Y-86606985D01*
X177183377Y-87058753D01*
X177505580Y-87575341D01*
X177697447Y-88191727D01*
X177782735Y-88942887D01*
X177795251Y-89342407D01*
X177779171Y-89667541D01*
X177721333Y-89903266D01*
X177612494Y-90113134D01*
X177599588Y-90133325D01*
X177207286Y-90559570D01*
X176702001Y-90815612D01*
X176695716Y-90817473D01*
X176577401Y-90840114D01*
X176524906Y-90787648D01*
X176527915Y-90616402D01*
X176576110Y-90282705D01*
X176590651Y-90176283D01*
X176605560Y-89463351D01*
X176503478Y-88640175D01*
X176290055Y-87756651D01*
X176179887Y-87414212D01*
X176111434Y-87260907D01*
X176090219Y-87302410D01*
X176118596Y-87533731D01*
X176198919Y-87949883D01*
X176281086Y-88423565D01*
X176349797Y-89449637D01*
X176282139Y-90470772D01*
X176083742Y-91431432D01*
X175760239Y-92276079D01*
X175661131Y-92486412D01*
X175568576Y-92723128D01*
X175552100Y-92834471D01*
X175591038Y-92800119D01*
X175706150Y-92615861D01*
X175874197Y-92307064D01*
X176074302Y-91910660D01*
X176549082Y-90939427D01*
X176709257Y-91322779D01*
X176728361Y-91368882D01*
X176836188Y-91682956D01*
X176840340Y-91921161D01*
X176725776Y-92157734D01*
X176477457Y-92466912D01*
X176336483Y-92641896D01*
X176076580Y-93018722D01*
X175886685Y-93361747D01*
X175779747Y-93585290D01*
X175656843Y-93737461D01*
X175473334Y-93798345D01*
X175154997Y-93813800D01*
X174980637Y-93820941D01*
X174621102Y-93856119D01*
X174360790Y-93907908D01*
X174178088Y-93962811D01*
X174048516Y-93977910D01*
X174049363Y-93907678D01*
X174185165Y-93730048D01*
X174460457Y-93422956D01*
X174670466Y-93178530D01*
X175238635Y-92314058D01*
X175634552Y-91353242D01*
X175854993Y-90317491D01*
X175896736Y-89228214D01*
X175756557Y-88106819D01*
X175431233Y-86974715D01*
X175342900Y-86756414D01*
X175044026Y-86149894D01*
X174654826Y-85481684D01*
X174213588Y-84814998D01*
X173758599Y-84213052D01*
X173394866Y-83768813D01*
X173851697Y-83768230D01*
X173916409Y-83767146D01*
X174331532Y-83729647D01*
X174712679Y-83655428D01*
X174718583Y-83653796D01*
X175172088Y-83587309D01*
X175495783Y-83677608D01*
G37*
G36*
X156292221Y-72885214D02*
G01*
X156321591Y-72999477D01*
X156227010Y-73208496D01*
X156178005Y-73335780D01*
X156101871Y-73533531D01*
X156100732Y-73927817D01*
X156284920Y-74349092D01*
X156320928Y-74408452D01*
X156425967Y-74598183D01*
X156421378Y-74658084D01*
X156310661Y-74625807D01*
X156308373Y-74624881D01*
X155206897Y-74244522D01*
X153925915Y-73920102D01*
X153447316Y-73830929D01*
X152314958Y-73708130D01*
X151096913Y-73678339D01*
X149849398Y-73737817D01*
X148628631Y-73882825D01*
X147490829Y-74109624D01*
X146492208Y-74414476D01*
X146477609Y-74419963D01*
X146148277Y-74538799D01*
X145914119Y-74614174D01*
X145824988Y-74629986D01*
X145825205Y-74627688D01*
X145873624Y-74510950D01*
X145981134Y-74294959D01*
X146073305Y-74082453D01*
X146124325Y-73651820D01*
X146035058Y-73378525D01*
X146600528Y-73378525D01*
X146672197Y-73590704D01*
X146805357Y-73697789D01*
X147006026Y-73717248D01*
X147146036Y-73577455D01*
X147162494Y-73478038D01*
X155036144Y-73478038D01*
X155143715Y-73641724D01*
X155222586Y-73688114D01*
X155387568Y-73717100D01*
X155544871Y-73578786D01*
X155565603Y-73551771D01*
X155628449Y-73335780D01*
X155532147Y-73170688D01*
X155312325Y-73125885D01*
X155237975Y-73145524D01*
X155076701Y-73284684D01*
X155036144Y-73478038D01*
X147162494Y-73478038D01*
X147175342Y-73400431D01*
X147089443Y-73192022D01*
X146884719Y-73107085D01*
X146684142Y-73188861D01*
X146600528Y-73378525D01*
X146035058Y-73378525D01*
X145978416Y-73205111D01*
X145953754Y-73157790D01*
X145892917Y-73026559D01*
X145892457Y-73007697D01*
X148250403Y-73007697D01*
X148393359Y-73256409D01*
X148529555Y-73374170D01*
X148673445Y-73400431D01*
X148690540Y-73403551D01*
X148903962Y-73280138D01*
X149032744Y-73102103D01*
X149040731Y-72867237D01*
X148957622Y-72719395D01*
X150659536Y-72719395D01*
X150664790Y-72867237D01*
X150670002Y-73013872D01*
X150865529Y-73257948D01*
X151036266Y-73366996D01*
X151155852Y-73420665D01*
X151254991Y-73378456D01*
X151446174Y-73257948D01*
X151455443Y-73251320D01*
X151577174Y-73090783D01*
X153188949Y-73090783D01*
X153329890Y-73281363D01*
X153573833Y-73355055D01*
X153831839Y-73269082D01*
X153950882Y-73102678D01*
X153953822Y-72869140D01*
X153836250Y-72669215D01*
X153623038Y-72584451D01*
X153369951Y-72647389D01*
X153310252Y-72712319D01*
X153198459Y-72833907D01*
X153188949Y-73090783D01*
X151577174Y-73090783D01*
X151642107Y-73005150D01*
X151653934Y-72712319D01*
X151487333Y-72443861D01*
X151323219Y-72326761D01*
X151058496Y-72290564D01*
X150806209Y-72462023D01*
X150659536Y-72719395D01*
X148957622Y-72719395D01*
X148928914Y-72668327D01*
X148718387Y-72584451D01*
X148487360Y-72623997D01*
X148289900Y-72780015D01*
X148250403Y-73007697D01*
X145892457Y-73007697D01*
X145890538Y-72929062D01*
X145974881Y-72846228D01*
X146174206Y-72758991D01*
X146516777Y-72648281D01*
X147030854Y-72495030D01*
X147381982Y-72397736D01*
X148592410Y-72151283D01*
X149887183Y-72006563D01*
X151221098Y-71962239D01*
X152548951Y-72016969D01*
X153825536Y-72169416D01*
X155005650Y-72418239D01*
X156044088Y-72762099D01*
X156107110Y-72788133D01*
X156261572Y-72869140D01*
X156292221Y-72885214D01*
G37*
G36*
X161996804Y-88840479D02*
G01*
X161836325Y-89348325D01*
X161510853Y-89784151D01*
X161033630Y-90107612D01*
X160915784Y-90154816D01*
X160409274Y-90221123D01*
X159856497Y-90098692D01*
X159282094Y-89791963D01*
X158936345Y-89584854D01*
X158432308Y-89418278D01*
X157966292Y-89448290D01*
X157521310Y-89673749D01*
X157415675Y-89748965D01*
X156801838Y-90088160D01*
X156237230Y-90224278D01*
X155722015Y-90157333D01*
X155256357Y-89887342D01*
X154840420Y-89414320D01*
X154746685Y-89230391D01*
X155990183Y-89230391D01*
X156094944Y-89351985D01*
X156283766Y-89392297D01*
X156436505Y-89305411D01*
X156457652Y-89242577D01*
X156401013Y-89076690D01*
X156353444Y-89042022D01*
X156178959Y-89020728D01*
X156027078Y-89095038D01*
X155990183Y-89230391D01*
X154746685Y-89230391D01*
X154700308Y-89139390D01*
X154617741Y-88648004D01*
X154636378Y-88533590D01*
X155472139Y-88533590D01*
X155476552Y-88726808D01*
X155521434Y-88806731D01*
X155650502Y-88890624D01*
X155658654Y-88890381D01*
X155789286Y-88799693D01*
X155835225Y-88616484D01*
X155803245Y-88533590D01*
X156621933Y-88533590D01*
X156623826Y-88616484D01*
X156626346Y-88726808D01*
X156671228Y-88806731D01*
X156800296Y-88890624D01*
X156808448Y-88890381D01*
X156939080Y-88799693D01*
X156983641Y-88621981D01*
X159637541Y-88621981D01*
X159675754Y-88737817D01*
X159886449Y-88786097D01*
X159962791Y-88789799D01*
X160128314Y-88870019D01*
X160213095Y-89099677D01*
X160214043Y-89104346D01*
X160266387Y-89242577D01*
X160296720Y-89322679D01*
X160406469Y-89413257D01*
X160408421Y-89413223D01*
X160518119Y-89319597D01*
X160599844Y-89099677D01*
X160620924Y-89009853D01*
X160723962Y-88832254D01*
X160926490Y-88786097D01*
X161076093Y-88766984D01*
X161180746Y-88672219D01*
X161115751Y-88536504D01*
X160885739Y-88403345D01*
X160674108Y-88276065D01*
X160546028Y-88062708D01*
X160503094Y-87925617D01*
X160406469Y-87837075D01*
X160335705Y-87883808D01*
X160270295Y-88053907D01*
X160266911Y-88062708D01*
X160175489Y-88239307D01*
X159927199Y-88403345D01*
X159767177Y-88482092D01*
X159642635Y-88616484D01*
X159637541Y-88621981D01*
X156983641Y-88621981D01*
X156985019Y-88616484D01*
X156918702Y-88444585D01*
X156875660Y-88411162D01*
X156725886Y-88408248D01*
X156621933Y-88533590D01*
X155803245Y-88533590D01*
X155768908Y-88444585D01*
X155725865Y-88411162D01*
X155576092Y-88408248D01*
X155472139Y-88533590D01*
X154636378Y-88533590D01*
X154698153Y-88154358D01*
X156013516Y-88154358D01*
X156082810Y-88222358D01*
X156276712Y-88254777D01*
X156440652Y-88148906D01*
X156453314Y-88053907D01*
X156359447Y-87882343D01*
X156328458Y-87852190D01*
X156201314Y-87784417D01*
X156076763Y-87887795D01*
X156015529Y-87993987D01*
X156013516Y-88154358D01*
X154698153Y-88154358D01*
X154700653Y-88139010D01*
X154937781Y-87662973D01*
X155317865Y-87270459D01*
X155415007Y-87206970D01*
X155536018Y-87156088D01*
X155705151Y-87117523D01*
X155949229Y-87089067D01*
X156295071Y-87068511D01*
X156769501Y-87053645D01*
X157399339Y-87042260D01*
X158211407Y-87032148D01*
X159075433Y-87024674D01*
X159791419Y-87027319D01*
X160348630Y-87046009D01*
X160772641Y-87086259D01*
X161089023Y-87153586D01*
X161323350Y-87253505D01*
X161501195Y-87391532D01*
X161648130Y-87573183D01*
X161789729Y-87803974D01*
X161979047Y-88300959D01*
X161991266Y-88672219D01*
X161996804Y-88840479D01*
G37*
G36*
X152358033Y-70475354D02*
G01*
X152646687Y-70911540D01*
X152883425Y-70699666D01*
X153356140Y-70699666D01*
X153395700Y-70687994D01*
X153531222Y-70585377D01*
X153670446Y-70510049D01*
X153922326Y-70467784D01*
X154098507Y-70437916D01*
X154158818Y-70356725D01*
X154071884Y-70235425D01*
X153878133Y-70242162D01*
X153597598Y-70433472D01*
X153537379Y-70487580D01*
X153387775Y-70637735D01*
X153356140Y-70699666D01*
X152883425Y-70699666D01*
X153025996Y-70572069D01*
X153225540Y-70406390D01*
X153551980Y-70175624D01*
X153863334Y-69994201D01*
X154110543Y-69889607D01*
X154244547Y-69889332D01*
X154265615Y-69923042D01*
X154335929Y-70117734D01*
X154398128Y-70356725D01*
X154411312Y-70407382D01*
X154435203Y-70504916D01*
X154544401Y-70841088D01*
X154662620Y-71090159D01*
X154812836Y-71320559D01*
X155111980Y-71184776D01*
X155650502Y-71184776D01*
X155656210Y-71197027D01*
X155778893Y-71225542D01*
X155991743Y-71222137D01*
X156201881Y-71192651D01*
X156316425Y-71142921D01*
X156320044Y-71131203D01*
X156231320Y-71095018D01*
X156009014Y-71102094D01*
X155966749Y-71107312D01*
X155742079Y-71146903D01*
X155650502Y-71184776D01*
X155111980Y-71184776D01*
X155257801Y-71118587D01*
X155705947Y-70978380D01*
X156382189Y-70914709D01*
X157061613Y-70912804D01*
X156712302Y-71125768D01*
X156706195Y-71131203D01*
X156418197Y-71387514D01*
X156189668Y-71751475D01*
X156142572Y-71859291D01*
X156032488Y-72077415D01*
X155964082Y-72164149D01*
X155906605Y-72152480D01*
X155693545Y-72094342D01*
X155389185Y-72003819D01*
X154325839Y-71742079D01*
X153116128Y-71559996D01*
X151835448Y-71465022D01*
X150535878Y-71457422D01*
X149269499Y-71537458D01*
X148088390Y-71705396D01*
X147044631Y-71961500D01*
X146770092Y-72045657D01*
X146439524Y-72132803D01*
X146248203Y-72150493D01*
X146159946Y-72099488D01*
X146138568Y-71980548D01*
X146057715Y-71702901D01*
X145821904Y-71387537D01*
X145492744Y-71121076D01*
X145877251Y-71121076D01*
X145898646Y-71149623D01*
X146040210Y-71225603D01*
X146063546Y-71222611D01*
X146099951Y-71173340D01*
X146452148Y-71173340D01*
X146504411Y-71225603D01*
X146556675Y-71173340D01*
X146504411Y-71121076D01*
X146452148Y-71173340D01*
X146099951Y-71173340D01*
X146138568Y-71121076D01*
X146118624Y-71071123D01*
X145975609Y-71016550D01*
X145900947Y-71031591D01*
X145877251Y-71121076D01*
X145492744Y-71121076D01*
X145473076Y-71105154D01*
X145145564Y-70898088D01*
X145929514Y-70934004D01*
X146270126Y-70961059D01*
X146736885Y-71039611D01*
X147070145Y-71150478D01*
X147116225Y-71173340D01*
X147138316Y-71184300D01*
X147351828Y-71279464D01*
X147448827Y-71304451D01*
X147517162Y-71197619D01*
X147649189Y-70910866D01*
X147773301Y-70567389D01*
X147795307Y-70483248D01*
X148021626Y-70483248D01*
X148051838Y-70569800D01*
X148175097Y-70495362D01*
X148270183Y-70439946D01*
X148436630Y-70451891D01*
X148697731Y-70583565D01*
X148817614Y-70652420D01*
X149012534Y-70747331D01*
X149043988Y-70729191D01*
X148914995Y-70606537D01*
X148628571Y-70387903D01*
X148446361Y-70266454D01*
X148202809Y-70169951D01*
X148066250Y-70240562D01*
X148021650Y-70480583D01*
X148021626Y-70483248D01*
X147795307Y-70483248D01*
X147854026Y-70258731D01*
X147868901Y-70186508D01*
X147946008Y-69958606D01*
X148029977Y-69866755D01*
X148169713Y-69897680D01*
X148466632Y-70042372D01*
X148819136Y-70274346D01*
X149170363Y-70559084D01*
X149358651Y-70729191D01*
X149576501Y-70926005D01*
X149833873Y-70518302D01*
X149913749Y-70399023D01*
X150028294Y-70256969D01*
X150359974Y-70256969D01*
X150471616Y-70248336D01*
X150737745Y-70119365D01*
X150842013Y-70066469D01*
X151223443Y-69979194D01*
X151606962Y-70082530D01*
X151689906Y-70112958D01*
X151671482Y-70053724D01*
X151490213Y-69870169D01*
X151145150Y-69546560D01*
X150853769Y-69754042D01*
X150851381Y-69755744D01*
X150607420Y-69949062D01*
X150428214Y-70123193D01*
X150410505Y-70145168D01*
X150359974Y-70256969D01*
X150028294Y-70256969D01*
X150191624Y-70054415D01*
X150503892Y-69742692D01*
X150810448Y-69497333D01*
X151071185Y-69351812D01*
X151245997Y-69339606D01*
X151363400Y-69414339D01*
X151700790Y-69699335D01*
X152053474Y-70074598D01*
X152082626Y-70112958D01*
X152358033Y-70475354D01*
G37*
G36*
X165821814Y-88908198D02*
G01*
X165787003Y-90085221D01*
X165747631Y-91203143D01*
X165704793Y-92236973D01*
X165659584Y-93161722D01*
X165613100Y-93952397D01*
X165566437Y-94584011D01*
X165520688Y-95031570D01*
X165463207Y-95475809D01*
X158100476Y-95475809D01*
X150737745Y-95475809D01*
X150737745Y-88850405D01*
X153269856Y-88850405D01*
X153439135Y-89250376D01*
X153777928Y-89558682D01*
X153896923Y-89633633D01*
X154001702Y-89738311D01*
X154057110Y-89895078D01*
X154078844Y-90156253D01*
X154082601Y-90574152D01*
X154089020Y-90900199D01*
X154145030Y-91408431D01*
X154270630Y-91760910D01*
X154480251Y-91989360D01*
X154788324Y-92125503D01*
X154929960Y-92144799D01*
X155265840Y-92165519D01*
X155751865Y-92183297D01*
X156355843Y-92197965D01*
X157045582Y-92209353D01*
X157788891Y-92217295D01*
X158553577Y-92221619D01*
X159307450Y-92222159D01*
X160018316Y-92218745D01*
X160653984Y-92211209D01*
X161182262Y-92199382D01*
X161570958Y-92183095D01*
X161787881Y-92162179D01*
X161823495Y-92152612D01*
X162052985Y-92020478D01*
X162284383Y-91802550D01*
X162338085Y-91736611D01*
X162450351Y-91560855D01*
X162514137Y-91354695D01*
X162542693Y-91058641D01*
X162549267Y-90613205D01*
X162551630Y-90224092D01*
X162568646Y-89938064D01*
X162614950Y-89765576D01*
X162705172Y-89655993D01*
X162853941Y-89558682D01*
X163168205Y-89283605D01*
X163353642Y-88890396D01*
X163361589Y-88443635D01*
X163183249Y-87985348D01*
X163161604Y-87951255D01*
X162967372Y-87719793D01*
X162778226Y-87590357D01*
X162764836Y-87585819D01*
X162644147Y-87494058D01*
X162570945Y-87294319D01*
X162525761Y-86936153D01*
X162524619Y-86922550D01*
X162471653Y-86546005D01*
X162371587Y-86298531D01*
X162193658Y-86102954D01*
X162123925Y-86045634D01*
X161987106Y-85960305D01*
X161814773Y-85905862D01*
X161563549Y-85875455D01*
X161190055Y-85862233D01*
X160650915Y-85859348D01*
X160289307Y-85858498D01*
X159861773Y-85850433D01*
X159571254Y-85827693D01*
X159373654Y-85782939D01*
X159224875Y-85708831D01*
X159080822Y-85598031D01*
X159029404Y-85556367D01*
X158793507Y-85400001D01*
X158621495Y-85336714D01*
X158564533Y-85315447D01*
X158509439Y-85193202D01*
X158480881Y-84931692D01*
X158472724Y-84496268D01*
X158478757Y-84120776D01*
X158510057Y-83785717D01*
X158578940Y-83549784D01*
X158697387Y-83351949D01*
X158718116Y-83323812D01*
X158847090Y-83120786D01*
X158853955Y-82972487D01*
X158747241Y-82781284D01*
X158669381Y-82681957D01*
X158407321Y-82526422D01*
X158127813Y-82559531D01*
X157884628Y-82781284D01*
X157868516Y-82806001D01*
X157773197Y-82988208D01*
X157792342Y-83137646D01*
X157934481Y-83351949D01*
X158032674Y-83507330D01*
X158110923Y-83730259D01*
X158149086Y-84039562D01*
X158159144Y-84496268D01*
X158155379Y-84818061D01*
X158133740Y-85129302D01*
X158087450Y-85290636D01*
X158010374Y-85336714D01*
X157982682Y-85340056D01*
X157789147Y-85428000D01*
X157551046Y-85598031D01*
X157452886Y-85676707D01*
X157311382Y-85761699D01*
X157135787Y-85815244D01*
X156882363Y-85844557D01*
X156507374Y-85856853D01*
X155967084Y-85859348D01*
X155956314Y-85859348D01*
X155424643Y-85860915D01*
X155058351Y-85871145D01*
X154814496Y-85898347D01*
X154650137Y-85950832D01*
X154522332Y-86036909D01*
X154388141Y-86164888D01*
X154196598Y-86393532D01*
X154105141Y-86639105D01*
X154082601Y-86994058D01*
X154082397Y-87048397D01*
X154063451Y-87349685D01*
X153998560Y-87509472D01*
X153866335Y-87586328D01*
X153844228Y-87594618D01*
X153640818Y-87745053D01*
X153448619Y-87985348D01*
X153278886Y-88400795D01*
X153269856Y-88850405D01*
X150737745Y-88850405D01*
X150737745Y-86277455D01*
X150737745Y-77079101D01*
X151809144Y-77079458D01*
X153021942Y-77114966D01*
X154525785Y-77243983D01*
X156026744Y-77458062D01*
X157458626Y-77747452D01*
X158755236Y-78102407D01*
X159670194Y-78393887D01*
X159945699Y-79140259D01*
X160130311Y-79609147D01*
X160407087Y-80183044D01*
X160735076Y-80698343D01*
X161153991Y-81214970D01*
X161703543Y-81792850D01*
X162036403Y-82116533D01*
X162497153Y-82518358D01*
X162927673Y-82823573D01*
X163385481Y-83076061D01*
X163895993Y-83307186D01*
X164554954Y-83550805D01*
X165148735Y-83709803D01*
X165623586Y-83767572D01*
X165927945Y-83768813D01*
X165858630Y-87321485D01*
X165850969Y-87697064D01*
X165832997Y-88443635D01*
X165821814Y-88908198D01*
G37*
G36*
X148597846Y-87732940D02*
G01*
X148567481Y-88067086D01*
X148543825Y-88570142D01*
X148540601Y-89055312D01*
X148540733Y-89062051D01*
X148506330Y-89720520D01*
X148380037Y-90233626D01*
X148375681Y-90244288D01*
X148212539Y-90527521D01*
X147968142Y-90834345D01*
X147691297Y-91115050D01*
X147430815Y-91319927D01*
X147235505Y-91399266D01*
X147220774Y-91400934D01*
X147062640Y-91490350D01*
X146862344Y-91674054D01*
X146593227Y-91901778D01*
X146549149Y-91939076D01*
X146007178Y-92166467D01*
X145346406Y-92222632D01*
X145120632Y-92219284D01*
X144846406Y-92234678D01*
X144710484Y-92269874D01*
X144534172Y-92341726D01*
X144240757Y-92319426D01*
X143912711Y-92209868D01*
X143617845Y-92036599D01*
X143423971Y-91823163D01*
X143398397Y-91702709D01*
X143372146Y-91391012D01*
X143350757Y-90925480D01*
X143334207Y-90336218D01*
X143328527Y-90005629D01*
X143851125Y-90005629D01*
X143861794Y-90525132D01*
X143867982Y-90765516D01*
X143884815Y-91213236D01*
X143910117Y-91505109D01*
X143951038Y-91678736D01*
X144014728Y-91771719D01*
X144108336Y-91821656D01*
X144325430Y-91901778D01*
X144119566Y-91485691D01*
X144111239Y-91468834D01*
X144004643Y-91230301D01*
X143966595Y-91035521D01*
X143994408Y-90803204D01*
X144085395Y-90452062D01*
X144116373Y-90338542D01*
X144227224Y-89855187D01*
X144252751Y-89537017D01*
X144192174Y-89362156D01*
X144044716Y-89308731D01*
X143982658Y-89312387D01*
X143913047Y-89348446D01*
X143871453Y-89452518D01*
X143852579Y-89659835D01*
X143851125Y-90005629D01*
X143328527Y-90005629D01*
X143322474Y-89653329D01*
X143315533Y-88906918D01*
X143313362Y-88127090D01*
X143315938Y-87343949D01*
X143323238Y-86587600D01*
X143324972Y-86486509D01*
X143838979Y-86486509D01*
X143868774Y-86613237D01*
X144016868Y-86691151D01*
X144258805Y-86628049D01*
X144560507Y-86426754D01*
X144596640Y-86397220D01*
X144851987Y-86246235D01*
X145027828Y-86246108D01*
X145093300Y-86398477D01*
X145086666Y-86427039D01*
X144979794Y-86588461D01*
X144783787Y-86796290D01*
X144474273Y-87085419D01*
X144679260Y-87487489D01*
X144709798Y-87549578D01*
X144856093Y-87980795D01*
X144861670Y-88336703D01*
X144724931Y-88579140D01*
X144624594Y-88649244D01*
X144520881Y-88645852D01*
X144455770Y-88487864D01*
X144409327Y-88148053D01*
X144338891Y-87817709D01*
X144101671Y-87433375D01*
X143838979Y-87170684D01*
X143838979Y-87970284D01*
X143838979Y-88769884D01*
X144189423Y-88885541D01*
X144306865Y-88929488D01*
X144559556Y-89097286D01*
X144680330Y-89347924D01*
X144678272Y-89714112D01*
X144562468Y-90228559D01*
X144458574Y-90673903D01*
X144434885Y-91100726D01*
X144534651Y-91400368D01*
X144761625Y-91598635D01*
X144812361Y-91623934D01*
X145237180Y-91744871D01*
X145703977Y-91762036D01*
X146104547Y-91669704D01*
X146469690Y-91419406D01*
X146714524Y-91021719D01*
X146791631Y-90504354D01*
X146793863Y-90376938D01*
X146829535Y-90110427D01*
X146895562Y-89972514D01*
X146992096Y-89962233D01*
X147133214Y-90084605D01*
X147244552Y-90318979D01*
X147291190Y-90609162D01*
X147294019Y-90928895D01*
X147650716Y-90545349D01*
X147953298Y-90111108D01*
X148101311Y-89571213D01*
X148053826Y-88960943D01*
X148011196Y-88541576D01*
X148103933Y-88077121D01*
X148134589Y-87973611D01*
X148189589Y-87461051D01*
X148091244Y-86998385D01*
X147860387Y-86622382D01*
X147517847Y-86369815D01*
X147084455Y-86277455D01*
X147004600Y-86279844D01*
X146640195Y-86382241D01*
X146420911Y-86635038D01*
X146347621Y-87037336D01*
X146346723Y-87083972D01*
X146307206Y-87343945D01*
X146227237Y-87489313D01*
X146086387Y-87495575D01*
X145954464Y-87353698D01*
X145873960Y-87112841D01*
X145875407Y-86830209D01*
X145880858Y-86799006D01*
X145874299Y-86508726D01*
X145718117Y-86275111D01*
X145592673Y-86103659D01*
X145531207Y-85774621D01*
X145567151Y-85635562D01*
X145687266Y-85505651D01*
X145823376Y-85530563D01*
X145909494Y-85719852D01*
X145955050Y-85863321D01*
X146079403Y-85999026D01*
X146206561Y-85996480D01*
X146469922Y-85944724D01*
X146787190Y-85860627D01*
X147082519Y-85764541D01*
X147280064Y-85676822D01*
X147283553Y-85671732D01*
X147230814Y-85569169D01*
X147078921Y-85388566D01*
X146865567Y-85219836D01*
X146483604Y-85127661D01*
X146345976Y-85121610D01*
X146145287Y-85045652D01*
X146024491Y-84840212D01*
X145821799Y-84464174D01*
X145506974Y-84181688D01*
X145131021Y-84082393D01*
X145124992Y-84082408D01*
X144837793Y-84137720D01*
X144665969Y-84315732D01*
X144598292Y-84639689D01*
X144608820Y-84845411D01*
X144623530Y-85132834D01*
X144652732Y-85429008D01*
X144646431Y-85672305D01*
X144577088Y-85841791D01*
X144428318Y-86011199D01*
X144400541Y-86038148D01*
X144178466Y-86208018D01*
X144000521Y-86277455D01*
X143906495Y-86314496D01*
X143838979Y-86486509D01*
X143324972Y-86486509D01*
X143335238Y-85888146D01*
X143351915Y-85275692D01*
X143357389Y-85148566D01*
X143838979Y-85148566D01*
X143850469Y-85498505D01*
X143900679Y-85780089D01*
X143990650Y-85856903D01*
X144120259Y-85728690D01*
X144134673Y-85695207D01*
X144169952Y-85494539D01*
X144193424Y-85190492D01*
X144203993Y-84845411D01*
X144200564Y-84521637D01*
X144182043Y-84281514D01*
X144147333Y-84187386D01*
X144116742Y-84189850D01*
X143964136Y-84320014D01*
X143870695Y-84642247D01*
X143838979Y-85148566D01*
X143357389Y-85148566D01*
X143373246Y-84780343D01*
X143399209Y-84432203D01*
X143429779Y-84261377D01*
X143460248Y-84201148D01*
X143748975Y-83896150D01*
X144207967Y-83704109D01*
X144830444Y-83628088D01*
X145153511Y-83634901D01*
X145614465Y-83734761D01*
X145976179Y-83971679D01*
X146295358Y-84374551D01*
X146490806Y-84600444D01*
X146750049Y-84705527D01*
X146864056Y-84727433D01*
X147140114Y-84883195D01*
X147413645Y-85135780D01*
X147622986Y-85422355D01*
X147706469Y-85680084D01*
X147752613Y-85873094D01*
X147966441Y-86110172D01*
X148035615Y-86164042D01*
X148254480Y-86408995D01*
X148448243Y-86715333D01*
X148451966Y-86722649D01*
X148583021Y-87035850D01*
X148626420Y-87337060D01*
X148617471Y-87461051D01*
X148597846Y-87732940D01*
G37*
G36*
X174569647Y-86022944D02*
G01*
X174971977Y-86865414D01*
X175240503Y-87704933D01*
X175389532Y-88577167D01*
X175433373Y-89517784D01*
X175410809Y-90077333D01*
X175244453Y-91084979D01*
X174908479Y-91985735D01*
X174393441Y-92801473D01*
X173689891Y-93554064D01*
X173602429Y-93632905D01*
X173325203Y-93872855D01*
X173123165Y-94032420D01*
X173035094Y-94080429D01*
X173050177Y-93993326D01*
X173134447Y-93765180D01*
X173270240Y-93451659D01*
X173321292Y-93335350D01*
X173459668Y-92929364D01*
X173547392Y-92467286D01*
X173600370Y-91873061D01*
X173615151Y-91557604D01*
X173607548Y-90986788D01*
X173535884Y-90474730D01*
X173385994Y-89941891D01*
X173143713Y-89308731D01*
X173001833Y-88984575D01*
X172925371Y-88854205D01*
X172915385Y-88914954D01*
X172972482Y-89163072D01*
X173097271Y-89594810D01*
X173166103Y-89834082D01*
X173289116Y-90352683D01*
X173363955Y-90810424D01*
X173384245Y-91161616D01*
X173343613Y-91360571D01*
X173304973Y-91374315D01*
X173154522Y-91290728D01*
X172931822Y-91090927D01*
X172668481Y-90811398D01*
X172396104Y-90488628D01*
X172146298Y-90159105D01*
X171950671Y-89859315D01*
X171840828Y-89625745D01*
X171800649Y-89472778D01*
X171785182Y-89251937D01*
X171846511Y-89008526D01*
X171997621Y-88662802D01*
X172012184Y-88629307D01*
X172792889Y-88629307D01*
X172845152Y-88681570D01*
X172897416Y-88629307D01*
X172845152Y-88577044D01*
X172792889Y-88629307D01*
X172012184Y-88629307D01*
X172113976Y-88395186D01*
X172226680Y-88075212D01*
X172270255Y-87861402D01*
X172281655Y-87773284D01*
X172412259Y-87648611D01*
X172682486Y-87669362D01*
X173084502Y-87835783D01*
X173618658Y-88195944D01*
X173973590Y-88629307D01*
X174010388Y-88674236D01*
X174216039Y-89244107D01*
X174233702Y-89900084D01*
X174061469Y-90636694D01*
X173996343Y-90841672D01*
X173953459Y-91061142D01*
X173992224Y-91098446D01*
X174100176Y-90954083D01*
X174264852Y-90628551D01*
X174304444Y-90534645D01*
X174448814Y-89920496D01*
X174443577Y-89259225D01*
X174295728Y-88621472D01*
X174012263Y-88077881D01*
X173852033Y-87876626D01*
X173408902Y-87480178D01*
X172919414Y-87276509D01*
X172359509Y-87258757D01*
X171705126Y-87420064D01*
X171412394Y-87513225D01*
X171060580Y-87601834D01*
X170816649Y-87635912D01*
X170683141Y-87625864D01*
X170273269Y-87468388D01*
X169917234Y-87144915D01*
X169643737Y-86687829D01*
X169518998Y-86258601D01*
X170441037Y-86258601D01*
X170932143Y-86268028D01*
X170963258Y-86269064D01*
X171323320Y-86313500D01*
X171778744Y-86408370D01*
X172238728Y-86535114D01*
X172263687Y-86543075D01*
X172739500Y-86717425D01*
X173210026Y-86924775D01*
X173576839Y-87121962D01*
X173845225Y-87288280D01*
X173977603Y-87357797D01*
X173974169Y-87322644D01*
X173855197Y-87187600D01*
X173483959Y-86876349D01*
X172970382Y-86582987D01*
X172388080Y-86344644D01*
X171794574Y-86180794D01*
X171247382Y-86110915D01*
X170804025Y-86154481D01*
X170441037Y-86258601D01*
X169518998Y-86258601D01*
X169481484Y-86129515D01*
X169461969Y-85903090D01*
X169537956Y-85766066D01*
X169765837Y-85664485D01*
X170011685Y-85598217D01*
X170654245Y-85557036D01*
X171377181Y-85660044D01*
X172144584Y-85894726D01*
X172920545Y-86248568D01*
X173669157Y-86709056D01*
X174354511Y-87263675D01*
X174457415Y-87357797D01*
X174561282Y-87452800D01*
X174734104Y-87595860D01*
X174776688Y-87599514D01*
X174698549Y-87469452D01*
X174645306Y-87395891D01*
X174234942Y-86940517D01*
X173681713Y-86461397D01*
X173031396Y-85998910D01*
X172880210Y-85899371D01*
X172429560Y-85575129D01*
X172070641Y-85274499D01*
X171833360Y-85024221D01*
X171747621Y-84851033D01*
X171771478Y-84770279D01*
X171914131Y-84626758D01*
X171975382Y-84558775D01*
X171941951Y-84444691D01*
X171791294Y-84254635D01*
X171504050Y-83956983D01*
X171478276Y-83931082D01*
X171126858Y-83534778D01*
X170894030Y-83151104D01*
X170762688Y-82726168D01*
X170715731Y-82206076D01*
X170736055Y-81536936D01*
X170760265Y-81125009D01*
X170766641Y-80852197D01*
X170747274Y-80725263D01*
X170696744Y-80711730D01*
X170609633Y-80779117D01*
X170523150Y-80854269D01*
X170380224Y-80929741D01*
X170281974Y-80846541D01*
X170180360Y-80582687D01*
X170136768Y-80371694D01*
X170974163Y-80371694D01*
X170986249Y-80702948D01*
X171088836Y-81395367D01*
X171308118Y-82072716D01*
X171658932Y-82766946D01*
X172156121Y-83510006D01*
X172814524Y-84333847D01*
X173178910Y-84758809D01*
X173447443Y-85062244D01*
X173589350Y-85207017D01*
X173607133Y-85195147D01*
X173503296Y-85028653D01*
X173280343Y-84709554D01*
X173085973Y-84436071D01*
X172511780Y-83608866D01*
X172055271Y-82910474D01*
X171704944Y-82315584D01*
X171449293Y-81798885D01*
X171276814Y-81335067D01*
X171176005Y-80898817D01*
X171135361Y-80464826D01*
X171143378Y-80007782D01*
X171234780Y-79309165D01*
X171418849Y-78777661D01*
X171493159Y-78626136D01*
X171579563Y-78415912D01*
X171587173Y-78333422D01*
X171524521Y-78406647D01*
X171401078Y-78623768D01*
X171248281Y-78934451D01*
X171149651Y-79160483D01*
X171038519Y-79507427D01*
X170985779Y-79880985D01*
X170974163Y-80371694D01*
X170136768Y-80371694D01*
X170102499Y-80205825D01*
X170065053Y-79702227D01*
X170074284Y-79176455D01*
X170132580Y-78721577D01*
X170135308Y-78709133D01*
X170332656Y-78163935D01*
X170665425Y-77593166D01*
X171085431Y-77067292D01*
X171544489Y-76656778D01*
X171858394Y-76433258D01*
X172270743Y-76805790D01*
X172424890Y-76933771D01*
X172726824Y-77135792D01*
X172973175Y-77244152D01*
X173309994Y-77321744D01*
X173947164Y-77480086D01*
X174420563Y-77622313D01*
X174759590Y-77761988D01*
X174993647Y-77912679D01*
X175152133Y-78087951D01*
X175264448Y-78301368D01*
X175360958Y-78761991D01*
X175316695Y-79293989D01*
X175136135Y-79810477D01*
X175005357Y-80001430D01*
X174803675Y-80226449D01*
X174584197Y-80432973D01*
X174397429Y-80573603D01*
X174293876Y-80600938D01*
X174300670Y-80543539D01*
X174383172Y-80346827D01*
X174528867Y-80067074D01*
X174675643Y-79746942D01*
X174771078Y-79215929D01*
X174668732Y-78725917D01*
X174370187Y-78294575D01*
X174360979Y-78285385D01*
X174167647Y-78112176D01*
X173980840Y-78016658D01*
X173728769Y-77976052D01*
X173339644Y-77967578D01*
X173337335Y-77967579D01*
X172891234Y-77986240D01*
X172585495Y-78051264D01*
X172354222Y-78176632D01*
X172089895Y-78440616D01*
X171802012Y-78890333D01*
X171581543Y-79415645D01*
X171465151Y-79943684D01*
X171447080Y-80285096D01*
X171513485Y-80958985D01*
X171721448Y-81662686D01*
X172079784Y-82416629D01*
X172597306Y-83241245D01*
X173282830Y-84156964D01*
X173306339Y-84186476D01*
X174019204Y-85141854D01*
X174052498Y-85195147D01*
X174569647Y-86022944D01*
G37*
G36*
X131494523Y-80652038D02*
G01*
X131397193Y-80866536D01*
X131269105Y-80909053D01*
X131095281Y-80797552D01*
X131082876Y-80786346D01*
X130990205Y-80712414D01*
X130936822Y-80718314D01*
X130916335Y-80836240D01*
X130922355Y-81098383D01*
X130948488Y-81536936D01*
X130952611Y-81604378D01*
X130967907Y-82263813D01*
X130914529Y-82777394D01*
X130775831Y-83197465D01*
X130535168Y-83576370D01*
X130175894Y-83966451D01*
X130175022Y-83967301D01*
X129886694Y-84258125D01*
X129735835Y-84443362D01*
X129702604Y-84554977D01*
X129767158Y-84624937D01*
X129855948Y-84694117D01*
X129936922Y-84851033D01*
X129928618Y-84894100D01*
X129793472Y-85093644D01*
X129515908Y-85362119D01*
X129125832Y-85672787D01*
X128653147Y-85998910D01*
X128535435Y-86076142D01*
X127898671Y-86544406D01*
X127366931Y-87022303D01*
X126985994Y-87469452D01*
X126918541Y-87575248D01*
X126925061Y-87611040D01*
X127059053Y-87509079D01*
X127207117Y-87374990D01*
X127663649Y-87374990D01*
X127681789Y-87396820D01*
X127842243Y-87306973D01*
X128159967Y-87102038D01*
X128534646Y-86895692D01*
X129088062Y-86664072D01*
X129693553Y-86465721D01*
X130274029Y-86325439D01*
X130752400Y-86268028D01*
X131243506Y-86258601D01*
X130880518Y-86154481D01*
X130466239Y-86110658D01*
X129925323Y-86174464D01*
X129334314Y-86332211D01*
X128750865Y-86564555D01*
X128232628Y-86852150D01*
X127837258Y-87175650D01*
X127772869Y-87244896D01*
X127663649Y-87374990D01*
X127207117Y-87374990D01*
X127330033Y-87263675D01*
X127618743Y-87011109D01*
X128336090Y-86495990D01*
X129101040Y-86080457D01*
X129877685Y-85777026D01*
X130630117Y-85598210D01*
X131322427Y-85556525D01*
X131918706Y-85664485D01*
X132133083Y-85756737D01*
X132220619Y-85887137D01*
X132203059Y-86129515D01*
X132177042Y-86258601D01*
X132166386Y-86311473D01*
X131966577Y-86841869D01*
X131664422Y-87260997D01*
X131288627Y-87536473D01*
X130867895Y-87635912D01*
X130690395Y-87614834D01*
X130354990Y-87536489D01*
X129979417Y-87420064D01*
X129719688Y-87338549D01*
X129103808Y-87244049D01*
X128573320Y-87331198D01*
X128104164Y-87606855D01*
X127672280Y-88077881D01*
X127615262Y-88159940D01*
X127354180Y-88724365D01*
X127229893Y-89371037D01*
X127249399Y-90029313D01*
X127419691Y-90628551D01*
X127519069Y-90834901D01*
X127653193Y-91058024D01*
X127723543Y-91099696D01*
X127717658Y-90959419D01*
X127623075Y-90636694D01*
X127473166Y-90032934D01*
X127440758Y-89430423D01*
X127539456Y-88923560D01*
X127697037Y-88631006D01*
X127698462Y-88629307D01*
X128787128Y-88629307D01*
X128839391Y-88681570D01*
X128891654Y-88629307D01*
X128839391Y-88577044D01*
X128787128Y-88629307D01*
X127698462Y-88629307D01*
X127950090Y-88329345D01*
X128256828Y-88059715D01*
X128583494Y-87841242D01*
X128896330Y-87693049D01*
X129161580Y-87634261D01*
X129345485Y-87684004D01*
X129414288Y-87861402D01*
X129440525Y-88012930D01*
X129539523Y-88315248D01*
X129672717Y-88629307D01*
X129686922Y-88662802D01*
X129788157Y-88884810D01*
X129884424Y-89160201D01*
X129898616Y-89380599D01*
X129843716Y-89625745D01*
X129800585Y-89733886D01*
X129643203Y-90005664D01*
X129416096Y-90325122D01*
X129150871Y-90655773D01*
X128879136Y-90961131D01*
X128632496Y-91204707D01*
X128442558Y-91350016D01*
X128340930Y-91360571D01*
X128314844Y-91293439D01*
X128302212Y-91020837D01*
X128347656Y-90616406D01*
X128444801Y-90125834D01*
X128587272Y-89594810D01*
X128603750Y-89540301D01*
X128717582Y-89134197D01*
X128763606Y-88909305D01*
X128749877Y-88853647D01*
X128684446Y-88955247D01*
X128575368Y-89202126D01*
X128430695Y-89582307D01*
X128258482Y-90083813D01*
X128138150Y-90568433D01*
X128061450Y-91354614D01*
X128097034Y-92172751D01*
X128240244Y-92950694D01*
X128486426Y-93616295D01*
X128531320Y-93706780D01*
X128639379Y-93943157D01*
X128682601Y-94069317D01*
X128675935Y-94078066D01*
X128569307Y-94027097D01*
X128366410Y-93879726D01*
X128111056Y-93671238D01*
X127847055Y-93436918D01*
X127618219Y-93212055D01*
X127604372Y-93197244D01*
X127266072Y-92764504D01*
X126925113Y-92215202D01*
X126628171Y-91631860D01*
X126421918Y-91096997D01*
X126399301Y-91016204D01*
X126299832Y-90452320D01*
X126252217Y-89770658D01*
X126256483Y-89043401D01*
X126312655Y-88342730D01*
X126420756Y-87740830D01*
X126585853Y-87200432D01*
X127007371Y-86243257D01*
X127548405Y-85336714D01*
X127977520Y-85336714D01*
X128039288Y-85279914D01*
X128211367Y-85092214D01*
X128464029Y-84804428D01*
X128768560Y-84448789D01*
X128817488Y-84390871D01*
X129456247Y-83595009D01*
X129945379Y-82892205D01*
X130300120Y-82250463D01*
X130535709Y-81637793D01*
X130667383Y-81022201D01*
X130710380Y-80371694D01*
X130707613Y-80066087D01*
X130674113Y-79654702D01*
X130589419Y-79307669D01*
X130436262Y-78934451D01*
X130296012Y-78647826D01*
X130168871Y-78420534D01*
X130097370Y-78333422D01*
X130090617Y-78360194D01*
X130144643Y-78520591D01*
X130265695Y-78777661D01*
X130448613Y-79304031D01*
X130541165Y-80007782D01*
X130548872Y-80418984D01*
X130505647Y-80888510D01*
X130394547Y-81361991D01*
X130203939Y-81864991D01*
X129922194Y-82423071D01*
X129537682Y-83061794D01*
X129038770Y-83806724D01*
X128413830Y-84683422D01*
X128356815Y-84762194D01*
X128150846Y-85054489D01*
X128015438Y-85259437D01*
X127977520Y-85336714D01*
X127548405Y-85336714D01*
X127610516Y-85232643D01*
X128401714Y-84156964D01*
X128775572Y-83673680D01*
X129373649Y-82807336D01*
X129808256Y-82021595D01*
X130088206Y-81296026D01*
X130222313Y-80610199D01*
X130219392Y-79943684D01*
X130130918Y-79506466D01*
X129925425Y-78975587D01*
X129646338Y-78508018D01*
X129330321Y-78176632D01*
X129329395Y-78175946D01*
X129097944Y-78050867D01*
X128791744Y-77986071D01*
X128344899Y-77967578D01*
X128325118Y-77967587D01*
X127943099Y-77976939D01*
X127695159Y-78019369D01*
X127509508Y-78117654D01*
X127314357Y-78294575D01*
X127117232Y-78536840D01*
X126932402Y-79004395D01*
X126944690Y-79520362D01*
X127155676Y-80067074D01*
X127262241Y-80267208D01*
X127366807Y-80495486D01*
X127390667Y-80600938D01*
X127291820Y-80576388D01*
X127106867Y-80438549D01*
X126887644Y-80233352D01*
X126684656Y-80008195D01*
X126548408Y-79810477D01*
X126369464Y-79301574D01*
X126323230Y-78769230D01*
X126420095Y-78301368D01*
X126465309Y-78202687D01*
X126594154Y-78007582D01*
X126781999Y-77844704D01*
X127058242Y-77700488D01*
X127452284Y-77561367D01*
X127993526Y-77413777D01*
X128711368Y-77244152D01*
X128831781Y-77200791D01*
X129119287Y-77034964D01*
X129413800Y-76805790D01*
X129826149Y-76433258D01*
X130140054Y-76656778D01*
X130377110Y-76855865D01*
X130739101Y-77240641D01*
X131081114Y-77681386D01*
X131339118Y-78100977D01*
X131470698Y-78451688D01*
X131581127Y-79011539D01*
X131621049Y-79626572D01*
X131581092Y-80214904D01*
X131576071Y-80247596D01*
X131551049Y-80371694D01*
X131494523Y-80652038D01*
G37*
G36*
X167408390Y-85153792D02*
G01*
X167364998Y-86965588D01*
X167294357Y-89225564D01*
X167209082Y-91320926D01*
X167109645Y-93242859D01*
X166996512Y-94982547D01*
X166870155Y-96531174D01*
X166731041Y-97879924D01*
X166672741Y-98404486D01*
X166645275Y-98743080D01*
X166654360Y-98887275D01*
X166703979Y-98843485D01*
X166798114Y-98618125D01*
X166940750Y-98217607D01*
X166967297Y-98142219D01*
X167157615Y-97651085D01*
X167368099Y-97171509D01*
X167557854Y-96797595D01*
X167602905Y-96721739D01*
X167974272Y-96214964D01*
X168446765Y-95710444D01*
X168956771Y-95270370D01*
X169440674Y-94956929D01*
X169888347Y-94728544D01*
X170131731Y-94957191D01*
X170396498Y-95134943D01*
X170721657Y-95256758D01*
X171068197Y-95327678D01*
X170264324Y-95771481D01*
X170079292Y-95875475D01*
X169382450Y-96301785D01*
X168769645Y-96731292D01*
X168277494Y-97136871D01*
X167942611Y-97491396D01*
X167724336Y-97806768D01*
X167439459Y-98279247D01*
X167146170Y-98816695D01*
X166868523Y-99370797D01*
X166630576Y-99893239D01*
X166456383Y-100335706D01*
X166370001Y-100649883D01*
X166340071Y-100847926D01*
X166120100Y-102083960D01*
X165850913Y-103291195D01*
X165542987Y-104433585D01*
X165206803Y-105475084D01*
X164852839Y-106379646D01*
X164491576Y-107111225D01*
X163792269Y-108184468D01*
X162810602Y-109358126D01*
X161632768Y-110476538D01*
X160257023Y-111541177D01*
X158681623Y-112553513D01*
X156904823Y-113515020D01*
X156713380Y-113610247D01*
X156014951Y-113951367D01*
X155402447Y-114236358D01*
X154818857Y-114489181D01*
X154207174Y-114733796D01*
X153510388Y-114994162D01*
X152671490Y-115294241D01*
X152366508Y-115399887D01*
X151824148Y-115577858D01*
X151350208Y-115721095D01*
X150987250Y-115817035D01*
X150777837Y-115853118D01*
X150707747Y-115847566D01*
X150424161Y-115789550D01*
X150007021Y-115678381D01*
X149500462Y-115526305D01*
X148948619Y-115345569D01*
X148527290Y-115199276D01*
X146483794Y-114411723D01*
X144595059Y-113549343D01*
X142869371Y-112617356D01*
X141315016Y-111620983D01*
X139940281Y-110565445D01*
X138753451Y-109455961D01*
X137762812Y-108297754D01*
X137350009Y-107717408D01*
X136931786Y-107035518D01*
X136566184Y-106313709D01*
X136243036Y-105523821D01*
X135952176Y-104637693D01*
X135683437Y-103627163D01*
X135426652Y-102464070D01*
X135171655Y-101120253D01*
X135057273Y-100507548D01*
X134935149Y-99944464D01*
X134812339Y-99499164D01*
X134675239Y-99123268D01*
X134510243Y-98768402D01*
X134215145Y-98226209D01*
X133828576Y-97642602D01*
X133393476Y-97141868D01*
X132872169Y-96687465D01*
X132226975Y-96242850D01*
X131420219Y-95771481D01*
X130616346Y-95327678D01*
X130962887Y-95256758D01*
X131270638Y-95143393D01*
X131556032Y-94954166D01*
X131802636Y-94722493D01*
X132315074Y-95001396D01*
X132647862Y-95202237D01*
X133385504Y-95817075D01*
X134004286Y-96597080D01*
X134494956Y-97531512D01*
X134751128Y-98141241D01*
X134696710Y-97670871D01*
X134671979Y-97449255D01*
X134583666Y-96534875D01*
X134496475Y-95452257D01*
X134411933Y-94233284D01*
X134331565Y-92909838D01*
X134256895Y-91513803D01*
X134189449Y-90077062D01*
X134130752Y-88631497D01*
X134082329Y-87208991D01*
X134045706Y-85841428D01*
X134022408Y-84560691D01*
X134013982Y-83401705D01*
X135028697Y-83401705D01*
X135100578Y-86747193D01*
X135152187Y-88748388D01*
X135242608Y-91193518D01*
X135359973Y-93444344D01*
X135505466Y-95508392D01*
X135680270Y-97393188D01*
X135885572Y-99106256D01*
X136122554Y-100655122D01*
X136392403Y-102047311D01*
X136696301Y-103290349D01*
X137035435Y-104391760D01*
X137410987Y-105359070D01*
X137824143Y-106199804D01*
X138276088Y-106921488D01*
X138690457Y-107469078D01*
X139716790Y-108600324D01*
X140930355Y-109679653D01*
X142319002Y-110699293D01*
X143870581Y-111651471D01*
X145572940Y-112528414D01*
X147413930Y-113322349D01*
X149381401Y-114025506D01*
X149794122Y-114154031D01*
X150230486Y-114278636D01*
X150569937Y-114363054D01*
X150761944Y-114393805D01*
X150970631Y-114364252D01*
X151368606Y-114260828D01*
X151898604Y-114094669D01*
X152528557Y-113877857D01*
X153226392Y-113622476D01*
X153960040Y-113340608D01*
X154697431Y-113044338D01*
X155406494Y-112745747D01*
X156055158Y-112456919D01*
X156611354Y-112189937D01*
X157054891Y-111960350D01*
X158519002Y-111115456D01*
X159860716Y-110203323D01*
X161062721Y-109238721D01*
X162107708Y-108236420D01*
X162978367Y-107211192D01*
X163657387Y-106177805D01*
X163923532Y-105660633D01*
X164308391Y-104741892D01*
X164658231Y-103679046D01*
X164973931Y-102465766D01*
X165256369Y-101095723D01*
X165506422Y-99562585D01*
X165724970Y-97860025D01*
X165912891Y-95981712D01*
X166071062Y-93921317D01*
X166200362Y-91672510D01*
X166301669Y-89228962D01*
X166375861Y-86584343D01*
X166446713Y-83389585D01*
X165602245Y-83223215D01*
X164756114Y-83002999D01*
X163964136Y-82660841D01*
X163227550Y-82177470D01*
X162491079Y-81522668D01*
X162183575Y-81201514D01*
X161501646Y-80329337D01*
X161016872Y-79425714D01*
X160720823Y-78476140D01*
X160636961Y-78118884D01*
X160553831Y-77838352D01*
X160490938Y-77702104D01*
X160352019Y-77626862D01*
X160039110Y-77507334D01*
X159596319Y-77360663D01*
X159062224Y-77198155D01*
X158475401Y-77031116D01*
X157874429Y-76870850D01*
X157297883Y-76728663D01*
X156784341Y-76615860D01*
X156360274Y-76533584D01*
X155529933Y-76393165D01*
X154707660Y-76286138D01*
X153850153Y-76209029D01*
X152914111Y-76158365D01*
X151856233Y-76130674D01*
X150633218Y-76122481D01*
X150280151Y-76123615D01*
X148609462Y-76161862D01*
X147097326Y-76258096D01*
X145707069Y-76417363D01*
X144402015Y-76644707D01*
X143145486Y-76945174D01*
X141900806Y-77323810D01*
X140864193Y-77671344D01*
X140678902Y-78484088D01*
X140364612Y-79462955D01*
X139877453Y-80404646D01*
X139248094Y-81255480D01*
X138500385Y-81992071D01*
X137658173Y-82591031D01*
X136745308Y-83028975D01*
X135785637Y-83282516D01*
X135028697Y-83401705D01*
X134013982Y-83401705D01*
X134013960Y-83398661D01*
X134013465Y-82349086D01*
X134980337Y-82166448D01*
X135778310Y-81974721D01*
X136693614Y-81616510D01*
X137519392Y-81109520D01*
X138308997Y-80425851D01*
X138675748Y-80032217D01*
X139302853Y-79181134D01*
X139781840Y-78268957D01*
X140084025Y-77345462D01*
X140213878Y-76765215D01*
X141336828Y-76402190D01*
X141595189Y-76321404D01*
X142622896Y-76040957D01*
X143769555Y-75781730D01*
X144964876Y-75558591D01*
X146138568Y-75386412D01*
X146440444Y-75356264D01*
X147042651Y-75318034D01*
X147793402Y-75288058D01*
X148656953Y-75266327D01*
X149597561Y-75252835D01*
X150579481Y-75247572D01*
X151566971Y-75250533D01*
X152524285Y-75261708D01*
X153415682Y-75281090D01*
X154205416Y-75308671D01*
X154857744Y-75344445D01*
X155336922Y-75388402D01*
X155464942Y-75404900D01*
X156675659Y-75591087D01*
X157904992Y-75829640D01*
X159077065Y-76104503D01*
X160116003Y-76399622D01*
X161250387Y-76758829D01*
X161373047Y-77343615D01*
X161529184Y-77906132D01*
X161929140Y-78807030D01*
X162484865Y-79668535D01*
X163164483Y-80450536D01*
X163936117Y-81112920D01*
X164767890Y-81615575D01*
X165010066Y-81724818D01*
X165597727Y-81946572D01*
X166210280Y-82130003D01*
X166777703Y-82255543D01*
X167229974Y-82303624D01*
X167468293Y-82305439D01*
X167445493Y-83389585D01*
X167408390Y-85153792D01*
G37*
G36*
X162549267Y-102306812D02*
G01*
X162565097Y-102499466D01*
X162667906Y-102686878D01*
X162915111Y-102852255D01*
X162936890Y-102863994D01*
X163158812Y-102996667D01*
X163255945Y-103125464D01*
X163249298Y-103318254D01*
X163159883Y-103642900D01*
X163127220Y-103748538D01*
X163033490Y-103951663D01*
X162884846Y-104032496D01*
X162604345Y-104047002D01*
X162554911Y-104047212D01*
X162287268Y-104073228D01*
X162128424Y-104180396D01*
X161990972Y-104422177D01*
X161950928Y-104507235D01*
X161870461Y-104729536D01*
X161892396Y-104903381D01*
X162021282Y-105135873D01*
X162230500Y-105474395D01*
X161882599Y-105811595D01*
X161534697Y-106148794D01*
X161156361Y-105968378D01*
X161072994Y-105929138D01*
X160845666Y-105846627D01*
X160661636Y-105864851D01*
X160409325Y-105986519D01*
X160191331Y-106123574D01*
X160068927Y-106296468D01*
X160040625Y-106564293D01*
X160024396Y-106798244D01*
X159930570Y-106951975D01*
X159700914Y-107052486D01*
X159431844Y-107131644D01*
X159209702Y-107153642D01*
X159068147Y-107071335D01*
X158943095Y-106869225D01*
X158876561Y-106750429D01*
X158753958Y-106621496D01*
X158563534Y-106567162D01*
X158234855Y-106556305D01*
X158049450Y-106558899D01*
X157794451Y-106589840D01*
X157640442Y-106680581D01*
X157515421Y-106861683D01*
X157437069Y-106993563D01*
X157328474Y-107101695D01*
X157170682Y-107107968D01*
X156888260Y-107032988D01*
X156746764Y-106989647D01*
X156533396Y-106892358D01*
X156438754Y-106747251D01*
X156403341Y-106487381D01*
X156373237Y-106266346D01*
X156264070Y-106054062D01*
X156023136Y-105887187D01*
X155966850Y-105857093D01*
X155749144Y-105760893D01*
X155591666Y-105769757D01*
X155393483Y-105883016D01*
X155245998Y-105973302D01*
X155113844Y-105999773D01*
X154970812Y-105915917D01*
X154748748Y-105702669D01*
X154384572Y-105338493D01*
X154573298Y-105009572D01*
X154583304Y-104992093D01*
X154694696Y-104765098D01*
X154694985Y-104600135D01*
X154586447Y-104389958D01*
X154514824Y-104285438D01*
X154311614Y-104129446D01*
X153992479Y-104067469D01*
X153964371Y-104065267D01*
X153702542Y-104023613D01*
X153573605Y-103920131D01*
X153506961Y-103701625D01*
X153446915Y-103420657D01*
X153394592Y-103204389D01*
X153450091Y-103041207D01*
X153701908Y-102873076D01*
X153769426Y-102840206D01*
X153957987Y-102716863D01*
X154010338Y-102594789D01*
X155048955Y-102594789D01*
X155228314Y-103361224D01*
X155599415Y-104090350D01*
X155909333Y-104467924D01*
X156330836Y-104850739D01*
X156781349Y-105163279D01*
X157192272Y-105351239D01*
X157306600Y-105376516D01*
X157388253Y-105339463D01*
X157421216Y-105183717D01*
X157427270Y-104864128D01*
X157420339Y-104562382D01*
X157369598Y-104351411D01*
X157230101Y-104194874D01*
X156956899Y-104011273D01*
X156782255Y-103897065D01*
X156587206Y-103730875D01*
X156504123Y-103554096D01*
X156486716Y-103296340D01*
X156449028Y-102977217D01*
X156286745Y-102704909D01*
X156152928Y-102555210D01*
X156023598Y-102312603D01*
X156025097Y-102216353D01*
X156434453Y-102216353D01*
X156497504Y-102380516D01*
X156660650Y-102469001D01*
X156831525Y-102413030D01*
X156870074Y-102344549D01*
X156904823Y-102140830D01*
X156855845Y-101996626D01*
X156669638Y-101975329D01*
X156520446Y-102030502D01*
X156434453Y-102216353D01*
X156025097Y-102216353D01*
X156026811Y-102106284D01*
X156162118Y-101838218D01*
X156389439Y-101625187D01*
X156651093Y-101538360D01*
X156908859Y-101592637D01*
X157154709Y-101785797D01*
X157287370Y-102063287D01*
X157286003Y-102140830D01*
X157282029Y-102366267D01*
X157113877Y-102635891D01*
X156980685Y-102822634D01*
X156905010Y-103148594D01*
X156905566Y-103185272D01*
X156947732Y-103392154D01*
X157089238Y-103566861D01*
X157375380Y-103769152D01*
X157845564Y-104066198D01*
X157845564Y-104788288D01*
X157859177Y-105155533D01*
X157896291Y-105413816D01*
X157950090Y-105510377D01*
X157980925Y-105444237D01*
X158012357Y-105182384D01*
X158035476Y-104732020D01*
X158049742Y-104104476D01*
X158054617Y-103311083D01*
X158054376Y-102883863D01*
X158051595Y-102250895D01*
X158043443Y-101780159D01*
X158027163Y-101441427D01*
X157999993Y-101204471D01*
X157959175Y-101039060D01*
X157901948Y-100914968D01*
X157825554Y-100801963D01*
X157725787Y-100631920D01*
X157689035Y-100413630D01*
X158073479Y-100413630D01*
X158102907Y-100512341D01*
X158238857Y-100656327D01*
X158408792Y-100679737D01*
X158534566Y-100558087D01*
X158561275Y-100439526D01*
X158484650Y-100250864D01*
X158250232Y-100179513D01*
X158094109Y-100229451D01*
X158073479Y-100413630D01*
X157689035Y-100413630D01*
X157669691Y-100298739D01*
X157794544Y-100012706D01*
X158088127Y-99819545D01*
X158373674Y-99775379D01*
X158645938Y-99895427D01*
X158888346Y-100210575D01*
X158893882Y-100220357D01*
X158979437Y-100413843D01*
X158975565Y-100439526D01*
X158955112Y-100575187D01*
X158807868Y-100799863D01*
X158747137Y-100885660D01*
X158684706Y-100999908D01*
X158640276Y-101142860D01*
X158611428Y-101344567D01*
X158595743Y-101635085D01*
X158590804Y-102044465D01*
X158594194Y-102602763D01*
X158603492Y-103340032D01*
X158609055Y-103707446D01*
X158619229Y-104221476D01*
X158629846Y-104589994D01*
X158640255Y-104797119D01*
X158649803Y-104826967D01*
X158657839Y-104663655D01*
X158681778Y-103764671D01*
X159204411Y-103439784D01*
X159453797Y-103277633D01*
X159634765Y-103117835D01*
X159711266Y-102948580D01*
X159727045Y-102708672D01*
X159690202Y-102403594D01*
X159517992Y-102113257D01*
X159382501Y-101943217D01*
X159308938Y-101726462D01*
X159311070Y-101719766D01*
X159746652Y-101719766D01*
X159789300Y-101816325D01*
X159963747Y-101936861D01*
X159998173Y-101940675D01*
X160162486Y-101866885D01*
X160233138Y-101695358D01*
X160166058Y-101517455D01*
X160139017Y-101494233D01*
X159955712Y-101453936D01*
X159794470Y-101543804D01*
X159746652Y-101719766D01*
X159311070Y-101719766D01*
X159368562Y-101539201D01*
X159547331Y-101297079D01*
X159777207Y-101098239D01*
X159988362Y-101015727D01*
X160169561Y-101082931D01*
X160397814Y-101263790D01*
X160588158Y-101487420D01*
X160667786Y-101682379D01*
X160666273Y-101695358D01*
X160664504Y-101710536D01*
X160576639Y-101906972D01*
X160406469Y-102146458D01*
X160394936Y-102160318D01*
X160201599Y-102497130D01*
X160144965Y-102912297D01*
X160139553Y-103111236D01*
X160090255Y-103316329D01*
X159950616Y-103476245D01*
X159674595Y-103664625D01*
X159204411Y-103961672D01*
X159204411Y-104690805D01*
X159204834Y-104882896D01*
X159213969Y-105183159D01*
X159246374Y-105333560D01*
X159316700Y-105375084D01*
X159439597Y-105348712D01*
X159487024Y-105333535D01*
X160011623Y-105069528D01*
X160525789Y-104655761D01*
X160977257Y-104141656D01*
X161313757Y-103576632D01*
X161439321Y-103249401D01*
X161527359Y-102815789D01*
X161554101Y-102270048D01*
X161534826Y-101867674D01*
X161362684Y-101111991D01*
X161004361Y-100438439D01*
X160450357Y-99825989D01*
X160167635Y-99594034D01*
X159566605Y-99249786D01*
X158901678Y-99072799D01*
X158125109Y-99047080D01*
X158016657Y-99054028D01*
X157244157Y-99193791D01*
X156577535Y-99497502D01*
X155976380Y-99982756D01*
X155632434Y-100386455D01*
X155253904Y-101075922D01*
X155058448Y-101822528D01*
X155048955Y-102594789D01*
X154010338Y-102594789D01*
X154027797Y-102554076D01*
X154023350Y-102268106D01*
X154014681Y-102160088D01*
X153986230Y-101917060D01*
X153959022Y-101809964D01*
X153958187Y-101809429D01*
X153851649Y-101742509D01*
X153648198Y-101615286D01*
X153542844Y-101546659D01*
X153436173Y-101434069D01*
X153428648Y-101275228D01*
X153502317Y-100993630D01*
X153532494Y-100894033D01*
X153631162Y-100660172D01*
X153769196Y-100553314D01*
X154010313Y-100513201D01*
X154180635Y-100487791D01*
X154413286Y-100370364D01*
X154615073Y-100111330D01*
X154680741Y-100003419D01*
X154778917Y-99795051D01*
X154771851Y-99618698D01*
X154666769Y-99370859D01*
X154611058Y-99252158D01*
X154547179Y-99054079D01*
X154596858Y-98903331D01*
X154776211Y-98701331D01*
X154854090Y-98622766D01*
X155097002Y-98443175D01*
X155322317Y-98429334D01*
X155599980Y-98570101D01*
X155619745Y-98582971D01*
X155798926Y-98674531D01*
X155959481Y-98660375D01*
X156197331Y-98534842D01*
X156359520Y-98426821D01*
X156495491Y-98253008D01*
X156513741Y-98010976D01*
X156508458Y-97896084D01*
X156545286Y-97741975D01*
X156685346Y-97634884D01*
X156977709Y-97523224D01*
X157270326Y-97430850D01*
X157454712Y-97425223D01*
X157588803Y-97539679D01*
X157748215Y-97801529D01*
X157778163Y-97844243D01*
X157969377Y-97951742D01*
X158316927Y-97984451D01*
X158368152Y-97984234D01*
X158649746Y-97960284D01*
X158815323Y-97867741D01*
X158945845Y-97665552D01*
X159020023Y-97535694D01*
X159159696Y-97406191D01*
X159340505Y-97418192D01*
X159454517Y-97454035D01*
X159776732Y-97568163D01*
X159952581Y-97674194D01*
X160025925Y-97809226D01*
X160040625Y-98010357D01*
X160056796Y-98201372D01*
X160160684Y-98387689D01*
X160409325Y-98553576D01*
X160461292Y-98581327D01*
X160697866Y-98685193D01*
X160883778Y-98684882D01*
X161128110Y-98585190D01*
X161291613Y-98510825D01*
X161454509Y-98479330D01*
X161601769Y-98556826D01*
X161813562Y-98764256D01*
X161957191Y-98915818D01*
X162074246Y-99081330D01*
X162076172Y-99227088D01*
X161982847Y-99431434D01*
X161973275Y-99450027D01*
X161879594Y-99674526D01*
X161885725Y-99862384D01*
X161993322Y-100122847D01*
X162126560Y-100356178D01*
X162291213Y-100468506D01*
X162564949Y-100493093D01*
X162748779Y-100503792D01*
X162971106Y-100589710D01*
X163113331Y-100798210D01*
X163216934Y-101172517D01*
X163218105Y-101178178D01*
X163235458Y-101393765D01*
X163148539Y-101549795D01*
X162915721Y-101722243D01*
X162734951Y-101852768D01*
X162586989Y-102046718D01*
X162554599Y-102270048D01*
X162549267Y-102306812D01*
G37*
G36*
X142933850Y-84512690D02*
G01*
X142943142Y-84776871D01*
X142923001Y-85144043D01*
X142920892Y-85182499D01*
X142908320Y-85451995D01*
X142924579Y-85931560D01*
X143004356Y-86228164D01*
X143081545Y-86440660D01*
X143024328Y-86617317D01*
X142996497Y-86688572D01*
X142958233Y-86949758D01*
X142930597Y-87351010D01*
X142924405Y-87531776D01*
X142913529Y-87849247D01*
X142907358Y-88368611D01*
X142906969Y-88401387D01*
X142908864Y-88675704D01*
X142910857Y-88964349D01*
X142925133Y-89495052D01*
X142949737Y-89950415D01*
X142951665Y-89969041D01*
X142984608Y-90287355D01*
X143029688Y-90462791D01*
X143093332Y-90626554D01*
X143038369Y-90896313D01*
X143027404Y-90920252D01*
X142930766Y-91136365D01*
X142904163Y-91195859D01*
X142766231Y-91511883D01*
X142595341Y-91785917D01*
X142255241Y-92058268D01*
X141795336Y-92200789D01*
X141208417Y-92200284D01*
X140613367Y-92024131D01*
X140478386Y-91966980D01*
X140160224Y-91859869D01*
X139926661Y-91817373D01*
X139710476Y-91753412D01*
X139481612Y-91582188D01*
X139420469Y-91518601D01*
X139243010Y-91355116D01*
X140359405Y-91355116D01*
X140452735Y-91622800D01*
X140687506Y-91804779D01*
X141145876Y-91935145D01*
X141599522Y-91975226D01*
X141955349Y-91913171D01*
X142304446Y-91717620D01*
X142531296Y-91444254D01*
X142562758Y-91136365D01*
X142391999Y-90811197D01*
X142334392Y-90747919D01*
X142097808Y-90552222D01*
X141837160Y-90400941D01*
X141613252Y-90324764D01*
X141486891Y-90354382D01*
X141353272Y-90426923D01*
X141110101Y-90458525D01*
X141076538Y-90459350D01*
X140766083Y-90553843D01*
X140532277Y-90769036D01*
X140391319Y-91053327D01*
X140359405Y-91355116D01*
X139243010Y-91355116D01*
X139166249Y-91284399D01*
X138875539Y-91045263D01*
X138562609Y-90740533D01*
X138238109Y-90225876D01*
X138050773Y-89652379D01*
X138037145Y-89289307D01*
X138235373Y-89289307D01*
X138286992Y-89622014D01*
X138409844Y-89992397D01*
X138591467Y-90359304D01*
X138819398Y-90681583D01*
X139081176Y-90918080D01*
X139263187Y-91024597D01*
X139473923Y-91077416D01*
X139605646Y-90981159D01*
X139719864Y-90910313D01*
X139951527Y-90870849D01*
X140087319Y-90847082D01*
X140334035Y-90710962D01*
X140531660Y-90502331D01*
X140634341Y-90276745D01*
X140596223Y-90089757D01*
X140533749Y-90033548D01*
X140275926Y-89946275D01*
X139983224Y-89966111D01*
X139762436Y-90092681D01*
X139671135Y-90180586D01*
X139442420Y-90236516D01*
X139195005Y-90085215D01*
X139171662Y-90061451D01*
X139050047Y-89885138D01*
X139051690Y-89876431D01*
X141643918Y-89876431D01*
X141728307Y-90089909D01*
X142001530Y-90276745D01*
X142001597Y-90276791D01*
X142155554Y-90341265D01*
X142375882Y-90368377D01*
X142507747Y-90250917D01*
X142565566Y-89969041D01*
X142563751Y-89502904D01*
X142532395Y-88842611D01*
X142088156Y-89244624D01*
X141946438Y-89382567D01*
X141725549Y-89660870D01*
X141643918Y-89876431D01*
X139051690Y-89876431D01*
X139076536Y-89744739D01*
X139996875Y-89744739D01*
X140135279Y-89805213D01*
X140464113Y-89796375D01*
X140801095Y-89612402D01*
X141004062Y-89487923D01*
X141284385Y-89457765D01*
X141444457Y-89455244D01*
X141683708Y-89337080D01*
X142013305Y-89074720D01*
X142090537Y-89006600D01*
X142320919Y-88795065D01*
X142414534Y-88675704D01*
X142388942Y-88612910D01*
X142261702Y-88571081D01*
X142067494Y-88559252D01*
X141820077Y-88635423D01*
X141679092Y-88698921D01*
X141441111Y-88713490D01*
X141423554Y-88710656D01*
X141242337Y-88754712D01*
X140980373Y-88885605D01*
X140681590Y-89071966D01*
X140389919Y-89282428D01*
X140149289Y-89485623D01*
X140003632Y-89650182D01*
X139996875Y-89744739D01*
X139076536Y-89744739D01*
X139081524Y-89718300D01*
X139274915Y-89495883D01*
X139328213Y-89432395D01*
X139677268Y-89432395D01*
X139724973Y-89514160D01*
X139831977Y-89467781D01*
X140059644Y-89322511D01*
X140352599Y-89113655D01*
X140663267Y-88877524D01*
X140944075Y-88650432D01*
X141147448Y-88468690D01*
X141225811Y-88368611D01*
X141216035Y-88341091D01*
X141083124Y-88217451D01*
X140844303Y-88072732D01*
X140586731Y-87957479D01*
X140391017Y-87938833D01*
X140178066Y-88019049D01*
X140071987Y-88081959D01*
X139910945Y-88276632D01*
X139822889Y-88604252D01*
X139808871Y-88690136D01*
X139747919Y-89027993D01*
X139693843Y-89282599D01*
X139677268Y-89432395D01*
X139328213Y-89432395D01*
X139346125Y-89411058D01*
X139516247Y-89093013D01*
X139641096Y-88698266D01*
X139702437Y-88364337D01*
X139705829Y-88074101D01*
X139606698Y-87958845D01*
X139392661Y-88008368D01*
X139051335Y-88212469D01*
X138945018Y-88288333D01*
X138739500Y-88461498D01*
X138651839Y-88578312D01*
X138651191Y-88583438D01*
X138625708Y-88786097D01*
X138607194Y-88829337D01*
X138467183Y-88890624D01*
X138395686Y-88901531D01*
X138267450Y-89035429D01*
X138235373Y-89289307D01*
X138037145Y-89289307D01*
X138029553Y-89087055D01*
X138049052Y-88904992D01*
X138037629Y-88576451D01*
X137937189Y-88341939D01*
X137834033Y-88103730D01*
X137782883Y-87694579D01*
X137797373Y-87525088D01*
X138017414Y-87525088D01*
X138047093Y-87930513D01*
X138053006Y-87953800D01*
X138173762Y-88235427D01*
X138351325Y-88339429D01*
X138405441Y-88338986D01*
X138637418Y-88264823D01*
X138908611Y-88111167D01*
X139161692Y-87919643D01*
X139339336Y-87731872D01*
X139384216Y-87589478D01*
X139380452Y-87536829D01*
X140517777Y-87536829D01*
X140520456Y-87594025D01*
X140645317Y-87750673D01*
X140892752Y-87885509D01*
X141199916Y-87970454D01*
X141503963Y-87977432D01*
X141586360Y-87967461D01*
X141812922Y-87994243D01*
X141951879Y-88148437D01*
X142062674Y-88277318D01*
X142327019Y-88367990D01*
X142433517Y-88362963D01*
X142519349Y-88319490D01*
X142564391Y-88194897D01*
X142581781Y-87946539D01*
X142584658Y-87531776D01*
X142584440Y-87420388D01*
X142575979Y-87042264D01*
X142548663Y-86823306D01*
X142493559Y-86722927D01*
X142401737Y-86700540D01*
X142262242Y-86722242D01*
X141960436Y-86813073D01*
X141592758Y-86953082D01*
X141211931Y-87118865D01*
X140870677Y-87287020D01*
X140621718Y-87434142D01*
X140517777Y-87536829D01*
X139380452Y-87536829D01*
X139374579Y-87454698D01*
X139445546Y-87224381D01*
X139465888Y-87129874D01*
X140389597Y-87129874D01*
X140390578Y-87153051D01*
X140414054Y-87193862D01*
X140494815Y-87192875D01*
X140666891Y-87140701D01*
X140964312Y-87027949D01*
X141421108Y-86845227D01*
X141592052Y-86773902D01*
X141979930Y-86593408D01*
X142279525Y-86428124D01*
X142436920Y-86306640D01*
X142449202Y-86286775D01*
X142505854Y-86096675D01*
X142551313Y-85801270D01*
X142581384Y-85462935D01*
X142591871Y-85144043D01*
X142578579Y-84906967D01*
X142537313Y-84814081D01*
X142295647Y-84888298D01*
X142053138Y-85092297D01*
X141980376Y-85231583D01*
X141918096Y-85350802D01*
X141901862Y-85420110D01*
X141789275Y-85610829D01*
X141782567Y-85622192D01*
X141529252Y-85720265D01*
X141470905Y-85734241D01*
X141261182Y-85838319D01*
X141050329Y-86051280D01*
X140795387Y-86413716D01*
X140779560Y-86438271D01*
X140582491Y-86756328D01*
X140442715Y-87004138D01*
X140428410Y-87038000D01*
X140389597Y-87129874D01*
X139465888Y-87129874D01*
X139485664Y-87038000D01*
X139413603Y-86749663D01*
X139234334Y-86490821D01*
X139059450Y-86383908D01*
X139457071Y-86383908D01*
X139548172Y-86685826D01*
X139671890Y-86825574D01*
X139971955Y-86904616D01*
X140083554Y-86896635D01*
X140253926Y-86826297D01*
X140426379Y-86649963D01*
X140647702Y-86327689D01*
X140778246Y-86120411D01*
X140960872Y-85794080D01*
X141003729Y-85610829D01*
X140893795Y-85555647D01*
X140618048Y-85613521D01*
X140163466Y-85769438D01*
X139826577Y-85916229D01*
X139546413Y-86132528D01*
X139457071Y-86383908D01*
X139059450Y-86383908D01*
X138988824Y-86340732D01*
X138790019Y-86337430D01*
X138516160Y-86479782D01*
X138278443Y-86754995D01*
X138103363Y-87118340D01*
X138017414Y-87525088D01*
X137797373Y-87525088D01*
X137821414Y-87243876D01*
X137948982Y-86833895D01*
X137975960Y-86781373D01*
X138197965Y-86465603D01*
X138471613Y-86190938D01*
X138628511Y-86053065D01*
X138781682Y-85825347D01*
X138821692Y-85536194D01*
X138839871Y-85400644D01*
X139057009Y-85400644D01*
X139072516Y-85582039D01*
X139265934Y-85688940D01*
X139428260Y-85725413D01*
X139605646Y-85745142D01*
X139720626Y-85724582D01*
X139983332Y-85646482D01*
X140296197Y-85533625D01*
X140596870Y-85410517D01*
X140822998Y-85301668D01*
X140912230Y-85231583D01*
X140905849Y-85210657D01*
X140769989Y-85114345D01*
X140502767Y-85012012D01*
X140164421Y-84923570D01*
X139815186Y-84868932D01*
X139700108Y-84862110D01*
X139443577Y-84911874D01*
X139239247Y-85099845D01*
X139218584Y-85126476D01*
X139057009Y-85400644D01*
X138839871Y-85400644D01*
X138858907Y-85258708D01*
X139056881Y-84938723D01*
X139233465Y-84770099D01*
X139465974Y-84545884D01*
X140035577Y-84545884D01*
X140060466Y-84592533D01*
X140261778Y-84748955D01*
X140568333Y-84850658D01*
X140899337Y-84878627D01*
X141173993Y-84813842D01*
X141389437Y-84735500D01*
X141669156Y-84781043D01*
X141788902Y-84819132D01*
X142095342Y-84813927D01*
X142363840Y-84695263D01*
X142512862Y-84491155D01*
X142503385Y-84293276D01*
X142348078Y-84036539D01*
X142078521Y-83822686D01*
X141744669Y-83702972D01*
X141715359Y-83698684D01*
X141322619Y-83699082D01*
X140915871Y-83784958D01*
X140539454Y-83934443D01*
X140237706Y-84125672D01*
X140054967Y-84336774D01*
X140035577Y-84545884D01*
X139465974Y-84545884D01*
X139511253Y-84502220D01*
X139815515Y-84206940D01*
X140046210Y-83997307D01*
X140555917Y-83657085D01*
X141084015Y-83491778D01*
X141679633Y-83482285D01*
X141787860Y-83493869D01*
X142096884Y-83559489D01*
X142333541Y-83698560D01*
X142592744Y-83960823D01*
X142748470Y-84139990D01*
X142874973Y-84322786D01*
X142927173Y-84491155D01*
X142933850Y-84512690D01*
G37*
G36*
X155333881Y-65752317D02*
G01*
X155762493Y-65999266D01*
X155854955Y-66052539D01*
X156368900Y-66474108D01*
X156412006Y-66521899D01*
X156927431Y-67093339D01*
X157008624Y-67225891D01*
X157441908Y-67933247D01*
X157514597Y-68129241D01*
X157784647Y-68857389D01*
X157855830Y-69118475D01*
X157917257Y-69320726D01*
X157940931Y-69398675D01*
X157996983Y-69544485D01*
X157983509Y-69600801D01*
X157839553Y-69741801D01*
X157587058Y-69911845D01*
X157433378Y-70008868D01*
X157135109Y-70234416D01*
X156933744Y-70436206D01*
X156930741Y-70440233D01*
X156781066Y-70593338D01*
X156679377Y-70616356D01*
X156618888Y-70548430D01*
X156452708Y-70352995D01*
X156234092Y-70090799D01*
X155857464Y-69635419D01*
X155983594Y-69491765D01*
X156716857Y-69491765D01*
X156736123Y-69561142D01*
X156887587Y-69711568D01*
X157107707Y-69739037D01*
X157307748Y-69623731D01*
X157362280Y-69533467D01*
X157366785Y-69320726D01*
X157243763Y-69149421D01*
X157047996Y-69074335D01*
X156834267Y-69150250D01*
X156755902Y-69258141D01*
X156716857Y-69491765D01*
X155983594Y-69491765D01*
X156172090Y-69277080D01*
X156377455Y-68989520D01*
X156472013Y-68660472D01*
X156418790Y-68282086D01*
X156320584Y-68046347D01*
X156830986Y-68046347D01*
X156835400Y-68239565D01*
X156880281Y-68319488D01*
X157009350Y-68403381D01*
X157017501Y-68403138D01*
X157148133Y-68312450D01*
X157194073Y-68129241D01*
X157127756Y-67957343D01*
X157084713Y-67923919D01*
X156934940Y-67921006D01*
X156830986Y-68046347D01*
X156320584Y-68046347D01*
X156219418Y-67803503D01*
X155842037Y-67226102D01*
X155815702Y-67201323D01*
X156277663Y-67201323D01*
X156311820Y-67296739D01*
X156457066Y-67359211D01*
X156623243Y-67291271D01*
X156657528Y-67225891D01*
X156599374Y-67102399D01*
X156428284Y-67044533D01*
X156358171Y-67062673D01*
X156277663Y-67201323D01*
X155815702Y-67201323D01*
X155241330Y-66660879D01*
X155007427Y-66521899D01*
X155650502Y-66521899D01*
X155653539Y-66546884D01*
X155755029Y-66626426D01*
X155780013Y-66623389D01*
X155859556Y-66521899D01*
X155856518Y-66496915D01*
X155755029Y-66417373D01*
X155730044Y-66420410D01*
X155650502Y-66521899D01*
X155007427Y-66521899D01*
X154463634Y-66198789D01*
X154328767Y-66136293D01*
X153997350Y-65999266D01*
X154814288Y-65999266D01*
X154831977Y-66047351D01*
X154971078Y-66103792D01*
X155043206Y-66092000D01*
X155127868Y-65999266D01*
X155110179Y-65951180D01*
X154971078Y-65894739D01*
X154898950Y-65906532D01*
X154814288Y-65999266D01*
X153997350Y-65999266D01*
X153935977Y-65973891D01*
X153678059Y-65899566D01*
X153568747Y-65913205D01*
X153621775Y-66014692D01*
X153729654Y-66103792D01*
X153850875Y-66203912D01*
X153874998Y-66221675D01*
X154305536Y-66651879D01*
X154334522Y-66680842D01*
X154717693Y-67294378D01*
X154760006Y-67402084D01*
X155001360Y-68016435D01*
X155119464Y-68592038D01*
X155162374Y-68801168D01*
X155183428Y-69026887D01*
X155156148Y-69206955D01*
X155027472Y-69332251D01*
X154753635Y-69474912D01*
X154581131Y-69549781D01*
X154173303Y-69626879D01*
X153829314Y-69514513D01*
X153518545Y-69206019D01*
X153516507Y-69203280D01*
X153380292Y-69001868D01*
X153369642Y-68893716D01*
X153477533Y-68811202D01*
X153603560Y-68682357D01*
X153616635Y-68645978D01*
X154091617Y-68645978D01*
X154191295Y-68878773D01*
X154279039Y-68963487D01*
X154498219Y-69017508D01*
X154717033Y-68864990D01*
X154758137Y-68803511D01*
X154777295Y-68592038D01*
X154640494Y-68421312D01*
X154386221Y-68351118D01*
X154352972Y-68352488D01*
X154153835Y-68448013D01*
X154091617Y-68645978D01*
X153616635Y-68645978D01*
X153711394Y-68382319D01*
X153734007Y-68001831D01*
X153661021Y-67608906D01*
X153615738Y-67494253D01*
X153562479Y-67405362D01*
X153978074Y-67405362D01*
X153997509Y-67479080D01*
X154138821Y-67606485D01*
X154183592Y-67617578D01*
X154324915Y-67558604D01*
X154382275Y-67402084D01*
X154314641Y-67234763D01*
X154207712Y-67178912D01*
X154050447Y-67230484D01*
X153978074Y-67405362D01*
X153562479Y-67405362D01*
X153379527Y-67100008D01*
X153090169Y-66752094D01*
X153520770Y-66752094D01*
X153531968Y-66768406D01*
X153678620Y-66830323D01*
X153826913Y-66721845D01*
X153845724Y-66651879D01*
X153776466Y-66487534D01*
X153675321Y-66425164D01*
X153562511Y-66517783D01*
X153523491Y-66602409D01*
X153520770Y-66752094D01*
X153090169Y-66752094D01*
X153044933Y-66697704D01*
X152672468Y-66353963D01*
X152322645Y-66135407D01*
X152228168Y-66103792D01*
X152932807Y-66103792D01*
X152935844Y-66128777D01*
X153037333Y-66208319D01*
X153062318Y-66205282D01*
X153141860Y-66103792D01*
X153138823Y-66078808D01*
X153037333Y-65999266D01*
X153012349Y-66002303D01*
X152932807Y-66103792D01*
X152228168Y-66103792D01*
X152133747Y-66072196D01*
X151874493Y-66083381D01*
X151725905Y-66267785D01*
X151705790Y-66422599D01*
X151678486Y-66632739D01*
X151699483Y-66903512D01*
X151730369Y-67107346D01*
X151763524Y-67326159D01*
X151854983Y-67796193D01*
X151957889Y-68232408D01*
X151981300Y-68308837D01*
X152056272Y-68553601D01*
X152062074Y-68668337D01*
X151912819Y-68716961D01*
X151909102Y-68716995D01*
X151683294Y-68782037D01*
X151430597Y-68934127D01*
X151154515Y-69151293D01*
X150803134Y-68934127D01*
X150743597Y-68898660D01*
X150480241Y-68769288D01*
X150291591Y-68716961D01*
X150278246Y-68716644D01*
X150209138Y-68686002D01*
X150193129Y-68576605D01*
X150232185Y-68347852D01*
X150276166Y-68169924D01*
X150766846Y-68169924D01*
X150802455Y-68379211D01*
X150804175Y-68381924D01*
X150984475Y-68536812D01*
X151214661Y-68601276D01*
X151395338Y-68547159D01*
X151414597Y-68525361D01*
X151477514Y-68308837D01*
X151413831Y-68074792D01*
X151248723Y-67929311D01*
X151095598Y-67911508D01*
X150883208Y-67995224D01*
X150766846Y-68169924D01*
X150276166Y-68169924D01*
X150328269Y-67959142D01*
X150371169Y-67785684D01*
X150482397Y-67194754D01*
X150486490Y-67142891D01*
X150946798Y-67142891D01*
X150960412Y-67262063D01*
X151030184Y-67397311D01*
X151187225Y-67402100D01*
X151315051Y-67280352D01*
X151331154Y-67107346D01*
X151308020Y-67059424D01*
X151165848Y-66949346D01*
X151016187Y-66979873D01*
X150946798Y-67142891D01*
X150486490Y-67142891D01*
X150521773Y-66695780D01*
X150494190Y-66388628D01*
X151043486Y-66388628D01*
X151048919Y-66418277D01*
X151161078Y-66506220D01*
X151211821Y-66511772D01*
X151244700Y-66422599D01*
X151216223Y-66366160D01*
X151111676Y-66307250D01*
X151043486Y-66388628D01*
X150494190Y-66388628D01*
X150488313Y-66323179D01*
X150381034Y-66111372D01*
X150206712Y-66055373D01*
X150014983Y-66103792D01*
X149925563Y-66126374D01*
X149598353Y-66318642D01*
X149260483Y-66601813D01*
X149210467Y-66656714D01*
X148947353Y-66945523D01*
X148694364Y-67319409D01*
X148661440Y-67397554D01*
X148536918Y-67693105D01*
X148507912Y-67842498D01*
X148499073Y-68174183D01*
X148546599Y-68490853D01*
X148588778Y-68600614D01*
X148637765Y-68728093D01*
X148759843Y-68821488D01*
X148834536Y-68844585D01*
X148851557Y-68970983D01*
X148745465Y-69167227D01*
X148534663Y-69387093D01*
X148401445Y-69491387D01*
X148118348Y-69630425D01*
X147820968Y-69623233D01*
X147436412Y-69475693D01*
X147054736Y-69293684D01*
X147105665Y-68659213D01*
X147115632Y-68592690D01*
X147433650Y-68592690D01*
X147493840Y-68814806D01*
X147518751Y-68856549D01*
X147708051Y-69007835D01*
X147913992Y-69000008D01*
X148069522Y-68856468D01*
X148107590Y-68600614D01*
X148088385Y-68524732D01*
X147937743Y-68352784D01*
X147716533Y-68318679D01*
X147507147Y-68443919D01*
X147433650Y-68592690D01*
X147115632Y-68592690D01*
X147180293Y-68161105D01*
X147451130Y-67376653D01*
X147490507Y-67314660D01*
X147841686Y-67314660D01*
X147846099Y-67507878D01*
X147890981Y-67587801D01*
X148020049Y-67671694D01*
X148028201Y-67671450D01*
X148158833Y-67580763D01*
X148204772Y-67397554D01*
X148138455Y-67225655D01*
X148095413Y-67192232D01*
X147945639Y-67189318D01*
X147841686Y-67314660D01*
X147490507Y-67314660D01*
X147888371Y-66688277D01*
X148020284Y-66562434D01*
X148368053Y-66562434D01*
X148380264Y-66721845D01*
X148408623Y-66759339D01*
X148542683Y-66835480D01*
X148641291Y-66802414D01*
X148717530Y-66656714D01*
X148659008Y-66491886D01*
X148630335Y-66468398D01*
X148478645Y-66455484D01*
X148368053Y-66562434D01*
X148020284Y-66562434D01*
X148473656Y-66129924D01*
X148486113Y-66120675D01*
X148505026Y-66103792D01*
X149065317Y-66103792D01*
X149068354Y-66128777D01*
X149169844Y-66208319D01*
X149194828Y-66205282D01*
X149274370Y-66103792D01*
X149271333Y-66078808D01*
X149169844Y-65999266D01*
X149144859Y-66002303D01*
X149065317Y-66103792D01*
X148505026Y-66103792D01*
X148658255Y-65967009D01*
X148656528Y-65899646D01*
X148496050Y-65917095D01*
X148248063Y-65999266D01*
X148191942Y-66017862D01*
X147759324Y-66200455D01*
X147206175Y-66506430D01*
X147186800Y-66521899D01*
X146623224Y-66971853D01*
X146428086Y-67201323D01*
X146169432Y-67505484D01*
X145884598Y-68067681D01*
X145866199Y-68129824D01*
X145815373Y-68301491D01*
X145767612Y-68701295D01*
X145861904Y-69032497D01*
X146109938Y-69362252D01*
X146312067Y-69578284D01*
X146371402Y-69641700D01*
X145971533Y-70120071D01*
X145786826Y-70332733D01*
X145602502Y-70524521D01*
X145505473Y-70598443D01*
X145405850Y-70538443D01*
X145240286Y-70378556D01*
X145171582Y-70310854D01*
X144911560Y-70104209D01*
X144602266Y-69901383D01*
X144522949Y-69854189D01*
X144301076Y-69698595D01*
X144223492Y-69569254D01*
X144254020Y-69415714D01*
X144256778Y-69408165D01*
X144822640Y-69408165D01*
X144895242Y-69618687D01*
X145013498Y-69708891D01*
X145248117Y-69760960D01*
X145441723Y-69692544D01*
X145500502Y-69578284D01*
X145489302Y-69344761D01*
X145367866Y-69146064D01*
X145282175Y-69094212D01*
X145071549Y-69090485D01*
X144899890Y-69213617D01*
X144822640Y-69408165D01*
X144256778Y-69408165D01*
X144302232Y-69283755D01*
X144405439Y-68973862D01*
X144518278Y-68612434D01*
X144647411Y-68236924D01*
X144750663Y-68033094D01*
X145018968Y-68033094D01*
X145023877Y-68239565D01*
X145068860Y-68326311D01*
X145213580Y-68393926D01*
X145395371Y-68260459D01*
X145454866Y-68129824D01*
X145351476Y-67982667D01*
X145326430Y-67963712D01*
X145142067Y-67923697D01*
X145018968Y-68033094D01*
X144750663Y-68033094D01*
X145086878Y-67369371D01*
X145221456Y-67201323D01*
X145615934Y-67201323D01*
X145634146Y-67274443D01*
X145772724Y-67358113D01*
X145845844Y-67339902D01*
X145929514Y-67201323D01*
X145911303Y-67128203D01*
X145772724Y-67044533D01*
X145699604Y-67062745D01*
X145615934Y-67201323D01*
X145221456Y-67201323D01*
X145677559Y-66631786D01*
X145813541Y-66521899D01*
X146347621Y-66521899D01*
X146350659Y-66546884D01*
X146452148Y-66626426D01*
X146477133Y-66623389D01*
X146556675Y-66521899D01*
X146553637Y-66496915D01*
X146452148Y-66417373D01*
X146427164Y-66420410D01*
X146347621Y-66521899D01*
X145813541Y-66521899D01*
X146404829Y-66044078D01*
X146482121Y-65999266D01*
X147079309Y-65999266D01*
X147096998Y-66047351D01*
X147236099Y-66103792D01*
X147308227Y-66092000D01*
X147392889Y-65999266D01*
X147375200Y-65951180D01*
X147236099Y-65894739D01*
X147163971Y-65906532D01*
X147079309Y-65999266D01*
X146482121Y-65999266D01*
X146761193Y-65837466D01*
X147134844Y-65685685D01*
X148020049Y-65685685D01*
X148023087Y-65710670D01*
X148124576Y-65790212D01*
X148149561Y-65787175D01*
X148229103Y-65685685D01*
X148226065Y-65660701D01*
X148124576Y-65581159D01*
X148099592Y-65584196D01*
X148020049Y-65685685D01*
X147134844Y-65685685D01*
X147421213Y-65569359D01*
X148158243Y-65419025D01*
X149028348Y-65372105D01*
X149269580Y-65373098D01*
X149653377Y-65384704D01*
X149891473Y-65415655D01*
X150026956Y-65473759D01*
X150102912Y-65566823D01*
X150196740Y-65685685D01*
X150220388Y-65715642D01*
X150535562Y-65897200D01*
X150940035Y-65981698D01*
X151372061Y-65967085D01*
X151769899Y-65851305D01*
X151998217Y-65685685D01*
X153978074Y-65685685D01*
X153981111Y-65710670D01*
X154082601Y-65790212D01*
X154107585Y-65787175D01*
X154187128Y-65685685D01*
X154184090Y-65660701D01*
X154082601Y-65581159D01*
X154057616Y-65584196D01*
X153978074Y-65685685D01*
X151998217Y-65685685D01*
X152071803Y-65632306D01*
X152145964Y-65548254D01*
X152255561Y-65452860D01*
X152394225Y-65397706D01*
X152606904Y-65374982D01*
X152938546Y-65376876D01*
X153434100Y-65395578D01*
X154061488Y-65439154D01*
X154753464Y-65554252D01*
X155138620Y-65685685D01*
X155333881Y-65752317D01*
G37*
G36*
X173513917Y-102550493D02*
G01*
X173491461Y-102629556D01*
X173434070Y-102977508D01*
X173395885Y-103438926D01*
X173383586Y-103942476D01*
X173387282Y-104176478D01*
X173436906Y-104827598D01*
X173559774Y-105364642D01*
X173776328Y-105856226D01*
X174107006Y-106370966D01*
X174275870Y-106614304D01*
X174408298Y-106824835D01*
X174446367Y-106915714D01*
X174374257Y-106957963D01*
X174161867Y-107075006D01*
X173864424Y-107235593D01*
X173466700Y-107488718D01*
X172899765Y-107981464D01*
X172620345Y-108302536D01*
X172381405Y-108577093D01*
X171946776Y-109227658D01*
X171631038Y-109885213D01*
X171469349Y-110501811D01*
X171460465Y-110609632D01*
X171516575Y-111146159D01*
X171710496Y-111750619D01*
X172019308Y-112374808D01*
X172420092Y-112970521D01*
X172889929Y-113489555D01*
X173206398Y-113751945D01*
X173610389Y-114029434D01*
X174022594Y-114267751D01*
X174365933Y-114425113D01*
X174387160Y-114434842D01*
X174648239Y-114498656D01*
X174695651Y-114503672D01*
X174778897Y-114567470D01*
X174777329Y-114580413D01*
X174767357Y-114604998D01*
X174708466Y-114750188D01*
X174554111Y-115050461D01*
X174513253Y-115124127D01*
X174337017Y-115441877D01*
X174079936Y-115885082D01*
X173805621Y-116340720D01*
X173536825Y-116769437D01*
X173296301Y-117131878D01*
X173111789Y-117370757D01*
X172463260Y-118210377D01*
X172136396Y-118633552D01*
X171792782Y-118994327D01*
X171743004Y-119046591D01*
X171151595Y-119667536D01*
X170782914Y-120054630D01*
X169267245Y-121356530D01*
X167596437Y-122535933D01*
X165777537Y-123589525D01*
X163817593Y-124513989D01*
X161723651Y-125306008D01*
X159502759Y-125962267D01*
X157161964Y-126479449D01*
X154708314Y-126854238D01*
X152148856Y-127083317D01*
X152090649Y-127086305D01*
X151713333Y-127095339D01*
X151200141Y-127096772D01*
X150611054Y-127090768D01*
X150006058Y-127077488D01*
X148698229Y-127018133D01*
X146313403Y-126793276D01*
X143998490Y-126423767D01*
X141766188Y-125914692D01*
X139629196Y-125271138D01*
X137600212Y-124498191D01*
X135691933Y-123600940D01*
X133917057Y-122584469D01*
X132288283Y-121453867D01*
X130818308Y-120214221D01*
X129519830Y-118870616D01*
X129243314Y-118540103D01*
X129099080Y-118354256D01*
X130320067Y-118354256D01*
X130355029Y-118410229D01*
X130572053Y-118630754D01*
X130949125Y-118974250D01*
X131424364Y-119382001D01*
X131959575Y-119822643D01*
X132516564Y-120264811D01*
X133057135Y-120677138D01*
X133543095Y-121028260D01*
X134164578Y-121448458D01*
X136264636Y-122705158D01*
X138464615Y-123783220D01*
X140749717Y-124677337D01*
X143105145Y-125382199D01*
X145516101Y-125892498D01*
X147967786Y-126202925D01*
X148308017Y-126227029D01*
X149026662Y-126259618D01*
X149859751Y-126280400D01*
X150747548Y-126288977D01*
X151630322Y-126284949D01*
X152448337Y-126267917D01*
X153141860Y-126237483D01*
X153466584Y-126212537D01*
X154134065Y-126142532D01*
X154905795Y-126044520D01*
X155718965Y-125927246D01*
X156510770Y-125799454D01*
X157218403Y-125669889D01*
X157365469Y-125640333D01*
X159471556Y-125119442D01*
X161573773Y-124423434D01*
X163627375Y-123570752D01*
X165587619Y-122579840D01*
X167409761Y-121469138D01*
X167413037Y-121466944D01*
X167842409Y-121171467D01*
X168294305Y-120847575D01*
X168736439Y-120520001D01*
X169136523Y-120213478D01*
X169462271Y-119952737D01*
X169681396Y-119762512D01*
X169761613Y-119667536D01*
X169755023Y-119665672D01*
X169640082Y-119734048D01*
X169411643Y-119897878D01*
X169108321Y-120129836D01*
X169046399Y-120178148D01*
X168431929Y-120614492D01*
X168238099Y-120752133D01*
X167573600Y-121224003D01*
X165939898Y-122206551D01*
X165382141Y-122492744D01*
X164187187Y-123105891D01*
X163547025Y-123384451D01*
X163186704Y-123541241D01*
X162357362Y-123902121D01*
X161881608Y-124073852D01*
X160492316Y-124575339D01*
X158633945Y-125105643D01*
X158459619Y-125148085D01*
X156900752Y-125489755D01*
X155404483Y-125741961D01*
X153905008Y-125912374D01*
X152336521Y-126008669D01*
X150633218Y-126038518D01*
X149622620Y-126026167D01*
X147673769Y-125924831D01*
X145832408Y-125715687D01*
X144046660Y-125391970D01*
X142264646Y-124946911D01*
X141320300Y-124663676D01*
X139020095Y-123830968D01*
X137238994Y-123018607D01*
X142480132Y-123018607D01*
X142532395Y-123070871D01*
X142584658Y-123018607D01*
X142532395Y-122966344D01*
X142480132Y-123018607D01*
X137238994Y-123018607D01*
X136816732Y-122826013D01*
X136132806Y-122443710D01*
X140556416Y-122443710D01*
X140636056Y-122408319D01*
X140864698Y-122286770D01*
X141202060Y-122099103D01*
X141609206Y-121866657D01*
X141966585Y-121667364D01*
X142287220Y-121504310D01*
X142495745Y-121417426D01*
X142558590Y-121422418D01*
X142520304Y-121537491D01*
X142436503Y-121810504D01*
X142334607Y-122156262D01*
X142246150Y-122427603D01*
X142116546Y-122681282D01*
X141980710Y-122764637D01*
X141933083Y-122767369D01*
X141876490Y-122792845D01*
X142009761Y-122861817D01*
X142036149Y-122873110D01*
X142245439Y-122944649D01*
X142332311Y-122890516D01*
X142357196Y-122678895D01*
X142360813Y-122624160D01*
X142394264Y-122425371D01*
X143002765Y-122425371D01*
X143063464Y-122739454D01*
X143253537Y-123018607D01*
X143302224Y-123090112D01*
X143692493Y-123343229D01*
X143701645Y-123347011D01*
X144029760Y-123446446D01*
X144332124Y-123485799D01*
X144421934Y-123481769D01*
X144595514Y-123433633D01*
X145650464Y-123433633D01*
X145737453Y-123543435D01*
X145943858Y-123692008D01*
X146315295Y-123857858D01*
X146764112Y-123917675D01*
X147177954Y-123841315D01*
X147489316Y-123667785D01*
X149013053Y-123667785D01*
X149222107Y-123887399D01*
X149377854Y-124016570D01*
X149748845Y-124160770D01*
X150162293Y-124170734D01*
X150569184Y-124063012D01*
X150920505Y-123854152D01*
X151167241Y-123560702D01*
X151260379Y-123199212D01*
X151239053Y-122979505D01*
X151062168Y-122575651D01*
X150728374Y-122272780D01*
X150264416Y-122090572D01*
X150178140Y-122084206D01*
X151535386Y-122084206D01*
X151614533Y-122160920D01*
X151638751Y-122179907D01*
X151719637Y-122285511D01*
X151763237Y-122461043D01*
X151776199Y-122752638D01*
X151765344Y-123199212D01*
X151765169Y-123206432D01*
X151730749Y-124116626D01*
X152253383Y-124104257D01*
X152447130Y-124095601D01*
X152612540Y-124073852D01*
X152607065Y-124046776D01*
X152603598Y-124045756D01*
X152495788Y-123915779D01*
X152407450Y-123639094D01*
X152343684Y-123273979D01*
X152309588Y-122878715D01*
X152310261Y-122511583D01*
X152337731Y-122321357D01*
X152840405Y-122321357D01*
X152842065Y-122354555D01*
X152863588Y-122486809D01*
X152901476Y-122411643D01*
X152993411Y-122279363D01*
X153185787Y-122140545D01*
X153392754Y-122054390D01*
X153531159Y-122066479D01*
X153541915Y-122100321D01*
X153563888Y-122301530D01*
X153582663Y-122638419D01*
X153595057Y-123061423D01*
X153596678Y-123150008D01*
X153607509Y-123566201D01*
X153628847Y-123819785D01*
X153672456Y-123950509D01*
X153750101Y-123998123D01*
X153873547Y-124002375D01*
X153923505Y-124000634D01*
X154212453Y-123960051D01*
X154328387Y-123855779D01*
X154300244Y-123664934D01*
X154292423Y-123634353D01*
X155221958Y-123634353D01*
X155223317Y-123749643D01*
X155275004Y-123790307D01*
X155374006Y-123792139D01*
X155497522Y-123780451D01*
X155721414Y-123737383D01*
X155906996Y-123681335D01*
X155998790Y-123630713D01*
X155941319Y-123603924D01*
X155851782Y-123580532D01*
X155833960Y-123541241D01*
X156695770Y-123541241D01*
X156748033Y-123593504D01*
X156800296Y-123541241D01*
X156748033Y-123488978D01*
X156695770Y-123541241D01*
X155833960Y-123541241D01*
X155800967Y-123468502D01*
X155873964Y-123308742D01*
X156041625Y-123150336D01*
X156274803Y-123042365D01*
X156613257Y-122992588D01*
X156833201Y-123066402D01*
X156904823Y-123276644D01*
X156939676Y-123415578D01*
X157113877Y-123488978D01*
X157235384Y-123469377D01*
X157322930Y-123384451D01*
X157320354Y-123359846D01*
X157231464Y-123279924D01*
X157172530Y-123239584D01*
X157003794Y-123064003D01*
X156762499Y-122781170D01*
X156479506Y-122426126D01*
X156268491Y-122160053D01*
X156030193Y-121878765D01*
X155862820Y-121704848D01*
X155793533Y-121668307D01*
X155772910Y-121739758D01*
X155700598Y-121982540D01*
X155683857Y-122038189D01*
X155591194Y-122346218D01*
X155458913Y-122783422D01*
X155382274Y-123036713D01*
X155273939Y-123408641D01*
X155221958Y-123634353D01*
X154292423Y-123634353D01*
X154250404Y-123470059D01*
X154191211Y-123128898D01*
X154140369Y-122731159D01*
X154120975Y-122543938D01*
X154098778Y-122248151D01*
X154116087Y-122093840D01*
X154184269Y-122034994D01*
X154314693Y-122025603D01*
X154489956Y-122051070D01*
X154688856Y-122151035D01*
X154709478Y-122170746D01*
X154792231Y-122196261D01*
X154814288Y-122038189D01*
X154813418Y-121983715D01*
X154788085Y-121882437D01*
X154692861Y-121836648D01*
X154481744Y-121835178D01*
X154108732Y-121866855D01*
X153698101Y-121907304D01*
X153293794Y-121956941D01*
X153039553Y-122011095D01*
X152901697Y-122081835D01*
X152846541Y-122181233D01*
X152840405Y-122321357D01*
X152337731Y-122321357D01*
X152350800Y-122230861D01*
X152436304Y-122094829D01*
X152436723Y-122071290D01*
X152283859Y-122046659D01*
X151998219Y-122033855D01*
X151802736Y-122032596D01*
X151588040Y-122044769D01*
X151535386Y-122084206D01*
X150178140Y-122084206D01*
X149697034Y-122048707D01*
X149534951Y-122059708D01*
X149301079Y-122099707D01*
X149190763Y-122188299D01*
X149145125Y-122358537D01*
X149103513Y-122639207D01*
X149406015Y-122384669D01*
X149458176Y-122342204D01*
X149785605Y-122160928D01*
X150080161Y-122175735D01*
X150376652Y-122386696D01*
X150526231Y-122608249D01*
X150629838Y-122999974D01*
X150630371Y-123001988D01*
X150613761Y-123421511D01*
X150470501Y-123779300D01*
X150309096Y-123918080D01*
X149988075Y-124009097D01*
X149617513Y-123984213D01*
X149271496Y-123839698D01*
X149013053Y-123667785D01*
X147489316Y-123667785D01*
X147522557Y-123649259D01*
X147763653Y-123361985D01*
X147866975Y-122999974D01*
X147798257Y-122583705D01*
X147728840Y-122424825D01*
X147456455Y-122065822D01*
X147061690Y-121854919D01*
X146518525Y-121775689D01*
X146207345Y-121777328D01*
X145965952Y-121830828D01*
X145852986Y-121967293D01*
X145824988Y-122214200D01*
X145827325Y-122261688D01*
X145870562Y-122294883D01*
X145987705Y-122153388D01*
X146018230Y-122112948D01*
X146227108Y-121963998D01*
X146556675Y-121921076D01*
X146653526Y-121925046D01*
X147004347Y-122039615D01*
X147216892Y-122310128D01*
X147232700Y-122403766D01*
X147288362Y-122733476D01*
X147282005Y-122879842D01*
X147169821Y-123311703D01*
X146942849Y-123608941D01*
X146634043Y-123753121D01*
X146276356Y-123725809D01*
X145902742Y-123508573D01*
X145772735Y-123423445D01*
X145655768Y-123414301D01*
X145650464Y-123433633D01*
X144595514Y-123433633D01*
X144845862Y-123364208D01*
X145156099Y-123116529D01*
X145344508Y-122781969D01*
X145402954Y-122403766D01*
X145323301Y-122025156D01*
X145097413Y-121689377D01*
X144717153Y-121439665D01*
X144647174Y-121412019D01*
X144583796Y-121399024D01*
X157323870Y-121399024D01*
X157372198Y-121451644D01*
X157477028Y-121678988D01*
X157581325Y-122017480D01*
X157671678Y-122405327D01*
X157734674Y-122780732D01*
X157756903Y-123081902D01*
X157724952Y-123247042D01*
X157670304Y-123318540D01*
X157649843Y-123374189D01*
X157923529Y-123301057D01*
X158262134Y-123203165D01*
X158447330Y-123132492D01*
X158510934Y-123075490D01*
X158484763Y-123018607D01*
X158436910Y-122929793D01*
X158347872Y-122696160D01*
X158242372Y-122378920D01*
X158137392Y-122034302D01*
X158049915Y-121718531D01*
X157996924Y-121487836D01*
X157995402Y-121398443D01*
X158018795Y-121417766D01*
X158149579Y-121559556D01*
X158366094Y-121808970D01*
X158636883Y-122130130D01*
X158775329Y-122294144D01*
X159031737Y-122585387D01*
X159223817Y-122786677D01*
X159317879Y-122861817D01*
X159340084Y-122831773D01*
X159396565Y-122641197D01*
X159465122Y-122313789D01*
X159535535Y-121894945D01*
X159681683Y-120928072D01*
X159927718Y-121650991D01*
X159965162Y-121762935D01*
X160075690Y-122147196D01*
X160105596Y-122396175D01*
X160061389Y-122553833D01*
X160052622Y-122567988D01*
X160007704Y-122670782D01*
X160083216Y-122684975D01*
X160317694Y-122620608D01*
X160511986Y-122553595D01*
X160585390Y-122492744D01*
X160492610Y-122435786D01*
X160470103Y-122423534D01*
X160340639Y-122258418D01*
X160193584Y-121963209D01*
X160051073Y-121599420D01*
X159935243Y-121228565D01*
X159886553Y-120998668D01*
X160507287Y-120998668D01*
X160550776Y-121406189D01*
X160780307Y-121767529D01*
X160823015Y-121808177D01*
X161223312Y-122038538D01*
X161692864Y-122079807D01*
X162208607Y-121929370D01*
X162539853Y-121722734D01*
X162826625Y-121376348D01*
X162935742Y-120978931D01*
X162859380Y-120566498D01*
X162589715Y-120175067D01*
X162500909Y-120091144D01*
X162324659Y-119979165D01*
X162101047Y-119941663D01*
X161750566Y-119958079D01*
X161371494Y-120012111D01*
X161097874Y-120125206D01*
X160845898Y-120335874D01*
X160824956Y-120362736D01*
X160647776Y-120590000D01*
X160507287Y-120998668D01*
X159886553Y-120998668D01*
X159868231Y-120912159D01*
X159872174Y-120711715D01*
X159896886Y-120637934D01*
X159880735Y-120574591D01*
X159753595Y-120598103D01*
X159475716Y-120708109D01*
X159426969Y-120728802D01*
X159257254Y-120820819D01*
X159157635Y-120949185D01*
X159133595Y-121040386D01*
X159099103Y-121171240D01*
X159052647Y-121544323D01*
X159002602Y-121890047D01*
X158941304Y-122139468D01*
X158882512Y-122234657D01*
X158866039Y-122233508D01*
X158781848Y-122156262D01*
X158742495Y-122080462D01*
X158596420Y-121883658D01*
X158380272Y-121625790D01*
X158173287Y-121399406D01*
X157995797Y-121257343D01*
X157824133Y-121217506D01*
X157590438Y-121247387D01*
X157507396Y-121264841D01*
X157324108Y-121332233D01*
X157323870Y-121399024D01*
X144583796Y-121399024D01*
X144139323Y-121307890D01*
X143689406Y-121375301D01*
X143328973Y-121596112D01*
X143089576Y-121952182D01*
X143002765Y-122425371D01*
X142394264Y-122425371D01*
X142421999Y-122260547D01*
X142535308Y-121864852D01*
X142678237Y-121496493D01*
X142828284Y-121214888D01*
X142962944Y-121079457D01*
X143036001Y-121040386D01*
X142982742Y-120990961D01*
X142737121Y-120937125D01*
X142537373Y-120912917D01*
X142308767Y-120934321D01*
X142052875Y-121035188D01*
X141698002Y-121236149D01*
X141692313Y-121239573D01*
X141373131Y-121425041D01*
X141125072Y-121557149D01*
X141001411Y-121607496D01*
X140997764Y-121607069D01*
X140985519Y-121512615D01*
X141036470Y-121298487D01*
X141128221Y-121030616D01*
X141238375Y-120774938D01*
X141344535Y-120597385D01*
X141399101Y-120513349D01*
X141351685Y-120457702D01*
X141268292Y-120448796D01*
X141051438Y-120395578D01*
X141027170Y-120387818D01*
X140927941Y-120368659D01*
X141011198Y-120440593D01*
X141047284Y-120473040D01*
X141084540Y-120573610D01*
X141065618Y-120751484D01*
X140983899Y-121045807D01*
X140832764Y-121495721D01*
X140746475Y-121749470D01*
X140675318Y-121973340D01*
X140632870Y-122106889D01*
X140565397Y-122352438D01*
X140556416Y-122443710D01*
X136132806Y-122443710D01*
X135291331Y-121973340D01*
X139448856Y-121973340D01*
X139501119Y-122025603D01*
X139553383Y-121973340D01*
X139501119Y-121921076D01*
X139448856Y-121973340D01*
X135291331Y-121973340D01*
X134761361Y-121677096D01*
X138665650Y-121677096D01*
X138791385Y-121739144D01*
X138894121Y-121770808D01*
X139135276Y-121857529D01*
X139211568Y-121854027D01*
X139320580Y-121737731D01*
X139458454Y-121472677D01*
X139640950Y-121033174D01*
X139723171Y-120832044D01*
X139886207Y-120479050D01*
X140025138Y-120235150D01*
X140116547Y-120144122D01*
X140235948Y-120172489D01*
X140419633Y-120345195D01*
X140500749Y-120609266D01*
X140506662Y-120711027D01*
X140535035Y-120734767D01*
X140608462Y-120570641D01*
X140642628Y-120481449D01*
X140663851Y-120362736D01*
X140612521Y-120264188D01*
X140458411Y-120160958D01*
X140171295Y-120028198D01*
X139720945Y-119841061D01*
X139349799Y-119694693D01*
X139060631Y-119602289D01*
X138892084Y-119586772D01*
X138807937Y-119640171D01*
X138732109Y-119788525D01*
X138753032Y-119884195D01*
X138918650Y-119834594D01*
X138934366Y-119826596D01*
X139162662Y-119777637D01*
X139362925Y-119824801D01*
X139448856Y-119949401D01*
X139419900Y-120077399D01*
X139319663Y-120353008D01*
X139174706Y-120698604D01*
X139013361Y-121050237D01*
X138863963Y-121343958D01*
X138754845Y-121515817D01*
X138710883Y-121567273D01*
X138665650Y-121677096D01*
X134761361Y-121677096D01*
X134724435Y-121656455D01*
X133334369Y-120719019D01*
X136731160Y-120719019D01*
X136783424Y-120771282D01*
X136835687Y-120719019D01*
X136783424Y-120666755D01*
X136731160Y-120719019D01*
X133334369Y-120719019D01*
X132757426Y-120329939D01*
X132499280Y-120121469D01*
X135547941Y-120121469D01*
X135874062Y-120290112D01*
X135874893Y-120290542D01*
X136069322Y-120378559D01*
X136236442Y-120398010D01*
X136448365Y-120341984D01*
X136777199Y-120203572D01*
X137045951Y-120096748D01*
X137291932Y-120027399D01*
X137407042Y-120033863D01*
X137411934Y-120069679D01*
X137349670Y-120247500D01*
X137205210Y-120494599D01*
X137137839Y-120600831D01*
X137081281Y-120719019D01*
X137036093Y-120813446D01*
X137034850Y-120921959D01*
X137099204Y-120959566D01*
X137356845Y-121070883D01*
X137556714Y-121102975D01*
X137637059Y-121043389D01*
X137644829Y-120980677D01*
X137723943Y-120735484D01*
X137865634Y-120409160D01*
X138041531Y-120056619D01*
X138223267Y-119732776D01*
X138382471Y-119492546D01*
X138490775Y-119390843D01*
X138507722Y-119380730D01*
X138440790Y-119303802D01*
X138226575Y-119172959D01*
X137898378Y-119009630D01*
X137737909Y-118937963D01*
X137254263Y-118764071D01*
X136909125Y-118724354D01*
X136684974Y-118819336D01*
X136564290Y-119049540D01*
X136549585Y-119238966D01*
X136629857Y-119468581D01*
X136671247Y-119520590D01*
X136715958Y-119619082D01*
X136657080Y-119701257D01*
X136463012Y-119794525D01*
X136102155Y-119926295D01*
X135547941Y-120121469D01*
X132499280Y-120121469D01*
X130929926Y-118854110D01*
X130637668Y-118600643D01*
X130420856Y-118422804D01*
X130320067Y-118354256D01*
X129099080Y-118354256D01*
X128740086Y-117891690D01*
X128226830Y-117180541D01*
X128181121Y-117112846D01*
X131300697Y-117112846D01*
X131309636Y-117127952D01*
X131433992Y-117244486D01*
X131674123Y-117441984D01*
X131990774Y-117687743D01*
X132064427Y-117743491D01*
X132463181Y-118041615D01*
X132724282Y-118226513D01*
X132870909Y-118312078D01*
X132926244Y-118312204D01*
X132924715Y-118303658D01*
X133627437Y-118303658D01*
X133641475Y-118535625D01*
X133764082Y-118792644D01*
X133770675Y-118803765D01*
X133987783Y-119095387D01*
X134231568Y-119330768D01*
X134266671Y-119355114D01*
X134573596Y-119499725D01*
X134922297Y-119588654D01*
X135210166Y-119604057D01*
X135437492Y-119530142D01*
X135694822Y-119330379D01*
X135703670Y-119322404D01*
X135976628Y-118957449D01*
X136059711Y-118557555D01*
X135960633Y-118154773D01*
X135687107Y-117781157D01*
X135246845Y-117468758D01*
X135104618Y-117404907D01*
X134654292Y-117324577D01*
X134238086Y-117415940D01*
X133901418Y-117662150D01*
X133689700Y-118046360D01*
X133627437Y-118303658D01*
X132924715Y-118303658D01*
X132913465Y-118240785D01*
X132914783Y-118197513D01*
X132999862Y-118001654D01*
X133177775Y-117707923D01*
X133422210Y-117361781D01*
X133885067Y-116747002D01*
X134117992Y-116747002D01*
X134170255Y-116799266D01*
X134222518Y-116747002D01*
X134170255Y-116694739D01*
X134117992Y-116747002D01*
X133885067Y-116747002D01*
X133982407Y-116617712D01*
X133642986Y-116346881D01*
X133463576Y-116212603D01*
X133354810Y-116168661D01*
X133350079Y-116254736D01*
X133347311Y-116316454D01*
X133257196Y-116535342D01*
X133083037Y-116830726D01*
X132861928Y-117150745D01*
X132630958Y-117443539D01*
X132427219Y-117657246D01*
X132287802Y-117740006D01*
X132251974Y-117732340D01*
X132078684Y-117617890D01*
X131872781Y-117409876D01*
X131814843Y-117338164D01*
X131661364Y-117064261D01*
X131657121Y-116808847D01*
X131719247Y-116537949D01*
X131509833Y-116799266D01*
X131501165Y-116810127D01*
X131359177Y-117003443D01*
X131300697Y-117112846D01*
X128181121Y-117112846D01*
X127741072Y-116461137D01*
X127320339Y-115787957D01*
X127002155Y-115215481D01*
X126989002Y-115189397D01*
X126833373Y-114867832D01*
X126792881Y-114751999D01*
X134431572Y-114751999D01*
X134432907Y-114758204D01*
X134536974Y-114865058D01*
X134785707Y-115057693D01*
X135148934Y-115315646D01*
X135596486Y-115618453D01*
X136098191Y-115945649D01*
X136623880Y-116276771D01*
X137143381Y-116591355D01*
X137188914Y-116617712D01*
X137412270Y-116747002D01*
X137607233Y-116859857D01*
X139713760Y-117936349D01*
X141248989Y-118557555D01*
X141878014Y-118812080D01*
X143749886Y-119380730D01*
X144103456Y-119488140D01*
X146393543Y-119965617D01*
X148751737Y-120245600D01*
X149673690Y-120302973D01*
X151040846Y-120331596D01*
X152369422Y-120281341D01*
X153735174Y-120148502D01*
X155213860Y-119929372D01*
X156410906Y-119679126D01*
X162682833Y-119679126D01*
X162758321Y-119830541D01*
X162782535Y-119866379D01*
X162844676Y-119906402D01*
X162861247Y-119755824D01*
X162912210Y-119606423D01*
X163050951Y-119435993D01*
X163212224Y-119322145D01*
X163329917Y-119325571D01*
X163377318Y-119391760D01*
X163503571Y-119619813D01*
X163657367Y-119936203D01*
X163814418Y-120285907D01*
X163950437Y-120613901D01*
X164041137Y-120865161D01*
X164061218Y-120978931D01*
X164062230Y-120984664D01*
X164034870Y-121030925D01*
X164033893Y-121069825D01*
X164136730Y-121033238D01*
X164384791Y-120911813D01*
X164704677Y-120752133D01*
X164633222Y-120614492D01*
X164848856Y-120614492D01*
X164901119Y-120666755D01*
X164953383Y-120614492D01*
X164901119Y-120562229D01*
X164848856Y-120614492D01*
X164633222Y-120614492D01*
X164247936Y-119872328D01*
X164158899Y-119699373D01*
X163983525Y-119338732D01*
X163898029Y-119112884D01*
X163891847Y-118987909D01*
X163954416Y-118929889D01*
X164118812Y-118905441D01*
X164384199Y-118934158D01*
X164518876Y-118963375D01*
X164597963Y-118937329D01*
X164538171Y-118790684D01*
X164527728Y-118771432D01*
X164465811Y-118686958D01*
X164375627Y-118660467D01*
X164217597Y-118701037D01*
X163952144Y-118817744D01*
X163539688Y-119019665D01*
X163512658Y-119033084D01*
X163084394Y-119253620D01*
X162820348Y-119417150D01*
X162695002Y-119550157D01*
X162682833Y-119679126D01*
X156410906Y-119679126D01*
X156999518Y-119556075D01*
X159001493Y-118977661D01*
X160543467Y-118405524D01*
X164697823Y-118405524D01*
X164768794Y-118451474D01*
X164783392Y-118456113D01*
X164929902Y-118579103D01*
X165135286Y-118828606D01*
X165359891Y-119157277D01*
X165418611Y-119250404D01*
X165627543Y-119560994D01*
X165786679Y-119735978D01*
X165939228Y-119813209D01*
X166128397Y-119830541D01*
X166201342Y-119827349D01*
X166567109Y-119730001D01*
X166805821Y-119587445D01*
X169866140Y-119587445D01*
X169884148Y-119620286D01*
X169983342Y-119552467D01*
X170187631Y-119334039D01*
X170441037Y-119046591D01*
X170153588Y-119299996D01*
X170109344Y-119339407D01*
X169936259Y-119503410D01*
X169866140Y-119587445D01*
X166805821Y-119587445D01*
X166903141Y-119529327D01*
X167150335Y-119269410D01*
X167249588Y-118994327D01*
X167248841Y-118981979D01*
X167185386Y-118802337D01*
X167039716Y-118511495D01*
X166839854Y-118166095D01*
X166804233Y-118107454D01*
X166622582Y-117780665D01*
X166508944Y-117527248D01*
X166486637Y-117397922D01*
X166480508Y-117379645D01*
X166354489Y-117423059D01*
X166120645Y-117546236D01*
X166118843Y-117547273D01*
X165874323Y-117702193D01*
X165799281Y-117797224D01*
X165872892Y-117858623D01*
X165949855Y-117906809D01*
X166143201Y-118120019D01*
X166353245Y-118433188D01*
X166542875Y-118781521D01*
X166674981Y-119100220D01*
X166712451Y-119324490D01*
X166655247Y-119466796D01*
X166447969Y-119642457D01*
X166173179Y-119718428D01*
X165915827Y-119659032D01*
X165814863Y-119568251D01*
X165630523Y-119333420D01*
X165432930Y-119029560D01*
X165256914Y-118715620D01*
X165137302Y-118450550D01*
X165108924Y-118293299D01*
X165118128Y-118256212D01*
X165068369Y-118220999D01*
X164876116Y-118293051D01*
X164816778Y-118321207D01*
X164697823Y-118405524D01*
X160543467Y-118405524D01*
X160983902Y-118242104D01*
X162892591Y-117367473D01*
X163222981Y-117195865D01*
X163842758Y-116855597D01*
X164339249Y-116568231D01*
X167703247Y-116568231D01*
X167720048Y-116788093D01*
X167763667Y-117138409D01*
X167828809Y-117572666D01*
X167869944Y-117845882D01*
X167919051Y-118248215D01*
X167940492Y-118544575D01*
X167929737Y-118685048D01*
X167911492Y-118718798D01*
X167931322Y-118779836D01*
X168077976Y-118726245D01*
X168319705Y-118567589D01*
X168480792Y-118432427D01*
X168544100Y-118288295D01*
X168519299Y-118210377D01*
X168716346Y-118210377D01*
X168768609Y-118262640D01*
X168820872Y-118210377D01*
X168768609Y-118158113D01*
X168716346Y-118210377D01*
X168519299Y-118210377D01*
X168480824Y-118089501D01*
X168455227Y-118030666D01*
X168421770Y-117868403D01*
X168499710Y-117724433D01*
X168718594Y-117529118D01*
X168901434Y-117391854D01*
X169103766Y-117303305D01*
X169271138Y-117339110D01*
X169374230Y-117428320D01*
X169406229Y-117593651D01*
X169397743Y-117617050D01*
X169405356Y-117693589D01*
X169549091Y-117637336D01*
X169572954Y-117624204D01*
X169759736Y-117486794D01*
X169830559Y-117370757D01*
X169755456Y-117321899D01*
X169688357Y-117306476D01*
X169453495Y-117221627D01*
X169105480Y-117079286D01*
X168691963Y-116898428D01*
X168427441Y-116781801D01*
X168069577Y-116633212D01*
X167815748Y-116539672D01*
X167708714Y-116517734D01*
X167703247Y-116568231D01*
X164339249Y-116568231D01*
X164487099Y-116482656D01*
X165113949Y-116102775D01*
X165681256Y-115741692D01*
X166146964Y-115425140D01*
X166469021Y-115178855D01*
X166525401Y-115124127D01*
X166482954Y-115128507D01*
X166300571Y-115232032D01*
X165998650Y-115424067D01*
X164844800Y-116141759D01*
X162720457Y-117276558D01*
X160509861Y-118230895D01*
X158232604Y-118997658D01*
X155908274Y-119569737D01*
X153556462Y-119940022D01*
X153016172Y-119983668D01*
X152280319Y-120012845D01*
X151429700Y-120024548D01*
X150510539Y-120019794D01*
X149569058Y-119999602D01*
X148651482Y-119964988D01*
X147804034Y-119916970D01*
X147072936Y-119856566D01*
X146504411Y-119784793D01*
X146142673Y-119723127D01*
X143857126Y-119215835D01*
X141614893Y-118516648D01*
X139441011Y-117635525D01*
X137360516Y-116582424D01*
X135398444Y-115367303D01*
X135050598Y-115132928D01*
X134729558Y-114923295D01*
X134511784Y-114789044D01*
X134431572Y-114751999D01*
X126792881Y-114751999D01*
X126768376Y-114681898D01*
X126785659Y-114586260D01*
X126876867Y-114535586D01*
X127504318Y-114262515D01*
X128246386Y-113787827D01*
X128265725Y-113770248D01*
X133292861Y-113770248D01*
X133341696Y-113856587D01*
X133490831Y-114029307D01*
X133515202Y-114054980D01*
X133689171Y-114222225D01*
X133788589Y-114290624D01*
X133928801Y-114290624D01*
X133945016Y-114348257D01*
X134065728Y-114499677D01*
X134206370Y-114640039D01*
X134307183Y-114708731D01*
X134290968Y-114651097D01*
X134170255Y-114499677D01*
X134029613Y-114359316D01*
X133928801Y-114290624D01*
X133788589Y-114290624D01*
X133793328Y-114288366D01*
X133744494Y-114202027D01*
X133595358Y-114029307D01*
X133570987Y-114003633D01*
X133397018Y-113836389D01*
X133297600Y-113767990D01*
X133292861Y-113770248D01*
X128265725Y-113770248D01*
X128886430Y-113206043D01*
X129371587Y-112559045D01*
X129417977Y-112477891D01*
X129676346Y-111943186D01*
X129873259Y-111394224D01*
X129989573Y-110893076D01*
X130006141Y-110501811D01*
X129981294Y-110359579D01*
X129821862Y-109859359D01*
X129562116Y-109301648D01*
X129236883Y-108754972D01*
X128880989Y-108287860D01*
X128838875Y-108241785D01*
X128805019Y-108209480D01*
X130252760Y-108209480D01*
X130309900Y-108330820D01*
X130481302Y-108585495D01*
X130742550Y-108938064D01*
X131068977Y-109357455D01*
X131435914Y-109812598D01*
X131818694Y-110272420D01*
X132192650Y-110705849D01*
X132533113Y-111081816D01*
X133139303Y-111717991D01*
X133732925Y-112308803D01*
X134305208Y-112836247D01*
X134913248Y-113352744D01*
X135614139Y-113910719D01*
X135643831Y-113933788D01*
X136039737Y-114235584D01*
X136111845Y-114288366D01*
X136376230Y-114481891D01*
X136618534Y-114647883D01*
X136731874Y-114708731D01*
X136836945Y-114647082D01*
X136988510Y-114473546D01*
X137027572Y-114419184D01*
X137377349Y-114004993D01*
X137806021Y-113585899D01*
X138248336Y-113221317D01*
X138639042Y-112970661D01*
X138837805Y-112859130D01*
X139032513Y-112714789D01*
X139083828Y-112619515D01*
X138996881Y-112535914D01*
X138772512Y-112351199D01*
X138448455Y-112097491D01*
X138060823Y-111803594D01*
X136568202Y-110774991D01*
X134833876Y-109790740D01*
X133045220Y-108995828D01*
X132904582Y-108942569D01*
X132428989Y-108774369D01*
X131921991Y-108609401D01*
X131421784Y-108458420D01*
X130966562Y-108332182D01*
X130594521Y-108241442D01*
X130343855Y-108196956D01*
X130252760Y-108209480D01*
X128805019Y-108209480D01*
X128527034Y-107944233D01*
X128139227Y-107623742D01*
X127731916Y-107322479D01*
X127361565Y-107082612D01*
X127084637Y-106946309D01*
X127065441Y-106935509D01*
X127073912Y-106811660D01*
X127234247Y-106580842D01*
X127656066Y-105941877D01*
X127958310Y-105142254D01*
X128100587Y-104251367D01*
X128078756Y-103296290D01*
X127904624Y-102387365D01*
X128862634Y-102387365D01*
X128889954Y-102407516D01*
X129074092Y-102515883D01*
X129395073Y-102691524D01*
X129817299Y-102915184D01*
X130305172Y-103167609D01*
X130312639Y-103171433D01*
X130920786Y-103495413D01*
X131574556Y-103864125D01*
X132195928Y-104232484D01*
X132706881Y-104555408D01*
X133114502Y-104825766D01*
X133475957Y-105065224D01*
X133741152Y-105240602D01*
X133871139Y-105326119D01*
X133908341Y-105336598D01*
X133994091Y-105225211D01*
X134064177Y-104909389D01*
X134126530Y-104593437D01*
X134315488Y-104082395D01*
X134581470Y-103739142D01*
X134674339Y-103649338D01*
X134745152Y-103531676D01*
X134740719Y-103517614D01*
X134613586Y-103414092D01*
X134343539Y-103263132D01*
X133974483Y-103085047D01*
X133550323Y-102900149D01*
X133114961Y-102728751D01*
X132712303Y-102591165D01*
X132649697Y-102572612D01*
X132161469Y-102453448D01*
X131592634Y-102346199D01*
X131053749Y-102272129D01*
X130793329Y-102249676D01*
X130313114Y-102227524D01*
X129843392Y-102226193D01*
X129423822Y-102243598D01*
X129094065Y-102277652D01*
X128893782Y-102326269D01*
X128862634Y-102387365D01*
X127904624Y-102387365D01*
X127888672Y-102304101D01*
X127873086Y-102235422D01*
X127894094Y-102123098D01*
X128032202Y-102052140D01*
X128332769Y-101990521D01*
X128441038Y-101974846D01*
X128868300Y-101939548D01*
X129414134Y-101920069D01*
X130023993Y-101915731D01*
X130643326Y-101925857D01*
X131217584Y-101949768D01*
X131692218Y-101986788D01*
X132012679Y-102036239D01*
X132468271Y-102148401D01*
X132402150Y-101817249D01*
X132337041Y-101577552D01*
X132151403Y-101101618D01*
X131898286Y-100579108D01*
X131614532Y-100083640D01*
X131336986Y-99688835D01*
X130968018Y-99238558D01*
X131259605Y-99349419D01*
X132079701Y-99729923D01*
X133046703Y-100360930D01*
X133928014Y-101137893D01*
X134685557Y-102026325D01*
X135281254Y-102991740D01*
X135554419Y-103531676D01*
X135577163Y-103576632D01*
X135176897Y-103748583D01*
X135014018Y-103837363D01*
X134696530Y-104172001D01*
X134499461Y-104658541D01*
X134432395Y-105277307D01*
X134435946Y-105459215D01*
X134463369Y-105636022D01*
X134540733Y-105800224D01*
X134694167Y-105990191D01*
X134949801Y-106244293D01*
X135333765Y-106600899D01*
X136280864Y-107528495D01*
X137524348Y-108943033D01*
X138608584Y-110426695D01*
X139508704Y-111947635D01*
X139860152Y-112619515D01*
X139987498Y-112862969D01*
X139378465Y-113052225D01*
X139132350Y-113143717D01*
X138663592Y-113374462D01*
X138258953Y-113635393D01*
X138215925Y-113669160D01*
X137884129Y-113965168D01*
X137584355Y-114287933D01*
X137348223Y-114596689D01*
X137207356Y-114850671D01*
X137193375Y-115009114D01*
X137262401Y-115077980D01*
X137500905Y-115247506D01*
X137868317Y-115476338D01*
X138329073Y-115744470D01*
X138847608Y-116031894D01*
X139388357Y-116318601D01*
X139915755Y-116584584D01*
X140394238Y-116809835D01*
X141581206Y-117308810D01*
X143756381Y-118054213D01*
X145957045Y-118592147D01*
X148184032Y-118922719D01*
X150438178Y-119046033D01*
X152720317Y-118962197D01*
X155031283Y-118671316D01*
X155603113Y-118565232D01*
X156928565Y-118258378D01*
X158282585Y-117869136D01*
X159605779Y-117417060D01*
X160838752Y-116921705D01*
X161922107Y-116402627D01*
X162164308Y-116272316D01*
X162649994Y-116002325D01*
X163151867Y-115714154D01*
X163636794Y-115427790D01*
X164071638Y-115163220D01*
X164423265Y-114940435D01*
X164514028Y-114878320D01*
X166834864Y-114878320D01*
X166836580Y-114896661D01*
X166904683Y-114897368D01*
X167057251Y-114734862D01*
X167115641Y-114659127D01*
X167141597Y-114604998D01*
X167017786Y-114695398D01*
X166906295Y-114791067D01*
X166834864Y-114878320D01*
X164514028Y-114878320D01*
X164658541Y-114779420D01*
X164744329Y-114700166D01*
X164684943Y-114598174D01*
X164653532Y-114558109D01*
X167252971Y-114558109D01*
X167253989Y-114572722D01*
X167314495Y-114595741D01*
X167419743Y-114483527D01*
X167445175Y-114425113D01*
X167373648Y-114437432D01*
X167327214Y-114469699D01*
X167252971Y-114558109D01*
X164653532Y-114558109D01*
X164519193Y-114386756D01*
X164284380Y-114115240D01*
X164023125Y-113855780D01*
X163412039Y-113412306D01*
X162738604Y-113100034D01*
X162066913Y-112952570D01*
X161841052Y-112930265D01*
X161598281Y-112894770D01*
X161504000Y-112863588D01*
X161508566Y-112840996D01*
X161583718Y-112663483D01*
X161607766Y-112615063D01*
X162495068Y-112615063D01*
X162625312Y-112699195D01*
X162864830Y-112775421D01*
X163144529Y-112876608D01*
X163560508Y-113106947D01*
X163999294Y-113412629D01*
X164397582Y-113748785D01*
X164692066Y-114070544D01*
X164807643Y-114221765D01*
X164974226Y-114418963D01*
X165064968Y-114497206D01*
X165081513Y-114494060D01*
X165239636Y-114400380D01*
X165516323Y-114194529D01*
X165883069Y-113900627D01*
X166311369Y-113542793D01*
X166772715Y-113145149D01*
X167238604Y-112731812D01*
X167680528Y-112326904D01*
X168069984Y-111954543D01*
X168313572Y-111711079D01*
X168862999Y-111136696D01*
X169398713Y-110545282D01*
X169893331Y-109969233D01*
X170319470Y-109440951D01*
X170649746Y-108992833D01*
X170856776Y-108657279D01*
X171036849Y-108302536D01*
X170612627Y-108370372D01*
X170178074Y-108465042D01*
X169563212Y-108644137D01*
X168856379Y-108883886D01*
X168107210Y-109166394D01*
X167365340Y-109473765D01*
X166680402Y-109788103D01*
X166441618Y-109907223D01*
X165839795Y-110228154D01*
X165220256Y-110583613D01*
X164608093Y-110956654D01*
X164028396Y-111330329D01*
X163506255Y-111687691D01*
X163066761Y-112011793D01*
X162735005Y-112285687D01*
X162536077Y-112492426D01*
X162495068Y-112615063D01*
X161607766Y-112615063D01*
X161732613Y-112363691D01*
X161931173Y-111986670D01*
X162155320Y-111577471D01*
X162380977Y-111181143D01*
X162584066Y-110842737D01*
X163153607Y-109998088D01*
X163844358Y-109088649D01*
X164604380Y-108178947D01*
X165392820Y-107315712D01*
X166168825Y-106545674D01*
X166891543Y-105915564D01*
X167013828Y-105816142D01*
X167299204Y-105544973D01*
X167434609Y-105302943D01*
X167441921Y-105029384D01*
X167343019Y-104663629D01*
X167191954Y-104327409D01*
X166851692Y-103944228D01*
X166370754Y-103712814D01*
X166265754Y-103682244D01*
X166023950Y-103607438D01*
X165910200Y-103565148D01*
X165935890Y-103470027D01*
X165955227Y-103427412D01*
X166684511Y-103427412D01*
X166974497Y-103617640D01*
X167218725Y-103812724D01*
X167429156Y-104042972D01*
X167463425Y-104097210D01*
X167598187Y-104384983D01*
X167710848Y-104722942D01*
X167827868Y-105167809D01*
X168820872Y-104498359D01*
X168881448Y-104457973D01*
X169381776Y-104145670D01*
X169990397Y-103793006D01*
X170635934Y-103440300D01*
X171247007Y-103127873D01*
X171515034Y-102995166D01*
X171976591Y-102758307D01*
X172347024Y-102557211D01*
X172593766Y-102409861D01*
X172684250Y-102334240D01*
X172672923Y-102318246D01*
X172515026Y-102285751D01*
X172201607Y-102272281D01*
X171771623Y-102275750D01*
X171264030Y-102294072D01*
X170717784Y-102325163D01*
X170171842Y-102366935D01*
X169665160Y-102417303D01*
X169236693Y-102474183D01*
X168925399Y-102535487D01*
X168918708Y-102537247D01*
X168470165Y-102676136D01*
X167948492Y-102867503D01*
X167465243Y-103070474D01*
X166684511Y-103427412D01*
X165955227Y-103427412D01*
X166039749Y-103241138D01*
X166199264Y-102928866D01*
X166799546Y-101982148D01*
X167609784Y-101050727D01*
X168551090Y-100255795D01*
X169592062Y-99627905D01*
X169721860Y-99564235D01*
X170071783Y-99398071D01*
X170332662Y-99282259D01*
X170455729Y-99238772D01*
X170465675Y-99244687D01*
X170416904Y-99343738D01*
X170264148Y-99526220D01*
X170195411Y-99603761D01*
X169954488Y-99912605D01*
X169728686Y-100245174D01*
X169704462Y-100285363D01*
X169544450Y-100592675D01*
X169378995Y-100966717D01*
X169227003Y-101356318D01*
X169107382Y-101710310D01*
X169039035Y-101977521D01*
X169040870Y-102106781D01*
X169133139Y-102120549D01*
X169380648Y-102101893D01*
X169717783Y-102049634D01*
X169776570Y-102040087D01*
X170099070Y-102009626D01*
X170543059Y-101988894D01*
X171067234Y-101977516D01*
X171630289Y-101975117D01*
X172190921Y-101981324D01*
X172707824Y-101995760D01*
X173139696Y-102018051D01*
X173445231Y-102047823D01*
X173583125Y-102084700D01*
X173594282Y-102108323D01*
X173584583Y-102284130D01*
X173571289Y-102334240D01*
X173513917Y-102550493D01*
G37*
%TD*%
D11*
%TO.C,H3*%
X107500000Y-142500000D03*
%TD*%
%TO.C,H1*%
X107500000Y-57500000D03*
%TD*%
D12*
%TO.C,10kOhm*%
X174530000Y-94850000D03*
D13*
X174530000Y-97390000D03*
%TD*%
D11*
%TO.C,H4*%
X192500000Y-142500000D03*
%TD*%
D12*
%TO.C,ACS712_2*%
X115130000Y-81860000D03*
D13*
X117670000Y-81860000D03*
X120210000Y-81860000D03*
%TD*%
D12*
%TO.C,MicroSD*%
X193300000Y-107750000D03*
D13*
X193300000Y-105210000D03*
X193300000Y-102670000D03*
X193300000Y-100130000D03*
X193300000Y-97590000D03*
X193300000Y-95050000D03*
%TD*%
D12*
%TO.C,GPS*%
X107115000Y-120990000D03*
D13*
X107115000Y-118450000D03*
X107115000Y-115910000D03*
X107115000Y-113370000D03*
%TD*%
D12*
%TO.C,ACS712_4*%
X119610000Y-96060000D03*
D13*
X122150000Y-96060000D03*
X124690000Y-96060000D03*
%TD*%
D12*
%TO.C,300kOhm*%
X174480000Y-120090000D03*
D13*
X174480000Y-117550000D03*
%TD*%
D12*
%TO.C,1kOhm*%
X122435000Y-128780000D03*
D13*
X122435000Y-131320000D03*
%TD*%
D12*
%TO.C,ACS712_1*%
X103900000Y-81860000D03*
D13*
X106440000Y-81860000D03*
X108980000Y-81860000D03*
%TD*%
D14*
%TO.C,REF\u002A\u002A*%
X120500000Y-57000000D03*
%TD*%
%TO.C,REF\u002A\u002A*%
X180000000Y-70500000D03*
%TD*%
D12*
%TO.C,ACS712_3*%
X126200000Y-81860000D03*
D13*
X128740000Y-81860000D03*
X131280000Y-81860000D03*
%TD*%
D12*
%TO.C,KY-24*%
X107165000Y-99950000D03*
D13*
X107165000Y-102490000D03*
X107165000Y-105030000D03*
X107165000Y-107570000D03*
%TD*%
D12*
%TO.C,PowerModule1*%
X190450000Y-83040000D03*
D13*
X187910000Y-83040000D03*
X185370000Y-83040000D03*
X182830000Y-83040000D03*
X180290000Y-83040000D03*
X177750000Y-83040000D03*
%TD*%
D12*
%TO.C,LM324*%
X176340000Y-126590000D03*
D13*
X184380000Y-126590000D03*
X176340000Y-129130000D03*
X184380000Y-129130000D03*
X176340000Y-131670000D03*
X184380000Y-131670000D03*
X176340000Y-134210000D03*
X184380000Y-134210000D03*
X176340000Y-136750000D03*
X184380000Y-136750000D03*
X176340000Y-139290000D03*
X184380000Y-139290000D03*
X176340000Y-141830000D03*
X184380000Y-141830000D03*
%TD*%
D14*
%TO.C,REF\u002A\u002A*%
X120500000Y-70500000D03*
%TD*%
D12*
%TO.C,Accelerator*%
X107600000Y-129930000D03*
D13*
X107600000Y-132470000D03*
%TD*%
D12*
%TO.C,1kOhm*%
X174530000Y-106340000D03*
D13*
X174530000Y-108880000D03*
%TD*%
D11*
%TO.C,H2*%
X192500000Y-57500000D03*
%TD*%
D12*
%TO.C,T-D500*%
X190690000Y-115410000D03*
D13*
X190690000Y-117950000D03*
%TD*%
D15*
%TO.C,U3*%
X137020000Y-83380000D03*
X137020000Y-130330000D03*
X161530000Y-83380000D03*
X161530000Y-130330000D03*
D16*
X136600000Y-91340000D03*
D17*
X136600000Y-93880000D03*
X136600000Y-96420000D03*
X136600000Y-98960000D03*
X136600000Y-101500000D03*
X136600000Y-104040000D03*
X136600000Y-106580000D03*
X136600000Y-109120000D03*
X136600000Y-111660000D03*
X136600000Y-114200000D03*
X136600000Y-116740000D03*
X136600000Y-119280000D03*
X136600000Y-121820000D03*
X136600000Y-124360000D03*
X136600000Y-126900000D03*
X162000000Y-126900000D03*
X162000000Y-124360000D03*
X162000000Y-121820000D03*
X162000000Y-119280000D03*
X162000000Y-116740000D03*
X162000000Y-114200000D03*
X162000000Y-111660000D03*
X162000000Y-109120000D03*
X162000000Y-106580000D03*
X162000000Y-104040000D03*
X162000000Y-101500000D03*
X162000000Y-98960000D03*
X162000000Y-96420000D03*
X162000000Y-93880000D03*
X162000000Y-91340000D03*
%TD*%
D12*
%TO.C,1kOhm*%
X122435000Y-118270000D03*
D13*
X122435000Y-120810000D03*
%TD*%
D14*
%TO.C,REF\u002A\u002A*%
X180000000Y-57000000D03*
%TD*%
D12*
%TO.C,C-68nF1*%
X122340000Y-104860000D03*
D13*
X122340000Y-107400000D03*
%TD*%
M02*
