%TF.GenerationSoftware,KiCad,Pcbnew,8.0.4*%
%TF.CreationDate,2024-07-29T13:43:03-05:00*%
%TF.ProjectId,DAQ-Bicineta,4441512d-4269-4636-996e-6574612e6b69,rev?*%
%TF.SameCoordinates,Original*%
%TF.FileFunction,Legend,Top*%
%TF.FilePolarity,Positive*%
%FSLAX46Y46*%
G04 Gerber Fmt 4.6, Leading zero omitted, Abs format (unit mm)*
G04 Created by KiCad (PCBNEW 8.0.4) date 2024-07-29 13:43:03*
%MOMM*%
%LPD*%
G01*
G04 APERTURE LIST*
%ADD10C,0.250000*%
%ADD11C,0.300000*%
%ADD12C,0.400000*%
%ADD13C,0.375000*%
%ADD14C,0.150000*%
%ADD15C,0.120000*%
%ADD16C,0.127000*%
%ADD17C,0.200000*%
G04 APERTURE END LIST*
D10*
X109988282Y-129474619D02*
X110178758Y-129474619D01*
X110178758Y-129474619D02*
X110273996Y-129522238D01*
X110273996Y-129522238D02*
X110369234Y-129617476D01*
X110369234Y-129617476D02*
X110416853Y-129807952D01*
X110416853Y-129807952D02*
X110416853Y-130141285D01*
X110416853Y-130141285D02*
X110369234Y-130331761D01*
X110369234Y-130331761D02*
X110273996Y-130427000D01*
X110273996Y-130427000D02*
X110178758Y-130474619D01*
X110178758Y-130474619D02*
X109988282Y-130474619D01*
X109988282Y-130474619D02*
X109893044Y-130427000D01*
X109893044Y-130427000D02*
X109797806Y-130331761D01*
X109797806Y-130331761D02*
X109750187Y-130141285D01*
X109750187Y-130141285D02*
X109750187Y-129807952D01*
X109750187Y-129807952D02*
X109797806Y-129617476D01*
X109797806Y-129617476D02*
X109893044Y-129522238D01*
X109893044Y-129522238D02*
X109988282Y-129474619D01*
X110845425Y-129474619D02*
X110845425Y-130284142D01*
X110845425Y-130284142D02*
X110893044Y-130379380D01*
X110893044Y-130379380D02*
X110940663Y-130427000D01*
X110940663Y-130427000D02*
X111035901Y-130474619D01*
X111035901Y-130474619D02*
X111226377Y-130474619D01*
X111226377Y-130474619D02*
X111321615Y-130427000D01*
X111321615Y-130427000D02*
X111369234Y-130379380D01*
X111369234Y-130379380D02*
X111416853Y-130284142D01*
X111416853Y-130284142D02*
X111416853Y-129474619D01*
X111750187Y-129474619D02*
X112321615Y-129474619D01*
X112035901Y-130474619D02*
X112035901Y-129474619D01*
X110226377Y-131802238D02*
X110131139Y-131754619D01*
X110131139Y-131754619D02*
X109988282Y-131754619D01*
X109988282Y-131754619D02*
X109845425Y-131802238D01*
X109845425Y-131802238D02*
X109750187Y-131897476D01*
X109750187Y-131897476D02*
X109702568Y-131992714D01*
X109702568Y-131992714D02*
X109654949Y-132183190D01*
X109654949Y-132183190D02*
X109654949Y-132326047D01*
X109654949Y-132326047D02*
X109702568Y-132516523D01*
X109702568Y-132516523D02*
X109750187Y-132611761D01*
X109750187Y-132611761D02*
X109845425Y-132707000D01*
X109845425Y-132707000D02*
X109988282Y-132754619D01*
X109988282Y-132754619D02*
X110083520Y-132754619D01*
X110083520Y-132754619D02*
X110226377Y-132707000D01*
X110226377Y-132707000D02*
X110273996Y-132659380D01*
X110273996Y-132659380D02*
X110273996Y-132326047D01*
X110273996Y-132326047D02*
X110083520Y-132326047D01*
X110702568Y-132754619D02*
X110702568Y-131754619D01*
X110702568Y-131754619D02*
X111273996Y-132754619D01*
X111273996Y-132754619D02*
X111273996Y-131754619D01*
X111750187Y-132754619D02*
X111750187Y-131754619D01*
X111750187Y-131754619D02*
X111988282Y-131754619D01*
X111988282Y-131754619D02*
X112131139Y-131802238D01*
X112131139Y-131802238D02*
X112226377Y-131897476D01*
X112226377Y-131897476D02*
X112273996Y-131992714D01*
X112273996Y-131992714D02*
X112321615Y-132183190D01*
X112321615Y-132183190D02*
X112321615Y-132326047D01*
X112321615Y-132326047D02*
X112273996Y-132516523D01*
X112273996Y-132516523D02*
X112226377Y-132611761D01*
X112226377Y-132611761D02*
X112131139Y-132707000D01*
X112131139Y-132707000D02*
X111988282Y-132754619D01*
X111988282Y-132754619D02*
X111750187Y-132754619D01*
X188411615Y-105742000D02*
X188554472Y-105789619D01*
X188554472Y-105789619D02*
X188792567Y-105789619D01*
X188792567Y-105789619D02*
X188887805Y-105742000D01*
X188887805Y-105742000D02*
X188935424Y-105694380D01*
X188935424Y-105694380D02*
X188983043Y-105599142D01*
X188983043Y-105599142D02*
X188983043Y-105503904D01*
X188983043Y-105503904D02*
X188935424Y-105408666D01*
X188935424Y-105408666D02*
X188887805Y-105361047D01*
X188887805Y-105361047D02*
X188792567Y-105313428D01*
X188792567Y-105313428D02*
X188602091Y-105265809D01*
X188602091Y-105265809D02*
X188506853Y-105218190D01*
X188506853Y-105218190D02*
X188459234Y-105170571D01*
X188459234Y-105170571D02*
X188411615Y-105075333D01*
X188411615Y-105075333D02*
X188411615Y-104980095D01*
X188411615Y-104980095D02*
X188459234Y-104884857D01*
X188459234Y-104884857D02*
X188506853Y-104837238D01*
X188506853Y-104837238D02*
X188602091Y-104789619D01*
X188602091Y-104789619D02*
X188840186Y-104789619D01*
X188840186Y-104789619D02*
X188983043Y-104837238D01*
X189983043Y-105694380D02*
X189935424Y-105742000D01*
X189935424Y-105742000D02*
X189792567Y-105789619D01*
X189792567Y-105789619D02*
X189697329Y-105789619D01*
X189697329Y-105789619D02*
X189554472Y-105742000D01*
X189554472Y-105742000D02*
X189459234Y-105646761D01*
X189459234Y-105646761D02*
X189411615Y-105551523D01*
X189411615Y-105551523D02*
X189363996Y-105361047D01*
X189363996Y-105361047D02*
X189363996Y-105218190D01*
X189363996Y-105218190D02*
X189411615Y-105027714D01*
X189411615Y-105027714D02*
X189459234Y-104932476D01*
X189459234Y-104932476D02*
X189554472Y-104837238D01*
X189554472Y-104837238D02*
X189697329Y-104789619D01*
X189697329Y-104789619D02*
X189792567Y-104789619D01*
X189792567Y-104789619D02*
X189935424Y-104837238D01*
X189935424Y-104837238D02*
X189983043Y-104884857D01*
X190411615Y-105789619D02*
X190411615Y-104789619D01*
X190983043Y-105789619D02*
X190554472Y-105218190D01*
X190983043Y-104789619D02*
X190411615Y-105361047D01*
X125504619Y-86450288D02*
X126504619Y-86116955D01*
X126504619Y-86116955D02*
X125504619Y-85783622D01*
X126409380Y-84878860D02*
X126457000Y-84926479D01*
X126457000Y-84926479D02*
X126504619Y-85069336D01*
X126504619Y-85069336D02*
X126504619Y-85164574D01*
X126504619Y-85164574D02*
X126457000Y-85307431D01*
X126457000Y-85307431D02*
X126361761Y-85402669D01*
X126361761Y-85402669D02*
X126266523Y-85450288D01*
X126266523Y-85450288D02*
X126076047Y-85497907D01*
X126076047Y-85497907D02*
X125933190Y-85497907D01*
X125933190Y-85497907D02*
X125742714Y-85450288D01*
X125742714Y-85450288D02*
X125647476Y-85402669D01*
X125647476Y-85402669D02*
X125552238Y-85307431D01*
X125552238Y-85307431D02*
X125504619Y-85164574D01*
X125504619Y-85164574D02*
X125504619Y-85069336D01*
X125504619Y-85069336D02*
X125552238Y-84926479D01*
X125552238Y-84926479D02*
X125599857Y-84878860D01*
X126409380Y-83878860D02*
X126457000Y-83926479D01*
X126457000Y-83926479D02*
X126504619Y-84069336D01*
X126504619Y-84069336D02*
X126504619Y-84164574D01*
X126504619Y-84164574D02*
X126457000Y-84307431D01*
X126457000Y-84307431D02*
X126361761Y-84402669D01*
X126361761Y-84402669D02*
X126266523Y-84450288D01*
X126266523Y-84450288D02*
X126076047Y-84497907D01*
X126076047Y-84497907D02*
X125933190Y-84497907D01*
X125933190Y-84497907D02*
X125742714Y-84450288D01*
X125742714Y-84450288D02*
X125647476Y-84402669D01*
X125647476Y-84402669D02*
X125552238Y-84307431D01*
X125552238Y-84307431D02*
X125504619Y-84164574D01*
X125504619Y-84164574D02*
X125504619Y-84069336D01*
X125504619Y-84069336D02*
X125552238Y-83926479D01*
X125552238Y-83926479D02*
X125599857Y-83878860D01*
X187792568Y-103089619D02*
X187792568Y-102089619D01*
X187792568Y-102089619D02*
X188125901Y-102803904D01*
X188125901Y-102803904D02*
X188459234Y-102089619D01*
X188459234Y-102089619D02*
X188459234Y-103089619D01*
X189125901Y-102089619D02*
X189316377Y-102089619D01*
X189316377Y-102089619D02*
X189411615Y-102137238D01*
X189411615Y-102137238D02*
X189506853Y-102232476D01*
X189506853Y-102232476D02*
X189554472Y-102422952D01*
X189554472Y-102422952D02*
X189554472Y-102756285D01*
X189554472Y-102756285D02*
X189506853Y-102946761D01*
X189506853Y-102946761D02*
X189411615Y-103042000D01*
X189411615Y-103042000D02*
X189316377Y-103089619D01*
X189316377Y-103089619D02*
X189125901Y-103089619D01*
X189125901Y-103089619D02*
X189030663Y-103042000D01*
X189030663Y-103042000D02*
X188935425Y-102946761D01*
X188935425Y-102946761D02*
X188887806Y-102756285D01*
X188887806Y-102756285D02*
X188887806Y-102422952D01*
X188887806Y-102422952D02*
X188935425Y-102232476D01*
X188935425Y-102232476D02*
X189030663Y-102137238D01*
X189030663Y-102137238D02*
X189125901Y-102089619D01*
X189935425Y-103042000D02*
X190078282Y-103089619D01*
X190078282Y-103089619D02*
X190316377Y-103089619D01*
X190316377Y-103089619D02*
X190411615Y-103042000D01*
X190411615Y-103042000D02*
X190459234Y-102994380D01*
X190459234Y-102994380D02*
X190506853Y-102899142D01*
X190506853Y-102899142D02*
X190506853Y-102803904D01*
X190506853Y-102803904D02*
X190459234Y-102708666D01*
X190459234Y-102708666D02*
X190411615Y-102661047D01*
X190411615Y-102661047D02*
X190316377Y-102613428D01*
X190316377Y-102613428D02*
X190125901Y-102565809D01*
X190125901Y-102565809D02*
X190030663Y-102518190D01*
X190030663Y-102518190D02*
X189983044Y-102470571D01*
X189983044Y-102470571D02*
X189935425Y-102375333D01*
X189935425Y-102375333D02*
X189935425Y-102280095D01*
X189935425Y-102280095D02*
X189983044Y-102184857D01*
X189983044Y-102184857D02*
X190030663Y-102137238D01*
X190030663Y-102137238D02*
X190125901Y-102089619D01*
X190125901Y-102089619D02*
X190363996Y-102089619D01*
X190363996Y-102089619D02*
X190506853Y-102137238D01*
X190935425Y-103089619D02*
X190935425Y-102089619D01*
X105914619Y-86116955D02*
X105914619Y-85926479D01*
X105914619Y-85926479D02*
X105962238Y-85831241D01*
X105962238Y-85831241D02*
X106057476Y-85736003D01*
X106057476Y-85736003D02*
X106247952Y-85688384D01*
X106247952Y-85688384D02*
X106581285Y-85688384D01*
X106581285Y-85688384D02*
X106771761Y-85736003D01*
X106771761Y-85736003D02*
X106867000Y-85831241D01*
X106867000Y-85831241D02*
X106914619Y-85926479D01*
X106914619Y-85926479D02*
X106914619Y-86116955D01*
X106914619Y-86116955D02*
X106867000Y-86212193D01*
X106867000Y-86212193D02*
X106771761Y-86307431D01*
X106771761Y-86307431D02*
X106581285Y-86355050D01*
X106581285Y-86355050D02*
X106247952Y-86355050D01*
X106247952Y-86355050D02*
X106057476Y-86307431D01*
X106057476Y-86307431D02*
X105962238Y-86212193D01*
X105962238Y-86212193D02*
X105914619Y-86116955D01*
X105914619Y-85259812D02*
X106724142Y-85259812D01*
X106724142Y-85259812D02*
X106819380Y-85212193D01*
X106819380Y-85212193D02*
X106867000Y-85164574D01*
X106867000Y-85164574D02*
X106914619Y-85069336D01*
X106914619Y-85069336D02*
X106914619Y-84878860D01*
X106914619Y-84878860D02*
X106867000Y-84783622D01*
X106867000Y-84783622D02*
X106819380Y-84736003D01*
X106819380Y-84736003D02*
X106724142Y-84688384D01*
X106724142Y-84688384D02*
X105914619Y-84688384D01*
X105914619Y-84355050D02*
X105914619Y-83783622D01*
X106914619Y-84069336D02*
X105914619Y-84069336D01*
X114654619Y-86450288D02*
X115654619Y-86116955D01*
X115654619Y-86116955D02*
X114654619Y-85783622D01*
X115559380Y-84878860D02*
X115607000Y-84926479D01*
X115607000Y-84926479D02*
X115654619Y-85069336D01*
X115654619Y-85069336D02*
X115654619Y-85164574D01*
X115654619Y-85164574D02*
X115607000Y-85307431D01*
X115607000Y-85307431D02*
X115511761Y-85402669D01*
X115511761Y-85402669D02*
X115416523Y-85450288D01*
X115416523Y-85450288D02*
X115226047Y-85497907D01*
X115226047Y-85497907D02*
X115083190Y-85497907D01*
X115083190Y-85497907D02*
X114892714Y-85450288D01*
X114892714Y-85450288D02*
X114797476Y-85402669D01*
X114797476Y-85402669D02*
X114702238Y-85307431D01*
X114702238Y-85307431D02*
X114654619Y-85164574D01*
X114654619Y-85164574D02*
X114654619Y-85069336D01*
X114654619Y-85069336D02*
X114702238Y-84926479D01*
X114702238Y-84926479D02*
X114749857Y-84878860D01*
X115559380Y-83878860D02*
X115607000Y-83926479D01*
X115607000Y-83926479D02*
X115654619Y-84069336D01*
X115654619Y-84069336D02*
X115654619Y-84164574D01*
X115654619Y-84164574D02*
X115607000Y-84307431D01*
X115607000Y-84307431D02*
X115511761Y-84402669D01*
X115511761Y-84402669D02*
X115416523Y-84450288D01*
X115416523Y-84450288D02*
X115226047Y-84497907D01*
X115226047Y-84497907D02*
X115083190Y-84497907D01*
X115083190Y-84497907D02*
X114892714Y-84450288D01*
X114892714Y-84450288D02*
X114797476Y-84402669D01*
X114797476Y-84402669D02*
X114702238Y-84307431D01*
X114702238Y-84307431D02*
X114654619Y-84164574D01*
X114654619Y-84164574D02*
X114654619Y-84069336D01*
X114654619Y-84069336D02*
X114702238Y-83926479D01*
X114702238Y-83926479D02*
X114749857Y-83878860D01*
X188887805Y-94637238D02*
X188792567Y-94589619D01*
X188792567Y-94589619D02*
X188649710Y-94589619D01*
X188649710Y-94589619D02*
X188506853Y-94637238D01*
X188506853Y-94637238D02*
X188411615Y-94732476D01*
X188411615Y-94732476D02*
X188363996Y-94827714D01*
X188363996Y-94827714D02*
X188316377Y-95018190D01*
X188316377Y-95018190D02*
X188316377Y-95161047D01*
X188316377Y-95161047D02*
X188363996Y-95351523D01*
X188363996Y-95351523D02*
X188411615Y-95446761D01*
X188411615Y-95446761D02*
X188506853Y-95542000D01*
X188506853Y-95542000D02*
X188649710Y-95589619D01*
X188649710Y-95589619D02*
X188744948Y-95589619D01*
X188744948Y-95589619D02*
X188887805Y-95542000D01*
X188887805Y-95542000D02*
X188935424Y-95494380D01*
X188935424Y-95494380D02*
X188935424Y-95161047D01*
X188935424Y-95161047D02*
X188744948Y-95161047D01*
X189363996Y-95589619D02*
X189363996Y-94589619D01*
X189363996Y-94589619D02*
X189935424Y-95589619D01*
X189935424Y-95589619D02*
X189935424Y-94589619D01*
X190411615Y-95589619D02*
X190411615Y-94589619D01*
X190411615Y-94589619D02*
X190649710Y-94589619D01*
X190649710Y-94589619D02*
X190792567Y-94637238D01*
X190792567Y-94637238D02*
X190887805Y-94732476D01*
X190887805Y-94732476D02*
X190935424Y-94827714D01*
X190935424Y-94827714D02*
X190983043Y-95018190D01*
X190983043Y-95018190D02*
X190983043Y-95161047D01*
X190983043Y-95161047D02*
X190935424Y-95351523D01*
X190935424Y-95351523D02*
X190887805Y-95446761D01*
X190887805Y-95446761D02*
X190792567Y-95542000D01*
X190792567Y-95542000D02*
X190649710Y-95589619D01*
X190649710Y-95589619D02*
X190411615Y-95589619D01*
X182484711Y-79779619D02*
X182818044Y-80779619D01*
X182818044Y-80779619D02*
X183151377Y-79779619D01*
X121634619Y-100491717D02*
X121634619Y-100301241D01*
X121634619Y-100301241D02*
X121682238Y-100206003D01*
X121682238Y-100206003D02*
X121777476Y-100110765D01*
X121777476Y-100110765D02*
X121967952Y-100063146D01*
X121967952Y-100063146D02*
X122301285Y-100063146D01*
X122301285Y-100063146D02*
X122491761Y-100110765D01*
X122491761Y-100110765D02*
X122587000Y-100206003D01*
X122587000Y-100206003D02*
X122634619Y-100301241D01*
X122634619Y-100301241D02*
X122634619Y-100491717D01*
X122634619Y-100491717D02*
X122587000Y-100586955D01*
X122587000Y-100586955D02*
X122491761Y-100682193D01*
X122491761Y-100682193D02*
X122301285Y-100729812D01*
X122301285Y-100729812D02*
X121967952Y-100729812D01*
X121967952Y-100729812D02*
X121777476Y-100682193D01*
X121777476Y-100682193D02*
X121682238Y-100586955D01*
X121682238Y-100586955D02*
X121634619Y-100491717D01*
X121634619Y-99634574D02*
X122444142Y-99634574D01*
X122444142Y-99634574D02*
X122539380Y-99586955D01*
X122539380Y-99586955D02*
X122587000Y-99539336D01*
X122587000Y-99539336D02*
X122634619Y-99444098D01*
X122634619Y-99444098D02*
X122634619Y-99253622D01*
X122634619Y-99253622D02*
X122587000Y-99158384D01*
X122587000Y-99158384D02*
X122539380Y-99110765D01*
X122539380Y-99110765D02*
X122444142Y-99063146D01*
X122444142Y-99063146D02*
X121634619Y-99063146D01*
X121634619Y-98729812D02*
X121634619Y-98158384D01*
X122634619Y-98444098D02*
X121634619Y-98444098D01*
X119104619Y-100825050D02*
X120104619Y-100491717D01*
X120104619Y-100491717D02*
X119104619Y-100158384D01*
X120009380Y-99253622D02*
X120057000Y-99301241D01*
X120057000Y-99301241D02*
X120104619Y-99444098D01*
X120104619Y-99444098D02*
X120104619Y-99539336D01*
X120104619Y-99539336D02*
X120057000Y-99682193D01*
X120057000Y-99682193D02*
X119961761Y-99777431D01*
X119961761Y-99777431D02*
X119866523Y-99825050D01*
X119866523Y-99825050D02*
X119676047Y-99872669D01*
X119676047Y-99872669D02*
X119533190Y-99872669D01*
X119533190Y-99872669D02*
X119342714Y-99825050D01*
X119342714Y-99825050D02*
X119247476Y-99777431D01*
X119247476Y-99777431D02*
X119152238Y-99682193D01*
X119152238Y-99682193D02*
X119104619Y-99539336D01*
X119104619Y-99539336D02*
X119104619Y-99444098D01*
X119104619Y-99444098D02*
X119152238Y-99301241D01*
X119152238Y-99301241D02*
X119199857Y-99253622D01*
X120009380Y-98253622D02*
X120057000Y-98301241D01*
X120057000Y-98301241D02*
X120104619Y-98444098D01*
X120104619Y-98444098D02*
X120104619Y-98539336D01*
X120104619Y-98539336D02*
X120057000Y-98682193D01*
X120057000Y-98682193D02*
X119961761Y-98777431D01*
X119961761Y-98777431D02*
X119866523Y-98825050D01*
X119866523Y-98825050D02*
X119676047Y-98872669D01*
X119676047Y-98872669D02*
X119533190Y-98872669D01*
X119533190Y-98872669D02*
X119342714Y-98825050D01*
X119342714Y-98825050D02*
X119247476Y-98777431D01*
X119247476Y-98777431D02*
X119152238Y-98682193D01*
X119152238Y-98682193D02*
X119104619Y-98539336D01*
X119104619Y-98539336D02*
X119104619Y-98444098D01*
X119104619Y-98444098D02*
X119152238Y-98301241D01*
X119152238Y-98301241D02*
X119199857Y-98253622D01*
X185627568Y-80779619D02*
X185627568Y-79779619D01*
X190030662Y-108294380D02*
X189983043Y-108342000D01*
X189983043Y-108342000D02*
X189840186Y-108389619D01*
X189840186Y-108389619D02*
X189744948Y-108389619D01*
X189744948Y-108389619D02*
X189602091Y-108342000D01*
X189602091Y-108342000D02*
X189506853Y-108246761D01*
X189506853Y-108246761D02*
X189459234Y-108151523D01*
X189459234Y-108151523D02*
X189411615Y-107961047D01*
X189411615Y-107961047D02*
X189411615Y-107818190D01*
X189411615Y-107818190D02*
X189459234Y-107627714D01*
X189459234Y-107627714D02*
X189506853Y-107532476D01*
X189506853Y-107532476D02*
X189602091Y-107437238D01*
X189602091Y-107437238D02*
X189744948Y-107389619D01*
X189744948Y-107389619D02*
X189840186Y-107389619D01*
X189840186Y-107389619D02*
X189983043Y-107437238D01*
X189983043Y-107437238D02*
X190030662Y-107484857D01*
X190411615Y-108342000D02*
X190554472Y-108389619D01*
X190554472Y-108389619D02*
X190792567Y-108389619D01*
X190792567Y-108389619D02*
X190887805Y-108342000D01*
X190887805Y-108342000D02*
X190935424Y-108294380D01*
X190935424Y-108294380D02*
X190983043Y-108199142D01*
X190983043Y-108199142D02*
X190983043Y-108103904D01*
X190983043Y-108103904D02*
X190935424Y-108008666D01*
X190935424Y-108008666D02*
X190887805Y-107961047D01*
X190887805Y-107961047D02*
X190792567Y-107913428D01*
X190792567Y-107913428D02*
X190602091Y-107865809D01*
X190602091Y-107865809D02*
X190506853Y-107818190D01*
X190506853Y-107818190D02*
X190459234Y-107770571D01*
X190459234Y-107770571D02*
X190411615Y-107675333D01*
X190411615Y-107675333D02*
X190411615Y-107580095D01*
X190411615Y-107580095D02*
X190459234Y-107484857D01*
X190459234Y-107484857D02*
X190506853Y-107437238D01*
X190506853Y-107437238D02*
X190602091Y-107389619D01*
X190602091Y-107389619D02*
X190840186Y-107389619D01*
X190840186Y-107389619D02*
X190983043Y-107437238D01*
X109744949Y-100278904D02*
X110221139Y-100278904D01*
X109649711Y-100564619D02*
X109983044Y-99564619D01*
X109983044Y-99564619D02*
X110316377Y-100564619D01*
X110840187Y-99564619D02*
X110935425Y-99564619D01*
X110935425Y-99564619D02*
X111030663Y-99612238D01*
X111030663Y-99612238D02*
X111078282Y-99659857D01*
X111078282Y-99659857D02*
X111125901Y-99755095D01*
X111125901Y-99755095D02*
X111173520Y-99945571D01*
X111173520Y-99945571D02*
X111173520Y-100183666D01*
X111173520Y-100183666D02*
X111125901Y-100374142D01*
X111125901Y-100374142D02*
X111078282Y-100469380D01*
X111078282Y-100469380D02*
X111030663Y-100517000D01*
X111030663Y-100517000D02*
X110935425Y-100564619D01*
X110935425Y-100564619D02*
X110840187Y-100564619D01*
X110840187Y-100564619D02*
X110744949Y-100517000D01*
X110744949Y-100517000D02*
X110697330Y-100469380D01*
X110697330Y-100469380D02*
X110649711Y-100374142D01*
X110649711Y-100374142D02*
X110602092Y-100183666D01*
X110602092Y-100183666D02*
X110602092Y-99945571D01*
X110602092Y-99945571D02*
X110649711Y-99755095D01*
X110649711Y-99755095D02*
X110697330Y-99659857D01*
X110697330Y-99659857D02*
X110744949Y-99612238D01*
X110744949Y-99612238D02*
X110840187Y-99564619D01*
X110316377Y-102112238D02*
X110221139Y-102064619D01*
X110221139Y-102064619D02*
X110078282Y-102064619D01*
X110078282Y-102064619D02*
X109935425Y-102112238D01*
X109935425Y-102112238D02*
X109840187Y-102207476D01*
X109840187Y-102207476D02*
X109792568Y-102302714D01*
X109792568Y-102302714D02*
X109744949Y-102493190D01*
X109744949Y-102493190D02*
X109744949Y-102636047D01*
X109744949Y-102636047D02*
X109792568Y-102826523D01*
X109792568Y-102826523D02*
X109840187Y-102921761D01*
X109840187Y-102921761D02*
X109935425Y-103017000D01*
X109935425Y-103017000D02*
X110078282Y-103064619D01*
X110078282Y-103064619D02*
X110173520Y-103064619D01*
X110173520Y-103064619D02*
X110316377Y-103017000D01*
X110316377Y-103017000D02*
X110363996Y-102969380D01*
X110363996Y-102969380D02*
X110363996Y-102636047D01*
X110363996Y-102636047D02*
X110173520Y-102636047D01*
X110792568Y-103064619D02*
X110792568Y-102064619D01*
X110792568Y-102064619D02*
X111363996Y-103064619D01*
X111363996Y-103064619D02*
X111363996Y-102064619D01*
X111840187Y-103064619D02*
X111840187Y-102064619D01*
X111840187Y-102064619D02*
X112078282Y-102064619D01*
X112078282Y-102064619D02*
X112221139Y-102112238D01*
X112221139Y-102112238D02*
X112316377Y-102207476D01*
X112316377Y-102207476D02*
X112363996Y-102302714D01*
X112363996Y-102302714D02*
X112411615Y-102493190D01*
X112411615Y-102493190D02*
X112411615Y-102636047D01*
X112411615Y-102636047D02*
X112363996Y-102826523D01*
X112363996Y-102826523D02*
X112316377Y-102921761D01*
X112316377Y-102921761D02*
X112221139Y-103017000D01*
X112221139Y-103017000D02*
X112078282Y-103064619D01*
X112078282Y-103064619D02*
X111840187Y-103064619D01*
X103384619Y-86450288D02*
X104384619Y-86116955D01*
X104384619Y-86116955D02*
X103384619Y-85783622D01*
X104289380Y-84878860D02*
X104337000Y-84926479D01*
X104337000Y-84926479D02*
X104384619Y-85069336D01*
X104384619Y-85069336D02*
X104384619Y-85164574D01*
X104384619Y-85164574D02*
X104337000Y-85307431D01*
X104337000Y-85307431D02*
X104241761Y-85402669D01*
X104241761Y-85402669D02*
X104146523Y-85450288D01*
X104146523Y-85450288D02*
X103956047Y-85497907D01*
X103956047Y-85497907D02*
X103813190Y-85497907D01*
X103813190Y-85497907D02*
X103622714Y-85450288D01*
X103622714Y-85450288D02*
X103527476Y-85402669D01*
X103527476Y-85402669D02*
X103432238Y-85307431D01*
X103432238Y-85307431D02*
X103384619Y-85164574D01*
X103384619Y-85164574D02*
X103384619Y-85069336D01*
X103384619Y-85069336D02*
X103432238Y-84926479D01*
X103432238Y-84926479D02*
X103479857Y-84878860D01*
X104289380Y-83878860D02*
X104337000Y-83926479D01*
X104337000Y-83926479D02*
X104384619Y-84069336D01*
X104384619Y-84069336D02*
X104384619Y-84164574D01*
X104384619Y-84164574D02*
X104337000Y-84307431D01*
X104337000Y-84307431D02*
X104241761Y-84402669D01*
X104241761Y-84402669D02*
X104146523Y-84450288D01*
X104146523Y-84450288D02*
X103956047Y-84497907D01*
X103956047Y-84497907D02*
X103813190Y-84497907D01*
X103813190Y-84497907D02*
X103622714Y-84450288D01*
X103622714Y-84450288D02*
X103527476Y-84402669D01*
X103527476Y-84402669D02*
X103432238Y-84307431D01*
X103432238Y-84307431D02*
X103384619Y-84164574D01*
X103384619Y-84164574D02*
X103384619Y-84069336D01*
X103384619Y-84069336D02*
X103432238Y-83926479D01*
X103432238Y-83926479D02*
X103479857Y-83878860D01*
X109479711Y-118024619D02*
X110051139Y-118024619D01*
X109765425Y-119024619D02*
X109765425Y-118024619D01*
X110289235Y-118024619D02*
X110955901Y-119024619D01*
X110955901Y-118024619D02*
X110289235Y-119024619D01*
X124232238Y-100253622D02*
X124184619Y-100348860D01*
X124184619Y-100348860D02*
X124184619Y-100491717D01*
X124184619Y-100491717D02*
X124232238Y-100634574D01*
X124232238Y-100634574D02*
X124327476Y-100729812D01*
X124327476Y-100729812D02*
X124422714Y-100777431D01*
X124422714Y-100777431D02*
X124613190Y-100825050D01*
X124613190Y-100825050D02*
X124756047Y-100825050D01*
X124756047Y-100825050D02*
X124946523Y-100777431D01*
X124946523Y-100777431D02*
X125041761Y-100729812D01*
X125041761Y-100729812D02*
X125137000Y-100634574D01*
X125137000Y-100634574D02*
X125184619Y-100491717D01*
X125184619Y-100491717D02*
X125184619Y-100396479D01*
X125184619Y-100396479D02*
X125137000Y-100253622D01*
X125137000Y-100253622D02*
X125089380Y-100206003D01*
X125089380Y-100206003D02*
X124756047Y-100206003D01*
X124756047Y-100206003D02*
X124756047Y-100396479D01*
X125184619Y-99777431D02*
X124184619Y-99777431D01*
X124184619Y-99777431D02*
X125184619Y-99206003D01*
X125184619Y-99206003D02*
X124184619Y-99206003D01*
X125184619Y-98729812D02*
X124184619Y-98729812D01*
X124184619Y-98729812D02*
X124184619Y-98491717D01*
X124184619Y-98491717D02*
X124232238Y-98348860D01*
X124232238Y-98348860D02*
X124327476Y-98253622D01*
X124327476Y-98253622D02*
X124422714Y-98206003D01*
X124422714Y-98206003D02*
X124613190Y-98158384D01*
X124613190Y-98158384D02*
X124756047Y-98158384D01*
X124756047Y-98158384D02*
X124946523Y-98206003D01*
X124946523Y-98206003D02*
X125041761Y-98253622D01*
X125041761Y-98253622D02*
X125137000Y-98348860D01*
X125137000Y-98348860D02*
X125184619Y-98491717D01*
X125184619Y-98491717D02*
X125184619Y-98729812D01*
X117184619Y-86116955D02*
X117184619Y-85926479D01*
X117184619Y-85926479D02*
X117232238Y-85831241D01*
X117232238Y-85831241D02*
X117327476Y-85736003D01*
X117327476Y-85736003D02*
X117517952Y-85688384D01*
X117517952Y-85688384D02*
X117851285Y-85688384D01*
X117851285Y-85688384D02*
X118041761Y-85736003D01*
X118041761Y-85736003D02*
X118137000Y-85831241D01*
X118137000Y-85831241D02*
X118184619Y-85926479D01*
X118184619Y-85926479D02*
X118184619Y-86116955D01*
X118184619Y-86116955D02*
X118137000Y-86212193D01*
X118137000Y-86212193D02*
X118041761Y-86307431D01*
X118041761Y-86307431D02*
X117851285Y-86355050D01*
X117851285Y-86355050D02*
X117517952Y-86355050D01*
X117517952Y-86355050D02*
X117327476Y-86307431D01*
X117327476Y-86307431D02*
X117232238Y-86212193D01*
X117232238Y-86212193D02*
X117184619Y-86116955D01*
X117184619Y-85259812D02*
X117994142Y-85259812D01*
X117994142Y-85259812D02*
X118089380Y-85212193D01*
X118089380Y-85212193D02*
X118137000Y-85164574D01*
X118137000Y-85164574D02*
X118184619Y-85069336D01*
X118184619Y-85069336D02*
X118184619Y-84878860D01*
X118184619Y-84878860D02*
X118137000Y-84783622D01*
X118137000Y-84783622D02*
X118089380Y-84736003D01*
X118089380Y-84736003D02*
X117994142Y-84688384D01*
X117994142Y-84688384D02*
X117184619Y-84688384D01*
X117184619Y-84355050D02*
X117184619Y-83783622D01*
X118184619Y-84069336D02*
X117184619Y-84069336D01*
X109649711Y-104564619D02*
X109983044Y-105564619D01*
X109983044Y-105564619D02*
X110316377Y-104564619D01*
X111221139Y-105469380D02*
X111173520Y-105517000D01*
X111173520Y-105517000D02*
X111030663Y-105564619D01*
X111030663Y-105564619D02*
X110935425Y-105564619D01*
X110935425Y-105564619D02*
X110792568Y-105517000D01*
X110792568Y-105517000D02*
X110697330Y-105421761D01*
X110697330Y-105421761D02*
X110649711Y-105326523D01*
X110649711Y-105326523D02*
X110602092Y-105136047D01*
X110602092Y-105136047D02*
X110602092Y-104993190D01*
X110602092Y-104993190D02*
X110649711Y-104802714D01*
X110649711Y-104802714D02*
X110697330Y-104707476D01*
X110697330Y-104707476D02*
X110792568Y-104612238D01*
X110792568Y-104612238D02*
X110935425Y-104564619D01*
X110935425Y-104564619D02*
X111030663Y-104564619D01*
X111030663Y-104564619D02*
X111173520Y-104612238D01*
X111173520Y-104612238D02*
X111221139Y-104659857D01*
X112221139Y-105469380D02*
X112173520Y-105517000D01*
X112173520Y-105517000D02*
X112030663Y-105564619D01*
X112030663Y-105564619D02*
X111935425Y-105564619D01*
X111935425Y-105564619D02*
X111792568Y-105517000D01*
X111792568Y-105517000D02*
X111697330Y-105421761D01*
X111697330Y-105421761D02*
X111649711Y-105326523D01*
X111649711Y-105326523D02*
X111602092Y-105136047D01*
X111602092Y-105136047D02*
X111602092Y-104993190D01*
X111602092Y-104993190D02*
X111649711Y-104802714D01*
X111649711Y-104802714D02*
X111697330Y-104707476D01*
X111697330Y-104707476D02*
X111792568Y-104612238D01*
X111792568Y-104612238D02*
X111935425Y-104564619D01*
X111935425Y-104564619D02*
X112030663Y-104564619D01*
X112030663Y-104564619D02*
X112173520Y-104612238D01*
X112173520Y-104612238D02*
X112221139Y-104659857D01*
X142702568Y-106640809D02*
X143035901Y-106640809D01*
X143178758Y-107164619D02*
X142702568Y-107164619D01*
X142702568Y-107164619D02*
X142702568Y-106164619D01*
X142702568Y-106164619D02*
X143178758Y-106164619D01*
X143559711Y-107117000D02*
X143702568Y-107164619D01*
X143702568Y-107164619D02*
X143940663Y-107164619D01*
X143940663Y-107164619D02*
X144035901Y-107117000D01*
X144035901Y-107117000D02*
X144083520Y-107069380D01*
X144083520Y-107069380D02*
X144131139Y-106974142D01*
X144131139Y-106974142D02*
X144131139Y-106878904D01*
X144131139Y-106878904D02*
X144083520Y-106783666D01*
X144083520Y-106783666D02*
X144035901Y-106736047D01*
X144035901Y-106736047D02*
X143940663Y-106688428D01*
X143940663Y-106688428D02*
X143750187Y-106640809D01*
X143750187Y-106640809D02*
X143654949Y-106593190D01*
X143654949Y-106593190D02*
X143607330Y-106545571D01*
X143607330Y-106545571D02*
X143559711Y-106450333D01*
X143559711Y-106450333D02*
X143559711Y-106355095D01*
X143559711Y-106355095D02*
X143607330Y-106259857D01*
X143607330Y-106259857D02*
X143654949Y-106212238D01*
X143654949Y-106212238D02*
X143750187Y-106164619D01*
X143750187Y-106164619D02*
X143988282Y-106164619D01*
X143988282Y-106164619D02*
X144131139Y-106212238D01*
X144559711Y-107164619D02*
X144559711Y-106164619D01*
X144559711Y-106164619D02*
X144940663Y-106164619D01*
X144940663Y-106164619D02*
X145035901Y-106212238D01*
X145035901Y-106212238D02*
X145083520Y-106259857D01*
X145083520Y-106259857D02*
X145131139Y-106355095D01*
X145131139Y-106355095D02*
X145131139Y-106497952D01*
X145131139Y-106497952D02*
X145083520Y-106593190D01*
X145083520Y-106593190D02*
X145035901Y-106640809D01*
X145035901Y-106640809D02*
X144940663Y-106688428D01*
X144940663Y-106688428D02*
X144559711Y-106688428D01*
X145559711Y-106783666D02*
X146321616Y-106783666D01*
X146702568Y-106164619D02*
X146940663Y-107164619D01*
X146940663Y-107164619D02*
X147131139Y-106450333D01*
X147131139Y-106450333D02*
X147321615Y-107164619D01*
X147321615Y-107164619D02*
X147559711Y-106164619D01*
X148512091Y-107164619D02*
X148178758Y-106688428D01*
X147940663Y-107164619D02*
X147940663Y-106164619D01*
X147940663Y-106164619D02*
X148321615Y-106164619D01*
X148321615Y-106164619D02*
X148416853Y-106212238D01*
X148416853Y-106212238D02*
X148464472Y-106259857D01*
X148464472Y-106259857D02*
X148512091Y-106355095D01*
X148512091Y-106355095D02*
X148512091Y-106497952D01*
X148512091Y-106497952D02*
X148464472Y-106593190D01*
X148464472Y-106593190D02*
X148416853Y-106640809D01*
X148416853Y-106640809D02*
X148321615Y-106688428D01*
X148321615Y-106688428D02*
X147940663Y-106688428D01*
X149131139Y-106164619D02*
X149321615Y-106164619D01*
X149321615Y-106164619D02*
X149416853Y-106212238D01*
X149416853Y-106212238D02*
X149512091Y-106307476D01*
X149512091Y-106307476D02*
X149559710Y-106497952D01*
X149559710Y-106497952D02*
X149559710Y-106831285D01*
X149559710Y-106831285D02*
X149512091Y-107021761D01*
X149512091Y-107021761D02*
X149416853Y-107117000D01*
X149416853Y-107117000D02*
X149321615Y-107164619D01*
X149321615Y-107164619D02*
X149131139Y-107164619D01*
X149131139Y-107164619D02*
X149035901Y-107117000D01*
X149035901Y-107117000D02*
X148940663Y-107021761D01*
X148940663Y-107021761D02*
X148893044Y-106831285D01*
X148893044Y-106831285D02*
X148893044Y-106497952D01*
X148893044Y-106497952D02*
X148940663Y-106307476D01*
X148940663Y-106307476D02*
X149035901Y-106212238D01*
X149035901Y-106212238D02*
X149131139Y-106164619D01*
X150178758Y-106164619D02*
X150369234Y-106164619D01*
X150369234Y-106164619D02*
X150464472Y-106212238D01*
X150464472Y-106212238D02*
X150559710Y-106307476D01*
X150559710Y-106307476D02*
X150607329Y-106497952D01*
X150607329Y-106497952D02*
X150607329Y-106831285D01*
X150607329Y-106831285D02*
X150559710Y-107021761D01*
X150559710Y-107021761D02*
X150464472Y-107117000D01*
X150464472Y-107117000D02*
X150369234Y-107164619D01*
X150369234Y-107164619D02*
X150178758Y-107164619D01*
X150178758Y-107164619D02*
X150083520Y-107117000D01*
X150083520Y-107117000D02*
X149988282Y-107021761D01*
X149988282Y-107021761D02*
X149940663Y-106831285D01*
X149940663Y-106831285D02*
X149940663Y-106497952D01*
X149940663Y-106497952D02*
X149988282Y-106307476D01*
X149988282Y-106307476D02*
X150083520Y-106212238D01*
X150083520Y-106212238D02*
X150178758Y-106164619D01*
X150893044Y-106164619D02*
X151226377Y-107164619D01*
X151226377Y-107164619D02*
X151559710Y-106164619D01*
X151893044Y-106640809D02*
X152226377Y-106640809D01*
X152369234Y-107164619D02*
X151893044Y-107164619D01*
X151893044Y-107164619D02*
X151893044Y-106164619D01*
X151893044Y-106164619D02*
X152369234Y-106164619D01*
X153369234Y-107164619D02*
X153035901Y-106688428D01*
X152797806Y-107164619D02*
X152797806Y-106164619D01*
X152797806Y-106164619D02*
X153178758Y-106164619D01*
X153178758Y-106164619D02*
X153273996Y-106212238D01*
X153273996Y-106212238D02*
X153321615Y-106259857D01*
X153321615Y-106259857D02*
X153369234Y-106355095D01*
X153369234Y-106355095D02*
X153369234Y-106497952D01*
X153369234Y-106497952D02*
X153321615Y-106593190D01*
X153321615Y-106593190D02*
X153273996Y-106640809D01*
X153273996Y-106640809D02*
X153178758Y-106688428D01*
X153178758Y-106688428D02*
X152797806Y-106688428D01*
X153797806Y-106783666D02*
X154559711Y-106783666D01*
X154940663Y-106164619D02*
X155559710Y-106164619D01*
X155559710Y-106164619D02*
X155226377Y-106545571D01*
X155226377Y-106545571D02*
X155369234Y-106545571D01*
X155369234Y-106545571D02*
X155464472Y-106593190D01*
X155464472Y-106593190D02*
X155512091Y-106640809D01*
X155512091Y-106640809D02*
X155559710Y-106736047D01*
X155559710Y-106736047D02*
X155559710Y-106974142D01*
X155559710Y-106974142D02*
X155512091Y-107069380D01*
X155512091Y-107069380D02*
X155464472Y-107117000D01*
X155464472Y-107117000D02*
X155369234Y-107164619D01*
X155369234Y-107164619D02*
X155083520Y-107164619D01*
X155083520Y-107164619D02*
X154988282Y-107117000D01*
X154988282Y-107117000D02*
X154940663Y-107069380D01*
X155940663Y-106259857D02*
X155988282Y-106212238D01*
X155988282Y-106212238D02*
X156083520Y-106164619D01*
X156083520Y-106164619D02*
X156321615Y-106164619D01*
X156321615Y-106164619D02*
X156416853Y-106212238D01*
X156416853Y-106212238D02*
X156464472Y-106259857D01*
X156464472Y-106259857D02*
X156512091Y-106355095D01*
X156512091Y-106355095D02*
X156512091Y-106450333D01*
X156512091Y-106450333D02*
X156464472Y-106593190D01*
X156464472Y-106593190D02*
X155893044Y-107164619D01*
X155893044Y-107164619D02*
X156512091Y-107164619D01*
X108512238Y-85878860D02*
X108464619Y-85974098D01*
X108464619Y-85974098D02*
X108464619Y-86116955D01*
X108464619Y-86116955D02*
X108512238Y-86259812D01*
X108512238Y-86259812D02*
X108607476Y-86355050D01*
X108607476Y-86355050D02*
X108702714Y-86402669D01*
X108702714Y-86402669D02*
X108893190Y-86450288D01*
X108893190Y-86450288D02*
X109036047Y-86450288D01*
X109036047Y-86450288D02*
X109226523Y-86402669D01*
X109226523Y-86402669D02*
X109321761Y-86355050D01*
X109321761Y-86355050D02*
X109417000Y-86259812D01*
X109417000Y-86259812D02*
X109464619Y-86116955D01*
X109464619Y-86116955D02*
X109464619Y-86021717D01*
X109464619Y-86021717D02*
X109417000Y-85878860D01*
X109417000Y-85878860D02*
X109369380Y-85831241D01*
X109369380Y-85831241D02*
X109036047Y-85831241D01*
X109036047Y-85831241D02*
X109036047Y-86021717D01*
X109464619Y-85402669D02*
X108464619Y-85402669D01*
X108464619Y-85402669D02*
X109464619Y-84831241D01*
X109464619Y-84831241D02*
X108464619Y-84831241D01*
X109464619Y-84355050D02*
X108464619Y-84355050D01*
X108464619Y-84355050D02*
X108464619Y-84116955D01*
X108464619Y-84116955D02*
X108512238Y-83974098D01*
X108512238Y-83974098D02*
X108607476Y-83878860D01*
X108607476Y-83878860D02*
X108702714Y-83831241D01*
X108702714Y-83831241D02*
X108893190Y-83783622D01*
X108893190Y-83783622D02*
X109036047Y-83783622D01*
X109036047Y-83783622D02*
X109226523Y-83831241D01*
X109226523Y-83831241D02*
X109321761Y-83878860D01*
X109321761Y-83878860D02*
X109417000Y-83974098D01*
X109417000Y-83974098D02*
X109464619Y-84116955D01*
X109464619Y-84116955D02*
X109464619Y-84355050D01*
X178451377Y-79827238D02*
X178356139Y-79779619D01*
X178356139Y-79779619D02*
X178213282Y-79779619D01*
X178213282Y-79779619D02*
X178070425Y-79827238D01*
X178070425Y-79827238D02*
X177975187Y-79922476D01*
X177975187Y-79922476D02*
X177927568Y-80017714D01*
X177927568Y-80017714D02*
X177879949Y-80208190D01*
X177879949Y-80208190D02*
X177879949Y-80351047D01*
X177879949Y-80351047D02*
X177927568Y-80541523D01*
X177927568Y-80541523D02*
X177975187Y-80636761D01*
X177975187Y-80636761D02*
X178070425Y-80732000D01*
X178070425Y-80732000D02*
X178213282Y-80779619D01*
X178213282Y-80779619D02*
X178308520Y-80779619D01*
X178308520Y-80779619D02*
X178451377Y-80732000D01*
X178451377Y-80732000D02*
X178498996Y-80684380D01*
X178498996Y-80684380D02*
X178498996Y-80351047D01*
X178498996Y-80351047D02*
X178308520Y-80351047D01*
X178927568Y-80779619D02*
X178927568Y-79779619D01*
X178927568Y-79779619D02*
X179498996Y-80779619D01*
X179498996Y-80779619D02*
X179498996Y-79779619D01*
X179975187Y-80779619D02*
X179975187Y-79779619D01*
X179975187Y-79779619D02*
X180213282Y-79779619D01*
X180213282Y-79779619D02*
X180356139Y-79827238D01*
X180356139Y-79827238D02*
X180451377Y-79922476D01*
X180451377Y-79922476D02*
X180498996Y-80017714D01*
X180498996Y-80017714D02*
X180546615Y-80208190D01*
X180546615Y-80208190D02*
X180546615Y-80351047D01*
X180546615Y-80351047D02*
X180498996Y-80541523D01*
X180498996Y-80541523D02*
X180451377Y-80636761D01*
X180451377Y-80636761D02*
X180356139Y-80732000D01*
X180356139Y-80732000D02*
X180213282Y-80779619D01*
X180213282Y-80779619D02*
X179975187Y-80779619D01*
X110146377Y-120572238D02*
X110051139Y-120524619D01*
X110051139Y-120524619D02*
X109908282Y-120524619D01*
X109908282Y-120524619D02*
X109765425Y-120572238D01*
X109765425Y-120572238D02*
X109670187Y-120667476D01*
X109670187Y-120667476D02*
X109622568Y-120762714D01*
X109622568Y-120762714D02*
X109574949Y-120953190D01*
X109574949Y-120953190D02*
X109574949Y-121096047D01*
X109574949Y-121096047D02*
X109622568Y-121286523D01*
X109622568Y-121286523D02*
X109670187Y-121381761D01*
X109670187Y-121381761D02*
X109765425Y-121477000D01*
X109765425Y-121477000D02*
X109908282Y-121524619D01*
X109908282Y-121524619D02*
X110003520Y-121524619D01*
X110003520Y-121524619D02*
X110146377Y-121477000D01*
X110146377Y-121477000D02*
X110193996Y-121429380D01*
X110193996Y-121429380D02*
X110193996Y-121096047D01*
X110193996Y-121096047D02*
X110003520Y-121096047D01*
X110622568Y-121524619D02*
X110622568Y-120524619D01*
X110622568Y-120524619D02*
X111193996Y-121524619D01*
X111193996Y-121524619D02*
X111193996Y-120524619D01*
X111670187Y-121524619D02*
X111670187Y-120524619D01*
X111670187Y-120524619D02*
X111908282Y-120524619D01*
X111908282Y-120524619D02*
X112051139Y-120572238D01*
X112051139Y-120572238D02*
X112146377Y-120667476D01*
X112146377Y-120667476D02*
X112193996Y-120762714D01*
X112193996Y-120762714D02*
X112241615Y-120953190D01*
X112241615Y-120953190D02*
X112241615Y-121096047D01*
X112241615Y-121096047D02*
X112193996Y-121286523D01*
X112193996Y-121286523D02*
X112146377Y-121381761D01*
X112146377Y-121381761D02*
X112051139Y-121477000D01*
X112051139Y-121477000D02*
X111908282Y-121524619D01*
X111908282Y-121524619D02*
X111670187Y-121524619D01*
D11*
X125854510Y-147100828D02*
X125854510Y-145600828D01*
X126497368Y-147100828D02*
X126497368Y-146315114D01*
X126497368Y-146315114D02*
X126425939Y-146172257D01*
X126425939Y-146172257D02*
X126283082Y-146100828D01*
X126283082Y-146100828D02*
X126068796Y-146100828D01*
X126068796Y-146100828D02*
X125925939Y-146172257D01*
X125925939Y-146172257D02*
X125854510Y-146243685D01*
X126997368Y-146100828D02*
X127568796Y-146100828D01*
X127211653Y-145600828D02*
X127211653Y-146886542D01*
X127211653Y-146886542D02*
X127283082Y-147029400D01*
X127283082Y-147029400D02*
X127425939Y-147100828D01*
X127425939Y-147100828D02*
X127568796Y-147100828D01*
X127854511Y-146100828D02*
X128425939Y-146100828D01*
X128068796Y-145600828D02*
X128068796Y-146886542D01*
X128068796Y-146886542D02*
X128140225Y-147029400D01*
X128140225Y-147029400D02*
X128283082Y-147100828D01*
X128283082Y-147100828D02*
X128425939Y-147100828D01*
X128925939Y-146100828D02*
X128925939Y-147600828D01*
X128925939Y-146172257D02*
X129068797Y-146100828D01*
X129068797Y-146100828D02*
X129354511Y-146100828D01*
X129354511Y-146100828D02*
X129497368Y-146172257D01*
X129497368Y-146172257D02*
X129568797Y-146243685D01*
X129568797Y-146243685D02*
X129640225Y-146386542D01*
X129640225Y-146386542D02*
X129640225Y-146815114D01*
X129640225Y-146815114D02*
X129568797Y-146957971D01*
X129568797Y-146957971D02*
X129497368Y-147029400D01*
X129497368Y-147029400D02*
X129354511Y-147100828D01*
X129354511Y-147100828D02*
X129068797Y-147100828D01*
X129068797Y-147100828D02*
X128925939Y-147029400D01*
X130211654Y-147029400D02*
X130354511Y-147100828D01*
X130354511Y-147100828D02*
X130640225Y-147100828D01*
X130640225Y-147100828D02*
X130783082Y-147029400D01*
X130783082Y-147029400D02*
X130854511Y-146886542D01*
X130854511Y-146886542D02*
X130854511Y-146815114D01*
X130854511Y-146815114D02*
X130783082Y-146672257D01*
X130783082Y-146672257D02*
X130640225Y-146600828D01*
X130640225Y-146600828D02*
X130425940Y-146600828D01*
X130425940Y-146600828D02*
X130283082Y-146529400D01*
X130283082Y-146529400D02*
X130211654Y-146386542D01*
X130211654Y-146386542D02*
X130211654Y-146315114D01*
X130211654Y-146315114D02*
X130283082Y-146172257D01*
X130283082Y-146172257D02*
X130425940Y-146100828D01*
X130425940Y-146100828D02*
X130640225Y-146100828D01*
X130640225Y-146100828D02*
X130783082Y-146172257D01*
X131497368Y-146957971D02*
X131568797Y-147029400D01*
X131568797Y-147029400D02*
X131497368Y-147100828D01*
X131497368Y-147100828D02*
X131425940Y-147029400D01*
X131425940Y-147029400D02*
X131497368Y-146957971D01*
X131497368Y-146957971D02*
X131497368Y-147100828D01*
X131497368Y-146172257D02*
X131568797Y-146243685D01*
X131568797Y-146243685D02*
X131497368Y-146315114D01*
X131497368Y-146315114D02*
X131425940Y-146243685D01*
X131425940Y-146243685D02*
X131497368Y-146172257D01*
X131497368Y-146172257D02*
X131497368Y-146315114D01*
X133283083Y-145529400D02*
X131997369Y-147457971D01*
X134854512Y-145529400D02*
X133568798Y-147457971D01*
X135997370Y-146100828D02*
X135997370Y-147315114D01*
X135997370Y-147315114D02*
X135925941Y-147457971D01*
X135925941Y-147457971D02*
X135854512Y-147529400D01*
X135854512Y-147529400D02*
X135711655Y-147600828D01*
X135711655Y-147600828D02*
X135497370Y-147600828D01*
X135497370Y-147600828D02*
X135354512Y-147529400D01*
X135997370Y-147029400D02*
X135854512Y-147100828D01*
X135854512Y-147100828D02*
X135568798Y-147100828D01*
X135568798Y-147100828D02*
X135425941Y-147029400D01*
X135425941Y-147029400D02*
X135354512Y-146957971D01*
X135354512Y-146957971D02*
X135283084Y-146815114D01*
X135283084Y-146815114D02*
X135283084Y-146386542D01*
X135283084Y-146386542D02*
X135354512Y-146243685D01*
X135354512Y-146243685D02*
X135425941Y-146172257D01*
X135425941Y-146172257D02*
X135568798Y-146100828D01*
X135568798Y-146100828D02*
X135854512Y-146100828D01*
X135854512Y-146100828D02*
X135997370Y-146172257D01*
X136711655Y-147100828D02*
X136711655Y-146100828D01*
X136711655Y-145600828D02*
X136640227Y-145672257D01*
X136640227Y-145672257D02*
X136711655Y-145743685D01*
X136711655Y-145743685D02*
X136783084Y-145672257D01*
X136783084Y-145672257D02*
X136711655Y-145600828D01*
X136711655Y-145600828D02*
X136711655Y-145743685D01*
X137211656Y-146100828D02*
X137783084Y-146100828D01*
X137425941Y-145600828D02*
X137425941Y-146886542D01*
X137425941Y-146886542D02*
X137497370Y-147029400D01*
X137497370Y-147029400D02*
X137640227Y-147100828D01*
X137640227Y-147100828D02*
X137783084Y-147100828D01*
X138283084Y-147100828D02*
X138283084Y-145600828D01*
X138925942Y-147100828D02*
X138925942Y-146315114D01*
X138925942Y-146315114D02*
X138854513Y-146172257D01*
X138854513Y-146172257D02*
X138711656Y-146100828D01*
X138711656Y-146100828D02*
X138497370Y-146100828D01*
X138497370Y-146100828D02*
X138354513Y-146172257D01*
X138354513Y-146172257D02*
X138283084Y-146243685D01*
X140283085Y-146100828D02*
X140283085Y-147100828D01*
X139640227Y-146100828D02*
X139640227Y-146886542D01*
X139640227Y-146886542D02*
X139711656Y-147029400D01*
X139711656Y-147029400D02*
X139854513Y-147100828D01*
X139854513Y-147100828D02*
X140068799Y-147100828D01*
X140068799Y-147100828D02*
X140211656Y-147029400D01*
X140211656Y-147029400D02*
X140283085Y-146957971D01*
X140997370Y-147100828D02*
X140997370Y-145600828D01*
X140997370Y-146172257D02*
X141140228Y-146100828D01*
X141140228Y-146100828D02*
X141425942Y-146100828D01*
X141425942Y-146100828D02*
X141568799Y-146172257D01*
X141568799Y-146172257D02*
X141640228Y-146243685D01*
X141640228Y-146243685D02*
X141711656Y-146386542D01*
X141711656Y-146386542D02*
X141711656Y-146815114D01*
X141711656Y-146815114D02*
X141640228Y-146957971D01*
X141640228Y-146957971D02*
X141568799Y-147029400D01*
X141568799Y-147029400D02*
X141425942Y-147100828D01*
X141425942Y-147100828D02*
X141140228Y-147100828D01*
X141140228Y-147100828D02*
X140997370Y-147029400D01*
X142354513Y-146957971D02*
X142425942Y-147029400D01*
X142425942Y-147029400D02*
X142354513Y-147100828D01*
X142354513Y-147100828D02*
X142283085Y-147029400D01*
X142283085Y-147029400D02*
X142354513Y-146957971D01*
X142354513Y-146957971D02*
X142354513Y-147100828D01*
X143711657Y-147029400D02*
X143568799Y-147100828D01*
X143568799Y-147100828D02*
X143283085Y-147100828D01*
X143283085Y-147100828D02*
X143140228Y-147029400D01*
X143140228Y-147029400D02*
X143068799Y-146957971D01*
X143068799Y-146957971D02*
X142997371Y-146815114D01*
X142997371Y-146815114D02*
X142997371Y-146386542D01*
X142997371Y-146386542D02*
X143068799Y-146243685D01*
X143068799Y-146243685D02*
X143140228Y-146172257D01*
X143140228Y-146172257D02*
X143283085Y-146100828D01*
X143283085Y-146100828D02*
X143568799Y-146100828D01*
X143568799Y-146100828D02*
X143711657Y-146172257D01*
X144568799Y-147100828D02*
X144425942Y-147029400D01*
X144425942Y-147029400D02*
X144354513Y-146957971D01*
X144354513Y-146957971D02*
X144283085Y-146815114D01*
X144283085Y-146815114D02*
X144283085Y-146386542D01*
X144283085Y-146386542D02*
X144354513Y-146243685D01*
X144354513Y-146243685D02*
X144425942Y-146172257D01*
X144425942Y-146172257D02*
X144568799Y-146100828D01*
X144568799Y-146100828D02*
X144783085Y-146100828D01*
X144783085Y-146100828D02*
X144925942Y-146172257D01*
X144925942Y-146172257D02*
X144997371Y-146243685D01*
X144997371Y-146243685D02*
X145068799Y-146386542D01*
X145068799Y-146386542D02*
X145068799Y-146815114D01*
X145068799Y-146815114D02*
X144997371Y-146957971D01*
X144997371Y-146957971D02*
X144925942Y-147029400D01*
X144925942Y-147029400D02*
X144783085Y-147100828D01*
X144783085Y-147100828D02*
X144568799Y-147100828D01*
X145711656Y-147100828D02*
X145711656Y-146100828D01*
X145711656Y-146243685D02*
X145783085Y-146172257D01*
X145783085Y-146172257D02*
X145925942Y-146100828D01*
X145925942Y-146100828D02*
X146140228Y-146100828D01*
X146140228Y-146100828D02*
X146283085Y-146172257D01*
X146283085Y-146172257D02*
X146354514Y-146315114D01*
X146354514Y-146315114D02*
X146354514Y-147100828D01*
X146354514Y-146315114D02*
X146425942Y-146172257D01*
X146425942Y-146172257D02*
X146568799Y-146100828D01*
X146568799Y-146100828D02*
X146783085Y-146100828D01*
X146783085Y-146100828D02*
X146925942Y-146172257D01*
X146925942Y-146172257D02*
X146997371Y-146315114D01*
X146997371Y-146315114D02*
X146997371Y-147100828D01*
X148783085Y-145529400D02*
X147497371Y-147457971D01*
X149783085Y-146315114D02*
X149283085Y-146315114D01*
X149283085Y-147100828D02*
X149283085Y-145600828D01*
X149283085Y-145600828D02*
X149997371Y-145600828D01*
X151140228Y-147029400D02*
X150997371Y-147100828D01*
X150997371Y-147100828D02*
X150711657Y-147100828D01*
X150711657Y-147100828D02*
X150568799Y-147029400D01*
X150568799Y-147029400D02*
X150497371Y-146886542D01*
X150497371Y-146886542D02*
X150497371Y-146315114D01*
X150497371Y-146315114D02*
X150568799Y-146172257D01*
X150568799Y-146172257D02*
X150711657Y-146100828D01*
X150711657Y-146100828D02*
X150997371Y-146100828D01*
X150997371Y-146100828D02*
X151140228Y-146172257D01*
X151140228Y-146172257D02*
X151211657Y-146315114D01*
X151211657Y-146315114D02*
X151211657Y-146457971D01*
X151211657Y-146457971D02*
X150497371Y-146600828D01*
X152068799Y-147100828D02*
X151925942Y-147029400D01*
X151925942Y-147029400D02*
X151854513Y-146886542D01*
X151854513Y-146886542D02*
X151854513Y-145600828D01*
X152640227Y-147100828D02*
X152640227Y-146100828D01*
X152640227Y-145600828D02*
X152568799Y-145672257D01*
X152568799Y-145672257D02*
X152640227Y-145743685D01*
X152640227Y-145743685D02*
X152711656Y-145672257D01*
X152711656Y-145672257D02*
X152640227Y-145600828D01*
X152640227Y-145600828D02*
X152640227Y-145743685D01*
X153211656Y-147100828D02*
X153997371Y-146100828D01*
X153211656Y-146100828D02*
X153997371Y-147100828D01*
X154354514Y-145600828D02*
X155211657Y-145600828D01*
X154783085Y-147100828D02*
X154783085Y-145600828D01*
X155711656Y-147100828D02*
X155711656Y-146100828D01*
X155711656Y-146386542D02*
X155783085Y-146243685D01*
X155783085Y-146243685D02*
X155854514Y-146172257D01*
X155854514Y-146172257D02*
X155997371Y-146100828D01*
X155997371Y-146100828D02*
X156140228Y-146100828D01*
X157283085Y-146100828D02*
X157283085Y-147100828D01*
X156640227Y-146100828D02*
X156640227Y-146886542D01*
X156640227Y-146886542D02*
X156711656Y-147029400D01*
X156711656Y-147029400D02*
X156854513Y-147100828D01*
X156854513Y-147100828D02*
X157068799Y-147100828D01*
X157068799Y-147100828D02*
X157211656Y-147029400D01*
X157211656Y-147029400D02*
X157283085Y-146957971D01*
X157997370Y-146100828D02*
X157997370Y-147386542D01*
X157997370Y-147386542D02*
X157925942Y-147529400D01*
X157925942Y-147529400D02*
X157783085Y-147600828D01*
X157783085Y-147600828D02*
X157711656Y-147600828D01*
X157997370Y-145600828D02*
X157925942Y-145672257D01*
X157925942Y-145672257D02*
X157997370Y-145743685D01*
X157997370Y-145743685D02*
X158068799Y-145672257D01*
X158068799Y-145672257D02*
X157997370Y-145600828D01*
X157997370Y-145600828D02*
X157997370Y-145743685D01*
X158711656Y-147100828D02*
X158711656Y-146100828D01*
X158711656Y-145600828D02*
X158640228Y-145672257D01*
X158640228Y-145672257D02*
X158711656Y-145743685D01*
X158711656Y-145743685D02*
X158783085Y-145672257D01*
X158783085Y-145672257D02*
X158711656Y-145600828D01*
X158711656Y-145600828D02*
X158711656Y-145743685D01*
X159640228Y-147100828D02*
X159497371Y-147029400D01*
X159497371Y-147029400D02*
X159425942Y-146886542D01*
X159425942Y-146886542D02*
X159425942Y-145600828D01*
X160425942Y-147100828D02*
X160283085Y-147029400D01*
X160283085Y-147029400D02*
X160211656Y-146886542D01*
X160211656Y-146886542D02*
X160211656Y-145600828D01*
X161211656Y-147100828D02*
X161068799Y-147029400D01*
X161068799Y-147029400D02*
X160997370Y-146957971D01*
X160997370Y-146957971D02*
X160925942Y-146815114D01*
X160925942Y-146815114D02*
X160925942Y-146386542D01*
X160925942Y-146386542D02*
X160997370Y-146243685D01*
X160997370Y-146243685D02*
X161068799Y-146172257D01*
X161068799Y-146172257D02*
X161211656Y-146100828D01*
X161211656Y-146100828D02*
X161425942Y-146100828D01*
X161425942Y-146100828D02*
X161568799Y-146172257D01*
X161568799Y-146172257D02*
X161640228Y-146243685D01*
X161640228Y-146243685D02*
X161711656Y-146386542D01*
X161711656Y-146386542D02*
X161711656Y-146815114D01*
X161711656Y-146815114D02*
X161640228Y-146957971D01*
X161640228Y-146957971D02*
X161568799Y-147029400D01*
X161568799Y-147029400D02*
X161425942Y-147100828D01*
X161425942Y-147100828D02*
X161211656Y-147100828D01*
X163425942Y-145529400D02*
X162140228Y-147457971D01*
X163925942Y-146315114D02*
X164425942Y-146315114D01*
X164640228Y-147100828D02*
X163925942Y-147100828D01*
X163925942Y-147100828D02*
X163925942Y-145600828D01*
X163925942Y-145600828D02*
X164640228Y-145600828D01*
X165211657Y-147029400D02*
X165425943Y-147100828D01*
X165425943Y-147100828D02*
X165783085Y-147100828D01*
X165783085Y-147100828D02*
X165925943Y-147029400D01*
X165925943Y-147029400D02*
X165997371Y-146957971D01*
X165997371Y-146957971D02*
X166068800Y-146815114D01*
X166068800Y-146815114D02*
X166068800Y-146672257D01*
X166068800Y-146672257D02*
X165997371Y-146529400D01*
X165997371Y-146529400D02*
X165925943Y-146457971D01*
X165925943Y-146457971D02*
X165783085Y-146386542D01*
X165783085Y-146386542D02*
X165497371Y-146315114D01*
X165497371Y-146315114D02*
X165354514Y-146243685D01*
X165354514Y-146243685D02*
X165283085Y-146172257D01*
X165283085Y-146172257D02*
X165211657Y-146029400D01*
X165211657Y-146029400D02*
X165211657Y-145886542D01*
X165211657Y-145886542D02*
X165283085Y-145743685D01*
X165283085Y-145743685D02*
X165354514Y-145672257D01*
X165354514Y-145672257D02*
X165497371Y-145600828D01*
X165497371Y-145600828D02*
X165854514Y-145600828D01*
X165854514Y-145600828D02*
X166068800Y-145672257D01*
X166711656Y-147100828D02*
X166711656Y-145600828D01*
X166711656Y-145600828D02*
X167283085Y-145600828D01*
X167283085Y-145600828D02*
X167425942Y-145672257D01*
X167425942Y-145672257D02*
X167497371Y-145743685D01*
X167497371Y-145743685D02*
X167568799Y-145886542D01*
X167568799Y-145886542D02*
X167568799Y-146100828D01*
X167568799Y-146100828D02*
X167497371Y-146243685D01*
X167497371Y-146243685D02*
X167425942Y-146315114D01*
X167425942Y-146315114D02*
X167283085Y-146386542D01*
X167283085Y-146386542D02*
X166711656Y-146386542D01*
X168068799Y-145600828D02*
X168997371Y-145600828D01*
X168997371Y-145600828D02*
X168497371Y-146172257D01*
X168497371Y-146172257D02*
X168711656Y-146172257D01*
X168711656Y-146172257D02*
X168854514Y-146243685D01*
X168854514Y-146243685D02*
X168925942Y-146315114D01*
X168925942Y-146315114D02*
X168997371Y-146457971D01*
X168997371Y-146457971D02*
X168997371Y-146815114D01*
X168997371Y-146815114D02*
X168925942Y-146957971D01*
X168925942Y-146957971D02*
X168854514Y-147029400D01*
X168854514Y-147029400D02*
X168711656Y-147100828D01*
X168711656Y-147100828D02*
X168283085Y-147100828D01*
X168283085Y-147100828D02*
X168140228Y-147029400D01*
X168140228Y-147029400D02*
X168068799Y-146957971D01*
X169568799Y-145743685D02*
X169640227Y-145672257D01*
X169640227Y-145672257D02*
X169783085Y-145600828D01*
X169783085Y-145600828D02*
X170140227Y-145600828D01*
X170140227Y-145600828D02*
X170283085Y-145672257D01*
X170283085Y-145672257D02*
X170354513Y-145743685D01*
X170354513Y-145743685D02*
X170425942Y-145886542D01*
X170425942Y-145886542D02*
X170425942Y-146029400D01*
X170425942Y-146029400D02*
X170354513Y-146243685D01*
X170354513Y-146243685D02*
X169497370Y-147100828D01*
X169497370Y-147100828D02*
X170425942Y-147100828D01*
X171068798Y-146529400D02*
X172211656Y-146529400D01*
X172925941Y-147100828D02*
X172925941Y-145600828D01*
X172925941Y-145600828D02*
X173283084Y-145600828D01*
X173283084Y-145600828D02*
X173497370Y-145672257D01*
X173497370Y-145672257D02*
X173640227Y-145815114D01*
X173640227Y-145815114D02*
X173711656Y-145957971D01*
X173711656Y-145957971D02*
X173783084Y-146243685D01*
X173783084Y-146243685D02*
X173783084Y-146457971D01*
X173783084Y-146457971D02*
X173711656Y-146743685D01*
X173711656Y-146743685D02*
X173640227Y-146886542D01*
X173640227Y-146886542D02*
X173497370Y-147029400D01*
X173497370Y-147029400D02*
X173283084Y-147100828D01*
X173283084Y-147100828D02*
X172925941Y-147100828D01*
X174354513Y-146672257D02*
X175068799Y-146672257D01*
X174211656Y-147100828D02*
X174711656Y-145600828D01*
X174711656Y-145600828D02*
X175211656Y-147100828D01*
X176711655Y-147243685D02*
X176568798Y-147172257D01*
X176568798Y-147172257D02*
X176425941Y-147029400D01*
X176425941Y-147029400D02*
X176211655Y-146815114D01*
X176211655Y-146815114D02*
X176068798Y-146743685D01*
X176068798Y-146743685D02*
X175925941Y-146743685D01*
X175997370Y-147100828D02*
X175854513Y-147029400D01*
X175854513Y-147029400D02*
X175711655Y-146886542D01*
X175711655Y-146886542D02*
X175640227Y-146600828D01*
X175640227Y-146600828D02*
X175640227Y-146100828D01*
X175640227Y-146100828D02*
X175711655Y-145815114D01*
X175711655Y-145815114D02*
X175854513Y-145672257D01*
X175854513Y-145672257D02*
X175997370Y-145600828D01*
X175997370Y-145600828D02*
X176283084Y-145600828D01*
X176283084Y-145600828D02*
X176425941Y-145672257D01*
X176425941Y-145672257D02*
X176568798Y-145815114D01*
X176568798Y-145815114D02*
X176640227Y-146100828D01*
X176640227Y-146100828D02*
X176640227Y-146600828D01*
X176640227Y-146600828D02*
X176568798Y-146886542D01*
X176568798Y-146886542D02*
X176425941Y-147029400D01*
X176425941Y-147029400D02*
X176283084Y-147100828D01*
X176283084Y-147100828D02*
X175997370Y-147100828D01*
D10*
X109792568Y-108064619D02*
X109792568Y-107064619D01*
X109792568Y-107064619D02*
X110030663Y-107064619D01*
X110030663Y-107064619D02*
X110173520Y-107112238D01*
X110173520Y-107112238D02*
X110268758Y-107207476D01*
X110268758Y-107207476D02*
X110316377Y-107302714D01*
X110316377Y-107302714D02*
X110363996Y-107493190D01*
X110363996Y-107493190D02*
X110363996Y-107636047D01*
X110363996Y-107636047D02*
X110316377Y-107826523D01*
X110316377Y-107826523D02*
X110268758Y-107921761D01*
X110268758Y-107921761D02*
X110173520Y-108017000D01*
X110173520Y-108017000D02*
X110030663Y-108064619D01*
X110030663Y-108064619D02*
X109792568Y-108064619D01*
X110983044Y-107064619D02*
X111173520Y-107064619D01*
X111173520Y-107064619D02*
X111268758Y-107112238D01*
X111268758Y-107112238D02*
X111363996Y-107207476D01*
X111363996Y-107207476D02*
X111411615Y-107397952D01*
X111411615Y-107397952D02*
X111411615Y-107731285D01*
X111411615Y-107731285D02*
X111363996Y-107921761D01*
X111363996Y-107921761D02*
X111268758Y-108017000D01*
X111268758Y-108017000D02*
X111173520Y-108064619D01*
X111173520Y-108064619D02*
X110983044Y-108064619D01*
X110983044Y-108064619D02*
X110887806Y-108017000D01*
X110887806Y-108017000D02*
X110792568Y-107921761D01*
X110792568Y-107921761D02*
X110744949Y-107731285D01*
X110744949Y-107731285D02*
X110744949Y-107397952D01*
X110744949Y-107397952D02*
X110792568Y-107207476D01*
X110792568Y-107207476D02*
X110887806Y-107112238D01*
X110887806Y-107112238D02*
X110983044Y-107064619D01*
X187792568Y-100589619D02*
X187792568Y-99589619D01*
X187792568Y-99589619D02*
X188125901Y-100303904D01*
X188125901Y-100303904D02*
X188459234Y-99589619D01*
X188459234Y-99589619D02*
X188459234Y-100589619D01*
X188935425Y-100589619D02*
X188935425Y-99589619D01*
X189363996Y-100542000D02*
X189506853Y-100589619D01*
X189506853Y-100589619D02*
X189744948Y-100589619D01*
X189744948Y-100589619D02*
X189840186Y-100542000D01*
X189840186Y-100542000D02*
X189887805Y-100494380D01*
X189887805Y-100494380D02*
X189935424Y-100399142D01*
X189935424Y-100399142D02*
X189935424Y-100303904D01*
X189935424Y-100303904D02*
X189887805Y-100208666D01*
X189887805Y-100208666D02*
X189840186Y-100161047D01*
X189840186Y-100161047D02*
X189744948Y-100113428D01*
X189744948Y-100113428D02*
X189554472Y-100065809D01*
X189554472Y-100065809D02*
X189459234Y-100018190D01*
X189459234Y-100018190D02*
X189411615Y-99970571D01*
X189411615Y-99970571D02*
X189363996Y-99875333D01*
X189363996Y-99875333D02*
X189363996Y-99780095D01*
X189363996Y-99780095D02*
X189411615Y-99684857D01*
X189411615Y-99684857D02*
X189459234Y-99637238D01*
X189459234Y-99637238D02*
X189554472Y-99589619D01*
X189554472Y-99589619D02*
X189792567Y-99589619D01*
X189792567Y-99589619D02*
X189935424Y-99637238D01*
X190554472Y-99589619D02*
X190744948Y-99589619D01*
X190744948Y-99589619D02*
X190840186Y-99637238D01*
X190840186Y-99637238D02*
X190935424Y-99732476D01*
X190935424Y-99732476D02*
X190983043Y-99922952D01*
X190983043Y-99922952D02*
X190983043Y-100256285D01*
X190983043Y-100256285D02*
X190935424Y-100446761D01*
X190935424Y-100446761D02*
X190840186Y-100542000D01*
X190840186Y-100542000D02*
X190744948Y-100589619D01*
X190744948Y-100589619D02*
X190554472Y-100589619D01*
X190554472Y-100589619D02*
X190459234Y-100542000D01*
X190459234Y-100542000D02*
X190363996Y-100446761D01*
X190363996Y-100446761D02*
X190316377Y-100256285D01*
X190316377Y-100256285D02*
X190316377Y-99922952D01*
X190316377Y-99922952D02*
X190363996Y-99732476D01*
X190363996Y-99732476D02*
X190459234Y-99637238D01*
X190459234Y-99637238D02*
X190554472Y-99589619D01*
X128034619Y-86116955D02*
X128034619Y-85926479D01*
X128034619Y-85926479D02*
X128082238Y-85831241D01*
X128082238Y-85831241D02*
X128177476Y-85736003D01*
X128177476Y-85736003D02*
X128367952Y-85688384D01*
X128367952Y-85688384D02*
X128701285Y-85688384D01*
X128701285Y-85688384D02*
X128891761Y-85736003D01*
X128891761Y-85736003D02*
X128987000Y-85831241D01*
X128987000Y-85831241D02*
X129034619Y-85926479D01*
X129034619Y-85926479D02*
X129034619Y-86116955D01*
X129034619Y-86116955D02*
X128987000Y-86212193D01*
X128987000Y-86212193D02*
X128891761Y-86307431D01*
X128891761Y-86307431D02*
X128701285Y-86355050D01*
X128701285Y-86355050D02*
X128367952Y-86355050D01*
X128367952Y-86355050D02*
X128177476Y-86307431D01*
X128177476Y-86307431D02*
X128082238Y-86212193D01*
X128082238Y-86212193D02*
X128034619Y-86116955D01*
X128034619Y-85259812D02*
X128844142Y-85259812D01*
X128844142Y-85259812D02*
X128939380Y-85212193D01*
X128939380Y-85212193D02*
X128987000Y-85164574D01*
X128987000Y-85164574D02*
X129034619Y-85069336D01*
X129034619Y-85069336D02*
X129034619Y-84878860D01*
X129034619Y-84878860D02*
X128987000Y-84783622D01*
X128987000Y-84783622D02*
X128939380Y-84736003D01*
X128939380Y-84736003D02*
X128844142Y-84688384D01*
X128844142Y-84688384D02*
X128034619Y-84688384D01*
X128034619Y-84355050D02*
X128034619Y-83783622D01*
X129034619Y-84069336D02*
X128034619Y-84069336D01*
X109479711Y-112924619D02*
X109813044Y-113924619D01*
X109813044Y-113924619D02*
X110146377Y-112924619D01*
X111051139Y-113829380D02*
X111003520Y-113877000D01*
X111003520Y-113877000D02*
X110860663Y-113924619D01*
X110860663Y-113924619D02*
X110765425Y-113924619D01*
X110765425Y-113924619D02*
X110622568Y-113877000D01*
X110622568Y-113877000D02*
X110527330Y-113781761D01*
X110527330Y-113781761D02*
X110479711Y-113686523D01*
X110479711Y-113686523D02*
X110432092Y-113496047D01*
X110432092Y-113496047D02*
X110432092Y-113353190D01*
X110432092Y-113353190D02*
X110479711Y-113162714D01*
X110479711Y-113162714D02*
X110527330Y-113067476D01*
X110527330Y-113067476D02*
X110622568Y-112972238D01*
X110622568Y-112972238D02*
X110765425Y-112924619D01*
X110765425Y-112924619D02*
X110860663Y-112924619D01*
X110860663Y-112924619D02*
X111003520Y-112972238D01*
X111003520Y-112972238D02*
X111051139Y-113019857D01*
X112051139Y-113829380D02*
X112003520Y-113877000D01*
X112003520Y-113877000D02*
X111860663Y-113924619D01*
X111860663Y-113924619D02*
X111765425Y-113924619D01*
X111765425Y-113924619D02*
X111622568Y-113877000D01*
X111622568Y-113877000D02*
X111527330Y-113781761D01*
X111527330Y-113781761D02*
X111479711Y-113686523D01*
X111479711Y-113686523D02*
X111432092Y-113496047D01*
X111432092Y-113496047D02*
X111432092Y-113353190D01*
X111432092Y-113353190D02*
X111479711Y-113162714D01*
X111479711Y-113162714D02*
X111527330Y-113067476D01*
X111527330Y-113067476D02*
X111622568Y-112972238D01*
X111622568Y-112972238D02*
X111765425Y-112924619D01*
X111765425Y-112924619D02*
X111860663Y-112924619D01*
X111860663Y-112924619D02*
X112003520Y-112972238D01*
X112003520Y-112972238D02*
X112051139Y-113019857D01*
X130632238Y-85878860D02*
X130584619Y-85974098D01*
X130584619Y-85974098D02*
X130584619Y-86116955D01*
X130584619Y-86116955D02*
X130632238Y-86259812D01*
X130632238Y-86259812D02*
X130727476Y-86355050D01*
X130727476Y-86355050D02*
X130822714Y-86402669D01*
X130822714Y-86402669D02*
X131013190Y-86450288D01*
X131013190Y-86450288D02*
X131156047Y-86450288D01*
X131156047Y-86450288D02*
X131346523Y-86402669D01*
X131346523Y-86402669D02*
X131441761Y-86355050D01*
X131441761Y-86355050D02*
X131537000Y-86259812D01*
X131537000Y-86259812D02*
X131584619Y-86116955D01*
X131584619Y-86116955D02*
X131584619Y-86021717D01*
X131584619Y-86021717D02*
X131537000Y-85878860D01*
X131537000Y-85878860D02*
X131489380Y-85831241D01*
X131489380Y-85831241D02*
X131156047Y-85831241D01*
X131156047Y-85831241D02*
X131156047Y-86021717D01*
X131584619Y-85402669D02*
X130584619Y-85402669D01*
X130584619Y-85402669D02*
X131584619Y-84831241D01*
X131584619Y-84831241D02*
X130584619Y-84831241D01*
X131584619Y-84355050D02*
X130584619Y-84355050D01*
X130584619Y-84355050D02*
X130584619Y-84116955D01*
X130584619Y-84116955D02*
X130632238Y-83974098D01*
X130632238Y-83974098D02*
X130727476Y-83878860D01*
X130727476Y-83878860D02*
X130822714Y-83831241D01*
X130822714Y-83831241D02*
X131013190Y-83783622D01*
X131013190Y-83783622D02*
X131156047Y-83783622D01*
X131156047Y-83783622D02*
X131346523Y-83831241D01*
X131346523Y-83831241D02*
X131441761Y-83878860D01*
X131441761Y-83878860D02*
X131537000Y-83974098D01*
X131537000Y-83974098D02*
X131584619Y-84116955D01*
X131584619Y-84116955D02*
X131584619Y-84355050D01*
X188184711Y-79779619D02*
X188518044Y-80779619D01*
X188518044Y-80779619D02*
X188851377Y-79779619D01*
X189756139Y-80684380D02*
X189708520Y-80732000D01*
X189708520Y-80732000D02*
X189565663Y-80779619D01*
X189565663Y-80779619D02*
X189470425Y-80779619D01*
X189470425Y-80779619D02*
X189327568Y-80732000D01*
X189327568Y-80732000D02*
X189232330Y-80636761D01*
X189232330Y-80636761D02*
X189184711Y-80541523D01*
X189184711Y-80541523D02*
X189137092Y-80351047D01*
X189137092Y-80351047D02*
X189137092Y-80208190D01*
X189137092Y-80208190D02*
X189184711Y-80017714D01*
X189184711Y-80017714D02*
X189232330Y-79922476D01*
X189232330Y-79922476D02*
X189327568Y-79827238D01*
X189327568Y-79827238D02*
X189470425Y-79779619D01*
X189470425Y-79779619D02*
X189565663Y-79779619D01*
X189565663Y-79779619D02*
X189708520Y-79827238D01*
X189708520Y-79827238D02*
X189756139Y-79874857D01*
X190756139Y-80684380D02*
X190708520Y-80732000D01*
X190708520Y-80732000D02*
X190565663Y-80779619D01*
X190565663Y-80779619D02*
X190470425Y-80779619D01*
X190470425Y-80779619D02*
X190327568Y-80732000D01*
X190327568Y-80732000D02*
X190232330Y-80636761D01*
X190232330Y-80636761D02*
X190184711Y-80541523D01*
X190184711Y-80541523D02*
X190137092Y-80351047D01*
X190137092Y-80351047D02*
X190137092Y-80208190D01*
X190137092Y-80208190D02*
X190184711Y-80017714D01*
X190184711Y-80017714D02*
X190232330Y-79922476D01*
X190232330Y-79922476D02*
X190327568Y-79827238D01*
X190327568Y-79827238D02*
X190470425Y-79779619D01*
X190470425Y-79779619D02*
X190565663Y-79779619D01*
X190565663Y-79779619D02*
X190708520Y-79827238D01*
X190708520Y-79827238D02*
X190756139Y-79874857D01*
X188411615Y-97089619D02*
X188744948Y-98089619D01*
X188744948Y-98089619D02*
X189078281Y-97089619D01*
X189983043Y-97994380D02*
X189935424Y-98042000D01*
X189935424Y-98042000D02*
X189792567Y-98089619D01*
X189792567Y-98089619D02*
X189697329Y-98089619D01*
X189697329Y-98089619D02*
X189554472Y-98042000D01*
X189554472Y-98042000D02*
X189459234Y-97946761D01*
X189459234Y-97946761D02*
X189411615Y-97851523D01*
X189411615Y-97851523D02*
X189363996Y-97661047D01*
X189363996Y-97661047D02*
X189363996Y-97518190D01*
X189363996Y-97518190D02*
X189411615Y-97327714D01*
X189411615Y-97327714D02*
X189459234Y-97232476D01*
X189459234Y-97232476D02*
X189554472Y-97137238D01*
X189554472Y-97137238D02*
X189697329Y-97089619D01*
X189697329Y-97089619D02*
X189792567Y-97089619D01*
X189792567Y-97089619D02*
X189935424Y-97137238D01*
X189935424Y-97137238D02*
X189983043Y-97184857D01*
X190983043Y-97994380D02*
X190935424Y-98042000D01*
X190935424Y-98042000D02*
X190792567Y-98089619D01*
X190792567Y-98089619D02*
X190697329Y-98089619D01*
X190697329Y-98089619D02*
X190554472Y-98042000D01*
X190554472Y-98042000D02*
X190459234Y-97946761D01*
X190459234Y-97946761D02*
X190411615Y-97851523D01*
X190411615Y-97851523D02*
X190363996Y-97661047D01*
X190363996Y-97661047D02*
X190363996Y-97518190D01*
X190363996Y-97518190D02*
X190411615Y-97327714D01*
X190411615Y-97327714D02*
X190459234Y-97232476D01*
X190459234Y-97232476D02*
X190554472Y-97137238D01*
X190554472Y-97137238D02*
X190697329Y-97089619D01*
X190697329Y-97089619D02*
X190792567Y-97089619D01*
X190792567Y-97089619D02*
X190935424Y-97137238D01*
X190935424Y-97137238D02*
X190983043Y-97184857D01*
X110193996Y-116424619D02*
X109860663Y-115948428D01*
X109622568Y-116424619D02*
X109622568Y-115424619D01*
X109622568Y-115424619D02*
X110003520Y-115424619D01*
X110003520Y-115424619D02*
X110098758Y-115472238D01*
X110098758Y-115472238D02*
X110146377Y-115519857D01*
X110146377Y-115519857D02*
X110193996Y-115615095D01*
X110193996Y-115615095D02*
X110193996Y-115757952D01*
X110193996Y-115757952D02*
X110146377Y-115853190D01*
X110146377Y-115853190D02*
X110098758Y-115900809D01*
X110098758Y-115900809D02*
X110003520Y-115948428D01*
X110003520Y-115948428D02*
X109622568Y-115948428D01*
X110527330Y-115424619D02*
X111193996Y-116424619D01*
X111193996Y-115424619D02*
X110527330Y-116424619D01*
X119782238Y-85818860D02*
X119734619Y-85914098D01*
X119734619Y-85914098D02*
X119734619Y-86056955D01*
X119734619Y-86056955D02*
X119782238Y-86199812D01*
X119782238Y-86199812D02*
X119877476Y-86295050D01*
X119877476Y-86295050D02*
X119972714Y-86342669D01*
X119972714Y-86342669D02*
X120163190Y-86390288D01*
X120163190Y-86390288D02*
X120306047Y-86390288D01*
X120306047Y-86390288D02*
X120496523Y-86342669D01*
X120496523Y-86342669D02*
X120591761Y-86295050D01*
X120591761Y-86295050D02*
X120687000Y-86199812D01*
X120687000Y-86199812D02*
X120734619Y-86056955D01*
X120734619Y-86056955D02*
X120734619Y-85961717D01*
X120734619Y-85961717D02*
X120687000Y-85818860D01*
X120687000Y-85818860D02*
X120639380Y-85771241D01*
X120639380Y-85771241D02*
X120306047Y-85771241D01*
X120306047Y-85771241D02*
X120306047Y-85961717D01*
X120734619Y-85342669D02*
X119734619Y-85342669D01*
X119734619Y-85342669D02*
X120734619Y-84771241D01*
X120734619Y-84771241D02*
X119734619Y-84771241D01*
X120734619Y-84295050D02*
X119734619Y-84295050D01*
X119734619Y-84295050D02*
X119734619Y-84056955D01*
X119734619Y-84056955D02*
X119782238Y-83914098D01*
X119782238Y-83914098D02*
X119877476Y-83818860D01*
X119877476Y-83818860D02*
X119972714Y-83771241D01*
X119972714Y-83771241D02*
X120163190Y-83723622D01*
X120163190Y-83723622D02*
X120306047Y-83723622D01*
X120306047Y-83723622D02*
X120496523Y-83771241D01*
X120496523Y-83771241D02*
X120591761Y-83818860D01*
X120591761Y-83818860D02*
X120687000Y-83914098D01*
X120687000Y-83914098D02*
X120734619Y-84056955D01*
X120734619Y-84056955D02*
X120734619Y-84295050D01*
D12*
X105976190Y-147904438D02*
X105976190Y-145904438D01*
X105976190Y-146856819D02*
X107119047Y-146856819D01*
X107119047Y-147904438D02*
X107119047Y-145904438D01*
X107880952Y-145904438D02*
X109119047Y-145904438D01*
X109119047Y-145904438D02*
X108452380Y-146666342D01*
X108452380Y-146666342D02*
X108738095Y-146666342D01*
X108738095Y-146666342D02*
X108928571Y-146761580D01*
X108928571Y-146761580D02*
X109023809Y-146856819D01*
X109023809Y-146856819D02*
X109119047Y-147047295D01*
X109119047Y-147047295D02*
X109119047Y-147523485D01*
X109119047Y-147523485D02*
X109023809Y-147713961D01*
X109023809Y-147713961D02*
X108928571Y-147809200D01*
X108928571Y-147809200D02*
X108738095Y-147904438D01*
X108738095Y-147904438D02*
X108166666Y-147904438D01*
X108166666Y-147904438D02*
X107976190Y-147809200D01*
X107976190Y-147809200D02*
X107880952Y-147713961D01*
X105976190Y-54404438D02*
X105976190Y-52404438D01*
X105976190Y-53356819D02*
X107119047Y-53356819D01*
X107119047Y-54404438D02*
X107119047Y-52404438D01*
X109119047Y-54404438D02*
X107976190Y-54404438D01*
X108547618Y-54404438D02*
X108547618Y-52404438D01*
X108547618Y-52404438D02*
X108357142Y-52690152D01*
X108357142Y-52690152D02*
X108166666Y-52880628D01*
X108166666Y-52880628D02*
X107976190Y-52975866D01*
X170008809Y-91184438D02*
X168865952Y-91184438D01*
X169437380Y-91184438D02*
X169437380Y-89184438D01*
X169437380Y-89184438D02*
X169246904Y-89470152D01*
X169246904Y-89470152D02*
X169056428Y-89660628D01*
X169056428Y-89660628D02*
X168865952Y-89755866D01*
X171246904Y-89184438D02*
X171437381Y-89184438D01*
X171437381Y-89184438D02*
X171627857Y-89279676D01*
X171627857Y-89279676D02*
X171723095Y-89374914D01*
X171723095Y-89374914D02*
X171818333Y-89565390D01*
X171818333Y-89565390D02*
X171913571Y-89946342D01*
X171913571Y-89946342D02*
X171913571Y-90422533D01*
X171913571Y-90422533D02*
X171818333Y-90803485D01*
X171818333Y-90803485D02*
X171723095Y-90993961D01*
X171723095Y-90993961D02*
X171627857Y-91089200D01*
X171627857Y-91089200D02*
X171437381Y-91184438D01*
X171437381Y-91184438D02*
X171246904Y-91184438D01*
X171246904Y-91184438D02*
X171056428Y-91089200D01*
X171056428Y-91089200D02*
X170961190Y-90993961D01*
X170961190Y-90993961D02*
X170865952Y-90803485D01*
X170865952Y-90803485D02*
X170770714Y-90422533D01*
X170770714Y-90422533D02*
X170770714Y-89946342D01*
X170770714Y-89946342D02*
X170865952Y-89565390D01*
X170865952Y-89565390D02*
X170961190Y-89374914D01*
X170961190Y-89374914D02*
X171056428Y-89279676D01*
X171056428Y-89279676D02*
X171246904Y-89184438D01*
X172770714Y-91184438D02*
X172770714Y-89184438D01*
X172961190Y-90422533D02*
X173532619Y-91184438D01*
X173532619Y-89851104D02*
X172770714Y-90613009D01*
X174770714Y-89184438D02*
X175151667Y-89184438D01*
X175151667Y-89184438D02*
X175342143Y-89279676D01*
X175342143Y-89279676D02*
X175532619Y-89470152D01*
X175532619Y-89470152D02*
X175627857Y-89851104D01*
X175627857Y-89851104D02*
X175627857Y-90517771D01*
X175627857Y-90517771D02*
X175532619Y-90898723D01*
X175532619Y-90898723D02*
X175342143Y-91089200D01*
X175342143Y-91089200D02*
X175151667Y-91184438D01*
X175151667Y-91184438D02*
X174770714Y-91184438D01*
X174770714Y-91184438D02*
X174580238Y-91089200D01*
X174580238Y-91089200D02*
X174389762Y-90898723D01*
X174389762Y-90898723D02*
X174294524Y-90517771D01*
X174294524Y-90517771D02*
X174294524Y-89851104D01*
X174294524Y-89851104D02*
X174389762Y-89470152D01*
X174389762Y-89470152D02*
X174580238Y-89279676D01*
X174580238Y-89279676D02*
X174770714Y-89184438D01*
X176485000Y-91184438D02*
X176485000Y-89184438D01*
X177342143Y-91184438D02*
X177342143Y-90136819D01*
X177342143Y-90136819D02*
X177246905Y-89946342D01*
X177246905Y-89946342D02*
X177056429Y-89851104D01*
X177056429Y-89851104D02*
X176770714Y-89851104D01*
X176770714Y-89851104D02*
X176580238Y-89946342D01*
X176580238Y-89946342D02*
X176485000Y-90041580D01*
X178294524Y-91184438D02*
X178294524Y-89851104D01*
X178294524Y-90041580D02*
X178389762Y-89946342D01*
X178389762Y-89946342D02*
X178580238Y-89851104D01*
X178580238Y-89851104D02*
X178865953Y-89851104D01*
X178865953Y-89851104D02*
X179056429Y-89946342D01*
X179056429Y-89946342D02*
X179151667Y-90136819D01*
X179151667Y-90136819D02*
X179151667Y-91184438D01*
X179151667Y-90136819D02*
X179246905Y-89946342D01*
X179246905Y-89946342D02*
X179437381Y-89851104D01*
X179437381Y-89851104D02*
X179723095Y-89851104D01*
X179723095Y-89851104D02*
X179913572Y-89946342D01*
X179913572Y-89946342D02*
X180008810Y-90136819D01*
X180008810Y-90136819D02*
X180008810Y-91184438D01*
X190976190Y-147904438D02*
X190976190Y-145904438D01*
X190976190Y-146856819D02*
X192119047Y-146856819D01*
X192119047Y-147904438D02*
X192119047Y-145904438D01*
X193928571Y-146571104D02*
X193928571Y-147904438D01*
X193452380Y-145809200D02*
X192976190Y-147237771D01*
X192976190Y-147237771D02*
X194214285Y-147237771D01*
D13*
X117195857Y-79469998D02*
X117195857Y-78755713D01*
X117624428Y-79612855D02*
X116124428Y-79112855D01*
X116124428Y-79112855D02*
X117624428Y-78612855D01*
X117481571Y-77255713D02*
X117553000Y-77327141D01*
X117553000Y-77327141D02*
X117624428Y-77541427D01*
X117624428Y-77541427D02*
X117624428Y-77684284D01*
X117624428Y-77684284D02*
X117553000Y-77898570D01*
X117553000Y-77898570D02*
X117410142Y-78041427D01*
X117410142Y-78041427D02*
X117267285Y-78112856D01*
X117267285Y-78112856D02*
X116981571Y-78184284D01*
X116981571Y-78184284D02*
X116767285Y-78184284D01*
X116767285Y-78184284D02*
X116481571Y-78112856D01*
X116481571Y-78112856D02*
X116338714Y-78041427D01*
X116338714Y-78041427D02*
X116195857Y-77898570D01*
X116195857Y-77898570D02*
X116124428Y-77684284D01*
X116124428Y-77684284D02*
X116124428Y-77541427D01*
X116124428Y-77541427D02*
X116195857Y-77327141D01*
X116195857Y-77327141D02*
X116267285Y-77255713D01*
X117553000Y-76684284D02*
X117624428Y-76469999D01*
X117624428Y-76469999D02*
X117624428Y-76112856D01*
X117624428Y-76112856D02*
X117553000Y-75969999D01*
X117553000Y-75969999D02*
X117481571Y-75898570D01*
X117481571Y-75898570D02*
X117338714Y-75827141D01*
X117338714Y-75827141D02*
X117195857Y-75827141D01*
X117195857Y-75827141D02*
X117053000Y-75898570D01*
X117053000Y-75898570D02*
X116981571Y-75969999D01*
X116981571Y-75969999D02*
X116910142Y-76112856D01*
X116910142Y-76112856D02*
X116838714Y-76398570D01*
X116838714Y-76398570D02*
X116767285Y-76541427D01*
X116767285Y-76541427D02*
X116695857Y-76612856D01*
X116695857Y-76612856D02*
X116553000Y-76684284D01*
X116553000Y-76684284D02*
X116410142Y-76684284D01*
X116410142Y-76684284D02*
X116267285Y-76612856D01*
X116267285Y-76612856D02*
X116195857Y-76541427D01*
X116195857Y-76541427D02*
X116124428Y-76398570D01*
X116124428Y-76398570D02*
X116124428Y-76041427D01*
X116124428Y-76041427D02*
X116195857Y-75827141D01*
X116124428Y-75327142D02*
X116124428Y-74327142D01*
X116124428Y-74327142D02*
X117624428Y-74969999D01*
X117624428Y-72969999D02*
X117624428Y-73827142D01*
X117624428Y-73398571D02*
X116124428Y-73398571D01*
X116124428Y-73398571D02*
X116338714Y-73541428D01*
X116338714Y-73541428D02*
X116481571Y-73684285D01*
X116481571Y-73684285D02*
X116553000Y-73827142D01*
X116267285Y-72398571D02*
X116195857Y-72327143D01*
X116195857Y-72327143D02*
X116124428Y-72184286D01*
X116124428Y-72184286D02*
X116124428Y-71827143D01*
X116124428Y-71827143D02*
X116195857Y-71684286D01*
X116195857Y-71684286D02*
X116267285Y-71612857D01*
X116267285Y-71612857D02*
X116410142Y-71541428D01*
X116410142Y-71541428D02*
X116553000Y-71541428D01*
X116553000Y-71541428D02*
X116767285Y-71612857D01*
X116767285Y-71612857D02*
X117624428Y-72470000D01*
X117624428Y-72470000D02*
X117624428Y-71541428D01*
X117767285Y-71255715D02*
X117767285Y-70112857D01*
X116267285Y-69827143D02*
X116195857Y-69755715D01*
X116195857Y-69755715D02*
X116124428Y-69612858D01*
X116124428Y-69612858D02*
X116124428Y-69255715D01*
X116124428Y-69255715D02*
X116195857Y-69112858D01*
X116195857Y-69112858D02*
X116267285Y-69041429D01*
X116267285Y-69041429D02*
X116410142Y-68970000D01*
X116410142Y-68970000D02*
X116553000Y-68970000D01*
X116553000Y-68970000D02*
X116767285Y-69041429D01*
X116767285Y-69041429D02*
X117624428Y-69898572D01*
X117624428Y-69898572D02*
X117624428Y-68970000D01*
D12*
X185483809Y-91604438D02*
X185483809Y-89604438D01*
X185483809Y-89604438D02*
X186150476Y-91033009D01*
X186150476Y-91033009D02*
X186817142Y-89604438D01*
X186817142Y-89604438D02*
X186817142Y-91604438D01*
X187769523Y-91604438D02*
X187769523Y-90271104D01*
X187769523Y-89604438D02*
X187674285Y-89699676D01*
X187674285Y-89699676D02*
X187769523Y-89794914D01*
X187769523Y-89794914D02*
X187864761Y-89699676D01*
X187864761Y-89699676D02*
X187769523Y-89604438D01*
X187769523Y-89604438D02*
X187769523Y-89794914D01*
X189579047Y-91509200D02*
X189388571Y-91604438D01*
X189388571Y-91604438D02*
X189007618Y-91604438D01*
X189007618Y-91604438D02*
X188817142Y-91509200D01*
X188817142Y-91509200D02*
X188721904Y-91413961D01*
X188721904Y-91413961D02*
X188626666Y-91223485D01*
X188626666Y-91223485D02*
X188626666Y-90652057D01*
X188626666Y-90652057D02*
X188721904Y-90461580D01*
X188721904Y-90461580D02*
X188817142Y-90366342D01*
X188817142Y-90366342D02*
X189007618Y-90271104D01*
X189007618Y-90271104D02*
X189388571Y-90271104D01*
X189388571Y-90271104D02*
X189579047Y-90366342D01*
X190436190Y-91604438D02*
X190436190Y-90271104D01*
X190436190Y-90652057D02*
X190531428Y-90461580D01*
X190531428Y-90461580D02*
X190626666Y-90366342D01*
X190626666Y-90366342D02*
X190817142Y-90271104D01*
X190817142Y-90271104D02*
X191007619Y-90271104D01*
X191959999Y-91604438D02*
X191769523Y-91509200D01*
X191769523Y-91509200D02*
X191674285Y-91413961D01*
X191674285Y-91413961D02*
X191579047Y-91223485D01*
X191579047Y-91223485D02*
X191579047Y-90652057D01*
X191579047Y-90652057D02*
X191674285Y-90461580D01*
X191674285Y-90461580D02*
X191769523Y-90366342D01*
X191769523Y-90366342D02*
X191959999Y-90271104D01*
X191959999Y-90271104D02*
X192245714Y-90271104D01*
X192245714Y-90271104D02*
X192436190Y-90366342D01*
X192436190Y-90366342D02*
X192531428Y-90461580D01*
X192531428Y-90461580D02*
X192626666Y-90652057D01*
X192626666Y-90652057D02*
X192626666Y-91223485D01*
X192626666Y-91223485D02*
X192531428Y-91413961D01*
X192531428Y-91413961D02*
X192436190Y-91509200D01*
X192436190Y-91509200D02*
X192245714Y-91604438D01*
X192245714Y-91604438D02*
X191959999Y-91604438D01*
X193388571Y-91509200D02*
X193674285Y-91604438D01*
X193674285Y-91604438D02*
X194150476Y-91604438D01*
X194150476Y-91604438D02*
X194340952Y-91509200D01*
X194340952Y-91509200D02*
X194436190Y-91413961D01*
X194436190Y-91413961D02*
X194531428Y-91223485D01*
X194531428Y-91223485D02*
X194531428Y-91033009D01*
X194531428Y-91033009D02*
X194436190Y-90842533D01*
X194436190Y-90842533D02*
X194340952Y-90747295D01*
X194340952Y-90747295D02*
X194150476Y-90652057D01*
X194150476Y-90652057D02*
X193769523Y-90556819D01*
X193769523Y-90556819D02*
X193579047Y-90461580D01*
X193579047Y-90461580D02*
X193483809Y-90366342D01*
X193483809Y-90366342D02*
X193388571Y-90175866D01*
X193388571Y-90175866D02*
X193388571Y-89985390D01*
X193388571Y-89985390D02*
X193483809Y-89794914D01*
X193483809Y-89794914D02*
X193579047Y-89699676D01*
X193579047Y-89699676D02*
X193769523Y-89604438D01*
X193769523Y-89604438D02*
X194245714Y-89604438D01*
X194245714Y-89604438D02*
X194531428Y-89699676D01*
X195388571Y-91604438D02*
X195388571Y-89604438D01*
X195388571Y-89604438D02*
X195864761Y-89604438D01*
X195864761Y-89604438D02*
X196150476Y-89699676D01*
X196150476Y-89699676D02*
X196340952Y-89890152D01*
X196340952Y-89890152D02*
X196436190Y-90080628D01*
X196436190Y-90080628D02*
X196531428Y-90461580D01*
X196531428Y-90461580D02*
X196531428Y-90747295D01*
X196531428Y-90747295D02*
X196436190Y-91128247D01*
X196436190Y-91128247D02*
X196340952Y-91318723D01*
X196340952Y-91318723D02*
X196150476Y-91509200D01*
X196150476Y-91509200D02*
X195864761Y-91604438D01*
X195864761Y-91604438D02*
X195388571Y-91604438D01*
X105831428Y-123939676D02*
X105640952Y-123844438D01*
X105640952Y-123844438D02*
X105355238Y-123844438D01*
X105355238Y-123844438D02*
X105069523Y-123939676D01*
X105069523Y-123939676D02*
X104879047Y-124130152D01*
X104879047Y-124130152D02*
X104783809Y-124320628D01*
X104783809Y-124320628D02*
X104688571Y-124701580D01*
X104688571Y-124701580D02*
X104688571Y-124987295D01*
X104688571Y-124987295D02*
X104783809Y-125368247D01*
X104783809Y-125368247D02*
X104879047Y-125558723D01*
X104879047Y-125558723D02*
X105069523Y-125749200D01*
X105069523Y-125749200D02*
X105355238Y-125844438D01*
X105355238Y-125844438D02*
X105545714Y-125844438D01*
X105545714Y-125844438D02*
X105831428Y-125749200D01*
X105831428Y-125749200D02*
X105926666Y-125653961D01*
X105926666Y-125653961D02*
X105926666Y-124987295D01*
X105926666Y-124987295D02*
X105545714Y-124987295D01*
X106783809Y-125844438D02*
X106783809Y-123844438D01*
X106783809Y-123844438D02*
X107545714Y-123844438D01*
X107545714Y-123844438D02*
X107736190Y-123939676D01*
X107736190Y-123939676D02*
X107831428Y-124034914D01*
X107831428Y-124034914D02*
X107926666Y-124225390D01*
X107926666Y-124225390D02*
X107926666Y-124511104D01*
X107926666Y-124511104D02*
X107831428Y-124701580D01*
X107831428Y-124701580D02*
X107736190Y-124796819D01*
X107736190Y-124796819D02*
X107545714Y-124892057D01*
X107545714Y-124892057D02*
X106783809Y-124892057D01*
X108688571Y-125749200D02*
X108974285Y-125844438D01*
X108974285Y-125844438D02*
X109450476Y-125844438D01*
X109450476Y-125844438D02*
X109640952Y-125749200D01*
X109640952Y-125749200D02*
X109736190Y-125653961D01*
X109736190Y-125653961D02*
X109831428Y-125463485D01*
X109831428Y-125463485D02*
X109831428Y-125273009D01*
X109831428Y-125273009D02*
X109736190Y-125082533D01*
X109736190Y-125082533D02*
X109640952Y-124987295D01*
X109640952Y-124987295D02*
X109450476Y-124892057D01*
X109450476Y-124892057D02*
X109069523Y-124796819D01*
X109069523Y-124796819D02*
X108879047Y-124701580D01*
X108879047Y-124701580D02*
X108783809Y-124606342D01*
X108783809Y-124606342D02*
X108688571Y-124415866D01*
X108688571Y-124415866D02*
X108688571Y-124225390D01*
X108688571Y-124225390D02*
X108783809Y-124034914D01*
X108783809Y-124034914D02*
X108879047Y-123939676D01*
X108879047Y-123939676D02*
X109069523Y-123844438D01*
X109069523Y-123844438D02*
X109545714Y-123844438D01*
X109545714Y-123844438D02*
X109831428Y-123939676D01*
D13*
X116850001Y-93005857D02*
X117564287Y-93005857D01*
X116707144Y-93434428D02*
X117207144Y-91934428D01*
X117207144Y-91934428D02*
X117707144Y-93434428D01*
X119064286Y-93291571D02*
X118992858Y-93363000D01*
X118992858Y-93363000D02*
X118778572Y-93434428D01*
X118778572Y-93434428D02*
X118635715Y-93434428D01*
X118635715Y-93434428D02*
X118421429Y-93363000D01*
X118421429Y-93363000D02*
X118278572Y-93220142D01*
X118278572Y-93220142D02*
X118207143Y-93077285D01*
X118207143Y-93077285D02*
X118135715Y-92791571D01*
X118135715Y-92791571D02*
X118135715Y-92577285D01*
X118135715Y-92577285D02*
X118207143Y-92291571D01*
X118207143Y-92291571D02*
X118278572Y-92148714D01*
X118278572Y-92148714D02*
X118421429Y-92005857D01*
X118421429Y-92005857D02*
X118635715Y-91934428D01*
X118635715Y-91934428D02*
X118778572Y-91934428D01*
X118778572Y-91934428D02*
X118992858Y-92005857D01*
X118992858Y-92005857D02*
X119064286Y-92077285D01*
X119635715Y-93363000D02*
X119850001Y-93434428D01*
X119850001Y-93434428D02*
X120207143Y-93434428D01*
X120207143Y-93434428D02*
X120350001Y-93363000D01*
X120350001Y-93363000D02*
X120421429Y-93291571D01*
X120421429Y-93291571D02*
X120492858Y-93148714D01*
X120492858Y-93148714D02*
X120492858Y-93005857D01*
X120492858Y-93005857D02*
X120421429Y-92863000D01*
X120421429Y-92863000D02*
X120350001Y-92791571D01*
X120350001Y-92791571D02*
X120207143Y-92720142D01*
X120207143Y-92720142D02*
X119921429Y-92648714D01*
X119921429Y-92648714D02*
X119778572Y-92577285D01*
X119778572Y-92577285D02*
X119707143Y-92505857D01*
X119707143Y-92505857D02*
X119635715Y-92363000D01*
X119635715Y-92363000D02*
X119635715Y-92220142D01*
X119635715Y-92220142D02*
X119707143Y-92077285D01*
X119707143Y-92077285D02*
X119778572Y-92005857D01*
X119778572Y-92005857D02*
X119921429Y-91934428D01*
X119921429Y-91934428D02*
X120278572Y-91934428D01*
X120278572Y-91934428D02*
X120492858Y-92005857D01*
X120992857Y-91934428D02*
X121992857Y-91934428D01*
X121992857Y-91934428D02*
X121350000Y-93434428D01*
X123350000Y-93434428D02*
X122492857Y-93434428D01*
X122921428Y-93434428D02*
X122921428Y-91934428D01*
X122921428Y-91934428D02*
X122778571Y-92148714D01*
X122778571Y-92148714D02*
X122635714Y-92291571D01*
X122635714Y-92291571D02*
X122492857Y-92363000D01*
X123921428Y-92077285D02*
X123992856Y-92005857D01*
X123992856Y-92005857D02*
X124135714Y-91934428D01*
X124135714Y-91934428D02*
X124492856Y-91934428D01*
X124492856Y-91934428D02*
X124635714Y-92005857D01*
X124635714Y-92005857D02*
X124707142Y-92077285D01*
X124707142Y-92077285D02*
X124778571Y-92220142D01*
X124778571Y-92220142D02*
X124778571Y-92363000D01*
X124778571Y-92363000D02*
X124707142Y-92577285D01*
X124707142Y-92577285D02*
X123849999Y-93434428D01*
X123849999Y-93434428D02*
X124778571Y-93434428D01*
X125064285Y-93577285D02*
X126207142Y-93577285D01*
X127207142Y-92434428D02*
X127207142Y-93434428D01*
X126849999Y-91863000D02*
X126492856Y-92934428D01*
X126492856Y-92934428D02*
X127421427Y-92934428D01*
D12*
X168798333Y-112854438D02*
X170036428Y-112854438D01*
X170036428Y-112854438D02*
X169369761Y-113616342D01*
X169369761Y-113616342D02*
X169655476Y-113616342D01*
X169655476Y-113616342D02*
X169845952Y-113711580D01*
X169845952Y-113711580D02*
X169941190Y-113806819D01*
X169941190Y-113806819D02*
X170036428Y-113997295D01*
X170036428Y-113997295D02*
X170036428Y-114473485D01*
X170036428Y-114473485D02*
X169941190Y-114663961D01*
X169941190Y-114663961D02*
X169845952Y-114759200D01*
X169845952Y-114759200D02*
X169655476Y-114854438D01*
X169655476Y-114854438D02*
X169084047Y-114854438D01*
X169084047Y-114854438D02*
X168893571Y-114759200D01*
X168893571Y-114759200D02*
X168798333Y-114663961D01*
X171274523Y-112854438D02*
X171465000Y-112854438D01*
X171465000Y-112854438D02*
X171655476Y-112949676D01*
X171655476Y-112949676D02*
X171750714Y-113044914D01*
X171750714Y-113044914D02*
X171845952Y-113235390D01*
X171845952Y-113235390D02*
X171941190Y-113616342D01*
X171941190Y-113616342D02*
X171941190Y-114092533D01*
X171941190Y-114092533D02*
X171845952Y-114473485D01*
X171845952Y-114473485D02*
X171750714Y-114663961D01*
X171750714Y-114663961D02*
X171655476Y-114759200D01*
X171655476Y-114759200D02*
X171465000Y-114854438D01*
X171465000Y-114854438D02*
X171274523Y-114854438D01*
X171274523Y-114854438D02*
X171084047Y-114759200D01*
X171084047Y-114759200D02*
X170988809Y-114663961D01*
X170988809Y-114663961D02*
X170893571Y-114473485D01*
X170893571Y-114473485D02*
X170798333Y-114092533D01*
X170798333Y-114092533D02*
X170798333Y-113616342D01*
X170798333Y-113616342D02*
X170893571Y-113235390D01*
X170893571Y-113235390D02*
X170988809Y-113044914D01*
X170988809Y-113044914D02*
X171084047Y-112949676D01*
X171084047Y-112949676D02*
X171274523Y-112854438D01*
X173179285Y-112854438D02*
X173369762Y-112854438D01*
X173369762Y-112854438D02*
X173560238Y-112949676D01*
X173560238Y-112949676D02*
X173655476Y-113044914D01*
X173655476Y-113044914D02*
X173750714Y-113235390D01*
X173750714Y-113235390D02*
X173845952Y-113616342D01*
X173845952Y-113616342D02*
X173845952Y-114092533D01*
X173845952Y-114092533D02*
X173750714Y-114473485D01*
X173750714Y-114473485D02*
X173655476Y-114663961D01*
X173655476Y-114663961D02*
X173560238Y-114759200D01*
X173560238Y-114759200D02*
X173369762Y-114854438D01*
X173369762Y-114854438D02*
X173179285Y-114854438D01*
X173179285Y-114854438D02*
X172988809Y-114759200D01*
X172988809Y-114759200D02*
X172893571Y-114663961D01*
X172893571Y-114663961D02*
X172798333Y-114473485D01*
X172798333Y-114473485D02*
X172703095Y-114092533D01*
X172703095Y-114092533D02*
X172703095Y-113616342D01*
X172703095Y-113616342D02*
X172798333Y-113235390D01*
X172798333Y-113235390D02*
X172893571Y-113044914D01*
X172893571Y-113044914D02*
X172988809Y-112949676D01*
X172988809Y-112949676D02*
X173179285Y-112854438D01*
X174703095Y-114854438D02*
X174703095Y-112854438D01*
X174893571Y-114092533D02*
X175465000Y-114854438D01*
X175465000Y-113521104D02*
X174703095Y-114283009D01*
X176703095Y-112854438D02*
X177084048Y-112854438D01*
X177084048Y-112854438D02*
X177274524Y-112949676D01*
X177274524Y-112949676D02*
X177465000Y-113140152D01*
X177465000Y-113140152D02*
X177560238Y-113521104D01*
X177560238Y-113521104D02*
X177560238Y-114187771D01*
X177560238Y-114187771D02*
X177465000Y-114568723D01*
X177465000Y-114568723D02*
X177274524Y-114759200D01*
X177274524Y-114759200D02*
X177084048Y-114854438D01*
X177084048Y-114854438D02*
X176703095Y-114854438D01*
X176703095Y-114854438D02*
X176512619Y-114759200D01*
X176512619Y-114759200D02*
X176322143Y-114568723D01*
X176322143Y-114568723D02*
X176226905Y-114187771D01*
X176226905Y-114187771D02*
X176226905Y-113521104D01*
X176226905Y-113521104D02*
X176322143Y-113140152D01*
X176322143Y-113140152D02*
X176512619Y-112949676D01*
X176512619Y-112949676D02*
X176703095Y-112854438D01*
X178417381Y-114854438D02*
X178417381Y-112854438D01*
X179274524Y-114854438D02*
X179274524Y-113806819D01*
X179274524Y-113806819D02*
X179179286Y-113616342D01*
X179179286Y-113616342D02*
X178988810Y-113521104D01*
X178988810Y-113521104D02*
X178703095Y-113521104D01*
X178703095Y-113521104D02*
X178512619Y-113616342D01*
X178512619Y-113616342D02*
X178417381Y-113711580D01*
X180226905Y-114854438D02*
X180226905Y-113521104D01*
X180226905Y-113711580D02*
X180322143Y-113616342D01*
X180322143Y-113616342D02*
X180512619Y-113521104D01*
X180512619Y-113521104D02*
X180798334Y-113521104D01*
X180798334Y-113521104D02*
X180988810Y-113616342D01*
X180988810Y-113616342D02*
X181084048Y-113806819D01*
X181084048Y-113806819D02*
X181084048Y-114854438D01*
X181084048Y-113806819D02*
X181179286Y-113616342D01*
X181179286Y-113616342D02*
X181369762Y-113521104D01*
X181369762Y-113521104D02*
X181655476Y-113521104D01*
X181655476Y-113521104D02*
X181845953Y-113616342D01*
X181845953Y-113616342D02*
X181941191Y-113806819D01*
X181941191Y-113806819D02*
X181941191Y-114854438D01*
X118871190Y-126174438D02*
X117728333Y-126174438D01*
X118299761Y-126174438D02*
X118299761Y-124174438D01*
X118299761Y-124174438D02*
X118109285Y-124460152D01*
X118109285Y-124460152D02*
X117918809Y-124650628D01*
X117918809Y-124650628D02*
X117728333Y-124745866D01*
X119728333Y-126174438D02*
X119728333Y-124174438D01*
X119918809Y-125412533D02*
X120490238Y-126174438D01*
X120490238Y-124841104D02*
X119728333Y-125603009D01*
X121728333Y-124174438D02*
X122109286Y-124174438D01*
X122109286Y-124174438D02*
X122299762Y-124269676D01*
X122299762Y-124269676D02*
X122490238Y-124460152D01*
X122490238Y-124460152D02*
X122585476Y-124841104D01*
X122585476Y-124841104D02*
X122585476Y-125507771D01*
X122585476Y-125507771D02*
X122490238Y-125888723D01*
X122490238Y-125888723D02*
X122299762Y-126079200D01*
X122299762Y-126079200D02*
X122109286Y-126174438D01*
X122109286Y-126174438D02*
X121728333Y-126174438D01*
X121728333Y-126174438D02*
X121537857Y-126079200D01*
X121537857Y-126079200D02*
X121347381Y-125888723D01*
X121347381Y-125888723D02*
X121252143Y-125507771D01*
X121252143Y-125507771D02*
X121252143Y-124841104D01*
X121252143Y-124841104D02*
X121347381Y-124460152D01*
X121347381Y-124460152D02*
X121537857Y-124269676D01*
X121537857Y-124269676D02*
X121728333Y-124174438D01*
X123442619Y-126174438D02*
X123442619Y-124174438D01*
X124299762Y-126174438D02*
X124299762Y-125126819D01*
X124299762Y-125126819D02*
X124204524Y-124936342D01*
X124204524Y-124936342D02*
X124014048Y-124841104D01*
X124014048Y-124841104D02*
X123728333Y-124841104D01*
X123728333Y-124841104D02*
X123537857Y-124936342D01*
X123537857Y-124936342D02*
X123442619Y-125031580D01*
X125252143Y-126174438D02*
X125252143Y-124841104D01*
X125252143Y-125031580D02*
X125347381Y-124936342D01*
X125347381Y-124936342D02*
X125537857Y-124841104D01*
X125537857Y-124841104D02*
X125823572Y-124841104D01*
X125823572Y-124841104D02*
X126014048Y-124936342D01*
X126014048Y-124936342D02*
X126109286Y-125126819D01*
X126109286Y-125126819D02*
X126109286Y-126174438D01*
X126109286Y-125126819D02*
X126204524Y-124936342D01*
X126204524Y-124936342D02*
X126395000Y-124841104D01*
X126395000Y-124841104D02*
X126680714Y-124841104D01*
X126680714Y-124841104D02*
X126871191Y-124936342D01*
X126871191Y-124936342D02*
X126966429Y-125126819D01*
X126966429Y-125126819D02*
X126966429Y-126174438D01*
D13*
X106545857Y-79209998D02*
X106545857Y-78495713D01*
X106974428Y-79352855D02*
X105474428Y-78852855D01*
X105474428Y-78852855D02*
X106974428Y-78352855D01*
X106831571Y-76995713D02*
X106903000Y-77067141D01*
X106903000Y-77067141D02*
X106974428Y-77281427D01*
X106974428Y-77281427D02*
X106974428Y-77424284D01*
X106974428Y-77424284D02*
X106903000Y-77638570D01*
X106903000Y-77638570D02*
X106760142Y-77781427D01*
X106760142Y-77781427D02*
X106617285Y-77852856D01*
X106617285Y-77852856D02*
X106331571Y-77924284D01*
X106331571Y-77924284D02*
X106117285Y-77924284D01*
X106117285Y-77924284D02*
X105831571Y-77852856D01*
X105831571Y-77852856D02*
X105688714Y-77781427D01*
X105688714Y-77781427D02*
X105545857Y-77638570D01*
X105545857Y-77638570D02*
X105474428Y-77424284D01*
X105474428Y-77424284D02*
X105474428Y-77281427D01*
X105474428Y-77281427D02*
X105545857Y-77067141D01*
X105545857Y-77067141D02*
X105617285Y-76995713D01*
X106903000Y-76424284D02*
X106974428Y-76209999D01*
X106974428Y-76209999D02*
X106974428Y-75852856D01*
X106974428Y-75852856D02*
X106903000Y-75709999D01*
X106903000Y-75709999D02*
X106831571Y-75638570D01*
X106831571Y-75638570D02*
X106688714Y-75567141D01*
X106688714Y-75567141D02*
X106545857Y-75567141D01*
X106545857Y-75567141D02*
X106403000Y-75638570D01*
X106403000Y-75638570D02*
X106331571Y-75709999D01*
X106331571Y-75709999D02*
X106260142Y-75852856D01*
X106260142Y-75852856D02*
X106188714Y-76138570D01*
X106188714Y-76138570D02*
X106117285Y-76281427D01*
X106117285Y-76281427D02*
X106045857Y-76352856D01*
X106045857Y-76352856D02*
X105903000Y-76424284D01*
X105903000Y-76424284D02*
X105760142Y-76424284D01*
X105760142Y-76424284D02*
X105617285Y-76352856D01*
X105617285Y-76352856D02*
X105545857Y-76281427D01*
X105545857Y-76281427D02*
X105474428Y-76138570D01*
X105474428Y-76138570D02*
X105474428Y-75781427D01*
X105474428Y-75781427D02*
X105545857Y-75567141D01*
X105474428Y-75067142D02*
X105474428Y-74067142D01*
X105474428Y-74067142D02*
X106974428Y-74709999D01*
X106974428Y-72709999D02*
X106974428Y-73567142D01*
X106974428Y-73138571D02*
X105474428Y-73138571D01*
X105474428Y-73138571D02*
X105688714Y-73281428D01*
X105688714Y-73281428D02*
X105831571Y-73424285D01*
X105831571Y-73424285D02*
X105903000Y-73567142D01*
X105617285Y-72138571D02*
X105545857Y-72067143D01*
X105545857Y-72067143D02*
X105474428Y-71924286D01*
X105474428Y-71924286D02*
X105474428Y-71567143D01*
X105474428Y-71567143D02*
X105545857Y-71424286D01*
X105545857Y-71424286D02*
X105617285Y-71352857D01*
X105617285Y-71352857D02*
X105760142Y-71281428D01*
X105760142Y-71281428D02*
X105903000Y-71281428D01*
X105903000Y-71281428D02*
X106117285Y-71352857D01*
X106117285Y-71352857D02*
X106974428Y-72210000D01*
X106974428Y-72210000D02*
X106974428Y-71281428D01*
X107117285Y-70995715D02*
X107117285Y-69852857D01*
X106974428Y-68710000D02*
X106974428Y-69567143D01*
X106974428Y-69138572D02*
X105474428Y-69138572D01*
X105474428Y-69138572D02*
X105688714Y-69281429D01*
X105688714Y-69281429D02*
X105831571Y-69424286D01*
X105831571Y-69424286D02*
X105903000Y-69567143D01*
X128945857Y-79639998D02*
X128945857Y-78925713D01*
X129374428Y-79782855D02*
X127874428Y-79282855D01*
X127874428Y-79282855D02*
X129374428Y-78782855D01*
X129231571Y-77425713D02*
X129303000Y-77497141D01*
X129303000Y-77497141D02*
X129374428Y-77711427D01*
X129374428Y-77711427D02*
X129374428Y-77854284D01*
X129374428Y-77854284D02*
X129303000Y-78068570D01*
X129303000Y-78068570D02*
X129160142Y-78211427D01*
X129160142Y-78211427D02*
X129017285Y-78282856D01*
X129017285Y-78282856D02*
X128731571Y-78354284D01*
X128731571Y-78354284D02*
X128517285Y-78354284D01*
X128517285Y-78354284D02*
X128231571Y-78282856D01*
X128231571Y-78282856D02*
X128088714Y-78211427D01*
X128088714Y-78211427D02*
X127945857Y-78068570D01*
X127945857Y-78068570D02*
X127874428Y-77854284D01*
X127874428Y-77854284D02*
X127874428Y-77711427D01*
X127874428Y-77711427D02*
X127945857Y-77497141D01*
X127945857Y-77497141D02*
X128017285Y-77425713D01*
X129303000Y-76854284D02*
X129374428Y-76639999D01*
X129374428Y-76639999D02*
X129374428Y-76282856D01*
X129374428Y-76282856D02*
X129303000Y-76139999D01*
X129303000Y-76139999D02*
X129231571Y-76068570D01*
X129231571Y-76068570D02*
X129088714Y-75997141D01*
X129088714Y-75997141D02*
X128945857Y-75997141D01*
X128945857Y-75997141D02*
X128803000Y-76068570D01*
X128803000Y-76068570D02*
X128731571Y-76139999D01*
X128731571Y-76139999D02*
X128660142Y-76282856D01*
X128660142Y-76282856D02*
X128588714Y-76568570D01*
X128588714Y-76568570D02*
X128517285Y-76711427D01*
X128517285Y-76711427D02*
X128445857Y-76782856D01*
X128445857Y-76782856D02*
X128303000Y-76854284D01*
X128303000Y-76854284D02*
X128160142Y-76854284D01*
X128160142Y-76854284D02*
X128017285Y-76782856D01*
X128017285Y-76782856D02*
X127945857Y-76711427D01*
X127945857Y-76711427D02*
X127874428Y-76568570D01*
X127874428Y-76568570D02*
X127874428Y-76211427D01*
X127874428Y-76211427D02*
X127945857Y-75997141D01*
X127874428Y-75497142D02*
X127874428Y-74497142D01*
X127874428Y-74497142D02*
X129374428Y-75139999D01*
X129374428Y-73139999D02*
X129374428Y-73997142D01*
X129374428Y-73568571D02*
X127874428Y-73568571D01*
X127874428Y-73568571D02*
X128088714Y-73711428D01*
X128088714Y-73711428D02*
X128231571Y-73854285D01*
X128231571Y-73854285D02*
X128303000Y-73997142D01*
X128017285Y-72568571D02*
X127945857Y-72497143D01*
X127945857Y-72497143D02*
X127874428Y-72354286D01*
X127874428Y-72354286D02*
X127874428Y-71997143D01*
X127874428Y-71997143D02*
X127945857Y-71854286D01*
X127945857Y-71854286D02*
X128017285Y-71782857D01*
X128017285Y-71782857D02*
X128160142Y-71711428D01*
X128160142Y-71711428D02*
X128303000Y-71711428D01*
X128303000Y-71711428D02*
X128517285Y-71782857D01*
X128517285Y-71782857D02*
X129374428Y-72640000D01*
X129374428Y-72640000D02*
X129374428Y-71711428D01*
X129517285Y-71425715D02*
X129517285Y-70282857D01*
X127874428Y-70068572D02*
X127874428Y-69140000D01*
X127874428Y-69140000D02*
X128445857Y-69640000D01*
X128445857Y-69640000D02*
X128445857Y-69425715D01*
X128445857Y-69425715D02*
X128517285Y-69282858D01*
X128517285Y-69282858D02*
X128588714Y-69211429D01*
X128588714Y-69211429D02*
X128731571Y-69140000D01*
X128731571Y-69140000D02*
X129088714Y-69140000D01*
X129088714Y-69140000D02*
X129231571Y-69211429D01*
X129231571Y-69211429D02*
X129303000Y-69282858D01*
X129303000Y-69282858D02*
X129374428Y-69425715D01*
X129374428Y-69425715D02*
X129374428Y-69854286D01*
X129374428Y-69854286D02*
X129303000Y-69997143D01*
X129303000Y-69997143D02*
X129231571Y-70068572D01*
D12*
X102666190Y-97194438D02*
X102666190Y-95194438D01*
X103809047Y-97194438D02*
X102951904Y-96051580D01*
X103809047Y-95194438D02*
X102666190Y-96337295D01*
X105047142Y-96242057D02*
X105047142Y-97194438D01*
X104380476Y-95194438D02*
X105047142Y-96242057D01*
X105047142Y-96242057D02*
X105713809Y-95194438D01*
X106380476Y-96432533D02*
X107904286Y-96432533D01*
X108761428Y-95384914D02*
X108856666Y-95289676D01*
X108856666Y-95289676D02*
X109047142Y-95194438D01*
X109047142Y-95194438D02*
X109523333Y-95194438D01*
X109523333Y-95194438D02*
X109713809Y-95289676D01*
X109713809Y-95289676D02*
X109809047Y-95384914D01*
X109809047Y-95384914D02*
X109904285Y-95575390D01*
X109904285Y-95575390D02*
X109904285Y-95765866D01*
X109904285Y-95765866D02*
X109809047Y-96051580D01*
X109809047Y-96051580D02*
X108666190Y-97194438D01*
X108666190Y-97194438D02*
X109904285Y-97194438D01*
X111618571Y-95861104D02*
X111618571Y-97194438D01*
X111142380Y-95099200D02*
X110666190Y-96527771D01*
X110666190Y-96527771D02*
X111904285Y-96527771D01*
X174622142Y-77649438D02*
X174622142Y-75649438D01*
X174622142Y-75649438D02*
X175384047Y-75649438D01*
X175384047Y-75649438D02*
X175574523Y-75744676D01*
X175574523Y-75744676D02*
X175669761Y-75839914D01*
X175669761Y-75839914D02*
X175764999Y-76030390D01*
X175764999Y-76030390D02*
X175764999Y-76316104D01*
X175764999Y-76316104D02*
X175669761Y-76506580D01*
X175669761Y-76506580D02*
X175574523Y-76601819D01*
X175574523Y-76601819D02*
X175384047Y-76697057D01*
X175384047Y-76697057D02*
X174622142Y-76697057D01*
X176907856Y-77649438D02*
X176717380Y-77554200D01*
X176717380Y-77554200D02*
X176622142Y-77458961D01*
X176622142Y-77458961D02*
X176526904Y-77268485D01*
X176526904Y-77268485D02*
X176526904Y-76697057D01*
X176526904Y-76697057D02*
X176622142Y-76506580D01*
X176622142Y-76506580D02*
X176717380Y-76411342D01*
X176717380Y-76411342D02*
X176907856Y-76316104D01*
X176907856Y-76316104D02*
X177193571Y-76316104D01*
X177193571Y-76316104D02*
X177384047Y-76411342D01*
X177384047Y-76411342D02*
X177479285Y-76506580D01*
X177479285Y-76506580D02*
X177574523Y-76697057D01*
X177574523Y-76697057D02*
X177574523Y-77268485D01*
X177574523Y-77268485D02*
X177479285Y-77458961D01*
X177479285Y-77458961D02*
X177384047Y-77554200D01*
X177384047Y-77554200D02*
X177193571Y-77649438D01*
X177193571Y-77649438D02*
X176907856Y-77649438D01*
X178241190Y-76316104D02*
X178622142Y-77649438D01*
X178622142Y-77649438D02*
X179003095Y-76697057D01*
X179003095Y-76697057D02*
X179384047Y-77649438D01*
X179384047Y-77649438D02*
X179764999Y-76316104D01*
X181288809Y-77554200D02*
X181098333Y-77649438D01*
X181098333Y-77649438D02*
X180717380Y-77649438D01*
X180717380Y-77649438D02*
X180526904Y-77554200D01*
X180526904Y-77554200D02*
X180431666Y-77363723D01*
X180431666Y-77363723D02*
X180431666Y-76601819D01*
X180431666Y-76601819D02*
X180526904Y-76411342D01*
X180526904Y-76411342D02*
X180717380Y-76316104D01*
X180717380Y-76316104D02*
X181098333Y-76316104D01*
X181098333Y-76316104D02*
X181288809Y-76411342D01*
X181288809Y-76411342D02*
X181384047Y-76601819D01*
X181384047Y-76601819D02*
X181384047Y-76792295D01*
X181384047Y-76792295D02*
X180431666Y-76982771D01*
X182241190Y-77649438D02*
X182241190Y-76316104D01*
X182241190Y-76697057D02*
X182336428Y-76506580D01*
X182336428Y-76506580D02*
X182431666Y-76411342D01*
X182431666Y-76411342D02*
X182622142Y-76316104D01*
X182622142Y-76316104D02*
X182812619Y-76316104D01*
X183479285Y-77649438D02*
X183479285Y-75649438D01*
X183479285Y-75649438D02*
X184145952Y-77078009D01*
X184145952Y-77078009D02*
X184812618Y-75649438D01*
X184812618Y-75649438D02*
X184812618Y-77649438D01*
X186050713Y-77649438D02*
X185860237Y-77554200D01*
X185860237Y-77554200D02*
X185764999Y-77458961D01*
X185764999Y-77458961D02*
X185669761Y-77268485D01*
X185669761Y-77268485D02*
X185669761Y-76697057D01*
X185669761Y-76697057D02*
X185764999Y-76506580D01*
X185764999Y-76506580D02*
X185860237Y-76411342D01*
X185860237Y-76411342D02*
X186050713Y-76316104D01*
X186050713Y-76316104D02*
X186336428Y-76316104D01*
X186336428Y-76316104D02*
X186526904Y-76411342D01*
X186526904Y-76411342D02*
X186622142Y-76506580D01*
X186622142Y-76506580D02*
X186717380Y-76697057D01*
X186717380Y-76697057D02*
X186717380Y-77268485D01*
X186717380Y-77268485D02*
X186622142Y-77458961D01*
X186622142Y-77458961D02*
X186526904Y-77554200D01*
X186526904Y-77554200D02*
X186336428Y-77649438D01*
X186336428Y-77649438D02*
X186050713Y-77649438D01*
X188431666Y-77649438D02*
X188431666Y-75649438D01*
X188431666Y-77554200D02*
X188241190Y-77649438D01*
X188241190Y-77649438D02*
X187860237Y-77649438D01*
X187860237Y-77649438D02*
X187669761Y-77554200D01*
X187669761Y-77554200D02*
X187574523Y-77458961D01*
X187574523Y-77458961D02*
X187479285Y-77268485D01*
X187479285Y-77268485D02*
X187479285Y-76697057D01*
X187479285Y-76697057D02*
X187574523Y-76506580D01*
X187574523Y-76506580D02*
X187669761Y-76411342D01*
X187669761Y-76411342D02*
X187860237Y-76316104D01*
X187860237Y-76316104D02*
X188241190Y-76316104D01*
X188241190Y-76316104D02*
X188431666Y-76411342D01*
X190241190Y-76316104D02*
X190241190Y-77649438D01*
X189384047Y-76316104D02*
X189384047Y-77363723D01*
X189384047Y-77363723D02*
X189479285Y-77554200D01*
X189479285Y-77554200D02*
X189669761Y-77649438D01*
X189669761Y-77649438D02*
X189955476Y-77649438D01*
X189955476Y-77649438D02*
X190145952Y-77554200D01*
X190145952Y-77554200D02*
X190241190Y-77458961D01*
X191479285Y-77649438D02*
X191288809Y-77554200D01*
X191288809Y-77554200D02*
X191193571Y-77363723D01*
X191193571Y-77363723D02*
X191193571Y-75649438D01*
X193003095Y-77554200D02*
X192812619Y-77649438D01*
X192812619Y-77649438D02*
X192431666Y-77649438D01*
X192431666Y-77649438D02*
X192241190Y-77554200D01*
X192241190Y-77554200D02*
X192145952Y-77363723D01*
X192145952Y-77363723D02*
X192145952Y-76601819D01*
X192145952Y-76601819D02*
X192241190Y-76411342D01*
X192241190Y-76411342D02*
X192431666Y-76316104D01*
X192431666Y-76316104D02*
X192812619Y-76316104D01*
X192812619Y-76316104D02*
X193003095Y-76411342D01*
X193003095Y-76411342D02*
X193098333Y-76601819D01*
X193098333Y-76601819D02*
X193098333Y-76792295D01*
X193098333Y-76792295D02*
X192145952Y-76982771D01*
X195003095Y-77649438D02*
X193860238Y-77649438D01*
X194431666Y-77649438D02*
X194431666Y-75649438D01*
X194431666Y-75649438D02*
X194241190Y-75935152D01*
X194241190Y-75935152D02*
X194050714Y-76125628D01*
X194050714Y-76125628D02*
X193860238Y-76220866D01*
X181284438Y-137570952D02*
X181284438Y-138523333D01*
X181284438Y-138523333D02*
X179284438Y-138523333D01*
X181284438Y-136904285D02*
X179284438Y-136904285D01*
X179284438Y-136904285D02*
X180713009Y-136237618D01*
X180713009Y-136237618D02*
X179284438Y-135570952D01*
X179284438Y-135570952D02*
X181284438Y-135570952D01*
X179284438Y-134809047D02*
X179284438Y-133570952D01*
X179284438Y-133570952D02*
X180046342Y-134237619D01*
X180046342Y-134237619D02*
X180046342Y-133951904D01*
X180046342Y-133951904D02*
X180141580Y-133761428D01*
X180141580Y-133761428D02*
X180236819Y-133666190D01*
X180236819Y-133666190D02*
X180427295Y-133570952D01*
X180427295Y-133570952D02*
X180903485Y-133570952D01*
X180903485Y-133570952D02*
X181093961Y-133666190D01*
X181093961Y-133666190D02*
X181189200Y-133761428D01*
X181189200Y-133761428D02*
X181284438Y-133951904D01*
X181284438Y-133951904D02*
X181284438Y-134523333D01*
X181284438Y-134523333D02*
X181189200Y-134713809D01*
X181189200Y-134713809D02*
X181093961Y-134809047D01*
X179474914Y-132809047D02*
X179379676Y-132713809D01*
X179379676Y-132713809D02*
X179284438Y-132523333D01*
X179284438Y-132523333D02*
X179284438Y-132047142D01*
X179284438Y-132047142D02*
X179379676Y-131856666D01*
X179379676Y-131856666D02*
X179474914Y-131761428D01*
X179474914Y-131761428D02*
X179665390Y-131666190D01*
X179665390Y-131666190D02*
X179855866Y-131666190D01*
X179855866Y-131666190D02*
X180141580Y-131761428D01*
X180141580Y-131761428D02*
X181284438Y-132904285D01*
X181284438Y-132904285D02*
X181284438Y-131666190D01*
X179951104Y-129951904D02*
X181284438Y-129951904D01*
X179189200Y-130428095D02*
X180617771Y-130904285D01*
X180617771Y-130904285D02*
X180617771Y-129666190D01*
X102722380Y-137163009D02*
X103674761Y-137163009D01*
X102531904Y-137734438D02*
X103198570Y-135734438D01*
X103198570Y-135734438D02*
X103865237Y-137734438D01*
X105389047Y-137639200D02*
X105198571Y-137734438D01*
X105198571Y-137734438D02*
X104817618Y-137734438D01*
X104817618Y-137734438D02*
X104627142Y-137639200D01*
X104627142Y-137639200D02*
X104531904Y-137543961D01*
X104531904Y-137543961D02*
X104436666Y-137353485D01*
X104436666Y-137353485D02*
X104436666Y-136782057D01*
X104436666Y-136782057D02*
X104531904Y-136591580D01*
X104531904Y-136591580D02*
X104627142Y-136496342D01*
X104627142Y-136496342D02*
X104817618Y-136401104D01*
X104817618Y-136401104D02*
X105198571Y-136401104D01*
X105198571Y-136401104D02*
X105389047Y-136496342D01*
X107103333Y-137639200D02*
X106912857Y-137734438D01*
X106912857Y-137734438D02*
X106531904Y-137734438D01*
X106531904Y-137734438D02*
X106341428Y-137639200D01*
X106341428Y-137639200D02*
X106246190Y-137543961D01*
X106246190Y-137543961D02*
X106150952Y-137353485D01*
X106150952Y-137353485D02*
X106150952Y-136782057D01*
X106150952Y-136782057D02*
X106246190Y-136591580D01*
X106246190Y-136591580D02*
X106341428Y-136496342D01*
X106341428Y-136496342D02*
X106531904Y-136401104D01*
X106531904Y-136401104D02*
X106912857Y-136401104D01*
X106912857Y-136401104D02*
X107103333Y-136496342D01*
X108722381Y-137639200D02*
X108531905Y-137734438D01*
X108531905Y-137734438D02*
X108150952Y-137734438D01*
X108150952Y-137734438D02*
X107960476Y-137639200D01*
X107960476Y-137639200D02*
X107865238Y-137448723D01*
X107865238Y-137448723D02*
X107865238Y-136686819D01*
X107865238Y-136686819D02*
X107960476Y-136496342D01*
X107960476Y-136496342D02*
X108150952Y-136401104D01*
X108150952Y-136401104D02*
X108531905Y-136401104D01*
X108531905Y-136401104D02*
X108722381Y-136496342D01*
X108722381Y-136496342D02*
X108817619Y-136686819D01*
X108817619Y-136686819D02*
X108817619Y-136877295D01*
X108817619Y-136877295D02*
X107865238Y-137067771D01*
X109960476Y-137734438D02*
X109770000Y-137639200D01*
X109770000Y-137639200D02*
X109674762Y-137448723D01*
X109674762Y-137448723D02*
X109674762Y-135734438D01*
X111484286Y-137639200D02*
X111293810Y-137734438D01*
X111293810Y-137734438D02*
X110912857Y-137734438D01*
X110912857Y-137734438D02*
X110722381Y-137639200D01*
X110722381Y-137639200D02*
X110627143Y-137448723D01*
X110627143Y-137448723D02*
X110627143Y-136686819D01*
X110627143Y-136686819D02*
X110722381Y-136496342D01*
X110722381Y-136496342D02*
X110912857Y-136401104D01*
X110912857Y-136401104D02*
X111293810Y-136401104D01*
X111293810Y-136401104D02*
X111484286Y-136496342D01*
X111484286Y-136496342D02*
X111579524Y-136686819D01*
X111579524Y-136686819D02*
X111579524Y-136877295D01*
X111579524Y-136877295D02*
X110627143Y-137067771D01*
X112436667Y-137734438D02*
X112436667Y-136401104D01*
X112436667Y-136782057D02*
X112531905Y-136591580D01*
X112531905Y-136591580D02*
X112627143Y-136496342D01*
X112627143Y-136496342D02*
X112817619Y-136401104D01*
X112817619Y-136401104D02*
X113008096Y-136401104D01*
X114531905Y-137734438D02*
X114531905Y-136686819D01*
X114531905Y-136686819D02*
X114436667Y-136496342D01*
X114436667Y-136496342D02*
X114246191Y-136401104D01*
X114246191Y-136401104D02*
X113865238Y-136401104D01*
X113865238Y-136401104D02*
X113674762Y-136496342D01*
X114531905Y-137639200D02*
X114341429Y-137734438D01*
X114341429Y-137734438D02*
X113865238Y-137734438D01*
X113865238Y-137734438D02*
X113674762Y-137639200D01*
X113674762Y-137639200D02*
X113579524Y-137448723D01*
X113579524Y-137448723D02*
X113579524Y-137258247D01*
X113579524Y-137258247D02*
X113674762Y-137067771D01*
X113674762Y-137067771D02*
X113865238Y-136972533D01*
X113865238Y-136972533D02*
X114341429Y-136972533D01*
X114341429Y-136972533D02*
X114531905Y-136877295D01*
X115198572Y-136401104D02*
X115960476Y-136401104D01*
X115484286Y-135734438D02*
X115484286Y-137448723D01*
X115484286Y-137448723D02*
X115579524Y-137639200D01*
X115579524Y-137639200D02*
X115770000Y-137734438D01*
X115770000Y-137734438D02*
X115960476Y-137734438D01*
X116912857Y-137734438D02*
X116722381Y-137639200D01*
X116722381Y-137639200D02*
X116627143Y-137543961D01*
X116627143Y-137543961D02*
X116531905Y-137353485D01*
X116531905Y-137353485D02*
X116531905Y-136782057D01*
X116531905Y-136782057D02*
X116627143Y-136591580D01*
X116627143Y-136591580D02*
X116722381Y-136496342D01*
X116722381Y-136496342D02*
X116912857Y-136401104D01*
X116912857Y-136401104D02*
X117198572Y-136401104D01*
X117198572Y-136401104D02*
X117389048Y-136496342D01*
X117389048Y-136496342D02*
X117484286Y-136591580D01*
X117484286Y-136591580D02*
X117579524Y-136782057D01*
X117579524Y-136782057D02*
X117579524Y-137353485D01*
X117579524Y-137353485D02*
X117484286Y-137543961D01*
X117484286Y-137543961D02*
X117389048Y-137639200D01*
X117389048Y-137639200D02*
X117198572Y-137734438D01*
X117198572Y-137734438D02*
X116912857Y-137734438D01*
X118436667Y-137734438D02*
X118436667Y-136401104D01*
X118436667Y-136782057D02*
X118531905Y-136591580D01*
X118531905Y-136591580D02*
X118627143Y-136496342D01*
X118627143Y-136496342D02*
X118817619Y-136401104D01*
X118817619Y-136401104D02*
X119008096Y-136401104D01*
X171071190Y-103624438D02*
X169928333Y-103624438D01*
X170499761Y-103624438D02*
X170499761Y-101624438D01*
X170499761Y-101624438D02*
X170309285Y-101910152D01*
X170309285Y-101910152D02*
X170118809Y-102100628D01*
X170118809Y-102100628D02*
X169928333Y-102195866D01*
X171928333Y-103624438D02*
X171928333Y-101624438D01*
X172118809Y-102862533D02*
X172690238Y-103624438D01*
X172690238Y-102291104D02*
X171928333Y-103053009D01*
X173928333Y-101624438D02*
X174309286Y-101624438D01*
X174309286Y-101624438D02*
X174499762Y-101719676D01*
X174499762Y-101719676D02*
X174690238Y-101910152D01*
X174690238Y-101910152D02*
X174785476Y-102291104D01*
X174785476Y-102291104D02*
X174785476Y-102957771D01*
X174785476Y-102957771D02*
X174690238Y-103338723D01*
X174690238Y-103338723D02*
X174499762Y-103529200D01*
X174499762Y-103529200D02*
X174309286Y-103624438D01*
X174309286Y-103624438D02*
X173928333Y-103624438D01*
X173928333Y-103624438D02*
X173737857Y-103529200D01*
X173737857Y-103529200D02*
X173547381Y-103338723D01*
X173547381Y-103338723D02*
X173452143Y-102957771D01*
X173452143Y-102957771D02*
X173452143Y-102291104D01*
X173452143Y-102291104D02*
X173547381Y-101910152D01*
X173547381Y-101910152D02*
X173737857Y-101719676D01*
X173737857Y-101719676D02*
X173928333Y-101624438D01*
X175642619Y-103624438D02*
X175642619Y-101624438D01*
X176499762Y-103624438D02*
X176499762Y-102576819D01*
X176499762Y-102576819D02*
X176404524Y-102386342D01*
X176404524Y-102386342D02*
X176214048Y-102291104D01*
X176214048Y-102291104D02*
X175928333Y-102291104D01*
X175928333Y-102291104D02*
X175737857Y-102386342D01*
X175737857Y-102386342D02*
X175642619Y-102481580D01*
X177452143Y-103624438D02*
X177452143Y-102291104D01*
X177452143Y-102481580D02*
X177547381Y-102386342D01*
X177547381Y-102386342D02*
X177737857Y-102291104D01*
X177737857Y-102291104D02*
X178023572Y-102291104D01*
X178023572Y-102291104D02*
X178214048Y-102386342D01*
X178214048Y-102386342D02*
X178309286Y-102576819D01*
X178309286Y-102576819D02*
X178309286Y-103624438D01*
X178309286Y-102576819D02*
X178404524Y-102386342D01*
X178404524Y-102386342D02*
X178595000Y-102291104D01*
X178595000Y-102291104D02*
X178880714Y-102291104D01*
X178880714Y-102291104D02*
X179071191Y-102386342D01*
X179071191Y-102386342D02*
X179166429Y-102576819D01*
X179166429Y-102576819D02*
X179166429Y-103624438D01*
X190976190Y-53904438D02*
X190976190Y-51904438D01*
X190976190Y-52856819D02*
X192119047Y-52856819D01*
X192119047Y-53904438D02*
X192119047Y-51904438D01*
X192976190Y-52094914D02*
X193071428Y-51999676D01*
X193071428Y-51999676D02*
X193261904Y-51904438D01*
X193261904Y-51904438D02*
X193738095Y-51904438D01*
X193738095Y-51904438D02*
X193928571Y-51999676D01*
X193928571Y-51999676D02*
X194023809Y-52094914D01*
X194023809Y-52094914D02*
X194119047Y-52285390D01*
X194119047Y-52285390D02*
X194119047Y-52475866D01*
X194119047Y-52475866D02*
X194023809Y-52761580D01*
X194023809Y-52761580D02*
X192880952Y-53904438D01*
X192880952Y-53904438D02*
X194119047Y-53904438D01*
X185163333Y-121054438D02*
X186306190Y-121054438D01*
X185734761Y-123054438D02*
X185734761Y-121054438D01*
X186972857Y-122292533D02*
X188496667Y-122292533D01*
X189449047Y-123054438D02*
X189449047Y-121054438D01*
X189449047Y-121054438D02*
X189925237Y-121054438D01*
X189925237Y-121054438D02*
X190210952Y-121149676D01*
X190210952Y-121149676D02*
X190401428Y-121340152D01*
X190401428Y-121340152D02*
X190496666Y-121530628D01*
X190496666Y-121530628D02*
X190591904Y-121911580D01*
X190591904Y-121911580D02*
X190591904Y-122197295D01*
X190591904Y-122197295D02*
X190496666Y-122578247D01*
X190496666Y-122578247D02*
X190401428Y-122768723D01*
X190401428Y-122768723D02*
X190210952Y-122959200D01*
X190210952Y-122959200D02*
X189925237Y-123054438D01*
X189925237Y-123054438D02*
X189449047Y-123054438D01*
X192401428Y-121054438D02*
X191449047Y-121054438D01*
X191449047Y-121054438D02*
X191353809Y-122006819D01*
X191353809Y-122006819D02*
X191449047Y-121911580D01*
X191449047Y-121911580D02*
X191639523Y-121816342D01*
X191639523Y-121816342D02*
X192115714Y-121816342D01*
X192115714Y-121816342D02*
X192306190Y-121911580D01*
X192306190Y-121911580D02*
X192401428Y-122006819D01*
X192401428Y-122006819D02*
X192496666Y-122197295D01*
X192496666Y-122197295D02*
X192496666Y-122673485D01*
X192496666Y-122673485D02*
X192401428Y-122863961D01*
X192401428Y-122863961D02*
X192306190Y-122959200D01*
X192306190Y-122959200D02*
X192115714Y-123054438D01*
X192115714Y-123054438D02*
X191639523Y-123054438D01*
X191639523Y-123054438D02*
X191449047Y-122959200D01*
X191449047Y-122959200D02*
X191353809Y-122863961D01*
X193734761Y-121054438D02*
X193925238Y-121054438D01*
X193925238Y-121054438D02*
X194115714Y-121149676D01*
X194115714Y-121149676D02*
X194210952Y-121244914D01*
X194210952Y-121244914D02*
X194306190Y-121435390D01*
X194306190Y-121435390D02*
X194401428Y-121816342D01*
X194401428Y-121816342D02*
X194401428Y-122292533D01*
X194401428Y-122292533D02*
X194306190Y-122673485D01*
X194306190Y-122673485D02*
X194210952Y-122863961D01*
X194210952Y-122863961D02*
X194115714Y-122959200D01*
X194115714Y-122959200D02*
X193925238Y-123054438D01*
X193925238Y-123054438D02*
X193734761Y-123054438D01*
X193734761Y-123054438D02*
X193544285Y-122959200D01*
X193544285Y-122959200D02*
X193449047Y-122863961D01*
X193449047Y-122863961D02*
X193353809Y-122673485D01*
X193353809Y-122673485D02*
X193258571Y-122292533D01*
X193258571Y-122292533D02*
X193258571Y-121816342D01*
X193258571Y-121816342D02*
X193353809Y-121435390D01*
X193353809Y-121435390D02*
X193449047Y-121244914D01*
X193449047Y-121244914D02*
X193544285Y-121149676D01*
X193544285Y-121149676D02*
X193734761Y-121054438D01*
X195639523Y-121054438D02*
X195830000Y-121054438D01*
X195830000Y-121054438D02*
X196020476Y-121149676D01*
X196020476Y-121149676D02*
X196115714Y-121244914D01*
X196115714Y-121244914D02*
X196210952Y-121435390D01*
X196210952Y-121435390D02*
X196306190Y-121816342D01*
X196306190Y-121816342D02*
X196306190Y-122292533D01*
X196306190Y-122292533D02*
X196210952Y-122673485D01*
X196210952Y-122673485D02*
X196115714Y-122863961D01*
X196115714Y-122863961D02*
X196020476Y-122959200D01*
X196020476Y-122959200D02*
X195830000Y-123054438D01*
X195830000Y-123054438D02*
X195639523Y-123054438D01*
X195639523Y-123054438D02*
X195449047Y-122959200D01*
X195449047Y-122959200D02*
X195353809Y-122863961D01*
X195353809Y-122863961D02*
X195258571Y-122673485D01*
X195258571Y-122673485D02*
X195163333Y-122292533D01*
X195163333Y-122292533D02*
X195163333Y-121816342D01*
X195163333Y-121816342D02*
X195258571Y-121435390D01*
X195258571Y-121435390D02*
X195353809Y-121244914D01*
X195353809Y-121244914D02*
X195449047Y-121149676D01*
X195449047Y-121149676D02*
X195639523Y-121054438D01*
D14*
X137183095Y-78949819D02*
X137183095Y-79759342D01*
X137183095Y-79759342D02*
X137230714Y-79854580D01*
X137230714Y-79854580D02*
X137278333Y-79902200D01*
X137278333Y-79902200D02*
X137373571Y-79949819D01*
X137373571Y-79949819D02*
X137564047Y-79949819D01*
X137564047Y-79949819D02*
X137659285Y-79902200D01*
X137659285Y-79902200D02*
X137706904Y-79854580D01*
X137706904Y-79854580D02*
X137754523Y-79759342D01*
X137754523Y-79759342D02*
X137754523Y-78949819D01*
X138135476Y-78949819D02*
X138754523Y-78949819D01*
X138754523Y-78949819D02*
X138421190Y-79330771D01*
X138421190Y-79330771D02*
X138564047Y-79330771D01*
X138564047Y-79330771D02*
X138659285Y-79378390D01*
X138659285Y-79378390D02*
X138706904Y-79426009D01*
X138706904Y-79426009D02*
X138754523Y-79521247D01*
X138754523Y-79521247D02*
X138754523Y-79759342D01*
X138754523Y-79759342D02*
X138706904Y-79854580D01*
X138706904Y-79854580D02*
X138659285Y-79902200D01*
X138659285Y-79902200D02*
X138564047Y-79949819D01*
X138564047Y-79949819D02*
X138278333Y-79949819D01*
X138278333Y-79949819D02*
X138183095Y-79902200D01*
X138183095Y-79902200D02*
X138135476Y-79854580D01*
D12*
X118846190Y-115474438D02*
X117703333Y-115474438D01*
X118274761Y-115474438D02*
X118274761Y-113474438D01*
X118274761Y-113474438D02*
X118084285Y-113760152D01*
X118084285Y-113760152D02*
X117893809Y-113950628D01*
X117893809Y-113950628D02*
X117703333Y-114045866D01*
X119703333Y-115474438D02*
X119703333Y-113474438D01*
X119893809Y-114712533D02*
X120465238Y-115474438D01*
X120465238Y-114141104D02*
X119703333Y-114903009D01*
X121703333Y-113474438D02*
X122084286Y-113474438D01*
X122084286Y-113474438D02*
X122274762Y-113569676D01*
X122274762Y-113569676D02*
X122465238Y-113760152D01*
X122465238Y-113760152D02*
X122560476Y-114141104D01*
X122560476Y-114141104D02*
X122560476Y-114807771D01*
X122560476Y-114807771D02*
X122465238Y-115188723D01*
X122465238Y-115188723D02*
X122274762Y-115379200D01*
X122274762Y-115379200D02*
X122084286Y-115474438D01*
X122084286Y-115474438D02*
X121703333Y-115474438D01*
X121703333Y-115474438D02*
X121512857Y-115379200D01*
X121512857Y-115379200D02*
X121322381Y-115188723D01*
X121322381Y-115188723D02*
X121227143Y-114807771D01*
X121227143Y-114807771D02*
X121227143Y-114141104D01*
X121227143Y-114141104D02*
X121322381Y-113760152D01*
X121322381Y-113760152D02*
X121512857Y-113569676D01*
X121512857Y-113569676D02*
X121703333Y-113474438D01*
X123417619Y-115474438D02*
X123417619Y-113474438D01*
X124274762Y-115474438D02*
X124274762Y-114426819D01*
X124274762Y-114426819D02*
X124179524Y-114236342D01*
X124179524Y-114236342D02*
X123989048Y-114141104D01*
X123989048Y-114141104D02*
X123703333Y-114141104D01*
X123703333Y-114141104D02*
X123512857Y-114236342D01*
X123512857Y-114236342D02*
X123417619Y-114331580D01*
X125227143Y-115474438D02*
X125227143Y-114141104D01*
X125227143Y-114331580D02*
X125322381Y-114236342D01*
X125322381Y-114236342D02*
X125512857Y-114141104D01*
X125512857Y-114141104D02*
X125798572Y-114141104D01*
X125798572Y-114141104D02*
X125989048Y-114236342D01*
X125989048Y-114236342D02*
X126084286Y-114426819D01*
X126084286Y-114426819D02*
X126084286Y-115474438D01*
X126084286Y-114426819D02*
X126179524Y-114236342D01*
X126179524Y-114236342D02*
X126370000Y-114141104D01*
X126370000Y-114141104D02*
X126655714Y-114141104D01*
X126655714Y-114141104D02*
X126846191Y-114236342D01*
X126846191Y-114236342D02*
X126941429Y-114426819D01*
X126941429Y-114426819D02*
X126941429Y-115474438D01*
D10*
X125230952Y-106424380D02*
X125183333Y-106472000D01*
X125183333Y-106472000D02*
X125040476Y-106519619D01*
X125040476Y-106519619D02*
X124945238Y-106519619D01*
X124945238Y-106519619D02*
X124802381Y-106472000D01*
X124802381Y-106472000D02*
X124707143Y-106376761D01*
X124707143Y-106376761D02*
X124659524Y-106281523D01*
X124659524Y-106281523D02*
X124611905Y-106091047D01*
X124611905Y-106091047D02*
X124611905Y-105948190D01*
X124611905Y-105948190D02*
X124659524Y-105757714D01*
X124659524Y-105757714D02*
X124707143Y-105662476D01*
X124707143Y-105662476D02*
X124802381Y-105567238D01*
X124802381Y-105567238D02*
X124945238Y-105519619D01*
X124945238Y-105519619D02*
X125040476Y-105519619D01*
X125040476Y-105519619D02*
X125183333Y-105567238D01*
X125183333Y-105567238D02*
X125230952Y-105614857D01*
X125659524Y-106138666D02*
X126421429Y-106138666D01*
X127326190Y-105519619D02*
X127135714Y-105519619D01*
X127135714Y-105519619D02*
X127040476Y-105567238D01*
X127040476Y-105567238D02*
X126992857Y-105614857D01*
X126992857Y-105614857D02*
X126897619Y-105757714D01*
X126897619Y-105757714D02*
X126850000Y-105948190D01*
X126850000Y-105948190D02*
X126850000Y-106329142D01*
X126850000Y-106329142D02*
X126897619Y-106424380D01*
X126897619Y-106424380D02*
X126945238Y-106472000D01*
X126945238Y-106472000D02*
X127040476Y-106519619D01*
X127040476Y-106519619D02*
X127230952Y-106519619D01*
X127230952Y-106519619D02*
X127326190Y-106472000D01*
X127326190Y-106472000D02*
X127373809Y-106424380D01*
X127373809Y-106424380D02*
X127421428Y-106329142D01*
X127421428Y-106329142D02*
X127421428Y-106091047D01*
X127421428Y-106091047D02*
X127373809Y-105995809D01*
X127373809Y-105995809D02*
X127326190Y-105948190D01*
X127326190Y-105948190D02*
X127230952Y-105900571D01*
X127230952Y-105900571D02*
X127040476Y-105900571D01*
X127040476Y-105900571D02*
X126945238Y-105948190D01*
X126945238Y-105948190D02*
X126897619Y-105995809D01*
X126897619Y-105995809D02*
X126850000Y-106091047D01*
X127992857Y-105948190D02*
X127897619Y-105900571D01*
X127897619Y-105900571D02*
X127850000Y-105852952D01*
X127850000Y-105852952D02*
X127802381Y-105757714D01*
X127802381Y-105757714D02*
X127802381Y-105710095D01*
X127802381Y-105710095D02*
X127850000Y-105614857D01*
X127850000Y-105614857D02*
X127897619Y-105567238D01*
X127897619Y-105567238D02*
X127992857Y-105519619D01*
X127992857Y-105519619D02*
X128183333Y-105519619D01*
X128183333Y-105519619D02*
X128278571Y-105567238D01*
X128278571Y-105567238D02*
X128326190Y-105614857D01*
X128326190Y-105614857D02*
X128373809Y-105710095D01*
X128373809Y-105710095D02*
X128373809Y-105757714D01*
X128373809Y-105757714D02*
X128326190Y-105852952D01*
X128326190Y-105852952D02*
X128278571Y-105900571D01*
X128278571Y-105900571D02*
X128183333Y-105948190D01*
X128183333Y-105948190D02*
X127992857Y-105948190D01*
X127992857Y-105948190D02*
X127897619Y-105995809D01*
X127897619Y-105995809D02*
X127850000Y-106043428D01*
X127850000Y-106043428D02*
X127802381Y-106138666D01*
X127802381Y-106138666D02*
X127802381Y-106329142D01*
X127802381Y-106329142D02*
X127850000Y-106424380D01*
X127850000Y-106424380D02*
X127897619Y-106472000D01*
X127897619Y-106472000D02*
X127992857Y-106519619D01*
X127992857Y-106519619D02*
X128183333Y-106519619D01*
X128183333Y-106519619D02*
X128278571Y-106472000D01*
X128278571Y-106472000D02*
X128326190Y-106424380D01*
X128326190Y-106424380D02*
X128373809Y-106329142D01*
X128373809Y-106329142D02*
X128373809Y-106138666D01*
X128373809Y-106138666D02*
X128326190Y-106043428D01*
X128326190Y-106043428D02*
X128278571Y-105995809D01*
X128278571Y-105995809D02*
X128183333Y-105948190D01*
X128802381Y-105852952D02*
X128802381Y-106519619D01*
X128802381Y-105948190D02*
X128850000Y-105900571D01*
X128850000Y-105900571D02*
X128945238Y-105852952D01*
X128945238Y-105852952D02*
X129088095Y-105852952D01*
X129088095Y-105852952D02*
X129183333Y-105900571D01*
X129183333Y-105900571D02*
X129230952Y-105995809D01*
X129230952Y-105995809D02*
X129230952Y-106519619D01*
X130040476Y-105995809D02*
X129707143Y-105995809D01*
X129707143Y-106519619D02*
X129707143Y-105519619D01*
X129707143Y-105519619D02*
X130183333Y-105519619D01*
X131088095Y-106519619D02*
X130516667Y-106519619D01*
X130802381Y-106519619D02*
X130802381Y-105519619D01*
X130802381Y-105519619D02*
X130707143Y-105662476D01*
X130707143Y-105662476D02*
X130611905Y-105757714D01*
X130611905Y-105757714D02*
X130516667Y-105805333D01*
D15*
%TO.C,10kOhm*%
X173200000Y-96120000D02*
X173200000Y-98720000D01*
X173200000Y-96120000D02*
X175860000Y-96120000D01*
X173200000Y-98720000D02*
X175860000Y-98720000D01*
X174530000Y-93520000D02*
X175860000Y-93520000D01*
X175860000Y-93520000D02*
X175860000Y-94850000D01*
X175860000Y-96120000D02*
X175860000Y-98720000D01*
%TO.C,ACS712_2*%
X113800000Y-80530000D02*
X115130000Y-80530000D01*
X113800000Y-81860000D02*
X113800000Y-80530000D01*
X116400000Y-80530000D02*
X121540000Y-80530000D01*
X116400000Y-83190000D02*
X116400000Y-80530000D01*
X116400000Y-83190000D02*
X121540000Y-83190000D01*
X121540000Y-83190000D02*
X121540000Y-80530000D01*
%TO.C,MicroSD*%
X191970000Y-106480000D02*
X191970000Y-93720000D01*
X191970000Y-109080000D02*
X191970000Y-107750000D01*
X193300000Y-109080000D02*
X191970000Y-109080000D01*
X194630000Y-93720000D02*
X191970000Y-93720000D01*
X194630000Y-106480000D02*
X191970000Y-106480000D01*
X194630000Y-106480000D02*
X194630000Y-93720000D01*
%TO.C,GPS*%
X105785000Y-119720000D02*
X105785000Y-112040000D01*
X105785000Y-122320000D02*
X105785000Y-120990000D01*
X107115000Y-122320000D02*
X105785000Y-122320000D01*
X108445000Y-112040000D02*
X105785000Y-112040000D01*
X108445000Y-119720000D02*
X105785000Y-119720000D01*
X108445000Y-119720000D02*
X108445000Y-112040000D01*
%TO.C,ACS712_4*%
X118280000Y-94730000D02*
X119610000Y-94730000D01*
X118280000Y-96060000D02*
X118280000Y-94730000D01*
X120880000Y-94730000D02*
X126020000Y-94730000D01*
X120880000Y-97390000D02*
X120880000Y-94730000D01*
X120880000Y-97390000D02*
X126020000Y-97390000D01*
X126020000Y-97390000D02*
X126020000Y-94730000D01*
%TO.C,300kOhm*%
X173150000Y-118820000D02*
X173150000Y-116220000D01*
X173150000Y-121420000D02*
X173150000Y-120090000D01*
X174480000Y-121420000D02*
X173150000Y-121420000D01*
X175810000Y-116220000D02*
X173150000Y-116220000D01*
X175810000Y-118820000D02*
X173150000Y-118820000D01*
X175810000Y-118820000D02*
X175810000Y-116220000D01*
%TO.C,1kOhm*%
X121105000Y-130050000D02*
X121105000Y-132650000D01*
X121105000Y-130050000D02*
X123765000Y-130050000D01*
X121105000Y-132650000D02*
X123765000Y-132650000D01*
X122435000Y-127450000D02*
X123765000Y-127450000D01*
X123765000Y-127450000D02*
X123765000Y-128780000D01*
X123765000Y-130050000D02*
X123765000Y-132650000D01*
%TO.C,ACS712_1*%
X102570000Y-80530000D02*
X103900000Y-80530000D01*
X102570000Y-81860000D02*
X102570000Y-80530000D01*
X105170000Y-80530000D02*
X110310000Y-80530000D01*
X105170000Y-83190000D02*
X105170000Y-80530000D01*
X105170000Y-83190000D02*
X110310000Y-83190000D01*
X110310000Y-83190000D02*
X110310000Y-80530000D01*
%TO.C,ACS712_3*%
X124870000Y-80530000D02*
X126200000Y-80530000D01*
X124870000Y-81860000D02*
X124870000Y-80530000D01*
X127470000Y-80530000D02*
X132610000Y-80530000D01*
X127470000Y-83190000D02*
X127470000Y-80530000D01*
X127470000Y-83190000D02*
X132610000Y-83190000D01*
X132610000Y-83190000D02*
X132610000Y-80530000D01*
%TO.C,KY-24*%
X105835000Y-101220000D02*
X105835000Y-108900000D01*
X105835000Y-101220000D02*
X108495000Y-101220000D01*
X105835000Y-108900000D02*
X108495000Y-108900000D01*
X107165000Y-98620000D02*
X108495000Y-98620000D01*
X108495000Y-98620000D02*
X108495000Y-99950000D01*
X108495000Y-101220000D02*
X108495000Y-108900000D01*
%TO.C,PowerModule1*%
X176420000Y-81710000D02*
X176420000Y-84370000D01*
X189180000Y-81710000D02*
X176420000Y-81710000D01*
X189180000Y-81710000D02*
X189180000Y-84370000D01*
X189180000Y-84370000D02*
X176420000Y-84370000D01*
X191780000Y-83040000D02*
X191780000Y-84370000D01*
X191780000Y-84370000D02*
X190450000Y-84370000D01*
%TO.C,LM324*%
X175010000Y-125260000D02*
X175010000Y-127860000D01*
X175010000Y-127860000D02*
X175010000Y-143160000D01*
X176340000Y-125260000D02*
X175010000Y-125260000D01*
X177610000Y-125260000D02*
X177610000Y-127860000D01*
X177610000Y-127860000D02*
X175010000Y-127860000D01*
X185710000Y-125260000D02*
X176340000Y-125260000D01*
X185710000Y-125260000D02*
X185710000Y-143160000D01*
X185710000Y-143160000D02*
X175010000Y-143160000D01*
%TO.C,Accelerator*%
X106270000Y-131200000D02*
X106270000Y-133800000D01*
X106270000Y-131200000D02*
X108930000Y-131200000D01*
X106270000Y-133800000D02*
X108930000Y-133800000D01*
X107600000Y-128600000D02*
X108930000Y-128600000D01*
X108930000Y-128600000D02*
X108930000Y-129930000D01*
X108930000Y-131200000D02*
X108930000Y-133800000D01*
%TO.C,1kOhm*%
X173200000Y-107610000D02*
X173200000Y-110210000D01*
X173200000Y-107610000D02*
X175860000Y-107610000D01*
X173200000Y-110210000D02*
X175860000Y-110210000D01*
X174530000Y-105010000D02*
X175860000Y-105010000D01*
X175860000Y-105010000D02*
X175860000Y-106340000D01*
X175860000Y-107610000D02*
X175860000Y-110210000D01*
%TO.C,T-D500*%
X189360000Y-116680000D02*
X189360000Y-119280000D01*
X189360000Y-116680000D02*
X192020000Y-116680000D01*
X189360000Y-119280000D02*
X192020000Y-119280000D01*
X190690000Y-114080000D02*
X192020000Y-114080000D01*
X192020000Y-114080000D02*
X192020000Y-115410000D01*
X192020000Y-116680000D02*
X192020000Y-119280000D01*
D16*
%TO.C,U3*%
X135020000Y-81380000D02*
X146089000Y-81380000D01*
X135020000Y-81380000D02*
X163530000Y-81380000D01*
X135020000Y-132330000D02*
X135020000Y-81380000D01*
X135020000Y-132330000D02*
X135020000Y-81380000D01*
X135020000Y-132330000D02*
X140390000Y-132330000D01*
X140390000Y-132330000D02*
X158080000Y-132330000D01*
X146089000Y-81380000D02*
X152800000Y-81380000D01*
X152800000Y-81380000D02*
X163530000Y-81380000D01*
X158080000Y-132330000D02*
X163530000Y-132330000D01*
X163530000Y-81380000D02*
X163530000Y-132330000D01*
X163530000Y-81380000D02*
X163530000Y-132330000D01*
X163530000Y-132330000D02*
X135020000Y-132330000D01*
D17*
X134550000Y-91340000D02*
G75*
G02*
X134350000Y-91340000I-100000J0D01*
G01*
X134350000Y-91340000D02*
G75*
G02*
X134550000Y-91340000I100000J0D01*
G01*
D15*
%TO.C,1kOhm*%
X121105000Y-119540000D02*
X121105000Y-122140000D01*
X121105000Y-119540000D02*
X123765000Y-119540000D01*
X121105000Y-122140000D02*
X123765000Y-122140000D01*
X122435000Y-116940000D02*
X123765000Y-116940000D01*
X123765000Y-116940000D02*
X123765000Y-118270000D01*
X123765000Y-119540000D02*
X123765000Y-122140000D01*
%TO.C,C-68nF1*%
X121010000Y-106130000D02*
X121010000Y-108730000D01*
X121010000Y-106130000D02*
X123670000Y-106130000D01*
X121010000Y-108730000D02*
X123670000Y-108730000D01*
X122340000Y-103530000D02*
X123670000Y-103530000D01*
X123670000Y-103530000D02*
X123670000Y-104860000D01*
X123670000Y-106130000D02*
X123670000Y-108730000D01*
%TD*%
M02*
