%TF.GenerationSoftware,KiCad,Pcbnew,8.0.1*%
%TF.CreationDate,2024-04-16T10:16:22-05:00*%
%TF.ProjectId,DAQ-Bicineta,4441512d-4269-4636-996e-6574612e6b69,rev?*%
%TF.SameCoordinates,Original*%
%TF.FileFunction,Copper,L1,Top*%
%TF.FilePolarity,Positive*%
%FSLAX46Y46*%
G04 Gerber Fmt 4.6, Leading zero omitted, Abs format (unit mm)*
G04 Created by KiCad (PCBNEW 8.0.1) date 2024-04-16 10:16:22*
%MOMM*%
%LPD*%
G01*
G04 APERTURE LIST*
%TA.AperFunction,ComponentPad*%
%ADD10R,1.700000X1.700000*%
%TD*%
%TA.AperFunction,ComponentPad*%
%ADD11O,1.700000X1.700000*%
%TD*%
%TA.AperFunction,ComponentPad*%
%ADD12C,4.800000*%
%TD*%
%TA.AperFunction,ComponentPad*%
%ADD13R,2.000000X2.000000*%
%TD*%
%TA.AperFunction,ComponentPad*%
%ADD14C,2.000000*%
%TD*%
%TA.AperFunction,ViaPad*%
%ADD15C,0.600000*%
%TD*%
%TA.AperFunction,Conductor*%
%ADD16C,1.000000*%
%TD*%
%TA.AperFunction,Conductor*%
%ADD17C,0.200000*%
%TD*%
G04 APERTURE END LIST*
D10*
%TO.P,R-150k,1*%
%TO.N,CS_VCC*%
X179710000Y-124500000D03*
D11*
%TO.P,R-150k,2*%
%TO.N,T-D500_OUT*%
X182250000Y-124500000D03*
%TD*%
D10*
%TO.P,T-D500,1,Pin_1*%
%TO.N,T-D500_OUT*%
X182260000Y-131960000D03*
D11*
%TO.P,T-D500,2,Pin_2*%
%TO.N,CS_GND*%
X182260000Y-134500000D03*
%TD*%
D12*
%TO.P,H3,3*%
%TO.N,CS_GND*%
X107500000Y-142500000D03*
%TD*%
%TO.P,H1,1*%
%TO.N,CS_GND*%
X107500000Y-57500000D03*
%TD*%
%TO.P,H4,4*%
%TO.N,CS_GND*%
X192500000Y-142500000D03*
%TD*%
D10*
%TO.P,MicroSD1,1,Pin_1*%
%TO.N,MSD_CS*%
X174230000Y-116055000D03*
D11*
%TO.P,MicroSD1,2,Pin_2*%
%TO.N,MSD_SCK*%
X174230000Y-113515000D03*
%TO.P,MicroSD1,3,Pin_3*%
%TO.N,MSD_MOSI*%
X174230000Y-110975000D03*
%TO.P,MicroSD1,4,Pin_4*%
%TO.N,MSD_MISO*%
X174230000Y-108435000D03*
%TO.P,MicroSD1,5,Pin_5*%
%TO.N,GPS_VCC*%
X174230000Y-105895000D03*
%TO.P,MicroSD1,6,Pin_6*%
%TO.N,CS_GND*%
X174230000Y-103355000D03*
%TD*%
D10*
%TO.P,GPS1,1,Pin_1*%
%TO.N,CS_GND*%
X124775000Y-130780000D03*
D11*
%TO.P,GPS1,2,Pin_2*%
%TO.N,GPS_TX*%
X124775000Y-128240000D03*
%TO.P,GPS1,3,Pin_3*%
%TO.N,GPS_RX*%
X124775000Y-125700000D03*
%TO.P,GPS1,4,Pin_4*%
%TO.N,GPS_VCC*%
X124775000Y-123160000D03*
%TD*%
D10*
%TO.P,ACS712,1,Pin_1*%
%TO.N,CS_VCC*%
X119725000Y-82880000D03*
D11*
%TO.P,ACS712,2,Pin_2*%
%TO.N,CS_OUT*%
X122265000Y-82880000D03*
%TO.P,ACS712,3,Pin_3*%
%TO.N,CS_GND*%
X124805000Y-82880000D03*
%TD*%
D10*
%TO.P,KY-24,1,Pin_1*%
%TO.N,KY_A0*%
X120000000Y-103880000D03*
D11*
%TO.P,KY-24,2,Pin_2*%
%TO.N,CS_GND*%
X120000000Y-106420000D03*
%TO.P,KY-24,3,Pin_3*%
%TO.N,GPS_VCC*%
X120000000Y-108960000D03*
%TO.P,KY-24,4,Pin_4*%
%TO.N,KY_DO*%
X120000000Y-111500000D03*
%TD*%
D10*
%TO.P,PowerModule1,1,Pin_1*%
%TO.N,GPS_VCC*%
X185725000Y-83025000D03*
D11*
%TO.P,PowerModule1,2,Pin_2*%
X183185000Y-83025000D03*
%TO.P,PowerModule1,3,Pin_3*%
%TO.N,PM_I*%
X180645000Y-83025000D03*
%TO.P,PowerModule1,4,Pin_4*%
%TO.N,PM_V*%
X178105000Y-83025000D03*
%TO.P,PowerModule1,5,Pin_5*%
%TO.N,CS_GND*%
X175565000Y-83025000D03*
%TO.P,PowerModule1,6,Pin_6*%
X173025000Y-83025000D03*
%TD*%
D12*
%TO.P,H2,2*%
%TO.N,CS_GND*%
X192500000Y-57500000D03*
%TD*%
D13*
%TO.P,U3,1,3V3*%
%TO.N,CS_VCC*%
X136600000Y-91340000D03*
D14*
%TO.P,U3,2,GND*%
%TO.N,CS_GND*%
X136600000Y-93880000D03*
%TO.P,U3,3,D15*%
%TO.N,unconnected-(U3-D15-Pad3)*%
X136600000Y-96420000D03*
%TO.P,U3,4,D2*%
%TO.N,unconnected-(U3-D2-Pad4)*%
X136600000Y-98960000D03*
%TO.P,U3,5,D4*%
%TO.N,unconnected-(U3-D4-Pad5)*%
X136600000Y-101500000D03*
%TO.P,U3,6,RX2*%
%TO.N,GPS_RX*%
X136600000Y-104040000D03*
%TO.P,U3,7,TX2*%
%TO.N,GPS_TX*%
X136600000Y-106580000D03*
%TO.P,U3,8,D5*%
%TO.N,MSD_CS*%
X136600000Y-109120000D03*
%TO.P,U3,9,D18*%
%TO.N,MSD_SCK*%
X136600000Y-111660000D03*
%TO.P,U3,10,D19*%
%TO.N,MSD_MISO*%
X136600000Y-114200000D03*
%TO.P,U3,11,D21*%
%TO.N,unconnected-(U3-D21-Pad11)*%
X136600000Y-116740000D03*
%TO.P,U3,12,RX0*%
%TO.N,unconnected-(U3-RX0-Pad12)*%
X136600000Y-119280000D03*
%TO.P,U3,13,TX0*%
%TO.N,unconnected-(U3-TX0-Pad13)*%
X136600000Y-121820000D03*
%TO.P,U3,14,D22*%
%TO.N,unconnected-(U3-D22-Pad14)*%
X136600000Y-124360000D03*
%TO.P,U3,15,D23*%
%TO.N,MSD_MOSI*%
X136600000Y-126900000D03*
%TO.P,U3,16,EN*%
%TO.N,unconnected-(U3-EN-Pad16)*%
X162000000Y-126900000D03*
%TO.P,U3,17,VP*%
%TO.N,unconnected-(U3-VP-Pad17)*%
X162000000Y-124360000D03*
%TO.P,U3,18,VN*%
%TO.N,unconnected-(U3-VN-Pad18)*%
X162000000Y-121820000D03*
%TO.P,U3,19,D34*%
%TO.N,T-D500_OUT*%
X162000000Y-119280000D03*
%TO.P,U3,20,D35*%
%TO.N,PM_I*%
X162000000Y-116740000D03*
%TO.P,U3,21,D32*%
%TO.N,CS_OUT*%
X162000000Y-114200000D03*
%TO.P,U3,22,D33*%
%TO.N,PM_V*%
X162000000Y-111660000D03*
%TO.P,U3,23,D25*%
%TO.N,unconnected-(U3-D25-Pad23)*%
X162000000Y-109120000D03*
%TO.P,U3,24,D26*%
%TO.N,KY_DO*%
X162000000Y-106580000D03*
%TO.P,U3,25,D27*%
%TO.N,KY_A0*%
X162000000Y-104040000D03*
%TO.P,U3,26,D14*%
%TO.N,unconnected-(U3-D14-Pad26)*%
X162000000Y-101500000D03*
%TO.P,U3,27,D12*%
%TO.N,unconnected-(U3-D12-Pad27)*%
X162000000Y-98960000D03*
%TO.P,U3,28,D13*%
%TO.N,unconnected-(U3-D13-Pad28)*%
X162000000Y-96420000D03*
%TO.P,U3,29,GND*%
%TO.N,CS_GND*%
X162000000Y-93880000D03*
%TO.P,U3,30,VIN*%
%TO.N,GPS_VCC*%
X162000000Y-91340000D03*
%TD*%
D15*
%TO.N,CS_VCC*%
X176500000Y-124500000D03*
%TO.N,T-D500_OUT*%
X182250000Y-121250000D03*
%TO.N,KY_DO*%
X165000000Y-88500000D03*
X112000000Y-94500000D03*
%TO.N,KY_A0*%
X121500000Y-99500000D03*
%TO.N,GPS_VCC*%
X178300000Y-91355000D03*
X115000000Y-94000000D03*
X178300000Y-92855000D03*
X124800000Y-93355000D03*
%TO.N,MSD_SCK*%
X129300000Y-127855000D03*
%TO.N,MSD_CS*%
X127800000Y-127855000D03*
%TO.N,MSD_MOSI*%
X165800000Y-115855000D03*
X170800000Y-110855000D03*
%TO.N,PM_V*%
X168800000Y-103355000D03*
%TO.N,PM_I*%
X180000000Y-119000000D03*
%TD*%
D16*
%TO.N,CS_VCC*%
X179710000Y-124500000D02*
X176500000Y-124500000D01*
%TO.N,T-D500_OUT*%
X182250000Y-131950000D02*
X182260000Y-131960000D01*
X182250000Y-124500000D02*
X182250000Y-131950000D01*
X182250000Y-124500000D02*
X182250000Y-121250000D01*
%TO.N,KY_DO*%
X114802944Y-111500000D02*
X112000000Y-108697056D01*
X120000000Y-111500000D02*
X114802944Y-111500000D01*
X165000000Y-88500000D02*
X165000000Y-103580000D01*
X112000000Y-108697056D02*
X112000000Y-94500000D01*
X165000000Y-103580000D02*
X162000000Y-106580000D01*
%TO.N,KY_A0*%
X120000000Y-101000000D02*
X121500000Y-99500000D01*
X120000000Y-103880000D02*
X120000000Y-101000000D01*
%TO.N,GPS_VCC*%
X185700000Y-83050000D02*
X185700000Y-89080000D01*
X124775000Y-123160000D02*
X124775000Y-93380000D01*
X124775000Y-93380000D02*
X124800000Y-93355000D01*
X185725000Y-83025000D02*
X185700000Y-83050000D01*
X183185000Y-89315000D02*
X181145000Y-91355000D01*
X181925000Y-92855000D02*
X181925000Y-98200000D01*
X185700000Y-89080000D02*
X181925000Y-92855000D01*
X120000000Y-108960000D02*
X113960000Y-108960000D01*
X113960000Y-108960000D02*
X113500000Y-108500000D01*
X181145000Y-91355000D02*
X178300000Y-91355000D01*
X180800000Y-92855000D02*
X181925000Y-92855000D01*
X113500000Y-108500000D02*
X113500000Y-95500000D01*
X183185000Y-83025000D02*
X183185000Y-89315000D01*
X181925000Y-98200000D02*
X174230000Y-105895000D01*
X178300000Y-92855000D02*
X180800000Y-92855000D01*
X113500000Y-95500000D02*
X115000000Y-94000000D01*
%TO.N,GPS_RX*%
X124775000Y-125700000D02*
X129800000Y-120675000D01*
X134115000Y-104040000D02*
X136600000Y-104040000D01*
X129800000Y-108355000D02*
X134115000Y-104040000D01*
X129800000Y-120675000D02*
X129800000Y-108355000D01*
%TO.N,GPS_TX*%
X131300000Y-121715000D02*
X131300000Y-109355000D01*
X124775000Y-128240000D02*
X131300000Y-121715000D01*
X134075000Y-106580000D02*
X136600000Y-106580000D01*
X131300000Y-109355000D02*
X134075000Y-106580000D01*
D17*
%TO.N,CS_VCC*%
X122300000Y-91355000D02*
X122315000Y-91340000D01*
D16*
X119725000Y-88780000D02*
X122300000Y-91355000D01*
X119725000Y-82880000D02*
X119725000Y-88780000D01*
X122315000Y-91340000D02*
X136600000Y-91340000D01*
%TO.N,CS_OUT*%
X166800000Y-109400000D02*
X166800000Y-80355000D01*
X162000000Y-114200000D02*
X166800000Y-109400000D01*
X166800000Y-80355000D02*
X165300000Y-78855000D01*
X165300000Y-78855000D02*
X123800000Y-78855000D01*
X123800000Y-78855000D02*
X122265000Y-80390000D01*
X122265000Y-80390000D02*
X122265000Y-82880000D01*
%TO.N,MSD_MISO*%
X168300000Y-110855000D02*
X168300000Y-133855000D01*
X134955000Y-114200000D02*
X136600000Y-114200000D01*
X132800000Y-134855000D02*
X132800000Y-116355000D01*
X166300000Y-135855000D02*
X133800000Y-135855000D01*
X132800000Y-116355000D02*
X134955000Y-114200000D01*
X174230000Y-108435000D02*
X170720000Y-108435000D01*
X133800000Y-135855000D02*
X132800000Y-134855000D01*
X168300000Y-133855000D02*
X166300000Y-135855000D01*
X170720000Y-108435000D02*
X168300000Y-110855000D01*
%TO.N,MSD_SCK*%
X132500000Y-137055000D02*
X129300000Y-133855000D01*
X169500000Y-134655000D02*
X167100000Y-137055000D01*
X129300000Y-133855000D02*
X129300000Y-127855000D01*
X167100000Y-137055000D02*
X132500000Y-137055000D01*
X174230000Y-113515000D02*
X173027919Y-113515000D01*
X173027919Y-113515000D02*
X169500000Y-117042919D01*
X169500000Y-117042919D02*
X169500000Y-134655000D01*
%TO.N,MSD_CS*%
X131700000Y-138255000D02*
X127800000Y-134355000D01*
X174230000Y-131622056D02*
X167597056Y-138255000D01*
X174230000Y-116055000D02*
X174230000Y-131622056D01*
X127800000Y-134355000D02*
X127800000Y-127855000D01*
X167597056Y-138255000D02*
X131700000Y-138255000D01*
%TO.N,MSD_MOSI*%
X134000000Y-131555000D02*
X134000000Y-129500000D01*
X165800000Y-115855000D02*
X165800000Y-132855000D01*
X164800000Y-133855000D02*
X136300000Y-133855000D01*
X136300000Y-133855000D02*
X134000000Y-131555000D01*
X134000000Y-129500000D02*
X136600000Y-126900000D01*
X170920000Y-110975000D02*
X170800000Y-110855000D01*
X174230000Y-110975000D02*
X170920000Y-110975000D01*
X165800000Y-132855000D02*
X164800000Y-133855000D01*
%TO.N,PM_V*%
X178105000Y-87056238D02*
X168800000Y-96361238D01*
X168800000Y-96361238D02*
X168800000Y-103355000D01*
X178105000Y-83025000D02*
X178105000Y-87056238D01*
%TO.N,PM_I*%
X182195000Y-81475000D02*
X187275000Y-81475000D01*
X180645000Y-83025000D02*
X182195000Y-81475000D01*
X187275000Y-81475000D02*
X187275000Y-111725000D01*
X187275000Y-111725000D02*
X180000000Y-119000000D01*
%TD*%
%TA.AperFunction,Conductor*%
%TO.N,CS_GND*%
G36*
X164901257Y-79875185D02*
G01*
X164921899Y-79891819D01*
X165763181Y-80733101D01*
X165796666Y-80794424D01*
X165799500Y-80820782D01*
X165799500Y-87598929D01*
X165779815Y-87665968D01*
X165727011Y-87711723D01*
X165657853Y-87721667D01*
X165606609Y-87702031D01*
X165473920Y-87613371D01*
X165473907Y-87613364D01*
X165291839Y-87537950D01*
X165291829Y-87537947D01*
X165098543Y-87499500D01*
X165098541Y-87499500D01*
X164901459Y-87499500D01*
X164901457Y-87499500D01*
X164708170Y-87537947D01*
X164708160Y-87537950D01*
X164526092Y-87613364D01*
X164526079Y-87613371D01*
X164362218Y-87722860D01*
X164362214Y-87722863D01*
X164222863Y-87862214D01*
X164222860Y-87862218D01*
X164113371Y-88026079D01*
X164113364Y-88026092D01*
X164037950Y-88208160D01*
X164037947Y-88208170D01*
X163999500Y-88401456D01*
X163999500Y-103114216D01*
X163979815Y-103181255D01*
X163963181Y-103201897D01*
X163610295Y-103554782D01*
X163548972Y-103588267D01*
X163479280Y-103583283D01*
X163423347Y-103541411D01*
X163409058Y-103516911D01*
X163324173Y-103323393D01*
X163188166Y-103115217D01*
X163118463Y-103039500D01*
X163019744Y-102932262D01*
X162936991Y-102867852D01*
X162896179Y-102811143D01*
X162892504Y-102741370D01*
X162927136Y-102680687D01*
X162936985Y-102672151D01*
X163019744Y-102607738D01*
X163188164Y-102424785D01*
X163324173Y-102216607D01*
X163424063Y-101988881D01*
X163485108Y-101747821D01*
X163505643Y-101500000D01*
X163495542Y-101378101D01*
X163485109Y-101252187D01*
X163485107Y-101252175D01*
X163424063Y-101011118D01*
X163324173Y-100783393D01*
X163188166Y-100575217D01*
X163142943Y-100526092D01*
X163019744Y-100392262D01*
X162936991Y-100327852D01*
X162896179Y-100271143D01*
X162892504Y-100201370D01*
X162927136Y-100140687D01*
X162936985Y-100132151D01*
X163019744Y-100067738D01*
X163188164Y-99884785D01*
X163324173Y-99676607D01*
X163424063Y-99448881D01*
X163485108Y-99207821D01*
X163505643Y-98960000D01*
X163497540Y-98862215D01*
X163485109Y-98712187D01*
X163485107Y-98712175D01*
X163424063Y-98471118D01*
X163324173Y-98243393D01*
X163188166Y-98035217D01*
X163166557Y-98011744D01*
X163019744Y-97852262D01*
X162936991Y-97787852D01*
X162896179Y-97731143D01*
X162892504Y-97661370D01*
X162927136Y-97600687D01*
X162936985Y-97592151D01*
X163019744Y-97527738D01*
X163188164Y-97344785D01*
X163324173Y-97136607D01*
X163424063Y-96908881D01*
X163485108Y-96667821D01*
X163505643Y-96420000D01*
X163485108Y-96172179D01*
X163485107Y-96172175D01*
X163424063Y-95931118D01*
X163324173Y-95703393D01*
X163188166Y-95495217D01*
X163166557Y-95471744D01*
X163019744Y-95312262D01*
X162823509Y-95159526D01*
X162823507Y-95159525D01*
X162823506Y-95159524D01*
X162604811Y-95041172D01*
X162604802Y-95041169D01*
X162369616Y-94960429D01*
X162124335Y-94919500D01*
X161875665Y-94919500D01*
X161630383Y-94960429D01*
X161395197Y-95041169D01*
X161395188Y-95041172D01*
X161176493Y-95159524D01*
X160980257Y-95312261D01*
X160811833Y-95495217D01*
X160675826Y-95703393D01*
X160575936Y-95931118D01*
X160514892Y-96172175D01*
X160514890Y-96172187D01*
X160494357Y-96419994D01*
X160494357Y-96420005D01*
X160514890Y-96667812D01*
X160514892Y-96667824D01*
X160575936Y-96908881D01*
X160675826Y-97136606D01*
X160811833Y-97344782D01*
X160811836Y-97344785D01*
X160980256Y-97527738D01*
X161063008Y-97592147D01*
X161103821Y-97648857D01*
X161107496Y-97718630D01*
X161072864Y-97779313D01*
X161063014Y-97787848D01*
X161019268Y-97821898D01*
X160980257Y-97852261D01*
X160811833Y-98035217D01*
X160675826Y-98243393D01*
X160575936Y-98471118D01*
X160514892Y-98712175D01*
X160514890Y-98712187D01*
X160494357Y-98959994D01*
X160494357Y-98960005D01*
X160514890Y-99207812D01*
X160514892Y-99207824D01*
X160575936Y-99448881D01*
X160675826Y-99676606D01*
X160811833Y-99884782D01*
X160811836Y-99884785D01*
X160980256Y-100067738D01*
X161063008Y-100132147D01*
X161103821Y-100188857D01*
X161107496Y-100258630D01*
X161072864Y-100319313D01*
X161063014Y-100327848D01*
X161018855Y-100362219D01*
X160980257Y-100392261D01*
X160811833Y-100575217D01*
X160675826Y-100783393D01*
X160575936Y-101011118D01*
X160514892Y-101252175D01*
X160514890Y-101252187D01*
X160494357Y-101499994D01*
X160494357Y-101500005D01*
X160514890Y-101747812D01*
X160514892Y-101747824D01*
X160575936Y-101988881D01*
X160675826Y-102216606D01*
X160811833Y-102424782D01*
X160811836Y-102424785D01*
X160980256Y-102607738D01*
X161063008Y-102672147D01*
X161103821Y-102728857D01*
X161107496Y-102798630D01*
X161072864Y-102859313D01*
X161063014Y-102867848D01*
X161004400Y-102913469D01*
X160980257Y-102932261D01*
X160811833Y-103115217D01*
X160675826Y-103323393D01*
X160575936Y-103551118D01*
X160514892Y-103792175D01*
X160514890Y-103792187D01*
X160494357Y-104039994D01*
X160494357Y-104040005D01*
X160514890Y-104287812D01*
X160514892Y-104287824D01*
X160575936Y-104528881D01*
X160675826Y-104756606D01*
X160811833Y-104964782D01*
X160818786Y-104972335D01*
X160980256Y-105147738D01*
X161063008Y-105212147D01*
X161103821Y-105268857D01*
X161107496Y-105338630D01*
X161072864Y-105399313D01*
X161063014Y-105407848D01*
X161024465Y-105437853D01*
X160980257Y-105472261D01*
X160811833Y-105655217D01*
X160675826Y-105863393D01*
X160575936Y-106091118D01*
X160514892Y-106332175D01*
X160514890Y-106332187D01*
X160494357Y-106579994D01*
X160494357Y-106580005D01*
X160514890Y-106827812D01*
X160514892Y-106827824D01*
X160575936Y-107068881D01*
X160675826Y-107296606D01*
X160811833Y-107504782D01*
X160811836Y-107504785D01*
X160980256Y-107687738D01*
X161063008Y-107752147D01*
X161103821Y-107808857D01*
X161107496Y-107878630D01*
X161072864Y-107939313D01*
X161063014Y-107947848D01*
X161004400Y-107993469D01*
X160980257Y-108012261D01*
X160811833Y-108195217D01*
X160675826Y-108403393D01*
X160575936Y-108631118D01*
X160514892Y-108872175D01*
X160514890Y-108872187D01*
X160494357Y-109119994D01*
X160494357Y-109120005D01*
X160514890Y-109367812D01*
X160514892Y-109367824D01*
X160575936Y-109608881D01*
X160675826Y-109836606D01*
X160811833Y-110044782D01*
X160811836Y-110044785D01*
X160980256Y-110227738D01*
X161063008Y-110292147D01*
X161103821Y-110348857D01*
X161107496Y-110418630D01*
X161072864Y-110479313D01*
X161063014Y-110487848D01*
X161004400Y-110533469D01*
X160980257Y-110552261D01*
X160811833Y-110735217D01*
X160675826Y-110943393D01*
X160575936Y-111171118D01*
X160514892Y-111412175D01*
X160514890Y-111412187D01*
X160494357Y-111659994D01*
X160494357Y-111660005D01*
X160514890Y-111907812D01*
X160514892Y-111907824D01*
X160575936Y-112148881D01*
X160675826Y-112376606D01*
X160811833Y-112584782D01*
X160811836Y-112584785D01*
X160980256Y-112767738D01*
X161063008Y-112832147D01*
X161103821Y-112888857D01*
X161107496Y-112958630D01*
X161072864Y-113019313D01*
X161063014Y-113027848D01*
X161004400Y-113073469D01*
X160980257Y-113092261D01*
X160811833Y-113275217D01*
X160675826Y-113483393D01*
X160575936Y-113711118D01*
X160514892Y-113952175D01*
X160514890Y-113952187D01*
X160494357Y-114199994D01*
X160494357Y-114200005D01*
X160514890Y-114447812D01*
X160514892Y-114447824D01*
X160575936Y-114688881D01*
X160675826Y-114916606D01*
X160811833Y-115124782D01*
X160811836Y-115124785D01*
X160980256Y-115307738D01*
X161063008Y-115372147D01*
X161103821Y-115428857D01*
X161107496Y-115498630D01*
X161072864Y-115559313D01*
X161063014Y-115567848D01*
X161018564Y-115602446D01*
X160980257Y-115632261D01*
X160811833Y-115815217D01*
X160675826Y-116023393D01*
X160575936Y-116251118D01*
X160514892Y-116492175D01*
X160514890Y-116492187D01*
X160494357Y-116739994D01*
X160494357Y-116740005D01*
X160514890Y-116987812D01*
X160514892Y-116987824D01*
X160575936Y-117228881D01*
X160675826Y-117456606D01*
X160811833Y-117664782D01*
X160811836Y-117664785D01*
X160980256Y-117847738D01*
X161063008Y-117912147D01*
X161103821Y-117968857D01*
X161107496Y-118038630D01*
X161072864Y-118099313D01*
X161063014Y-118107848D01*
X161004400Y-118153469D01*
X160980257Y-118172261D01*
X160811833Y-118355217D01*
X160675826Y-118563393D01*
X160575936Y-118791118D01*
X160514892Y-119032175D01*
X160514890Y-119032187D01*
X160494357Y-119279994D01*
X160494357Y-119280005D01*
X160514890Y-119527812D01*
X160514892Y-119527824D01*
X160575936Y-119768881D01*
X160675826Y-119996606D01*
X160811833Y-120204782D01*
X160811836Y-120204785D01*
X160980256Y-120387738D01*
X161063008Y-120452147D01*
X161103821Y-120508857D01*
X161107496Y-120578630D01*
X161072864Y-120639313D01*
X161063014Y-120647848D01*
X160980256Y-120712262D01*
X160896046Y-120803738D01*
X160811833Y-120895217D01*
X160675826Y-121103393D01*
X160575936Y-121331118D01*
X160514892Y-121572175D01*
X160514890Y-121572187D01*
X160494357Y-121819994D01*
X160494357Y-121820005D01*
X160514890Y-122067812D01*
X160514892Y-122067824D01*
X160575936Y-122308881D01*
X160675826Y-122536606D01*
X160811833Y-122744782D01*
X160811836Y-122744785D01*
X160980256Y-122927738D01*
X161063008Y-122992147D01*
X161103821Y-123048857D01*
X161107496Y-123118630D01*
X161072864Y-123179313D01*
X161063014Y-123187848D01*
X161039429Y-123206206D01*
X160980257Y-123252261D01*
X160811833Y-123435217D01*
X160675826Y-123643393D01*
X160575936Y-123871118D01*
X160514892Y-124112175D01*
X160514890Y-124112187D01*
X160494357Y-124359994D01*
X160494357Y-124360005D01*
X160514890Y-124607812D01*
X160514892Y-124607824D01*
X160575936Y-124848881D01*
X160675826Y-125076606D01*
X160811833Y-125284782D01*
X160811836Y-125284785D01*
X160980256Y-125467738D01*
X161063008Y-125532147D01*
X161103821Y-125588857D01*
X161107496Y-125658630D01*
X161072864Y-125719313D01*
X161063014Y-125727848D01*
X161004400Y-125773469D01*
X160980257Y-125792261D01*
X160811833Y-125975217D01*
X160675826Y-126183393D01*
X160575936Y-126411118D01*
X160514892Y-126652175D01*
X160514890Y-126652187D01*
X160494357Y-126899994D01*
X160494357Y-126900005D01*
X160514890Y-127147812D01*
X160514892Y-127147824D01*
X160575936Y-127388881D01*
X160675826Y-127616606D01*
X160811833Y-127824782D01*
X160840084Y-127855471D01*
X160980256Y-128007738D01*
X161176491Y-128160474D01*
X161395190Y-128278828D01*
X161462710Y-128302007D01*
X161568188Y-128338219D01*
X161625203Y-128378605D01*
X161651334Y-128443404D01*
X161638282Y-128512044D01*
X161590194Y-128562732D01*
X161527925Y-128579500D01*
X161415258Y-128579500D01*
X161199474Y-128607910D01*
X161187762Y-128609452D01*
X161094076Y-128634554D01*
X160966112Y-128668842D01*
X160754123Y-128756650D01*
X160754109Y-128756657D01*
X160555382Y-128871392D01*
X160373338Y-129011081D01*
X160211081Y-129173338D01*
X160071392Y-129355382D01*
X159956657Y-129554109D01*
X159956650Y-129554123D01*
X159868842Y-129766112D01*
X159865676Y-129777928D01*
X159815342Y-129965782D01*
X159809453Y-129987759D01*
X159809451Y-129987770D01*
X159779500Y-130215258D01*
X159779500Y-130444741D01*
X159802105Y-130616436D01*
X159809452Y-130672238D01*
X159809453Y-130672240D01*
X159868842Y-130893887D01*
X159956650Y-131105876D01*
X159956657Y-131105890D01*
X160071392Y-131304617D01*
X160211081Y-131486661D01*
X160211089Y-131486670D01*
X160373330Y-131648911D01*
X160373338Y-131648918D01*
X160555382Y-131788607D01*
X160555385Y-131788608D01*
X160555388Y-131788611D01*
X160754112Y-131903344D01*
X160754117Y-131903346D01*
X160754123Y-131903349D01*
X160779579Y-131913893D01*
X160966113Y-131991158D01*
X161187762Y-132050548D01*
X161415266Y-132080500D01*
X161415273Y-132080500D01*
X161644727Y-132080500D01*
X161644734Y-132080500D01*
X161872238Y-132050548D01*
X162093887Y-131991158D01*
X162305888Y-131903344D01*
X162504612Y-131788611D01*
X162686661Y-131648919D01*
X162686665Y-131648914D01*
X162686670Y-131648911D01*
X162848911Y-131486670D01*
X162848914Y-131486665D01*
X162848919Y-131486661D01*
X162988611Y-131304612D01*
X163103344Y-131105888D01*
X163191158Y-130893887D01*
X163250548Y-130672238D01*
X163280500Y-130444734D01*
X163280500Y-130215266D01*
X163250548Y-129987762D01*
X163191158Y-129766113D01*
X163141190Y-129645480D01*
X163103349Y-129554123D01*
X163103346Y-129554117D01*
X163103344Y-129554112D01*
X162988611Y-129355388D01*
X162988608Y-129355385D01*
X162988607Y-129355382D01*
X162848918Y-129173338D01*
X162848911Y-129173330D01*
X162686670Y-129011089D01*
X162686661Y-129011081D01*
X162504617Y-128871392D01*
X162305890Y-128756657D01*
X162305876Y-128756650D01*
X162093887Y-128668842D01*
X162002197Y-128644274D01*
X161942538Y-128607910D01*
X161912009Y-128545063D01*
X161920304Y-128475688D01*
X161964789Y-128421810D01*
X162031341Y-128400535D01*
X162034292Y-128400500D01*
X162124335Y-128400500D01*
X162369614Y-128359571D01*
X162604810Y-128278828D01*
X162823509Y-128160474D01*
X163019744Y-128007738D01*
X163188164Y-127824785D01*
X163324173Y-127616607D01*
X163424063Y-127388881D01*
X163485108Y-127147821D01*
X163485109Y-127147812D01*
X163505643Y-126900005D01*
X163505643Y-126899994D01*
X163485109Y-126652187D01*
X163485107Y-126652175D01*
X163424063Y-126411118D01*
X163324173Y-126183393D01*
X163188166Y-125975217D01*
X163151514Y-125935403D01*
X163019744Y-125792262D01*
X162936991Y-125727852D01*
X162896179Y-125671143D01*
X162892504Y-125601370D01*
X162927136Y-125540687D01*
X162936985Y-125532151D01*
X163019744Y-125467738D01*
X163188164Y-125284785D01*
X163324173Y-125076607D01*
X163424063Y-124848881D01*
X163485108Y-124607821D01*
X163491891Y-124525965D01*
X163505643Y-124360005D01*
X163505643Y-124359994D01*
X163485109Y-124112187D01*
X163485107Y-124112175D01*
X163424063Y-123871118D01*
X163324173Y-123643393D01*
X163188166Y-123435217D01*
X163136543Y-123379140D01*
X163019744Y-123252262D01*
X162936991Y-123187852D01*
X162896179Y-123131143D01*
X162892504Y-123061370D01*
X162927136Y-123000687D01*
X162936985Y-122992151D01*
X163019744Y-122927738D01*
X163188164Y-122744785D01*
X163324173Y-122536607D01*
X163424063Y-122308881D01*
X163485108Y-122067821D01*
X163505643Y-121820000D01*
X163485108Y-121572179D01*
X163424063Y-121331119D01*
X163345255Y-121151456D01*
X163324173Y-121103393D01*
X163188166Y-120895217D01*
X163167860Y-120873159D01*
X163019744Y-120712262D01*
X162936991Y-120647852D01*
X162896179Y-120591143D01*
X162892504Y-120521370D01*
X162927136Y-120460687D01*
X162936985Y-120452151D01*
X163019744Y-120387738D01*
X163188164Y-120204785D01*
X163324173Y-119996607D01*
X163424063Y-119768881D01*
X163485108Y-119527821D01*
X163485109Y-119527812D01*
X163505643Y-119280005D01*
X163505643Y-119279994D01*
X163485109Y-119032187D01*
X163485107Y-119032175D01*
X163424063Y-118791118D01*
X163324173Y-118563393D01*
X163188166Y-118355217D01*
X163166557Y-118331744D01*
X163019744Y-118172262D01*
X162936991Y-118107852D01*
X162896179Y-118051143D01*
X162892504Y-117981370D01*
X162927136Y-117920687D01*
X162936985Y-117912151D01*
X163019744Y-117847738D01*
X163188164Y-117664785D01*
X163324173Y-117456607D01*
X163424063Y-117228881D01*
X163485108Y-116987821D01*
X163488005Y-116952864D01*
X163505643Y-116740005D01*
X163505643Y-116739994D01*
X163485109Y-116492187D01*
X163485107Y-116492175D01*
X163424063Y-116251118D01*
X163324173Y-116023393D01*
X163188166Y-115815217D01*
X163134075Y-115756459D01*
X163019744Y-115632262D01*
X162936991Y-115567852D01*
X162896179Y-115511143D01*
X162892504Y-115441370D01*
X162927136Y-115380687D01*
X162936985Y-115372151D01*
X163019744Y-115307738D01*
X163188164Y-115124785D01*
X163324173Y-114916607D01*
X163424063Y-114688881D01*
X163485108Y-114447821D01*
X163485109Y-114447812D01*
X163505643Y-114200004D01*
X163505643Y-114199995D01*
X163503447Y-114173498D01*
X163517527Y-114105062D01*
X163539339Y-114075579D01*
X167119968Y-110494950D01*
X167181289Y-110461467D01*
X167250981Y-110466451D01*
X167306914Y-110508323D01*
X167331331Y-110573787D01*
X167329266Y-110606816D01*
X167327965Y-110613359D01*
X167327963Y-110613368D01*
X167299500Y-110756456D01*
X167299500Y-133389218D01*
X167279815Y-133456257D01*
X167263181Y-133476899D01*
X165921899Y-134818181D01*
X165860576Y-134851666D01*
X165834218Y-134854500D01*
X165513392Y-134854500D01*
X165446353Y-134834815D01*
X165400598Y-134782011D01*
X165390654Y-134712853D01*
X165419679Y-134649297D01*
X165434725Y-134634648D01*
X165437776Y-134632142D01*
X165437782Y-134632139D01*
X165577139Y-134492782D01*
X165577139Y-134492780D01*
X165587347Y-134482573D01*
X165587348Y-134482570D01*
X166577140Y-133492781D01*
X166686632Y-133328914D01*
X166762052Y-133146835D01*
X166800501Y-132953540D01*
X166800501Y-132756459D01*
X166800501Y-132751349D01*
X166800500Y-132751323D01*
X166800500Y-115756456D01*
X166762052Y-115563170D01*
X166762051Y-115563169D01*
X166762051Y-115563165D01*
X166762049Y-115563160D01*
X166686635Y-115381092D01*
X166686628Y-115381079D01*
X166577139Y-115217218D01*
X166577136Y-115217214D01*
X166437785Y-115077863D01*
X166437781Y-115077860D01*
X166273920Y-114968371D01*
X166273907Y-114968364D01*
X166091839Y-114892950D01*
X166091829Y-114892947D01*
X165898543Y-114854500D01*
X165898541Y-114854500D01*
X165701459Y-114854500D01*
X165701457Y-114854500D01*
X165508170Y-114892947D01*
X165508160Y-114892950D01*
X165326092Y-114968364D01*
X165326079Y-114968371D01*
X165162218Y-115077860D01*
X165162214Y-115077863D01*
X165022863Y-115217214D01*
X165022860Y-115217218D01*
X164913371Y-115381079D01*
X164913364Y-115381092D01*
X164837950Y-115563160D01*
X164837947Y-115563170D01*
X164799500Y-115756456D01*
X164799500Y-132389217D01*
X164779815Y-132456256D01*
X164763181Y-132476898D01*
X164421899Y-132818181D01*
X164360576Y-132851666D01*
X164334218Y-132854500D01*
X136765782Y-132854500D01*
X136698743Y-132834815D01*
X136678101Y-132818181D01*
X135036819Y-131176899D01*
X135003334Y-131115576D01*
X135000500Y-131089218D01*
X135000500Y-129965782D01*
X135020185Y-129898743D01*
X135036819Y-129878101D01*
X135108491Y-129806429D01*
X135169814Y-129772944D01*
X135239506Y-129777928D01*
X135295439Y-129819800D01*
X135319856Y-129885264D01*
X135315947Y-129926200D01*
X135299453Y-129987759D01*
X135299451Y-129987770D01*
X135269500Y-130215258D01*
X135269500Y-130444741D01*
X135292105Y-130616436D01*
X135299452Y-130672238D01*
X135299453Y-130672240D01*
X135358842Y-130893887D01*
X135446650Y-131105876D01*
X135446657Y-131105890D01*
X135561392Y-131304617D01*
X135701081Y-131486661D01*
X135701089Y-131486670D01*
X135863330Y-131648911D01*
X135863338Y-131648918D01*
X136045382Y-131788607D01*
X136045385Y-131788608D01*
X136045388Y-131788611D01*
X136244112Y-131903344D01*
X136244117Y-131903346D01*
X136244123Y-131903349D01*
X136269579Y-131913893D01*
X136456113Y-131991158D01*
X136677762Y-132050548D01*
X136905266Y-132080500D01*
X136905273Y-132080500D01*
X137134727Y-132080500D01*
X137134734Y-132080500D01*
X137362238Y-132050548D01*
X137583887Y-131991158D01*
X137795888Y-131903344D01*
X137994612Y-131788611D01*
X138176661Y-131648919D01*
X138176665Y-131648914D01*
X138176670Y-131648911D01*
X138338911Y-131486670D01*
X138338914Y-131486665D01*
X138338919Y-131486661D01*
X138478611Y-131304612D01*
X138593344Y-131105888D01*
X138681158Y-130893887D01*
X138740548Y-130672238D01*
X138770500Y-130444734D01*
X138770500Y-130215266D01*
X138740548Y-129987762D01*
X138681158Y-129766113D01*
X138631190Y-129645480D01*
X138593349Y-129554123D01*
X138593346Y-129554117D01*
X138593344Y-129554112D01*
X138478611Y-129355388D01*
X138478608Y-129355385D01*
X138478607Y-129355382D01*
X138338918Y-129173338D01*
X138338911Y-129173330D01*
X138176670Y-129011089D01*
X138176661Y-129011081D01*
X137994617Y-128871392D01*
X137795890Y-128756657D01*
X137795876Y-128756650D01*
X137583887Y-128668842D01*
X137362238Y-128609452D01*
X137324215Y-128604446D01*
X137134741Y-128579500D01*
X137134734Y-128579500D01*
X137072075Y-128579500D01*
X137005036Y-128559815D01*
X136959281Y-128507011D01*
X136949337Y-128437853D01*
X136978362Y-128374297D01*
X137031812Y-128338219D01*
X137110976Y-128311040D01*
X137204810Y-128278828D01*
X137423509Y-128160474D01*
X137619744Y-128007738D01*
X137788164Y-127824785D01*
X137924173Y-127616607D01*
X138024063Y-127388881D01*
X138085108Y-127147821D01*
X138085109Y-127147812D01*
X138105643Y-126900005D01*
X138105643Y-126899994D01*
X138085109Y-126652187D01*
X138085107Y-126652175D01*
X138024063Y-126411118D01*
X137924173Y-126183393D01*
X137788166Y-125975217D01*
X137751514Y-125935403D01*
X137663690Y-125840000D01*
X140390000Y-125840000D01*
X140390000Y-132330000D01*
X158080000Y-132330000D01*
X158080000Y-125840000D01*
X140390000Y-125840000D01*
X137663690Y-125840000D01*
X137619744Y-125792262D01*
X137536991Y-125727852D01*
X137496179Y-125671143D01*
X137492504Y-125601370D01*
X137527136Y-125540687D01*
X137536985Y-125532151D01*
X137619744Y-125467738D01*
X137788164Y-125284785D01*
X137924173Y-125076607D01*
X138024063Y-124848881D01*
X138085108Y-124607821D01*
X138091891Y-124525965D01*
X138105643Y-124360005D01*
X138105643Y-124359994D01*
X138085109Y-124112187D01*
X138085107Y-124112175D01*
X138024063Y-123871118D01*
X137924173Y-123643393D01*
X137788166Y-123435217D01*
X137736543Y-123379140D01*
X137619744Y-123252262D01*
X137536991Y-123187852D01*
X137496179Y-123131143D01*
X137492504Y-123061370D01*
X137527136Y-123000687D01*
X137536985Y-122992151D01*
X137619744Y-122927738D01*
X137788164Y-122744785D01*
X137924173Y-122536607D01*
X138024063Y-122308881D01*
X138085108Y-122067821D01*
X138105643Y-121820000D01*
X138085108Y-121572179D01*
X138024063Y-121331119D01*
X137945255Y-121151456D01*
X137924173Y-121103393D01*
X137788166Y-120895217D01*
X137767860Y-120873159D01*
X137619744Y-120712262D01*
X137536991Y-120647852D01*
X137496179Y-120591143D01*
X137492504Y-120521370D01*
X137527136Y-120460687D01*
X137536985Y-120452151D01*
X137619744Y-120387738D01*
X137788164Y-120204785D01*
X137924173Y-119996607D01*
X138024063Y-119768881D01*
X138085108Y-119527821D01*
X138085109Y-119527812D01*
X138105643Y-119280005D01*
X138105643Y-119279994D01*
X138085109Y-119032187D01*
X138085107Y-119032175D01*
X138024063Y-118791118D01*
X137924173Y-118563393D01*
X137788166Y-118355217D01*
X137766557Y-118331744D01*
X137619744Y-118172262D01*
X137536991Y-118107852D01*
X137496179Y-118051143D01*
X137492504Y-117981370D01*
X137527136Y-117920687D01*
X137536985Y-117912151D01*
X137619744Y-117847738D01*
X137788164Y-117664785D01*
X137924173Y-117456607D01*
X138024063Y-117228881D01*
X138085108Y-116987821D01*
X138088005Y-116952864D01*
X138105643Y-116740005D01*
X138105643Y-116739994D01*
X138085109Y-116492187D01*
X138085107Y-116492175D01*
X138024063Y-116251118D01*
X137924173Y-116023393D01*
X137788166Y-115815217D01*
X137734075Y-115756459D01*
X137619744Y-115632262D01*
X137536991Y-115567852D01*
X137496179Y-115511143D01*
X137492504Y-115441370D01*
X137527136Y-115380687D01*
X137536985Y-115372151D01*
X137619744Y-115307738D01*
X137788164Y-115124785D01*
X137924173Y-114916607D01*
X138024063Y-114688881D01*
X138085108Y-114447821D01*
X138085109Y-114447812D01*
X138105643Y-114200005D01*
X138105643Y-114199994D01*
X138085109Y-113952187D01*
X138085107Y-113952175D01*
X138024063Y-113711118D01*
X137924173Y-113483393D01*
X137788166Y-113275217D01*
X137681625Y-113159483D01*
X137619744Y-113092262D01*
X137536991Y-113027852D01*
X137496179Y-112971143D01*
X137492504Y-112901370D01*
X137527136Y-112840687D01*
X137536985Y-112832151D01*
X137619744Y-112767738D01*
X137788164Y-112584785D01*
X137924173Y-112376607D01*
X138024063Y-112148881D01*
X138085108Y-111907821D01*
X138085109Y-111907812D01*
X138105643Y-111660005D01*
X138105643Y-111659994D01*
X138085109Y-111412187D01*
X138085107Y-111412175D01*
X138024063Y-111171118D01*
X137924173Y-110943393D01*
X137788166Y-110735217D01*
X137690015Y-110628597D01*
X137619744Y-110552262D01*
X137536991Y-110487852D01*
X137496179Y-110431143D01*
X137492504Y-110361370D01*
X137527136Y-110300687D01*
X137536985Y-110292151D01*
X137619744Y-110227738D01*
X137788164Y-110044785D01*
X137924173Y-109836607D01*
X138024063Y-109608881D01*
X138085108Y-109367821D01*
X138087841Y-109334836D01*
X138105643Y-109120005D01*
X138105643Y-109119994D01*
X138085109Y-108872187D01*
X138085107Y-108872175D01*
X138024063Y-108631118D01*
X137924173Y-108403393D01*
X137788166Y-108195217D01*
X137690015Y-108088597D01*
X137619744Y-108012262D01*
X137536991Y-107947852D01*
X137496179Y-107891143D01*
X137492504Y-107821370D01*
X137527136Y-107760687D01*
X137536985Y-107752151D01*
X137619744Y-107687738D01*
X137788164Y-107504785D01*
X137924173Y-107296607D01*
X138024063Y-107068881D01*
X138085108Y-106827821D01*
X138085109Y-106827812D01*
X138105643Y-106580005D01*
X138105643Y-106579994D01*
X138085109Y-106332187D01*
X138085107Y-106332175D01*
X138024063Y-106091118D01*
X137924173Y-105863393D01*
X137788166Y-105655217D01*
X137681625Y-105539483D01*
X137619744Y-105472262D01*
X137536991Y-105407852D01*
X137496179Y-105351143D01*
X137492504Y-105281370D01*
X137527136Y-105220687D01*
X137536985Y-105212151D01*
X137619744Y-105147738D01*
X137788164Y-104964785D01*
X137924173Y-104756607D01*
X138024063Y-104528881D01*
X138085108Y-104287821D01*
X138088935Y-104241635D01*
X138105643Y-104040005D01*
X138105643Y-104039994D01*
X138085109Y-103792187D01*
X138085107Y-103792175D01*
X138024063Y-103551118D01*
X137924173Y-103323393D01*
X137788166Y-103115217D01*
X137718463Y-103039500D01*
X137619744Y-102932262D01*
X137536991Y-102867852D01*
X137496179Y-102811143D01*
X137492504Y-102741370D01*
X137527136Y-102680687D01*
X137536985Y-102672151D01*
X137619744Y-102607738D01*
X137788164Y-102424785D01*
X137924173Y-102216607D01*
X138024063Y-101988881D01*
X138085108Y-101747821D01*
X138105643Y-101500000D01*
X138095542Y-101378101D01*
X138085109Y-101252187D01*
X138085107Y-101252175D01*
X138024063Y-101011118D01*
X137924173Y-100783393D01*
X137788166Y-100575217D01*
X137742943Y-100526092D01*
X137619744Y-100392262D01*
X137536991Y-100327852D01*
X137496179Y-100271143D01*
X137492504Y-100201370D01*
X137527136Y-100140687D01*
X137536985Y-100132151D01*
X137619744Y-100067738D01*
X137788164Y-99884785D01*
X137924173Y-99676607D01*
X138024063Y-99448881D01*
X138085108Y-99207821D01*
X138105643Y-98960000D01*
X138097540Y-98862215D01*
X138085109Y-98712187D01*
X138085107Y-98712175D01*
X138024063Y-98471118D01*
X137924173Y-98243393D01*
X137788166Y-98035217D01*
X137766557Y-98011744D01*
X137619744Y-97852262D01*
X137536991Y-97787852D01*
X137496179Y-97731143D01*
X137492504Y-97661370D01*
X137527136Y-97600687D01*
X137536985Y-97592151D01*
X137619744Y-97527738D01*
X137788164Y-97344785D01*
X137924173Y-97136607D01*
X138024063Y-96908881D01*
X138085108Y-96667821D01*
X138105643Y-96420000D01*
X138085108Y-96172179D01*
X138085107Y-96172175D01*
X138024063Y-95931118D01*
X137924173Y-95703393D01*
X137788166Y-95495217D01*
X137766557Y-95471744D01*
X137619744Y-95312262D01*
X137423509Y-95159526D01*
X137423507Y-95159525D01*
X137423506Y-95159524D01*
X137204811Y-95041172D01*
X137204802Y-95041169D01*
X136969616Y-94960429D01*
X136724335Y-94919500D01*
X136475665Y-94919500D01*
X136230383Y-94960429D01*
X135995197Y-95041169D01*
X135995188Y-95041172D01*
X135776493Y-95159524D01*
X135580257Y-95312261D01*
X135411833Y-95495217D01*
X135275826Y-95703393D01*
X135175936Y-95931118D01*
X135114892Y-96172175D01*
X135114890Y-96172187D01*
X135094357Y-96419994D01*
X135094357Y-96420005D01*
X135114890Y-96667812D01*
X135114892Y-96667824D01*
X135175936Y-96908881D01*
X135275826Y-97136606D01*
X135411833Y-97344782D01*
X135411836Y-97344785D01*
X135580256Y-97527738D01*
X135663008Y-97592147D01*
X135703821Y-97648857D01*
X135707496Y-97718630D01*
X135672864Y-97779313D01*
X135663014Y-97787848D01*
X135619268Y-97821898D01*
X135580257Y-97852261D01*
X135411833Y-98035217D01*
X135275826Y-98243393D01*
X135175936Y-98471118D01*
X135114892Y-98712175D01*
X135114890Y-98712187D01*
X135094357Y-98959994D01*
X135094357Y-98960005D01*
X135114890Y-99207812D01*
X135114892Y-99207824D01*
X135175936Y-99448881D01*
X135275826Y-99676606D01*
X135411833Y-99884782D01*
X135411836Y-99884785D01*
X135580256Y-100067738D01*
X135663008Y-100132147D01*
X135703821Y-100188857D01*
X135707496Y-100258630D01*
X135672864Y-100319313D01*
X135663014Y-100327848D01*
X135618855Y-100362219D01*
X135580257Y-100392261D01*
X135411833Y-100575217D01*
X135275826Y-100783393D01*
X135175936Y-101011118D01*
X135114892Y-101252175D01*
X135114890Y-101252187D01*
X135094357Y-101499994D01*
X135094357Y-101500005D01*
X135114890Y-101747812D01*
X135114892Y-101747824D01*
X135175936Y-101988881D01*
X135275826Y-102216606D01*
X135411833Y-102424782D01*
X135411836Y-102424785D01*
X135580256Y-102607738D01*
X135663008Y-102672147D01*
X135703821Y-102728857D01*
X135707496Y-102798630D01*
X135672864Y-102859313D01*
X135663014Y-102867848D01*
X135629182Y-102894180D01*
X135580255Y-102932262D01*
X135580252Y-102932265D01*
X135518374Y-102999483D01*
X135458487Y-103035474D01*
X135427145Y-103039500D01*
X134219675Y-103039500D01*
X134219655Y-103039499D01*
X134213541Y-103039499D01*
X134016460Y-103039499D01*
X134016457Y-103039499D01*
X133823172Y-103077946D01*
X133823164Y-103077948D01*
X133641088Y-103153366D01*
X133641079Y-103153371D01*
X133477219Y-103262859D01*
X133477215Y-103262862D01*
X130186581Y-106553498D01*
X129162220Y-107577859D01*
X129162218Y-107577861D01*
X129123260Y-107616819D01*
X129022859Y-107717219D01*
X128913371Y-107881079D01*
X128913364Y-107881092D01*
X128885712Y-107947854D01*
X128875985Y-107971337D01*
X128864646Y-107998711D01*
X128853308Y-108026085D01*
X128837950Y-108063161D01*
X128837947Y-108063169D01*
X128799500Y-108256456D01*
X128799500Y-120209217D01*
X128779815Y-120276256D01*
X128763181Y-120296898D01*
X126267304Y-122792774D01*
X126205981Y-122826259D01*
X126136289Y-122821275D01*
X126080356Y-122779403D01*
X126059848Y-122737185D01*
X126048906Y-122696346D01*
X126048904Y-122696342D01*
X126048903Y-122696337D01*
X125949035Y-122482171D01*
X125813495Y-122288599D01*
X125813494Y-122288597D01*
X125811819Y-122286922D01*
X125811315Y-122286000D01*
X125810014Y-122284449D01*
X125810325Y-122284187D01*
X125778334Y-122225599D01*
X125775500Y-122199241D01*
X125775500Y-93591434D01*
X125777883Y-93567242D01*
X125800500Y-93453543D01*
X125800500Y-93256457D01*
X125800499Y-93256455D01*
X125793817Y-93222861D01*
X125762051Y-93063165D01*
X125686631Y-92881086D01*
X125686630Y-92881085D01*
X125686627Y-92881079D01*
X125577139Y-92717219D01*
X125577136Y-92717215D01*
X125437784Y-92577863D01*
X125437780Y-92577860D01*
X125422428Y-92567602D01*
X125377623Y-92513989D01*
X125368916Y-92444664D01*
X125399071Y-92381637D01*
X125458514Y-92344918D01*
X125491319Y-92340500D01*
X134983023Y-92340500D01*
X135050062Y-92360185D01*
X135095817Y-92412989D01*
X135103266Y-92440134D01*
X135104124Y-92439932D01*
X135105907Y-92447479D01*
X135156202Y-92582328D01*
X135156206Y-92582335D01*
X135242452Y-92697544D01*
X135242455Y-92697547D01*
X135357664Y-92783793D01*
X135357671Y-92783797D01*
X135492517Y-92834091D01*
X135492516Y-92834091D01*
X135499444Y-92834835D01*
X135552127Y-92840500D01*
X137647872Y-92840499D01*
X137707483Y-92834091D01*
X137842331Y-92783796D01*
X137957546Y-92697546D01*
X138043796Y-92582331D01*
X138094091Y-92447483D01*
X138100500Y-92387873D01*
X138100500Y-91340005D01*
X160494357Y-91340005D01*
X160514890Y-91587812D01*
X160514892Y-91587824D01*
X160575936Y-91828881D01*
X160675826Y-92056606D01*
X160811833Y-92264782D01*
X160811836Y-92264785D01*
X160980256Y-92447738D01*
X161176491Y-92600474D01*
X161395190Y-92718828D01*
X161630386Y-92799571D01*
X161875665Y-92840500D01*
X162124335Y-92840500D01*
X162369614Y-92799571D01*
X162604810Y-92718828D01*
X162823509Y-92600474D01*
X163019744Y-92447738D01*
X163188164Y-92264785D01*
X163324173Y-92056607D01*
X163424063Y-91828881D01*
X163485108Y-91587821D01*
X163505643Y-91340000D01*
X163498720Y-91256456D01*
X163485109Y-91092187D01*
X163485107Y-91092175D01*
X163424063Y-90851118D01*
X163324173Y-90623393D01*
X163188166Y-90415217D01*
X163100342Y-90319815D01*
X163019744Y-90232262D01*
X162823509Y-90079526D01*
X162823507Y-90079525D01*
X162823506Y-90079524D01*
X162604811Y-89961172D01*
X162604802Y-89961169D01*
X162369616Y-89880429D01*
X162124335Y-89839500D01*
X161875665Y-89839500D01*
X161630383Y-89880429D01*
X161395197Y-89961169D01*
X161395188Y-89961172D01*
X161176493Y-90079524D01*
X160980257Y-90232261D01*
X160811833Y-90415217D01*
X160675826Y-90623393D01*
X160575936Y-90851118D01*
X160514892Y-91092175D01*
X160514890Y-91092187D01*
X160494357Y-91339994D01*
X160494357Y-91340005D01*
X138100500Y-91340005D01*
X138100499Y-90292128D01*
X138094091Y-90232517D01*
X138089341Y-90219782D01*
X138043797Y-90097671D01*
X138043793Y-90097664D01*
X137957547Y-89982455D01*
X137957544Y-89982452D01*
X137842335Y-89896206D01*
X137842328Y-89896202D01*
X137707482Y-89845908D01*
X137707483Y-89845908D01*
X137647883Y-89839501D01*
X137647881Y-89839500D01*
X137647873Y-89839500D01*
X137647864Y-89839500D01*
X135552129Y-89839500D01*
X135552123Y-89839501D01*
X135492516Y-89845908D01*
X135357671Y-89896202D01*
X135357664Y-89896206D01*
X135242455Y-89982452D01*
X135242452Y-89982455D01*
X135156206Y-90097664D01*
X135156202Y-90097671D01*
X135105908Y-90232517D01*
X135104126Y-90240062D01*
X135101853Y-90239525D01*
X135079571Y-90293312D01*
X135022177Y-90333157D01*
X134983024Y-90339500D01*
X122750782Y-90339500D01*
X122683743Y-90319815D01*
X122663101Y-90303181D01*
X120761819Y-88401899D01*
X120728334Y-88340576D01*
X120725500Y-88314218D01*
X120725500Y-84294141D01*
X120745185Y-84227102D01*
X120797989Y-84181347D01*
X120806149Y-84177966D01*
X120817331Y-84173796D01*
X120932546Y-84087546D01*
X121018796Y-83972331D01*
X121067810Y-83840916D01*
X121109681Y-83784984D01*
X121175145Y-83760566D01*
X121243418Y-83775417D01*
X121271673Y-83796569D01*
X121393599Y-83918495D01*
X121484983Y-83982483D01*
X121587165Y-84054032D01*
X121587167Y-84054033D01*
X121587170Y-84054035D01*
X121801337Y-84153903D01*
X121801343Y-84153904D01*
X121801344Y-84153905D01*
X121856285Y-84168626D01*
X122029592Y-84215063D01*
X122217918Y-84231539D01*
X122264999Y-84235659D01*
X122265000Y-84235659D01*
X122265001Y-84235659D01*
X122304234Y-84232226D01*
X122500408Y-84215063D01*
X122728663Y-84153903D01*
X122942830Y-84054035D01*
X123136401Y-83918495D01*
X123303495Y-83751401D01*
X123439035Y-83557830D01*
X123468454Y-83494741D01*
X135269500Y-83494741D01*
X135277807Y-83557834D01*
X135299452Y-83722238D01*
X135347298Y-83900805D01*
X135358842Y-83943887D01*
X135446650Y-84155876D01*
X135446657Y-84155890D01*
X135487771Y-84227102D01*
X135544030Y-84324546D01*
X135561392Y-84354617D01*
X135701081Y-84536661D01*
X135701089Y-84536670D01*
X135863330Y-84698911D01*
X135863338Y-84698918D01*
X136045382Y-84838607D01*
X136045385Y-84838608D01*
X136045388Y-84838611D01*
X136244112Y-84953344D01*
X136244117Y-84953346D01*
X136244123Y-84953349D01*
X136335480Y-84991190D01*
X136456113Y-85041158D01*
X136677762Y-85100548D01*
X136905266Y-85130500D01*
X136905273Y-85130500D01*
X137134727Y-85130500D01*
X137134734Y-85130500D01*
X137362238Y-85100548D01*
X137583887Y-85041158D01*
X137795888Y-84953344D01*
X137994612Y-84838611D01*
X138176661Y-84698919D01*
X138176665Y-84698914D01*
X138176670Y-84698911D01*
X138338911Y-84536670D01*
X138338914Y-84536665D01*
X138338919Y-84536661D01*
X138478611Y-84354612D01*
X138593344Y-84155888D01*
X138681158Y-83943887D01*
X138740548Y-83722238D01*
X138770499Y-83494741D01*
X159779500Y-83494741D01*
X159787807Y-83557834D01*
X159809452Y-83722238D01*
X159857298Y-83900805D01*
X159868842Y-83943887D01*
X159956650Y-84155876D01*
X159956657Y-84155890D01*
X159997771Y-84227102D01*
X160054030Y-84324546D01*
X160071392Y-84354617D01*
X160211081Y-84536661D01*
X160211089Y-84536670D01*
X160373330Y-84698911D01*
X160373338Y-84698918D01*
X160555382Y-84838607D01*
X160555385Y-84838608D01*
X160555388Y-84838611D01*
X160754112Y-84953344D01*
X160754117Y-84953346D01*
X160754123Y-84953349D01*
X160845480Y-84991190D01*
X160966113Y-85041158D01*
X161187762Y-85100548D01*
X161415266Y-85130500D01*
X161415273Y-85130500D01*
X161644727Y-85130500D01*
X161644734Y-85130500D01*
X161872238Y-85100548D01*
X162093887Y-85041158D01*
X162305888Y-84953344D01*
X162504612Y-84838611D01*
X162686661Y-84698919D01*
X162686665Y-84698914D01*
X162686670Y-84698911D01*
X162848911Y-84536670D01*
X162848914Y-84536665D01*
X162848919Y-84536661D01*
X162988611Y-84354612D01*
X163103344Y-84155888D01*
X163191158Y-83943887D01*
X163250548Y-83722238D01*
X163280500Y-83494734D01*
X163280500Y-83265266D01*
X163250548Y-83037762D01*
X163191158Y-82816113D01*
X163120113Y-82644596D01*
X163103349Y-82604123D01*
X163103346Y-82604117D01*
X163103344Y-82604112D01*
X162988611Y-82405388D01*
X162988608Y-82405385D01*
X162988607Y-82405382D01*
X162848918Y-82223338D01*
X162848911Y-82223330D01*
X162686670Y-82061089D01*
X162686661Y-82061081D01*
X162504617Y-81921392D01*
X162500891Y-81919241D01*
X162305888Y-81806656D01*
X162305876Y-81806650D01*
X162093887Y-81718842D01*
X161872238Y-81659452D01*
X161834215Y-81654446D01*
X161644741Y-81629500D01*
X161644734Y-81629500D01*
X161415266Y-81629500D01*
X161415258Y-81629500D01*
X161198715Y-81658009D01*
X161187762Y-81659452D01*
X161123790Y-81676593D01*
X160966112Y-81718842D01*
X160754123Y-81806650D01*
X160754109Y-81806657D01*
X160555382Y-81921392D01*
X160373338Y-82061081D01*
X160211081Y-82223338D01*
X160071392Y-82405382D01*
X159956657Y-82604109D01*
X159956650Y-82604123D01*
X159868842Y-82816112D01*
X159809453Y-83037759D01*
X159809451Y-83037770D01*
X159779500Y-83265258D01*
X159779500Y-83494741D01*
X138770499Y-83494741D01*
X138770500Y-83494734D01*
X138770500Y-83265266D01*
X138740548Y-83037762D01*
X138681158Y-82816113D01*
X138610113Y-82644596D01*
X138593349Y-82604123D01*
X138593346Y-82604117D01*
X138593344Y-82604112D01*
X138478611Y-82405388D01*
X138478608Y-82405385D01*
X138478607Y-82405382D01*
X138338918Y-82223338D01*
X138338911Y-82223330D01*
X138176670Y-82061089D01*
X138176661Y-82061081D01*
X137994617Y-81921392D01*
X137990891Y-81919241D01*
X137795888Y-81806656D01*
X137795876Y-81806650D01*
X137583887Y-81718842D01*
X137362238Y-81659452D01*
X137324215Y-81654446D01*
X137134741Y-81629500D01*
X137134734Y-81629500D01*
X136905266Y-81629500D01*
X136905258Y-81629500D01*
X136688715Y-81658009D01*
X136677762Y-81659452D01*
X136613790Y-81676593D01*
X136456112Y-81718842D01*
X136244123Y-81806650D01*
X136244109Y-81806657D01*
X136045382Y-81921392D01*
X135863338Y-82061081D01*
X135701081Y-82223338D01*
X135561392Y-82405382D01*
X135446657Y-82604109D01*
X135446650Y-82604123D01*
X135358842Y-82816112D01*
X135299453Y-83037759D01*
X135299451Y-83037770D01*
X135269500Y-83265258D01*
X135269500Y-83494741D01*
X123468454Y-83494741D01*
X123538903Y-83343663D01*
X123600063Y-83115408D01*
X123620659Y-82880000D01*
X123600063Y-82644592D01*
X123538903Y-82416337D01*
X123439035Y-82202171D01*
X123405024Y-82153597D01*
X123303494Y-82008597D01*
X123301819Y-82006922D01*
X123301315Y-82006000D01*
X123300014Y-82004449D01*
X123300325Y-82004187D01*
X123268334Y-81945599D01*
X123265500Y-81919241D01*
X123265500Y-80855782D01*
X123285185Y-80788743D01*
X123301819Y-80768101D01*
X124178101Y-79891819D01*
X124239424Y-79858334D01*
X124265782Y-79855500D01*
X164834218Y-79855500D01*
X164901257Y-79875185D01*
G37*
%TD.AperFunction*%
%TA.AperFunction,Conductor*%
G36*
X181999855Y-83691546D02*
G01*
X182016575Y-83710842D01*
X182146501Y-83896396D01*
X182146506Y-83896402D01*
X182148181Y-83898077D01*
X182148682Y-83898995D01*
X182149982Y-83900544D01*
X182149670Y-83900805D01*
X182181666Y-83959400D01*
X182184500Y-83985758D01*
X182184500Y-88849217D01*
X182164815Y-88916256D01*
X182148181Y-88936898D01*
X180766899Y-90318181D01*
X180705576Y-90351666D01*
X180679218Y-90354500D01*
X178201457Y-90354500D01*
X178008170Y-90392947D01*
X178008160Y-90392950D01*
X177826092Y-90468364D01*
X177826079Y-90468371D01*
X177662218Y-90577860D01*
X177662214Y-90577863D01*
X177522863Y-90717214D01*
X177522860Y-90717218D01*
X177413371Y-90881079D01*
X177413364Y-90881092D01*
X177337950Y-91063160D01*
X177337947Y-91063170D01*
X177299500Y-91256456D01*
X177299500Y-91256459D01*
X177299500Y-91453541D01*
X177299500Y-91453543D01*
X177299499Y-91453543D01*
X177337947Y-91646829D01*
X177337950Y-91646839D01*
X177413364Y-91828907D01*
X177413371Y-91828920D01*
X177522860Y-91992781D01*
X177522863Y-91992785D01*
X177547397Y-92017319D01*
X177580882Y-92078642D01*
X177575898Y-92148334D01*
X177547397Y-92192681D01*
X177522863Y-92217214D01*
X177522860Y-92217218D01*
X177413371Y-92381079D01*
X177413364Y-92381092D01*
X177337950Y-92563160D01*
X177337947Y-92563170D01*
X177299500Y-92756456D01*
X177299500Y-92953541D01*
X177337947Y-93146829D01*
X177337948Y-93146833D01*
X177337949Y-93146835D01*
X177337950Y-93146837D01*
X177413364Y-93328907D01*
X177413371Y-93328920D01*
X177522860Y-93492781D01*
X177522863Y-93492785D01*
X177662214Y-93632136D01*
X177662218Y-93632139D01*
X177826079Y-93741628D01*
X177826092Y-93741635D01*
X178008160Y-93817049D01*
X178008165Y-93817051D01*
X178008169Y-93817051D01*
X178008170Y-93817052D01*
X178201456Y-93855500D01*
X178201459Y-93855500D01*
X180701459Y-93855500D01*
X180800500Y-93855500D01*
X180867539Y-93875185D01*
X180913294Y-93927989D01*
X180924500Y-93979500D01*
X180924500Y-97734217D01*
X180904815Y-97801256D01*
X180888181Y-97821898D01*
X174196970Y-104513108D01*
X174135647Y-104546593D01*
X174120098Y-104548955D01*
X173994596Y-104559936D01*
X173994586Y-104559938D01*
X173766344Y-104621094D01*
X173766335Y-104621098D01*
X173552171Y-104720964D01*
X173552169Y-104720965D01*
X173358597Y-104856505D01*
X173191505Y-105023597D01*
X173055965Y-105217169D01*
X173055964Y-105217171D01*
X172956098Y-105431335D01*
X172956094Y-105431344D01*
X172894938Y-105659586D01*
X172894936Y-105659596D01*
X172874341Y-105894999D01*
X172874341Y-105895000D01*
X172894936Y-106130403D01*
X172894938Y-106130413D01*
X172956094Y-106358655D01*
X172956096Y-106358659D01*
X172956097Y-106358663D01*
X173015038Y-106485062D01*
X173055965Y-106572830D01*
X173055967Y-106572834D01*
X173191501Y-106766395D01*
X173191506Y-106766402D01*
X173358597Y-106933493D01*
X173358603Y-106933498D01*
X173544158Y-107063425D01*
X173587783Y-107118002D01*
X173594977Y-107187500D01*
X173563454Y-107249855D01*
X173544158Y-107266575D01*
X173358597Y-107396505D01*
X173356922Y-107398181D01*
X173356000Y-107398684D01*
X173354449Y-107399986D01*
X173354187Y-107399674D01*
X173295599Y-107431666D01*
X173269241Y-107434500D01*
X170621455Y-107434500D01*
X170524812Y-107453724D01*
X170428167Y-107472947D01*
X170428161Y-107472949D01*
X170374834Y-107495037D01*
X170374834Y-107495038D01*
X170329315Y-107513892D01*
X170246089Y-107548366D01*
X170246079Y-107548371D01*
X170082219Y-107657859D01*
X170022861Y-107717218D01*
X169942861Y-107797218D01*
X169942858Y-107797221D01*
X167980034Y-109760044D01*
X167918711Y-109793529D01*
X167849019Y-109788545D01*
X167793086Y-109746673D01*
X167768669Y-109681209D01*
X167770735Y-109648174D01*
X167800500Y-109498540D01*
X167800500Y-109301460D01*
X167800500Y-104068391D01*
X167820185Y-104001352D01*
X167872989Y-103955597D01*
X167942147Y-103945653D01*
X168005703Y-103974678D01*
X168020357Y-103989730D01*
X168022859Y-103992779D01*
X168022860Y-103992781D01*
X168022868Y-103992790D01*
X168162214Y-104132136D01*
X168162218Y-104132139D01*
X168326079Y-104241628D01*
X168326092Y-104241635D01*
X168437604Y-104287824D01*
X168508165Y-104317051D01*
X168508169Y-104317051D01*
X168508170Y-104317052D01*
X168701456Y-104355500D01*
X168701459Y-104355500D01*
X168898543Y-104355500D01*
X169028582Y-104329632D01*
X169091835Y-104317051D01*
X169273914Y-104241632D01*
X169437782Y-104132139D01*
X169577139Y-103992782D01*
X169686632Y-103828914D01*
X169762051Y-103646835D01*
X169781091Y-103551118D01*
X169800500Y-103453543D01*
X169800500Y-96827019D01*
X169820185Y-96759980D01*
X169836814Y-96739343D01*
X178742778Y-87833379D01*
X178742782Y-87833377D01*
X178882139Y-87694020D01*
X178991632Y-87530152D01*
X179067051Y-87348073D01*
X179105500Y-87154779D01*
X179105500Y-83985758D01*
X179125185Y-83918719D01*
X179141819Y-83898077D01*
X179143495Y-83896401D01*
X179273425Y-83710842D01*
X179328002Y-83667217D01*
X179397500Y-83660023D01*
X179459855Y-83691546D01*
X179476575Y-83710842D01*
X179606500Y-83896395D01*
X179606505Y-83896401D01*
X179773599Y-84063495D01*
X179870384Y-84131265D01*
X179967165Y-84199032D01*
X179967167Y-84199033D01*
X179967170Y-84199035D01*
X180181337Y-84298903D01*
X180409592Y-84360063D01*
X180597918Y-84376539D01*
X180644999Y-84380659D01*
X180645000Y-84380659D01*
X180645001Y-84380659D01*
X180684234Y-84377226D01*
X180880408Y-84360063D01*
X181108663Y-84298903D01*
X181322830Y-84199035D01*
X181516401Y-84063495D01*
X181683495Y-83896401D01*
X181813425Y-83710842D01*
X181868002Y-83667217D01*
X181937500Y-83660023D01*
X181999855Y-83691546D01*
G37*
%TD.AperFunction*%
%TA.AperFunction,Conductor*%
G36*
X192502211Y-50500578D02*
G01*
X192994924Y-50518176D01*
X193003717Y-50518804D01*
X193491755Y-50571274D01*
X193500471Y-50572527D01*
X193983520Y-50659679D01*
X193992128Y-50661552D01*
X194467713Y-50782938D01*
X194476177Y-50785423D01*
X194941866Y-50940419D01*
X194950160Y-50943512D01*
X195403602Y-51131335D01*
X195411653Y-51135012D01*
X195737022Y-51297879D01*
X195850551Y-51354708D01*
X195858287Y-51358931D01*
X196280432Y-51609401D01*
X196287842Y-51614164D01*
X196535063Y-51785813D01*
X196691001Y-51894083D01*
X196698087Y-51899387D01*
X196895443Y-52058426D01*
X197080257Y-52207358D01*
X197086940Y-52213149D01*
X197446152Y-52547588D01*
X197452411Y-52553847D01*
X197786850Y-52913059D01*
X197792647Y-52919749D01*
X198100612Y-53301912D01*
X198105916Y-53308998D01*
X198385827Y-53712145D01*
X198390602Y-53719574D01*
X198641062Y-54141703D01*
X198645294Y-54149453D01*
X198864987Y-54588346D01*
X198868664Y-54596397D01*
X199056487Y-55049839D01*
X199059580Y-55058133D01*
X199214571Y-55523807D01*
X199217065Y-55532300D01*
X199338442Y-56007851D01*
X199340324Y-56016500D01*
X199427468Y-56499505D01*
X199428728Y-56508267D01*
X199481193Y-56996264D01*
X199481824Y-57005093D01*
X199499421Y-57497788D01*
X199499500Y-57502214D01*
X199499500Y-142497785D01*
X199499421Y-142502211D01*
X199481824Y-142994906D01*
X199481193Y-143003735D01*
X199428728Y-143491732D01*
X199427468Y-143500494D01*
X199340324Y-143983499D01*
X199338442Y-143992148D01*
X199217065Y-144467699D01*
X199214571Y-144476192D01*
X199059580Y-144941866D01*
X199056487Y-144950160D01*
X198868664Y-145403602D01*
X198864987Y-145411653D01*
X198645294Y-145850546D01*
X198641056Y-145858308D01*
X198390613Y-146280408D01*
X198385827Y-146287854D01*
X198105916Y-146691001D01*
X198100612Y-146698087D01*
X197792647Y-147080250D01*
X197786850Y-147086940D01*
X197452411Y-147446152D01*
X197446152Y-147452411D01*
X197086940Y-147786850D01*
X197080250Y-147792647D01*
X196698087Y-148100612D01*
X196691001Y-148105916D01*
X196287854Y-148385827D01*
X196280412Y-148390610D01*
X195858308Y-148641056D01*
X195850546Y-148645294D01*
X195411653Y-148864987D01*
X195403602Y-148868664D01*
X194950160Y-149056487D01*
X194941866Y-149059580D01*
X194476192Y-149214571D01*
X194467699Y-149217065D01*
X193992148Y-149338442D01*
X193983499Y-149340324D01*
X193500494Y-149427468D01*
X193491732Y-149428728D01*
X193003735Y-149481193D01*
X192994906Y-149481824D01*
X192502212Y-149499421D01*
X192497786Y-149499500D01*
X107502214Y-149499500D01*
X107497788Y-149499421D01*
X107005093Y-149481824D01*
X106996264Y-149481193D01*
X106508267Y-149428728D01*
X106499505Y-149427468D01*
X106016500Y-149340324D01*
X106007851Y-149338442D01*
X105532300Y-149217065D01*
X105523807Y-149214571D01*
X105058133Y-149059580D01*
X105049839Y-149056487D01*
X104596397Y-148868664D01*
X104588346Y-148864987D01*
X104149453Y-148645294D01*
X104141703Y-148641062D01*
X103719574Y-148390602D01*
X103712145Y-148385827D01*
X103308998Y-148105916D01*
X103301912Y-148100612D01*
X102919749Y-147792647D01*
X102913059Y-147786850D01*
X102553847Y-147452411D01*
X102547588Y-147446152D01*
X102213149Y-147086940D01*
X102207352Y-147080250D01*
X101899387Y-146698087D01*
X101894083Y-146691001D01*
X101785813Y-146535063D01*
X101614164Y-146287842D01*
X101609401Y-146280432D01*
X101358931Y-145858287D01*
X101354705Y-145850546D01*
X101135012Y-145411653D01*
X101131335Y-145403602D01*
X100943512Y-144950160D01*
X100940419Y-144941866D01*
X100933700Y-144921679D01*
X100785423Y-144476177D01*
X100782938Y-144467713D01*
X100661552Y-143992128D01*
X100659679Y-143983520D01*
X100572527Y-143500471D01*
X100571274Y-143491755D01*
X100518804Y-143003717D01*
X100518176Y-142994924D01*
X100500579Y-142502211D01*
X100500500Y-142497785D01*
X100500500Y-108795599D01*
X110999499Y-108795599D01*
X111037947Y-108988885D01*
X111037950Y-108988895D01*
X111113364Y-109170963D01*
X111113371Y-109170976D01*
X111222859Y-109334836D01*
X111222860Y-109334837D01*
X111222861Y-109334838D01*
X111362218Y-109474195D01*
X111362219Y-109474195D01*
X111369286Y-109481262D01*
X111369285Y-109481262D01*
X111369288Y-109481264D01*
X114025804Y-112137781D01*
X114025805Y-112137782D01*
X114110523Y-112222500D01*
X114165163Y-112277140D01*
X114329024Y-112386628D01*
X114329030Y-112386632D01*
X114435689Y-112430811D01*
X114511108Y-112462051D01*
X114704398Y-112500499D01*
X114704401Y-112500500D01*
X114704403Y-112500500D01*
X119039242Y-112500500D01*
X119106281Y-112520185D01*
X119126923Y-112536819D01*
X119128599Y-112538495D01*
X119180788Y-112575038D01*
X119322165Y-112674032D01*
X119322167Y-112674033D01*
X119322170Y-112674035D01*
X119536337Y-112773903D01*
X119764592Y-112835063D01*
X119952918Y-112851539D01*
X119999999Y-112855659D01*
X120000000Y-112855659D01*
X120000001Y-112855659D01*
X120039234Y-112852226D01*
X120235408Y-112835063D01*
X120463663Y-112773903D01*
X120677830Y-112674035D01*
X120871401Y-112538495D01*
X121038495Y-112371401D01*
X121174035Y-112177830D01*
X121273903Y-111963663D01*
X121335063Y-111735408D01*
X121355659Y-111500000D01*
X121335063Y-111264592D01*
X121273903Y-111036337D01*
X121174035Y-110822171D01*
X121128024Y-110756459D01*
X121038494Y-110628597D01*
X120871402Y-110461506D01*
X120871396Y-110461501D01*
X120685842Y-110331575D01*
X120642217Y-110276998D01*
X120635023Y-110207500D01*
X120666546Y-110145145D01*
X120685842Y-110128425D01*
X120721300Y-110103597D01*
X120871401Y-109998495D01*
X121038495Y-109831401D01*
X121174035Y-109637830D01*
X121273903Y-109423663D01*
X121335063Y-109195408D01*
X121355659Y-108960000D01*
X121335063Y-108724592D01*
X121273903Y-108496337D01*
X121174035Y-108282171D01*
X121156032Y-108256459D01*
X121038494Y-108088597D01*
X120871402Y-107921506D01*
X120871395Y-107921501D01*
X120677834Y-107785967D01*
X120677830Y-107785965D01*
X120605305Y-107752146D01*
X120463663Y-107686097D01*
X120463659Y-107686096D01*
X120463655Y-107686094D01*
X120235413Y-107624938D01*
X120235403Y-107624936D01*
X120000001Y-107604341D01*
X119999999Y-107604341D01*
X119764596Y-107624936D01*
X119764586Y-107624938D01*
X119536344Y-107686094D01*
X119536337Y-107686096D01*
X119536337Y-107686097D01*
X119532820Y-107687737D01*
X119322171Y-107785964D01*
X119322169Y-107785965D01*
X119128597Y-107921505D01*
X119126922Y-107923181D01*
X119126000Y-107923684D01*
X119124449Y-107924986D01*
X119124187Y-107924674D01*
X119065599Y-107956666D01*
X119039241Y-107959500D01*
X114624500Y-107959500D01*
X114557461Y-107939815D01*
X114511706Y-107887011D01*
X114500500Y-107835500D01*
X114500500Y-104777870D01*
X118649500Y-104777870D01*
X118649501Y-104777876D01*
X118655908Y-104837483D01*
X118706202Y-104972328D01*
X118706206Y-104972335D01*
X118792452Y-105087544D01*
X118792455Y-105087547D01*
X118907664Y-105173793D01*
X118907671Y-105173797D01*
X119042517Y-105224091D01*
X119042516Y-105224091D01*
X119049444Y-105224835D01*
X119102127Y-105230500D01*
X120897872Y-105230499D01*
X120957483Y-105224091D01*
X121092331Y-105173796D01*
X121207546Y-105087546D01*
X121293796Y-104972331D01*
X121344091Y-104837483D01*
X121350500Y-104777873D01*
X121350499Y-102982128D01*
X121344091Y-102922517D01*
X121320517Y-102859313D01*
X121293797Y-102787671D01*
X121293793Y-102787664D01*
X121207547Y-102672455D01*
X121207544Y-102672452D01*
X121092335Y-102586206D01*
X121092332Y-102586205D01*
X121092331Y-102586204D01*
X121081161Y-102582038D01*
X121025231Y-102540166D01*
X121000816Y-102474701D01*
X121000500Y-102465858D01*
X121000500Y-101465782D01*
X121020185Y-101398743D01*
X121036819Y-101378101D01*
X122277136Y-100137785D01*
X122277136Y-100137784D01*
X122277139Y-100137782D01*
X122386631Y-99973915D01*
X122462051Y-99791836D01*
X122500500Y-99598541D01*
X122500500Y-99401460D01*
X122500500Y-99401457D01*
X122500499Y-99401455D01*
X122462052Y-99208172D01*
X122462051Y-99208165D01*
X122386631Y-99026086D01*
X122386630Y-99026085D01*
X122386627Y-99026079D01*
X122277139Y-98862219D01*
X122277136Y-98862215D01*
X122137784Y-98722863D01*
X122137780Y-98722860D01*
X121973920Y-98613372D01*
X121973911Y-98613367D01*
X121791835Y-98537949D01*
X121791827Y-98537947D01*
X121598543Y-98499500D01*
X121598540Y-98499500D01*
X121401459Y-98499500D01*
X121401456Y-98499500D01*
X121208171Y-98537947D01*
X121208163Y-98537949D01*
X121026087Y-98613367D01*
X121026078Y-98613372D01*
X120862218Y-98722860D01*
X120862214Y-98722863D01*
X119700297Y-99884782D01*
X119362220Y-100222859D01*
X119362218Y-100222861D01*
X119326449Y-100258630D01*
X119222859Y-100362219D01*
X119113371Y-100526079D01*
X119113364Y-100526092D01*
X119037950Y-100708160D01*
X119037947Y-100708170D01*
X118999500Y-100901456D01*
X118999500Y-102465858D01*
X118979815Y-102532897D01*
X118927011Y-102578652D01*
X118918847Y-102582034D01*
X118907669Y-102586204D01*
X118907664Y-102586206D01*
X118792455Y-102672452D01*
X118792452Y-102672455D01*
X118706206Y-102787664D01*
X118706202Y-102787671D01*
X118655908Y-102922517D01*
X118649501Y-102982116D01*
X118649501Y-102982123D01*
X118649500Y-102982135D01*
X118649500Y-104777870D01*
X114500500Y-104777870D01*
X114500500Y-95965782D01*
X114520185Y-95898743D01*
X114536819Y-95878101D01*
X115777136Y-94637785D01*
X115777136Y-94637784D01*
X115777139Y-94637782D01*
X115886631Y-94473915D01*
X115962051Y-94291836D01*
X116000500Y-94098541D01*
X116000500Y-93901460D01*
X116000500Y-93901457D01*
X116000499Y-93901455D01*
X115962051Y-93708165D01*
X115886631Y-93526086D01*
X115886630Y-93526085D01*
X115886627Y-93526079D01*
X115777139Y-93362219D01*
X115777136Y-93362215D01*
X115637784Y-93222863D01*
X115637780Y-93222860D01*
X115473920Y-93113372D01*
X115473911Y-93113367D01*
X115291835Y-93037949D01*
X115291827Y-93037947D01*
X115098543Y-92999500D01*
X115098540Y-92999500D01*
X114901459Y-92999500D01*
X114901456Y-92999500D01*
X114708171Y-93037947D01*
X114708163Y-93037949D01*
X114526087Y-93113367D01*
X114526078Y-93113372D01*
X114362218Y-93222860D01*
X114362214Y-93222863D01*
X113194921Y-94390157D01*
X113133598Y-94423642D01*
X113063906Y-94418658D01*
X113007973Y-94376786D01*
X112985623Y-94326667D01*
X112962052Y-94208172D01*
X112962052Y-94208170D01*
X112962051Y-94208165D01*
X112962049Y-94208160D01*
X112886635Y-94026092D01*
X112886628Y-94026079D01*
X112777139Y-93862218D01*
X112777136Y-93862214D01*
X112637785Y-93722863D01*
X112637781Y-93722860D01*
X112473920Y-93613371D01*
X112473907Y-93613364D01*
X112291839Y-93537950D01*
X112291829Y-93537947D01*
X112098543Y-93499500D01*
X112098541Y-93499500D01*
X111901459Y-93499500D01*
X111901457Y-93499500D01*
X111708170Y-93537947D01*
X111708160Y-93537950D01*
X111526092Y-93613364D01*
X111526079Y-93613371D01*
X111362218Y-93722860D01*
X111362214Y-93722863D01*
X111222863Y-93862214D01*
X111222860Y-93862218D01*
X111113371Y-94026079D01*
X111113364Y-94026092D01*
X111037950Y-94208160D01*
X111037947Y-94208170D01*
X110999500Y-94401456D01*
X110999500Y-94401459D01*
X110999500Y-108795597D01*
X110999500Y-108795599D01*
X110999499Y-108795599D01*
X100500500Y-108795599D01*
X100500500Y-83777870D01*
X118374500Y-83777870D01*
X118374501Y-83777876D01*
X118380908Y-83837483D01*
X118431202Y-83972328D01*
X118431206Y-83972335D01*
X118517452Y-84087544D01*
X118517455Y-84087547D01*
X118632665Y-84173794D01*
X118632667Y-84173794D01*
X118632669Y-84173796D01*
X118643830Y-84177958D01*
X118699764Y-84219826D01*
X118724184Y-84285289D01*
X118724500Y-84294141D01*
X118724500Y-88878541D01*
X118724500Y-88878543D01*
X118724499Y-88878543D01*
X118762947Y-89071829D01*
X118762950Y-89071839D01*
X118838364Y-89253907D01*
X118838371Y-89253920D01*
X118947860Y-89417781D01*
X118947863Y-89417785D01*
X119091537Y-89561459D01*
X119091559Y-89561479D01*
X121662215Y-92132136D01*
X121662219Y-92132139D01*
X121826079Y-92241627D01*
X121826083Y-92241629D01*
X121826086Y-92241631D01*
X122008164Y-92317051D01*
X122148261Y-92344918D01*
X122201455Y-92355499D01*
X122201458Y-92355500D01*
X122201460Y-92355500D01*
X122398541Y-92355500D01*
X122451739Y-92344918D01*
X122461970Y-92342882D01*
X122486161Y-92340500D01*
X124108681Y-92340500D01*
X124175720Y-92360185D01*
X124221475Y-92412989D01*
X124231419Y-92482147D01*
X124202394Y-92545703D01*
X124177572Y-92567602D01*
X124162219Y-92577860D01*
X124162213Y-92577865D01*
X124119780Y-92620296D01*
X124119776Y-92620302D01*
X123997863Y-92742214D01*
X123997860Y-92742217D01*
X123888371Y-92906080D01*
X123888364Y-92906093D01*
X123868712Y-92953540D01*
X123868712Y-92953541D01*
X123812950Y-93088161D01*
X123812947Y-93088171D01*
X123801278Y-93146836D01*
X123801278Y-93146837D01*
X123774500Y-93281456D01*
X123774500Y-122199241D01*
X123754815Y-122266280D01*
X123738181Y-122286922D01*
X123736505Y-122288597D01*
X123600965Y-122482169D01*
X123600964Y-122482171D01*
X123501098Y-122696335D01*
X123501094Y-122696344D01*
X123439938Y-122924586D01*
X123439938Y-122924587D01*
X123439937Y-122924592D01*
X123422113Y-123128314D01*
X123419341Y-123159999D01*
X123419341Y-123160000D01*
X123439936Y-123395403D01*
X123439938Y-123395413D01*
X123501094Y-123623655D01*
X123501096Y-123623659D01*
X123501097Y-123623663D01*
X123547354Y-123722861D01*
X123600965Y-123837830D01*
X123600967Y-123837834D01*
X123624274Y-123871119D01*
X123732783Y-124026086D01*
X123736501Y-124031395D01*
X123736506Y-124031402D01*
X123903597Y-124198493D01*
X123903603Y-124198498D01*
X124089158Y-124328425D01*
X124132783Y-124383002D01*
X124139977Y-124452500D01*
X124108454Y-124514855D01*
X124089158Y-124531575D01*
X123903597Y-124661505D01*
X123736505Y-124828597D01*
X123600965Y-125022169D01*
X123600964Y-125022171D01*
X123501098Y-125236335D01*
X123501094Y-125236344D01*
X123439938Y-125464586D01*
X123439938Y-125464587D01*
X123439937Y-125464592D01*
X123422113Y-125668314D01*
X123419341Y-125699999D01*
X123419341Y-125700000D01*
X123439936Y-125935403D01*
X123439938Y-125935413D01*
X123501094Y-126163655D01*
X123501096Y-126163659D01*
X123501097Y-126163663D01*
X123600965Y-126377830D01*
X123600967Y-126377834D01*
X123736501Y-126571395D01*
X123736506Y-126571402D01*
X123903597Y-126738493D01*
X123903603Y-126738498D01*
X124089158Y-126868425D01*
X124132783Y-126923002D01*
X124139977Y-126992500D01*
X124108454Y-127054855D01*
X124089158Y-127071575D01*
X123903597Y-127201505D01*
X123736505Y-127368597D01*
X123600965Y-127562169D01*
X123600964Y-127562171D01*
X123501098Y-127776335D01*
X123501094Y-127776344D01*
X123439938Y-128004586D01*
X123439938Y-128004587D01*
X123439937Y-128004592D01*
X123426299Y-128160474D01*
X123419341Y-128239999D01*
X123419341Y-128240000D01*
X123439936Y-128475403D01*
X123439938Y-128475413D01*
X123501094Y-128703655D01*
X123501096Y-128703659D01*
X123501097Y-128703663D01*
X123525809Y-128756657D01*
X123600965Y-128917830D01*
X123600967Y-128917834D01*
X123709281Y-129072521D01*
X123736505Y-129111401D01*
X123903599Y-129278495D01*
X124000384Y-129346265D01*
X124097165Y-129414032D01*
X124097167Y-129414033D01*
X124097170Y-129414035D01*
X124311337Y-129513903D01*
X124539592Y-129575063D01*
X124727918Y-129591539D01*
X124774999Y-129595659D01*
X124775000Y-129595659D01*
X124775001Y-129595659D01*
X124814234Y-129592226D01*
X125010408Y-129575063D01*
X125238663Y-129513903D01*
X125452830Y-129414035D01*
X125646401Y-129278495D01*
X125813495Y-129111401D01*
X125949035Y-128917830D01*
X126048903Y-128703663D01*
X126110063Y-128475408D01*
X126121043Y-128349901D01*
X126146495Y-128284834D01*
X126156882Y-128273036D01*
X126587819Y-127842099D01*
X126649142Y-127808615D01*
X126718834Y-127813599D01*
X126774767Y-127855471D01*
X126799184Y-127920935D01*
X126799500Y-127929781D01*
X126799500Y-134453541D01*
X126799500Y-134453543D01*
X126799499Y-134453543D01*
X126837947Y-134646829D01*
X126837950Y-134646839D01*
X126913364Y-134828907D01*
X126913371Y-134828920D01*
X127022860Y-134992781D01*
X127022863Y-134992785D01*
X127166537Y-135136459D01*
X127166559Y-135136479D01*
X130919735Y-138889655D01*
X130919764Y-138889686D01*
X131062214Y-139032136D01*
X131062218Y-139032139D01*
X131226079Y-139141628D01*
X131226092Y-139141635D01*
X131354833Y-139194961D01*
X131397744Y-139212735D01*
X131408164Y-139217051D01*
X131504812Y-139236275D01*
X131553135Y-139245887D01*
X131601458Y-139255500D01*
X131601459Y-139255500D01*
X167695598Y-139255500D01*
X167714926Y-139251655D01*
X167792244Y-139236275D01*
X167888892Y-139217051D01*
X167942221Y-139194961D01*
X168070970Y-139141632D01*
X168234838Y-139032139D01*
X168374195Y-138892782D01*
X168374195Y-138892780D01*
X168384403Y-138882573D01*
X168384404Y-138882570D01*
X175007139Y-132259838D01*
X175044129Y-132204477D01*
X175116631Y-132095972D01*
X175116636Y-132095962D01*
X175192050Y-131913893D01*
X175192053Y-131913884D01*
X175202481Y-131861460D01*
X175230499Y-131720600D01*
X175230500Y-131720598D01*
X175230500Y-124598543D01*
X175499499Y-124598543D01*
X175537947Y-124791829D01*
X175537950Y-124791839D01*
X175613364Y-124973907D01*
X175613371Y-124973920D01*
X175722860Y-125137781D01*
X175722863Y-125137785D01*
X175862214Y-125277136D01*
X175862218Y-125277139D01*
X176026079Y-125386628D01*
X176026092Y-125386635D01*
X176197137Y-125457483D01*
X176208165Y-125462051D01*
X176208169Y-125462051D01*
X176208170Y-125462052D01*
X176401456Y-125500500D01*
X176401459Y-125500500D01*
X178295859Y-125500500D01*
X178362898Y-125520185D01*
X178408653Y-125572989D01*
X178412030Y-125581140D01*
X178416204Y-125592331D01*
X178416205Y-125592332D01*
X178416206Y-125592335D01*
X178502452Y-125707544D01*
X178502455Y-125707547D01*
X178617664Y-125793793D01*
X178617671Y-125793797D01*
X178752517Y-125844091D01*
X178752516Y-125844091D01*
X178759444Y-125844835D01*
X178812127Y-125850500D01*
X180607872Y-125850499D01*
X180667483Y-125844091D01*
X180802331Y-125793796D01*
X180917546Y-125707546D01*
X181003796Y-125592331D01*
X181009318Y-125577525D01*
X181051188Y-125521593D01*
X181116652Y-125497175D01*
X181184925Y-125512026D01*
X181234331Y-125561430D01*
X181249500Y-125620859D01*
X181249500Y-130549587D01*
X181229815Y-130616626D01*
X181177011Y-130662381D01*
X181168838Y-130665767D01*
X181167674Y-130666200D01*
X181167664Y-130666206D01*
X181052455Y-130752452D01*
X181052452Y-130752455D01*
X180966206Y-130867664D01*
X180966202Y-130867671D01*
X180915908Y-131002517D01*
X180909501Y-131062116D01*
X180909501Y-131062123D01*
X180909500Y-131062135D01*
X180909500Y-132857870D01*
X180909501Y-132857876D01*
X180915908Y-132917483D01*
X180966202Y-133052328D01*
X180966206Y-133052335D01*
X181052452Y-133167544D01*
X181052455Y-133167547D01*
X181167664Y-133253793D01*
X181167671Y-133253797D01*
X181302517Y-133304091D01*
X181302516Y-133304091D01*
X181309444Y-133304835D01*
X181362127Y-133310500D01*
X183157872Y-133310499D01*
X183217483Y-133304091D01*
X183352331Y-133253796D01*
X183467546Y-133167546D01*
X183553796Y-133052331D01*
X183604091Y-132917483D01*
X183610500Y-132857873D01*
X183610499Y-131062128D01*
X183604091Y-131002517D01*
X183553796Y-130867669D01*
X183553795Y-130867668D01*
X183553793Y-130867664D01*
X183467547Y-130752455D01*
X183467544Y-130752452D01*
X183352334Y-130666205D01*
X183331164Y-130658309D01*
X183275231Y-130616436D01*
X183250816Y-130550971D01*
X183250500Y-130542128D01*
X183250500Y-125460758D01*
X183270185Y-125393719D01*
X183286819Y-125373077D01*
X183288495Y-125371401D01*
X183424035Y-125177830D01*
X183523903Y-124963663D01*
X183585063Y-124735408D01*
X183605659Y-124500000D01*
X183585063Y-124264592D01*
X183523903Y-124036337D01*
X183424035Y-123822171D01*
X183288495Y-123628599D01*
X183288494Y-123628597D01*
X183286819Y-123626922D01*
X183286315Y-123626000D01*
X183285014Y-123624449D01*
X183285325Y-123624187D01*
X183253334Y-123565599D01*
X183250500Y-123539241D01*
X183250500Y-121151456D01*
X183212052Y-120958170D01*
X183212051Y-120958169D01*
X183212051Y-120958165D01*
X183212049Y-120958160D01*
X183136635Y-120776092D01*
X183136628Y-120776079D01*
X183027139Y-120612218D01*
X183027136Y-120612214D01*
X182887785Y-120472863D01*
X182887781Y-120472860D01*
X182723920Y-120363371D01*
X182723907Y-120363364D01*
X182541839Y-120287950D01*
X182541829Y-120287947D01*
X182348543Y-120249500D01*
X182348541Y-120249500D01*
X182151459Y-120249500D01*
X182151457Y-120249500D01*
X181958170Y-120287947D01*
X181958160Y-120287950D01*
X181776092Y-120363364D01*
X181776079Y-120363371D01*
X181612218Y-120472860D01*
X181612214Y-120472863D01*
X181472863Y-120612214D01*
X181472860Y-120612218D01*
X181363371Y-120776079D01*
X181363364Y-120776092D01*
X181287950Y-120958160D01*
X181287947Y-120958170D01*
X181249500Y-121151456D01*
X181249500Y-123379140D01*
X181229815Y-123446179D01*
X181177011Y-123491934D01*
X181107853Y-123501878D01*
X181044297Y-123472853D01*
X181009318Y-123422473D01*
X181003797Y-123407671D01*
X181003793Y-123407664D01*
X180917547Y-123292455D01*
X180917544Y-123292452D01*
X180802335Y-123206206D01*
X180802328Y-123206202D01*
X180667482Y-123155908D01*
X180667483Y-123155908D01*
X180607883Y-123149501D01*
X180607881Y-123149500D01*
X180607873Y-123149500D01*
X180607864Y-123149500D01*
X178812129Y-123149500D01*
X178812123Y-123149501D01*
X178752516Y-123155908D01*
X178617671Y-123206202D01*
X178617664Y-123206206D01*
X178502455Y-123292452D01*
X178502452Y-123292455D01*
X178416206Y-123407664D01*
X178416204Y-123407668D01*
X178416204Y-123407669D01*
X178412039Y-123418834D01*
X178370171Y-123474766D01*
X178304707Y-123499184D01*
X178295859Y-123499500D01*
X176401457Y-123499500D01*
X176208170Y-123537947D01*
X176208160Y-123537950D01*
X176026092Y-123613364D01*
X176026079Y-123613371D01*
X175862218Y-123722860D01*
X175862214Y-123722863D01*
X175722863Y-123862214D01*
X175722860Y-123862218D01*
X175613371Y-124026079D01*
X175613364Y-124026092D01*
X175537950Y-124208160D01*
X175537947Y-124208170D01*
X175499500Y-124401456D01*
X175499500Y-124401459D01*
X175499500Y-124598541D01*
X175499500Y-124598543D01*
X175499499Y-124598543D01*
X175230500Y-124598543D01*
X175230500Y-117469141D01*
X175250185Y-117402102D01*
X175302989Y-117356347D01*
X175311149Y-117352966D01*
X175322331Y-117348796D01*
X175437546Y-117262546D01*
X175523796Y-117147331D01*
X175574091Y-117012483D01*
X175580500Y-116952873D01*
X175580499Y-115157128D01*
X175574091Y-115097517D01*
X175566759Y-115077860D01*
X175523797Y-114962671D01*
X175523793Y-114962664D01*
X175437547Y-114847455D01*
X175437544Y-114847452D01*
X175322335Y-114761206D01*
X175322328Y-114761202D01*
X175190917Y-114712189D01*
X175134983Y-114670318D01*
X175110566Y-114604853D01*
X175125418Y-114536580D01*
X175146563Y-114508332D01*
X175268495Y-114386401D01*
X175404035Y-114192830D01*
X175503903Y-113978663D01*
X175565063Y-113750408D01*
X175585659Y-113515000D01*
X175565063Y-113279592D01*
X175518626Y-113106285D01*
X175503905Y-113051344D01*
X175503904Y-113051343D01*
X175503903Y-113051337D01*
X175404035Y-112837171D01*
X175400517Y-112832146D01*
X175268494Y-112643597D01*
X175101402Y-112476506D01*
X175101396Y-112476501D01*
X174915842Y-112346575D01*
X174872217Y-112291998D01*
X174865023Y-112222500D01*
X174896546Y-112160145D01*
X174915842Y-112143425D01*
X174938026Y-112127891D01*
X175101401Y-112013495D01*
X175268495Y-111846401D01*
X175404035Y-111652830D01*
X175503903Y-111438663D01*
X175565063Y-111210408D01*
X175585659Y-110975000D01*
X175565063Y-110739592D01*
X175503903Y-110511337D01*
X175404035Y-110297171D01*
X175400517Y-110292146D01*
X175268494Y-110103597D01*
X175101402Y-109936506D01*
X175101396Y-109936501D01*
X174915842Y-109806575D01*
X174872217Y-109751998D01*
X174865023Y-109682500D01*
X174896546Y-109620145D01*
X174915842Y-109603425D01*
X175090304Y-109481265D01*
X175101401Y-109473495D01*
X175268495Y-109306401D01*
X175404035Y-109112830D01*
X175503903Y-108898663D01*
X175565063Y-108670408D01*
X175585659Y-108435000D01*
X175565063Y-108199592D01*
X175503903Y-107971337D01*
X175404035Y-107757171D01*
X175400517Y-107752146D01*
X175268494Y-107563597D01*
X175101402Y-107396506D01*
X175101396Y-107396501D01*
X174915842Y-107266575D01*
X174872217Y-107211998D01*
X174865023Y-107142500D01*
X174896546Y-107080145D01*
X174915842Y-107063425D01*
X174938026Y-107047891D01*
X175101401Y-106933495D01*
X175268495Y-106766401D01*
X175404035Y-106572830D01*
X175503903Y-106358663D01*
X175565063Y-106130408D01*
X175576043Y-106004900D01*
X175601495Y-105939833D01*
X175611882Y-105928036D01*
X182702139Y-98837782D01*
X182744616Y-98774211D01*
X182811632Y-98673914D01*
X182887051Y-98491835D01*
X182925500Y-98298541D01*
X182925500Y-93320782D01*
X182945185Y-93253743D01*
X182961819Y-93233101D01*
X186062819Y-90132101D01*
X186124142Y-90098616D01*
X186193834Y-90103600D01*
X186249767Y-90145472D01*
X186274184Y-90210936D01*
X186274500Y-90219782D01*
X186274500Y-111259217D01*
X186254815Y-111326256D01*
X186238181Y-111346898D01*
X179222863Y-118362215D01*
X179222860Y-118362219D01*
X179113372Y-118526079D01*
X179113367Y-118526089D01*
X179037949Y-118708163D01*
X179037947Y-118708171D01*
X178999500Y-118901455D01*
X178999500Y-119098544D01*
X179037947Y-119291828D01*
X179037949Y-119291836D01*
X179113367Y-119473910D01*
X179113372Y-119473920D01*
X179222860Y-119637780D01*
X179222863Y-119637784D01*
X179362215Y-119777136D01*
X179362219Y-119777139D01*
X179526079Y-119886627D01*
X179526083Y-119886629D01*
X179526086Y-119886631D01*
X179708164Y-119962051D01*
X179881884Y-119996606D01*
X179901455Y-120000499D01*
X179901458Y-120000500D01*
X179901460Y-120000500D01*
X180098542Y-120000500D01*
X180098543Y-120000499D01*
X180291836Y-119962051D01*
X180473914Y-119886631D01*
X180637781Y-119777139D01*
X188052140Y-112362781D01*
X188161632Y-112198914D01*
X188237052Y-112016835D01*
X188275500Y-111823540D01*
X188275500Y-111626459D01*
X188275500Y-81376459D01*
X188275500Y-81376456D01*
X188237052Y-81183170D01*
X188237051Y-81183169D01*
X188237051Y-81183165D01*
X188237049Y-81183160D01*
X188161635Y-81001092D01*
X188161628Y-81001079D01*
X188052139Y-80837218D01*
X188052136Y-80837214D01*
X187912785Y-80697863D01*
X187912781Y-80697860D01*
X187748920Y-80588371D01*
X187748907Y-80588364D01*
X187566839Y-80512950D01*
X187566829Y-80512947D01*
X187373543Y-80474500D01*
X187373541Y-80474500D01*
X182096459Y-80474500D01*
X182096458Y-80474500D01*
X182072931Y-80479180D01*
X182025876Y-80488540D01*
X181903167Y-80512947D01*
X181903159Y-80512950D01*
X181849834Y-80535037D01*
X181849834Y-80535038D01*
X181804315Y-80553892D01*
X181721089Y-80588366D01*
X181721079Y-80588371D01*
X181557219Y-80697859D01*
X181521978Y-80733101D01*
X181417861Y-80837218D01*
X181417858Y-80837221D01*
X180611970Y-81643108D01*
X180550647Y-81676593D01*
X180535098Y-81678955D01*
X180409596Y-81689936D01*
X180409586Y-81689938D01*
X180181344Y-81751094D01*
X180181335Y-81751098D01*
X179967171Y-81850964D01*
X179967169Y-81850965D01*
X179773597Y-81986505D01*
X179606505Y-82153597D01*
X179476575Y-82339158D01*
X179421998Y-82382783D01*
X179352500Y-82389977D01*
X179290145Y-82358454D01*
X179273425Y-82339158D01*
X179143494Y-82153597D01*
X178976402Y-81986506D01*
X178976395Y-81986501D01*
X178970148Y-81982127D01*
X178883406Y-81921389D01*
X178782834Y-81850967D01*
X178782830Y-81850965D01*
X178687796Y-81806650D01*
X178568663Y-81751097D01*
X178568659Y-81751096D01*
X178568655Y-81751094D01*
X178340413Y-81689938D01*
X178340403Y-81689936D01*
X178105001Y-81669341D01*
X178104999Y-81669341D01*
X177869596Y-81689936D01*
X177869586Y-81689938D01*
X177641344Y-81751094D01*
X177641335Y-81751098D01*
X177427171Y-81850964D01*
X177427169Y-81850965D01*
X177233597Y-81986505D01*
X177066505Y-82153597D01*
X176930965Y-82347169D01*
X176930964Y-82347171D01*
X176831098Y-82561335D01*
X176831094Y-82561344D01*
X176769938Y-82789586D01*
X176769936Y-82789596D01*
X176749341Y-83024999D01*
X176749341Y-83025000D01*
X176769936Y-83260403D01*
X176769938Y-83260413D01*
X176831094Y-83488655D01*
X176831096Y-83488659D01*
X176831097Y-83488663D01*
X176863352Y-83557834D01*
X176930965Y-83702830D01*
X176930967Y-83702834D01*
X176988490Y-83784984D01*
X177066501Y-83896396D01*
X177066506Y-83896402D01*
X177068181Y-83898077D01*
X177068682Y-83898995D01*
X177069982Y-83900544D01*
X177069670Y-83900805D01*
X177101666Y-83959400D01*
X177104500Y-83985758D01*
X177104500Y-86590455D01*
X177084815Y-86657494D01*
X177068181Y-86678136D01*
X172489861Y-91256456D01*
X168162221Y-95584096D01*
X168162218Y-95584099D01*
X168098471Y-95647846D01*
X168022860Y-95723456D01*
X168020352Y-95726513D01*
X168018633Y-95727683D01*
X168018553Y-95727764D01*
X168018537Y-95727748D01*
X167962605Y-95765846D01*
X167892761Y-95767715D01*
X167832993Y-95731527D01*
X167802278Y-95668770D01*
X167800500Y-95647846D01*
X167800500Y-80256456D01*
X167762052Y-80063170D01*
X167762051Y-80063169D01*
X167762051Y-80063165D01*
X167701132Y-79916092D01*
X167686635Y-79881092D01*
X167686628Y-79881079D01*
X167577140Y-79717219D01*
X167577139Y-79717218D01*
X167437782Y-79577861D01*
X167437781Y-79577860D01*
X166084208Y-78224288D01*
X166084206Y-78224285D01*
X166084206Y-78224286D01*
X166077139Y-78217219D01*
X166077139Y-78217218D01*
X165937782Y-78077861D01*
X165937781Y-78077860D01*
X165937780Y-78077859D01*
X165773920Y-77968371D01*
X165773911Y-77968366D01*
X165701315Y-77938296D01*
X165645165Y-77915038D01*
X165591836Y-77892949D01*
X165591832Y-77892948D01*
X165591828Y-77892946D01*
X165495188Y-77873724D01*
X165398544Y-77854500D01*
X165398541Y-77854500D01*
X123701459Y-77854500D01*
X123701455Y-77854500D01*
X123604812Y-77873724D01*
X123508167Y-77892947D01*
X123508161Y-77892949D01*
X123454834Y-77915037D01*
X123454834Y-77915038D01*
X123409315Y-77933892D01*
X123326089Y-77968366D01*
X123326079Y-77968371D01*
X123162219Y-78077859D01*
X123092540Y-78147538D01*
X123022861Y-78217218D01*
X123022858Y-78217221D01*
X121627221Y-79612858D01*
X121627218Y-79612861D01*
X121557538Y-79682540D01*
X121487859Y-79752219D01*
X121378371Y-79916079D01*
X121378364Y-79916092D01*
X121302950Y-80098160D01*
X121302947Y-80098170D01*
X121264500Y-80291456D01*
X121264500Y-81759140D01*
X121244815Y-81826179D01*
X121192011Y-81871934D01*
X121122853Y-81881878D01*
X121059297Y-81852853D01*
X121024318Y-81802473D01*
X121018797Y-81787671D01*
X121018793Y-81787664D01*
X120932547Y-81672455D01*
X120932544Y-81672452D01*
X120817335Y-81586206D01*
X120817328Y-81586202D01*
X120682482Y-81535908D01*
X120682483Y-81535908D01*
X120622883Y-81529501D01*
X120622881Y-81529500D01*
X120622873Y-81529500D01*
X120622864Y-81529500D01*
X118827129Y-81529500D01*
X118827123Y-81529501D01*
X118767516Y-81535908D01*
X118632671Y-81586202D01*
X118632664Y-81586206D01*
X118517455Y-81672452D01*
X118517452Y-81672455D01*
X118431206Y-81787664D01*
X118431202Y-81787671D01*
X118380908Y-81922517D01*
X118374501Y-81982116D01*
X118374500Y-81982135D01*
X118374500Y-83777870D01*
X100500500Y-83777870D01*
X100500500Y-70621288D01*
X118649500Y-70621288D01*
X118681161Y-70861785D01*
X118743947Y-71096104D01*
X118836773Y-71320205D01*
X118836776Y-71320212D01*
X118958064Y-71530289D01*
X118958066Y-71530292D01*
X118958067Y-71530293D01*
X119105733Y-71722736D01*
X119105739Y-71722743D01*
X119277256Y-71894260D01*
X119277262Y-71894265D01*
X119469711Y-72041936D01*
X119679788Y-72163224D01*
X119903900Y-72256054D01*
X120138211Y-72318838D01*
X120318586Y-72342584D01*
X120378711Y-72350500D01*
X120378712Y-72350500D01*
X120621289Y-72350500D01*
X120669388Y-72344167D01*
X120861789Y-72318838D01*
X121096100Y-72256054D01*
X121320212Y-72163224D01*
X121530289Y-72041936D01*
X121722738Y-71894265D01*
X121894265Y-71722738D01*
X122041936Y-71530289D01*
X122163224Y-71320212D01*
X122256054Y-71096100D01*
X122318838Y-70861789D01*
X122350500Y-70621288D01*
X178149500Y-70621288D01*
X178181161Y-70861785D01*
X178243947Y-71096104D01*
X178336773Y-71320205D01*
X178336776Y-71320212D01*
X178458064Y-71530289D01*
X178458066Y-71530292D01*
X178458067Y-71530293D01*
X178605733Y-71722736D01*
X178605739Y-71722743D01*
X178777256Y-71894260D01*
X178777262Y-71894265D01*
X178969711Y-72041936D01*
X179179788Y-72163224D01*
X179403900Y-72256054D01*
X179638211Y-72318838D01*
X179818586Y-72342584D01*
X179878711Y-72350500D01*
X179878712Y-72350500D01*
X180121289Y-72350500D01*
X180169388Y-72344167D01*
X180361789Y-72318838D01*
X180596100Y-72256054D01*
X180820212Y-72163224D01*
X181030289Y-72041936D01*
X181222738Y-71894265D01*
X181394265Y-71722738D01*
X181541936Y-71530289D01*
X181663224Y-71320212D01*
X181756054Y-71096100D01*
X181818838Y-70861789D01*
X181850500Y-70621288D01*
X181850500Y-70378712D01*
X181818838Y-70138211D01*
X181756054Y-69903900D01*
X181663224Y-69679788D01*
X181541936Y-69469711D01*
X181394265Y-69277262D01*
X181394260Y-69277256D01*
X181222743Y-69105739D01*
X181222736Y-69105733D01*
X181030293Y-68958067D01*
X181030292Y-68958066D01*
X181030289Y-68958064D01*
X180820212Y-68836776D01*
X180820205Y-68836773D01*
X180596104Y-68743947D01*
X180361785Y-68681161D01*
X180121289Y-68649500D01*
X180121288Y-68649500D01*
X179878712Y-68649500D01*
X179878711Y-68649500D01*
X179638214Y-68681161D01*
X179403895Y-68743947D01*
X179179794Y-68836773D01*
X179179785Y-68836777D01*
X178969706Y-68958067D01*
X178777263Y-69105733D01*
X178777256Y-69105739D01*
X178605739Y-69277256D01*
X178605733Y-69277263D01*
X178458067Y-69469706D01*
X178336777Y-69679785D01*
X178336773Y-69679794D01*
X178243947Y-69903895D01*
X178181161Y-70138214D01*
X178149500Y-70378711D01*
X178149500Y-70621288D01*
X122350500Y-70621288D01*
X122350500Y-70378712D01*
X122318838Y-70138211D01*
X122256054Y-69903900D01*
X122163224Y-69679788D01*
X122041936Y-69469711D01*
X121894265Y-69277262D01*
X121894260Y-69277256D01*
X121722743Y-69105739D01*
X121722736Y-69105733D01*
X121530293Y-68958067D01*
X121530292Y-68958066D01*
X121530289Y-68958064D01*
X121320212Y-68836776D01*
X121320205Y-68836773D01*
X121096104Y-68743947D01*
X120861785Y-68681161D01*
X120621289Y-68649500D01*
X120621288Y-68649500D01*
X120378712Y-68649500D01*
X120378711Y-68649500D01*
X120138214Y-68681161D01*
X119903895Y-68743947D01*
X119679794Y-68836773D01*
X119679785Y-68836777D01*
X119469706Y-68958067D01*
X119277263Y-69105733D01*
X119277256Y-69105739D01*
X119105739Y-69277256D01*
X119105733Y-69277263D01*
X118958067Y-69469706D01*
X118836777Y-69679785D01*
X118836773Y-69679794D01*
X118743947Y-69903895D01*
X118681161Y-70138214D01*
X118649500Y-70378711D01*
X118649500Y-70621288D01*
X100500500Y-70621288D01*
X100500500Y-57502214D01*
X100500579Y-57497788D01*
X100510261Y-57226695D01*
X100514026Y-57121288D01*
X118649500Y-57121288D01*
X118681161Y-57361785D01*
X118743947Y-57596104D01*
X118836773Y-57820205D01*
X118836776Y-57820212D01*
X118958064Y-58030289D01*
X118958066Y-58030292D01*
X118958067Y-58030293D01*
X119105733Y-58222736D01*
X119105739Y-58222743D01*
X119277256Y-58394260D01*
X119277262Y-58394265D01*
X119469711Y-58541936D01*
X119679788Y-58663224D01*
X119903900Y-58756054D01*
X120138211Y-58818838D01*
X120318586Y-58842584D01*
X120378711Y-58850500D01*
X120378712Y-58850500D01*
X120621289Y-58850500D01*
X120669388Y-58844167D01*
X120861789Y-58818838D01*
X121096100Y-58756054D01*
X121320212Y-58663224D01*
X121530289Y-58541936D01*
X121722738Y-58394265D01*
X121894265Y-58222738D01*
X122041936Y-58030289D01*
X122163224Y-57820212D01*
X122256054Y-57596100D01*
X122318838Y-57361789D01*
X122350500Y-57121288D01*
X178149500Y-57121288D01*
X178181161Y-57361785D01*
X178243947Y-57596104D01*
X178336773Y-57820205D01*
X178336776Y-57820212D01*
X178458064Y-58030289D01*
X178458066Y-58030292D01*
X178458067Y-58030293D01*
X178605733Y-58222736D01*
X178605739Y-58222743D01*
X178777256Y-58394260D01*
X178777262Y-58394265D01*
X178969711Y-58541936D01*
X179179788Y-58663224D01*
X179403900Y-58756054D01*
X179638211Y-58818838D01*
X179818586Y-58842584D01*
X179878711Y-58850500D01*
X179878712Y-58850500D01*
X180121289Y-58850500D01*
X180169388Y-58844167D01*
X180361789Y-58818838D01*
X180596100Y-58756054D01*
X180820212Y-58663224D01*
X181030289Y-58541936D01*
X181222738Y-58394265D01*
X181394265Y-58222738D01*
X181541936Y-58030289D01*
X181663224Y-57820212D01*
X181756054Y-57596100D01*
X181818838Y-57361789D01*
X181850500Y-57121288D01*
X181850500Y-56878712D01*
X181818838Y-56638211D01*
X181756054Y-56403900D01*
X181663224Y-56179788D01*
X181541936Y-55969711D01*
X181394265Y-55777262D01*
X181394260Y-55777256D01*
X181222743Y-55605739D01*
X181222736Y-55605733D01*
X181030293Y-55458067D01*
X181030292Y-55458066D01*
X181030289Y-55458064D01*
X180820212Y-55336776D01*
X180820205Y-55336773D01*
X180596104Y-55243947D01*
X180361785Y-55181161D01*
X180121289Y-55149500D01*
X180121288Y-55149500D01*
X179878712Y-55149500D01*
X179878711Y-55149500D01*
X179638214Y-55181161D01*
X179403895Y-55243947D01*
X179179794Y-55336773D01*
X179179785Y-55336777D01*
X178969706Y-55458067D01*
X178777263Y-55605733D01*
X178777256Y-55605739D01*
X178605739Y-55777256D01*
X178605733Y-55777263D01*
X178458067Y-55969706D01*
X178336777Y-56179785D01*
X178336773Y-56179794D01*
X178243947Y-56403895D01*
X178181161Y-56638214D01*
X178149500Y-56878711D01*
X178149500Y-57121288D01*
X122350500Y-57121288D01*
X122350500Y-56878712D01*
X122318838Y-56638211D01*
X122256054Y-56403900D01*
X122163224Y-56179788D01*
X122041936Y-55969711D01*
X121894265Y-55777262D01*
X121894260Y-55777256D01*
X121722743Y-55605739D01*
X121722736Y-55605733D01*
X121530293Y-55458067D01*
X121530292Y-55458066D01*
X121530289Y-55458064D01*
X121320212Y-55336776D01*
X121320205Y-55336773D01*
X121096104Y-55243947D01*
X120861785Y-55181161D01*
X120621289Y-55149500D01*
X120621288Y-55149500D01*
X120378712Y-55149500D01*
X120378711Y-55149500D01*
X120138214Y-55181161D01*
X119903895Y-55243947D01*
X119679794Y-55336773D01*
X119679785Y-55336777D01*
X119469706Y-55458067D01*
X119277263Y-55605733D01*
X119277256Y-55605739D01*
X119105739Y-55777256D01*
X119105733Y-55777263D01*
X118958067Y-55969706D01*
X118836777Y-56179785D01*
X118836773Y-56179794D01*
X118743947Y-56403895D01*
X118681161Y-56638214D01*
X118649500Y-56878711D01*
X118649500Y-57121288D01*
X100514026Y-57121288D01*
X100518176Y-57005073D01*
X100518804Y-56996284D01*
X100571274Y-56508240D01*
X100572527Y-56499532D01*
X100659680Y-56016473D01*
X100661551Y-56007877D01*
X100782940Y-55532278D01*
X100785421Y-55523829D01*
X100940423Y-55058121D01*
X100943512Y-55049839D01*
X101131335Y-54596397D01*
X101135012Y-54588346D01*
X101191837Y-54474822D01*
X101354714Y-54149436D01*
X101358924Y-54141724D01*
X101609409Y-53719554D01*
X101614155Y-53712170D01*
X101894087Y-53308992D01*
X101899387Y-53301912D01*
X102054401Y-53109551D01*
X102207369Y-52919728D01*
X102213131Y-52913079D01*
X102547595Y-52553839D01*
X102553839Y-52547595D01*
X102913079Y-52213131D01*
X102919728Y-52207369D01*
X103301918Y-51899382D01*
X103308998Y-51894083D01*
X103387624Y-51839492D01*
X103712170Y-51614155D01*
X103719554Y-51609409D01*
X104141724Y-51358924D01*
X104149436Y-51354714D01*
X104474822Y-51191837D01*
X104588346Y-51135012D01*
X104596397Y-51131335D01*
X104620281Y-51121442D01*
X105049850Y-50943507D01*
X105058121Y-50940423D01*
X105523829Y-50785421D01*
X105532278Y-50782940D01*
X106007877Y-50661551D01*
X106016473Y-50659680D01*
X106499532Y-50572527D01*
X106508240Y-50571274D01*
X106996284Y-50518804D01*
X107005073Y-50518176D01*
X107497788Y-50500578D01*
X107502214Y-50500500D01*
X107565892Y-50500500D01*
X192434108Y-50500500D01*
X192497786Y-50500500D01*
X192502211Y-50500578D01*
G37*
%TD.AperFunction*%
%TD*%
%TA.AperFunction,NonConductor*%
G36*
X119106281Y-109980185D02*
G01*
X119126923Y-109996819D01*
X119128597Y-109998493D01*
X119128603Y-109998498D01*
X119314158Y-110128425D01*
X119357783Y-110183002D01*
X119364977Y-110252500D01*
X119333454Y-110314855D01*
X119314158Y-110331575D01*
X119128597Y-110461505D01*
X119126922Y-110463181D01*
X119126000Y-110463684D01*
X119124449Y-110464986D01*
X119124187Y-110464674D01*
X119065599Y-110496666D01*
X119039241Y-110499500D01*
X115268727Y-110499500D01*
X115201688Y-110479815D01*
X115181046Y-110463181D01*
X114890046Y-110172181D01*
X114856561Y-110110858D01*
X114861545Y-110041166D01*
X114903417Y-109985233D01*
X114968881Y-109960816D01*
X114977727Y-109960500D01*
X119039242Y-109960500D01*
X119106281Y-109980185D01*
G37*
%TD.AperFunction*%
%TA.AperFunction,NonConductor*%
G36*
X184390703Y-84052146D02*
G01*
X184425681Y-84102525D01*
X184428921Y-84111211D01*
X184431204Y-84117332D01*
X184431206Y-84117335D01*
X184517452Y-84232544D01*
X184517455Y-84232547D01*
X184632663Y-84318792D01*
X184632665Y-84318793D01*
X184632669Y-84318796D01*
X184632673Y-84318797D01*
X184634924Y-84320027D01*
X184636746Y-84321849D01*
X184639769Y-84324112D01*
X184639443Y-84324546D01*
X184684331Y-84369431D01*
X184699500Y-84428861D01*
X184699500Y-88614218D01*
X184679815Y-88681257D01*
X184663181Y-88701899D01*
X184397181Y-88967899D01*
X184335858Y-89001384D01*
X184266166Y-88996400D01*
X184210233Y-88954528D01*
X184185816Y-88889064D01*
X184185500Y-88880218D01*
X184185500Y-84145859D01*
X184205185Y-84078820D01*
X184257989Y-84033065D01*
X184327147Y-84023121D01*
X184390703Y-84052146D01*
G37*
%TD.AperFunction*%
%TA.AperFunction,NonConductor*%
G36*
X135494184Y-105060185D02*
G01*
X135518374Y-105080517D01*
X135580252Y-105147734D01*
X135580256Y-105147738D01*
X135663008Y-105212147D01*
X135703821Y-105268857D01*
X135707496Y-105338630D01*
X135672864Y-105399313D01*
X135663014Y-105407848D01*
X135632839Y-105431335D01*
X135580255Y-105472262D01*
X135580252Y-105472265D01*
X135518374Y-105539483D01*
X135458487Y-105575474D01*
X135427145Y-105579500D01*
X134289783Y-105579500D01*
X134222744Y-105559815D01*
X134176989Y-105507011D01*
X134167045Y-105437853D01*
X134196070Y-105374297D01*
X134202102Y-105367819D01*
X134493102Y-105076819D01*
X134554425Y-105043334D01*
X134580783Y-105040500D01*
X135427145Y-105040500D01*
X135494184Y-105060185D01*
G37*
%TD.AperFunction*%
%TA.AperFunction,NonConductor*%
G36*
X173336281Y-109455185D02*
G01*
X173356923Y-109471819D01*
X173358597Y-109473493D01*
X173358603Y-109473498D01*
X173544158Y-109603425D01*
X173587783Y-109658002D01*
X173594977Y-109727500D01*
X173563454Y-109789855D01*
X173544158Y-109806575D01*
X173358597Y-109936505D01*
X173356922Y-109938181D01*
X173356000Y-109938684D01*
X173354449Y-109939986D01*
X173354187Y-109939674D01*
X173295599Y-109971666D01*
X173269241Y-109974500D01*
X171313381Y-109974500D01*
X171265928Y-109965061D01*
X171091836Y-109892949D01*
X171091830Y-109892947D01*
X170973330Y-109869376D01*
X170911419Y-109836991D01*
X170876845Y-109776275D01*
X170880585Y-109706506D01*
X170909839Y-109660080D01*
X171098101Y-109471819D01*
X171159424Y-109438334D01*
X171185782Y-109435500D01*
X173269242Y-109435500D01*
X173336281Y-109455185D01*
G37*
%TD.AperFunction*%
%TA.AperFunction,NonConductor*%
G36*
X165718834Y-104378600D02*
G01*
X165774767Y-104420472D01*
X165799184Y-104485936D01*
X165799500Y-104494782D01*
X165799500Y-108934217D01*
X165779815Y-109001256D01*
X165763181Y-109021898D01*
X163610295Y-111174783D01*
X163548972Y-111208268D01*
X163479280Y-111203284D01*
X163423347Y-111161412D01*
X163409058Y-111136912D01*
X163324173Y-110943393D01*
X163188166Y-110735217D01*
X163090015Y-110628597D01*
X163019744Y-110552262D01*
X162936991Y-110487852D01*
X162896179Y-110431143D01*
X162892504Y-110361370D01*
X162927136Y-110300687D01*
X162936985Y-110292151D01*
X163019744Y-110227738D01*
X163188164Y-110044785D01*
X163324173Y-109836607D01*
X163424063Y-109608881D01*
X163485108Y-109367821D01*
X163487841Y-109334836D01*
X163505643Y-109120005D01*
X163505643Y-109119994D01*
X163485109Y-108872187D01*
X163485107Y-108872175D01*
X163424063Y-108631118D01*
X163324173Y-108403393D01*
X163188166Y-108195217D01*
X163090015Y-108088597D01*
X163019744Y-108012262D01*
X162936991Y-107947852D01*
X162896179Y-107891143D01*
X162892504Y-107821370D01*
X162927136Y-107760687D01*
X162936985Y-107752151D01*
X163019744Y-107687738D01*
X163188164Y-107504785D01*
X163324173Y-107296607D01*
X163424063Y-107068881D01*
X163485108Y-106827821D01*
X163485109Y-106827812D01*
X163505643Y-106580004D01*
X163505643Y-106579995D01*
X163503447Y-106553498D01*
X163517527Y-106485062D01*
X163539339Y-106455579D01*
X165587820Y-104407099D01*
X165649142Y-104373616D01*
X165718834Y-104378600D01*
G37*
%TD.AperFunction*%
%TA.AperFunction,NonConductor*%
G36*
X135494184Y-107600185D02*
G01*
X135518374Y-107620517D01*
X135578745Y-107686097D01*
X135580256Y-107687738D01*
X135663008Y-107752147D01*
X135703821Y-107808857D01*
X135707496Y-107878630D01*
X135672864Y-107939313D01*
X135663014Y-107947848D01*
X135604400Y-107993469D01*
X135580257Y-108012261D01*
X135411833Y-108195217D01*
X135275826Y-108403393D01*
X135175936Y-108631118D01*
X135114892Y-108872175D01*
X135114890Y-108872187D01*
X135094357Y-109119994D01*
X135094357Y-109120005D01*
X135114890Y-109367812D01*
X135114892Y-109367824D01*
X135175936Y-109608881D01*
X135275826Y-109836606D01*
X135411833Y-110044782D01*
X135411836Y-110044785D01*
X135580256Y-110227738D01*
X135663008Y-110292147D01*
X135703821Y-110348857D01*
X135707496Y-110418630D01*
X135672864Y-110479313D01*
X135663014Y-110487848D01*
X135604400Y-110533469D01*
X135580257Y-110552261D01*
X135411833Y-110735217D01*
X135275826Y-110943393D01*
X135175936Y-111171118D01*
X135114892Y-111412175D01*
X135114890Y-111412187D01*
X135094357Y-111659994D01*
X135094357Y-111660005D01*
X135114890Y-111907812D01*
X135114892Y-111907824D01*
X135175936Y-112148881D01*
X135275826Y-112376606D01*
X135411833Y-112584782D01*
X135411836Y-112584785D01*
X135580256Y-112767738D01*
X135663008Y-112832147D01*
X135703821Y-112888857D01*
X135707496Y-112958630D01*
X135672864Y-113019313D01*
X135663014Y-113027848D01*
X135632839Y-113051335D01*
X135580255Y-113092262D01*
X135580252Y-113092265D01*
X135518374Y-113159483D01*
X135458487Y-113195474D01*
X135427145Y-113199500D01*
X134856455Y-113199500D01*
X134759812Y-113218724D01*
X134663167Y-113237947D01*
X134663161Y-113237949D01*
X134609834Y-113260037D01*
X134609834Y-113260038D01*
X134573194Y-113275215D01*
X134481089Y-113313366D01*
X134481079Y-113313371D01*
X134317219Y-113422859D01*
X134256686Y-113483393D01*
X134177861Y-113562218D01*
X132512181Y-115227898D01*
X132450858Y-115261383D01*
X132381166Y-115256399D01*
X132325233Y-115214527D01*
X132300816Y-115149063D01*
X132300500Y-115140217D01*
X132300500Y-109820782D01*
X132320185Y-109753743D01*
X132336819Y-109733101D01*
X134453102Y-107616819D01*
X134514425Y-107583334D01*
X134540783Y-107580500D01*
X135427145Y-107580500D01*
X135494184Y-107600185D01*
G37*
%TD.AperFunction*%
%TA.AperFunction,NonConductor*%
G36*
X169736092Y-110936340D02*
G01*
X169792026Y-110978211D01*
X169814376Y-111028330D01*
X169837947Y-111146830D01*
X169837949Y-111146836D01*
X169913367Y-111328910D01*
X169913372Y-111328920D01*
X169986701Y-111438664D01*
X170022861Y-111492781D01*
X170142859Y-111612780D01*
X170142861Y-111612782D01*
X170156538Y-111626459D01*
X170265482Y-111735403D01*
X170282220Y-111752141D01*
X170446079Y-111861628D01*
X170446085Y-111861631D01*
X170446086Y-111861632D01*
X170628165Y-111937052D01*
X170789389Y-111969121D01*
X170821457Y-111975499D01*
X170821458Y-111975500D01*
X170821459Y-111975500D01*
X170821460Y-111975500D01*
X171018541Y-111975500D01*
X173269242Y-111975500D01*
X173336281Y-111995185D01*
X173356923Y-112011819D01*
X173358597Y-112013493D01*
X173358603Y-112013498D01*
X173544158Y-112143425D01*
X173587783Y-112198002D01*
X173594977Y-112267500D01*
X173563454Y-112329855D01*
X173544158Y-112346575D01*
X173358597Y-112476505D01*
X173356922Y-112478181D01*
X173356000Y-112478684D01*
X173354449Y-112479986D01*
X173354187Y-112479674D01*
X173295599Y-112511666D01*
X173269241Y-112514500D01*
X172929374Y-112514500D01*
X172832731Y-112533724D01*
X172736086Y-112552947D01*
X172736080Y-112552949D01*
X172682753Y-112575037D01*
X172682753Y-112575038D01*
X172637234Y-112593892D01*
X172554008Y-112628366D01*
X172553998Y-112628371D01*
X172390138Y-112737859D01*
X172354097Y-112773901D01*
X172250780Y-112877218D01*
X169512181Y-115615817D01*
X169450858Y-115649302D01*
X169381166Y-115644318D01*
X169325233Y-115602446D01*
X169300816Y-115536982D01*
X169300500Y-115528136D01*
X169300500Y-111320782D01*
X169320185Y-111253743D01*
X169336819Y-111233101D01*
X169433008Y-111136912D01*
X169605080Y-110964839D01*
X169666401Y-110931356D01*
X169736092Y-110936340D01*
G37*
%TD.AperFunction*%
%TA.AperFunction,NonConductor*%
G36*
X135494184Y-115220185D02*
G01*
X135518374Y-115240517D01*
X135576252Y-115303389D01*
X135580256Y-115307738D01*
X135663008Y-115372147D01*
X135703821Y-115428857D01*
X135707496Y-115498630D01*
X135672864Y-115559313D01*
X135663014Y-115567848D01*
X135618564Y-115602446D01*
X135580257Y-115632261D01*
X135411833Y-115815217D01*
X135275826Y-116023393D01*
X135175936Y-116251118D01*
X135114892Y-116492175D01*
X135114890Y-116492187D01*
X135094357Y-116739994D01*
X135094357Y-116740005D01*
X135114890Y-116987812D01*
X135114892Y-116987824D01*
X135175936Y-117228881D01*
X135275826Y-117456606D01*
X135411833Y-117664782D01*
X135411836Y-117664785D01*
X135580256Y-117847738D01*
X135663008Y-117912147D01*
X135703821Y-117968857D01*
X135707496Y-118038630D01*
X135672864Y-118099313D01*
X135663014Y-118107848D01*
X135604400Y-118153469D01*
X135580257Y-118172261D01*
X135411833Y-118355217D01*
X135275826Y-118563393D01*
X135175936Y-118791118D01*
X135114892Y-119032175D01*
X135114890Y-119032187D01*
X135094357Y-119279994D01*
X135094357Y-119280005D01*
X135114890Y-119527812D01*
X135114892Y-119527824D01*
X135175936Y-119768881D01*
X135275826Y-119996606D01*
X135411833Y-120204782D01*
X135411836Y-120204785D01*
X135580256Y-120387738D01*
X135663008Y-120452147D01*
X135703821Y-120508857D01*
X135707496Y-120578630D01*
X135672864Y-120639313D01*
X135663014Y-120647848D01*
X135580256Y-120712262D01*
X135496046Y-120803738D01*
X135411833Y-120895217D01*
X135275826Y-121103393D01*
X135175936Y-121331118D01*
X135114892Y-121572175D01*
X135114890Y-121572187D01*
X135094357Y-121819994D01*
X135094357Y-121820005D01*
X135114890Y-122067812D01*
X135114892Y-122067824D01*
X135175936Y-122308881D01*
X135275826Y-122536606D01*
X135411833Y-122744782D01*
X135411836Y-122744785D01*
X135580256Y-122927738D01*
X135663008Y-122992147D01*
X135703821Y-123048857D01*
X135707496Y-123118630D01*
X135672864Y-123179313D01*
X135663014Y-123187848D01*
X135639429Y-123206206D01*
X135580257Y-123252261D01*
X135411833Y-123435217D01*
X135275826Y-123643393D01*
X135175936Y-123871118D01*
X135114892Y-124112175D01*
X135114890Y-124112187D01*
X135094357Y-124359994D01*
X135094357Y-124360005D01*
X135114890Y-124607812D01*
X135114892Y-124607824D01*
X135175936Y-124848881D01*
X135275826Y-125076606D01*
X135411833Y-125284782D01*
X135411836Y-125284785D01*
X135580256Y-125467738D01*
X135663008Y-125532147D01*
X135703821Y-125588857D01*
X135707496Y-125658630D01*
X135672864Y-125719313D01*
X135663014Y-125727848D01*
X135604400Y-125773469D01*
X135580257Y-125792261D01*
X135411833Y-125975217D01*
X135275826Y-126183393D01*
X135175936Y-126411118D01*
X135114892Y-126652175D01*
X135114890Y-126652187D01*
X135094941Y-126892947D01*
X135094357Y-126900000D01*
X135096263Y-126923002D01*
X135096553Y-126926502D01*
X135082470Y-126994938D01*
X135060657Y-127024421D01*
X134012181Y-128072898D01*
X133950858Y-128106383D01*
X133881166Y-128101399D01*
X133825233Y-128059527D01*
X133800816Y-127994063D01*
X133800500Y-127985217D01*
X133800500Y-116820782D01*
X133820185Y-116753743D01*
X133836819Y-116733101D01*
X135333101Y-115236819D01*
X135394424Y-115203334D01*
X135420782Y-115200500D01*
X135427145Y-115200500D01*
X135494184Y-115220185D01*
G37*
%TD.AperFunction*%
%TA.AperFunction,NonConductor*%
G36*
X172798834Y-115261517D02*
G01*
X172854767Y-115303389D01*
X172879184Y-115368853D01*
X172879500Y-115377699D01*
X172879500Y-116952870D01*
X172879501Y-116952876D01*
X172885908Y-117012483D01*
X172936202Y-117147328D01*
X172936206Y-117147335D01*
X173022452Y-117262544D01*
X173022455Y-117262547D01*
X173137665Y-117348794D01*
X173137667Y-117348794D01*
X173137669Y-117348796D01*
X173148830Y-117352958D01*
X173204764Y-117394826D01*
X173229184Y-117460289D01*
X173229500Y-117469141D01*
X173229500Y-131156273D01*
X173209815Y-131223312D01*
X173193181Y-131243954D01*
X170712181Y-133724954D01*
X170650858Y-133758439D01*
X170581166Y-133753455D01*
X170525233Y-133711583D01*
X170500816Y-133646119D01*
X170500500Y-133637273D01*
X170500500Y-117508700D01*
X170520185Y-117441661D01*
X170536814Y-117421024D01*
X172667821Y-115290016D01*
X172729142Y-115256533D01*
X172798834Y-115261517D01*
G37*
%TD.AperFunction*%
%TA.AperFunction,NonConductor*%
G36*
X131718834Y-122813600D02*
G01*
X131774767Y-122855472D01*
X131799184Y-122920936D01*
X131799500Y-122929782D01*
X131799500Y-134640217D01*
X131779815Y-134707256D01*
X131727011Y-134753011D01*
X131657853Y-134762955D01*
X131594297Y-134733930D01*
X131587819Y-134727898D01*
X130336819Y-133476898D01*
X130303334Y-133415575D01*
X130300500Y-133389217D01*
X130300500Y-127756456D01*
X130262052Y-127563170D01*
X130262051Y-127563169D01*
X130262051Y-127563165D01*
X130261639Y-127562171D01*
X130186635Y-127381092D01*
X130186628Y-127381079D01*
X130077139Y-127217218D01*
X130077136Y-127217214D01*
X129937785Y-127077863D01*
X129937781Y-127077860D01*
X129773920Y-126968371D01*
X129773907Y-126968364D01*
X129591839Y-126892950D01*
X129591829Y-126892947D01*
X129398543Y-126854500D01*
X129398541Y-126854500D01*
X129201459Y-126854500D01*
X129201457Y-126854500D01*
X129008170Y-126892947D01*
X129008160Y-126892950D01*
X128826092Y-126968364D01*
X128826079Y-126968371D01*
X128662218Y-127077860D01*
X128662214Y-127077863D01*
X128637681Y-127102397D01*
X128576358Y-127135882D01*
X128506666Y-127130898D01*
X128462319Y-127102397D01*
X128437785Y-127077863D01*
X128437781Y-127077860D01*
X128273920Y-126968371D01*
X128273907Y-126968364D01*
X128091839Y-126892950D01*
X128091829Y-126892947D01*
X127898543Y-126854500D01*
X127898541Y-126854500D01*
X127874782Y-126854500D01*
X127807743Y-126834815D01*
X127761988Y-126782011D01*
X127752044Y-126712853D01*
X127781069Y-126649297D01*
X127787101Y-126642819D01*
X131587819Y-122842101D01*
X131649142Y-122808616D01*
X131718834Y-122813600D01*
G37*
%TD.AperFunction*%
%TA.AperFunction,NonConductor*%
G36*
X134005703Y-132976069D02*
G01*
X134012181Y-132982101D01*
X135519735Y-134489655D01*
X135519764Y-134489686D01*
X135662212Y-134632134D01*
X135665275Y-134634648D01*
X135666447Y-134636369D01*
X135666525Y-134636447D01*
X135666510Y-134636461D01*
X135704608Y-134692395D01*
X135706477Y-134762239D01*
X135670289Y-134822007D01*
X135607532Y-134852722D01*
X135586608Y-134854500D01*
X134265783Y-134854500D01*
X134198744Y-134834815D01*
X134178102Y-134818181D01*
X133836819Y-134476898D01*
X133803334Y-134415575D01*
X133800500Y-134389217D01*
X133800500Y-133069782D01*
X133820185Y-133002743D01*
X133872989Y-132956988D01*
X133942147Y-132947044D01*
X134005703Y-132976069D01*
G37*
%TD.AperFunction*%
M02*
