M48
; DRILL file {KiCad 8.0.1} date 2024-04-16T10:16:38-0500
; FORMAT={-:-/ absolute / inch / decimal}
; #@! TF.CreationDate,2024-04-16T10:16:38-05:00
; #@! TF.GenerationSoftware,Kicad,Pcbnew,8.0.1
; #@! TF.FileFunction,Plated,1,2,PTH
FMAT,2
INCH
; #@! TA.AperFunction,Plated,PTH,ViaDrill
T1C0.0118
; #@! TA.AperFunction,Plated,PTH,ComponentDrill
T2C0.0394
; #@! TA.AperFunction,Plated,PTH,ComponentDrill
T3C0.0402
; #@! TA.AperFunction,Plated,PTH,ComponentDrill
T4C0.1260
%
G90
G05
T1
X4.4094Y-3.7205
X4.5276Y-3.7008
X4.7835Y-3.9173
X4.9134Y-3.6754
X5.0315Y-5.0337
X5.0906Y-5.0337
X6.4961Y-3.4843
X6.5276Y-4.5612
X6.6457Y-4.0691
X6.7244Y-4.3644
X6.9488Y-4.9016
X7.0197Y-3.5967
X7.0197Y-3.6557
X7.0866Y-4.685
X7.1752Y-4.7736
T2
X4.7136Y-3.263
X4.7244Y-4.0898
X4.7244Y-4.1898
X4.7244Y-4.2898
X4.7244Y-4.3898
X4.8136Y-3.263
X4.9124Y-4.8488
X4.9124Y-4.9488
X4.9124Y-5.0488
X4.9124Y-5.1488
X4.9136Y-3.263
X6.812Y-3.2687
X6.8594Y-4.0691
X6.8594Y-4.1691
X6.8594Y-4.2691
X6.8594Y-4.3691
X6.8594Y-4.4691
X6.8594Y-4.5691
X6.912Y-3.2687
X7.012Y-3.2687
X7.0752Y-4.9016
X7.112Y-3.2687
X7.1752Y-4.9016
X7.1756Y-5.1953
X7.1756Y-5.2953
X7.212Y-3.2687
X7.312Y-3.2687
T3
X5.378Y-3.5961
X5.378Y-3.6961
X5.378Y-3.7961
X5.378Y-3.8961
X5.378Y-3.9961
X5.378Y-4.0961
X5.378Y-4.1961
X5.378Y-4.2961
X5.378Y-4.3961
X5.378Y-4.4961
X5.378Y-4.5961
X5.378Y-4.6961
X5.378Y-4.7961
X5.378Y-4.8961
X5.378Y-4.9961
X6.378Y-3.5961
X6.378Y-3.6961
X6.378Y-3.7961
X6.378Y-3.8961
X6.378Y-3.9961
X6.378Y-4.0961
X6.378Y-4.1961
X6.378Y-4.2961
X6.378Y-4.3961
X6.378Y-4.4961
X6.378Y-4.5961
X6.378Y-4.6961
X6.378Y-4.7961
X6.378Y-4.8961
X6.378Y-4.9961
T4
X4.2323Y-2.2638
X4.2323Y-5.6102
X7.5787Y-2.2638
X7.5787Y-5.6102
M30
